<svg width="70" height="70" viewBox="0 0 70 70" fill="none" xmlns="http://www.w3.org/2000/svg">
<g filter="url(#filter0_d)">
<mask id="mask0" mask-type="alpha" maskUnits="userSpaceOnUse" x="10" y="6" width="50" height="50">
<circle cx="35" cy="31" r="25" fill="white"/>
</mask>
<g mask="url(#mask0)">
<circle cx="35" cy="31" r="25" fill="white"/>
<path fill-rule="evenodd" clip-rule="evenodd" d="M34.9999 21.7917C37.1076 21.7917 38.8163 20.0474 38.8163 17.8958C38.8163 15.7442 37.1076 14 34.9999 14C32.8922 14 31.1835 15.7442 31.1835 17.8958C31.1835 20.0474 32.8922 21.7917 34.9999 21.7917ZM32.5724 23.2082C32.5724 24.773 31.3297 26.0415 29.7968 26.0415C28.2639 26.0415 27.0213 24.773 27.0213 23.2082C27.0213 21.6434 28.2639 20.3749 29.7968 20.3749C31.3297 20.3749 32.5724 21.6434 32.5724 23.2082ZM31.1842 33.125C32.7171 33.125 33.9598 31.8565 33.9598 30.2917C33.9598 28.7269 32.7171 27.4584 31.1842 27.4584C29.6513 27.4584 28.4087 28.7269 28.4087 30.2917C28.4087 31.8565 29.6513 33.125 31.1842 33.125ZM38.8162 34.5416C40.3491 34.5416 41.5918 33.2731 41.5918 31.7083C41.5918 30.1435 40.3491 28.875 38.8162 28.875C37.2833 28.875 36.0407 30.1435 36.0407 31.7083C36.0407 33.2731 37.2833 34.5416 38.8162 34.5416ZM24.9393 29.5834C26.089 29.5834 27.0209 28.632 27.0209 27.4584C27.0209 26.2848 26.089 25.3334 24.9393 25.3334C23.7896 25.3334 22.8576 26.2848 22.8576 27.4584C22.8576 28.632 23.7896 29.5834 24.9393 29.5834ZM38.1226 26.0416C38.1226 27.2152 37.1906 28.1666 36.041 28.1666C34.8913 28.1666 33.9593 27.2152 33.9593 26.0416C33.9593 24.868 34.8913 23.9166 36.041 23.9166C37.1906 23.9166 38.1226 24.868 38.1226 26.0416ZM34.6531 38.0834C35.8027 38.0834 36.7347 37.132 36.7347 35.9584C36.7347 34.7848 35.8027 33.8334 34.6531 33.8334C33.5034 33.8334 32.5714 34.7848 32.5714 35.9584C32.5714 37.132 33.5034 38.0834 34.6531 38.0834ZM47.1434 34.5418C47.1434 35.7154 46.2114 36.6668 45.0618 36.6668C43.9121 36.6668 42.9801 35.7154 42.9801 34.5418C42.9801 33.3682 43.9121 32.4168 45.0618 32.4168C46.2114 32.4168 47.1434 33.3682 47.1434 34.5418ZM40.2055 41.625C41.7384 41.625 42.9811 40.3565 42.9811 38.7917C42.9811 37.2269 41.7384 35.9584 40.2055 35.9584C38.6726 35.9584 37.43 37.2269 37.43 38.7917C37.43 40.3565 38.6726 41.625 40.2055 41.625ZM38.8163 44.1042C38.8163 46.2558 37.1076 48 34.9999 48C32.8922 48 31.1835 46.2558 31.1835 44.1042C31.1835 41.9526 32.8922 40.2084 34.9999 40.2084C37.1076 40.2084 38.8163 41.9526 38.8163 44.1042ZM25.2861 39.5C27.3939 39.5 29.1025 37.7558 29.1025 35.6042C29.1025 33.4526 27.3939 31.7084 25.2861 31.7084C23.1784 31.7084 21.4697 33.4526 21.4697 35.6042C21.4697 37.7558 23.1784 39.5 25.2861 39.5ZM48.5315 26.3957C48.5315 28.5473 46.8229 30.2915 44.7151 30.2915C42.6074 30.2915 40.8987 28.5473 40.8987 26.3957C40.8987 24.2441 42.6074 22.4999 44.7151 22.4999C46.8229 22.4999 48.5315 24.2441 48.5315 26.3957ZM22.8574 31.0001C22.8574 31.7825 22.2361 32.4167 21.4696 32.4167C20.7032 32.4167 20.0818 31.7825 20.0818 31.0001C20.0818 30.2176 20.7032 29.5834 21.4696 29.5834C22.2361 29.5834 22.8574 30.2176 22.8574 31.0001ZM48.5306 32.4167C49.297 32.4167 49.9184 31.7825 49.9184 31.0001C49.9184 30.2176 49.297 29.5834 48.5306 29.5834C47.7641 29.5834 47.1428 30.2176 47.1428 31.0001C47.1428 31.7825 47.7641 32.4167 48.5306 32.4167ZM40.8985 22.5001C40.8985 23.2825 40.2772 23.9167 39.5107 23.9167C38.7443 23.9167 38.123 23.2825 38.123 22.5001C38.123 21.7177 38.7443 21.0834 39.5107 21.0834C40.2772 21.0834 40.8985 21.7177 40.8985 22.5001ZM30.4895 40.9167C31.2559 40.9167 31.8772 40.2824 31.8772 39.5C31.8772 38.7176 31.2559 38.0834 30.4895 38.0834C29.723 38.0834 29.1017 38.7176 29.1017 39.5C29.1017 40.2824 29.723 40.9167 30.4895 40.9167ZM19.3878 33.1251C19.3878 33.5163 19.0771 33.8335 18.6939 33.8335C18.3107 33.8335 18 33.5163 18 33.1251C18 32.7339 18.3107 32.4168 18.6939 32.4168C19.0771 32.4168 19.3878 32.7339 19.3878 33.1251ZM27.7152 42.3332C28.0984 42.3332 28.4091 42.0161 28.4091 41.6249C28.4091 41.2337 28.0984 40.9165 27.7152 40.9165C27.3319 40.9165 27.0213 41.2337 27.0213 41.6249C27.0213 42.0161 27.3319 42.3332 27.7152 42.3332ZM42.9805 20.3749C42.9805 20.7661 42.6698 21.0832 42.2866 21.0832C41.9033 21.0832 41.5927 20.7661 41.5927 20.3749C41.5927 19.9837 41.9033 19.6666 42.2866 19.6666C42.6698 19.6666 42.9805 19.9837 42.9805 20.3749ZM51.3059 29.5832C51.6892 29.5832 51.9998 29.2661 51.9998 28.8749C51.9998 28.4837 51.6892 28.1666 51.3059 28.1666C50.9227 28.1666 50.6121 28.4837 50.6121 28.8749C50.6121 29.2661 50.9227 29.5832 51.3059 29.5832Z" fill="black"/>
</g>
</g>
<defs>
<filter id="filter0_d" x="0" y="0" width="70" height="70" filterUnits="userSpaceOnUse" color-interpolation-filters="sRGB">
<feFlood flood-opacity="0" result="BackgroundImageFix"/>
<feColorMatrix in="SourceAlpha" type="matrix" values="0 0 0 0 0 0 0 0 0 0 0 0 0 0 0 0 0 0 127 0"/>
<feOffset dy="4"/>
<feGaussianBlur stdDeviation="5"/>
<feColorMatrix type="matrix" values="0 0 0 0 0 0 0 0 0 0 0 0 0 0 0 0 0 0 0.15 0"/>
<feBlend mode="normal" in2="BackgroundImageFix" result="effect1_dropShadow"/>
<feBlend mode="normal" in="SourceGraphic" in2="effect1_dropShadow" result="shape"/>
</filter>
</defs>
</svg>
