<svg width="70" height="70" viewBox="0 0 70 70" fill="none" xmlns="http://www.w3.org/2000/svg">
<g filter="url(#filter0_d)">
<mask id="mask0" mask-type="alpha" maskUnits="userSpaceOnUse" x="10" y="6" width="50" height="50">
<circle cx="35" cy="31" r="25" fill="white"/>
</mask>
<g mask="url(#mask0)">
<circle cx="35" cy="31" r="25" fill="#111111"/>
</g>
<g clip-path="url(#clip0)">
<path d="M15.0336 35.9992C14.4647 35.9992 14 35.5199 14 34.9332V29.7848C14 29.1981 14.4647 28.7271 15.0336 28.7271C15.6025 28.7271 16.0673 29.2064 16.0673 29.7931V34.9414C16.0593 35.5199 15.6025 35.9992 15.0336 35.9992Z" fill="white"/>
<path d="M19.4006 35.9991C19.0961 35.9991 18.7997 35.8586 18.6074 35.619L16.5241 33.0489C16.2036 32.6523 16.2036 32.0821 16.5241 31.6854L18.6074 29.1071C18.9759 28.6526 19.625 28.5948 20.0577 28.9666C20.4903 29.3385 20.5544 30.0161 20.1939 30.4624L18.6635 32.3631L20.1939 34.2555C20.5544 34.71 20.4984 35.3793 20.0577 35.7512C19.8734 35.9082 19.641 35.9991 19.4006 35.9991Z" fill="white"/>
<path d="M26.2594 35.9991H21.8925C21.3236 35.9991 20.8589 35.5198 20.8589 34.9331V29.7848C20.8589 29.198 21.3236 28.7188 21.8925 28.7188C22.4614 28.7188 22.9262 29.198 22.9262 29.7848V33.8671H25.2338V29.7848C25.2338 29.198 25.6985 28.7188 26.2674 28.7188C26.8363 28.7188 27.3011 29.198 27.3011 29.7848V34.9331C27.2931 35.5198 26.8283 35.9991 26.2594 35.9991Z" fill="white"/>
<path d="M33.1261 35.9992H28.7592C28.1903 35.9827 27.7416 35.4951 27.7576 34.9084C27.7737 34.3464 28.2144 33.8919 28.7592 33.8754H32.0925V33.8175L28.4708 32.7515C28.0301 32.6193 27.7256 32.2061 27.7256 31.7268V29.7848C27.7256 29.1981 28.1903 28.7271 28.7592 28.7271H33.1261C33.695 28.7271 34.1598 29.2064 34.1598 29.7931C34.1598 30.3798 33.695 30.8591 33.1261 30.8591H29.7929V30.9252L33.4146 31.9912C33.8553 32.1235 34.1598 32.5367 34.1598 33.016V34.9414C34.1598 35.5281 33.695 35.9992 33.1261 35.9992Z" fill="white"/>
<path d="M47.4772 35.9991C46.9083 35.9991 46.4516 35.5198 46.4516 34.9331V32.0986L45.9708 32.5284C45.5862 32.8672 45.0173 32.8672 44.6247 32.5284L44.1439 32.0986V34.9331C44.1439 35.5198 43.6792 35.9991 43.1103 35.9991C42.5414 35.9991 42.0767 35.5198 42.0767 34.9331V29.7848C42.0767 29.198 42.5414 28.7188 43.1103 28.7188C43.3587 28.7188 43.5911 28.8097 43.7834 28.9749L45.2978 30.3137L46.8041 28.9749C47.2368 28.5948 47.8858 28.6444 48.2624 29.0906C48.4227 29.2807 48.5108 29.5286 48.5108 29.7848V34.9331C48.5188 35.5198 48.0541 35.9991 47.4772 35.9991Z" fill="white"/>
<path d="M40.6103 35.9992C40.0414 35.9992 39.5767 35.5199 39.5767 34.9332V34.0324L37.0046 30.8508H36.652V33.8671H38.2065C38.7754 33.8836 39.2241 34.3712 39.2081 34.9579C39.192 35.5199 38.7513 35.9744 38.2065 35.9909H35.6184C35.0495 35.9909 34.5928 35.5116 34.5928 34.9249V29.7848C34.5928 29.1981 35.0575 28.7271 35.6184 28.7271H37.4934C37.7978 28.7271 38.0943 28.8675 38.2866 29.1072L41.4035 32.9664C41.5558 33.1564 41.6439 33.3961 41.6439 33.644V34.9332C41.6439 35.5199 41.1872 35.9992 40.6103 35.9992Z" fill="white"/>
<path d="M54.9689 35.9992C54.4 35.9992 53.9352 35.5199 53.9352 34.9332V34.0324L51.3632 30.8508H51.0026V33.8671H52.5571C53.126 33.8836 53.5747 34.3712 53.5587 34.9579C53.5426 35.5199 53.1019 35.9744 52.5571 35.9909H49.977C49.4081 35.9909 48.9434 35.5116 48.9434 34.9249V29.7848C48.9434 29.1981 49.4081 28.7271 49.977 28.7271H51.852C52.1564 28.7271 52.4449 28.8675 52.6452 29.1072L55.7621 32.9664C55.9144 33.1564 56.0025 33.3961 56.0025 33.644V34.9332C56.0025 35.5281 55.5378 35.9992 54.9689 35.9992Z" fill="white"/>
<path d="M36.6039 26.1322C36.5318 26.0661 36.4516 26.0165 36.3555 25.9999C36.2353 25.9834 36.1151 26.0661 36.035 26.1239C35.9548 26.1817 35.7946 26.3305 35.7305 26.3883C35.6664 26.4462 35.5061 26.4792 35.2417 26.6445C34.9773 26.8098 33.9517 27.4874 33.9517 27.4874H34.2161L33.0222 28.1237H33.1424L32.9741 28.256C33.0703 28.2807 33.1664 28.2642 33.2546 28.2146V28.256C33.2546 28.256 34.6728 27.6775 34.9452 27.8262L34.777 27.8758C34.793 27.8758 35.0574 27.8924 35.0574 27.8924C35.0734 28.008 35.1375 28.1155 35.2337 28.1733C35.394 28.2807 35.402 28.3469 35.402 28.3469C35.402 28.3469 35.3218 28.3799 35.3218 28.4295C35.4741 28.3799 35.6343 28.3799 35.7786 28.4295C35.7786 28.4295 35.7705 28.3799 35.6584 28.3469C35.5462 28.2973 35.45 28.2229 35.3779 28.1155C35.3138 28.0246 35.2898 27.9089 35.3299 27.8015C35.3699 27.694 35.5061 27.6362 35.7866 27.4874C36.1151 27.3139 36.1952 27.1817 36.2353 27.0742C36.2753 26.9668 36.3555 26.7685 36.3875 26.6693C36.4196 26.5784 36.4757 26.504 36.5478 26.4379C36.6359 26.3883 36.7321 26.347 36.8202 26.314C36.8362 26.3222 36.66 26.1735 36.6039 26.1322Z" fill="white"/>
</g>
</g>
<defs>
<filter id="filter0_d" x="0" y="0" width="70" height="70" filterUnits="userSpaceOnUse" color-interpolation-filters="sRGB">
<feFlood flood-opacity="0" result="BackgroundImageFix"/>
<feColorMatrix in="SourceAlpha" type="matrix" values="0 0 0 0 0 0 0 0 0 0 0 0 0 0 0 0 0 0 127 0"/>
<feOffset dy="4"/>
<feGaussianBlur stdDeviation="5"/>
<feColorMatrix type="matrix" values="0 0 0 0 0 0 0 0 0 0 0 0 0 0 0 0 0 0 0.15 0"/>
<feBlend mode="normal" in2="BackgroundImageFix" result="effect1_dropShadow"/>
<feBlend mode="normal" in="SourceGraphic" in2="effect1_dropShadow" result="shape"/>
</filter>
<clipPath id="clip0">
<rect width="42" height="10" fill="white" transform="translate(14 26)"/>
</clipPath>
</defs>
</svg>
