<svg width="70" height="70" viewBox="0 0 70 70" fill="none" xmlns="http://www.w3.org/2000/svg">
<g filter="url(#filter0_d)">
<mask id="mask0" mask-type="alpha" maskUnits="userSpaceOnUse" x="10" y="6" width="50" height="50">
<circle cx="35" cy="31" r="25" fill="white"/>
</mask>
<g mask="url(#mask0)">
<circle cx="35" cy="31" r="25" fill="#043E7C"/>
<path fill-rule="evenodd" clip-rule="evenodd" d="M39.5683 27.2178C39.1777 27.6084 38.9824 28.1543 38.9824 28.8555C38.9824 29.3574 39.081 29.7754 39.2783 30.1094C39.4755 30.4434 39.7324 30.6875 40.0488 30.8418C40.3671 30.9961 40.7685 31.0732 41.2529 31.0732C41.7295 31.0732 42.1269 30.9844 42.4453 30.8066C42.7656 30.627 43.0097 30.377 43.1777 30.0566C43.3476 29.7344 43.4326 29.3223 43.4326 28.8203C43.4326 28.1289 43.2392 27.5918 42.8525 27.209C42.4658 26.8242 41.915 26.6318 41.2002 26.6318C40.5029 26.6318 39.9589 26.8271 39.5683 27.2178ZM40.5498 29.7959C40.3896 29.6064 40.3095 29.2949 40.3095 28.8613C40.3095 28.4238 40.3906 28.1104 40.5527 27.9209C40.7148 27.7314 40.9296 27.6367 41.1972 27.6367C41.4765 27.6367 41.6972 27.7305 41.8593 27.918C42.0234 28.1035 42.1054 28.3984 42.1054 28.8027C42.1054 29.2832 42.0273 29.6162 41.8711 29.8018C41.7148 29.9873 41.4941 30.0801 41.2089 30.0801C40.9316 30.0801 40.7119 29.9854 40.5498 29.7959ZM14.4482 26.7051H15.6875L17.3047 29.0811V26.7051H18.5557V31H17.3047L15.6963 28.6416V31H14.4482V26.7051ZM20.6946 26.7051H24.2512V27.6221H22.0246V28.3047H24.0901V29.1807H22.0246V30.0273H24.3157V31H20.6946V26.7051ZM30.0259 26.7051H25.9917V27.7656H27.3452V31H28.6723V27.7656H30.0259V26.7051ZM31.447 26.7051H32.7068L33.1609 29.1045L33.823 26.7051H35.0798L35.7448 29.1045L36.1989 26.7051H37.4529L36.5066 31H35.2058L34.4529 28.2959L33.7029 31H32.4021L31.447 26.7051ZM45.425 31V26.7051H47.6369C48.0471 26.7051 48.3605 26.7402 48.5773 26.8105C48.7941 26.8809 48.9689 27.0117 49.1018 27.2031C49.2346 27.3926 49.301 27.624 49.301 27.8975C49.301 28.1357 49.2502 28.3418 49.1486 28.5156C49.0471 28.6875 48.9074 28.8271 48.7297 28.9346C48.6164 29.0029 48.4611 29.0596 48.2639 29.1045C48.4221 29.1572 48.5373 29.21 48.6096 29.2627C48.6584 29.2979 48.7287 29.373 48.8205 29.4883C48.9143 29.6035 48.9768 29.6924 49.008 29.7549L49.6496 31H48.1496L47.4406 29.6875C47.3508 29.5176 47.2707 29.4072 47.2004 29.3564C47.1047 29.29 46.9963 29.2568 46.8752 29.2568H46.758V31H45.425ZM46.758 28.4453H47.3176C47.3781 28.4453 47.4953 28.4258 47.6691 28.3867C47.757 28.3691 47.8283 28.3242 47.883 28.252C47.9396 28.1797 47.968 28.0967 47.968 28.0029C47.968 27.8643 47.924 27.7578 47.8361 27.6836C47.7482 27.6094 47.5832 27.5723 47.341 27.5723H46.758V28.4453ZM52.6704 26.7051H51.3432V31H52.6704V29.9512L53.3559 29.2334L54.2612 31H55.8959L54.2612 28.3252L55.8256 26.7051H54.062L52.6704 28.3281V26.7051ZM22.9187 32.7307C22.6843 32.9651 22.5671 33.2926 22.5671 33.7133C22.5671 34.0145 22.6263 34.2653 22.7446 34.4657C22.863 34.6661 23.0171 34.8125 23.2069 34.9051C23.3979 34.9977 23.6388 35.044 23.9294 35.044C24.2153 35.044 24.4538 34.9907 24.6448 34.884C24.837 34.7762 24.9835 34.6262 25.0843 34.434C25.1862 34.2407 25.2372 33.9934 25.2372 33.6922C25.2372 33.2774 25.1212 32.9551 24.8892 32.7254C24.6571 32.4946 24.3267 32.3792 23.8978 32.3792C23.4794 32.3792 23.153 32.4963 22.9187 32.7307ZM23.5075 34.2776C23.4114 34.1639 23.3634 33.977 23.3634 33.7168C23.3634 33.4543 23.412 33.2663 23.5093 33.1526C23.6065 33.0389 23.7354 32.9821 23.896 32.9821C24.0636 32.9821 24.196 33.0383 24.2933 33.1508C24.3917 33.2622 24.4409 33.4391 24.4409 33.6817C24.4409 33.97 24.394 34.1698 24.3003 34.2811C24.2065 34.3924 24.0741 34.4481 23.903 34.4481C23.7366 34.4481 23.6048 34.3913 23.5075 34.2776ZM17.2603 32.4231H18.5839C18.8722 32.4231 19.0878 32.4917 19.2308 32.6288C19.3749 32.7659 19.447 32.961 19.447 33.2141C19.447 33.4743 19.3685 33.6776 19.2114 33.8241C19.0556 33.9706 18.8171 34.0438 18.496 34.0438H18.0601V35H17.2603V32.4231ZM18.0601 33.5217H18.2552C18.4087 33.5217 18.5165 33.4954 18.5786 33.4426C18.6407 33.3887 18.6718 33.3202 18.6718 33.237C18.6718 33.1561 18.6448 33.0875 18.5909 33.0313C18.537 32.975 18.4356 32.9469 18.2868 32.9469H18.0601V33.5217ZM19.8759 35V32.4231H21.203C21.4491 32.4231 21.6372 32.4442 21.7673 32.4864C21.8974 32.5286 22.0022 32.6071 22.0819 32.7219C22.1616 32.8356 22.2015 32.9745 22.2015 33.1385C22.2015 33.2815 22.171 33.4051 22.1101 33.5094C22.0491 33.6125 21.9653 33.6963 21.8587 33.7608C21.7907 33.8018 21.6976 33.8358 21.5792 33.8627C21.6741 33.8944 21.7433 33.926 21.7866 33.9577C21.8159 33.9788 21.8581 34.0239 21.9132 34.093C21.9694 34.1622 22.0069 34.2155 22.0257 34.253L22.4106 35H21.5106L21.0853 34.2125C21.0313 34.1106 20.9833 34.0444 20.9411 34.0139C20.8837 33.9741 20.8187 33.9542 20.746 33.9542H20.6757V35H19.8759ZM20.6757 33.4672H21.0114C21.0478 33.4672 21.1181 33.4555 21.2224 33.4321C21.2751 33.4215 21.3179 33.3946 21.3507 33.3512C21.3847 33.3079 21.4017 33.2581 21.4017 33.2018C21.4017 33.1186 21.3753 33.0547 21.3226 33.0102C21.2698 32.9657 21.1708 32.9434 21.0255 32.9434H20.6757V33.4672ZM25.6767 32.4231H26.8597C27.0929 32.4231 27.281 32.4547 27.4239 32.518C27.5681 32.5813 27.687 32.6721 27.7808 32.7905C27.8745 32.9088 27.9425 33.0465 27.9847 33.2036C28.0269 33.3606 28.0479 33.527 28.0479 33.7028C28.0479 33.9782 28.0163 34.192 27.953 34.3444C27.8909 34.4956 27.8042 34.6227 27.6929 34.7258C27.5815 34.8278 27.462 34.8958 27.3343 34.9297C27.1597 34.9766 27.0015 35 26.8597 35H25.6767V32.4231ZM26.4729 33.0067V34.4147H26.6681C26.8345 34.4147 26.9528 34.3965 27.0231 34.3602C27.0935 34.3227 27.1485 34.2583 27.1884 34.1668C27.2282 34.0743 27.2481 33.9249 27.2481 33.7186C27.2481 33.4456 27.2036 33.2586 27.1146 33.1579C27.0255 33.0571 26.8778 33.0067 26.6716 33.0067H26.4729ZM30.9395 32.4231H30.145V33.9963C30.145 34.1393 30.1058 34.25 30.0272 34.3286C29.9499 34.4059 29.8427 34.4446 29.7056 34.4446C29.5673 34.4446 29.4589 34.4053 29.3804 34.3268C29.303 34.2471 29.2644 34.137 29.2644 33.9963V32.4231H28.4698V33.9594C28.4698 34.086 28.4944 34.2313 28.5437 34.3954C28.5741 34.4973 28.6304 34.5963 28.7124 34.6924C28.7956 34.7885 28.887 34.8629 28.9866 34.9157C29.0862 34.9672 29.2099 35.0018 29.3575 35.0194C29.5063 35.037 29.6435 35.0458 29.7688 35.0458C29.9856 35.0458 30.1714 35.017 30.3261 34.9596C30.4374 34.9186 30.5435 34.8477 30.6442 34.7469C30.7462 34.645 30.8206 34.5266 30.8675 34.3918C30.9155 34.2559 30.9395 34.1118 30.9395 33.9594V32.4231ZM33.1825 33.9471L33.8804 34.1581C33.8335 34.3538 33.7597 34.5172 33.6589 34.6485C33.5581 34.7797 33.4327 34.8788 33.2827 34.9456C33.1339 35.0124 32.944 35.0458 32.7132 35.0458C32.4331 35.0458 32.204 35.0053 32.0259 34.9245C31.8489 34.8424 31.696 34.6989 31.5671 34.4938C31.4382 34.2887 31.3737 34.0262 31.3737 33.7063C31.3737 33.2797 31.4868 32.9522 31.713 32.7237C31.9403 32.494 32.2614 32.3792 32.6763 32.3792C33.0009 32.3792 33.2558 32.4448 33.4409 32.576C33.6272 32.7073 33.7655 32.9088 33.8558 33.1807L33.1526 33.3372C33.128 33.2586 33.1022 33.2012 33.0753 33.1649C33.0308 33.104 32.9763 33.0571 32.9118 33.0243C32.8474 32.9915 32.7753 32.975 32.6956 32.975C32.5151 32.975 32.3769 33.0477 32.2808 33.193C32.2081 33.3008 32.1718 33.4702 32.1718 33.701C32.1718 33.987 32.2151 34.1833 32.3019 34.2899C32.3886 34.3954 32.5104 34.4481 32.6675 34.4481C32.8198 34.4481 32.9347 34.4053 33.012 34.3198C33.0905 34.2342 33.1474 34.11 33.1825 33.9471ZM36.5083 32.4231H34.0878V33.0594H34.8999V35H35.6962V33.0594H36.5083V32.4231ZM36.7315 34.1475L37.4892 34.1C37.5056 34.2231 37.539 34.3168 37.5894 34.3813C37.6714 34.4856 37.7886 34.5377 37.9409 34.5377C38.0546 34.5377 38.1419 34.5114 38.2028 34.4586C38.2649 34.4047 38.296 34.3426 38.296 34.2723C38.296 34.2055 38.2667 34.1458 38.2081 34.093C38.1495 34.0403 38.0136 33.9905 37.8003 33.9436C37.4511 33.8651 37.202 33.7608 37.0532 33.6307C36.9032 33.5006 36.8282 33.3348 36.8282 33.1333C36.8282 33.0008 36.8663 32.876 36.9425 32.7588C37.0198 32.6405 37.1353 32.5479 37.2888 32.4811C37.4435 32.4131 37.655 32.3792 37.9233 32.3792C38.2526 32.3792 38.5034 32.4407 38.6757 32.5637C38.8491 32.6856 38.9522 32.8801 38.9851 33.1473L38.2345 33.1913C38.2146 33.0752 38.1724 32.9909 38.1079 32.9381C38.0446 32.8854 37.9567 32.859 37.8442 32.859C37.7517 32.859 37.6819 32.879 37.6351 32.9188C37.5882 32.9575 37.5647 33.0049 37.5647 33.0612C37.5647 33.1022 37.5841 33.1391 37.6228 33.1719C37.6603 33.2059 37.7493 33.2375 37.8899 33.2668C38.238 33.3418 38.487 33.418 38.637 33.4954C38.7882 33.5715 38.8978 33.6665 38.9657 33.7801C39.0349 33.8938 39.0694 34.0209 39.0694 34.1616C39.0694 34.3268 39.0237 34.4792 38.9323 34.6186C38.8409 34.7581 38.7132 34.8641 38.5491 34.9368C38.3851 35.0083 38.1782 35.044 37.9286 35.044C37.4903 35.044 37.1868 34.9596 37.0181 34.7909C36.8493 34.6221 36.7538 34.4077 36.7315 34.1475ZM41.9698 33.5305V34.0667H42.5024V34.3092C42.3981 34.3713 42.3056 34.4153 42.2247 34.4411C42.1438 34.4668 42.0589 34.4797 41.9698 34.4797C41.7823 34.4797 41.6358 34.42 41.5304 34.3004C41.4261 34.1809 41.3739 33.9817 41.3739 33.7028C41.3739 33.4403 41.4255 33.2487 41.5286 33.128C41.6329 33.0061 41.7724 32.9452 41.947 32.9452C42.0642 32.9452 42.1603 32.9709 42.2353 33.0225C42.3114 33.0741 42.3653 33.1485 42.397 33.2458L43.1651 33.1086C43.1183 32.9422 43.0479 32.8051 42.9542 32.6973C42.8616 32.5883 42.7444 32.5081 42.6026 32.4565C42.462 32.4049 42.2493 32.3792 41.9645 32.3792C41.6692 32.3792 41.4343 32.4208 41.2597 32.504C41.0358 32.6118 40.8659 32.77 40.7499 32.9786C40.6339 33.186 40.5759 33.4303 40.5759 33.7116C40.5759 33.9788 40.6286 34.2155 40.7341 34.4217C40.8407 34.628 40.9901 34.7833 41.1823 34.8875C41.3757 34.9918 41.6253 35.044 41.9312 35.044C42.1796 35.044 42.394 35.0153 42.5745 34.9579C42.7562 34.8993 42.9647 34.7897 43.2003 34.6292V33.5305H41.9698ZM45.3501 32.4231H46.1446V33.9594C46.1446 34.1118 46.1206 34.2559 46.0726 34.3918C46.0257 34.5266 45.9513 34.645 45.8493 34.7469C45.7485 34.8477 45.6425 34.9186 45.5312 34.9596C45.3765 35.017 45.1907 35.0458 44.9739 35.0458C44.8485 35.0458 44.7114 35.037 44.5626 35.0194C44.4149 35.0018 44.2913 34.9672 44.1917 34.9157C44.0921 34.8629 44.0007 34.7885 43.9175 34.6924C43.8354 34.5963 43.7792 34.4973 43.7487 34.3954C43.6995 34.2313 43.6749 34.086 43.6749 33.9594V32.4231H44.4694V33.9963C44.4694 34.137 44.5081 34.2471 44.5854 34.3268C44.664 34.4053 44.7724 34.4446 44.9106 34.4446C45.0478 34.4446 45.155 34.4059 45.2323 34.3286C45.3108 34.25 45.3501 34.1393 45.3501 33.9963V32.4231ZM47.5017 32.4231H46.7036V35H47.5017V32.4231ZM48.0853 32.4231H49.2683C49.5015 32.4231 49.6896 32.4547 49.8325 32.518C49.9767 32.5813 50.0956 32.6721 50.1894 32.7905C50.2831 32.9088 50.3511 33.0465 50.3933 33.2036C50.4354 33.3606 50.4565 33.527 50.4565 33.7028C50.4565 33.9782 50.4249 34.192 50.3616 34.3444C50.2995 34.4956 50.2128 34.6227 50.1015 34.7258C49.9901 34.8278 49.8706 34.8958 49.7429 34.9297C49.5683 34.9766 49.4101 35 49.2683 35H48.0853V32.4231ZM48.8815 33.0067V34.4147H49.0767C49.2431 34.4147 49.3614 34.3965 49.4317 34.3602C49.5021 34.3227 49.5571 34.2583 49.597 34.1668C49.6368 34.0743 49.6567 33.9249 49.6567 33.7186C49.6567 33.4456 49.6122 33.2586 49.5231 33.1579C49.4341 33.0571 49.2864 33.0067 49.0802 33.0067H48.8815ZM53.0089 32.4231H50.8749V35H53.0476V34.4165H51.6729V33.9084H52.9122V33.3829H51.6729V32.9733H53.0089V32.4231Z" fill="white"/>
<path fill-rule="evenodd" clip-rule="evenodd" d="M56 37H14V36.5H56V37Z" fill="white"/>
<path fill-rule="evenodd" clip-rule="evenodd" d="M56 38H14V37.7H56V38Z" fill="white"/>
<path fill-rule="evenodd" clip-rule="evenodd" d="M56 25H14V24.5H56V25Z" fill="white"/>
<path fill-rule="evenodd" clip-rule="evenodd" d="M56 24H14V23.7H56V24Z" fill="white"/>
</g>
</g>
<defs>
<filter id="filter0_d" x="0" y="0" width="70" height="70" filterUnits="userSpaceOnUse" color-interpolation-filters="sRGB">
<feFlood flood-opacity="0" result="BackgroundImageFix"/>
<feColorMatrix in="SourceAlpha" type="matrix" values="0 0 0 0 0 0 0 0 0 0 0 0 0 0 0 0 0 0 127 0"/>
<feOffset dy="4"/>
<feGaussianBlur stdDeviation="5"/>
<feColorMatrix type="matrix" values="0 0 0 0 0 0 0 0 0 0 0 0 0 0 0 0 0 0 0.15 0"/>
<feBlend mode="normal" in2="BackgroundImageFix" result="effect1_dropShadow"/>
<feBlend mode="normal" in="SourceGraphic" in2="effect1_dropShadow" result="shape"/>
</filter>
</defs>
</svg>
