<svg width="70" height="64" viewBox="0 0 70 64" fill="none" xmlns="http://www.w3.org/2000/svg">
<g filter="url(#filter0_d)">
<mask id="mask0" mask-type="alpha" maskUnits="userSpaceOnUse" x="10" y="0" width="50" height="50">
<circle cx="35" cy="25" r="25" fill="white"/>
</mask>
<g mask="url(#mask0)">
<circle cx="35" cy="25" r="25" fill="white"/>
</g>
<g clip-path="url(#clip0)">
<path d="M51.6635 22.5729V26.4429L51.2053 25.9069L48.3361 22.5236H48.2446V27.6129H48.7522V23.757L49.3232 24.4266L52.0721 27.6694H52.1639V22.5726H51.6635V22.5729Z" fill="#152431"/>
<path fill-rule="evenodd" clip-rule="evenodd" d="M21.7263 22.5376L17.3987 20.0421L17.3775 20.0349L15.2067 21.283L13.0352 22.5376V27.5564L15.206 28.8114L17.3771 30.066L19.5551 28.8114L21.7266 27.5564V22.538L21.7263 22.5376ZM14.8683 28.0708L13.5075 27.2817V22.8127L14.8683 22.0232V28.0712V28.0708ZM19.0767 28.5435L15.3327 22.0578V28.3387L17.384 29.5231L19.076 28.5428L19.0767 28.5435ZM21.2547 27.2886L19.8795 28.0784V22.016L21.2543 22.8055V27.2886H21.2547ZM15.6081 21.5934L19.4144 28.1839V21.741L17.3843 20.571L15.6081 21.5934Z" fill="#152431"/>
<path d="M37.2131 25.8576C37.2131 26.7529 36.7127 27.1968 35.9373 27.1968C35.1478 27.1968 34.6614 26.7529 34.6614 25.8576V22.5729H34.1254V25.8928C34.1254 27.07 34.908 27.6691 35.9373 27.6691C36.9662 27.6691 37.7488 27.07 37.7488 25.8928V22.5729H37.2131V25.8576ZM30.3969 25.8788H32.6663V25.4137H30.3969V23.0449H32.9414V22.5733H29.8608V27.6133H33.0468V27.141H30.3969V25.8788ZM46.3204 25.8576C46.3204 26.7529 45.82 27.1968 45.0446 27.1968C44.2551 27.1968 43.7687 26.7529 43.7687 25.8576V22.5729H43.2327V25.8928C43.2327 27.07 44.0153 27.6691 45.0446 27.6691C46.0734 27.6691 46.8561 27.07 46.8561 25.8928V22.5729H46.3204V25.8576Z" fill="#152431"/>
<path fill-rule="evenodd" clip-rule="evenodd" d="M53.5459 22.5729H54.7724C56.4569 22.5729 57.5073 23.5597 57.5073 25.0893C57.5073 26.619 56.4641 27.6129 54.7724 27.6129H53.5459V22.5729ZM54.0816 27.1334H54.7371C56.2315 27.1334 56.9432 26.2946 56.9432 25.0893C56.9432 23.8909 56.2315 23.0521 54.7371 23.0521H54.0816V27.1334Z" fill="#152431"/>
<path d="M39.1093 27.6129H39.645V25.9H41.922V25.4137H39.645V23.0449H42.1542V22.5733H39.1093V27.6133V27.6129ZM27.958 22.5729V26.4429L27.4997 25.9069L24.6305 22.5236H24.5391V27.6129H25.0467V23.757L25.6176 24.4266L28.3666 27.6694H28.4584V22.5726H27.958V22.5729Z" fill="#152431"/>
</g>
</g>
<defs>
<filter id="filter0_d" x="0" y="-6" width="70" height="70" filterUnits="userSpaceOnUse" color-interpolation-filters="sRGB">
<feFlood flood-opacity="0" result="BackgroundImageFix"/>
<feColorMatrix in="SourceAlpha" type="matrix" values="0 0 0 0 0 0 0 0 0 0 0 0 0 0 0 0 0 0 127 0"/>
<feOffset dy="4"/>
<feGaussianBlur stdDeviation="5"/>
<feColorMatrix type="matrix" values="0 0 0 0 0 0 0 0 0 0 0 0 0 0 0 0 0 0 0.15 0"/>
<feBlend mode="normal" in2="BackgroundImageFix" result="effect1_dropShadow"/>
<feBlend mode="normal" in="SourceGraphic" in2="effect1_dropShadow" result="shape"/>
</filter>
<clipPath id="clip0">
<rect width="45" height="10.08" fill="white" transform="translate(13 20)"/>
</clipPath>
</defs>
</svg>
