<svg width="70" height="70" viewBox="0 0 70 70" fill="none" xmlns="http://www.w3.org/2000/svg">
<g filter="url(#filter0_d)">
<circle cx="35" cy="31" r="25" fill="white"/>
<path fill-rule="evenodd" clip-rule="evenodd" d="M39.2625 50.7744C39.2625 51.3471 39.7897 51.7759 40.3434 51.6296C49.3534 49.248 56 40.9863 56 31.1603C56 19.4738 46.598 10 35 10C23.402 10 14 19.4738 14 31.1603C14 41.2122 20.9557 49.627 30.2817 51.7845C30.8292 51.9111 31.3377 51.4845 31.3377 50.9226V45.9096C31.3377 45.5046 31.0671 45.1516 30.682 45.0266C27.7284 44.0677 25.3396 42.3697 23.5154 39.9327C21.5719 37.3178 20.6001 34.2878 20.6001 30.8428C20.6001 26.2909 22.2973 22.5623 25.6917 19.6569C28.5113 17.2495 31.7209 16.0458 35.3206 16.0458C39.9606 16.0458 43.704 17.7406 46.5509 21.1303C48.8504 23.8697 50.0001 27.0311 50.0001 30.6145C50.0001 34.1287 48.9804 37.2762 46.941 40.0572C45.2306 42.4055 42.8892 44.0619 39.9169 45.0264C39.5323 45.1512 39.2625 45.5039 39.2625 45.9083V50.7744ZM38.9956 34.0288C38.9956 33.53 38.5912 33.1256 38.0924 33.1256H32.5283C32.0295 33.1256 31.6251 33.53 31.6251 34.0289V34.3715C31.6251 35.1375 30.7567 35.5166 30.3232 34.8852C29.5487 33.757 29.1614 32.4234 29.1614 30.8843C29.1614 29.1272 29.7705 27.6053 30.9886 26.3186C32.2068 25.0319 33.6508 24.3886 35.3206 24.3886C36.9768 24.3886 38.4139 25.0319 39.6321 26.3186C40.8502 27.6053 41.4593 29.1272 41.4593 30.8843C41.4593 32.3766 41.0766 33.6916 40.3111 34.8293C39.8789 35.4717 38.9956 35.0956 38.9956 34.3214V34.0288Z" fill="#00BFFF"/>
</g>
<defs>
<filter id="filter0_d" x="0" y="0" width="70" height="70" filterUnits="userSpaceOnUse" color-interpolation-filters="sRGB">
<feFlood flood-opacity="0" result="BackgroundImageFix"/>
<feColorMatrix in="SourceAlpha" type="matrix" values="0 0 0 0 0 0 0 0 0 0 0 0 0 0 0 0 0 0 127 0"/>
<feOffset dy="4"/>
<feGaussianBlur stdDeviation="5"/>
<feColorMatrix type="matrix" values="0 0 0 0 0 0 0 0 0 0 0 0 0 0 0 0 0 0 0.15 0"/>
<feBlend mode="normal" in2="BackgroundImageFix" result="effect1_dropShadow"/>
<feBlend mode="normal" in="SourceGraphic" in2="effect1_dropShadow" result="shape"/>
</filter>
</defs>
</svg>
