<?xml version="1.0" encoding="UTF-8"?>
<svg width="476px" height="469px" viewBox="0 0 476 469" version="1.1" xmlns="http://www.w3.org/2000/svg" xmlns:xlink="http://www.w3.org/1999/xlink">
    <!-- Generator: Sketch 52.6 (67491) - http://www.bohemiancoding.com/sketch -->
    <title>robo_usetech</title>
    <desc>Created with Sketch.</desc>
    <g id="Var2-(31-Jan-2019)" stroke="none" stroke-width="1" fill="none" fill-rule="evenodd">
        <g id="Главная-HR-Usetech(var.0.3_13_11_2017)-Copy" transform="translate(-960.000000, -260.000000)">
            <g id="Group-28" transform="translate(390.000000, 237.000000)">
                <g id="robo_usetech" transform="translate(570.000000, 0.000000)">
                    <g transform="translate(0.000000, 20.959064)">
                        <path d="M471.645445,261.539181 C466.945751,248.037993 458.231051,236.295403 446.66911,227.884912 C452.38911,206.356959 450.442513,177.882573 427.053403,163.84 C427.053403,162.612398 427.053403,161.47462 427.053403,160.396725 C427.045527,135.075917 420.965951,110.126005 409.324398,87.6388304 L408.994974,87.0100585 C381.421817,34.4312884 326.70075,1.73861521 267.324509,2.37014819 C207.948268,3.00168116 153.935238,36.8508635 127.48712,90.0042105 C119.372975,92.4392523 112.108184,97.1085198 106.52377,103.477895 L106.164398,103.867135 L104.756859,105.513918 L104.547225,105.75345 L104.367539,105.992982 L103.588901,106.981053 L103.079791,107.669708 L103.079791,107.879298 L102.720419,108.388304 L102.001675,109.436257 L101.762094,109.795556 L100.893613,111.112982 L100.624084,111.532164 L100.354555,111.981287 L100.144921,112.310643 L99.3363351,113.687953 L99.1566492,114.047251 L98.5277487,115.274854 L98.168377,115.903626 L98.0186387,116.203041 C97.6293194,116.98152 97.24,117.76 96.8806283,118.508538 L96.5811518,119.197193 L96.0720419,120.334971 L95.892356,120.784094 L95.7126702,121.203275 L95.5329843,121.622456 C95.1436649,122.580585 94.7543455,123.568655 94.3650262,124.616608 C94.3650262,124.85614 94.215288,125.095673 94.0954974,125.335205 L93.9158115,125.874152 L93.6462827,126.712515 L93.6462827,126.922105 L93.3168586,127.940117 L92.8975916,129.407251 L92.5681675,130.604912 L92.3285864,131.503158 L92.3285864,131.892398 C92.3285864,132.34152 92.0890052,132.790643 91.9991623,133.209825 C91.9093194,133.629006 91.8494241,133.838596 91.7895288,134.167953 L90.0825131,134.706901 L88.824712,135.126082 L88.495288,135.126082 L88.1958115,135.126082 L85.380733,136.144094 L84.2427225,136.593216 L82.775288,137.162105 L81.427644,137.730994 L79.4211518,138.599298 L77.2349738,139.587368 L76.4263874,139.946667 C74.9290052,140.665263 73.431623,141.443743 71.9641885,142.222222 L70.2871204,143.150409 L68.5501571,144.108538 L67.2025131,144.887018 C57.2309961,150.774505 48.1037143,157.986202 40.0699476,166.325146 C20.0363157,186.527437 6.64272796,212.358615 1.67706806,240.370526 C-4.31246073,276.719532 6.37884817,309.236023 31.624712,332.530526 L33.1520419,333.877895 L33.6012565,334.267135 L36.1168586,336.392982 L36.9553927,337.081637 L39.5907853,339.117661 L40.4293194,339.746433 L43.4240838,341.812398 L44.1128796,342.291462 L46.4188482,343.81848 L46.7782199,344.058012 L47.1375916,344.297544 C47.1375916,344.776608 47.1375916,345.255673 47.1375916,345.734737 C47.1375916,364.089969 62.0204904,378.969825 80.3794764,378.969825 L80.8586387,378.969825 C80.0500524,384.958129 79.3912042,390.407485 78.8820942,395.138246 C76.1568586,420.049591 62.081466,416.935673 164.172984,447.026901 C283.244817,482.148304 265.994974,474.453333 271.984503,448.464094 C272.763141,444.930994 273.631623,440.948772 274.500105,436.487485 C279.637038,439.57202 285.518184,441.197286 291.510366,441.188304 C304.904769,441.203422 316.992326,433.158512 322.146806,420.798129 L325.141571,420.798129 L329.573822,420.798129 L333.107644,420.798129 L333.40712,420.798129 L336.551623,420.648421 C367.881079,418.533472 397.807448,406.860081 422.291728,387.203743 C445.048187,369.232716 461.954454,344.910176 470.866806,317.320234 C476.676649,297.34924 477.065969,278.096842 471.645445,261.539181 Z M450.981571,297.109708 L450.981571,297.319298 L450.981571,297.55883 C450.37223,301.859441 449.420873,306.104629 448.136545,310.254035 C435.378848,351.693099 391.924817,396.515556 326.638953,397.38386 L322.805654,397.38386 C319.920406,388.905863 313.732348,381.952469 305.645654,378.10152 C301.193723,375.980255 296.322224,374.885415 291.390576,374.897778 C289.32091,374.894285 287.255472,375.084748 285.221361,375.466667 C286.089843,369.687953 286.868482,364.208655 287.497382,359.447953 C290.731728,334.147368 297.140524,337.770292 276.776126,331.003509 L276.776126,331.153216 C229.758325,317.919064 149.977801,306.181988 100.534241,297.588772 C98.7231306,297.265997 96.9458644,298.306754 96.3415707,300.043977 L91.1905759,314.385965 C70.6165445,307.140117 69.478534,313.09848 62.1114136,317.82924 L61.8418848,317.978947 L61.6023037,318.128655 L60.6439791,318.81731 L60.4942408,318.81731 C59.5412632,319.520827 58.6312264,320.280702 57.7690052,321.092865 L56.9304712,321.931228 L54.085445,319.895205 L53.666178,319.565848 C50.0654735,317.108961 46.6611606,314.376057 43.4839791,311.391813 C41.8268761,309.635244 40.2795812,307.828772 38.8420942,305.972398 C38.1433159,305.074152 37.4744852,304.165926 36.8356021,303.247719 C31.064298,295.068371 27.0843944,285.763423 25.1560209,275.941053 C24.9763351,275.042807 24.8166143,274.134581 24.6768586,273.216374 C24.6768586,272.437895 24.4372775,271.659415 24.3474346,270.880936 C24.2575916,270.102456 23.9581152,268.455673 23.9581152,267.317895 C23.3296227,259.619534 23.6818311,251.872533 25.0062827,244.262924 C30.3073373,215.669602 45.9184544,190.015074 68.8795812,172.163743 C71.335288,170.307368 73.8508901,168.600702 76.4563351,166.98386 L76.7857592,166.774269 L79.1815707,165.367018 L79.4810471,165.187368 C80.918534,164.378947 82.4758115,163.600468 83.9432461,162.821988 L84.7218848,162.432749 L86.7882723,161.47462 L88.1958115,160.845848 L88.8546597,160.576374 C88.8546597,160.576374 88.8546597,160.815906 88.8546597,160.815906 C89.16539,166.16189 89.9877162,171.465812 91.3103665,176.654971 L91.3103665,177.672982 L91.6397906,178.032281 C91.8494241,178.900585 92.1189529,179.738947 92.3884817,180.547368 L92.5382199,181.056374 C92.9874346,182.433684 93.4366492,183.691228 93.9158115,184.829006 C97.659267,194.021053 108.889634,202.404678 118.143455,207.105497 C134.137911,258.839037 175.525018,298.774365 227.804164,312.919524 C280.083311,327.064683 335.966004,313.447625 375.87288,276.839298 L376.441885,276.989006 L382.431414,278.84538 L382.012147,278.096842 C384.564642,278.422319 387.135527,278.582342 389.708691,278.575906 C400.310157,278.575906 415.52356,276.000936 423.399791,268.785029 C423.998743,268.246082 424.627644,267.647251 425.31644,266.928655 L425.885445,266.359766 C426.33466,265.910643 426.753927,265.431579 427.203141,264.952515 L427.832042,264.26386 L428.970052,262.916491 L429.419267,262.377544 C429.928377,261.748772 430.437487,261.090058 430.916649,260.431345 L430.916649,260.251696 L432.503874,258.036023 L432.713508,257.706667 L433.911414,255.850292 L434.300733,255.22152 C434.72,254.592749 435.139267,253.934035 435.498639,253.24538 L435.73822,252.826199 L436.337173,251.778246 L436.786387,250.969825 L437.26555,251.448889 L437.924398,252.167485 L438.253822,252.526784 L438.703037,253.005848 L439.451728,253.874152 L440.080628,254.652632 L440.859267,255.640702 L441.158743,256.059883 L441.667853,256.748538 L442.147016,257.407251 L442.566283,258.036023 C443.527037,259.462642 444.406887,260.942087 445.201675,262.467368 L445.201675,262.647018 L445.201675,262.826667 L445.890471,264.233918 L446.130052,264.712982 L446.130052,264.86269 L446.758953,266.269942 L446.968586,266.719064 L447.567539,268.305965 L447.867016,269.144327 C447.867016,269.563509 448.166492,269.952749 448.286283,270.341988 L448.286283,270.521637 C449.353928,273.865647 450.096081,277.304924 450.502408,280.791579 L450.502408,281.061053 C450.502408,281.719766 450.652147,282.37848 450.712042,283.067135 L450.712042,283.606082 C451.247535,288.087358 451.337818,292.61064 450.981571,297.109708 Z" id="Shape" fill="#FFFFFF" fill-rule="nonzero"></path>
                        <polygon id="Path" fill="#FFFFFF" points="333.107644 420.708304 332.808168 420.708304 329.274346 420.887953 329.274346 420.887953 332.808168 420.887953"></polygon>
                        <path d="M69.568377,351.363743 C68.4346793,351.362492 67.3133589,351.128082 66.2741361,350.675088 C19.8253403,330.404678 -2.9947644,289.384795 5.12104712,240.939415 C9.89915251,214.04641 22.6489937,189.209123 41.7170681,169.648655 C61.991623,148.689591 87.4770681,136.084211 113.591414,134.048187 C116.658736,133.593951 119.723367,134.887965 121.536464,137.402914 C123.34956,139.917864 123.608391,143.23383 122.207481,145.999549 C120.806572,148.765268 117.979831,150.518949 114.879162,150.545965 C65.4954974,154.408421 28.6299476,200.937544 21.4425131,243.694035 C14.5246073,284.74386 33.4215707,318.188538 72.8925654,335.464795 C76.4604059,337.054737 78.4354212,340.917814 77.6347017,344.740287 C76.8339822,348.562761 73.4745016,351.308842 69.568377,351.333801 L69.568377,351.363743 Z" id="Path" fill="#EDDFD5"></path>
                        <path d="M68.2806283,344.746667 C67.775966,344.750116 67.2761474,344.648133 66.8131937,344.447251 C22.460733,325.075088 0.59895288,285.94152 8.38534031,239.741754 C13.0107385,213.763353 25.3321919,189.772203 43.7535079,170.876257 C63.2494241,150.755556 87.6567539,138.62924 112.633089,136.683041 L112.932565,136.683041 C114.827501,136.692197 116.400928,138.148294 116.55623,140.036491 C116.711162,142.04493 115.210612,143.79968 113.202094,143.95883 C61.572356,148.000936 23.0297382,196.446316 15.5428272,240.969357 C8.26554974,284.294737 28.0010471,319.565848 69.7181152,337.770292 C71.2741264,338.479439 72.1300055,340.172771 71.7780796,341.845872 C71.4261537,343.518973 69.9605813,344.724203 68.2506806,344.746667 L68.2806283,344.746667 Z" id="Path" fill="#FFFFFF"></path>
                        <path d="M72.8925654,335.345029 C60.8785295,330.296989 50.0093894,322.87245 40.9384293,313.517661 C38.5951299,319.225847 36.7514323,325.126476 35.4280628,331.153216 C44.6334205,339.183804 55.0420079,345.720677 66.2741361,350.52538 C70.3979718,352.045425 74.9918798,350.085882 76.7481249,346.057673 C78.50437,342.029464 76.8133155,337.330881 72.8925654,335.345029 Z" id="Path" fill="#E6CBC3" opacity="0.5"></path>
                        <path d="M122.366073,141.653333 C122.190793,139.450732 121.143679,137.40911 119.457012,135.981357 C117.770344,134.553604 115.583571,133.857761 113.38178,134.048187 C97.8658116,135.389131 82.8405514,140.154509 69.3886911,148.000936 C68.0482383,155.069898 67.197698,162.22298 66.8431414,169.409123 C80.671759,158.655689 97.308324,152.116776 114.759372,150.575906 C119.323295,150.210125 122.727825,146.21665 122.366073,141.653333 Z" id="Path" fill="#E6CBC3" opacity="0.5"></path>
                        <path d="M92.8376963,148.509942 C92.1788482,159.977544 92.8376963,172.792515 97.24,183.571462 C102.091518,195.54807 123.833508,208.692398 136.591204,209.410994 C151.325445,210.249357 164.771937,184.619415 166.538848,152.132865 C168.305759,119.646316 157.973822,92.6390643 143.239581,91.8007018 C111.315393,90.0042105 94.3650262,120.215205 92.8376963,148.509942 Z" id="Path" fill="#E6CBC3"></path>
                        <path d="M108.829738,168.061754 C101.379699,159.894318 96.2148836,149.907607 93.8559162,139.108304 C93.3320129,142.219455 92.9920165,145.35878 92.8376963,148.509942 C92.1788482,159.977544 92.8376963,172.792515 97.24,183.571462 C102.091518,195.54807 123.833508,208.692398 136.591204,209.410994 C145.785131,209.949942 154.559791,200.099181 160.189948,184.739181 C141.341958,188.356347 121.955036,182.061124 108.829738,168.061754 Z" id="Path" fill="#DEC0B8"></path>
                        <path d="M159.710785,121.622456 C158.954061,118.270267 157.953137,114.977899 156.716021,111.771696 C156.117068,110.214737 155.45822,108.777544 154.799372,107.430175 C154.51986,110.384405 154.300244,113.378558 154.140524,116.412632 C154.040698,118.408733 153.93089,120.404834 153.811099,122.400936 L155.727749,122.400936 C157.045445,122.161404 158.373124,121.90191 159.710785,121.622456 Z" id="Path" fill="#EDDFD5"></path>
                        <path d="M113.052356,186.056608 C110.956021,185.218246 108.889634,184.290058 106.883141,183.301988 C104.733276,182.214214 102.652917,180.994253 100.654031,179.649123 C100.893613,180.367719 101.163141,181.086316 101.462618,181.774971 C104.489642,187.434356 108.977572,192.179837 114.459895,195.518129 C113.764764,192.402045 113.294374,189.240071 113.052356,186.056608 Z" id="Path" fill="#EDDFD5"></path>
                        <path d="M423.639372,160.396725 C423.653836,172.496155 422.246636,184.555399 419.446702,196.32655 C419.446702,196.53614 419.446702,196.745731 419.446702,196.955322 C419.177173,198.063158 418.907644,199.170994 418.608168,200.27883 L418.458429,200.877661 C396.059342,282.002834 312.846902,330.290028 231.280438,309.494832 C149.713975,288.699637 99.7902208,206.469655 118.98199,124.526784 L119.281466,123.26924 C119.491099,122.400936 119.700733,121.532632 119.940314,120.694269 C119.940314,120.305029 120.149948,119.915789 120.239791,119.556491 C140.927556,45.2448647 213.267634,-2.4251975 289.729923,7.86729461 C366.192213,18.1597867 423.3461,83.2608678 423.639372,160.396725 Z" id="Path" fill="#E6CBC3"></path>
                        <path d="M360.719372,270.521637 C359.985508,269.141312 359.403133,267.685672 358.982408,266.180117 C304.637024,310.610476 227.184736,312.896695 170.312251,271.74924 C225.238111,320.547227 307.566148,321.95893 364.133403,275.072749 C362.787973,273.722924 361.638748,272.190937 360.719372,270.521637 Z" id="Path" fill="#EDDFD5"></path>
                        <path d="M406.179895,117.101287 C406.08007,118.638285 405.950297,120.185263 405.790576,121.742222 C398.034136,202.763977 335.054241,266.689123 243.534241,266.689123 C205.067867,266.444594 167.371402,255.887606 134.375079,236.11883 C115.116381,201.769026 109.655645,161.378545 119.10178,123.149474 C119.401257,121.89193 119.730681,120.664327 120.060105,119.406784 C136.903159,58.2342049 189.428731,13.5670571 252.523632,6.76131084 C315.618533,-0.0444354222 376.464505,32.3938642 405.970262,88.5670175 C406.767113,98.0592119 406.837195,107.598413 406.179895,117.101287 Z" id="Path" fill="#EDDFD5"></path>
                        <path d="M264.76712,17.9649123 C315.228901,19.7015205 372.039581,51.1101754 401.448168,107.789474 C395.458639,53.8947368 336.940942,11.9766082 267.911623,11.9766082 C247.243816,11.8870723 226.753406,15.791146 207.56712,23.474152 C226.64377,21.5878363 245.570681,17.3061988 264.76712,17.9649123 Z" id="Path" fill="#FFFFFF"></path>
                        <path d="M408.845236,186.595556 C374.525236,157.851696 325.441047,135.156023 270.576963,122.760234 C242.875029,116.387222 214.55023,113.113465 186.124607,112.999298 C163.786138,112.793586 141.507277,115.337785 119.790576,120.574503 C119.550995,121.442807 119.341361,122.311111 119.131728,123.149474 L118.832251,124.407018 C140.847422,118.931114 163.469455,116.274977 186.154555,116.502456 C214.317734,116.621815 242.3807,119.865368 269.828272,126.173567 C333.257382,140.545497 386.624084,168.331228 418.488377,200.129123 C418.787853,199.021287 419.057382,197.91345 419.326911,196.805614 C419.326911,196.596023 419.326911,196.386433 419.326911,196.176842 C416.112531,192.963119 412.618639,189.769357 408.845236,186.595556 Z" id="Path" fill="#FFFFFF"></path>
                        <path d="M402.256754,180.517427 C369.553927,153.090994 322.775707,131.503158 270.48712,119.676257 C244.091619,113.602947 217.103025,110.479859 190.017801,110.364444 C166.392594,110.063056 142.842489,113.086851 120.060105,119.346901 C119.700733,120.574503 119.401257,121.832047 119.10178,123.089591 C142.1744,116.565988 166.072781,113.429274 190.047749,113.777778 C216.890786,113.890248 243.638288,116.983205 269.798325,122.999766 C335.084188,137.760936 389.139686,167.492865 418.338639,200.847719 C418.678045,199.550253 419.007469,198.242807 419.326911,196.92538 C414.017271,191.073748 408.313937,185.591664 402.256754,180.517427 Z" id="Path" fill="#D49C8C"></path>
                        <path d="M338.917487,135.156023 C334.155812,188.871111 286.089843,230.549708 231.884607,230.549708 C178.368168,230.549708 135.423246,189.769357 135.423246,137.25193 C135.423246,82.2194152 182.201466,34.6123977 240.539476,33.3249123 C299.656126,32.0673684 343.918743,78.7761404 338.917487,135.156023 Z" id="Path" fill="#191919"></path>
                        <path d="M324.872042,134.736842 C320.889005,179.858713 280.489634,214.890292 235.02911,214.890292 C190.107644,214.890292 154.170471,180.607251 154.170471,136.503392 C154.170471,90.2736842 193.431832,50.3017544 242.426178,49.2538012 C291.899686,48.2357895 329.064712,87.4591813 324.872042,134.736842 Z" id="Path" fill="#333333"></path>
                        <path d="M197.175288,109.795556 C213.466806,102.21037 230.097731,95.3637427 247.068063,89.2556725 C254.794555,86.4711111 262.970262,84.7644444 270.786597,82.2194152 C277.375079,80.0935673 294.89445,76.2311111 282.975288,68.3564912 C270.46531,60.4187761 255.857905,56.4234246 241.048586,56.8888889 C209.612058,57.6142207 181.561223,76.807916 169.503665,105.843275 C168.07786,109.319776 168.967001,113.3162 171.732363,115.860615 C174.497725,118.405029 178.554905,118.959722 181.90199,117.250994 C186.973124,114.656062 192.064223,112.170916 197.175288,109.795556 Z" id="Path" fill="#595959"></path>
                        <path d="M440.230366,236.538012 C435.917906,247.167251 429.838534,258.485146 421.24356,266.479532 C411.750157,275.162573 386.474346,277.797427 374.615079,273.006784 C360.958953,267.467602 359.641257,238.544094 371.979686,208.392982 C384.318115,178.241871 405.191623,158.300819 418.877696,163.84 C448.436021,175.607018 450.831832,210.159532 440.230366,236.538012 Z" id="Path" fill="#EDDFD5"></path>
                        <path d="M406.000209,180.906667 C402.121559,184.559555 398.792739,188.755028 396.117487,193.362339 C393.392251,197.91345 390.786806,202.524444 388.420942,207.225263 C395.840343,212.344004 402.661246,218.279688 408.755393,224.920702 C412.798325,216.477193 418.039162,208.033684 425.526073,202.763977 C422.11406,193.213194 415.108354,185.370986 406.000209,180.906667 Z" id="Path" fill="#FFFFFF"></path>
                        <path d="M423.459686,171.175673 C420.054429,172.151768 416.777168,173.52874 413.696754,175.277661 C422.98754,180.351689 430.141684,188.599061 433.851518,198.512281 C435.501118,197.67119 437.284747,197.124052 439.122304,196.895439 L440.230366,196.895439 C438.462282,186.362929 432.385215,177.043049 423.459686,171.175673 Z" id="Path" fill="#FFFFFF"></path>
                        <path d="M424.41801,250.221287 C413.222004,250.177023 402.623787,245.164192 395.488586,236.538012 L395.069319,235.999064 C392.601129,234.346599 390.399595,232.327257 388.540733,230.01076 C381.25625,221.109091 378.176996,209.49329 380.095497,198.152982 C380.095497,197.594074 380.095497,197.035166 380.095497,196.476257 C379.646283,195.607953 379.197068,194.709708 378.807749,193.78152 C376.237908,198.385866 373.95747,203.145807 371.979686,208.033684 C359.761047,238.184795 360.929005,267.108304 374.615079,272.647485 C386.594136,277.438129 411.750157,274.803275 421.24356,266.120234 C426.556105,261.04537 431.006663,255.139473 434.420524,248.634386 C431.151784,249.515143 427.79889,250.04708 424.41801,250.221287 Z" id="Path" fill="#E6CBC3"></path>
                        <path d="M383.809005,257.497076 C380.377552,254.88639 377.208153,251.948275 374.34555,248.724211 C374.98259,255.227126 376.598003,261.596611 379.137173,267.61731 L380.035602,269.563509 C383.22054,270.194358 386.462026,270.495363 389.708691,270.461754 C396.709261,270.512126 403.667109,269.36791 410.282723,267.078363 C400.693533,266.627464 391.464946,263.287483 383.809005,257.497076 Z" id="Path" fill="#EDDFD5"></path>
                        <ellipse id="Oval" fill="#333333" transform="translate(426.673206, 230.123488) rotate(-67.930000) translate(-426.673206, -230.123488) " cx="426.673206" cy="230.123488" rx="27.9063028" ry="12.6674877"></ellipse>
                        <path d="M369.014869,243.813801 C370.117392,230.123328 374.043066,216.809349 380.544712,204.710175 C385.446702,194.586228 391.791805,185.226844 399.38178,176.924444 C404.815533,171.056566 411.527402,166.518016 418.997487,163.660351 C405.311414,158.12117 384.318115,178.062222 372.099476,208.213333 C359.880838,238.364444 361.048796,267.287953 374.734869,272.827135 L375.663246,273.156491 C370.743013,264.190844 368.439469,254.024123 369.014869,243.813801 Z" id="Path" fill="#BA6C6A" opacity="0.5"></path>
                        <path d="M324.842094,417.444678 C315.488717,417.434521 306.15253,416.64331 296.93089,415.079298 C292.545474,414.190405 289.655469,409.984325 290.398955,405.572795 C291.142442,401.161265 295.251457,398.134265 299.686073,398.731228 C376.741361,411.695906 435.378848,363.340351 451.430785,311.272047 C461.732775,277.797427 449.813613,249.352982 423.609424,237.316491 C419.446702,235.400234 419.626387,231.627602 421.513089,227.465731 C423.399791,223.30386 426.364607,220.369591 430.497382,222.255906 C447.986806,230.280234 462.631204,245.071345 468.351204,262.617076 C473.532147,278.486082 473.142827,296.989942 467.243141,316.122573 C451.131309,368.430409 397.285445,417.444678 324.842094,417.444678 Z" id="Path" fill="#EDDFD5"></path>
                        <path d="M328.016545,411.725848 C318.914085,411.711942 309.828568,410.940782 300.854031,409.420351 C299.066813,409.02769 297.845771,407.37373 297.997107,405.550509 C298.148442,403.727289 299.625475,402.29719 301.452984,402.204444 L302.081885,402.204444 C310.621305,403.648216 319.266048,404.379313 327.926702,404.390175 C398.36356,404.390175 445.261571,356.244211 459.037487,311.571462 C469.788691,276.659649 457.899476,245.520468 428.730471,232.046784 C428.492142,231.955797 428.277241,231.812559 428.101571,231.627602 C428.038889,230.469969 428.331459,229.32082 428.940105,228.334035 C430.108063,225.818947 431.096335,225.339883 431.216126,225.339883 C431.415928,225.360994 431.609438,225.422089 431.785131,225.519532 C448.82534,233.334269 462.032251,247.376842 467.153298,263.09614 C472.034764,278.066901 471.645445,295.58269 466.015288,313.817076 C457.241053,340.908641 440.319584,364.633586 417.56,381.754386 C391.861357,401.394307 360.362483,411.937426 328.016545,411.725848 Z" id="Path" fill="#FFFFFF"></path>
                        <path d="M332.628482,416.187135 C332.418848,412.174971 332.209215,407.054971 329.304293,403.88117 C328.286073,402.773333 327.207958,401.755322 326.069948,400.887018 C317.230768,400.966018 308.40187,400.26466 299.686073,398.791111 C295.251457,398.194149 291.142442,401.221148 290.398955,405.632678 C289.655469,410.044208 292.545474,414.250288 296.93089,415.139181 C306.15253,416.703193 315.488717,417.494404 324.842094,417.504561 C327.477487,417.504561 330.082932,417.504561 332.658429,417.294971 C332.628482,416.935673 332.628482,416.606316 332.628482,416.187135 Z" id="Path" fill="#D4AEA7" opacity="0.5"></path>
                        <ellipse id="Oval" fill="#EDDFD5" cx="80.1398953" cy="345.734737" rx="29.7679581" ry="29.7618713"></ellipse>
                        <path d="M84.7817801,355.974737 C70.0774869,355.166316 59.0268063,344.357427 61.6322513,329.027368 C62.1261271,326.024693 63.0542382,323.10981 64.3874346,320.374269 C52.2590827,327.94716 47.2386268,343.077995 52.4350073,356.396933 C57.6313878,369.715872 71.5732263,377.451597 85.6269749,374.813726 C99.6807234,372.175854 109.867,359.911311 109.877906,345.614971 C109.877906,345.135906 109.877906,344.626901 109.877906,344.147836 C103.908031,351.903705 94.5647847,356.306841 84.7817801,355.974737 Z" id="Path" fill="#E6CBC3"></path>
                        <path d="M82.1463874,318.398129 L80.1398953,318.398129 C64.9964388,318.41463 52.7243585,330.684201 52.7078534,345.824561 C52.7078534,346.603041 52.7078534,347.351579 52.7078534,348.130058 C56.6908901,335.345029 69.059267,323.15883 82.1463874,318.398129 Z" id="Path" fill="#FFFFFF"></path>
                        <path d="M75.7375916,342.530994 C76.0536917,339.497834 76.1737316,336.447444 76.0969634,333.39883 C76.1366293,332.886133 76.2066297,332.376235 76.3065969,331.871813 C75.9794526,329.222829 77.2060332,326.622048 79.4583104,325.189073 C81.7105876,323.756099 84.5865645,323.746696 86.8481675,325.164912 C88.4487817,326.19346 89.791144,327.576528 90.7713089,329.207018 C91.8802018,330.67623 92.5452801,332.432093 92.6879581,334.267135 C93.4882641,339.704444 93.0480294,345.252314 91.4002094,350.495439 C88.9389266,358.158066 83.8194255,364.688874 76.965445,368.909474 C74.2843072,370.515073 70.8550843,370.095757 68.64,367.891462 C65.6452356,364.567953 67.3223037,359.956959 68.9694241,356.453801 C71.3951832,351.453567 74.5396859,348.130058 75.7375916,342.530994 Z" id="Path" fill="#333333"></path>
                        <path d="M285.610681,343.249591 C285.401047,346.962339 284.832042,352.232047 283.96356,358.938947 C282.795602,367.921404 280.968796,379.059649 279.112042,391.09614 C278.363351,395.677193 277.554764,400.378012 276.71623,405.07883 C274.200628,419.181287 271.655079,432.565146 269.528796,443.134503 C269.169424,444.781287 268.84,446.338246 268.510576,447.835322 C267.162932,453.823626 266.024921,458.404678 265.036649,461.548538 C264.62233,463.142607 264.040086,464.688249 263.299686,466.159532 L259.586178,467.387135 C245.151414,465.740351 207.327539,456.27883 165.161257,443.823158 C125.480628,432.116023 94.1853403,421.396959 83.5539267,415.977544 L81.2779058,413.282807 C81.1348695,411.729132 81.1348695,410.165605 81.2779058,408.61193 C81.2779058,405.617778 81.7870157,401.186433 82.4159162,395.61731 C82.8950785,391.156023 83.5239791,386.036023 84.2726702,380.436959 C85.2309948,373.16117 86.3690052,365.136842 87.6567539,356.813099 C89.1541361,346.902456 90.6515183,337.440936 92.1788482,329.177076 C92.8975916,325.105029 93.5863874,321.362339 94.2452356,317.978947 C95.3233508,312.439766 96.2816754,308.098246 97.0603141,305.134035 C97.9886911,301.570994 98.7074346,299.654737 99.8753927,299.295439 L109.907853,301.660819 L120.359581,304.145965 L138.627644,308.397661 L276.20712,341.003977 L276.446702,341.003977 L280.519581,341.962105 L283.514346,342.710643 L285.610681,343.249591 Z" id="Path" fill="#FFFFFF"></path>
                        <path d="M283.304712,336.961871 C270.636859,330.374737 111.045864,299.355322 100.114974,300.822456 C96.5811518,300.133801 79.3912042,412.773801 82.8651309,413.791813 C104.127958,425.34924 232.184084,463.105497 260.903874,465.500819 C265.186387,466.758363 287.736963,337.830175 283.304712,336.961871 Z" id="Path" fill="#F6E7D9"></path>
                        <path d="M100.953508,421.277193 C141.263037,435.97848 227.871623,460.889825 256.89089,465.021754 C253.536754,460.41076 250.332356,455.709942 247.127958,451.009123 C242.083639,442.919281 236.44811,435.213295 230.267435,427.954152 C228.979686,426.546901 227.632042,425.139649 226.374241,423.672515 C223.560315,420.848559 221.214903,417.593955 219.426387,414.031345 C216.970681,409.300585 213.975916,403.10269 214.844398,397.59345 C217.270157,382.203509 231.46534,374.448655 243.025131,365.975205 C256.172147,356.334035 269.768377,347.022222 283.783874,338.488889 C283.783874,337.53076 283.544293,336.991813 283.274764,336.961871 C270.606911,330.374737 111.015916,299.355322 100.085026,300.822456 C99.7855497,300.822456 99.3662827,301.600936 98.8571728,303.127953 C103.948272,307.140117 106.493822,312.649357 109.638325,318.42807 C113.681257,325.883509 119.191623,332.650292 123.743665,339.806316 C131.679791,352.29193 138.897173,368.490292 134.075602,383.490994 C128.774869,399.659415 115.747644,411.935439 100.953508,421.277193 Z" id="Path" fill="#B36866" opacity="0.3"></path>
                        <path d="M283.304712,336.961871 C282.402521,336.538292 281.471887,336.178121 280.519581,335.883977 C281.447958,351.932632 278.033927,367.891462 274.530052,383.22152 C272.703246,391.335673 271.535288,399.509708 270.037906,407.713684 C268.810052,414.869708 267.432461,421.846082 266.593927,429.032047 C265.755393,436.218012 264.707225,442.595556 259.616126,447.146667 C256.411728,450.140819 252.81801,453.584094 248.325864,454.182924 L247.816754,454.182924 C237.993927,457.596257 226.374241,455.29076 216.551414,451.847485 C208.399671,448.938969 200.514157,445.33261 192.982618,441.068538 C181.00356,434.301754 169.683351,426.097778 158.423037,418.702222 C153.059147,415.01114 149.234235,409.482663 147.671832,403.162573 L144.078115,405.408187 C138.836911,408.82422 133.407827,411.943056 127.816545,414.749942 C122.799739,417.036338 117.434255,418.463467 111.944293,418.971696 L113.591414,418.702222 C109.945834,419.405731 106.183699,419.210469 102.630576,418.133333 C98.6667738,416.743334 95.1498657,414.313027 92.448377,411.097076 C89.6889177,407.870567 87.6472562,404.094266 86.4588482,400.018713 C85.4705759,394.569357 90.172356,358.100585 92.448377,347.261754 C94.7243979,336.422924 96.8506806,325.134971 99.3363351,314.116491 C100.354555,309.655205 101.163141,305.134035 102.331099,300.642807 C101.633477,300.585979 100.932387,300.585979 100.234764,300.642807 C96.7009424,299.954152 79.5109948,412.594152 82.9849215,413.612164 C104.247749,425.169591 232.303874,462.925848 261.023665,465.32117 C265.186387,466.758363 287.736963,337.830175 283.304712,336.961871 Z" id="Path" fill="#FFEFE1"></path>
                        <polygon id="Path" fill="#FFFFFF" points="260.873927 465.740351 82.8351832 414.001404 170.941152 356.363977 187.023037 360.046784"></polygon>
                        <path d="M182.680628,364.687719 C184.510687,365.120483 186.131649,366.179719 187.262618,367.681871 L260.544503,465.620585 C259.586178,471.069942 82.4758115,418.881871 83.194555,414.061287 L168.156021,363.549942 C169.901933,362.506047 171.986124,362.183815 173.965864,362.651696 L182.680628,364.687719 Z" id="Path" fill="#F6E7D9"></path>
                        <path d="M259.705969,464.602573 C250.931309,461.967719 242.306387,459.272982 233.771309,456.66807 C232.871967,456.932572 231.915468,456.932572 231.016126,456.66807 C213.856126,451.33848 196.995602,446.877193 180.524398,442.535673 C160.834082,437.675014 141.403043,431.818913 122.306178,424.989942 C116.316649,422.744327 104.09801,419.360936 101.642304,411.36655 C100.504293,407.653801 102.660524,404.300351 104.367539,401.545731 C98.168377,405.348304 91.939267,408.941287 85.8,412.594152 L83.1346597,414.181053 C84.2427225,415.977544 86.9080628,416.606316 88.5252356,417.175205 C101.026447,422.162844 113.770237,426.519829 126.708482,430.229708 C139.765654,434.21193 153.032461,438.433684 166.658639,442.385965 C180.284817,446.338246 194.330262,450.380351 208.58534,454.362573 C219.935497,457.356725 231.525236,460.350877 243.324607,463.345029 C248.385759,464.54269 254.644817,466.758363 259.795812,465.949942 C259.995171,465.934682 260.195405,465.934682 260.394764,465.949942 L259.705969,464.602573 Z" id="Path" fill="#FFEFE1"></path>
                        <polygon id="Path" fill="#E9CFCF" points="283.33466 336.961871 180.434555 400.437895 164.472461 396.305965 100.114974 300.822456"></polygon>
                        <path d="M219.306597,371.274854 C213.975916,373.640234 208.705131,375.975673 203.404398,378.161404 C199.675014,379.920352 195.833327,381.430707 191.904503,382.682573 C182.920209,385.107836 173.516649,385.676725 164.951623,380.407018 C159.270681,376.671578 154.426855,371.798156 150.726492,366.094971 C147.402304,362.232515 143.868482,358.699415 140.574241,354.866901 C136.201885,349.776842 132.129005,344.387368 128.175916,338.967953 C124.804441,334.615088 121.694398,330.065956 118.862199,325.344561 C117.96377,323.74768 117.115253,322.140819 116.316649,320.523977 C113.65002,317.284476 111.170323,313.895583 108.889634,310.373801 C108.410471,309.655205 107.991204,308.906667 107.571937,308.158129 L106.074555,309.236023 L164.592251,396.066433 C165.55179,397.528566 167.009763,398.592562 168.695079,399.060585 L175.642932,400.857076 C177.270082,401.302961 179.009864,401.042047 180.434555,400.13848 L252.69822,355.525614 C241.587644,361.15462 230.387225,366.27462 219.306597,371.274854 Z" id="Path" fill="#FFFFFF"></path>
                        <path d="M168.904712,394.83883 L164.801885,391.844678 L100.683979,301.241637 C119.491099,302.559064 265.216335,331.183158 283.125026,337.171462 L180.644188,395.946667 L175.852565,396.665263 L168.904712,394.83883 Z" id="Path" fill="#F6E7D9"></path>
                        <path d="M100.234764,359.118596 C98.0731036,366.202518 93.9138874,372.512838 88.2557068,377.293099 C87.4471204,377.981754 86.6085864,378.640468 85.7401047,379.26924 L84.1828272,380.317193 C85.1411518,373.041404 86.2791623,365.017076 87.566911,356.693333 C89.0642932,346.78269 90.5616754,337.32117 92.0890052,329.05731 L93.4965445,329.236959 C94.0416647,329.314544 94.5816786,329.424525 95.1137173,329.566316 L96.0720419,329.835789 C106.763351,333.428772 103.379267,346.902456 100.234764,359.118596 Z" id="Path" fill="#BA6C6A" opacity="0.5"></path>
                        <path d="M279.112042,391.09614 C278.363351,395.677193 277.554764,400.378012 276.71623,405.07883 C274.200628,419.181287 271.655079,432.565146 269.528796,443.134503 C268.959791,442.835088 268.390785,442.505731 267.851728,442.146433 C266.790439,441.430123 265.788911,440.629065 264.856963,439.751111 C257.721886,432.937867 253.44035,423.670236 252.877906,413.821754 C252.877906,401.036725 252.877906,386.874386 265.186387,386.874386 C268.071694,386.954906 270.920282,387.542751 273.601675,388.610994 C274.929325,389.109064 276.228967,389.678791 277.494869,390.317661 L279.112042,391.09614 Z" id="Path" fill="#BA6C6A" opacity="0.5"></path>
                        <path d="M321.068691,408.072982 C321.04321,421.315243 312.269699,432.947868 299.542463,436.61418 C286.815228,440.280492 273.195981,435.098509 266.126994,423.899939 C259.058007,412.701369 260.239821,398.180182 269.026632,388.271516 C277.813443,378.362851 292.091461,375.450373 304.058429,381.125614 C314.470741,386.055432 321.09821,396.554557 321.068691,408.072982 Z" id="Path" fill="#E6CBC3"></path>
                        <path d="M313.132565,387.862456 C304.819294,378.875916 291.846807,375.901848 280.447846,380.369168 C269.048886,384.836488 261.553425,395.832066 261.562723,408.072982 C261.567002,409.526231 261.677102,410.97724 261.892147,412.414503 C292.588482,422.564678 304.986806,415.079298 313.132565,387.862456 Z" id="Path" fill="#EDDFD5"></path>
                        <path d="M312.683351,409.420351 C313.577643,412.878737 313.951105,416.451123 313.791414,420.019649 C317.952852,412.208296 317.751167,402.79524 313.258966,395.169225 C308.766764,387.543211 300.630739,382.802068 291.779895,382.652632 C301.783247,388.723831 309.218606,398.245109 312.683351,409.420351 Z" id="Path" fill="#FFFFFF"></path>
                        <path d="M281.268272,405.228538 C281.829559,402.187823 282.589867,399.187222 283.544293,396.246082 C283.653121,395.742043 283.733111,395.23221 283.783874,394.719064 C284.801825,392.270821 284.330352,389.456239 282.57011,387.473183 C280.809868,385.490128 278.07068,384.687639 275.518325,385.407251 C273.694673,385.928863 272.014635,386.860889 270.606911,388.13193 C269.123186,389.216142 267.980238,390.701671 267.31267,392.413567 C264.986915,397.397571 263.81974,402.843274 263.898639,408.342456 C264.083045,416.394898 267.142297,424.115806 272.52356,430.109942 C274.636818,432.429029 278.058958,433.009562 280.819058,431.517193 C284.772147,429.211696 284.35288,424.301287 283.813822,420.468772 C282.885445,415.019415 280.819058,410.97731 281.268272,405.228538 Z" id="Path" fill="#333333"></path>
                        <polygon id="Path" fill="#7FB728" points="302.860524 177.373567 294.325445 176.415439 295.79288 168.061754 304.327958 169.019883"></polygon>
                        <polygon id="Path" fill="#7FB728" points="168.42555 156.055205 159.890471 155.097076 161.357906 146.743392 169.892984 147.70152"></polygon>
                        <polygon id="Path" fill="#92BF20" points="279.591204 112.699883 271.535288 111.621988 273.092565 103.77731 281.148482 104.855205"></polygon>
                        <polygon id="Path" fill="#92BF20" points="296.601466 115.00538 288.575497 113.927485 290.132775 106.052865 298.158743 107.160702"></polygon>
                        <polygon id="Path" fill="#92BF20" points="305.226387 116.203041 297.170471 115.125146 298.727749 107.280468 306.783665 108.358363"></polygon>
                        <polygon id="Path" fill="#92BF20" points="311.904712 125.874152 303.878743 124.766316 305.436021 116.921637 313.46199 117.999532"></polygon>
                        <polygon id="Path" fill="#92BF20" points="310.40733 134.138012 302.381361 133.060117 303.938639 125.185497 311.964607 126.293333"></polygon>
                        <polygon id="Path" fill="#92BF20" points="300.584503 141.683275 292.558534 140.60538 294.115812 132.760702 302.14178 133.838596"></polygon>
                        <polygon id="Path" fill="#92BF20" points="290.761675 148.86924 282.735707 147.791345 284.292984 139.946667 292.318953 141.024561"></polygon>
                        <polygon id="Path" fill="#92BF20" points="280.669319 156.145029 272.613403 155.037193 274.200628 147.192515 282.226597 148.270409"></polygon>
                        <polygon id="Path" fill="#92BF20" points="273.691518 146.893099 265.635602 145.815205 267.19288 137.970526 275.248796 139.048421"></polygon>
                        <polygon id="Path" fill="#92BF20" points="266.983246 137.46152 258.957277 136.383626 260.514555 128.538947 268.540524 129.616842"></polygon>
                        <polygon id="Path" fill="#92BF20" points="260.274974 128.479064 252.249005 127.371228 253.806283 119.52655 261.832251 120.604444"></polygon>
                        <polygon id="Path" fill="#92BF20" points="261.832251 120.364912 253.806283 119.287018 255.36356 111.442339 263.389529 112.520234"></polygon>
                        <polygon id="Path" fill="#92BF20" points="270.966283 111.86152 262.910366 110.783626 264.467644 102.938947 272.52356 104.016842"></polygon>
                        <polygon id="Path" fill="#92BF20" points="286.329424 122.251228 278.273508 121.173333 279.860733 113.298713 287.886702 114.40655"></polygon>
                        <polygon id="Path" fill="#92BF20" points="198.852356 102.220351 190.826387 101.142456 192.383665 93.2977778 200.409634 94.3756725"></polygon>
                        <polygon id="Path" fill="#92BF20" points="215.892565 104.525848 207.866597 103.447953 209.423874 95.5733333 217.449843 96.6811696"></polygon>
                        <polygon id="Path" fill="#92BF20" points="224.517487 105.723509 216.461571 104.645614 218.018848 96.8009357 226.074764 97.8788304"></polygon>
                        <polygon id="Path" fill="#92BF20" points="231.195812 115.39462 223.169843 114.286784 224.72712 106.442105 232.753089 107.52"></polygon>
                        <polygon id="Path" fill="#92BF20" points="229.698429 123.65848 221.642513 122.580585 223.199791 114.705965 231.255707 115.813801"></polygon>
                        <polygon id="Path" fill="#92BF20" points="219.875602 131.203743 211.819686 130.125848 213.376963 122.28117 221.43288 123.359064"></polygon>
                        <polygon id="Path" fill="#92BF20" points="210.052775 138.389708 202.026806 137.311813 203.584084 129.467135 211.610052 130.545029"></polygon>
                        <polygon id="Path" fill="#92BF20" points="199.960419 145.665497 191.904503 144.557661 193.46178 136.712982 201.517696 137.790877"></polygon>
                        <polygon id="Path" fill="#92BF20" points="192.95267 136.413567 184.926702 135.335673 186.483979 127.490994 194.509948 128.568889"></polygon>
                        <polygon id="Path" fill="#92BF20" points="186.274346 126.981988 178.218429 125.904094 179.775707 118.059415 187.831623 119.13731"></polygon>
                        <polygon id="Path" fill="#92BF20" points="179.566073 117.999532 171.540105 116.891696 173.097382 109.047018 181.123351 110.124912"></polygon>
                        <polygon id="Path" fill="#92BF20" points="181.123351 109.88538 173.097382 108.807485 174.65466 100.962807 182.680628 102.040702"></polygon>
                        <polygon id="Path" fill="#92BF20" points="190.227435 101.381988 182.201466 100.304094 183.758743 92.4594152 191.784712 93.5373099"></polygon>
                        <polygon id="Path" fill="#92BF20" points="205.620524 111.771696 197.564607 110.693801 199.121885 102.819181 207.177801 103.927018"></polygon>
                        <path d="M273.751414,402.50386 L262.910366,400.048655 C260.540618,399.907783 258.477727,398.380913 257.651142,396.155988 C256.824557,393.931063 257.390294,391.428028 259.093455,389.774642 C260.796617,388.121257 263.315738,387.629592 265.515812,388.52117 L276.356859,390.976374 C283.634136,391.575205 280.579476,405.048889 273.751414,402.50386 Z" id="Path" fill="#EDDFD5"></path>
                        <path d="M262.461152,397.653333 C264.244542,396.154513 266.269937,394.969899 268.450681,394.150175 C270.307174,393.423642 272.249965,392.94056 274.230576,392.712982 L265.006702,390.617076 C264.545575,390.50553 264.073529,390.445281 263.599162,390.437427 C261.661174,390.314289 259.970588,391.74043 259.765864,393.671111 C259.567127,395.47945 260.708227,397.165398 262.461152,397.653333 Z" id="Path" fill="#FFFFFF"></path>
                        <path d="M278.782618,391.87462 C278.468678,393.216716 277.795836,394.448282 276.836021,395.437661 C273.962017,397.867187 270.124685,398.829088 266.444188,398.042573 C263.490535,398.085719 260.570992,397.407372 257.939058,396.066433 C258.763755,398.193163 260.657105,399.721218 262.910366,400.078596 L273.751414,402.533801 C279.651099,404.719532 282.735707,394.958596 278.782618,391.87462 Z" id="Path" fill="#E6CBC3"></path>
                        <path d="M277.704503,391.275789 C279.431339,393.995129 279.534715,397.440301 277.974031,400.258246 C277.419365,401.243217 276.652067,402.092186 275.727958,402.743392 C280.699267,402.414035 282.585969,393.132164 277.704503,391.275789 Z" id="Path" fill="#D6AA9F"></path>
                        <path d="M271.415497,416.396725 L259.43644,415.199064 C256.954289,415.277813 254.65206,413.909126 253.535882,411.691152 C252.419704,409.473177 252.692505,406.809156 254.235064,404.86333 C255.777623,402.917505 258.309494,402.043636 260.724188,402.623626 L272.703246,403.821287 C280.519581,403.521871 279.022199,418.253099 271.415497,416.396725 Z" id="Path" fill="#EDDFD5"></path>
                        <path d="M258.597906,412.444444 C260.205564,409.021373 263.259052,406.495622 266.923351,405.557895 L260.634346,404.899181 L259.855707,404.899181 C258.771122,404.791349 257.689321,405.129227 256.858997,405.835141 C256.028672,406.541055 255.521258,407.554274 255.453403,408.641871 C255.357236,410.525118 256.615057,412.210254 258.448168,412.654035 L258.597906,412.444444 Z" id="Path" fill="#FFFFFF"></path>
                        <path d="M273.302199,411.306667 C266.810848,414.285739 259.249057,413.755394 253.237277,409.899415 C253.855096,412.927542 256.495467,415.119099 259.586178,415.169123 L271.565236,416.366784 C276.71623,417.624327 279.052147,411.276725 277.554764,407.144795 C276.703227,409.011839 275.187379,410.495358 273.302199,411.306667 Z" id="Path" fill="#E6CBC3"></path>
                        <path d="M274.919372,404.210526 C277.169229,407.676305 276.838834,412.215252 274.110785,415.31883 C273.706953,415.755329 273.266074,416.156046 272.793089,416.516491 C278.513089,416.426667 279.740942,406.366316 274.919372,404.210526 Z" id="Path" fill="#D6AA9F"></path>
                        <path d="M275.847749,431.157895 L264.198115,433.583158 C261.863326,434.374203 259.281627,433.749368 257.567184,431.978308 C255.852742,430.207248 255.31249,427.607035 256.179583,425.299824 C257.046675,422.992613 259.165876,421.391462 261.622618,421.187368 L273.272251,418.762105 C280.639372,416.187135 283.664084,430.499181 275.847749,431.157895 Z" id="Path" fill="#EDDFD5"></path>
                        <path d="M267.372565,422.175439 L262.10178,423.283275 C258.957277,423.941988 258.028901,426.037895 258.208586,427.774503 C258.414187,429.866301 260.243688,431.417083 262.341361,431.277661 L263.209843,431.277661 C263.706993,427.9106 265.150597,424.75401 267.372565,422.175439 Z" id="Path" fill="#FFFFFF"></path>
                        <path d="M274.110785,418.432749 C275.454835,419.6943 275.995735,421.592814 275.518325,423.373099 C273.511832,429.810526 264.527539,431.726784 258.567958,431.217778 C258.051615,431.175319 257.540319,431.085109 257.040628,430.948304 C258.686586,433.264759 261.618597,434.285947 264.347853,433.493333 L275.997487,431.06807 C283.33466,430.529123 280.849005,417.175205 274.110785,418.432749 Z" id="Path" fill="#E6CBC3"></path>
                        <path d="M274.110785,418.432749 C277.704195,419.686903 279.969944,423.239563 279.591204,427.025965 C279.450859,427.947776 279.209838,428.851422 278.872461,429.720702 C282.346387,426.277427 279.681047,417.384795 274.110785,418.432749 Z" id="Path" fill="#D6AA9F"></path>
                        <path d="M84.2127749,339.836257 L96.1918325,340.944094 C98.6013229,341.470086 101.09821,340.560269 102.604146,338.607572 C104.110081,336.654876 104.355217,334.009201 103.233686,331.813154 C102.112155,329.617108 99.8249214,328.264197 97.3597906,328.338713 L85.380733,327.230877 C77.8638743,325.464327 76.4263874,340.165614 84.2127749,339.836257 Z" id="Path" fill="#EDDFD5"></path>
                        <path d="M97.0603141,330.674152 L89.8429319,329.985497 C91.5540562,331.177469 92.9931902,332.718354 94.0655497,334.506667 L94.3949738,335.135439 C95.0816833,336.199437 95.578216,337.374662 95.8624084,338.608655 L96.3715183,338.608655 L97.0902618,338.608655 C98.1846082,338.725223 99.278814,338.387331 100.116799,337.674057 C100.954785,336.960783 101.463003,335.934728 101.522513,334.836023 C101.492565,333.159298 100.41445,330.973567 97.0603141,330.674152 Z" id="Path" fill="#FFFFFF"></path>
                        <path d="M82.6554974,327.350643 C82.5365558,328.814848 82.8159504,330.283956 83.4640838,331.602339 C85.6032474,334.986097 89.1828813,337.195296 93.1671204,337.590643 C96.159414,338.614913 99.3567603,338.892439 102.480838,338.399064 C100.936379,340.282917 98.5082063,341.206118 96.1019895,340.824327 L84.1229319,339.716491 C77.474555,340.135673 77.5943455,329.207018 82.6554974,327.350643 Z" id="Path" fill="#E6CBC3"></path>
                        <path d="M83.8534031,327.111111 C81.205172,329.284921 79.9441144,332.723466 80.5591623,336.093567 C80.7912927,337.274256 81.2822225,338.388848 81.9966492,339.357193 C77.1750785,337.470877 78.3430366,327.380585 83.8534031,327.111111 Z" id="Path" fill="#D6AA9F"></path>
                        <path d="M80.8586387,355.495673 L92.5082723,358.01076 C94.8369942,358.832395 97.430844,358.236371 99.1670936,356.480671 C100.903343,354.724971 101.470026,352.125057 100.621858,349.806282 C99.7736905,347.487506 97.663069,345.866504 95.2035602,345.644912 L83.5838743,343.129825 C76.2766492,340.465029 73.1321466,354.896842 80.8586387,355.495673 Z" id="Path" fill="#EDDFD5"></path>
                        <path d="M94.7543455,347.950409 L89.8429319,346.872515 C91.5954967,348.604685 92.465921,351.039171 92.2087958,353.489591 C92.1214032,354.166803 91.9503964,354.830576 91.6996859,355.465731 L93.0173822,355.765146 C93.4987045,355.877263 93.9906578,355.93749 94.4848168,355.944795 C96.5712298,356.067427 98.3822447,354.52111 98.587644,352.441637 C98.8272251,350.705029 97.8988482,348.609123 94.7543455,347.950409 Z" id="Path" fill="#FFFFFF"></path>
                        <path d="M80.8586387,350.076257 C86.0970982,354.925172 93.4435671,356.775517 100.354555,354.986667 C98.8136405,357.654208 95.6293675,358.897811 92.6879581,357.980819 L80.8586387,355.495673 C75.5878534,355.076491 75.3183246,348.339649 77.8638743,344.836491 C78.1657474,346.898083 79.2353931,348.769581 80.8586387,350.076257 Z" id="Path" fill="#E6CBC3"></path>
                        <path d="M81.3976963,342.830409 C78.1783329,345.422559 77.0769216,349.839538 78.7024084,353.639298 C78.9463512,354.182404 79.2369332,354.703341 79.5708901,355.196257 C74.2402094,353.309942 76.126911,343.369357 81.3976963,342.830409 Z" id="Path" fill="#D6AA9F"></path>
                        <path d="M72.1438743,368.04117 L82.4758115,374.029474 C84.4440736,375.531269 87.103762,375.758654 89.2984758,374.612765 C91.4931895,373.466877 92.8264166,371.154738 92.7184855,368.681639 C92.6105545,366.208541 91.080965,364.02129 88.7947644,363.070877 L78.4628272,357.082573 C72.2636649,352.29193 64.8965445,365.106901 72.1438743,368.04117 Z" id="Path" fill="#EDDFD5"></path>
                        <path d="M87.6268063,365.047018 L83.0747644,362.292398 C84.1100301,363.738618 84.5102318,365.544564 84.1828272,367.292632 C83.943235,368.724426 83.530944,370.121908 82.9549738,371.454503 L83.6437696,371.843743 C84.4919898,372.366 85.4630482,372.655193 86.4588482,372.682105 C88.2427335,372.669555 89.7821656,371.428332 90.172356,369.687953 C90.519547,367.735208 89.4603477,365.804122 87.6268063,365.047018 Z" id="Path" fill="#FFFFFF"></path>
                        <path d="M77.8638743,356.603509 C76.2330897,357.421433 75.1771954,359.062324 75.1086911,360.885146 C75.1086911,367.621988 82.9549738,372.232982 88.7947644,373.610292 C89.2963571,373.726897 89.8076272,373.797057 90.3220942,373.819883 C88.0080192,375.460636 84.9096771,375.460636 82.5956021,373.819883 L72.2636649,367.831579 C65.1960209,365.28655 71.7246073,353.309942 77.8638743,356.603509 Z" id="Path" fill="#E6CBC3"></path>
                        <path d="M77.8638743,356.603509 C74.0480137,356.6674 70.7759516,359.343995 69.9576963,363.070877 C69.7958879,363.989673 69.7356304,364.923472 69.7780105,365.855439 C67.4720419,361.513918 72.7727749,353.87883 77.8638743,356.603509 Z" id="Path" fill="#D6AA9F"></path>
                        <path d="M423.579476,237.316491 C446.189948,247.706199 458.139058,270.252164 454.395602,297.768421 C456.51584,291.172652 457.179973,284.195583 456.342199,277.318363 C454.853298,266.818468 450.868755,256.828345 444.722513,248.185263 L442.745969,245.520468 C441.338429,244.532398 439.93089,243.544327 438.553298,242.526316 C433.282513,238.574035 427.143246,234.172632 424.358115,227.974737 C423.856587,226.855574 423.494502,225.679039 423.28,224.471579 C422.583932,225.402456 421.991461,226.40644 421.513089,227.465731 C419.59644,231.627602 419.416754,235.400234 423.579476,237.316491 Z" id="Path" fill="#E6CBC3"></path>
                        <path d="M95.5928796,159.408655 C97.6186393,146.108423 101.817373,133.231569 108.021152,121.293099 C114.121602,109.316677 123.366159,99.2253001 134.764398,92.100117 C108.350576,95.5433918 94.215288,122.760234 92.8376963,148.509942 C91.9219487,159.114001 92.9366104,169.796204 95.8324607,180.038363 C94.5678824,173.22661 94.4868361,166.247927 95.5928796,159.408655 Z" id="Path" fill="#EDDFD5"></path>
                        <polygon id="Path" fill="#92BF20" points="173.576545 344.776608 130.511832 336.872047 134.974031 312.589474 178.038743 320.494035 178.308272 333.39883"></polygon>
                        <polygon id="Path" fill="#7FB728" points="178.308272 333.428772 173.576545 344.776608 130.511832 336.872047 132.69801 325.045146"></polygon>
                        <path d="M148.330681,328.698012 C147.432251,333.548538 144.776894,335.544639 140.364607,334.686316 C135.952321,333.827992 134.255288,331.053411 135.273508,326.362573 L136.980524,317.020819 L140.544293,317.679532 L138.80733,327.051228 C138.328168,329.666121 139.086841,331.153216 141.083351,331.512515 C143.07986,331.871813 144.287749,330.793918 144.707016,328.27883 L146.443979,318.757427 L150.007749,319.41614 L148.330681,328.698012 Z" id="Path" fill="#FFFFFF"></path>
                        <path d="M148.749948,335.345029 L149.408796,331.722105 C149.924602,332.369093 150.553747,332.916946 151.26555,333.338947 C151.938929,333.745509 152.679133,334.029365 153.451728,334.17731 C153.84957,334.225585 154.251791,334.225585 154.649634,334.17731 C154.95704,334.16798 155.260714,334.107258 155.548063,333.997661 C155.77929,333.90956 155.985074,333.76554 156.147016,333.57848 C156.289466,333.395562 156.382301,333.178991 156.416545,332.949708 C156.512535,332.657983 156.512535,332.343187 156.416545,332.051462 C156.263928,331.750142 156.061419,331.476811 155.817592,331.243041 C155.520947,330.947659 155.200416,330.677267 154.859267,330.43462 L153.631414,329.596257 C152.64529,328.997355 151.822331,328.164279 151.235602,327.170994 C150.751706,326.251658 150.613574,325.189318 150.846283,324.176842 C150.967857,323.423793 151.276798,322.713374 151.744712,322.110877 C152.175734,321.568739 152.730223,321.137558 153.361885,320.853333 C154.033407,320.554672 154.754174,320.382129 155.488168,320.344327 C156.299834,320.296059 157.11436,320.346328 157.913927,320.494035 C158.645679,320.616944 159.366641,320.797148 160.070157,321.032982 C160.655639,321.23121 161.217938,321.492224 161.747225,321.811462 L161.118325,325.194854 C160.880309,324.951038 160.619583,324.730469 160.339686,324.53614 C160.054458,324.33375 159.754097,324.153571 159.441257,323.997193 L158.482932,323.607953 L157.554555,323.368421 C157.186428,323.325847 156.814619,323.325847 156.446492,323.368421 C156.139213,323.37885 155.835717,323.439537 155.548063,323.54807 C155.308764,323.637169 155.093462,323.780674 154.919162,323.967251 C154.762123,324.144476 154.658316,324.362425 154.619686,324.596023 C154.541251,324.849592 154.541251,325.120934 154.619686,325.374503 C154.735683,325.64046 154.897913,325.883756 155.098848,326.093099 C155.355782,326.366798 155.636383,326.617283 155.937382,326.841637 L157.075393,327.650058 C157.610803,328.003652 158.121129,328.393822 158.602723,328.817778 C159.027582,329.184604 159.400377,329.60769 159.710785,330.075322 C159.993376,330.523071 160.186599,331.021281 160.279791,331.542456 C160.482425,332.934162 160.139048,334.350306 159.321466,335.494737 C158.891155,336.030232 158.335812,336.451795 157.704293,336.722339 C157.019497,337.00402 156.288395,337.156302 155.548063,337.171462 C154.725418,337.199851 153.902106,337.139621 153.092356,336.991813 C152.263693,336.839963 151.451421,336.609365 150.666597,336.303158 C149.979542,336.050203 149.333674,335.697066 148.749948,335.255205" id="Path" fill="#FFFFFF"></path>
                        <polygon id="Path" fill="#FFFFFF" points="170.312251 339.985965 160.848796 338.249357 163.813613 322.080936 172.917696 323.757661 172.378639 326.721871 166.838325 325.70386 166.179476 329.296842 171.330471 330.225029 170.791414 333.18924 165.640419 332.231111 164.951623 335.94386 170.851309 337.021754"></polygon>
                        <polygon id="Path" fill="#303030" points="191.93445 330.284912 187.442304 329.476491 185.016545 342.680702 181.452775 342.021988 183.878534 328.817778 179.416335 328.009357 179.955393 325.045146 192.503455 327.350643"></polygon>
                        <polygon id="Path" fill="#303030" points="199.960419 345.40538 190.526911 343.668772 193.491728 327.530292 202.565864 329.177076 202.026806 332.141287 196.486492 331.123275 195.827644 334.746199 200.978639 335.674386 200.439581 338.638596 195.288586 337.680468 194.599791 341.393216 200.499476 342.471111"></polygon>
                        <path d="M212.628272,347.321637 C211.09142,347.678263 209.493292,347.678263 207.95644,347.321637 C205.80989,347.046688 203.88209,345.870644 202.655707,344.087953 C201.51054,342.237651 201.144469,340.00938 201.637487,337.890058 C201.936277,335.498564 203.202726,333.334135 205.141361,331.901754 C207.030321,330.578522 209.389075,330.111214 211.64,330.614269 C212.966314,330.824929 214.244242,331.271098 215.413403,331.931696 L214.934241,335.345029 C213.972675,334.487671 212.789871,333.917137 211.520209,333.698246 C210.189857,333.400746 208.795739,333.683869 207.686911,334.476725 C206.547378,335.36482 205.804724,336.66689 205.620524,338.099649 C205.298023,339.454568 205.512674,340.881703 206.219476,342.081871 C206.940025,343.19477 208.110121,343.93823 209.423874,344.117895 C210.756544,344.377142 212.134949,344.263161 213.406911,343.788538 L212.628272,347.321637 Z" id="Path" fill="#303030"></path>
                        <polygon id="Path" fill="#303030" points="227.931518 350.555322 224.367749 349.896608 225.595602 343.339415 219.067016 342.111813 217.839162 348.698947 214.30534 348.040234 217.270157 331.901754 220.803979 332.530526 219.636021 338.997895 226.164607 340.195556 227.362513 333.758129 230.896335 334.386901"></polygon>
                        <path d="M218.617801,263.185965 C212.508519,271.172654 205.205561,278.171154 196.965654,283.935439 C195.138848,281.929357 193.46178,279.983158 191.93445,277.947135 L189.77822,275.461988 C185.659487,270.923828 182.256324,265.78479 179.685864,260.221754 C178.15502,256.976777 178.300273,253.189813 180.075183,250.071579 C181.564794,247.409314 183.969491,245.377441 186.843351,244.352749 C187.986555,244.003447 189.18909,243.891369 190.377173,244.023392 C193.341933,244.387854 195.999816,246.028187 197.65445,248.51462 L200.259895,252.347135 L203.643979,249.263158 C204.851319,248.140898 206.293907,247.302118 207.866597,246.807953 C209.14403,246.410406 210.489227,246.277952 211.819686,246.418713 C214.65396,247.075603 217.172815,248.694536 218.947225,250.999766 C221.436641,254.719695 221.304554,259.605904 218.617801,263.185965 Z" id="Path" fill="#FFFFFF"></path>
                        <path d="M158.033717,301.541053 C156.864648,300.495374 155.349778,299.919415 153.781152,299.924211 C152.174242,300.078209 150.716973,300.932674 149.798115,302.259649 C148.658653,301.108846 147.0705,300.517517 145.455707,300.642807 C143.221402,300.974149 141.38487,302.5764 140.753927,304.744795 C140.204352,306.499376 140.491424,308.409116 141.532565,309.924678 C143.313318,312.279383 145.432578,314.357851 147.821571,316.092632 C148.959581,317.05076 150.097592,317.919064 151.26555,318.727485 C154.539287,315.614686 157.218421,311.93163 159.171728,307.858713 C160.157358,305.722894 159.702704,303.198887 158.033717,301.541053 Z M155.727749,306.481404 C154.415937,309.214632 152.732961,311.753692 150.726492,314.026667 L149.977801,313.397895 L148.929634,312.529591 C147.211637,311.272216 145.687965,309.769033 144.407539,308.068304 C143.658848,306.870643 143.868482,306.271813 143.958325,305.972398 C144.162101,305.23586 144.675681,304.62406 145.365864,304.295673 L145.66534,304.295673 C146.241839,304.272342 146.799753,304.502025 147.19267,304.924444 L150.187435,307.918596 L152.613194,304.535205 C152.861484,304.174363 153.218052,303.901749 153.631414,303.756725 L153.990785,303.756725 C154.512588,303.832676 155.006908,304.038601 155.428272,304.355556 C155.904929,304.95803 156.019418,305.770737 155.727749,306.481404 Z" id="Shape" fill="#FFFFFF" fill-rule="nonzero"></path>
                        <path d="M139.795602,222.52538 C141.577735,224.190025 143.596025,225.58236 145.785131,226.65731 C146.863246,227.286082 147.911414,227.825029 148.989529,228.304094 C151.197994,225.291189 152.841754,221.902896 153.841047,218.303626 C154.35003,216.425071 153.632572,214.428556 152.044188,213.303392 C150.957471,212.619453 149.655435,212.363367 148.390576,212.584795 C147.068601,212.919351 145.968221,213.832479 145.395812,215.069942 C144.302512,214.292002 142.920106,214.03971 141.622408,214.381287 C140.019226,214.938622 138.814352,216.279612 138.431358,217.932833 C138.048365,219.586054 138.54086,221.320105 139.735707,222.52538 L139.795602,222.52538 Z" id="Path" fill="#FFFFFF"></path>
                        <path d="M188.939686,324.566082 C189.314652,326.275501 189.940334,327.920103 190.79644,329.44655 C191.155812,330.225029 191.575079,330.973567 191.994346,331.722105 C194.527758,330.857814 196.882242,329.538761 198.942199,327.829708 C200.013264,326.931906 200.408206,325.460149 199.930471,324.146901 C199.560708,323.296535 198.888381,322.613675 198.04377,322.230643 C197.139766,321.916736 196.143521,322.015246 195.318534,322.500117 C194.991976,321.5939 194.27834,320.880409 193.371937,320.553918 C192.087144,320.162911 190.692418,320.561322 189.808168,321.57193 C189.057466,322.374293 188.734814,323.486659 188.939686,324.566082 Z" id="Path" fill="#FFFFFF"></path>
                        <path d="M133.506597,288.187135 C135.786302,290.455284 138.390186,292.372481 141.233089,293.876023 C142.610681,294.714386 143.988272,295.492865 145.365864,296.18152 C148.40851,292.32019 150.722288,287.937087 152.193927,283.246784 C152.976755,280.798065 152.108992,278.123012 150.037696,276.599766 C148.620424,275.625724 146.888836,275.219632 145.186178,275.461988 C143.50883,275.849931 142.079563,276.940751 141.263037,278.45614 C139.858495,277.404355 138.06326,277.021303 136.351623,277.408187 C134.227339,278.071989 132.590572,279.77649 132.013712,281.925615 C131.436851,284.07474 132.000142,286.369532 133.506597,288.007485 L133.506597,288.187135 Z" id="Path" fill="#FFFFFF"></path>
                        <path d="M140.753927,289.324912 C143.261311,286.632689 145.974802,284.139991 148.869738,281.869474 C149.054923,280.956093 148.706903,280.016631 147.971309,279.444211 C147.457378,279.155769 146.883013,278.991699 146.294241,278.965146 L146.084607,278.965146 C145.401028,279.143737 144.831148,279.614888 144.52733,280.252632 L142.610681,283.96538 L139.166702,281.450292 C138.749039,281.141084 138.248429,280.963821 137.729215,280.941287 L137.160209,280.941287 C136.184739,281.356214 135.501355,282.255819 135.363351,283.306667 C135.217596,284.219368 135.544566,285.143715 136.231832,285.761871 C137.553911,287.167423 139.077995,288.368276 140.753927,289.324912 Z" id="Path" fill="#FFFFFF"></path>
                        <path d="M214.874346,316.06269 C214.012323,319.992722 213.739812,324.029095 214.065759,328.039298 C214.065759,330.04538 214.065759,331.991579 214.395183,334.027602 C220.493477,334.6411 226.652501,334.144015 232.573403,332.560468 C235.642905,331.705641 237.854231,329.028692 238.113717,325.853567 C238.167248,323.728461 237.431031,321.658942 236.04733,320.044912 C234.451961,318.511196 232.257591,317.765262 230.057801,318.008889 C230.274482,315.790396 229.482875,313.591936 227.901571,312.020585 C225.784421,310.220977 222.891297,309.634402 220.240203,310.467259 C217.589108,311.300116 215.551517,313.435704 214.844398,316.122573 L214.874346,316.06269 Z" id="Path" fill="#FFFFFF"></path>
                        <path d="M282.556021,261.090058 C281.92712,259.74269 281.328168,258.425263 280.819058,257.107836 L279.830785,254.742456 C277.916715,250.79831 276.604421,246.589736 275.937592,242.256842 C275.534099,240.060211 276.266121,237.808296 277.884188,236.268538 C279.29277,234.856878 281.191105,234.041941 283.184921,233.992982 C283.802786,234.010598 284.412032,234.142574 284.98178,234.382222 C286.665204,235.108584 287.938248,236.545952 288.455707,238.304561 L290.042932,243.214971 L294.654869,240.879532 C295.626859,240.382016 296.707714,240.135014 297.799372,240.160936 C298.510016,240.181634 299.210658,240.333916 299.865759,240.610058 C301.34874,241.512177 302.503338,242.865927 303.16,244.472515 C303.922205,247.086025 302.949413,249.89574 300.734241,251.47883 C295.175668,255.551113 289.05151,258.789091 282.556021,261.090058 Z" id="Path" fill="#FFFFFF"></path>
                        <path d="M279.14199,249.083509 C282.705759,248.843977 286.269529,248.814035 289.503874,248.604444 C293.427016,248.334971 297.529843,247.975673 301.63267,247.855906 C301.982646,246.888524 301.982646,245.829137 301.63267,244.861754 C301.111676,243.652883 300.260602,242.6152 299.176963,241.867602 C298.6822,241.664125 298.154483,241.552515 297.619686,241.538246 C296.776452,241.524073 295.942904,241.719556 295.193927,242.107135 L289.05466,245.101287 L286.958325,238.544094 C286.564163,237.206494 285.599833,236.110889 284.322932,235.549942 C283.923288,235.385215 283.497196,235.293929 283.065131,235.280468 C281.459254,235.345658 279.938567,236.020191 278.812565,237.166784 C277.532014,238.417593 276.978657,240.235393 277.345131,241.987368 C277.618467,244.42345 278.222996,246.810851 279.14199,249.083509 Z" id="Path" fill="#FFFFFF"></path>
                        <path d="M303.519372,292.887953 C303.682246,295.24676 304.19705,297.56795 305.046702,299.774503 C305.376126,300.912281 305.795393,301.990175 306.21466,303.038129 C309.772848,302.378943 313.182081,301.080453 316.277068,299.205614 C317.88263,298.213109 318.696292,296.322928 318.313508,294.474854 C317.997278,293.241059 317.227306,292.171872 316.157277,291.480702 C315.015989,290.880699 313.667997,290.814957 312.473717,291.301053 C312.21463,290.024275 311.403111,288.927852 310.257592,288.306901 C308.756787,287.639233 307.018503,287.78674 305.651716,288.697745 C304.284929,289.60875 303.48017,291.156259 303.519372,292.798129 L303.519372,292.887953 Z" id="Path" fill="#FFFFFF"></path>
                        <path d="M274.200628,288.067368 C273.465834,285.764739 271.895288,283.820652 269.798325,282.618012 C267.550027,281.563437 264.949031,281.563437 262.700733,282.618012 C262.076656,280.206286 260.422722,278.191308 258.178639,277.108772 C255.229974,275.919102 251.875788,276.337179 249.309529,278.214249 C246.74327,280.091318 245.329284,283.160881 245.570681,286.33076 C246.131812,290.849457 247.363202,295.259351 249.224293,299.415205 C249.972984,301.570994 250.841466,303.607018 251.739895,305.613099 C258.518308,304.018899 264.951342,301.208826 270.726702,297.319298 C273.705426,295.264721 275.091154,291.574183 274.200628,288.067368 Z M268.660314,294.534737 C264.040704,297.60079 258.995541,299.971532 253.686492,301.570994 C253.20733,300.433216 252.81801,299.355322 252.428691,298.277427 L251.739895,296.36117 C250.350919,293.13977 249.452501,289.728498 249.074555,286.240936 C248.837015,284.468027 249.499791,282.693498 250.841466,281.510175 C251.950994,280.51792 253.367619,279.936588 254.85445,279.863392 C255.465053,279.860067 256.0687,279.993046 256.621361,280.252632 C257.954085,280.901343 258.93033,282.107692 259.286702,283.546199 L260.544503,287.438596 L264.25801,285.761871 C264.935417,285.453422 265.669926,285.290231 266.414241,285.282807 C267.108132,285.281678 267.793562,285.435101 268.420733,285.73193 C269.585473,286.497867 270.468646,287.62263 270.936335,288.935673 C271.467948,291.097697 270.549757,293.356469 268.660314,294.534737 Z" id="Shape" fill="#FFFFFF" fill-rule="nonzero"></path>
                        <ellipse id="Oval" fill="#FFFFFF" transform="translate(174.176403, 301.856962) rotate(-68.510000) translate(-174.176403, -301.856962) " cx="174.176403" cy="301.856962" rx="2.78463783" ry="2.78505446"></ellipse>
                        <ellipse id="Oval" fill="#FFFFFF" transform="translate(243.123734, 247.134281) rotate(-68.490000) translate(-243.123734, -247.134281) " cx="243.123734" cy="247.134281" rx="3.38348484" ry="3.38399074"></ellipse>
                        <ellipse id="Oval" fill="#FFFFFF" transform="translate(292.439158, 277.596660) rotate(-68.480000) translate(-292.439158, -277.596660) " cx="292.439158" cy="277.59666" rx="1.79654067" ry="1.7968092"></ellipse>
                        <ellipse id="Oval" fill="#FFFFFF" transform="translate(163.141684, 251.890121) rotate(-68.490000) translate(-163.141684, -251.890121) " cx="163.141684" cy="251.890121" rx="2.66486859" ry="2.66526704"></ellipse>
                        <ellipse id="Oval" fill="#FFFFFF" transform="translate(268.374459, 323.257916) rotate(-68.460000) translate(-268.374459, -323.257916) " cx="268.374459" cy="323.257916" rx="1.91631014" ry="1.91659639"></ellipse>
                        <ellipse id="Oval" fill="#FFFFFF" transform="translate(228.131048, 284.693540) rotate(-88.150000) translate(-228.131048, -284.693540) " cx="228.131048" cy="284.69354" rx="2.72467894" ry="2.72523502"></ellipse>
                        <ellipse id="Oval" fill="#FFFFFF" transform="translate(137.268155, 188.133535) rotate(-88.160000) translate(-137.268155, -188.133535) " cx="137.268155" cy="188.133535" rx="2.42526367" ry="2.42575865"></ellipse>
                        <ellipse id="Oval" fill="#FFFFFF" transform="translate(336.812413, 228.702617) rotate(-88.140000) translate(-336.812413, -228.702617) " cx="336.812413" cy="228.702617" rx="3.71274934" ry="3.71350705"></ellipse>
                        <ellipse id="Oval" fill="#FFFFFF" transform="translate(336.796894, 265.275584) rotate(-88.281642) translate(-336.796894, -265.275584) " cx="336.796894" cy="265.275584" rx="2.30653474" ry="2.30700561"></ellipse>
                        <ellipse id="Oval" fill="#FFFFFF" transform="translate(132.484575, 259.101268) rotate(-88.110000) translate(-132.484575, -259.101268) " cx="132.484575" cy="259.101268" rx="3.14386035" ry="3.14450192"></ellipse>
                        <path d="M105.176126,288.157193 C106.721267,289.229393 108.416733,290.066862 110.20733,290.642339 C111.075812,291.001637 111.944293,291.301053 112.812775,291.540585 C114.167651,289.006149 115.050482,286.246601 115.41822,283.396491 C115.59422,281.915852 114.829467,280.482234 113.501571,279.803509 C112.540715,279.41715 111.467662,279.41715 110.506806,279.803509 C109.56347,280.219728 108.851389,281.030239 108.560209,282.019181 C107.612239,281.571179 106.513415,281.571179 105.565445,282.019181 C104.266468,282.653064 103.458353,283.987938 103.499058,285.432515 C103.617946,286.547313 104.234313,287.548705 105.176126,288.157193 Z" id="Path" fill="#FFFFFF"></path>
                        <path d="M77.3248168,276.659649 C78.7444467,276.87165 80.1876999,276.87165 81.6073298,276.659649 C82.3260733,276.659649 83.0148691,276.659649 83.7036649,276.420117 C83.7922018,274.225715 83.4775399,272.033681 82.775288,269.952749 C82.4003935,268.878547 81.3973807,268.150318 80.2596859,268.126316 C79.5053049,268.152588 78.7886715,268.462709 78.2531937,268.99462 C77.746863,269.590557 77.5278734,270.378759 77.6542408,271.150409 C76.8665007,271.1297 76.1099714,271.458558 75.5878534,272.048655 C74.9277521,272.911129 74.8228604,274.076354 75.3183246,275.042807 C75.7091584,275.856621 76.4463911,276.450687 77.3248168,276.659649 Z" id="Path" fill="#FFFFFF"></path>
                        <path d="M298.45822,327.979415 C298.380234,329.530139 298.531603,331.08388 298.907435,332.590409 C298.907435,333.368889 299.206911,334.087485 299.416545,334.836023 C301.787042,334.686945 304.110752,334.108673 306.274555,333.129357 C307.41863,332.591577 308.101708,331.393438 307.981571,330.135205 C307.866855,329.315543 307.450374,328.568165 306.813613,328.039298 C306.105748,327.577299 305.23556,327.435923 304.417801,327.650058 C304.331232,326.798555 303.884323,326.024799 303.189948,325.524211 C302.283179,324.878554 301.09303,324.789047 300.099857,325.291817 C299.106685,325.794586 298.474408,326.806652 298.45822,327.919532 L298.45822,327.979415 Z" id="Path" fill="#FFFFFF"></path>
                        <path d="M307.442513,357.80117 C306.96999,359.201969 306.707597,360.665018 306.663874,362.14269 C306.663874,362.891228 306.663874,363.609825 306.663874,364.29848 C308.88041,364.766883 311.16374,364.827759 313.402094,364.478129 C314.56522,364.286164 315.485522,363.389949 315.708063,362.232515 C315.809114,361.452694 315.617019,360.663134 315.169005,360.016842 C314.652091,359.392026 313.883691,359.029854 313.07267,359.028772 C313.222334,358.233003 313.014229,357.411703 312.503665,356.783158 C311.795222,356.050416 310.762645,355.728259 309.763115,355.928124 C308.763586,356.127989 307.93437,356.822429 307.562304,357.771228 L307.442513,357.80117 Z" id="Path" fill="#FFFFFF"></path>
                        <path d="M346.194764,330.105263 C344.584545,328.478031 342.337537,327.645164 340.055497,327.829708 C340.277479,325.542399 339.477313,323.273899 337.869319,321.631813 C335.502786,319.434827 332.064492,318.836475 329.09466,320.104795 C326.643997,321.054764 324.788627,323.109693 324.093403,325.643977 C323.114204,329.718927 322.74084,333.915882 322.98534,338.099649 C322.98534,340.225497 322.98534,342.26152 323.224921,344.267602 C329.600256,345.046312 336.064048,344.660796 342.301571,343.129825 C345.550624,342.307207 347.941758,339.546011 348.291099,336.213333 C348.373809,333.987892 347.62671,331.811077 346.194764,330.105263 Z M344.787225,335.913918 C344.566902,337.808227 343.174041,339.356869 341.313298,339.776374 C337.348611,340.769877 333.271394,341.242939 329.184503,341.183626 L326.54911,341.183626 C326.54911,340.165614 326.54911,339.177544 326.54911,338.189474 C326.54911,337.201404 326.54911,336.961871 326.54911,336.303158 C326.39075,333.110924 326.703566,329.912779 327.477487,326.811696 C327.827505,325.244115 328.958554,323.966291 330.472251,323.428304 C331.180876,323.160502 331.930878,323.018639 332.688377,323.009123 C333.796237,322.913445 334.89049,323.307295 335.683141,324.087018 C336.589088,325.015187 337.029032,326.301761 336.881047,327.590175 L336.521675,331.662222 L340.594555,331.362807 L340.953927,331.362807 C342.075644,331.35807 343.15315,331.799757 343.948691,332.590409 C344.565676,333.595751 344.858425,334.766507 344.787225,335.94386 L344.787225,335.913918 Z" id="Shape" fill="#FFFFFF" fill-rule="nonzero"></path>
                        <path d="M115.837487,232.885146 C114.191254,231.976323 112.325444,231.541056 110.446911,231.627602 L109.847958,231.627602 C107.73818,232.244157 106.013964,233.77038 105.146178,235.789474 L102.570681,241.358596 L97.4496335,237.975205 C96.0128668,236.981852 94.2808537,236.506702 92.5382199,236.627836 C92.081326,236.655931 91.6291595,236.7363 91.1905759,236.867368 C88.2457429,238.046176 86.2099611,240.775416 85.9197906,243.933567 C85.5483217,246.606441 86.5506559,249.286293 88.5851309,251.059649 C92.4303236,254.635679 96.7915537,257.613225 101.522513,259.892398 L104.247749,261.419415 C105.745131,262.257778 107.242513,263.066199 108.889634,263.87462 C113.270691,256.847986 116.609644,249.223416 118.802304,241.23883 C119.660014,238.108327 118.476966,234.774965 115.837487,232.885146 Z M115.41822,240.580117 C113.661412,247.153508 111.021982,253.458643 107.571937,259.323509 L105.984712,258.455205 L103.858429,257.257544 L103.229529,256.898246 C98.8688302,254.780384 94.8346915,252.047814 91.2504712,248.784094 C89.1541361,246.508538 89.3637696,245.221053 89.4536126,244.562339 C89.5434555,243.903626 90.1424084,240.879532 92.2387435,240.310643 C92.4671435,240.277473 92.6991392,240.277473 92.9275393,240.310643 L93.2270157,240.310643 C94.0850145,240.327748 94.9187071,240.598642 95.6228272,241.089123 L104.127958,246.718129 L108.380524,237.466199 C108.815644,236.405734 109.689815,235.586366 110.776335,235.220585 L111.045864,235.220585 C112.084941,235.23612 113.107682,235.481527 114.040628,235.939181 C115.419485,237.063019 115.966593,238.918051 115.41822,240.610058 L115.41822,240.580117 Z" id="Shape" fill="#FFFFFF" fill-rule="nonzero"></path>
                        <polygon id="Path" fill="#92BF20" points="236.436649 193.032982 228.410681 191.955088 229.967958 184.080468 237.993927 185.188304"></polygon>
                        <polygon id="Path" fill="#92BF20" points="226.344293 200.27883 218.288377 199.200936 219.845654 191.356257 227.901571 192.434152"></polygon>
                        <polygon id="Path" fill="#92BF20" points="219.336545 191.056842 211.310576 189.978947 212.867853 182.134269 220.893822 183.212164"></polygon>
                        <path d="M132.638115,378.071579 C136.471414,390.796725 153.42178,415.348772 164.532356,422.085614 C165.969843,422.385029 193.910995,416.09731 210.62178,390.916491 C216.506569,382.904785 217.071351,372.164363 212.059267,363.579883 C208.326939,357.94218 202.74609,353.781221 196.276859,351.812865 C189.388901,350.345731 179.446283,351.333801 174.175497,355.465731 C170.551832,349.477427 167.91644,345.734737 160.788901,344.207719 C150.976127,342.453915 141.05542,346.672879 135.513089,354.956725 C130.362094,361.992982 130.212356,369.987368 132.638115,378.071579 Z" id="Path" fill="#BA6C6A" opacity="0.5"></path>
                        <path d="M129.583455,378.011696 C132.877696,390.437427 148.180942,414.450526 158.572775,421.247251 C159.950366,421.576608 187.831623,416.69614 206.668691,392.203977 C213.107435,383.820351 215.293613,373.37076 210.262408,364.088889 C206.704605,358.158255 201.068866,353.76157 194.450052,351.752982 C187.352461,350.225965 176.990576,351.30386 171.390366,355.585497 C168.006283,349.357661 165.400838,345.525146 158.393089,343.998129 C148.270785,341.812398 138.897173,347.201871 133.027435,355.076491 C128.282918,361.733407 127.003254,370.255341 129.583455,378.011696 Z" id="Path" fill="#80AF17"></path>
                        <path d="M159.890471,412.115088 C150.906178,404.689591 137.968796,384.059883 135.273508,373.849825 C133.185006,367.946494 134.113088,361.395355 137.759162,356.304094 C141.464964,350.661205 147.77807,347.279876 154.529843,347.321637 C155.254613,347.3718 155.975063,347.471842 156.686073,347.621053 C160.938639,348.519298 162.226387,350.13614 165.430785,356.03462 L168.964607,362.561871 L174.954136,358.040702 C179.391315,355.506769 184.522607,354.45764 189.598534,355.04655 C190.685748,355.121222 191.766463,355.271291 192.83288,355.495673 C197.63148,357.118463 201.717491,360.356971 204.39267,364.657778 C209.334031,373.640234 203.913508,382.62269 201.397906,385.856374 C190.955897,399.078806 176.313013,408.342286 159.890471,412.115088 Z" id="Path" fill="#92BF20"></path>
                        <path d="M184.986597,359.088655 C182.273424,359.180691 179.626876,359.952872 177.290052,361.334269 L167.706806,368.729825 L161.717277,358.040702 C158.722513,352.29193 158.093613,352.052398 155.727749,351.663158 C155.204625,351.547923 154.67436,351.467899 154.140524,351.423626 C153.582349,351.380089 153.02163,351.380089 152.463455,351.423626 C147.748569,352.131356 143.551129,354.79499 140.903665,358.759298 C138.070257,362.842363 137.410557,368.051811 139.136754,372.712047 C143.299476,388.581053 165.310995,386.006082 176.062199,379.179415 C182.620733,375.017544 191.575079,365.675789 189.209215,359.028772 C187.802297,358.937418 186.390357,358.957441 184.986597,359.088655 Z" id="Path" fill="#B2D643"></path>
                        <path d="M169.863037,397.473684 C164.553773,399.042451 158.989497,399.561135 153.481675,399.000702 C155.729377,402.117832 158.244511,405.033189 160.998534,407.713684 C175.625282,403.739891 188.583288,395.16248 197.953927,383.251462 C200.705045,379.873654 202.169364,375.630116 202.086702,371.274854 C196.905759,384.179649 182.680628,394.000468 169.863037,397.473684 Z" id="Path" fill="#7FB728"></path>
                        <path d="M199.780733,396.934737 C189.388901,405.917193 178.637696,414.300819 164.981571,417.504561 C161.039463,418.23909 156.974256,417.939936 153.182199,416.636257 C154.818159,418.343009 156.624415,419.878012 158.572775,421.21731 C159.950366,421.546667 187.831623,416.666199 206.668691,392.174035 C209.937079,388.03675 212.05488,383.109997 212.807958,377.89193 C210.218304,385.27559 205.724408,391.844631 199.780733,396.934737 Z" id="Path" fill="#FFFFFF"></path>
                        <path d="M152.433508,361.274386 C152.014241,358.909006 148.360628,359.208421 146.893194,360.16655 C145.791659,360.95711 145.09998,362.197488 145.006492,363.549942 C144.841858,364.377436 145.03406,365.235972 145.535815,365.914342 C146.037569,366.592712 146.802303,367.02795 147.641885,367.112982 C148.568233,367.055642 149.441641,366.661624 150.097592,366.005146 C150.940634,365.317326 151.61647,364.447109 152.074136,363.460117 C152.203472,363.142821 152.293971,362.811058 152.343665,362.472047 C152.438427,362.080347 152.468771,361.675835 152.433508,361.274386 Z" id="Path" fill="#FFFFFF"></path>
                        <ellipse id="Oval" fill="#FFFFFF" cx="335.892775" cy="357.771228" rx="2.84502618" ry="2.84444444"></ellipse>
                        <ellipse id="Oval" fill="#FFFFFF" cx="360.240209" cy="304.44538" rx="2.18617801" ry="2.18573099"></ellipse>
                    </g>
                </g>
            </g>
        </g>
    </g>
</svg>