<?xml version="1.0" encoding="UTF-8"?>
<svg width="546px" height="509px" viewBox="0 0 546 509" version="1.1" xmlns="http://www.w3.org/2000/svg" xmlns:xlink="http://www.w3.org/1999/xlink">
    <!-- Generator: Sketch 52.6 (67491) - http://www.bohemiancoding.com/sketch -->
    <title>robo_usetech</title>
    <desc>Created with Sketch.</desc>
    <g id="Var2-(31-Jan-2019)" stroke="none" stroke-width="1" fill="none" fill-rule="evenodd">
        <g id="Главная-HR-Usetech(var.0.3_13_11_2017)-Copy" transform="translate(-974.000000, -240.000000)">
            <g id="Group-28" transform="translate(390.000000, 237.000000)">
                <g id="robo_heart_usetech" transform="translate(570.000000, 0.000000)">
                    <g id="robo_usetech" transform="translate(11.979058, 0.000000)">
                        <path d="M6.25905759,212.584795 C20.3943455,294.744327 105.745131,458.524444 169.024503,508.436959 C177.649424,511.431111 360.689424,495.681871 496.202513,347.980351 C542.501571,297.528889 562.686283,231.208421 535.403979,168.331228 C520.190576,133.299649 477.545131,91.1120468 440.230366,79.6444444 C395.308901,65.871345 327.806911,66.8893567 289.144503,91.411462 C270.846492,49.3436257 256.980733,23.1447953 211.789738,9.2219883 C147.611937,-10.5394152 84.0630366,18.8631579 41.7170681,66.500117 C3.92314136,108.89731 -2.81507853,159.887719 6.25905759,212.584795 Z" id="Path" fill="#92BF20"></path>
                        <path d="M33.5413613,78.5066667 C28.7796859,97.0404678 23.3591623,115.424561 23.5987435,134.706901 C23.7784293,148.719532 22.9099476,164.648421 25.8747644,179.020351 C28.7323576,192.624656 32.4126934,206.043136 36.8954974,219.201871 C41.9688008,233.157999 48.5460861,246.520711 56.5112042,259.054035 C66.6910336,277.756836 78.2110219,295.698726 90.9809424,312.739181 C106.433927,332.500585 124.372565,352.232047 144.886702,366.633918 C194.968499,402.821471 257.89476,416.444023 318.463246,404.210526 C367.936754,394.389708 417.140733,376.814035 457.779686,346.303626 C477.649899,331.21555 495.407289,313.532283 510.577382,293.726316 C520.841602,279.65792 529.926628,264.766331 537.739895,249.203275 C540.884398,243.78386 544.148691,238.214737 547.293194,232.645614 C546.394764,275.192515 527.078534,316.481871 495.843141,350.52538 C360.270157,498.196959 177.260105,513.916257 168.635183,510.952047 C105.355812,461.099415 19.9750785,297.229474 5.9895288,215.069942 C-2.54554974,166.325146 2.63539267,118.957661 33.5413613,78.5066667 Z" id="Path" fill="#7FB728"></path>
                    </g>
                </g>
            </g>
        </g>
    </g>
</svg>