<svg width="1172" height="400" viewBox="0 0 1172 400" fill="none" xmlns="http://www.w3.org/2000/svg">
<rect width="1172" height="400" rx="10" fill="#FAFAFA"/>
<path d="M57.5699 99V61.55H75.7699V99H88.7199V50H44.6199V99H57.5699Z" fill="#333333"/>
<path d="M107.048 69.95V65.4H96.5484V114.4H108.448V96.27C110.478 98.37 113.768 100.05 118.458 100.05C129.728 100.05 134.698 90.88 134.698 82.2C134.698 73.52 129.728 64.35 118.458 64.35C112.438 64.35 108.728 67.15 107.048 69.95ZM122.448 82.2C122.448 86.12 120.278 90.25 115.238 90.25C111.948 90.25 109.498 88.22 108.448 86.05V78.35C109.498 76.18 111.948 74.15 115.238 74.15C120.278 74.15 122.448 78.28 122.448 82.2Z" fill="#333333"/>
<path d="M150.66 99L162.63 83.11V99H174.53V65.4H164.1L152.13 81.29V65.4H140.23V99H150.66Z" fill="#333333"/>
<path d="M193.556 99V75.2H207.836V65.4H181.656V99H193.556Z" fill="#333333"/>
<path d="M225.241 74.5H231.191V99H243.091V65.4H214.391C213.761 78.84 213.061 89.62 208.021 89.62C207.461 89.62 206.831 89.48 206.131 89.2V98.65C208.371 99.42 210.401 99.77 212.151 99.77C221.671 99.77 224.401 88.5 225.241 74.5Z" fill="#333333"/>
<path d="M282 89.41V80.03C282 68.06 275.14 64.35 264.43 64.35C259.46 64.35 254.14 65.68 251.34 66.59V76.6C254.63 75.27 258.69 74.01 263.1 74.01C267.86 74.01 270.1 75.83 270.1 78.21V79.4C267.86 78.91 265.34 78.63 262.82 78.63C256.31 78.63 248.26 81.22 248.26 89.69C248.26 96.2 253.51 100.05 259.95 100.05C264.71 100.05 268.42 98.51 271.64 95.99C273.18 98.37 275.91 99.7 279.62 99.7C281.86 99.7 284.03 99.28 285.64 98.65V91.3C285.22 91.44 284.73 91.51 284.31 91.51C283.12 91.51 282 91.02 282 89.41ZM260.51 88.71C260.51 86.05 263.03 85.07 265.83 85.07C267.44 85.07 269.05 85.35 270.1 85.7V90.25C268.28 91.58 266.53 92 264.57 92C262.05 92 260.51 90.46 260.51 88.71Z" fill="#333333"/>
<path d="M288.872 82.9C288.872 94.8 298.042 100.05 307.422 100.05C311.692 100.05 315.612 99.21 318.972 97.81V87.66C316.662 88.99 313.372 89.9 309.872 89.9C305.322 89.9 301.122 87.52 301.122 82.2C301.122 76.46 305.392 74.43 310.082 74.43C313.092 74.43 316.312 75.41 318.622 76.74V66.59C315.542 65.12 311.902 64.28 308.262 64.28C298.672 64.28 288.872 69.67 288.872 82.9Z" fill="#333333"/>
<path d="M335.435 99L347.405 83.11V99H359.305V65.4H348.875L336.905 81.29V65.4H325.005V99H335.435Z" fill="#333333"/>
<path d="M389.532 107.75V99H411.232V107.75H422.082V90.25H416.972V65.4H387.922C388.202 75.06 387.432 83.46 383.512 90.25H378.682V107.75H389.532ZM398.772 74.15H405.072V90.25H395.692C397.862 85.42 398.562 80.8 398.772 74.15Z" fill="#333333"/>
<path d="M437.771 69.95V65.4H427.271V114.4H439.171V96.27C441.201 98.37 444.491 100.05 449.181 100.05C460.451 100.05 465.421 90.88 465.421 82.2C465.421 73.52 460.451 64.35 449.181 64.35C443.161 64.35 439.451 67.15 437.771 69.95ZM453.171 82.2C453.171 86.12 451.001 90.25 445.961 90.25C442.671 90.25 440.221 88.22 439.171 86.05V78.35C440.221 76.18 442.671 74.15 445.961 74.15C451.001 74.15 453.171 78.28 453.171 82.2Z" fill="#333333"/>
<path d="M486.532 85.42L478.342 65.4H465.742L481.562 99.84C479.952 103.48 477.502 105.16 474.562 105.16C473.022 105.16 471.482 104.95 470.012 104.6V114.4C471.972 114.89 474.072 115.31 476.172 115.31C481.912 115.31 487.722 112.58 491.572 102.5L505.642 65.4H493.392L486.532 85.42Z" fill="#333333"/>
<path d="M521.612 99V75.2H535.892V65.4H509.712V99H521.612Z" fill="#333333"/>
<path d="M571.571 89.41V80.03C571.571 68.06 564.711 64.35 554.001 64.35C549.031 64.35 543.711 65.68 540.911 66.59V76.6C544.201 75.27 548.261 74.01 552.671 74.01C557.431 74.01 559.671 75.83 559.671 78.21V79.4C557.431 78.91 554.911 78.63 552.391 78.63C545.881 78.63 537.831 81.22 537.831 89.69C537.831 96.2 543.081 100.05 549.521 100.05C554.281 100.05 557.991 98.51 561.211 95.99C562.751 98.37 565.481 99.7 569.191 99.7C571.431 99.7 573.601 99.28 575.211 98.65V91.3C574.791 91.44 574.301 91.51 573.881 91.51C572.691 91.51 571.571 91.02 571.571 89.41ZM550.081 88.71C550.081 86.05 552.601 85.07 555.401 85.07C557.011 85.07 558.621 85.35 559.671 85.7V90.25C557.851 91.58 556.101 92 554.141 92C551.621 92 550.081 90.46 550.081 88.71Z" fill="#333333"/>
<path d="M64.9899 177C74.0899 177 76.5399 172.38 76.5399 168.04C76.5399 164.05 74.5099 161.39 70.3799 160.06C74.0199 158.66 75.8399 156.21 75.8399 152.15C75.8399 148.37 73.5299 143.4 64.4299 143.4H43.5699V177H64.9899ZM55.5399 163.42H60.9299C63.0299 163.42 64.6399 164.26 64.6399 166.5C64.6399 168.6 62.9599 169.44 60.9999 169.44H55.5399V163.42ZM55.4699 150.96H60.2299C62.3299 150.96 63.9399 151.8 63.9399 154.04C63.9399 156.14 62.2599 156.98 60.2999 156.98H55.4699V150.96Z" fill="#333333"/>
<path d="M128.395 128V157.61C128.395 164.19 124.825 166.5 119.295 166.5C113.765 166.5 110.195 164.19 110.195 157.61V128H97.2451V158.31C97.2451 173.08 108.445 178.05 119.295 178.05C130.145 178.05 141.345 173.08 141.345 158.31V128H128.395Z" fill="#333333"/>
<path d="M147.038 153.06C147.038 165.17 164.678 163 164.678 167.41C164.678 168.6 163.208 169.09 160.268 169.09C156.278 169.09 151.098 167.97 147.388 165.52V174.97C150.958 177 155.648 178.05 160.898 178.05C169.368 178.05 176.928 175.6 176.928 167.2C176.928 154.74 159.288 157.47 159.288 152.78C159.288 151.38 161.038 151.1 162.508 151.1C166.428 151.1 171.398 152.64 174.338 154.67V145.22C170.768 143.54 166.568 142.35 161.668 142.35C154.178 142.35 147.038 144.87 147.038 153.06Z" fill="#333333"/>
<path d="M180.591 160.2C180.591 171.75 189.481 178.05 200.541 178.05C205.861 178.05 209.851 177.28 213.001 176.16V167.34C210.201 168.39 207.121 168.95 203.341 168.95C198.511 168.95 193.961 167.48 192.631 163.77H214.611C216.991 153.55 212.651 142.35 198.231 142.35C190.881 142.35 180.591 147.04 180.591 160.2ZM203.761 156.63H192.491C192.491 153.13 195.221 150.96 198.511 150.96C203.271 150.96 204.111 155.02 203.761 156.63Z" fill="#333333"/>
<path d="M223.281 133.95V143.4H217.961V153.2H223.281V166.5C223.281 175.39 229.371 178.05 235.881 178.05C239.311 178.05 242.321 177.56 244.981 176.65V167.41C243.161 168.04 241.551 168.25 239.591 168.25C236.581 168.25 235.181 166.78 235.181 164.12V153.2H244.281V143.4H235.181V131.15L223.281 133.95Z" fill="#333333"/>
<path d="M248.472 160.2C248.472 171.75 257.362 178.05 268.422 178.05C273.742 178.05 277.732 177.28 280.882 176.16V167.34C278.082 168.39 275.002 168.95 271.222 168.95C266.392 168.95 261.842 167.48 260.512 163.77H282.492C284.872 153.55 280.532 142.35 266.112 142.35C258.762 142.35 248.472 147.04 248.472 160.2ZM271.642 156.63H260.372C260.372 153.13 263.102 150.96 266.392 150.96C271.152 150.96 271.992 155.02 271.642 156.63Z" fill="#333333"/>
<path d="M286.822 160.9C286.822 172.8 295.992 178.05 305.372 178.05C309.642 178.05 313.562 177.21 316.922 175.81V165.66C314.612 166.99 311.322 167.9 307.822 167.9C303.272 167.9 299.072 165.52 299.072 160.2C299.072 154.46 303.342 152.43 308.032 152.43C311.042 152.43 314.262 153.41 316.572 154.74V144.59C313.492 143.12 309.852 142.28 306.212 142.28C296.622 142.28 286.822 147.67 286.822 160.9Z" fill="#333333"/>
<path d="M322.818 128V177H334.718V155.44C335.768 154.11 337.798 152.5 340.458 152.5C343.398 152.5 345.568 154.18 345.568 157.75V177H357.468V156.14C357.468 148.58 353.268 142.35 344.028 142.35C340.248 142.35 337.238 143.68 334.718 145.92V128H322.818Z" fill="#333333"/>
<path d="M389.234 177L401.204 161.11V177H413.104V143.4H402.674L390.704 159.29V143.4H378.804V177H389.234Z" fill="#333333"/>
<path d="M446.691 177V153.2H457.191V177H469.091V143.4H434.791V177H446.691Z" fill="#333333"/>
<path d="M474.536 160.2C474.536 172.1 483.356 178.05 493.436 178.05C503.516 178.05 512.336 172.1 512.336 160.2C512.336 148.3 503.516 142.35 493.436 142.35C483.356 142.35 474.536 148.3 474.536 160.2ZM500.086 160.2C500.086 163.98 498.336 167.55 493.436 167.55C488.536 167.55 486.786 163.98 486.786 160.2C486.786 156.42 488.536 152.85 493.436 152.85C498.336 152.85 500.086 156.42 500.086 160.2Z" fill="#333333"/>
<path d="M533.542 152.5H539.492V177H551.392V143.4H522.692C522.062 156.84 521.362 167.62 516.322 167.62C515.762 167.62 515.132 167.48 514.432 167.2V176.65C516.672 177.42 518.702 177.77 520.452 177.77C529.972 177.77 532.702 166.5 533.542 152.5Z" fill="#333333"/>
<path d="M575.741 163.42L567.551 143.4H554.951L570.771 177.84C569.161 181.48 566.711 183.16 563.771 183.16C562.231 183.16 560.691 182.95 559.221 182.6V192.4C561.181 192.89 563.281 193.31 565.381 193.31C571.121 193.31 576.931 190.58 580.781 180.5L594.851 143.4H582.601L575.741 163.42Z" fill="#333333"/>
<path d="M630.281 177V143.4H618.381V157.75C616.981 158.31 615.371 158.59 613.761 158.59C611.241 158.59 609.281 157.47 609.281 154.39V143.4H597.381V155.51C597.381 164.47 603.611 168.39 610.541 168.39C613.411 168.39 616.001 167.97 618.381 167.13V177H630.281Z" fill="#333333"/>
<path d="M647.838 177L659.808 161.11V177H671.708V143.4H661.278L649.308 159.29V143.4H637.408V177H647.838Z" fill="#333333"/>
<path d="M78.7799 239.95C78.7799 229.45 72.7599 223.85 64.7799 223.85C59.7399 223.85 56.5899 226.09 54.6299 228.54C54.6299 225.81 56.3799 221.89 59.8099 220.21C65.6199 217.34 71.4999 219.37 75.8399 215.45V204.95C71.2899 209.36 62.3299 206.7 52.6699 212.72C46.6499 216.5 42.3799 223.01 42.3799 235.4C42.3799 250.8 50.8499 256.05 60.5799 256.05C70.6599 256.05 78.7799 250.8 78.7799 239.95ZM54.6299 239.95C54.6299 237.57 55.3299 232.95 60.5799 232.95C65.8299 232.95 66.5299 237.57 66.5299 239.95C66.5299 242.33 65.8299 246.95 60.5799 246.95C55.3299 246.95 54.6299 242.33 54.6299 239.95Z" fill="#333333"/>
<path d="M82.7004 238.2C82.7004 250.1 91.5204 256.05 101.6 256.05C111.68 256.05 120.5 250.1 120.5 238.2C120.5 226.3 111.68 220.35 101.6 220.35C91.5204 220.35 82.7004 226.3 82.7004 238.2ZM108.25 238.2C108.25 241.98 106.5 245.55 101.6 245.55C96.7004 245.55 94.9504 241.98 94.9504 238.2C94.9504 234.42 96.7004 230.85 101.6 230.85C106.5 230.85 108.25 234.42 108.25 238.2Z" fill="#333333"/>
<path d="M137.843 255V243.1H148.343V255H160.243V221.4H148.343V233.3H137.843V221.4H125.943V255H137.843Z" fill="#333333"/>
<path d="M184.589 241.42L176.399 221.4H163.799L179.619 255.84C178.009 259.48 175.559 261.16 172.619 261.16C171.079 261.16 169.539 260.95 168.069 260.6V270.4C170.029 270.89 172.129 271.31 174.229 271.31C179.969 271.31 185.779 268.58 189.629 258.5L203.699 221.4H191.449L184.589 241.42Z" fill="#333333"/>
<path d="M204.448 238.9C204.448 250.8 213.618 256.05 222.998 256.05C227.268 256.05 231.188 255.21 234.548 253.81V243.66C232.238 244.99 228.948 245.9 225.448 245.9C220.898 245.9 216.698 243.52 216.698 238.2C216.698 232.46 220.968 230.43 225.658 230.43C228.668 230.43 231.888 231.41 234.198 232.74V222.59C231.118 221.12 227.478 220.28 223.838 220.28C214.248 220.28 204.448 225.67 204.448 238.9Z" fill="#333333"/>
<g clip-path="url(#clip0)">
<path d="M1066.21 210.028L1069.9 181.685L1088.48 176.226L1092.31 201.138L1066.21 210.028Z" fill="white" stroke="#333333" stroke-width="2"/>
<path d="M1050.62 128.011L1052.76 117.832C1057.97 115.367 1067.03 111.974 1078.41 112.224C1089.94 112.474 1114.42 116.725 1118.27 132.69C1120.87 143.513 1113.34 157.085 1103.32 161.407C1088.69 167.729 1064.57 156.05 1050.62 128.011Z" fill="black"/>
<path d="M1094.79 179.62L1094.79 179.622C1090.58 182.532 1081.99 185.921 1072.77 187.441C1063.53 188.965 1053.97 188.556 1047.65 184.227C1046.25 183.272 1045.21 181.573 1044.51 179.149C1043.83 176.733 1043.52 173.704 1043.53 170.251C1043.54 163.347 1044.79 154.939 1046.46 146.763C1048.13 138.597 1050.22 130.708 1051.89 124.858C1052.73 121.933 1053.46 119.521 1053.98 117.84C1054.24 117 1054.45 116.342 1054.59 115.896C1054.63 115.783 1054.66 115.684 1054.69 115.598C1054.91 115.483 1055.25 115.317 1055.68 115.116C1056.55 114.708 1057.83 114.154 1059.44 113.582C1062.65 112.435 1067.12 111.218 1072.22 110.923C1082.3 110.341 1094.84 113.355 1104.84 127.874C1104.84 127.931 1104.83 127.996 1104.83 128.067C1104.82 128.41 1104.79 128.914 1104.76 129.558C1104.7 130.846 1104.59 132.695 1104.44 134.932C1104.14 139.408 1103.65 145.433 1102.89 151.642C1102.13 157.857 1101.1 164.225 1099.72 169.396C1099.03 171.983 1098.27 174.241 1097.42 176.02C1096.56 177.823 1095.67 179.02 1094.79 179.62Z" fill="white" stroke="#333333" stroke-width="2"/>
<path d="M1115.13 127.511C1115.13 127.511 1053.86 152.585 1031.92 123.868C1009.97 95.1871 1036.7 44.4682 1115.13 127.511Z" fill="black"/>
<path d="M1115.31 128.369C1115.31 128.369 1045.41 149.513 1025.53 117.439C1005.66 85.3647 1041.66 34.2887 1115.31 128.369Z" stroke="black" stroke-width="4.3065" stroke-miterlimit="10" stroke-linecap="round"/>
<path d="M1028.71 395.654L1066.28 208.597L1092.43 201.072C1115.2 249.633 1120.98 298.56 1121.04 335.429C1121.07 353.958 1119.66 369.432 1118.24 380.269C1117.53 385.687 1116.82 389.945 1116.29 392.846C1116.02 394.296 1115.8 395.407 1115.64 396.154C1115.62 396.276 1115.6 396.389 1115.57 396.492L1028.71 395.654Z" fill="#92BF20" stroke="#333333" stroke-width="2"/>
<path d="M883.894 254.693C883.888 253.98 883.882 253.269 883.879 252.561C903.993 255.261 930.988 256.77 962.259 252.549L962.259 252.549C1001.05 247.309 1031.7 235.27 1052.32 225.204C1055.46 240.791 1058.62 256.379 1061.83 271.999C1039.29 277.551 1004.54 283.198 962.668 278.389C929.564 274.585 902.76 265.486 883.911 257.331C883.908 256.454 883.901 255.573 883.894 254.695L883.894 254.693Z" fill="white" stroke="#333333" stroke-width="2"/>
<path d="M894.87 256.557L894.87 256.557L894.866 256.57C894.722 257.077 894.411 257.492 893.955 257.797C890.898 259.813 882.525 264.479 871.719 262.786L871.719 262.786C861.995 261.267 855.63 255.398 852.072 251.034C850.892 249.581 851.925 247.408 853.766 247.379C856.125 247.379 858.825 247.485 861.765 247.871L861.765 247.871L861.772 247.872C866.5 248.457 870.435 249.505 873.499 250.32C873.84 250.411 874.171 250.499 874.49 250.583C876.059 250.996 877.433 251.336 878.506 251.436C879.492 251.528 880.722 251.47 881.388 250.47L881.39 250.467C881.776 249.883 881.796 249.227 881.685 248.66C881.577 248.101 881.325 247.531 881.029 246.991C880.443 245.923 879.545 244.733 878.708 243.622L878.683 243.589C877.809 242.431 877.003 241.358 876.5 240.443C876.249 239.986 876.111 239.632 876.063 239.376C876.039 239.253 876.041 239.177 876.047 239.136C876.051 239.107 876.057 239.097 876.059 239.094L876.059 239.094C876.064 239.087 876.232 238.901 877.007 238.911C877.711 238.92 878.632 239.09 879.667 239.374C881.721 239.938 883.991 240.884 885.373 241.532C889.41 243.462 893.359 245.377 894.809 249.698L894.812 249.707L894.815 249.716C895.752 252.335 895.371 254.886 894.87 256.557Z" fill="white" stroke="#333333" stroke-width="2"/>
<path d="M1079.55 267.068L1047.46 279.926L1037.93 226.918L1066.39 213.448L1079.55 246.215V267.068Z" fill="#92BF20" stroke="#333333" stroke-width="2"/>
<path d="M805.532 246.551C809.847 252.948 813.936 256.791 816.689 259.052L816.691 259.053C817.652 259.838 818.487 260.487 819.763 260.728C821.463 261.09 823.161 260.623 824.732 259.754C826.305 258.883 827.792 257.585 829.099 256.211C831.35 253.845 833.12 251.194 833.925 249.928C834.026 250.017 834.127 250.108 834.229 250.199L834.231 250.201C834.402 250.353 834.575 250.508 834.749 250.661C833.37 255.875 831.303 260.271 828.817 263.438C826.28 266.668 823.343 268.578 820.281 268.847L820.279 268.848C817.725 269.083 815.671 268.118 813.01 266.858C809.519 265.197 802.965 261.341 797.269 252.505C799.333 250.985 801.412 249.499 803.499 248.006C804.176 247.522 804.854 247.037 805.532 246.551Z" fill="white" stroke="#333333"/>
<path d="M809.711 251.372L799.644 260.445L791.312 252.304L800.467 237.79L809.711 251.372Z" fill="#FFE36C" stroke="#333333"/>
<path d="M655.78 373.881L655.78 373.881L655.776 373.874L653.994 370.449C653.861 370.178 653.967 369.883 654.201 369.766L654.201 369.766L654.21 369.761L658.655 367.423L660.903 371.716L656.456 374.055L656.448 374.059L656.44 374.064C656.181 374.212 655.897 374.115 655.78 373.881Z" fill="white" stroke="#333333"/>
<path d="M718.236 267.606L718.235 267.606C706.533 265.145 697.67 260.553 692.044 257.001C694.246 253.184 696.448 249.366 698.621 245.547C703.34 250.128 710.585 256.106 720.552 261.008L720.553 261.008C728.576 264.936 735.993 266.981 741.7 268.086C741.661 268.204 741.622 268.32 741.583 268.436L741.583 268.437C741.518 268.632 741.454 268.825 741.387 269.019C735.561 269.525 727.496 269.558 718.236 267.606Z" fill="white" stroke="#333333"/>
<path d="M647.443 371.23L647.443 371.23L647.446 371.223C647.529 371.021 647.763 370.77 648.193 370.5C648.609 370.239 649.145 370 649.727 369.795C650.897 369.383 652.168 369.137 652.858 369.104C653.416 369.079 653.774 369.139 654.023 369.241C654.258 369.338 654.431 369.488 654.592 369.721C654.765 369.968 654.914 370.291 655.106 370.733C655.126 370.779 655.147 370.826 655.168 370.874C655.341 371.275 655.546 371.746 655.818 372.265L655.818 372.266L659.029 378.373C659.029 378.373 659.029 378.373 659.029 378.373C660.864 381.88 659.529 386.217 655.998 388.054L655.798 388.154L647.215 371.762L647.443 371.23Z" fill="#ECF5D5" stroke="#333333"/>
<path d="M656.228 388.391L655.347 388.854L646.086 371.212L646.982 370.743L656.228 388.391Z" fill="#92BF20" stroke="#333333"/>
<path d="M707.634 380.388L712.425 381.098L711.679 386.068L711.676 386.088L711.675 386.109C711.66 386.329 711.445 386.54 711.135 386.504L707.324 385.933L707.324 385.933L707.316 385.932C707.06 385.898 706.854 385.655 706.889 385.352L707.634 380.388Z" fill="white" stroke="#333333"/>
<path d="M709.334 385.21L709.335 385.21L716.186 385.96C716.186 385.96 716.186 385.96 716.186 385.96C716.186 385.96 716.186 385.96 716.186 385.96C720.122 386.394 722.957 389.933 722.523 393.873L722.523 393.873L722.523 393.878L722.502 394.09L704.107 392.063L703.775 391.579C703.657 391.396 703.582 391.06 703.598 390.555C703.614 390.063 703.713 389.485 703.866 388.887C704.174 387.685 704.675 386.493 705.035 385.903C705.326 385.428 705.577 385.164 705.802 385.014C706.017 384.872 706.241 384.812 706.527 384.807C706.831 384.801 707.185 384.857 707.66 384.943C707.716 384.953 707.773 384.964 707.832 384.975C708.259 385.053 708.759 385.145 709.334 385.21Z" fill="#ECF5D5" stroke="#333333"/>
<path d="M722.916 393.852L722.81 394.858L703.037 392.682L703.144 391.676L722.916 393.852Z" fill="#92BF20" stroke="#333333"/>
<path d="M721.017 260.544L721.017 260.544C727.238 263.587 733.153 265.609 738.264 266.94C738.192 267.83 738.063 268.74 737.907 269.641C732.385 269.754 725.791 269.344 718.486 267.785L718.484 267.784C705.675 265.109 695.991 260.088 689.864 256.214C691.078 254.047 692.102 251.691 693.114 249.36L693.128 249.328C694.114 247.055 695.09 244.806 696.232 242.73C701.42 247.818 710.116 255.21 721.017 260.544Z" fill="#FFE36C" stroke="#333333"/>
<path d="M693.666 228.801L694.677 236.332L686.612 235.26L688.088 227.157L693.666 228.801Z" fill="white" stroke="#333333"/>
<path d="M696.26 210.304L694.868 207.34C694.868 207.34 679.097 204.625 675.778 216.662L682.451 224.413L685.876 221.948L696.26 210.304Z" fill="black"/>
<path d="M694.609 207.54C694.712 207.561 694.799 207.581 694.868 207.597C694.872 207.602 694.875 207.608 694.879 207.614C694.955 207.741 695.066 207.927 695.207 208.167C695.488 208.645 695.887 209.333 696.355 210.171C697.291 211.848 698.502 214.119 699.606 216.506C700.712 218.897 701.699 221.382 702.199 223.49C702.45 224.545 702.572 225.482 702.537 226.254C702.502 227.029 702.31 227.581 701.991 227.934C700.394 229.68 697.544 230.498 694.606 230.7C691.681 230.902 688.824 230.485 687.341 229.911C687.072 229.807 686.734 229.533 686.345 229.05C685.964 228.576 685.57 227.948 685.173 227.207C684.379 225.727 683.604 223.852 682.92 221.999C682.237 220.148 681.651 218.334 681.236 216.981C681.028 216.305 680.864 215.745 680.751 215.354C680.694 215.159 680.651 215.006 680.622 214.902L680.622 214.902C682.613 209.816 686.182 208.016 689.269 207.466C690.84 207.186 692.292 207.231 693.354 207.347C693.883 207.405 694.313 207.48 694.609 207.54Z" fill="white" stroke="#333333"/>
<path d="M677.027 215.305C677.027 215.305 693.548 217.912 697.259 209.59C700.97 201.268 691.479 190.338 677.027 215.305Z" fill="black"/>
<path d="M705.915 331.874L705.914 331.873C701.505 314.149 693.544 301.281 687.966 293.702C693.202 291.865 698.409 290.027 703.646 288.158C707.755 298.398 712.038 311.882 714.283 328.098L714.283 328.098C717.41 350.573 715.401 369.609 712.917 382.771C710.788 382.366 708.659 381.935 706.527 381.503C708.659 371.724 711.271 353.534 705.915 331.874Z" fill="#92BF20" stroke="#333333"/>
<path d="M658.674 370.069C658.275 369.218 657.876 368.365 657.471 367.508C661.832 365.672 679.172 357.601 686.912 337.747C696.514 313.208 683.344 291.463 680.771 287.561C682.782 286.661 684.787 285.768 686.793 284.875L686.793 284.875C688.833 283.966 690.874 283.057 692.923 282.141C695.263 286.867 707.178 313.17 693.953 340.707C683.862 361.701 665.491 370.326 659.898 372.674C659.487 371.803 659.081 370.938 658.675 370.071L658.675 370.071L658.674 370.069Z" fill="#92BF20" stroke="#333333"/>
<path d="M680.033 295.361C679.985 295.145 679.923 294.862 679.852 294.514C679.669 293.625 679.424 292.317 679.176 290.65C678.679 287.315 678.167 282.543 678.111 276.806C678.001 265.424 679.687 250.26 686.826 234.976L694.821 237.272L703.613 288.387L680.033 295.361Z" fill="#FFE36C" stroke="#333333"/>
<path d="M752.038 272.926L752.038 272.926C750.593 273.58 748.266 274.282 745.648 273.475C742.74 272.572 741.218 270.403 740.658 269.497C740.602 269.378 740.59 269.277 740.604 269.184C740.704 268.688 740.893 268.057 741.429 267.52C742.282 266.666 743.424 266.667 744.705 266.667C744.72 266.667 744.735 266.667 744.751 266.667C745.174 266.667 745.863 266.71 746.449 266.823C746.745 266.88 746.985 266.95 747.146 267.026C747.152 267.028 747.158 267.031 747.164 267.034C747.133 267.06 747.095 267.09 747.048 267.123C746.816 267.287 746.487 267.458 746.11 267.65L746.089 267.661C745.739 267.841 745.347 268.042 745.05 268.252C744.898 268.36 744.742 268.49 744.624 268.646C744.505 268.805 744.396 269.032 744.434 269.306L744.434 269.306L744.435 269.316C744.508 269.781 744.921 269.991 745.199 270.097C745.51 270.215 745.926 270.304 746.38 270.394C746.479 270.414 746.581 270.434 746.687 270.454C747.578 270.628 748.703 270.848 749.976 271.283C750.766 271.558 751.457 271.868 752.055 272.15C752.379 272.328 752.346 272.787 752.038 272.926Z" fill="white" stroke="#333333"/>
<path d="M646.665 289.902L646.665 289.902L646.668 289.898C648.521 287.437 651.12 286.759 652.132 286.59C652.248 286.571 652.372 286.597 652.433 286.632C652.866 286.899 653.407 287.299 653.737 287.988C654.238 289.082 653.849 290.154 653.408 291.366L653.401 291.385C653.246 291.781 652.965 292.409 652.657 292.919C652.5 293.178 652.351 293.38 652.223 293.507C652.222 293.507 652.221 293.508 652.221 293.509C652.209 293.475 652.197 293.435 652.185 293.388C652.115 293.113 652.073 292.746 652.024 292.328L652.024 292.326L652.024 292.325C651.979 291.93 651.927 291.484 651.83 291.124C651.782 290.944 651.713 290.752 651.606 290.588C651.497 290.42 651.321 290.242 651.054 290.181L651.054 290.181L651.046 290.18C650.58 290.081 650.237 290.401 650.042 290.625C649.824 290.878 649.597 291.241 649.356 291.637C649.308 291.716 649.259 291.797 649.209 291.881C648.736 292.664 648.137 293.656 647.276 294.707C646.715 295.373 646.195 295.928 645.714 296.375L645.713 296.376C645.451 296.621 645.018 296.467 644.983 296.089C644.846 294.512 644.988 292.085 646.665 289.902Z" fill="white" stroke="#333333"/>
<path d="M652.545 287.621C654.051 281.941 656.739 274.37 661.682 266.285C667.079 257.51 675.83 251.023 681.636 246.719C682.552 246.04 683.395 245.415 684.139 244.844C686.904 248.187 688.496 251.505 689.302 255.17C683.335 258.031 675.174 262.847 667.116 270.701C660.693 276.922 656.286 283.21 653.308 288.23C653.058 288.026 652.801 287.823 652.545 287.621Z" fill="#FFE36C" stroke="#333333"/>
<path d="M752.317 267.979L752.317 267.979L752.324 267.987C752.647 268.375 753 268.951 753.029 269.652L753.03 269.666L753.031 269.68C753.149 270.885 752.411 271.751 751.568 272.742L751.546 272.767C751.249 273.1 750.771 273.601 750.313 273.977C750.08 274.168 749.875 274.307 749.716 274.38C749.711 274.382 749.707 274.384 749.702 274.386C749.702 274.35 749.704 274.307 749.708 274.256C749.732 273.976 749.816 273.617 749.912 273.206L749.916 273.187C750.006 272.804 750.108 272.372 750.139 272.006C750.155 271.82 750.156 271.615 750.112 271.424C750.067 271.229 749.962 271 749.728 270.852L749.726 270.85C749.322 270.598 748.888 270.788 748.635 270.929C748.344 271.091 748.006 271.353 747.642 271.642C747.566 271.702 747.489 271.765 747.408 271.829C746.695 272.4 745.793 273.122 744.638 273.809L744.638 273.809L744.63 273.814C743.913 274.258 743.261 274.568 742.631 274.849C742.285 274.981 741.963 274.667 742.056 274.34L742.056 274.34L742.058 274.332C742.469 272.792 743.451 270.568 745.769 269.088L745.769 269.088L745.773 269.086C748.365 267.401 751.031 267.668 752.055 267.839L752.055 267.839L752.066 267.84C752.19 267.858 752.254 267.9 752.317 267.979ZM749.574 274.428C749.574 274.428 749.574 274.428 749.576 274.428C749.574 274.428 749.574 274.428 749.574 274.428Z" fill="white" stroke="#333333"/>
<path d="M834.411 250.382L834.394 250.368L834.376 250.356C833.999 250.105 833.477 249.64 833.169 248.975C832.765 247.852 833.25 246.768 833.801 245.593C833.99 245.196 834.324 244.573 834.675 244.079C834.853 243.829 835.018 243.637 835.155 243.522C835.16 243.518 835.165 243.514 835.17 243.51C835.18 243.547 835.19 243.592 835.2 243.646C835.25 243.926 835.264 244.298 835.28 244.724L835.28 244.725C835.295 245.127 835.312 245.581 835.383 245.951C835.418 246.137 835.472 246.337 835.567 246.51C835.663 246.687 835.825 246.878 836.084 246.962C836.544 247.113 836.92 246.811 837.127 246.609C837.366 246.375 837.625 246.03 837.901 245.651C837.963 245.566 838.027 245.477 838.093 245.386C838.632 244.641 839.312 243.7 840.241 242.723L840.242 242.722C840.83 242.099 841.419 241.579 841.94 241.162L841.94 241.162L841.945 241.157C842.233 240.92 842.661 241.132 842.661 241.486C842.661 243.063 842.318 245.494 840.47 247.581C838.396 249.856 835.753 250.343 834.716 250.451C834.525 250.448 834.454 250.417 834.411 250.382Z" fill="white" stroke="#333333"/>
<path d="M823.358 396.285L801.664 396.321C801.557 396.321 801.485 396.25 801.485 396.143V394.357C801.485 394.25 801.557 394.178 801.664 394.178L823.358 394.142C823.465 394.142 823.537 394.214 823.537 394.321V396.107C823.501 396.214 823.43 396.285 823.358 396.285Z" fill="white"/>
<path d="M786.391 211.876C784.893 217.841 787.783 223.77 792.743 225.842C796.668 227.485 802.056 226.735 804.09 223.699C807.836 218.091 799.95 204.983 799.95 204.983C799.95 204.947 790.102 202.161 786.391 211.876Z" fill="black"/>
<path d="M770.208 376.281L770.208 376.281L770.209 376.278C770.273 376.053 770.494 375.757 770.912 375.417C771.316 375.088 771.848 374.765 772.429 374.471C773.596 373.88 774.886 373.444 775.597 373.311C776.181 373.211 776.571 373.225 776.852 373.301C777.12 373.373 777.326 373.511 777.529 373.735C777.743 373.972 777.943 374.293 778.198 374.729C778.232 374.787 778.267 374.847 778.303 374.909C778.524 375.287 778.78 375.727 779.101 376.205C779.433 376.957 779.756 377.709 780.081 378.463L780.081 378.464C780.411 379.231 780.742 380.001 781.082 380.772L781.093 380.798L781.108 380.822C781.697 381.829 783.269 384.744 782.792 388.505C782.525 390.435 781.84 391.912 781.299 392.842L781.149 392.959L770.025 376.909L770.208 376.281Z" fill="#92BF20" stroke="#333333"/>
<path d="M781.059 393.069L780.504 393.435L768.898 377.203L769.453 376.837L781.059 393.069Z" fill="#92BF20" stroke="#333333"/>
<path d="M801.496 226.586L802.367 233.253L795.403 232.241L796.571 225.125L801.496 226.586Z" fill="white" stroke="#333333"/>
<path d="M802.345 207.479C802.426 207.495 802.495 207.511 802.553 207.524C802.607 207.618 802.682 207.748 802.773 207.91C802.979 208.275 803.269 208.803 803.607 209.455C804.282 210.761 805.141 212.556 805.884 214.522C806.628 216.491 807.247 218.61 807.453 220.568C807.66 222.535 807.443 224.266 806.601 225.528C805.686 226.893 803.978 227.792 801.967 228.139C799.963 228.486 797.731 228.27 795.862 227.488L795.862 227.488C791.162 225.524 788.368 219.875 789.796 214.134C791.58 209.507 794.798 207.887 797.576 207.399C798.979 207.153 800.276 207.196 801.225 207.303C801.698 207.356 802.082 207.424 802.345 207.479Z" fill="white" stroke="#333333"/>
<path d="M787.712 219.27C787.712 219.27 787.569 195.339 800.129 191.839C812.725 188.302 826.106 204.125 787.712 219.27Z" fill="black"/>
<path d="M789.328 286.361C789.286 286.174 789.235 285.937 789.176 285.652C789.012 284.853 788.792 283.677 788.569 282.178C788.122 279.18 787.661 274.89 787.61 269.733C787.509 259.513 789.016 245.902 795.406 232.19L802.545 234.236L810.444 280.136L789.328 286.361Z" fill="#FFE36C" stroke="#333333"/>
<path d="M752.538 268.33C755.928 263.55 760.545 257.715 768.001 251.917C777.452 244.571 786.7 240.777 793.039 238.784C794.519 242.963 796 247.113 797.51 251.262C790.941 251.883 781.705 253.507 771.527 257.958C763.262 261.553 757.686 265.254 753.189 268.861C753.066 268.744 752.942 268.65 752.837 268.571L752.818 268.556C752.706 268.471 752.614 268.4 752.538 268.33Z" fill="white" stroke="#333333"/>
<path d="M795.422 243.318L795.408 243.438L795.449 243.551L798.909 252.999L788.756 254.294L784.76 239.907L796.224 236.772L795.422 243.318Z" fill="#FFE36C" stroke="#333333"/>
<mask id="path-44-inside-1" fill="white">
<path fill-rule="evenodd" clip-rule="evenodd" d="M789.086 344.309C788.792 345.582 788.466 346.871 788.105 348.174C784.894 359.675 780.041 368.569 775.973 374.712C775.509 375.355 775.688 376.284 776.33 376.748H776.366C776.901 377.141 777.686 377.141 778.221 376.677C783.823 371.855 791.209 364.318 797.275 353.425C798.375 351.448 799.365 349.48 800.256 347.53C797.794 346.972 795.495 346.306 793.385 345.602C795.598 338.53 797.524 329.565 797.667 319.1C797.703 315.671 797.596 312.457 797.31 309.421C797.025 315.171 796.311 321.85 794.813 329.101C793.599 334.959 792.101 340.245 790.531 344.852C790.051 344.671 789.569 344.49 789.086 344.309ZM806.351 348.625C806.892 351.65 807.307 354.837 807.551 358.175C808.407 370.069 806.802 380.105 805.053 387.249C804.875 388.035 805.303 388.856 806.088 389.071H806.124C806.802 389.285 807.515 388.999 807.872 388.392C811.547 381.963 815.972 372.355 818.006 360.068C818.633 356.296 818.972 352.651 819.086 349.16C815.174 349.347 810.898 349.233 806.351 348.625Z"/>
</mask>
<path fill-rule="evenodd" clip-rule="evenodd" d="M789.086 344.309C788.792 345.582 788.466 346.871 788.105 348.174C784.894 359.675 780.041 368.569 775.973 374.712C775.509 375.355 775.688 376.284 776.33 376.748H776.366C776.901 377.141 777.686 377.141 778.221 376.677C783.823 371.855 791.209 364.318 797.275 353.425C798.375 351.448 799.365 349.48 800.256 347.53C797.794 346.972 795.495 346.306 793.385 345.602C795.598 338.53 797.524 329.565 797.667 319.1C797.703 315.671 797.596 312.457 797.31 309.421C797.025 315.171 796.311 321.85 794.813 329.101C793.599 334.959 792.101 340.245 790.531 344.852C790.051 344.671 789.569 344.49 789.086 344.309ZM806.351 348.625C806.892 351.65 807.307 354.837 807.551 358.175C808.407 370.069 806.802 380.105 805.053 387.249C804.875 388.035 805.303 388.856 806.088 389.071H806.124C806.802 389.285 807.515 388.999 807.872 388.392C811.547 381.963 815.972 372.355 818.006 360.068C818.633 356.296 818.972 352.651 819.086 349.16C815.174 349.347 810.898 349.233 806.351 348.625Z" fill="white"/>
<path d="M789.086 344.309L789.437 343.372L788.369 342.972L788.112 344.084L789.086 344.309ZM788.105 348.174L789.068 348.443L789.069 348.441L788.105 348.174ZM775.973 374.712L776.784 375.297L776.796 375.281L776.807 375.264L775.973 374.712ZM776.33 376.748L775.744 377.558L776.006 377.748H776.33V376.748ZM776.366 376.748L776.957 375.942L776.693 375.748H776.366V376.748ZM778.221 376.677L777.569 375.919L777.566 375.921L778.221 376.677ZM797.275 353.425L798.149 353.911L798.149 353.911L797.275 353.425ZM800.256 347.53L801.166 347.946L801.677 346.827L800.478 346.555L800.256 347.53ZM793.385 345.602L792.431 345.304L792.138 346.24L793.069 346.551L793.385 345.602ZM797.667 319.1L798.667 319.114L798.667 319.11L797.667 319.1ZM797.31 309.421L798.306 309.327L796.312 309.371L797.31 309.421ZM794.813 329.101L795.792 329.304L795.792 329.303L794.813 329.101ZM790.531 344.852L790.177 345.788L791.144 346.153L791.477 345.175L790.531 344.852ZM806.351 348.625L806.484 347.633L805.126 347.452L805.367 348.801L806.351 348.625ZM807.551 358.175L808.548 358.103L808.548 358.102L807.551 358.175ZM805.053 387.249L804.082 387.011L804.08 387.019L804.078 387.028L805.053 387.249ZM806.088 389.071L805.825 390.035L805.954 390.071H806.088V389.071ZM806.124 389.071L806.425 388.117L806.278 388.071H806.124V389.071ZM807.872 388.392L808.734 388.899L808.74 388.888L807.872 388.392ZM818.006 360.068L817.019 359.904L817.019 359.905L818.006 360.068ZM819.086 349.16L820.086 349.193L820.121 348.109L819.038 348.161L819.086 349.16ZM788.112 344.084C787.821 345.343 787.498 346.619 787.141 347.907L789.069 348.441C789.433 347.124 789.763 345.821 790.06 344.534L788.112 344.084ZM787.142 347.905C783.965 359.283 779.164 368.082 775.139 374.16L776.807 375.264C780.918 369.056 785.823 360.067 789.068 348.443L787.142 347.905ZM775.162 374.127C774.355 375.246 774.683 376.792 775.744 377.558L776.916 375.938C776.692 375.776 776.664 375.464 776.784 375.297L775.162 374.127ZM776.33 377.748H776.366V375.748H776.33V377.748ZM775.774 377.554C776.667 378.21 777.971 378.218 778.877 377.432L777.566 375.921C777.401 376.064 777.135 376.072 776.957 375.942L775.774 377.554ZM778.874 377.435C784.537 372.56 792.01 364.936 798.149 353.911L796.402 352.938C790.409 363.701 783.11 371.15 777.569 375.919L778.874 377.435ZM798.149 353.911C799.262 351.911 800.264 349.919 801.166 347.946L799.347 347.115C798.466 349.041 797.488 350.986 796.402 352.938L798.149 353.911ZM800.478 346.555C798.052 346.005 795.784 345.349 793.702 344.654L793.069 346.551C795.206 347.264 797.537 347.939 800.035 348.506L800.478 346.555ZM794.34 345.901C796.575 338.757 798.523 329.695 798.667 319.114L796.667 319.086C796.526 329.436 794.621 338.304 792.431 345.304L794.34 345.901ZM798.667 319.11C798.703 315.655 798.595 312.405 798.306 309.327L796.315 309.514C796.596 312.508 796.703 315.687 796.667 319.09L798.667 319.11ZM796.312 309.371C796.028 315.078 795.32 321.705 793.833 328.898L795.792 329.303C797.302 321.995 798.021 315.264 798.309 309.47L796.312 309.371ZM793.833 328.898C792.629 334.713 791.142 339.959 789.584 344.53L791.477 345.175C793.06 340.53 794.57 335.204 795.792 329.304L793.833 328.898ZM790.884 343.917C790.404 343.735 789.921 343.554 789.437 343.372L788.735 345.245C789.217 345.426 789.699 345.607 790.177 345.788L790.884 343.917ZM805.367 348.801C805.902 351.793 806.312 354.945 806.554 358.248L808.548 358.102C808.302 354.728 807.882 351.506 807.336 348.449L805.367 348.801ZM806.554 358.247C807.401 370.011 805.813 379.94 804.082 387.011L806.025 387.487C807.791 380.271 809.414 370.127 808.548 358.103L806.554 358.247ZM804.078 387.028C803.796 388.271 804.462 389.663 805.825 390.035L806.351 388.106C806.144 388.049 805.954 387.798 806.028 387.47L804.078 387.028ZM806.088 390.071H806.124V388.071H806.088V390.071ZM805.822 390.024C806.956 390.382 808.147 389.898 808.734 388.899L807.01 387.885C806.884 388.1 806.648 388.187 806.425 388.117L805.822 390.024ZM808.74 388.888C812.457 382.387 816.934 372.666 818.992 360.231L817.019 359.905C815.01 372.043 810.638 381.538 807.004 387.896L808.74 388.888ZM818.992 360.232C819.627 356.415 819.97 352.726 820.086 349.193L818.087 349.127C817.974 352.576 817.639 356.178 817.019 359.904L818.992 360.232ZM819.038 348.161C815.18 348.346 810.965 348.233 806.484 347.633L806.219 349.616C810.831 350.233 815.167 350.349 819.134 350.159L819.038 348.161Z" fill="#333333" mask="url(#path-44-inside-1)"/>
<path d="M802.98 348.023L802.98 348.022C799.662 347.419 796.597 346.592 793.843 345.693C796.005 338.659 797.862 329.811 798.002 319.519L798.002 319.517C798.038 316.075 797.931 312.842 797.643 309.786L796.646 309.808C796.362 315.536 795.651 322.189 794.158 329.411C792.992 335.041 791.561 340.141 790.058 344.614C789.271 344.317 788.478 344.021 787.686 343.724L787.685 343.724C786.807 343.395 785.931 343.067 785.061 342.739C783.241 336.904 781.476 329.105 781.231 319.856L781.231 319.856C781.018 311.844 781.915 303.065 783.262 295.368C784.581 287.835 786.326 281.376 787.866 277.702C791.425 277.1 795.077 277.949 798.851 278.834L798.904 278.847C802.604 279.715 806.423 280.61 810.186 279.986C816.237 288.996 823.908 302.811 828.166 321.054C830.469 330.977 831.264 339.939 831.359 347.4C824.291 348.954 814.385 350.111 802.98 348.023Z" fill="#92BF20" stroke="#333333"/>
<path d="M792.886 210.876C788.675 198.696 778.649 191.41 769.728 192.517C763.02 193.339 757.061 198.875 754.635 205.054C749.925 217.091 760.38 227.056 755.277 234.7C753.529 237.343 749.675 240.022 740.505 240.2C746.499 245.772 754.885 247.808 762.342 245.343C771.691 242.272 778.185 232.664 777.007 225.52C776.258 220.877 772.512 218.877 773.653 215.519C774.938 211.805 780.754 210.662 782.788 210.269C787.248 209.34 790.959 210.233 792.886 210.876Z" fill="black"/>
<path d="M981.812 122.461L965.136 189.476L894.845 195.614L922.606 84.038L981.812 122.461Z" fill="#FFE36C" stroke="#333333" stroke-width="2"/>
<path d="M886.915 190.294L886.914 190.295C886.157 193.326 888.002 196.36 891.005 197.119C894.036 197.877 897.061 196.062 897.819 193.026L886.915 190.294ZM886.915 190.294L912.819 86.1094C912.819 86.109 912.819 86.1086 912.819 86.1082C913.579 83.1009 916.609 81.2563 919.634 82.0128C922.637 82.7726 924.482 85.806 923.725 88.8371L923.724 88.8381L897.82 193.025L886.915 190.294Z" fill="#92BF20" stroke="#333333" stroke-width="2"/>
<path d="M979.56 203.237C979.563 203.208 979.566 203.187 979.567 203.172L989.08 149.652C989.709 147.206 992.189 145.727 994.638 146.34L994.881 145.371L994.638 146.34L996.637 146.84C999.093 147.455 1000.59 149.939 999.981 152.4L984.953 205.481C984.926 205.502 984.898 205.525 984.867 205.549C984.669 205.706 984.391 205.913 984.072 206.119C983.379 206.564 982.688 206.867 982.212 206.863C981.629 206.859 981.211 206.801 980.873 206.677C980.553 206.56 980.254 206.364 979.94 206C979.844 205.889 979.741 205.689 979.661 205.378C979.583 205.076 979.543 204.731 979.528 204.387C979.513 204.047 979.524 203.733 979.539 203.503C979.546 203.389 979.554 203.298 979.56 203.237Z" fill="#92BF20" stroke="#333333" stroke-width="2"/>
<path d="M812.522 388.132L812.555 388.139L812.589 388.141C813.757 388.21 817.01 388.589 819.811 391.12C821.235 392.412 822.051 393.836 822.542 394.84L822.55 395.001L803.038 395.035L802.619 394.537C802.469 394.354 802.352 394.004 802.311 393.469C802.271 392.95 802.309 392.33 802.4 391.685C802.582 390.392 802.963 389.085 803.26 388.422C803.51 387.888 803.744 387.578 803.966 387.392C804.179 387.214 804.41 387.123 804.712 387.084C805.032 387.042 805.411 387.06 805.917 387.095C805.975 387.099 806.034 387.103 806.094 387.107C806.538 387.139 807.056 387.175 807.645 387.177L810.06 387.65L812.522 388.132Z" fill="#92BF20" stroke="#333333"/>
<path d="M822.646 395.696L822.622 396.708L802.737 396.161L802.761 395.149L822.646 395.696Z" fill="#92BF20" stroke="#333333"/>
<path d="M985.949 263.209L985.952 263.211C990.69 267.276 996.168 268.121 1000.31 268.693C1023.36 271.95 1043.14 257.636 1051.1 251.059C1052.43 259.034 1053.75 267.009 1055.07 274.985L1055.07 274.992L1055.07 275.005C1056.45 283.304 1057.83 291.603 1059.21 299.902C1051.45 303.457 1035.88 310.014 1017.49 313.497C998.529 317.088 976.69 317.389 957.357 307.88C948.794 303.665 945.31 299.784 943.248 296.401C937.797 287.368 938.311 274.555 944.311 259.592C950.246 244.794 961.475 228.091 977.164 211.301C978.301 211.652 979.437 212.009 980.577 212.366L980.579 212.367C981.565 212.676 982.554 212.986 983.543 213.293C979.262 223.724 977.248 233.745 977.535 242.319C977.83 251.163 980.583 258.572 985.949 263.209Z" fill="white" stroke="#333333" stroke-width="2"/>
<path d="M968.222 197.837C969.256 188.038 974.804 181.392 978.989 177.62C980.415 176.374 982.617 177.323 982.714 179.141L982.714 179.141L982.714 179.147C982.854 181.495 982.855 184.201 982.644 187.157C982.283 191.863 981.442 195.816 980.784 198.909C980.704 199.286 980.626 199.649 980.553 200C980.219 201.592 979.951 202.985 979.907 204.067C979.867 205.066 979.993 206.286 981.017 206.909L981.017 206.909L981.023 206.912C981.624 207.271 982.281 207.261 982.843 207.124C983.397 206.989 983.955 206.71 984.48 206.388C985.526 205.747 986.68 204.784 987.755 203.887L987.77 203.875C988.886 202.944 989.921 202.082 990.813 201.53C991.259 201.255 991.607 201.096 991.863 201.033C991.986 201.002 992.063 201 992.104 201.004C992.123 201.005 992.134 201.008 992.138 201.009C992.142 201.011 992.143 201.011 992.144 201.012C992.148 201.014 992.343 201.166 992.372 201.942C992.398 202.645 992.274 203.576 992.04 204.627C991.576 206.715 990.734 209.039 990.141 210.453L990.14 210.456C988.433 214.563 986.675 218.626 982.453 220.304C979.829 221.342 977.277 221.059 975.557 220.654C975.044 220.531 974.601 220.239 974.273 219.814C972.115 216.85 967.049 208.715 968.222 197.839L968.222 197.837Z" fill="white" stroke="#333333" stroke-width="2"/>
<path d="M981.266 123.224L1003.45 128.767L1003.45 128.767C1021.65 133.312 1032.74 151.771 1028.2 169.987C1023.66 188.204 1005.25 199.272 987.057 194.761L964.87 189.217L981.266 123.224Z" fill="#92BF20" stroke="#333333" stroke-width="2"/>
<path d="M1077.59 280.721C1069.98 295.913 1060.78 306.869 1053.83 313.932C1048.64 305.697 1043.47 297.47 1038.3 289.243L1038.3 289.243C1033.05 280.897 1027.8 272.552 1022.54 264.198C1037.38 250.635 1052.25 237.105 1067.15 223.576C1070.97 226.177 1074.78 228.77 1078.6 231.363L1078.6 231.365C1082.46 233.992 1086.33 236.619 1090.19 239.253C1088.9 249.385 1085.75 264.354 1077.59 280.721Z" fill="#92BF20" stroke="#333333" stroke-width="2"/>
<path d="M985.915 59.335C990.346 58.2879 993.089 53.844 992.043 49.4094C990.997 44.9748 986.557 42.2287 982.127 43.2758C977.697 44.3229 974.953 48.7668 976 53.2014C977.046 57.6361 981.485 60.3822 985.915 59.335Z" stroke="#333333" stroke-width="2" stroke-miterlimit="10" stroke-linecap="round"/>
<path d="M1023.64 47.8414C1027.78 47.8414 1031.13 44.4832 1031.13 40.3407C1031.13 36.1982 1027.78 32.84 1023.64 32.84C1019.5 32.84 1016.15 36.1982 1016.15 40.3407C1016.15 44.4832 1019.5 47.8414 1023.64 47.8414Z" stroke="#333333" stroke-width="2" stroke-miterlimit="10" stroke-linecap="round"/>
<path d="M1074.27 63.7613C1078.41 63.7613 1081.76 60.4031 1081.76 56.2606C1081.76 52.1181 1078.41 48.7599 1074.27 48.7599C1070.13 48.7599 1066.77 52.1181 1066.77 56.2606C1066.77 60.4031 1070.13 63.7613 1074.27 63.7613Z" stroke="#333333" stroke-width="2" stroke-miterlimit="10" stroke-linecap="round"/>
<path d="M1107.85 129.19C1109.53 124.368 1113.81 121.475 1117.77 121.939C1121.05 122.332 1123.09 124.94 1123.55 125.618" stroke="black" stroke-width="4.3065" stroke-miterlimit="10" stroke-linecap="round"/>
<path d="M1106.67 126.654C1110.78 125.404 1113.52 122.189 1113.56 118.832C1113.56 116.725 1112.49 115.117 1111.88 114.332" stroke="black" stroke-width="4.3065" stroke-miterlimit="10" stroke-linecap="round"/>
<path d="M792.814 111.188L852.153 126.154" stroke="#333333" stroke-width="2" stroke-miterlimit="10" stroke-linecap="round"/>
<path d="M800.129 171.337L853.295 165.908" stroke="#333333" stroke-width="2" stroke-miterlimit="10" stroke-linecap="round"/>
<path d="M827.783 61.684L871.172 91.1509" stroke="#333333" stroke-width="2" stroke-miterlimit="10" stroke-linecap="round"/>
<path d="M629.209 400.21H1164.75" stroke="#92BF20" stroke-width="10" stroke-miterlimit="10" stroke-linecap="round"/>
</g>
<rect x="40" y="303" width="202.884" height="38.8" rx="4" fill="#92B700"/>
<path d="M73.04 326.776C72.9227 326.776 72.8053 326.771 72.688 326.76C72.5813 326.76 72.4853 326.755 72.4 326.744V325.032C72.4853 325.043 72.5813 325.053 72.688 325.064C72.8053 325.075 72.9227 325.08 73.04 325.08C73.2533 325.08 73.44 325.064 73.6 325.032C73.76 325 73.8987 324.941 74.016 324.856C74.1333 324.771 74.24 324.653 74.336 324.504C74.432 324.355 74.5227 324.168 74.608 323.944L70 315.4H72.24L75.616 321.88L78.416 315.4H80.4L76.464 324.232C76.2613 324.68 76.0533 325.069 75.84 325.4C75.6373 325.72 75.4027 325.981 75.136 326.184C74.88 326.387 74.5813 326.536 74.24 326.632C73.8987 326.728 73.4987 326.776 73.04 326.776Z" fill="white"/>
<path d="M83.75 326.776C82.598 326.776 81.7073 326.541 81.078 326.072C80.4593 325.592 80.1233 324.915 80.07 324.04H81.862C81.9153 324.424 82.086 324.723 82.374 324.936C82.662 325.139 83.11 325.24 83.718 325.24C84.4433 325.24 84.9447 325.123 85.222 324.888C85.4993 324.653 85.638 324.36 85.638 324.008C85.638 323.688 85.5153 323.437 85.27 323.256C85.0353 323.064 84.6193 322.968 84.022 322.968H82.63V321.592H83.91C84.4007 321.592 84.758 321.491 84.982 321.288C85.206 321.085 85.318 320.829 85.318 320.52C85.318 320.243 85.2007 320.003 84.966 319.8C84.7313 319.587 84.326 319.48 83.75 319.48C83.1313 319.48 82.6993 319.581 82.454 319.784C82.2193 319.987 82.0753 320.259 82.022 320.6H80.23C80.2833 319.789 80.6087 319.144 81.206 318.664C81.814 318.184 82.662 317.944 83.75 317.944C84.9127 317.944 85.7607 318.173 86.294 318.632C86.838 319.091 87.11 319.688 87.11 320.424C87.11 320.829 87.0087 321.187 86.806 321.496C86.614 321.805 86.294 322.04 85.846 322.2C86.4433 322.349 86.854 322.6 87.078 322.952C87.3127 323.304 87.43 323.709 87.43 324.168C87.43 324.531 87.3553 324.872 87.206 325.192C87.0567 325.512 86.8273 325.789 86.518 326.024C86.2193 326.259 85.8353 326.445 85.366 326.584C84.9073 326.712 84.3687 326.776 83.75 326.776Z" fill="white"/>
<path d="M89.1925 318.12H90.9525V321.528H94.9525V318.12H96.7125V326.6H94.9525V323.032H90.9525V326.6H89.1925V318.12Z" fill="white"/>
<path d="M101.438 326.776C100.979 326.776 100.569 326.712 100.206 326.584C99.8541 326.445 99.5555 326.259 99.3101 326.024C99.0648 325.779 98.8781 325.496 98.7501 325.176C98.6221 324.856 98.5581 324.504 98.5581 324.12C98.5581 323.277 98.8088 322.653 99.3101 322.248C99.8115 321.832 100.547 321.624 101.518 321.624H104.158V321.16C104.158 320.52 104.014 320.083 103.726 319.848C103.449 319.603 103.006 319.48 102.398 319.48C101.854 319.48 101.454 319.565 101.198 319.736C100.942 319.907 100.793 320.141 100.75 320.44H99.0381C99.0595 320.077 99.1501 319.747 99.3101 319.448C99.4808 319.139 99.7101 318.872 99.9981 318.648C100.297 318.424 100.654 318.253 101.07 318.136C101.486 318.008 101.955 317.944 102.478 317.944C103.001 317.944 103.47 318.003 103.886 318.12C104.313 318.237 104.675 318.424 104.974 318.68C105.273 318.925 105.502 319.245 105.662 319.64C105.833 320.035 105.918 320.509 105.918 321.064V324.44C105.918 324.888 105.923 325.283 105.934 325.624C105.945 325.955 105.971 326.28 106.014 326.6H104.414C104.382 326.355 104.355 326.147 104.334 325.976C104.323 325.805 104.318 325.592 104.318 325.336C104.115 325.731 103.763 326.072 103.262 326.36C102.771 326.637 102.163 326.776 101.438 326.776ZM101.918 325.24C102.217 325.24 102.499 325.203 102.766 325.128C103.043 325.043 103.283 324.925 103.486 324.776C103.689 324.616 103.849 324.424 103.966 324.2C104.094 323.965 104.158 323.699 104.158 323.4V322.936H101.838C101.39 322.936 101.027 323.032 100.75 323.224C100.483 323.416 100.35 323.699 100.35 324.072C100.35 324.424 100.473 324.707 100.718 324.92C100.974 325.133 101.374 325.24 101.918 325.24Z" fill="white"/>
<path d="M109.927 319.624H107.127V318.12H114.487V319.624H111.687V326.6H109.927V319.624Z" fill="white"/>
<path d="M116.087 318.12H117.847V321.096H119.767C120.855 321.096 121.66 321.331 122.183 321.8C122.706 322.259 122.967 322.941 122.967 323.848C122.967 324.701 122.711 325.373 122.199 325.864C121.687 326.355 120.876 326.6 119.767 326.6H116.087V318.12ZM119.607 325.096C120.194 325.096 120.604 324.995 120.839 324.792C121.084 324.579 121.207 324.264 121.207 323.848C121.207 323.432 121.084 323.123 120.839 322.92C120.604 322.707 120.194 322.6 119.607 322.6H117.847V325.096H119.607Z" fill="white"/>
<path d="M128.411 318.12H135.771V326.6H134.011V319.624H130.171V326.6H128.411V318.12Z" fill="white"/>
<path d="M141.685 326.776C141.098 326.776 140.549 326.685 140.037 326.504C139.536 326.312 139.098 326.035 138.725 325.672C138.352 325.309 138.058 324.861 137.845 324.328C137.632 323.784 137.525 323.155 137.525 322.44V322.12C137.525 321.448 137.632 320.856 137.845 320.344C138.058 319.821 138.352 319.384 138.725 319.032C139.098 318.669 139.536 318.397 140.037 318.216C140.549 318.035 141.098 317.944 141.685 317.944C142.272 317.944 142.816 318.035 143.317 318.216C143.829 318.397 144.272 318.669 144.645 319.032C145.018 319.384 145.312 319.821 145.525 320.344C145.738 320.856 145.845 321.448 145.845 322.12V322.44C145.845 323.155 145.738 323.784 145.525 324.328C145.312 324.861 145.018 325.309 144.645 325.672C144.272 326.035 143.829 326.312 143.317 326.504C142.816 326.685 142.272 326.776 141.685 326.776ZM141.685 325.24C141.994 325.24 142.288 325.187 142.565 325.08C142.853 324.973 143.104 324.808 143.317 324.584C143.541 324.36 143.717 324.072 143.845 323.72C143.984 323.368 144.053 322.941 144.053 322.44V322.12C144.053 321.661 143.984 321.267 143.845 320.936C143.717 320.605 143.541 320.333 143.317 320.12C143.104 319.907 142.853 319.747 142.565 319.64C142.288 319.533 141.994 319.48 141.685 319.48C141.376 319.48 141.077 319.533 140.789 319.64C140.512 319.747 140.261 319.907 140.037 320.12C139.824 320.333 139.648 320.605 139.509 320.936C139.381 321.267 139.317 321.661 139.317 322.12V322.44C139.317 322.941 139.381 323.368 139.509 323.72C139.648 324.072 139.824 324.36 140.037 324.584C140.261 324.808 140.512 324.973 140.789 325.08C141.077 325.187 141.376 325.24 141.685 325.24Z" fill="white"/>
<path d="M146.721 325.096H147.681C147.787 324.936 147.883 324.696 147.969 324.376C148.065 324.056 148.145 323.693 148.209 323.288C148.273 322.872 148.321 322.429 148.353 321.96C148.385 321.48 148.401 321 148.401 320.52V318.12H154.721V325.096H155.841V328.6H154.209V326.6H148.353V328.6H146.721V325.096ZM152.961 325.096V319.624H150.097V320.84C150.097 321.661 150.049 322.451 149.953 323.208C149.857 323.955 149.697 324.584 149.473 325.096H152.961Z" fill="white"/>
<path d="M157.364 318.12H158.996V319.544C159.252 319.053 159.631 318.664 160.132 318.376C160.644 318.088 161.22 317.944 161.86 317.944C162.97 317.944 163.844 318.291 164.484 318.984C165.124 319.677 165.444 320.723 165.444 322.12V322.44C165.444 323.165 165.359 323.8 165.188 324.344C165.018 324.888 164.772 325.341 164.452 325.704C164.143 326.056 163.77 326.323 163.332 326.504C162.895 326.685 162.404 326.776 161.86 326.776C161.252 326.776 160.698 326.643 160.196 326.376C159.695 326.109 159.338 325.736 159.124 325.256V329.8H157.364V318.12ZM161.444 325.24C162.106 325.24 162.639 325.011 163.044 324.552C163.45 324.093 163.652 323.389 163.652 322.44V322.12C163.652 321.224 163.455 320.563 163.06 320.136C162.666 319.699 162.127 319.48 161.444 319.48C161.146 319.48 160.858 319.528 160.58 319.624C160.303 319.72 160.052 319.864 159.828 320.056C159.615 320.237 159.444 320.472 159.316 320.76C159.188 321.037 159.124 321.357 159.124 321.72V322.84C159.124 323.245 159.188 323.597 159.316 323.896C159.444 324.195 159.615 324.445 159.828 324.648C160.042 324.851 160.287 325 160.564 325.096C160.842 325.192 161.135 325.24 161.444 325.24Z" fill="white"/>
<path d="M170.888 326.776C170.301 326.776 169.752 326.685 169.24 326.504C168.739 326.312 168.301 326.035 167.928 325.672C167.555 325.309 167.261 324.861 167.048 324.328C166.835 323.784 166.728 323.155 166.728 322.44V322.12C166.728 321.448 166.835 320.856 167.048 320.344C167.261 319.821 167.555 319.384 167.928 319.032C168.301 318.669 168.739 318.397 169.24 318.216C169.752 318.035 170.301 317.944 170.888 317.944C171.475 317.944 172.019 318.035 172.52 318.216C173.032 318.397 173.475 318.669 173.848 319.032C174.221 319.384 174.515 319.821 174.728 320.344C174.941 320.856 175.048 321.448 175.048 322.12V322.44C175.048 323.155 174.941 323.784 174.728 324.328C174.515 324.861 174.221 325.309 173.848 325.672C173.475 326.035 173.032 326.312 172.52 326.504C172.019 326.685 171.475 326.776 170.888 326.776ZM170.888 325.24C171.197 325.24 171.491 325.187 171.768 325.08C172.056 324.973 172.307 324.808 172.52 324.584C172.744 324.36 172.92 324.072 173.048 323.72C173.187 323.368 173.256 322.941 173.256 322.44V322.12C173.256 321.661 173.187 321.267 173.048 320.936C172.92 320.605 172.744 320.333 172.52 320.12C172.307 319.907 172.056 319.747 171.768 319.64C171.491 319.533 171.197 319.48 170.888 319.48C170.579 319.48 170.28 319.533 169.992 319.64C169.715 319.747 169.464 319.907 169.24 320.12C169.027 320.333 168.851 320.605 168.712 320.936C168.584 321.267 168.52 321.661 168.52 322.12V322.44C168.52 322.941 168.584 323.368 168.712 323.72C168.851 324.072 169.027 324.36 169.24 324.584C169.464 324.808 169.715 324.973 169.992 325.08C170.28 325.187 170.579 325.24 170.888 325.24Z" fill="white"/>
<path d="M180.482 326.776C179.906 326.776 179.367 326.669 178.866 326.456C178.365 326.243 177.933 325.933 177.57 325.528C177.207 325.112 176.919 324.605 176.706 324.008C176.503 323.4 176.402 322.707 176.402 321.928V321.608C176.402 320.648 176.471 319.795 176.61 319.048C176.749 318.301 176.983 317.667 177.314 317.144C177.655 316.611 178.103 316.2 178.658 315.912C179.223 315.613 179.922 315.443 180.754 315.4C181.426 315.368 182.034 315.341 182.578 315.32C183.122 315.288 183.57 315.181 183.922 315V316.616C183.751 316.712 183.437 316.792 182.978 316.856C182.519 316.909 181.858 316.947 180.994 316.968C180.493 316.979 180.055 317.037 179.682 317.144C179.319 317.251 179.01 317.421 178.754 317.656C178.509 317.891 178.311 318.2 178.162 318.584C178.023 318.957 177.933 319.416 177.89 319.96C178.135 319.459 178.519 319.053 179.042 318.744C179.575 318.424 180.215 318.264 180.962 318.264C181.485 318.264 181.965 318.355 182.402 318.536C182.85 318.707 183.234 318.963 183.554 319.304C183.874 319.635 184.119 320.045 184.29 320.536C184.471 321.016 184.562 321.56 184.562 322.168V322.536C184.562 323.197 184.455 323.795 184.242 324.328C184.039 324.851 183.757 325.293 183.394 325.656C183.031 326.019 182.599 326.296 182.098 326.488C181.607 326.68 181.069 326.776 180.482 326.776ZM180.482 325.24C181.175 325.24 181.73 325.011 182.146 324.552C182.562 324.093 182.77 323.421 182.77 322.536V322.168C182.77 321.421 182.557 320.84 182.13 320.424C181.714 320.008 181.165 319.8 180.482 319.8C179.799 319.8 179.245 320.008 178.818 320.424C178.402 320.829 178.194 321.411 178.194 322.168V322.536C178.194 322.963 178.253 323.347 178.37 323.688C178.487 324.019 178.647 324.301 178.85 324.536C179.063 324.76 179.309 324.936 179.586 325.064C179.863 325.181 180.162 325.24 180.482 325.24Z" fill="white"/>
<path d="M186.318 318.12H188.077V321.528H192.077V318.12H193.838V326.6H192.077V323.032H188.077V326.6H186.318V318.12Z" fill="white"/>
<path d="M199.763 326.776C199.198 326.776 198.664 326.691 198.163 326.52C197.662 326.339 197.219 326.072 196.835 325.72C196.462 325.357 196.163 324.904 195.939 324.36C195.715 323.816 195.603 323.176 195.603 322.44V322.12C195.603 321.416 195.71 320.803 195.923 320.28C196.136 319.757 196.424 319.325 196.787 318.984C197.16 318.632 197.587 318.371 198.067 318.2C198.547 318.029 199.059 317.944 199.603 317.944C200.894 317.944 201.88 318.291 202.563 318.984C203.256 319.677 203.603 320.669 203.603 321.96V322.856H197.395C197.406 323.293 197.475 323.667 197.603 323.976C197.742 324.275 197.918 324.52 198.131 324.712C198.355 324.893 198.606 325.027 198.883 325.112C199.171 325.197 199.464 325.24 199.763 325.24C200.371 325.24 200.814 325.144 201.091 324.952C201.379 324.76 201.576 324.509 201.683 324.2H203.443C203.272 325.043 202.851 325.683 202.179 326.12C201.518 326.557 200.712 326.776 199.763 326.776ZM199.683 319.48C199.384 319.48 199.096 319.517 198.819 319.592C198.552 319.667 198.312 319.789 198.099 319.96C197.896 320.12 197.731 320.333 197.603 320.6C197.475 320.856 197.406 321.171 197.395 321.544H201.843C201.832 321.149 201.768 320.819 201.651 320.552C201.544 320.285 201.395 320.072 201.203 319.912C201.011 319.752 200.782 319.64 200.515 319.576C200.259 319.512 199.982 319.48 199.683 319.48Z" fill="white"/>
<path d="M209.044 326.776C208.479 326.776 207.946 326.691 207.444 326.52C206.943 326.339 206.5 326.072 206.116 325.72C205.743 325.357 205.444 324.904 205.22 324.36C204.996 323.816 204.884 323.176 204.884 322.44V322.12C204.884 321.416 204.991 320.803 205.204 320.28C205.418 319.757 205.706 319.325 206.068 318.984C206.442 318.632 206.868 318.371 207.348 318.2C207.828 318.029 208.34 317.944 208.884 317.944C210.175 317.944 211.162 318.291 211.844 318.984C212.538 319.677 212.884 320.669 212.884 321.96V322.856H206.676C206.687 323.293 206.756 323.667 206.884 323.976C207.023 324.275 207.199 324.52 207.412 324.712C207.636 324.893 207.887 325.027 208.164 325.112C208.452 325.197 208.746 325.24 209.044 325.24C209.652 325.24 210.095 325.144 210.372 324.952C210.66 324.76 210.858 324.509 210.964 324.2H212.724C212.554 325.043 212.132 325.683 211.46 326.12C210.799 326.557 209.994 326.776 209.044 326.776ZM208.964 319.48C208.666 319.48 208.378 319.517 208.1 319.592C207.834 319.667 207.594 319.789 207.38 319.96C207.178 320.12 207.012 320.333 206.884 320.6C206.756 320.856 206.687 321.171 206.676 321.544H211.124C211.114 321.149 211.05 320.819 210.932 320.552C210.826 320.285 210.676 320.072 210.484 319.912C210.292 319.752 210.063 319.64 209.796 319.576C209.54 319.512 209.263 319.48 208.964 319.48Z" fill="white"/>
<defs>
<clipPath id="clip0">
<rect width="544" height="398" fill="white" transform="translate(628 1)"/>
</clipPath>
</defs>
</svg>
