<svg width="414" height="491" viewBox="0 0 414 491" fill="none" xmlns="http://www.w3.org/2000/svg">
<g clip-path="url(#clip0)">
<rect width="414" height="491" rx="10" fill="#FAFAFA"/>
<g clip-path="url(#clip1)">
<path d="M327.909 105.85L330.492 85.9607L343.437 82.1514L346.118 99.637L327.909 105.85Z" fill="white" stroke="#333333" stroke-width="2"/>
<path d="M316.309 46.9078L317.855 39.5417C321.619 37.7583 328.166 35.303 336.389 35.4839C344.715 35.6648 362.399 38.7405 365.183 50.2936C367.065 58.1248 361.625 67.9462 354.382 71.0736C343.813 75.6483 326.388 67.1967 316.309 46.9078Z" fill="black"/>
<path d="M348.067 84.0253L348.065 84.0269C345.063 86.1032 338.9 88.5441 332.27 89.6393C325.612 90.7391 318.801 90.4286 314.322 87.3586C313.388 86.7185 312.659 85.5583 312.169 83.8363C311.681 82.1222 311.462 79.9589 311.466 77.4733C311.474 72.5049 312.371 66.4422 313.58 60.5317C314.786 54.6317 316.293 48.9307 317.499 44.7012C318.102 42.5874 318.629 40.8435 319.005 39.629C319.193 39.0217 319.343 38.5469 319.447 38.2245C319.458 38.1873 319.47 38.1521 319.48 38.119C319.633 38.042 319.835 37.9428 320.083 37.827C320.71 37.5346 321.627 37.1374 322.776 36.7262C325.077 35.9024 328.286 35.0294 331.933 34.8184C339.116 34.4027 348.049 36.54 355.2 46.8885C355.199 46.9039 355.198 46.9198 355.198 46.9362C355.187 47.1835 355.17 47.5476 355.147 48.0131C355.1 48.944 355.027 50.28 354.919 51.8971C354.702 55.1327 354.349 59.4876 353.799 63.9736C353.248 68.4661 352.505 73.0595 351.516 76.784C351.021 78.6474 350.472 80.2634 349.87 81.5294C349.256 82.8195 348.639 83.6324 348.067 84.0253Z" fill="white" stroke="#333333" stroke-width="2"/>
<path d="M362.914 46.5459C362.914 46.5459 318.654 64.6897 302.801 43.9097C286.948 23.1555 306.255 -13.5456 362.914 46.5459Z" fill="black"/>
<path d="M363.043 47.1662C363.043 47.1662 312.545 62.4669 298.187 39.2574C283.829 16.0479 309.838 -20.9117 363.043 47.1662Z" stroke="black" stroke-width="4.3065" stroke-miterlimit="10" stroke-linecap="round"/>
<path d="M300.824 240.306L327.868 105.44L346.365 100.107C362.712 135.129 366.865 170.401 366.909 196.999C366.932 210.393 365.913 221.578 364.889 229.41C364.377 233.326 363.864 236.402 363.479 238.497C363.287 239.544 363.127 240.346 363.016 240.884C363.014 240.892 363.013 240.899 363.011 240.907L300.824 240.306Z" fill="#92BF20" stroke="#333333" stroke-width="2"/>
<path d="M252.515 137.299L252.515 137.299C280.372 133.53 302.426 124.905 317.337 117.644C319.563 128.72 321.811 139.797 324.082 150.895C307.814 154.886 282.852 158.906 252.804 155.449C229.02 152.712 209.743 146.179 196.153 140.304C196.151 139.729 196.146 139.151 196.142 138.577L196.142 138.575C196.138 138.165 196.135 137.757 196.133 137.35C210.649 139.28 230.057 140.335 252.515 137.299Z" fill="white" stroke="#333333" stroke-width="2"/>
<path d="M203.528 139.847L203.528 139.847L203.525 139.86C203.439 140.16 203.257 140.407 202.979 140.593C200.794 142.037 194.817 145.369 187.113 144.16L187.112 144.16C180.183 143.076 175.64 138.885 173.092 135.755C172.385 134.883 173.006 133.58 174.102 133.561C175.798 133.561 177.734 133.637 179.842 133.914L179.842 133.914L179.849 133.915C183.245 134.336 186.07 135.09 188.284 135.68C188.53 135.745 188.769 135.809 189 135.87C190.129 136.168 191.144 136.42 191.947 136.495C192.663 136.562 193.709 136.541 194.286 135.673L194.288 135.67C194.62 135.167 194.63 134.612 194.542 134.159C194.456 133.714 194.259 133.273 194.039 132.871C193.606 132.081 192.947 131.206 192.348 130.41L192.322 130.376C191.687 129.533 191.119 128.774 190.767 128.133C190.601 127.829 190.517 127.61 190.485 127.465C190.559 127.448 190.685 127.431 190.886 127.433C191.36 127.439 191.999 127.555 192.738 127.758C194.2 128.16 195.823 128.838 196.815 129.303C199.751 130.709 202.483 132.052 203.487 135.049L203.49 135.059L203.493 135.068C204.143 136.888 203.881 138.669 203.528 139.847ZM190.471 127.358C190.471 127.358 190.471 127.359 190.471 127.361L190.471 127.358Z" fill="white" stroke="#333333" stroke-width="2"/>
<path d="M336.936 147.345L314.241 156.453L307.452 118.637L327.557 109.108L336.936 132.495V147.345Z" fill="#92BF20" stroke="#333333" stroke-width="2"/>
<path d="M147.226 141.838L147.227 141.839C147.922 142.406 148.549 142.897 149.507 143.079C150.779 143.35 152.041 142.998 153.192 142.359C154.345 141.72 155.431 140.77 156.381 139.77C157.937 138.131 159.177 136.305 159.795 135.34C159.828 135.369 159.86 135.398 159.893 135.427L159.895 135.429C159.997 135.521 160.101 135.614 160.205 135.706C159.212 139.43 157.735 142.563 155.966 144.82C154.148 147.14 152.057 148.491 149.897 148.682L149.895 148.682C148.094 148.848 146.644 148.169 144.716 147.255C142.225 146.067 137.553 143.317 133.472 137.027C134.928 135.956 136.393 134.905 137.865 133.851C138.316 133.528 138.767 133.205 139.219 132.881C142.315 137.451 145.245 140.208 147.226 141.838Z" fill="white" stroke="#333333"/>
<path d="M142.09 136.152L135.004 142.549L129.158 136.828L135.599 126.599L142.09 136.152Z" fill="#FFE36C" stroke="#333333"/>
<path d="M31.1933 224.762L31.1933 224.762L31.1895 224.755L29.903 222.278C29.8382 222.145 29.8955 222.017 29.9904 221.969L29.9904 221.969L29.9994 221.965L33.0871 220.338L34.5829 223.199L31.4923 224.827L31.4845 224.832L31.4768 224.836C31.3568 224.905 31.241 224.858 31.1933 224.762Z" fill="white" stroke="#333333"/>
<path d="M76.2176 147.786L76.2174 147.786C67.861 146.026 61.5136 142.755 57.4535 140.201C58.9926 137.529 60.5314 134.856 62.0512 132.183C65.4699 135.488 70.6743 139.76 77.801 143.27L77.8017 143.27C83.5384 146.084 88.8477 147.565 92.9588 148.374C92.9472 148.408 92.9357 148.443 92.9242 148.478L92.9237 148.479C92.8864 148.591 92.8495 148.702 92.812 148.813C88.6201 149.171 82.8438 149.184 76.2176 147.786Z" fill="white" stroke="#333333"/>
<path d="M25.1732 222.959L25.1733 222.959L25.1762 222.952C25.2195 222.846 25.359 222.684 25.6617 222.494C25.9504 222.312 26.3271 222.143 26.7422 221.997C27.5771 221.702 28.4817 221.528 28.9641 221.505C29.3562 221.487 29.5923 221.53 29.7458 221.594C29.8867 221.652 29.9914 221.741 30.0964 221.892C30.2119 222.058 30.3146 222.279 30.4544 222.6C30.4688 222.634 30.4835 222.668 30.4986 222.702C30.6241 222.992 30.7736 223.337 30.9724 223.718L30.9729 223.719L33.2924 228.138C33.2924 228.138 33.2925 228.138 33.2925 228.138C34.5829 230.608 33.6443 233.663 31.1623 234.956L31.1412 234.967L25.0344 223.284L25.1732 222.959Z" fill="#ECF5D5" stroke="#333333"/>
<path d="M31.2066 235.265L30.8154 235.471L24.2534 222.95L24.6546 222.74L31.2066 235.265Z" fill="#92BF20" stroke="#333333"/>
<path d="M68.6463 229.689L71.8331 230.162L71.3145 233.621L71.3114 233.642L71.3101 233.662C71.3052 233.736 71.2276 233.837 71.0767 233.82L68.3258 233.408L68.3258 233.408L68.3179 233.407C68.2116 233.393 68.1128 233.288 68.1286 233.142L68.6463 229.689Z" fill="white" stroke="#333333"/>
<path d="M69.7429 233.158L69.7445 233.159L74.6934 233.701C74.6935 233.701 74.6935 233.701 74.6936 233.701C77.4598 234.007 79.4541 236.499 79.149 239.275L79.149 239.275L79.1485 239.28L79.1471 239.294L66.0611 237.85L65.8589 237.554C65.7969 237.457 65.7421 237.249 65.7535 236.893C65.7644 236.551 65.834 236.143 65.9431 235.716C66.1629 234.856 66.52 234.007 66.7715 233.594C66.9763 233.26 67.1446 233.087 67.2844 232.995C67.4132 232.909 67.5477 232.871 67.7332 232.868C67.9368 232.864 68.1792 232.901 68.5244 232.964C68.5645 232.971 68.6057 232.979 68.648 232.987C68.9563 233.044 69.3223 233.111 69.7429 233.158Z" fill="#ECF5D5" stroke="#333333"/>
<path d="M79.4173 239.397L79.3692 239.85L65.3606 238.306L65.4087 237.853L79.4173 239.397Z" fill="#92BF20" stroke="#333333"/>
<path d="M78.1362 142.935L78.1362 142.935C82.5942 145.119 86.8348 146.577 90.5092 147.543C90.4595 148.108 90.3789 148.684 90.2821 149.257C86.3254 149.331 81.6129 149.03 76.3986 147.915L76.3964 147.915C67.2398 145.999 60.2986 142.418 55.8768 139.63C56.7303 138.087 57.4543 136.417 58.1672 134.772L58.1754 134.753C58.8637 133.165 59.5422 131.599 60.3261 130.148C64.0954 133.831 70.3351 139.111 78.1362 142.935Z" fill="#FFE36C" stroke="#333333"/>
<path d="M58.3132 119.948L59.008 125.13L53.5056 124.397L54.5181 118.828L58.3132 119.948Z" fill="white" stroke="#333333"/>
<path d="M60.3119 106.457L59.3066 104.311C59.3066 104.311 47.9129 102.347 45.5156 111.057L50.336 116.666L52.8107 114.882L60.3119 106.457Z" fill="black"/>
<path d="M59.0916 104.592C59.1387 104.601 59.181 104.61 59.218 104.619C59.2713 104.708 59.3435 104.829 59.4317 104.979C59.6346 105.325 59.9221 105.822 60.2595 106.427C60.9349 107.638 61.8081 109.279 62.6033 111.002C63.4008 112.729 64.1095 114.518 64.4678 116.03C64.6471 116.787 64.7329 117.451 64.7083 117.991C64.6836 118.535 64.5502 118.898 64.3497 119.121C63.2328 120.344 61.2201 120.931 59.1078 121.078C57.0089 121.223 54.9665 120.921 53.9193 120.516C53.7589 120.454 53.5341 120.278 53.2579 119.934C52.99 119.601 52.7098 119.155 52.4251 118.623C51.8562 117.56 51.2984 116.21 50.8053 114.871C50.3133 113.535 49.8909 112.225 49.5913 111.247C49.4416 110.759 49.3228 110.354 49.2415 110.072C49.2082 109.957 49.1813 109.862 49.1611 109.79C50.5823 106.195 53.1041 104.928 55.2861 104.539C56.4044 104.339 57.4396 104.371 58.1975 104.454C58.5754 104.495 58.8818 104.549 59.0916 104.592Z" fill="white" stroke="#333333"/>
<path d="M46.418 110.075C46.418 110.075 58.353 111.962 61.0338 105.94C63.7147 99.9175 56.8579 92.0087 46.418 110.075Z" fill="black"/>
<path d="M67.4228 194.393L67.4226 194.393C64.2607 181.661 58.5743 172.386 54.5432 166.873C58.2247 165.579 61.8874 164.284 65.57 162.968C68.5198 170.354 71.5853 180.057 73.1957 191.713L73.1958 191.713C75.4416 207.88 74.0165 221.586 72.236 231.095C70.7903 230.818 69.344 230.526 67.8953 230.231C69.4331 223.111 71.2746 209.994 67.4228 194.393Z" fill="#92BF20" stroke="#333333"/>
<path d="M33.2867 222.008C33.0184 221.434 32.7498 220.86 32.478 220.283C35.8429 218.847 48.1528 212.952 53.6897 198.727C60.547 181.172 51.3881 165.592 49.3282 162.42C50.7317 161.792 52.1307 161.168 53.5302 160.543L53.5307 160.543L53.5313 160.543C54.9645 159.904 56.3982 159.264 57.8368 158.62C59.6525 162.333 67.9409 181.113 58.5215 200.758C51.326 215.754 38.2828 222.004 34.1132 223.771C33.8357 223.181 33.5614 222.595 33.2868 222.008L33.2867 222.008Z" fill="#92BF20" stroke="#333333"/>
<path d="M48.6935 167.83C48.6648 167.699 48.6317 167.544 48.595 167.365C48.4637 166.723 48.2872 165.779 48.108 164.576C47.7495 162.167 47.3805 158.721 47.3405 154.577C47.2614 146.381 48.4688 135.474 53.5729 124.475L59.151 126.08L65.4671 162.861L48.6935 167.83Z" fill="#FFE36C" stroke="#333333"/>
<path d="M100.552 151.645L100.551 151.645C99.5226 152.111 97.8787 152.605 96.0335 152.036C93.9885 151.4 92.9117 149.874 92.51 149.224C92.4836 149.165 92.4804 149.123 92.4854 149.087C92.5557 148.738 92.6851 148.315 93.0431 147.956C93.6183 147.379 94.3902 147.379 95.3418 147.379H95.3441C95.6432 147.379 96.1322 147.41 96.5445 147.49C96.6355 147.507 96.7174 147.526 96.7891 147.546C96.6461 147.633 96.4674 147.725 96.2628 147.83L96.243 147.84C95.9936 147.968 95.7029 148.118 95.48 148.276C95.3652 148.358 95.2389 148.462 95.1418 148.591C95.0426 148.723 94.9441 148.923 94.9776 149.17L94.9775 149.17L94.9791 149.18C95.0449 149.598 95.4138 149.774 95.618 149.852C95.8558 149.943 96.1684 150.009 96.4937 150.074C96.5656 150.088 96.6398 150.103 96.7163 150.118C97.3597 150.243 98.1633 150.401 99.0733 150.712C99.6353 150.908 100.128 151.129 100.557 151.332C100.616 151.366 100.648 151.426 100.647 151.496C100.646 151.564 100.615 151.616 100.552 151.645ZM97.0823 147.665C97.0819 147.665 97.0791 147.663 97.0746 147.658C97.0804 147.662 97.0826 147.665 97.0823 147.665Z" fill="white" stroke="#333333"/>
<path d="M24.5954 164.139L24.5954 164.139L24.5984 164.135C25.9059 162.395 27.7427 161.914 28.4571 161.795C28.4788 161.791 28.5079 161.79 28.5371 161.795C28.5642 161.799 28.5783 161.806 28.5806 161.807C28.8845 161.995 29.2474 162.267 29.4684 162.728C29.8036 163.464 29.5456 164.186 29.2214 165.08C29.1111 165.361 28.9115 165.808 28.6944 166.167C28.6509 166.238 28.6089 166.303 28.5691 166.36C28.5414 166.2 28.5193 166.01 28.4944 165.793L28.4936 165.787C28.4612 165.505 28.4231 165.173 28.3503 164.904C28.3136 164.767 28.2595 164.612 28.1712 164.476C28.0806 164.336 27.9269 164.177 27.6866 164.122L27.6867 164.122L27.6788 164.12C27.2589 164.032 26.9627 164.323 26.8196 164.488C26.6525 164.681 26.4828 164.954 26.3102 165.239C26.2756 165.296 26.2401 165.355 26.2036 165.415C25.8622 165.982 25.4344 166.692 24.8191 167.444C24.4169 167.922 24.045 168.319 23.7033 168.637L23.7033 168.637L23.7016 168.639C23.5997 168.735 23.4231 168.682 23.4078 168.52C23.3106 167.396 23.4127 165.68 24.5954 164.139ZM28.342 166.615C28.342 166.615 28.3449 166.613 28.3506 166.61C28.3447 166.614 28.3419 166.616 28.342 166.615Z" fill="white" stroke="#333333"/>
<path d="M28.8892 162.352C29.9786 158.262 31.9134 152.832 35.4509 147.037C39.3343 140.713 45.6295 136.038 49.8253 132.921C50.4456 132.461 51.02 132.034 51.5339 131.641C53.4389 133.977 54.5501 136.295 55.1263 138.845C50.8147 140.926 44.9509 144.409 39.161 150.062C34.5691 154.517 31.3997 159.019 29.2456 162.637C29.1275 162.541 29.0083 162.447 28.8892 162.352Z" fill="#FFE36C" stroke="#333333"/>
<path d="M100.702 148.277L100.702 148.277L100.708 148.284C100.933 148.554 101.167 148.942 101.186 149.407L101.187 149.421L101.188 149.435C101.267 150.246 100.773 150.83 100.149 151.565C99.9354 151.804 99.5969 152.16 99.2742 152.424C99.2071 152.48 99.1446 152.527 99.0874 152.568C99.1141 152.408 99.1578 152.22 99.2082 152.004L99.2125 151.986C99.2766 151.712 99.3517 151.391 99.3751 151.116C99.387 150.976 99.3892 150.811 99.3527 150.653C99.3154 150.491 99.225 150.286 99.0147 150.153L99.0147 150.153L99.0127 150.152C98.648 149.923 98.2668 150.102 98.0824 150.205C97.8603 150.329 97.6072 150.526 97.3463 150.734C97.2915 150.777 97.2352 150.822 97.1772 150.869C96.6615 151.282 96.0175 151.799 95.1916 152.291L95.1915 152.291L95.1839 152.296C94.6747 152.612 94.2119 152.833 93.7601 153.034C93.6929 153.059 93.6284 153.043 93.5798 153.001C93.532 152.959 93.5112 152.902 93.5312 152.832L93.5312 152.832L93.5335 152.823C93.8248 151.728 94.5206 150.155 96.1552 149.11L96.1552 149.11L96.1586 149.108C97.988 147.917 99.8718 148.104 100.598 148.225L100.598 148.226L100.61 148.227C100.645 148.232 100.661 148.24 100.667 148.244C100.673 148.247 100.684 148.255 100.702 148.277ZM98.8059 152.722C98.806 152.722 98.8096 152.72 98.816 152.72C98.8089 152.722 98.8057 152.722 98.8059 152.722Z" fill="white" stroke="#333333"/>
<path d="M160.204 135.35L160.187 135.336L160.169 135.324C159.911 135.152 159.557 134.835 159.348 134.387C159.082 133.638 159.4 132.909 159.801 132.051C159.937 131.768 160.173 131.325 160.421 130.976C160.474 130.901 160.525 130.834 160.573 130.777C160.59 130.942 160.597 131.141 160.606 131.368L160.606 131.375C160.617 131.662 160.63 131.999 160.682 132.277C160.709 132.418 160.752 132.578 160.83 132.722C160.91 132.869 161.05 133.038 161.282 133.114C161.698 133.251 162.025 132.973 162.176 132.826C162.359 132.647 162.552 132.387 162.751 132.115C162.795 132.053 162.842 131.989 162.889 131.923C163.279 131.383 163.765 130.71 164.429 130.01L164.431 130.009C164.85 129.564 165.27 129.191 165.643 128.893L165.643 128.893L165.648 128.888C165.766 128.791 165.938 128.882 165.938 129.02C165.938 130.144 165.694 131.863 164.39 133.338C162.931 134.941 161.07 135.291 160.331 135.369C160.277 135.368 160.244 135.363 160.225 135.358C160.209 135.354 160.205 135.351 160.204 135.35C160.204 135.35 160.204 135.35 160.204 135.35ZM160.805 130.556C160.805 130.556 160.802 130.558 160.795 130.561C160.802 130.557 160.805 130.555 160.805 130.556Z" fill="white" stroke="#333333"/>
<path d="M152.132 241.036L136.459 241.062C136.382 241.062 136.33 241.01 136.33 240.932V239.64C136.33 239.563 136.382 239.511 136.459 239.511L152.132 239.485C152.209 239.485 152.261 239.537 152.261 239.614V240.907C152.235 240.984 152.183 241.036 152.132 241.036Z" fill="white"/>
<path d="M125.427 107.594C124.344 111.91 126.432 116.2 130.015 117.7C132.851 118.888 136.743 118.346 138.212 116.149C140.919 112.091 135.222 102.605 135.222 102.605C135.222 102.58 128.108 100.564 125.427 107.594Z" fill="black"/>
<path d="M113.869 226.598L113.869 226.598L113.869 226.596C113.904 226.474 114.036 226.282 114.331 226.042C114.613 225.812 114.988 225.584 115.403 225.373C116.236 224.951 117.155 224.641 117.653 224.547C118.063 224.477 118.322 224.49 118.499 224.537C118.662 224.581 118.788 224.664 118.92 224.81C119.065 224.97 119.202 225.19 119.388 225.507C119.412 225.549 119.437 225.592 119.463 225.636C119.62 225.907 119.806 226.226 120.038 226.572C120.275 227.111 120.507 227.651 120.74 228.194L120.74 228.195C120.978 228.75 121.217 229.307 121.463 229.865L121.475 229.891L121.489 229.916C121.911 230.637 123.027 232.712 122.688 235.387C122.504 236.721 122.04 237.751 121.661 238.416L113.755 226.99L113.869 226.598Z" fill="#92BF20" stroke="#333333"/>
<path d="M121.377 238.672L121.208 238.784L112.984 227.264L113.154 227.152L121.377 238.672Z" fill="#92BF20" stroke="#333333"/>
<path d="M136.211 118.345L136.806 122.899L132.095 122.214L132.891 117.358L136.211 118.345Z" fill="white" stroke="#333333"/>
<path d="M136.923 104.547C136.955 104.554 136.984 104.56 137.011 104.566C137.046 104.627 137.089 104.702 137.139 104.791C137.287 105.054 137.496 105.435 137.739 105.905C138.225 106.847 138.844 108.141 139.378 109.557C139.913 110.976 140.356 112.497 140.503 113.898C140.651 115.307 140.493 116.522 139.91 117.396C139.277 118.342 138.085 118.978 136.654 119.226C135.231 119.472 133.646 119.318 132.322 118.763L132.321 118.763C128.998 117.373 127.005 113.362 128.018 109.269C129.287 105.979 131.565 104.836 133.53 104.49C134.527 104.315 135.45 104.346 136.126 104.422C136.463 104.46 136.736 104.508 136.923 104.547Z" fill="white" stroke="#333333"/>
<path d="M126.38 112.944C126.38 112.944 126.277 95.6271 135.35 93.0943C144.45 90.5355 154.117 101.985 126.38 112.944Z" fill="black"/>
<path d="M127.651 161.317C127.628 161.211 127.602 161.089 127.574 160.952C127.456 160.375 127.298 159.527 127.137 158.445C126.814 156.281 126.483 153.183 126.446 149.459C126.373 142.104 127.452 132.321 132.015 122.459L136.974 123.883L142.645 156.89L127.651 161.317Z" fill="#FFE36C" stroke="#333333"/>
<path d="M101.156 148.421C103.594 144.988 106.907 140.82 112.226 136.677C118.974 131.423 125.578 128.686 130.142 127.237C131.177 130.162 132.212 133.068 133.267 135.974C128.523 136.436 121.91 137.625 114.632 140.813C108.705 143.395 104.686 146.054 101.445 148.648C101.383 148.595 101.324 148.55 101.273 148.511C101.267 148.507 101.261 148.503 101.256 148.499C101.219 148.47 101.185 148.445 101.156 148.421Z" fill="white" stroke="#333333"/>
<path d="M131.813 130.329L131.798 130.449L131.84 130.561L134.28 137.236L127.236 138.135L124.419 127.974L132.367 125.796L131.813 130.329Z" fill="#FFE36C" stroke="#333333"/>
<mask id="path-43-inside-1" fill="white">
<path fill-rule="evenodd" clip-rule="evenodd" d="M127.373 203.424C127.16 204.346 126.925 205.279 126.664 206.221C124.344 214.544 120.839 220.979 117.9 225.425C117.565 225.89 117.694 226.562 118.158 226.898H118.184C118.57 227.182 119.137 227.182 119.524 226.846C123.571 223.357 128.907 217.904 133.289 210.021C134.084 208.591 134.799 207.167 135.443 205.756C133.664 205.352 132.003 204.87 130.479 204.36C132.077 199.243 133.469 192.756 133.572 185.183C133.598 182.702 133.521 180.376 133.315 178.179C133.108 182.34 132.593 187.173 131.51 192.42C130.634 196.658 129.551 200.484 128.417 203.818C128.07 203.687 127.722 203.555 127.373 203.424ZM139.846 206.547C140.237 208.736 140.536 211.042 140.713 213.458C141.331 222.065 140.171 229.328 138.908 234.497C138.779 235.065 139.089 235.66 139.656 235.815H139.682C140.171 235.97 140.687 235.763 140.945 235.324C143.6 230.672 146.796 223.719 148.265 214.828C148.718 212.099 148.963 209.461 149.046 206.935C146.219 207.07 143.131 206.988 139.846 206.547Z"/>
</mask>
<path fill-rule="evenodd" clip-rule="evenodd" d="M127.373 203.424C127.16 204.346 126.925 205.279 126.664 206.221C124.344 214.544 120.839 220.979 117.9 225.425C117.565 225.89 117.694 226.562 118.158 226.898H118.184C118.57 227.182 119.137 227.182 119.524 226.846C123.571 223.357 128.907 217.904 133.289 210.021C134.084 208.591 134.799 207.167 135.443 205.756C133.664 205.352 132.003 204.87 130.479 204.36C132.077 199.243 133.469 192.756 133.572 185.183C133.598 182.702 133.521 180.376 133.315 178.179C133.108 182.34 132.593 187.173 131.51 192.42C130.634 196.658 129.551 200.484 128.417 203.818C128.07 203.687 127.722 203.555 127.373 203.424ZM139.846 206.547C140.237 208.736 140.536 211.042 140.713 213.458C141.331 222.065 140.171 229.328 138.908 234.497C138.779 235.065 139.089 235.66 139.656 235.815H139.682C140.171 235.97 140.687 235.763 140.945 235.324C143.6 230.672 146.796 223.719 148.265 214.828C148.718 212.099 148.963 209.461 149.046 206.935C146.219 207.07 143.131 206.988 139.846 206.547Z" fill="white"/>
<path d="M127.373 203.424L127.725 202.488L126.655 202.086L126.399 203.2L127.373 203.424ZM126.664 206.221L127.628 206.49L127.628 206.488L126.664 206.221ZM117.9 225.425L118.711 226.009L118.723 225.993L118.734 225.976L117.9 225.425ZM118.158 226.898L117.571 227.708L117.834 227.898H118.158V226.898ZM118.184 226.898L118.776 226.092L118.512 225.898H118.184V226.898ZM119.524 226.846L118.871 226.089L118.868 226.092L119.524 226.846ZM133.289 210.021L134.163 210.507L134.163 210.506L133.289 210.021ZM135.443 205.756L136.353 206.171L136.863 205.053L135.664 204.78L135.443 205.756ZM130.479 204.36L129.524 204.062L129.232 204.998L130.162 205.309L130.479 204.36ZM133.572 185.183L134.572 185.196L134.572 185.193L133.572 185.183ZM133.315 178.179L134.31 178.085L132.316 178.129L133.315 178.179ZM131.51 192.42L132.489 192.622L132.489 192.622L131.51 192.42ZM128.417 203.818L128.063 204.753L129.03 205.119L129.364 204.14L128.417 203.818ZM139.846 206.547L139.979 205.556L138.621 205.374L138.862 206.723L139.846 206.547ZM140.713 213.458L141.71 213.387L141.71 213.385L140.713 213.458ZM138.908 234.497L137.937 234.259L137.935 234.267L137.933 234.276L138.908 234.497ZM139.656 235.815L139.392 236.779L139.521 236.815H139.656V235.815ZM139.682 235.815L139.983 234.861L139.836 234.815H139.682V235.815ZM140.945 235.324L141.807 235.83L141.813 235.819L140.945 235.324ZM148.265 214.828L147.279 214.664L147.279 214.665L148.265 214.828ZM149.046 206.935L150.045 206.968L150.081 205.884L148.998 205.936L149.046 206.935ZM126.399 203.2C126.189 204.107 125.957 205.026 125.7 205.955L127.628 206.488C127.893 205.531 128.132 204.584 128.347 203.649L126.399 203.2ZM125.701 205.953C123.415 214.152 119.961 220.493 117.066 224.873L118.734 225.976C121.716 221.466 125.273 214.935 127.628 206.49L125.701 205.953ZM117.089 224.84C116.411 225.781 116.689 227.069 117.571 227.708L118.744 226.088C118.734 226.081 118.719 226.062 118.713 226.033C118.708 226.005 118.717 226.001 118.711 226.009L117.089 224.84ZM118.158 227.898H118.184V225.898H118.158V227.898ZM117.591 227.704C118.336 228.251 119.423 228.259 120.18 227.601L118.868 226.092C118.861 226.098 118.849 226.105 118.827 226.105C118.801 226.106 118.783 226.097 118.776 226.092L117.591 227.704ZM120.177 227.604C124.285 224.062 129.708 218.52 134.163 210.507L132.415 209.535C128.106 217.287 122.857 222.653 118.871 226.089L120.177 227.604ZM134.163 210.506C134.971 209.053 135.698 207.605 136.353 206.171L134.533 205.341C133.9 206.728 133.196 208.129 132.415 209.535L134.163 210.506ZM135.664 204.78C133.922 204.385 132.293 203.912 130.796 203.412L130.162 205.309C131.713 205.827 133.407 206.319 135.221 206.731L135.664 204.78ZM131.434 204.659C133.054 199.469 134.468 192.885 134.572 185.196L132.572 185.169C132.471 192.627 131.1 199.017 129.524 204.062L131.434 204.659ZM134.572 185.193C134.598 182.685 134.52 180.324 134.31 178.085L132.319 178.272C132.521 180.427 132.598 182.718 132.572 185.172L134.572 185.193ZM132.316 178.129C132.112 182.247 131.602 187.028 130.531 192.218L132.489 192.622C133.584 187.318 134.105 182.433 134.313 178.228L132.316 178.129ZM130.531 192.217C129.663 196.413 128.592 200.198 127.47 203.496L129.364 204.14C130.51 200.769 131.604 196.904 132.489 192.622L130.531 192.217ZM128.771 202.882C128.423 202.751 128.074 202.619 127.725 202.488L127.021 204.36C127.37 204.491 127.717 204.622 128.063 204.753L128.771 202.882ZM138.862 206.723C139.246 208.88 139.541 211.151 139.715 213.531L141.71 213.385C141.531 210.934 141.227 208.593 140.83 206.372L138.862 206.723ZM139.715 213.53C140.325 222.007 139.182 229.163 137.937 234.259L139.88 234.734C141.16 229.492 142.338 222.123 141.71 213.387L139.715 213.53ZM137.933 234.276C137.701 235.301 138.246 236.466 139.392 236.779L139.919 234.85C139.914 234.849 139.912 234.847 139.911 234.846C139.908 234.844 139.903 234.839 139.896 234.827C139.882 234.802 139.874 234.762 139.883 234.718L137.933 234.276ZM139.656 236.815H139.682V234.815H139.656V236.815ZM139.38 236.768C140.326 237.068 141.319 236.661 141.807 235.83L140.082 234.818C140.067 234.844 140.049 234.856 140.035 234.861C140.022 234.866 140.006 234.869 139.983 234.861L139.38 236.768ZM141.813 235.819C144.509 231.095 147.758 224.03 149.252 214.991L147.279 214.665C145.834 223.408 142.69 230.248 140.076 234.828L141.813 235.819ZM149.252 214.992C149.712 212.217 149.961 209.536 150.045 206.968L148.046 206.902C147.965 209.386 147.724 211.98 147.279 214.664L149.252 214.992ZM148.998 205.936C146.226 206.069 143.198 205.988 139.979 205.556L139.713 207.539C143.064 207.988 146.213 208.072 149.094 207.934L148.998 205.936Z" fill="#333333" mask="url(#path-43-inside-1)"/>
<path d="M137.435 205.976L137.435 205.976C135.097 205.55 132.932 204.97 130.982 204.337C132.53 199.258 133.852 192.888 133.953 185.488L133.953 185.486C133.979 182.992 133.901 180.648 133.693 178.43L132.695 178.452C132.49 182.591 131.977 187.398 130.901 192.616C130.071 196.628 129.057 200.266 127.989 203.465C127.464 203.267 126.937 203.07 126.41 202.872L126.41 202.872C125.797 202.642 125.185 202.413 124.577 202.183C123.273 197.977 122.013 192.37 121.837 185.726L121.837 185.726C121.683 179.94 122.33 173.597 123.302 168.034C124.246 162.635 125.49 158.007 126.59 155.351C129.104 154.944 131.69 155.545 134.395 156.18L134.448 156.193C137.082 156.812 139.832 157.458 142.55 157.03C146.907 163.542 152.41 173.498 155.469 186.628C157.12 193.747 157.697 200.182 157.772 205.551C152.685 206.66 145.592 207.472 137.435 205.976Z" fill="#92BF20" stroke="#333333"/>
<path d="M130.118 106.87C127.076 98.0567 119.833 92.7842 113.388 93.5854C108.542 94.1798 104.237 98.1859 102.484 102.657C99.0816 111.367 106.634 118.578 102.948 124.109C101.685 126.022 98.9012 127.96 92.2764 128.09C96.607 132.122 102.665 133.595 108.052 131.811C114.806 129.589 119.497 122.636 118.647 117.467C118.105 114.107 115.399 112.66 116.224 110.23C117.152 107.542 121.353 106.715 122.823 106.431C126.045 105.759 128.726 106.405 130.118 106.87Z" fill="black"/>
<path d="M266.286 43.0158L254.334 91.1264L204.138 95.5168L224.007 15.532L266.286 43.0158Z" fill="#FFE36C" stroke="#333333" stroke-width="2"/>
<path d="M198.316 92.0439L198.316 92.0429L217.03 16.6539C217.03 16.6535 217.03 16.653 217.03 16.6526C217.543 14.6217 219.583 13.3812 221.616 13.8902C223.637 14.4027 224.88 16.4484 224.37 18.4939L224.37 18.4949L205.655 93.8861C205.655 93.8864 205.655 93.8866 205.655 93.8868C205.144 95.9362 203.109 97.1577 201.071 96.6477C199.049 96.1355 197.806 94.0896 198.316 92.0439Z" fill="#92BF20" stroke="#333333" stroke-width="2"/>
<path d="M265.252 101.37C265.254 101.356 265.255 101.344 265.256 101.335L272.125 62.6261C272.546 61.0078 274.184 60.0335 275.801 60.4388L276.044 59.47L275.801 60.4388L277.244 60.8006C278.868 61.2075 279.859 62.8522 279.459 64.4854L268.628 102.806C268.491 102.914 268.301 103.056 268.084 103.196C267.588 103.515 267.149 103.692 266.894 103.69C266.487 103.687 266.222 103.646 266.02 103.572C265.837 103.505 265.659 103.393 265.461 103.162C265.429 103.126 265.369 103.026 265.317 102.823C265.268 102.629 265.24 102.399 265.229 102.163C265.219 101.929 265.227 101.712 265.237 101.553C265.242 101.474 265.248 101.411 265.252 101.37Z" fill="#92BF20" stroke="#333333" stroke-width="2"/>
<path d="M144.276 235.272L144.31 235.278L144.343 235.28C145.174 235.329 147.486 235.6 149.476 237.4C150.448 238.284 151.023 239.256 151.377 239.968L137.516 239.993L137.256 239.683C137.175 239.583 137.093 239.365 137.065 238.987C137.037 238.625 137.063 238.187 137.128 237.726C137.258 236.801 137.53 235.869 137.738 235.403C137.914 235.027 138.072 234.823 138.212 234.706C138.341 234.597 138.482 234.54 138.679 234.514C138.895 234.486 139.154 234.498 139.522 234.523C139.563 234.526 139.606 234.529 139.649 234.532C139.967 234.555 140.341 234.581 140.766 234.583L142.498 234.923L144.276 235.272Z" fill="#92BF20" stroke="#333333"/>
<path d="M151.475 240.744L151.464 241.199L137.376 240.811L137.387 240.355L151.475 240.744Z" fill="#92BF20" stroke="#333333"/>
<path d="M265.629 108.212C266.246 108.406 266.864 108.601 267.484 108.793C264.457 116.269 263.03 123.457 263.236 129.632C263.451 136.078 265.455 141.525 269.41 144.948L269.412 144.95C272.903 147.949 276.935 148.567 279.927 148.981C296.355 151.306 310.472 141.359 316.461 136.466C317.394 142.078 318.323 147.69 319.252 153.303L319.254 153.31C320.237 159.249 321.22 165.189 322.209 171.128C316.551 173.715 305.428 178.371 292.327 180.857C278.658 183.45 262.95 183.66 249.059 176.816C242.913 173.786 240.44 171.011 238.981 168.615C235.109 162.187 235.448 153.019 239.77 142.224C244.025 131.595 252.073 119.583 263.33 107.493C264.095 107.73 264.86 107.971 265.627 108.212L265.629 108.212Z" fill="white" stroke="#333333" stroke-width="2"/>
<path d="M257.061 97.4658L257.061 97.4635C257.798 90.4681 261.752 85.717 264.748 83.012C265.607 82.2621 266.92 82.8407 266.977 83.9204L266.977 83.9204L266.977 83.9267C267.078 85.6132 267.078 87.5589 266.927 89.6864C266.668 93.0717 266.064 95.9146 265.588 98.1534C265.53 98.4258 265.474 98.6894 265.421 98.9438C265.181 100.091 264.982 101.122 264.949 101.932C264.92 102.659 264.999 103.696 265.883 104.235L265.883 104.235L265.89 104.239C266.408 104.549 266.965 104.533 267.413 104.423C267.854 104.316 268.286 104.097 268.676 103.858C269.448 103.383 270.295 102.676 271.064 102.033L271.085 102.016C271.897 101.338 272.628 100.729 273.252 100.342C273.545 100.161 273.759 100.064 273.904 100.023C273.924 100.096 273.947 100.219 273.954 100.416C273.972 100.89 273.888 101.537 273.721 102.288C273.39 103.778 272.788 105.444 272.363 106.458L272.362 106.461C271.121 109.453 269.887 112.271 266.962 113.436C265.142 114.157 263.363 113.963 262.149 113.677C261.843 113.603 261.578 113.43 261.379 113.172C259.835 111.048 256.225 105.232 257.061 97.4658ZM274.016 100.002C274.016 100.002 274.014 100.002 274.012 100.001C274.015 100.001 274.016 100.002 274.016 100.002Z" fill="white" stroke="#333333" stroke-width="2"/>
<path d="M266.411 43.7789L282.169 47.7227L282.169 47.7227C295.165 50.9742 303.09 64.1809 299.846 77.2159C296.602 90.2506 283.456 98.1674 270.46 94.9408L254.7 90.9965L266.411 43.7789Z" fill="#92BF20" stroke="#333333" stroke-width="2"/>
<path d="M335.546 157.289C330.157 168.071 323.656 175.896 318.676 180.998C314.996 175.142 311.323 169.291 307.649 163.44L307.644 163.432C303.892 157.457 300.141 151.483 296.384 145.503C306.992 135.79 317.624 126.101 328.28 116.412C330.976 118.253 333.672 120.089 336.368 121.924L336.368 121.925C339.113 123.794 341.857 125.663 344.601 127.537C343.66 134.843 341.377 145.57 335.546 157.289Z" fill="#92BF20" stroke="#333333" stroke-width="2"/>
<path d="M357.656 47.7606C358.868 44.2714 361.961 42.1779 364.822 42.5139C367.194 42.7982 368.663 44.6849 368.998 45.176" stroke="black" stroke-width="4.3065" stroke-miterlimit="10" stroke-linecap="round"/>
<path d="M356.806 45.9255C359.77 45.0209 361.755 42.6948 361.781 40.2653C361.781 38.7404 361.007 37.5773 360.569 37.0087" stroke="black" stroke-width="4.3065" stroke-miterlimit="10" stroke-linecap="round"/>
<path d="M130.066 34.7343L172.934 45.5637" stroke="#333333" stroke-width="2" stroke-miterlimit="10" stroke-linecap="round"/>
<path d="M135.351 78.2588L173.759 74.3302" stroke="#333333" stroke-width="2" stroke-miterlimit="10" stroke-linecap="round"/>
<path d="M155.328 -1.08798L186.674 20.2348" stroke="#333333" stroke-width="2" stroke-miterlimit="10" stroke-linecap="round"/>
<path d="M11.873 243.875H398.76" stroke="#92BF20" stroke-width="10" stroke-miterlimit="10" stroke-linecap="round"/>
</g>
<rect x="16" y="418" width="382.884" height="46.8" rx="4" fill="#92B700"/>
<path d="M139.04 445.776C138.923 445.776 138.805 445.771 138.688 445.76C138.581 445.76 138.485 445.755 138.4 445.744V444.032C138.485 444.043 138.581 444.053 138.688 444.064C138.805 444.075 138.923 444.08 139.04 444.08C139.253 444.08 139.44 444.064 139.6 444.032C139.76 444 139.899 443.941 140.016 443.856C140.133 443.771 140.24 443.653 140.336 443.504C140.432 443.355 140.523 443.168 140.608 442.944L136 434.4H138.24L141.616 440.88L144.416 434.4H146.4L142.464 443.232C142.261 443.68 142.053 444.069 141.84 444.4C141.637 444.72 141.403 444.981 141.136 445.184C140.88 445.387 140.581 445.536 140.24 445.632C139.899 445.728 139.499 445.776 139.04 445.776Z" fill="white"/>
<path d="M149.75 445.776C148.598 445.776 147.707 445.541 147.078 445.072C146.459 444.592 146.123 443.915 146.07 443.04H147.862C147.915 443.424 148.086 443.723 148.374 443.936C148.662 444.139 149.11 444.24 149.718 444.24C150.443 444.24 150.945 444.123 151.222 443.888C151.499 443.653 151.638 443.36 151.638 443.008C151.638 442.688 151.515 442.437 151.27 442.256C151.035 442.064 150.619 441.968 150.022 441.968H148.63V440.592H149.91C150.401 440.592 150.758 440.491 150.982 440.288C151.206 440.085 151.318 439.829 151.318 439.52C151.318 439.243 151.201 439.003 150.966 438.8C150.731 438.587 150.326 438.48 149.75 438.48C149.131 438.48 148.699 438.581 148.454 438.784C148.219 438.987 148.075 439.259 148.022 439.6H146.23C146.283 438.789 146.609 438.144 147.206 437.664C147.814 437.184 148.662 436.944 149.75 436.944C150.913 436.944 151.761 437.173 152.294 437.632C152.838 438.091 153.11 438.688 153.11 439.424C153.11 439.829 153.009 440.187 152.806 440.496C152.614 440.805 152.294 441.04 151.846 441.2C152.443 441.349 152.854 441.6 153.078 441.952C153.313 442.304 153.43 442.709 153.43 443.168C153.43 443.531 153.355 443.872 153.206 444.192C153.057 444.512 152.827 444.789 152.518 445.024C152.219 445.259 151.835 445.445 151.366 445.584C150.907 445.712 150.369 445.776 149.75 445.776Z" fill="white"/>
<path d="M155.193 437.12H156.953V440.528H160.953V437.12H162.712V445.6H160.953V442.032H156.953V445.6H155.193V437.12Z" fill="white"/>
<path d="M167.438 445.776C166.979 445.776 166.569 445.712 166.206 445.584C165.854 445.445 165.555 445.259 165.31 445.024C165.065 444.779 164.878 444.496 164.75 444.176C164.622 443.856 164.558 443.504 164.558 443.12C164.558 442.277 164.809 441.653 165.31 441.248C165.811 440.832 166.547 440.624 167.518 440.624H170.158V440.16C170.158 439.52 170.014 439.083 169.726 438.848C169.449 438.603 169.006 438.48 168.398 438.48C167.854 438.48 167.454 438.565 167.198 438.736C166.942 438.907 166.793 439.141 166.75 439.44H165.038C165.059 439.077 165.15 438.747 165.31 438.448C165.481 438.139 165.71 437.872 165.998 437.648C166.297 437.424 166.654 437.253 167.07 437.136C167.486 437.008 167.955 436.944 168.478 436.944C169.001 436.944 169.47 437.003 169.886 437.12C170.313 437.237 170.675 437.424 170.974 437.68C171.273 437.925 171.502 438.245 171.662 438.64C171.833 439.035 171.918 439.509 171.918 440.064V443.44C171.918 443.888 171.923 444.283 171.934 444.624C171.945 444.955 171.971 445.28 172.014 445.6H170.414C170.382 445.355 170.355 445.147 170.334 444.976C170.323 444.805 170.318 444.592 170.318 444.336C170.115 444.731 169.763 445.072 169.262 445.36C168.771 445.637 168.163 445.776 167.438 445.776ZM167.918 444.24C168.217 444.24 168.499 444.203 168.766 444.128C169.043 444.043 169.283 443.925 169.486 443.776C169.689 443.616 169.849 443.424 169.966 443.2C170.094 442.965 170.158 442.699 170.158 442.4V441.936H167.838C167.39 441.936 167.027 442.032 166.75 442.224C166.483 442.416 166.35 442.699 166.35 443.072C166.35 443.424 166.473 443.707 166.718 443.92C166.974 444.133 167.374 444.24 167.918 444.24Z" fill="white"/>
<path d="M175.927 438.624H173.127V437.12H180.487V438.624H177.687V445.6H175.927V438.624Z" fill="white"/>
<path d="M182.087 437.12H183.847V440.096H185.767C186.855 440.096 187.66 440.331 188.183 440.8C188.706 441.259 188.967 441.941 188.967 442.848C188.967 443.701 188.711 444.373 188.199 444.864C187.687 445.355 186.876 445.6 185.767 445.6H182.087V437.12ZM185.607 444.096C186.194 444.096 186.604 443.995 186.839 443.792C187.084 443.579 187.207 443.264 187.207 442.848C187.207 442.432 187.084 442.123 186.839 441.92C186.604 441.707 186.194 441.6 185.607 441.6H183.847V444.096H185.607Z" fill="white"/>
<path d="M194.411 437.12H201.771V445.6H200.011V438.624H196.171V445.6H194.411V437.12Z" fill="white"/>
<path d="M207.685 445.776C207.098 445.776 206.549 445.685 206.037 445.504C205.536 445.312 205.098 445.035 204.725 444.672C204.352 444.309 204.058 443.861 203.845 443.328C203.632 442.784 203.525 442.155 203.525 441.44V441.12C203.525 440.448 203.632 439.856 203.845 439.344C204.058 438.821 204.352 438.384 204.725 438.032C205.098 437.669 205.536 437.397 206.037 437.216C206.549 437.035 207.098 436.944 207.685 436.944C208.272 436.944 208.816 437.035 209.317 437.216C209.829 437.397 210.272 437.669 210.645 438.032C211.018 438.384 211.312 438.821 211.525 439.344C211.738 439.856 211.845 440.448 211.845 441.12V441.44C211.845 442.155 211.738 442.784 211.525 443.328C211.312 443.861 211.018 444.309 210.645 444.672C210.272 445.035 209.829 445.312 209.317 445.504C208.816 445.685 208.272 445.776 207.685 445.776ZM207.685 444.24C207.994 444.24 208.288 444.187 208.565 444.08C208.853 443.973 209.104 443.808 209.317 443.584C209.541 443.36 209.717 443.072 209.845 442.72C209.984 442.368 210.053 441.941 210.053 441.44V441.12C210.053 440.661 209.984 440.267 209.845 439.936C209.717 439.605 209.541 439.333 209.317 439.12C209.104 438.907 208.853 438.747 208.565 438.64C208.288 438.533 207.994 438.48 207.685 438.48C207.376 438.48 207.077 438.533 206.789 438.64C206.512 438.747 206.261 438.907 206.037 439.12C205.824 439.333 205.648 439.605 205.509 439.936C205.381 440.267 205.317 440.661 205.317 441.12V441.44C205.317 441.941 205.381 442.368 205.509 442.72C205.648 443.072 205.824 443.36 206.037 443.584C206.261 443.808 206.512 443.973 206.789 444.08C207.077 444.187 207.376 444.24 207.685 444.24Z" fill="white"/>
<path d="M212.721 444.096H213.681C213.787 443.936 213.883 443.696 213.969 443.376C214.065 443.056 214.145 442.693 214.209 442.288C214.273 441.872 214.321 441.429 214.353 440.96C214.385 440.48 214.401 440 214.401 439.52V437.12H220.721V444.096H221.841V447.6H220.209V445.6H214.353V447.6H212.721V444.096ZM218.961 444.096V438.624H216.097V439.84C216.097 440.661 216.049 441.451 215.953 442.208C215.857 442.955 215.697 443.584 215.473 444.096H218.961Z" fill="white"/>
<path d="M223.364 437.12H224.996V438.544C225.252 438.053 225.631 437.664 226.132 437.376C226.644 437.088 227.22 436.944 227.86 436.944C228.97 436.944 229.844 437.291 230.484 437.984C231.124 438.677 231.444 439.723 231.444 441.12V441.44C231.444 442.165 231.359 442.8 231.188 443.344C231.018 443.888 230.772 444.341 230.452 444.704C230.143 445.056 229.77 445.323 229.332 445.504C228.895 445.685 228.404 445.776 227.86 445.776C227.252 445.776 226.698 445.643 226.196 445.376C225.695 445.109 225.338 444.736 225.124 444.256V448.8H223.364V437.12ZM227.444 444.24C228.106 444.24 228.639 444.011 229.044 443.552C229.45 443.093 229.652 442.389 229.652 441.44V441.12C229.652 440.224 229.455 439.563 229.06 439.136C228.666 438.699 228.127 438.48 227.444 438.48C227.146 438.48 226.858 438.528 226.58 438.624C226.303 438.72 226.052 438.864 225.828 439.056C225.615 439.237 225.444 439.472 225.316 439.76C225.188 440.037 225.124 440.357 225.124 440.72V441.84C225.124 442.245 225.188 442.597 225.316 442.896C225.444 443.195 225.615 443.445 225.828 443.648C226.042 443.851 226.287 444 226.564 444.096C226.842 444.192 227.135 444.24 227.444 444.24Z" fill="white"/>
<path d="M236.888 445.776C236.301 445.776 235.752 445.685 235.24 445.504C234.739 445.312 234.301 445.035 233.928 444.672C233.555 444.309 233.261 443.861 233.048 443.328C232.835 442.784 232.728 442.155 232.728 441.44V441.12C232.728 440.448 232.835 439.856 233.048 439.344C233.261 438.821 233.555 438.384 233.928 438.032C234.301 437.669 234.739 437.397 235.24 437.216C235.752 437.035 236.301 436.944 236.888 436.944C237.475 436.944 238.019 437.035 238.52 437.216C239.032 437.397 239.475 437.669 239.848 438.032C240.221 438.384 240.515 438.821 240.728 439.344C240.941 439.856 241.048 440.448 241.048 441.12V441.44C241.048 442.155 240.941 442.784 240.728 443.328C240.515 443.861 240.221 444.309 239.848 444.672C239.475 445.035 239.032 445.312 238.52 445.504C238.019 445.685 237.475 445.776 236.888 445.776ZM236.888 444.24C237.197 444.24 237.491 444.187 237.768 444.08C238.056 443.973 238.307 443.808 238.52 443.584C238.744 443.36 238.92 443.072 239.048 442.72C239.187 442.368 239.256 441.941 239.256 441.44V441.12C239.256 440.661 239.187 440.267 239.048 439.936C238.92 439.605 238.744 439.333 238.52 439.12C238.307 438.907 238.056 438.747 237.768 438.64C237.491 438.533 237.197 438.48 236.888 438.48C236.579 438.48 236.28 438.533 235.992 438.64C235.715 438.747 235.464 438.907 235.24 439.12C235.027 439.333 234.851 439.605 234.712 439.936C234.584 440.267 234.52 440.661 234.52 441.12V441.44C234.52 441.941 234.584 442.368 234.712 442.72C234.851 443.072 235.027 443.36 235.24 443.584C235.464 443.808 235.715 443.973 235.992 444.08C236.28 444.187 236.579 444.24 236.888 444.24Z" fill="white"/>
<path d="M246.482 445.776C245.906 445.776 245.367 445.669 244.866 445.456C244.365 445.243 243.933 444.933 243.57 444.528C243.207 444.112 242.919 443.605 242.706 443.008C242.503 442.4 242.402 441.707 242.402 440.928V440.608C242.402 439.648 242.471 438.795 242.61 438.048C242.749 437.301 242.983 436.667 243.314 436.144C243.655 435.611 244.103 435.2 244.658 434.912C245.223 434.613 245.922 434.443 246.754 434.4C247.426 434.368 248.034 434.341 248.578 434.32C249.122 434.288 249.57 434.181 249.922 434V435.616C249.751 435.712 249.437 435.792 248.978 435.856C248.519 435.909 247.858 435.947 246.994 435.968C246.493 435.979 246.055 436.037 245.682 436.144C245.319 436.251 245.01 436.421 244.754 436.656C244.509 436.891 244.311 437.2 244.162 437.584C244.023 437.957 243.933 438.416 243.89 438.96C244.135 438.459 244.519 438.053 245.042 437.744C245.575 437.424 246.215 437.264 246.962 437.264C247.485 437.264 247.965 437.355 248.402 437.536C248.85 437.707 249.234 437.963 249.554 438.304C249.874 438.635 250.119 439.045 250.29 439.536C250.471 440.016 250.562 440.56 250.562 441.168V441.536C250.562 442.197 250.455 442.795 250.242 443.328C250.039 443.851 249.757 444.293 249.394 444.656C249.031 445.019 248.599 445.296 248.098 445.488C247.607 445.68 247.069 445.776 246.482 445.776ZM246.482 444.24C247.175 444.24 247.73 444.011 248.146 443.552C248.562 443.093 248.77 442.421 248.77 441.536V441.168C248.77 440.421 248.557 439.84 248.13 439.424C247.714 439.008 247.165 438.8 246.482 438.8C245.799 438.8 245.245 439.008 244.818 439.424C244.402 439.829 244.194 440.411 244.194 441.168V441.536C244.194 441.963 244.253 442.347 244.37 442.688C244.487 443.019 244.647 443.301 244.85 443.536C245.063 443.76 245.309 443.936 245.586 444.064C245.863 444.181 246.162 444.24 246.482 444.24Z" fill="white"/>
<path d="M252.318 437.12H254.077V440.528H258.077V437.12H259.838V445.6H258.077V442.032H254.077V445.6H252.318V437.12Z" fill="white"/>
<path d="M265.763 445.776C265.198 445.776 264.664 445.691 264.163 445.52C263.662 445.339 263.219 445.072 262.835 444.72C262.462 444.357 262.163 443.904 261.939 443.36C261.715 442.816 261.603 442.176 261.603 441.44V441.12C261.603 440.416 261.71 439.803 261.923 439.28C262.136 438.757 262.424 438.325 262.787 437.984C263.16 437.632 263.587 437.371 264.067 437.2C264.547 437.029 265.059 436.944 265.603 436.944C266.894 436.944 267.88 437.291 268.563 437.984C269.256 438.677 269.603 439.669 269.603 440.96V441.856H263.395C263.406 442.293 263.475 442.667 263.603 442.976C263.742 443.275 263.918 443.52 264.131 443.712C264.355 443.893 264.606 444.027 264.883 444.112C265.171 444.197 265.464 444.24 265.763 444.24C266.371 444.24 266.814 444.144 267.091 443.952C267.379 443.76 267.576 443.509 267.683 443.2H269.443C269.272 444.043 268.851 444.683 268.179 445.12C267.518 445.557 266.712 445.776 265.763 445.776ZM265.683 438.48C265.384 438.48 265.096 438.517 264.819 438.592C264.552 438.667 264.312 438.789 264.099 438.96C263.896 439.12 263.731 439.333 263.603 439.6C263.475 439.856 263.406 440.171 263.395 440.544H267.843C267.832 440.149 267.768 439.819 267.651 439.552C267.544 439.285 267.395 439.072 267.203 438.912C267.011 438.752 266.782 438.64 266.515 438.576C266.259 438.512 265.982 438.48 265.683 438.48Z" fill="white"/>
<path d="M275.044 445.776C274.479 445.776 273.946 445.691 273.444 445.52C272.943 445.339 272.5 445.072 272.116 444.72C271.743 444.357 271.444 443.904 271.22 443.36C270.996 442.816 270.884 442.176 270.884 441.44V441.12C270.884 440.416 270.991 439.803 271.204 439.28C271.418 438.757 271.706 438.325 272.068 437.984C272.442 437.632 272.868 437.371 273.348 437.2C273.828 437.029 274.34 436.944 274.884 436.944C276.175 436.944 277.162 437.291 277.844 437.984C278.538 438.677 278.884 439.669 278.884 440.96V441.856H272.676C272.687 442.293 272.756 442.667 272.884 442.976C273.023 443.275 273.199 443.52 273.412 443.712C273.636 443.893 273.887 444.027 274.164 444.112C274.452 444.197 274.746 444.24 275.044 444.24C275.652 444.24 276.095 444.144 276.372 443.952C276.66 443.76 276.858 443.509 276.964 443.2H278.724C278.554 444.043 278.132 444.683 277.46 445.12C276.799 445.557 275.994 445.776 275.044 445.776ZM274.964 438.48C274.666 438.48 274.378 438.517 274.1 438.592C273.834 438.667 273.594 438.789 273.38 438.96C273.178 439.12 273.012 439.333 272.884 439.6C272.756 439.856 272.687 440.171 272.676 440.544H277.124C277.114 440.149 277.05 439.819 276.932 439.552C276.826 439.285 276.676 439.072 276.484 438.912C276.292 438.752 276.063 438.64 275.796 438.576C275.54 438.512 275.263 438.48 274.964 438.48Z" fill="white"/>
<path d="M25.2203 288.89V266.046H36.2676V288.89H44.1282V259H17.3597V288.89H25.2203Z" fill="#333333"/>
<path d="M55.2536 271.17V268.394H48.8801V298.284H56.1034V287.225C57.3356 288.506 59.3326 289.531 62.1794 289.531C69.0203 289.531 72.037 283.937 72.037 278.642C72.037 273.347 69.0203 267.754 62.1794 267.754C58.5253 267.754 56.2733 269.462 55.2536 271.17ZM64.6013 278.642C64.6013 281.033 63.2842 283.553 60.2249 283.553C58.2279 283.553 56.7407 282.314 56.1034 280.991V276.294C56.7407 274.97 58.2279 273.732 60.2249 273.732C63.2842 273.732 64.6013 276.251 64.6013 278.642Z" fill="#333333"/>
<path d="M81.7257 288.89L88.9915 279.197V288.89H96.2147V268.394H89.8837L82.618 278.087V268.394H75.3947V288.89H81.7257Z" fill="#333333"/>
<path d="M107.763 288.89V274.372H116.431V268.394H100.54V288.89H107.763Z" fill="#333333"/>
<path d="M126.996 273.945H130.608V288.89H137.831V268.394H120.41C120.028 276.593 119.603 283.168 116.544 283.168C116.204 283.168 115.821 283.083 115.397 282.912V288.677C116.756 289.146 117.988 289.36 119.051 289.36C124.829 289.36 126.486 282.485 126.996 273.945Z" fill="#333333"/>
<path d="M161.449 283.04V277.318C161.449 270.017 157.285 267.754 150.784 267.754C147.767 267.754 144.538 268.565 142.838 269.12V275.226C144.835 274.415 147.3 273.646 149.977 273.646C152.866 273.646 154.226 274.756 154.226 276.208V276.934C152.866 276.635 151.336 276.464 149.807 276.464C145.855 276.464 140.969 278.044 140.969 283.211C140.969 287.182 144.155 289.531 148.065 289.531C150.954 289.531 153.206 288.591 155.16 287.054C156.095 288.506 157.752 289.317 160.004 289.317C161.364 289.317 162.681 289.061 163.658 288.677V284.193C163.403 284.279 163.106 284.321 162.851 284.321C162.129 284.321 161.449 284.022 161.449 283.04ZM148.404 282.613C148.404 280.991 149.934 280.393 151.634 280.393C152.611 280.393 153.588 280.564 154.226 280.777V283.553C153.121 284.364 152.059 284.62 150.869 284.62C149.339 284.62 148.404 283.681 148.404 282.613Z" fill="#333333"/>
<path d="M165.62 279.069C165.62 286.328 171.186 289.531 176.88 289.531C179.472 289.531 181.851 289.018 183.891 288.164V281.973C182.489 282.784 180.492 283.339 178.367 283.339C175.605 283.339 173.056 281.887 173.056 278.642C173.056 275.141 175.648 273.902 178.495 273.902C180.322 273.902 182.276 274.5 183.678 275.312V269.12C181.809 268.223 179.599 267.711 177.39 267.711C171.569 267.711 165.62 270.999 165.62 279.069Z" fill="#333333"/>
<path d="M193.884 288.89L201.15 279.197V288.89H208.373V268.394H202.042L194.776 278.087V268.394H187.553V288.89H193.884Z" fill="#333333"/>
<path d="M226.72 294.228V288.89H239.892V294.228H246.478V283.553H243.376V268.394H225.743C225.913 274.287 225.445 279.411 223.066 283.553H220.134V294.228H226.72ZM232.329 273.732H236.153V283.553H230.459C231.776 280.606 232.201 277.788 232.329 273.732Z" fill="#333333"/>
<path d="M256.001 271.17V268.394H249.628V298.284H256.851V287.225C258.083 288.506 260.08 289.531 262.927 289.531C269.768 289.531 272.785 283.937 272.785 278.642C272.785 273.347 269.768 267.754 262.927 267.754C259.273 267.754 257.021 269.462 256.001 271.17ZM265.349 278.642C265.349 281.033 264.032 283.553 260.972 283.553C258.975 283.553 257.488 282.314 256.851 280.991V276.294C257.488 274.97 258.975 273.732 260.972 273.732C264.032 273.732 265.349 276.251 265.349 278.642Z" fill="#333333"/>
<path d="M285.599 280.606L280.628 268.394H272.979L282.582 289.403C281.605 291.623 280.118 292.648 278.333 292.648C277.398 292.648 276.464 292.52 275.571 292.306V298.284C276.761 298.583 278.036 298.839 279.31 298.839C282.795 298.839 286.321 297.174 288.658 291.025L297.199 268.394H289.763L285.599 280.606Z" fill="#333333"/>
<path d="M306.893 288.89V274.372H315.561V268.394H299.669V288.89H306.893Z" fill="#333333"/>
<path d="M337.217 283.04V277.318C337.217 270.017 333.053 267.754 326.552 267.754C323.535 267.754 320.306 268.565 318.607 269.12V275.226C320.604 274.415 323.068 273.646 325.745 273.646C328.634 273.646 329.994 274.756 329.994 276.208V276.934C328.634 276.635 327.104 276.464 325.575 276.464C321.623 276.464 316.737 278.044 316.737 283.211C316.737 287.182 319.924 289.531 323.833 289.531C326.722 289.531 328.974 288.591 330.929 287.054C331.863 288.506 333.52 289.317 335.772 289.317C337.132 289.317 338.449 289.061 339.427 288.677V284.193C339.172 284.279 338.874 284.321 338.619 284.321C337.897 284.321 337.217 284.022 337.217 283.04ZM324.173 282.613C324.173 280.991 325.702 280.393 327.402 280.393C328.379 280.393 329.356 280.564 329.994 280.777V283.553C328.889 284.364 327.827 284.62 326.637 284.62C325.107 284.62 324.173 283.681 324.173 282.613Z" fill="#333333"/>
<path d="M29.7242 336.471C35.2479 336.471 36.735 333.652 36.735 331.005C36.735 328.571 35.5028 326.948 32.9959 326.137C35.2054 325.283 36.3101 323.789 36.3101 321.312C36.3101 319.006 34.9079 315.974 29.3843 315.974H16.7223V336.471H29.7242ZM23.9881 328.187H27.2598C28.5345 328.187 29.5117 328.699 29.5117 330.065C29.5117 331.346 28.492 331.859 27.3023 331.859H23.9881V328.187ZM23.9456 320.586H26.8349C28.1096 320.586 29.0869 321.098 29.0869 322.465C29.0869 323.746 28.0671 324.258 26.8774 324.258H23.9456V320.586Z" fill="#333333"/>
<path d="M68.211 306.58V324.643C68.211 328.656 66.044 330.065 62.6873 330.065C59.3306 330.065 57.1636 328.656 57.1636 324.643V306.58H49.303V325.07C49.303 334.079 56.1014 337.111 62.6873 337.111C69.2732 337.111 76.0716 334.079 76.0716 325.07V306.58H68.211Z" fill="#333333"/>
<path d="M79.5272 321.867C79.5272 329.254 90.2346 327.93 90.2346 330.621C90.2346 331.346 89.3423 331.645 87.5578 331.645C85.1358 331.645 81.9916 330.962 79.7396 329.468V335.232C81.9066 336.471 84.7534 337.111 87.9402 337.111C93.0814 337.111 97.6703 335.617 97.6703 330.492C97.6703 322.892 86.9629 324.557 86.9629 321.696C86.9629 320.842 88.0251 320.671 88.9174 320.671C91.2969 320.671 94.3136 321.611 96.0982 322.849V317.085C93.9312 316.06 91.3818 315.334 88.4076 315.334C83.8612 315.334 79.5272 316.871 79.5272 321.867Z" fill="#333333"/>
<path d="M99.8937 326.222C99.8937 333.268 105.29 337.111 112.003 337.111C115.233 337.111 117.654 336.641 119.566 335.958V330.578C117.867 331.218 115.997 331.56 113.703 331.56C110.771 331.56 108.009 330.663 107.202 328.4H120.544C121.988 322.166 119.354 315.334 110.601 315.334C106.14 315.334 99.8937 318.195 99.8937 326.222ZM113.958 324.045H107.117C107.117 321.91 108.774 320.586 110.771 320.586C113.66 320.586 114.17 323.063 113.958 324.045Z" fill="#333333"/>
<path d="M125.806 310.21V315.974H122.577V321.952H125.806V330.065C125.806 335.488 129.503 337.111 133.454 337.111C135.536 337.111 137.363 336.812 138.978 336.257V330.621C137.873 331.005 136.896 331.133 135.706 331.133C133.879 331.133 133.029 330.236 133.029 328.614V321.952H138.553V315.974H133.029V308.502L125.806 310.21Z" fill="#333333"/>
<path d="M141.097 326.222C141.097 333.268 146.493 337.111 153.207 337.111C156.436 337.111 158.858 336.641 160.77 335.958V330.578C159.07 331.218 157.201 331.56 154.906 331.56C151.975 331.56 149.213 330.663 148.405 328.4H161.747C163.192 322.166 160.558 315.334 151.805 315.334C147.343 315.334 141.097 318.195 141.097 326.222ZM155.161 324.045H148.32C148.32 321.91 149.978 320.586 151.975 320.586C154.864 320.586 155.374 323.063 155.161 324.045Z" fill="#333333"/>
<path d="M164.375 326.649C164.375 333.909 169.941 337.111 175.635 337.111C178.227 337.111 180.606 336.599 182.646 335.745V329.553C181.244 330.364 179.247 330.919 177.122 330.919C174.36 330.919 171.811 329.468 171.811 326.222C171.811 322.721 174.403 321.483 177.25 321.483C179.077 321.483 181.031 322.081 182.433 322.892V316.7C180.564 315.804 178.354 315.291 176.145 315.291C170.324 315.291 164.375 318.579 164.375 326.649Z" fill="#333333"/>
<path d="M186.225 306.58V336.471H193.448V323.319C194.086 322.508 195.318 321.525 196.932 321.525C198.717 321.525 200.034 322.55 200.034 324.728V336.471H207.257V323.746C207.257 319.134 204.708 315.334 199.099 315.334C196.805 315.334 194.978 316.145 193.448 317.512V306.58H186.225Z" fill="#333333"/>
<path d="M226.539 336.471L233.805 326.778V336.471H241.028V315.974H234.698L227.432 325.667V315.974H220.209V336.471H226.539Z" fill="#333333"/>
<path d="M261.415 336.471V321.952H267.789V336.471H275.012V315.974H254.192V336.471H261.415Z" fill="#333333"/>
<path d="M278.318 326.222C278.318 333.481 283.671 337.111 289.79 337.111C295.908 337.111 301.262 333.481 301.262 326.222C301.262 318.963 295.908 315.334 289.79 315.334C283.671 315.334 278.318 318.963 278.318 326.222ZM293.826 326.222C293.826 328.528 292.764 330.706 289.79 330.706C286.816 330.706 285.753 328.528 285.753 326.222C285.753 323.917 286.816 321.739 289.79 321.739C292.764 321.739 293.826 323.917 293.826 326.222Z" fill="#333333"/>
<path d="M314.134 321.525H317.745V336.471H324.969V315.974H307.548C307.165 324.173 306.741 330.749 303.681 330.749C303.341 330.749 302.959 330.663 302.534 330.492V336.257C303.894 336.727 305.126 336.94 306.188 336.94C311.967 336.94 313.624 330.065 314.134 321.525Z" fill="#333333"/>
<path d="M339.748 328.187L334.777 315.974H327.129L336.732 336.983C335.754 339.203 334.267 340.228 332.483 340.228C331.548 340.228 330.613 340.1 329.721 339.887V345.865C330.911 346.163 332.185 346.42 333.46 346.42C336.944 346.42 340.471 344.754 342.808 338.606L351.348 315.974H343.913L339.748 328.187Z" fill="#333333"/>
<path d="M372.854 336.471V315.974H365.631V324.728C364.781 325.07 363.804 325.24 362.827 325.24C361.297 325.24 360.107 324.557 360.107 322.678V315.974H352.884V323.362C352.884 328.827 356.666 331.218 360.872 331.218C362.614 331.218 364.186 330.962 365.631 330.45V336.471H372.854Z" fill="#333333"/>
<path d="M383.511 336.471L390.777 326.778V336.471H398V315.974H391.669L384.403 325.667V315.974H377.18V336.471H383.511Z" fill="#333333"/>
<path d="M38.0947 374.87C38.0947 368.465 34.4406 365.049 29.5967 365.049C26.5375 365.049 24.6254 366.416 23.4357 367.91C23.4357 366.245 24.498 363.854 26.58 362.829C30.1066 361.078 33.6757 362.316 36.3101 359.925V353.52C33.5483 356.21 28.1096 354.588 22.246 358.26C18.5919 360.566 16 364.537 16 372.095C16 381.489 21.1413 384.691 27.0473 384.691C33.1659 384.691 38.0947 381.489 38.0947 374.87ZM23.4357 374.87C23.4357 373.418 23.8606 370.6 27.0473 370.6C30.2341 370.6 30.659 373.418 30.659 374.87C30.659 376.322 30.2341 379.14 27.0473 379.14C23.8606 379.14 23.4357 376.322 23.4357 374.87Z" fill="#333333"/>
<path d="M40.4744 373.803C40.4744 381.062 45.8282 384.691 51.9467 384.691C58.0652 384.691 63.4189 381.062 63.4189 373.803C63.4189 366.544 58.0652 362.914 51.9467 362.914C45.8282 362.914 40.4744 366.544 40.4744 373.803ZM55.9832 373.803C55.9832 376.109 54.921 378.286 51.9467 378.286C48.9724 378.286 47.9102 376.109 47.9102 373.803C47.9102 371.497 48.9724 369.319 51.9467 369.319C54.921 369.319 55.9832 371.497 55.9832 373.803Z" fill="#333333"/>
<path d="M73.9458 384.051V376.792H80.3192V384.051H87.5425V363.555H80.3192V370.814H73.9458V363.555H66.7225V384.051H73.9458Z" fill="#333333"/>
<path d="M102.32 375.767L97.349 363.555H89.7008L99.3035 384.563C98.3263 386.784 96.8391 387.808 95.0546 387.808C94.1198 387.808 93.185 387.68 92.2927 387.467V393.445C93.4824 393.744 94.7571 394 96.0318 394C99.516 394 103.043 392.335 105.38 386.186L113.92 363.555H106.484L102.32 375.767Z" fill="#333333"/>
<path d="M114.375 374.23C114.375 381.489 119.941 384.691 125.635 384.691C128.227 384.691 130.606 384.179 132.646 383.325V377.133C131.244 377.945 129.247 378.5 127.122 378.5C124.36 378.5 121.811 377.048 121.811 373.803C121.811 370.301 124.403 369.063 127.25 369.063C129.077 369.063 131.031 369.661 132.433 370.472V364.281C130.564 363.384 128.354 362.871 126.145 362.871C120.324 362.871 114.375 366.159 114.375 374.23Z" fill="#333333"/>
</g>
<defs>
<clipPath id="clip0">
<rect width="414" height="491" rx="10" fill="white"/>
</clipPath>
<clipPath id="clip1">
<rect width="393" height="288" fill="white" transform="translate(11 -45)"/>
</clipPath>
</defs>
</svg>
