<svg width="70" height="64" viewBox="0 0 70 64" fill="none" xmlns="http://www.w3.org/2000/svg">
<g filter="url(#filter0_d)">
<mask id="mask0" mask-type="alpha" maskUnits="userSpaceOnUse" x="10" y="0" width="50" height="50">
<circle cx="35" cy="25" r="25" fill="white"/>
</mask>
<g mask="url(#mask0)">
<circle cx="35" cy="25" r="25" fill="#111111"/>
</g>
<g clip-path="url(#clip0)">
<path d="M15.573 25.5042H14.4399V28.0312H13.0176V21.1282H15.5825C16.398 21.1282 17.027 21.3099 17.4695 21.6734C17.912 22.0369 18.1332 22.5505 18.1332 23.2143C18.1332 23.6852 18.0305 24.0787 17.8251 24.3948C17.6228 24.7077 17.3146 24.9574 16.9006 25.1439L18.394 27.9649V28.0312H16.8674L15.573 25.5042ZM14.4399 24.3521H15.5873C15.9444 24.3521 16.221 24.2621 16.417 24.0819C16.6129 23.8986 16.7109 23.6473 16.7109 23.328C16.7109 23.0025 16.6177 22.7465 16.4312 22.56C16.2479 22.3735 15.965 22.2803 15.5825 22.2803H14.4399V24.3521ZM24.8324 28.0312H23.4101L20.6413 23.4892V28.0312H19.219V21.1282H20.6413L23.4149 25.6797V21.1282H24.8324V28.0312ZM26.0746 28.0312V21.1282H28.1987C28.8055 21.1282 29.3476 21.2657 29.8249 21.5406C30.3053 21.8125 30.6798 22.2012 30.9485 22.707C31.2172 23.2095 31.3515 23.7816 31.3515 24.4232V24.7409C31.3515 25.3825 31.2188 25.953 30.9532 26.4525C30.6909 26.9518 30.3195 27.339 29.8391 27.614C29.3587 27.889 28.8166 28.0281 28.2129 28.0312H26.0746ZM27.497 22.2803V26.8886H28.1844C28.7407 26.8886 29.1658 26.7069 29.4598 26.3434C29.7537 25.9799 29.9039 25.46 29.9102 24.7836V24.4185C29.9102 23.7168 29.7648 23.1858 29.474 22.8255C29.1832 22.462 28.7581 22.2803 28.1987 22.2803H27.497ZM39.7196 22.2803H37.605V28.0312H36.1827V22.2803H34.0966V21.1282H39.7196V22.2803ZM44.6883 25.0396H41.9574V26.8886H45.1624V28.0312H40.5351V21.1282H45.1529V22.2803H41.9574V23.9254H44.6883V25.0396ZM51.4161 25.7318C51.3622 26.4746 51.0873 27.0593 50.5911 27.486C50.0979 27.9127 49.4466 28.1261 48.6377 28.1261C47.7528 28.1261 47.0557 27.8289 46.5468 27.2347C46.0411 26.6373 45.7882 25.8187 45.7882 24.7788V24.3569C45.7882 23.6931 45.9052 23.1084 46.1391 22.6027C46.373 22.0969 46.7065 21.7097 47.1394 21.4411C47.5757 21.1693 48.0812 21.0333 48.6565 21.0333C49.453 21.0333 50.0949 21.2467 50.5814 21.6734C51.0682 22.1001 51.3494 22.6991 51.4254 23.4703H50.0031C49.9683 23.0246 49.8434 22.7022 49.6284 22.5031C49.4168 22.3008 49.0927 22.1997 48.6565 22.1997C48.1824 22.1997 47.8268 22.3703 47.5897 22.7117C47.356 23.0499 47.2358 23.5762 47.2295 24.2905V24.812C47.2295 25.558 47.3416 26.1032 47.5663 26.4477C47.7936 26.7922 48.1509 26.9645 48.6377 26.9645C49.077 26.9645 49.4041 26.8649 49.6191 26.6658C49.837 26.4635 49.9619 26.1522 49.9937 25.7318H51.4161ZM57.9682 28.0312H56.5459V25.0728H53.7722V28.0312H52.3499V21.1282H53.7722V23.9254H56.5459V21.1282H57.9682V28.0312Z" fill="white"/>
</g>
</g>
<defs>
<filter id="filter0_d" x="0" y="-6" width="70" height="70" filterUnits="userSpaceOnUse" color-interpolation-filters="sRGB">
<feFlood flood-opacity="0" result="BackgroundImageFix"/>
<feColorMatrix in="SourceAlpha" type="matrix" values="0 0 0 0 0 0 0 0 0 0 0 0 0 0 0 0 0 0 127 0"/>
<feOffset dy="4"/>
<feGaussianBlur stdDeviation="5"/>
<feColorMatrix type="matrix" values="0 0 0 0 0 0 0 0 0 0 0 0 0 0 0 0 0 0 0.15 0"/>
<feBlend mode="normal" in2="BackgroundImageFix" result="effect1_dropShadow"/>
<feBlend mode="normal" in="SourceGraphic" in2="effect1_dropShadow" result="shape"/>
</filter>
<clipPath id="clip0">
<rect width="45" height="7.1317" fill="white" transform="translate(13 21)"/>
</clipPath>
</defs>
</svg>
