<svg width="249" height="249" viewBox="0 0 249 249" fill="none" xmlns="http://www.w3.org/2000/svg">
<path d="M231.27 60.7215C266.702 119.776 247.333 195.837 188.279 231.27C129.224 266.703 53.1625 247.333 17.73 188.279C-17.7025 129.224 1.66729 53.1626 60.7215 17.73C119.776 -17.7025 196.31 1.6673 231.27 60.7215Z" fill="#92B700"/>
<path d="M124.727 228.951C182.39 228.951 229.135 182.206 229.135 124.543C229.135 66.8792 182.39 20.1338 124.727 20.1338C67.0632 20.1338 20.3179 66.8792 20.3179 124.543C20.3179 182.206 67.0632 228.951 124.727 228.951Z" fill="#C7EF26"/>
<path d="M124.63 222.355C178.639 222.355 222.422 178.572 222.422 124.564C222.422 70.5548 178.639 26.772 124.63 26.772C70.6217 26.772 26.8389 70.5548 26.8389 124.564C26.8389 178.572 70.6217 222.355 124.63 222.355Z" fill="#92B700"/>
<path d="M207.797 39.2804C207.465 37.9862 206.485 36.8584 205.912 35.9709C204.525 34.6027 202.732 32.994 201.105 32.0325C197.685 29.4623 193.859 26.6518 189.792 24.2479C186.131 22.0845 182.471 19.921 178.33 18.5709C174.429 16.8142 169.308 14.3362 165.111 16.7947C164.224 17.3677 163.503 18.5878 164.076 19.4753C165.887 23.8386 170.269 24.7819 173.763 26.2983C177.663 28.0551 180.917 29.9782 184.577 32.1416C187.831 34.0647 190.844 36.3945 193.857 38.7243C195.244 40.0925 197.037 41.7011 198.664 42.6627C199.644 43.7905 200.864 44.5117 201.917 44.5858C203.378 44.9002 204.672 44.5676 205.966 44.2349C206.613 44.0686 206.854 43.6619 207.094 43.2552C207.409 41.7947 207.889 40.9813 207.797 39.2804Z" fill="white"/>
<path d="M210.733 54.7292C210.329 54.4902 210.568 54.0859 210.568 54.0859C210.568 54.0859 210.972 54.3249 210.733 54.7292Z" fill="white"/>
<path d="M223.25 60.4866C223.324 59.4328 223.158 58.7857 223.232 57.7319C223.398 58.379 223.398 58.379 223.565 59.0261C223.398 58.379 223.639 57.9723 223.472 57.3252C223.306 56.6781 222.899 56.4378 222.733 55.7907C222.567 55.1436 222.16 54.9032 221.753 54.6628C221.18 53.7753 220.607 52.8879 220.034 52.0004C219.461 51.1129 218.481 49.9851 217.908 49.0976C216.929 47.9697 216.115 47.4889 214.414 47.5812C212.713 47.6735 211.826 48.2465 211.105 49.4666C210.624 50.28 210.143 51.0934 210.31 51.7405C210.476 52.3876 210.642 53.0347 210.809 53.6818C211.548 55.2163 212.287 56.7509 213.267 57.8788C213.433 58.5259 213.84 58.7662 214.413 59.6537C214.82 59.8941 214.579 60.3008 214.986 60.5412C215.152 61.1883 215.966 61.669 216.372 61.9094C216.779 62.1498 216.779 62.1498 217.186 62.3902L216.372 61.9094C216.946 62.7969 217.999 62.871 218.813 63.3517C219.219 63.5921 219.219 63.5921 219.867 63.4258C220.273 63.6662 220.68 63.9066 220.92 63.4999C221.327 63.7403 221.974 63.5739 222.455 62.7605L222.695 62.3538C222.936 61.9471 222.936 61.9471 222.936 61.9471L223.176 61.5404C222.769 61.3 223.01 60.8933 223.25 60.4866Z" fill="white"/>
<path d="M88.2138 77.2618L88.3034 103.108C88.4684 115.827 78.8544 120.023 69.5365 120.003C60.2187 119.984 50.5501 115.916 50.3851 103.196L50.2955 77.3502L61.3142 77.2774L61.2374 102.476C61.2738 107.986 64.2871 110.315 68.983 109.798C73.8453 109.928 76.7481 107.802 76.7117 102.293L76.7884 77.0942L88.2138 77.2618Z" fill="white"/>
<path d="M125.966 76.5239C131.475 76.4876 136.264 77.6713 139.924 79.8348L139.83 90.2064C136.41 87.6362 131.215 86.2121 126.76 86.3225C122.711 86.6734 121.176 87.4127 121.269 89.1136C121.305 94.623 143.25 92.7766 143.267 107.604C143.414 117.569 135.575 120.618 126.257 120.599C120.101 120.802 114.499 119.137 110.025 116.493L110.359 105.714C115.406 109.246 120.841 110.264 125.704 110.394C130.159 110.283 132.1 109.784 131.842 107.436C131.639 101.28 110.101 103.366 110.084 88.5393C110.029 80.2752 117.295 76.3381 125.966 76.5239Z" fill="white"/>
<path d="M194.758 77.1245L194.498 86.849L175.216 86.9763L175.178 93.5395L192.76 93.5044L192.74 102.822L175.158 102.857L175.121 109.42L194.81 109.533L194.55 119.258L163.842 119.218L164.457 77.3245L194.758 77.1245Z" fill="white"/>
<path d="M71.5685 133.274C76.024 133.163 80.4055 134.107 83.6591 136.03L83.5656 146.401C80.9591 144.312 77.2246 143.202 73.4162 143.147C66.853 143.109 60.234 146.88 60.2145 156.197C60.269 164.461 66.61 167.661 73.1731 167.698C77.6287 167.588 81.5113 166.59 84.0074 164.224L84.0801 175.242C80.3639 176.887 76.4813 177.885 72.0258 177.996C60.6004 177.828 48.9722 171.504 48.9554 156.677C48.8462 140.149 60.3093 133.753 71.5685 133.274Z" fill="white"/>
<path d="M110.541 133.262C125.368 133.245 133.132 143.322 133.131 155.394C133.37 167.06 125.659 177.32 110.832 177.337C96.0048 177.354 88.241 167.277 88.2423 155.204C88.0033 143.539 95.4734 133.685 110.541 133.262ZM110.447 143.633C103.237 143.762 99.2987 148.568 99.261 155.132C99.2234 161.695 103.309 166.853 110.519 166.725C117.729 166.596 121.667 161.79 121.705 155.227C121.743 148.663 117.658 143.505 110.447 143.633Z" fill="white"/>
<path d="M149.846 134.542L149.638 176.675L138.619 176.748L138.827 134.614L149.846 134.542Z" fill="white"/>
<path d="M157.901 176.622L158.109 134.488L168.481 134.582L185.006 158.618C184.914 156.917 184.896 154.162 184.637 151.814L184.362 134.639L195.381 134.566L195.173 176.7L184.801 176.606L168.276 152.571C168.368 154.271 168.386 157.026 168.645 159.374L168.92 176.549L157.901 176.622Z" fill="white"/>
</svg>
