<svg width="332" height="80" viewBox="0 0 332 80" fill="none" xmlns="http://www.w3.org/2000/svg">
<path fill-rule="evenodd" clip-rule="evenodd" d="M0 0V80H148.14L156.893 40.9919L148.14 0H0Z" fill="#A4C815"/>
<path fill-rule="evenodd" clip-rule="evenodd" d="M0 40.6277V79.9999H148.14L156.893 40.6152L0 40.6277Z" fill="#92B700"/>
<path fill-rule="evenodd" clip-rule="evenodd" d="M54.0825 43.6457C54.0825 59.5877 46.5026 67.5587 31.3437 67.5587C16.6387 67.5587 9.28577 59.7732 9.28577 44.2005V13.5508H21.5239V44.349C21.5239 52.9363 24.9479 57.2308 31.7976 57.2308C38.5208 57.2308 41.882 53.0849 41.882 44.793V13.5508H54.0825V43.6457Z" fill="white"/>
<path fill-rule="evenodd" clip-rule="evenodd" d="M59.4983 64.5966V52.7469C61.6897 54.5482 64.0704 55.8994 66.6404 56.8014C69.2095 57.7025 71.8046 58.1526 74.4239 58.1526C75.9614 58.1526 77.3025 58.0172 78.448 57.7456C79.5944 57.4739 80.5515 57.0977 81.3203 56.6159C82.089 56.135 82.6613 55.5671 83.0399 54.9122C83.4175 54.2581 83.6059 53.5487 83.6059 52.783C83.6059 51.7465 83.3045 50.8208 82.699 50.0058C82.0944 49.1917 81.2701 48.4383 80.2241 47.7465C79.1791 47.0555 77.9385 46.3891 76.5023 45.7473C75.0662 45.1047 73.517 44.4506 71.8548 43.7843C67.6227 42.0559 64.4678 39.9451 62.3894 37.452C60.311 34.9579 59.2722 31.946 59.2722 28.4164C59.2722 25.6506 59.8382 23.2744 60.9721 21.2867C62.1059 19.2999 63.6488 17.6638 65.6008 16.3803C67.5527 15.0968 69.8141 14.1526 72.3841 13.5478C74.9532 12.9429 77.6739 12.6396 80.5452 12.6396C83.3673 12.6396 85.8673 12.8067 88.0462 13.1407C90.2251 13.4739 92.2344 13.9865 94.0733 14.6775V25.75C93.1664 25.132 92.1779 24.5895 91.1069 24.1201C90.0358 23.6515 88.9343 23.2621 87.8004 22.9535C86.6675 22.6449 85.5399 22.4172 84.4186 22.2687C83.2973 22.121 82.2335 22.0471 81.2261 22.0471C79.8402 22.0471 78.5808 22.1764 77.4469 22.4357C76.314 22.695 75.3559 23.059 74.5755 23.5276C73.7942 23.9961 73.1896 24.5588 72.7617 25.2128C72.3338 25.8669 72.1195 26.601 72.1195 27.4159C72.1195 28.3056 72.3581 29.1012 72.8371 29.8045C73.3161 30.5087 73.996 31.1742 74.8778 31.8045C75.7587 32.4339 76.8298 33.0511 78.0892 33.6568C79.3486 34.2607 80.7722 34.884 82.359 35.5267C84.5254 36.4146 86.4719 37.3597 88.1978 38.3592C89.9228 39.3588 91.4029 40.4884 92.6372 41.7482C93.8715 43.0062 94.8161 44.4445 95.4718 46.0621C96.1266 47.6788 96.454 49.561 96.454 51.7095C96.454 54.6722 95.8808 57.1592 94.7344 59.1715C93.588 61.1829 92.0326 62.8128 90.0681 64.0594C88.1027 65.3069 85.8171 66.201 83.2094 66.7443C80.6018 67.2876 77.8497 67.5592 74.9532 67.5592C71.9804 67.5592 69.153 67.3122 66.47 66.8181C63.787 66.3249 61.4637 65.5838 59.4983 64.5966Z" fill="white"/>
<path fill-rule="evenodd" clip-rule="evenodd" d="M133.982 66.6251H101.504V13.5508H132.736V23.2844H113.702V35.091H131.413V44.7877H113.702V56.9284H133.982V66.6251Z" fill="white"/>
<path fill-rule="evenodd" clip-rule="evenodd" d="M199.998 23.2479H184.547V66.6017H172.307V23.2479H156.932V13.5107H199.998V23.2479Z" fill="white"/>
<path fill-rule="evenodd" clip-rule="evenodd" d="M235.898 66.5955H203.413V13.5098H234.651V23.246H215.614V35.0553H233.33V44.7537H215.614V56.897H235.898V66.5955Z" fill="white"/>
<path fill-rule="evenodd" clip-rule="evenodd" d="M279.549 64.7425C275.596 66.6185 270.434 67.5557 264.062 67.5557C255.752 67.5557 249.218 65.1627 244.458 60.3741C239.699 55.5864 237.319 49.2067 237.319 41.2357C237.319 32.746 239.994 25.8599 245.346 20.5799C250.697 15.2981 257.64 12.6572 266.177 12.6572C271.465 12.6572 275.923 13.3113 279.549 14.6185V26.1324C275.923 24.0093 271.794 22.9482 267.159 22.9482C262.073 22.9482 257.968 24.5157 254.846 27.6497C251.723 30.7838 250.162 35.0291 250.162 40.3847C250.162 45.5179 251.635 49.6084 254.581 52.6563C257.527 55.7042 261.494 57.2278 266.48 57.2278C271.238 57.2278 275.596 56.0928 279.549 53.822V64.7425Z" fill="white"/>
<path fill-rule="evenodd" clip-rule="evenodd" d="M332 66.5955H319.761V44.9761H297.324V66.5955H285.123V13.5098H297.324V34.6851H319.761V13.5098H332V66.5955Z" fill="white"/>
</svg>
