<svg width="438" height="378" viewBox="0 0 438 378" fill="none" xmlns="http://www.w3.org/2000/svg">
<path d="M282.475 191.111C282.475 193.082 280.897 194.791 278.793 194.791C276.821 194.791 275.111 193.214 275.111 191.111C275.111 189.008 276.689 187.431 278.793 187.431C280.897 187.431 282.475 189.14 282.475 191.111Z" fill="#92BF20" fill-opacity="0.26"/>
<path d="M399.902 113.306C399.902 115.541 398.061 117.249 395.957 117.249C393.721 117.249 392.012 115.409 392.012 113.306C392.012 111.204 393.853 109.364 395.957 109.364C398.192 109.364 399.902 111.072 399.902 113.306Z" fill="#92BF20" fill-opacity="0.26"/>
<path d="M78.3927 249.465C78.3927 251.83 76.4203 253.802 74.0533 253.802C71.6864 253.802 69.7139 251.83 69.7139 249.465C69.7139 247.099 71.6864 245.127 74.0533 245.127C76.4203 245.259 78.3927 247.099 78.3927 249.465Z" fill="white"/>
<path d="M318.9 317.938C318.9 319.384 317.716 320.566 316.27 320.566C314.823 320.566 313.64 319.384 313.64 317.938C313.64 316.492 314.823 315.309 316.27 315.309C317.716 315.309 318.9 316.492 318.9 317.938Z" fill="#92BF20" fill-opacity="0.26"/>
<path d="M159.92 48.6443C162.099 48.6443 163.865 46.8791 163.865 44.7015C163.865 42.524 162.099 40.7587 159.92 40.7587C157.742 40.7587 155.976 42.524 155.976 44.7015C155.976 46.8791 157.742 48.6443 159.92 48.6443Z" fill="white"/>
<path d="M273.008 341.989C272.219 341.989 271.43 341.463 271.167 340.675C270.772 339.623 271.298 338.572 272.35 338.178L281.555 334.761C282.607 334.366 283.659 334.892 284.053 335.943C284.448 336.995 283.922 338.046 282.87 338.441L273.665 341.858C273.402 341.989 273.139 341.989 273.008 341.989Z" fill="#92BF20" fill-opacity="0.26"/>
<path d="M54.5918 119.615C53.9343 119.615 53.1453 119.221 52.8823 118.563L48.28 109.889C47.754 108.969 48.1485 107.786 49.0689 107.261C49.9894 106.735 51.1729 107.129 51.6989 108.049L56.3012 116.723C56.8272 117.643 56.4327 118.826 55.5123 119.352C55.1178 119.483 54.8548 119.615 54.5918 119.615Z" fill="white"/>
<path d="M368.342 81.2382C367.685 81.2382 367.159 80.9754 366.764 80.4497C366.107 79.5297 366.239 78.3468 367.159 77.6897L376.89 70.1984C377.81 69.5412 378.994 69.6727 379.651 70.5926C380.309 71.5126 380.177 72.6955 379.257 73.3526L369.526 80.8439C369.131 81.1068 368.737 81.2382 368.342 81.2382Z" fill="#92BF20" fill-opacity="0.26"/>
<path d="M411.079 179.151C410.816 179.151 410.553 179.151 410.29 179.02C409.238 178.626 408.843 177.443 409.238 176.391L414.103 164.826C414.498 163.774 415.681 163.38 416.733 163.774C417.785 164.169 418.18 165.351 417.785 166.403L412.92 177.968C412.525 178.625 411.868 179.151 411.079 179.151Z" fill="#92BF20" fill-opacity="0.26"/>
<path d="M191.611 142.22C190.559 142.22 189.639 141.432 189.639 140.38L189.113 128.289C189.113 127.238 189.902 126.318 190.954 126.186C192.006 126.186 192.926 126.975 193.058 128.026L193.584 140.117C193.584 141.169 192.795 142.089 191.611 142.22C191.743 142.22 191.611 142.22 191.611 142.22Z" fill="white"/>
<path d="M357.428 345.538C357.034 345.538 356.639 345.406 356.376 345.275L350.064 341.201C349.144 340.675 348.881 339.361 349.407 338.441C349.933 337.521 351.248 337.258 352.168 337.783L358.48 341.858C359.401 342.383 359.664 343.698 359.138 344.618C358.743 345.275 358.086 345.538 357.428 345.538Z" fill="#92BF20" fill-opacity="0.26"/>
<path d="M430.935 248.413C430.54 248.413 430.014 248.282 429.751 248.019C428.962 247.362 428.699 246.048 429.488 245.259L434.091 239.476C434.748 238.688 436.063 238.425 436.852 239.213C437.641 239.87 437.904 241.185 437.115 241.973L432.513 247.756C432.118 248.15 431.592 248.413 430.935 248.413Z" fill="#92BF20" fill-opacity="0.26"/>
<path d="M135.068 335.418C134.805 335.418 134.673 335.418 134.41 335.286C133.358 334.892 132.832 333.841 133.227 332.789L135.462 325.955C135.857 324.904 136.909 324.378 137.961 324.772C139.013 325.166 139.539 326.218 139.144 327.269L136.909 334.104C136.646 334.892 135.857 335.418 135.068 335.418Z" fill="#92BF20" fill-opacity="0.26"/>
<path d="M19.7452 219.894C19.2193 219.894 18.5618 219.631 18.1673 219.105C17.5098 218.316 17.6413 217.002 18.4303 216.345L22.6382 212.928C23.4271 212.271 24.7421 212.402 25.3996 213.191C26.0571 213.979 25.9256 215.294 25.1366 215.951L20.9287 219.368C20.6657 219.762 20.2712 219.894 19.7452 219.894Z" fill="white"/>
<path d="M305.093 62.707C304.172 62.707 303.383 62.0499 303.12 61.1299L301.937 55.3471C301.674 54.2957 302.463 53.2443 303.515 52.9814C304.567 52.7186 305.619 53.5071 305.882 54.5585L307.065 60.3413C307.328 61.3928 306.539 62.4442 305.487 62.707C305.356 62.707 305.224 62.707 305.093 62.707Z" fill="white"/>
<path d="M281.818 12.1077C281.423 12.1077 281.029 11.9763 280.634 11.7134C279.714 11.0563 279.582 9.87344 280.24 8.95345L286.026 0.80499C286.683 -0.114998 287.867 -0.246425 288.787 0.410709C289.708 1.06784 289.839 2.25069 289.182 3.17067L283.396 11.3191C283.133 11.8448 282.475 12.1077 281.818 12.1077Z" fill="white"/>
<path d="M6.59565 298.355C6.33266 298.355 5.93817 298.224 5.67517 298.093L1.0728 295.727C0.152323 295.201 -0.242166 294.018 0.152323 293.098C0.678309 292.178 1.86178 291.784 2.78225 292.178L7.38463 294.544C8.3051 295.07 8.69959 296.253 8.3051 297.173C8.04211 297.961 7.38463 298.355 6.59565 298.355Z" fill="white"/>
<path d="M405.951 216.476C405.819 216.476 405.687 216.476 405.556 216.476L400.428 215.294C399.376 215.031 398.718 213.979 398.981 212.928C399.244 211.877 400.296 211.219 401.348 211.482L406.476 212.665C407.528 212.928 408.186 213.979 407.923 215.031C407.66 215.951 406.871 216.476 405.951 216.476Z" fill="#92BF20" fill-opacity="0.26"/>
<path d="M383.333 38.7873C382.939 38.7873 382.676 38.6559 382.281 38.5245C381.361 37.9988 380.966 36.8159 381.624 35.7645L385.569 29.0618C386.094 28.1418 387.278 27.7475 388.33 28.4046C389.25 28.9303 389.645 30.1132 388.987 31.1646L385.042 37.8674C384.779 38.3931 384.122 38.7873 383.333 38.7873Z" fill="#92BF20" fill-opacity="0.26"/>
<path d="M60.9037 338.572C60.7722 338.572 60.6407 338.572 60.6407 338.572L57.2218 338.046C56.1698 337.915 55.3808 336.863 55.6438 335.812C55.7753 334.761 56.8273 333.972 57.8793 334.235L61.2982 334.761C62.3502 334.892 63.1391 335.943 62.8761 336.995C62.7446 337.915 61.8242 338.572 60.9037 338.572Z" fill="#92BF20" fill-opacity="0.26"/>
<path d="M160.578 378C160.052 378 159.526 377.869 159.132 377.474L154.661 373.006C153.872 372.217 153.872 371.034 154.661 370.246C155.45 369.457 156.633 369.457 157.422 370.246L161.893 374.714C162.682 375.503 162.682 376.686 161.893 377.474C161.498 377.737 160.972 378 160.578 378Z" fill="#92BF20" fill-opacity="0.26"/>
<path d="M329.814 240.922C339.676 242.236 368.211 241.973 374.391 236.585C377.284 255.51 370.972 264.842 408.843 283.241C409.369 283.504 409.764 283.898 410.027 284.424C410.421 285.213 410.421 286.133 410.027 286.921L407.528 292.047C407.265 292.704 406.739 293.098 406.082 293.361C405.687 293.493 405.161 293.624 404.767 293.493C400.69 293.098 395.957 292.047 392.143 291.521C372.945 288.63 364.134 279.43 356.113 263.922C355.324 266.813 354.667 269.573 354.141 272.464C351.774 287.841 360.584 300.064 366.896 313.207C367.159 313.732 367.159 314.258 367.159 314.784C367.027 315.967 366.107 317.018 364.923 317.281L360.058 318.332C359.401 318.464 358.875 318.332 358.349 318.069C358.086 317.938 357.823 317.807 357.56 317.544C339.019 299.407 330.34 276.407 328.762 240.79C329.025 240.79 329.419 240.922 329.814 240.922Z" fill="#92BF20"/>
<path d="M73.6588 187.3C78.7871 185.328 84.31 184.145 89.8329 183.357C89.8329 184.145 89.8329 184.803 89.8329 185.591C89.8329 188.22 89.9643 191.768 89.9643 192.031C89.9643 194.791 89.4384 196.894 88.3864 198.734C83.521 197.945 78.6556 196.762 74.1848 195.711C73.7903 195.58 73.5273 195.448 73.1328 195.317C72.0808 194.66 71.4233 193.477 71.4233 192.163V190.191C71.4233 189.008 72.0808 187.825 73.1328 187.3C73.3958 187.431 73.5273 187.431 73.6588 187.3Z" fill="white"/>
<path d="M112.45 199.785C106.796 211.482 96.9337 219.762 76.2887 226.333C75.7627 226.465 75.2367 226.596 74.7108 226.465C73.7903 226.333 72.8698 225.808 72.2123 225.019L69.7139 221.865C68.9249 220.945 68.7934 219.631 69.0564 218.579C69.1879 218.054 69.4509 217.528 69.8454 217.134C77.4722 208.197 85.2305 205.042 88.5179 198.865C89.5699 197.025 90.0958 194.791 90.0958 192.162C90.0958 191.9 89.9644 188.351 89.9644 185.723C89.9644 184.934 89.9644 184.277 89.9644 183.488C90.2273 173.894 91.8053 164.3 95.6187 155.494C96.1447 156.02 96.8022 156.546 97.5911 157.072C101.931 159.7 126.52 165.746 138.881 162.46C139.539 162.329 140.196 162.066 140.722 161.671C139.144 173.5 135.462 187.3 132.701 192.425C129.019 198.602 121.655 199.654 112.45 199.785Z" fill="white"/>
<path d="M133.884 269.573C133.884 269.573 108.505 265.761 104.56 264.973H104.429C102.588 264.579 101.404 262.739 101.799 260.899C102.193 258.796 103.114 256.167 104.823 254.459C104.955 254.196 105.218 254.064 105.481 253.933C105.875 253.67 106.27 253.539 106.664 253.539C119.42 251.567 142.431 247.625 156.765 250.122C161.498 250.91 172.807 257.219 184.905 275.618C184.116 275.881 183.458 276.276 183.064 276.933C180.434 280.744 178.198 284.556 176.357 288.498C168.073 280.744 157.159 272.07 151.768 271.15C149.138 270.624 145.456 271.281 141.116 272.99C138.881 271.15 136.514 269.836 133.884 269.573Z" fill="#FFE36C"/>
<path d="M176.358 288.498C171.624 298.355 168.862 308.607 168.073 320.041C155.187 310.841 145.061 291.915 144.93 291.915C144.93 291.915 121.786 303.087 113.765 305.321C113.502 305.321 113.371 305.452 113.108 305.452C112.45 305.452 111.793 305.321 111.135 304.927C108.637 303.218 107.322 299.407 108.374 296.647C108.505 296.384 108.637 296.121 108.768 295.99C108.9 295.858 108.9 295.858 109.031 295.727C120.603 284.03 132.306 276.407 141.116 272.99C145.456 271.281 149.138 270.756 151.768 271.15C157.291 272.07 168.073 280.744 176.358 288.498Z" fill="#FFE36C"/>
<path d="M232.375 235.796C233.032 235.402 233.821 235.402 234.479 235.796C234.873 235.928 235.136 236.19 235.399 236.453L238.687 240.265C239.081 240.659 239.213 241.185 239.344 241.579C239.476 242.236 239.213 242.893 238.818 243.419C222.907 263.002 229.745 279.824 235.662 288.63C235.531 288.761 235.399 288.893 235.399 289.024C227.247 284.03 216.99 279.693 206.47 277.327C206.47 275.093 206.602 272.727 206.996 270.493C209.758 256.43 219.357 242.105 232.375 235.796Z" fill="#92BF20"/>
<path d="M219.225 332.658C210.284 335.155 200.684 335.286 191.48 333.578C184.116 332.264 176.226 330.029 169.257 324.641C168.468 323.984 167.942 322.932 168.073 321.881C168.073 321.224 168.205 320.698 168.205 320.041C168.994 308.607 171.755 298.355 176.489 288.498C178.462 284.556 180.697 280.744 183.195 276.933C183.59 276.276 184.247 275.75 185.036 275.619C185.299 275.487 185.562 275.487 185.694 275.487C192.4 275.093 199.632 275.881 206.602 277.459C217.122 279.824 227.247 284.161 235.531 289.156C234.611 290.47 234.085 292.047 234.085 293.887C234.085 301.115 238.555 306.241 244.867 307.818C246.051 314.258 246.314 320.961 244.867 327.401C237.898 359.206 218.305 364.989 198.449 362.097C197.397 361.966 196.477 361.177 196.214 360.257C196.082 359.732 195.951 359.337 196.082 358.812L196.608 355.789C196.74 355.132 197.134 354.475 197.66 354.08C198.186 353.686 198.844 353.423 199.501 353.423C210.547 353.16 217.253 343.829 218.962 334.235C219.094 333.841 219.094 333.315 219.225 332.658Z" fill="#92BF20"/>
<path d="M359.006 179.283C359.532 173.631 359.927 169.557 360.058 166.403C360.321 163.249 360.321 161.014 360.453 158.78C360.584 157.203 360.584 155.757 360.847 154.18C361.11 151.42 361.505 148.003 362.294 142.746C362.688 140.117 363.083 137.489 363.609 134.86C363.74 134.072 364.135 133.415 364.792 133.02C365.318 132.758 365.844 132.495 366.37 132.626L369.526 132.758C370.446 132.758 371.235 133.283 371.63 134.072C371.893 134.466 371.893 134.729 372.024 135.255C373.471 151.814 375.706 233.299 375.443 234.613C375.312 235.27 374.917 235.928 374.26 236.453C368.079 241.973 339.545 242.105 329.682 240.79C329.288 240.79 328.893 240.659 328.631 240.528C325.738 239.87 325.343 238.162 325.08 236.716C321.661 213.585 322.187 187.825 325.606 164.694C327.316 153.523 330.077 142.483 334.285 131.969C334.548 131.443 334.811 131.049 335.205 130.655C336.126 129.866 337.441 129.603 338.624 129.998L340.465 130.655C341.254 130.918 341.912 131.575 342.306 132.232C342.701 132.889 342.832 133.678 342.701 134.466C342.701 134.598 342.701 134.729 342.701 134.86C341.254 144.06 341.912 153.523 342.701 162.723C342.569 162.854 342.438 163.117 342.438 163.249C341.123 166.009 340.465 169.163 340.465 172.054C340.597 175.866 341.78 179.808 344.673 182.305C345.988 183.357 347.434 184.014 349.144 184.145C352.957 184.671 356.376 182.437 359.006 179.283Z" fill="#FFE36C"/>
<path d="M123.627 147.215C124.153 149.449 121.918 151.946 119.683 151.683C121.129 153.26 123.233 153.917 125.6 153.917C128.493 153.917 134.016 152.734 134.016 149.054C134.016 146.82 131.517 145.506 129.413 145.506C127.441 145.637 125.468 146.426 123.627 147.215ZM122.05 93.1981C123.101 95.1695 124.679 96.878 126.652 98.0609C128.23 99.1123 130.202 99.5066 132.043 99.3751C133.49 99.2437 134.805 98.8494 136.12 98.1923C142.563 102.004 148.612 106.472 154.924 106.472C166.364 106.472 173.859 93.1981 176.489 82.5525L176.621 82.2896C176.621 82.1582 176.752 82.0268 176.884 81.8954C178.199 80.9754 183.458 81.1068 184.116 82.6839C184.116 82.8154 184.247 82.9468 184.247 83.0782C184.116 93.4609 180.697 107.786 174.517 116.198C168.468 124.478 159.658 126.712 148.48 127.106C147.165 142.615 146.113 152.866 143.483 157.992C142.694 159.569 141.642 160.751 140.459 161.54C139.933 161.934 139.276 162.197 138.618 162.329C126.257 165.746 101.668 159.569 97.3282 156.94C96.5392 156.414 95.8817 156.02 95.3557 155.363C95.2242 155.232 95.0927 155.1 95.0927 154.969C92.5943 151.946 93.6463 144.717 95.6187 137.226C91.1478 132.889 87.9919 128.026 87.9919 122.901C87.9919 112.124 103.377 93.0666 121.129 93.0666C121.524 93.1981 121.787 93.1981 122.05 93.1981Z" fill="#92BF20"/>
<path d="M360.058 166.403C355.456 164.169 351.511 161.014 350.327 156.283C351.379 156.02 352.694 155.889 353.878 155.889C356.508 156.152 358.743 157.072 360.453 158.649C360.321 161.014 360.321 163.249 360.058 166.403Z" fill="#333333"/>
<path d="M360.847 154.18C360.716 155.889 360.584 157.203 360.453 158.78C358.743 157.203 356.639 156.283 353.878 156.02C352.563 155.889 351.379 156.02 350.327 156.414C349.933 154.837 349.801 153.26 350.064 151.289C350.196 150.237 350.064 149.054 351.248 148.529C352.826 147.872 355.061 149.58 356.245 150.369C357.165 150.894 357.954 151.42 358.743 152.209C359.269 152.34 360.847 153.654 360.847 154.18Z" fill="#333333"/>
<path d="M259.463 299.012C259.595 302.561 257.228 305.715 254.598 307.818C252.626 308.344 250.522 308.475 248.681 308.475C247.366 308.475 246.051 308.212 244.867 307.95C238.555 306.372 233.953 301.247 234.085 294.018C234.085 292.178 234.611 290.601 235.531 289.287C235.663 289.155 235.794 289.024 235.794 288.893C239.476 283.898 248.418 282.058 253.809 281.664C254.992 281.533 256.176 281.664 257.228 281.796C255.913 283.898 254.992 286.396 255.518 288.63C256.439 292.31 259.332 295.07 259.463 299.012Z" fill="white"/>
<path d="M145.85 78.084C146.376 85.181 142.3 94.9066 136.12 98.1923C131.78 95.5637 127.046 93.4609 122.049 93.198C120.997 91.2266 120.34 89.1238 119.945 87.021C119.551 85.181 119.551 83.0782 119.682 81.1068C123.627 78.2154 128.756 77.164 133.884 77.164C135.594 77.164 137.698 77.2954 138.092 77.2954C140.853 77.2954 143.352 76.244 145.193 74.5354C145.587 75.5868 145.85 76.7697 145.85 78.084Z" fill="white"/>
<path d="M136.12 98.1922C134.805 98.8494 133.49 99.2437 132.043 99.3751C130.071 99.5065 128.23 99.1122 126.652 98.0608C124.679 96.878 123.233 95.1694 122.049 93.198C127.178 93.3295 131.78 95.5637 136.12 98.1922Z" fill="white"/>
<path d="M150.847 65.2041C150.847 66.1241 150.453 66.7813 150.321 67.5698C150.058 68.7527 149.795 69.9355 149.269 71.1184C148.48 72.9583 147.428 74.6669 145.982 75.8497C144.009 77.6897 141.511 78.7411 138.487 78.6097C138.092 78.6097 135.725 78.3468 133.884 78.3468C128.23 78.3468 122.444 79.3982 118.368 82.4211H118.105C118.762 80.1868 113.897 60.4728 139.67 61.787C141.642 61.9185 143.483 62.1813 145.324 62.4442C146.245 62.5756 147.165 62.8385 147.954 63.1013C149.269 63.4956 150.716 63.3642 150.847 65.2041Z" fill="#333333"/>
<path d="M268.537 301.641C266.433 305.058 263.803 307.292 260.91 308.212C258.806 308.87 256.307 309.395 254.335 309.264C254.072 309.264 251.179 309.395 251.048 309.395C253.94 307.292 259.2 303.744 259.2 299.67C259.069 295.201 256.176 291.915 255.387 288.104C254.861 285.738 255.781 283.241 257.228 281.27C257.754 280.481 258.411 279.693 259.2 279.036C260.647 277.721 263.014 276.144 264.986 275.881C274.454 274.436 271.43 297.041 268.537 301.641Z" fill="#333333"/>
<path d="M154.924 107.786C149.401 107.786 144.272 104.632 138.881 101.347C137.698 100.689 136.646 99.9009 135.462 99.2437C134.805 98.8495 134.673 98.0609 134.936 97.4038C135.331 96.7466 136.12 96.6152 136.777 96.8781C137.961 97.5352 139.144 98.3238 140.196 98.9809C145.324 102.135 150.058 105.027 154.924 105.027C166.495 105.027 173.07 90.5696 175.306 82.0268C175.437 81.3697 176.226 80.844 176.884 81.1068C177.541 81.2383 178.067 82.0268 177.804 82.684C174.78 95.3009 166.495 107.786 154.924 107.786Z" fill="#333333"/>
<path d="M122.05 94.5123C121.655 94.5123 121.524 94.5123 121.261 94.5123C120.472 94.5123 119.946 93.9866 119.946 93.1981C119.946 92.4095 120.472 91.8838 121.261 91.8838C121.524 91.8838 121.918 91.8838 122.181 91.8838C122.839 91.8838 123.496 92.5409 123.365 93.3295C123.365 93.9866 122.707 94.5123 122.05 94.5123Z" fill="#333333"/>
<path d="M184.247 84.3924C183.59 84.3924 183.064 83.8667 182.932 83.341C182.144 82.6839 178.725 82.421 177.804 82.9467C177.541 83.4725 176.884 83.7353 176.226 83.4725C175.569 83.2096 175.174 82.421 175.437 81.7639C175.569 81.3696 175.832 81.1068 176.226 80.8439C177.673 79.7925 180.96 79.9239 182.801 80.3182C184.247 80.7125 185.036 81.3696 185.431 82.1582C185.562 82.2896 185.562 82.6839 185.562 83.0782C185.562 83.8667 185.036 84.3924 184.247 84.3924Z" fill="#333333"/>
<path d="M148.612 128.289C147.954 128.289 147.297 127.763 147.297 126.975C147.297 126.186 147.823 125.661 148.612 125.661C160.973 125.398 168.468 122.243 173.596 115.278C179.908 106.735 182.932 92.5409 183.064 82.9468C183.064 82.1582 183.721 81.6325 184.379 81.6325C185.168 81.6325 185.694 82.2896 185.694 82.9468C185.562 92.9352 182.406 107.786 175.7 116.723C168.599 126.581 157.948 128.026 148.612 128.289Z" fill="#333333"/>
<path d="M129.808 164.563C116.921 164.563 100.616 160.357 96.8022 158.123C95.8817 157.597 95.2243 157.071 94.5668 156.414C94.4353 156.283 94.1723 156.02 94.1723 155.889C91.6739 152.866 91.8054 146.689 94.4353 136.963C94.5668 136.306 95.3558 135.912 96.0132 136.043C96.6707 136.175 97.0652 136.963 96.9337 137.62C93.7778 149.054 95.0928 152.866 96.1447 154.18C96.1447 154.312 96.2762 154.312 96.2762 154.312L96.4077 154.443C96.8022 154.837 97.3282 155.363 98.1172 155.757C101.931 157.991 126.257 164.3 138.355 160.883C138.881 160.751 139.407 160.489 139.802 160.226C140.854 159.569 141.643 158.517 142.432 157.203C144.93 152.209 145.982 141.432 147.297 126.843C147.297 126.186 147.954 125.529 148.612 125.66C149.269 125.66 149.927 126.186 149.927 126.975V127.106C148.612 142.615 147.56 153.129 144.798 158.649C143.878 160.489 142.694 161.803 141.248 162.723C140.591 163.117 139.933 163.511 139.144 163.643C136.383 164.169 133.227 164.563 129.808 164.563Z" fill="#333333"/>
<path d="M119.946 153.129C119.814 153.129 119.683 153.129 119.551 153.129C119.42 153.129 119.157 153.129 119.157 152.997C113.897 151.157 102.72 145.9 94.8298 138.277C89.5699 133.152 86.8085 128.026 86.8085 123.032C86.8085 111.335 102.851 91.8838 121.261 91.8838C122.05 91.8838 122.576 92.4095 122.576 93.1981C122.576 93.9866 122.05 94.5123 121.261 94.5123C103.903 94.5123 89.4384 113.306 89.4384 123.032C89.4384 127.238 91.8054 131.838 96.5392 136.438C102.983 142.746 113.108 148.134 119.683 150.5C120.34 150.5 120.998 150.237 121.524 149.58C121.918 149.054 122.181 148.397 122.181 147.872C120.735 146.163 118.894 144.455 116.921 142.615C111.793 137.883 106.007 132.495 106.007 125.135C106.007 118.695 110.083 113.701 113.371 109.758C114.16 108.706 114.949 107.786 115.606 106.998C116.001 106.472 116.921 106.341 117.447 106.735C117.973 107.129 118.105 107.918 117.71 108.575C117.053 109.495 116.264 110.415 115.475 111.466C112.319 115.409 108.637 119.746 108.637 125.266C108.637 131.443 113.765 136.175 118.762 140.775C120.866 142.746 122.839 144.455 124.416 146.426C124.548 146.557 124.679 146.82 124.679 147.083C124.942 148.529 124.548 150.106 123.496 151.42C122.576 152.472 121.261 153.129 119.946 153.129Z" fill="#333333"/>
<path d="M125.468 155.363C122.576 155.363 120.209 154.443 118.631 152.603C118.105 152.077 118.236 151.289 118.762 150.763C119.288 150.237 120.077 150.369 120.603 150.894C121.918 152.34 124.022 152.734 125.468 152.734C127.704 152.734 132.569 151.814 132.569 149.186C132.569 147.74 130.597 146.952 129.282 146.952C127.704 146.952 125.994 147.609 124.285 148.397L124.022 148.529C123.365 148.792 122.576 148.529 122.313 147.74C122.05 147.083 122.313 146.295 123.102 146.032L123.365 145.9C125.337 145.112 127.309 144.323 129.413 144.323C132.306 144.323 135.331 146.163 135.331 149.186C135.331 153.654 129.413 155.363 125.468 155.363Z" fill="#333333"/>
<path d="M184.247 83.9982C183.984 83.9982 183.59 83.8667 183.458 83.7353C182.932 83.2096 182.801 82.421 183.327 81.8953C185.036 79.7925 186.351 76.9011 186.351 74.6669C186.351 72.6955 185.957 71.644 185.694 71.2498C185.431 70.7241 185.036 70.7241 184.773 70.7241C182.275 70.7241 177.673 76.244 177.673 78.6097C177.673 79.5297 178.067 80.5811 178.33 81.5011C178.593 82.1582 178.199 82.9468 177.541 83.2096C176.884 83.4725 176.095 83.0782 175.832 82.4211C175.437 81.2382 175.043 79.9239 175.043 78.6097C175.043 74.7983 180.697 68.0955 184.773 68.0955C186.088 68.0955 187.272 68.7527 187.929 69.9355C188.587 71.1183 188.981 72.6955 188.981 74.7983C188.981 77.5583 187.535 81.1068 185.299 83.7353C184.905 83.8667 184.51 83.9982 184.247 83.9982Z" fill="#333333"/>
<path d="M131.386 100.689C129.413 100.689 127.572 100.164 125.994 99.1123C124.022 97.798 122.313 96.0895 120.998 93.7238C119.946 91.7524 119.157 89.5181 118.631 87.1525C118.236 85.1811 118.236 83.0782 118.368 80.844C118.499 80.1868 119.025 79.5297 119.814 79.6611C120.472 79.7926 121.129 80.3183 120.998 81.1068C120.866 82.9468 120.866 84.9182 121.261 86.6268C121.655 88.7296 122.313 90.701 123.233 92.4095C124.285 94.3809 125.731 95.8266 127.309 96.878C128.756 97.798 130.334 98.1923 131.912 98.0609C133.095 97.9295 134.279 97.6666 135.462 97.0095C141.38 93.8552 144.93 84.5239 144.535 78.084C144.404 77.0326 144.272 75.9812 143.878 74.9298C143.615 74.2726 144.009 73.4841 144.798 73.3526C145.456 73.0898 146.245 73.4841 146.376 74.2726C146.771 75.4555 147.034 76.7697 147.034 78.084C147.56 85.4439 143.483 95.6952 136.646 99.5066C135.199 100.295 133.621 100.821 132.043 100.821C131.912 100.689 131.649 100.689 131.386 100.689Z" fill="#333333"/>
<path d="M75.1053 227.911C74.9738 227.911 74.7108 227.911 74.5793 227.911C73.2643 227.779 71.9494 227.122 71.1604 225.939L68.6619 222.785C67.7415 221.602 67.347 219.894 67.7415 218.316C68.0045 217.528 68.2674 216.871 68.7934 216.345C72.4753 212.008 76.1572 208.985 79.4447 206.357C82.9951 203.465 85.7565 201.231 87.3344 198.208C87.7289 197.551 88.5179 197.288 89.1754 197.682C89.8329 198.077 90.0959 198.865 89.7014 199.522C87.8604 202.939 84.7045 205.568 81.1541 208.459C77.9982 210.957 74.4478 213.848 70.8974 218.054C70.6344 218.316 70.5029 218.711 70.3714 218.974C70.2399 219.762 70.3714 220.551 70.7659 221.208L73.2643 224.362C73.6588 224.888 74.3163 225.151 74.9738 225.282C75.3683 225.282 75.7627 225.282 76.0257 225.151C94.9612 219.236 105.481 211.482 111.398 199.26C115.343 191.242 117.184 181.385 119.288 169.294C119.42 168.637 120.077 168.111 120.866 168.243C121.524 168.374 122.05 169.031 121.918 169.82C119.814 182.043 117.842 192.162 113.765 200.574C107.585 213.454 96.5392 221.602 76.8147 227.779C76.2887 227.779 75.6313 227.911 75.1053 227.911Z" fill="#333333"/>
<path d="M88.3864 200.18C88.1234 200.18 87.9919 200.18 87.7289 200.048C87.0714 199.654 86.8084 198.865 87.2029 198.208C88.1234 196.368 88.6494 194.397 88.6494 192.031C88.6494 191.9 88.6494 191.637 88.6494 191.243C88.6494 189.928 88.5179 187.563 88.5179 185.46C88.5179 184.671 88.5179 184.014 88.5179 183.225C88.7809 172.843 90.6218 163.249 94.3037 154.706C94.5667 154.049 95.3557 153.786 96.0132 154.049C96.6707 154.312 96.9337 155.1 96.6707 155.757C93.2518 163.906 91.4108 173.237 91.1478 183.357C91.1478 184.145 91.1478 184.803 91.1478 185.46C91.1478 187.431 91.2793 189.797 91.2793 191.111C91.2793 191.637 91.2793 191.9 91.2793 192.031C91.2793 194.791 90.7533 197.288 89.5699 199.391C89.3069 199.917 88.9124 200.18 88.3864 200.18Z" fill="#333333"/>
<path d="M88.3865 200.179C88.255 200.179 88.255 200.179 88.1235 200.179C84.8361 199.654 81.5486 198.865 78.2612 198.208C76.8148 197.814 75.2368 197.551 73.7904 197.288C73.2644 197.157 72.8699 197.025 72.3439 196.762C70.7659 195.842 69.977 194.265 69.977 192.557V190.585C69.977 188.877 70.8974 187.3 72.4754 186.511C72.6069 186.38 72.8699 186.248 73.0014 186.248C77.8667 184.408 83.1266 183.094 89.4384 182.305C90.0959 182.174 90.7534 182.7 90.8849 183.488C91.0164 184.145 90.4904 184.803 89.7014 184.934C83.6526 185.723 78.5242 187.037 73.7904 188.745C73.6589 188.745 73.6589 188.745 73.6589 188.877C73.0014 189.271 72.6069 189.928 72.6069 190.717V192.688C72.6069 193.477 73.0014 194.265 73.6589 194.66C73.9219 194.791 74.0533 194.922 74.3163 194.922C75.7628 195.185 77.2093 195.58 78.7872 195.842C81.9431 196.5 85.2305 197.288 88.3865 197.814C89.0439 197.945 89.5699 198.471 89.5699 199.128C89.7014 199.654 89.1754 200.179 88.3865 200.179Z" fill="#333333"/>
<path d="M112.45 201.1C111.793 201.1 111.135 200.574 111.135 199.785C111.135 198.997 111.661 198.471 112.45 198.471C122.05 198.34 128.23 197.157 131.254 191.505C134.016 186.38 137.566 172.711 139.144 161.146C139.276 160.489 139.933 159.963 140.591 159.963C141.248 160.094 141.774 160.751 141.774 161.409C140.196 173.237 136.514 187.3 133.621 192.688C129.676 200.311 120.998 200.968 112.45 201.1C112.582 201.1 112.582 201.1 112.45 201.1Z" fill="#333333"/>
<path d="M65.9005 203.597C63.7966 203.597 62.7446 201.888 62.7446 198.602C62.7446 195.054 65.2431 185.723 71.0289 185.723C71.9494 185.723 72.8699 185.985 73.7903 186.38C74.4478 186.643 74.7108 187.431 74.4478 188.088C74.1848 188.745 73.3958 189.008 72.7384 188.745C72.2124 188.483 71.5549 188.351 71.0289 188.351C67.61 188.351 65.3746 195.58 65.3746 198.602C65.3746 200.442 65.6375 200.968 65.9005 200.968C66.1635 200.968 67.873 200.705 72.0809 194.791C72.4754 194.265 73.2643 194.134 73.9218 194.528C74.4478 194.922 74.5793 195.711 74.1848 196.368C70.6344 201.362 68.0045 203.597 65.9005 203.597Z" fill="#333333"/>
<path d="M71.2919 238.162C68.7935 238.162 63.4021 232.116 63.4021 225.545C63.4021 221.733 64.9801 219.236 68.399 217.528C69.0565 217.265 69.8455 217.528 70.1084 218.185C70.3714 218.842 70.1084 219.631 69.451 219.894C66.558 221.339 65.9006 223.179 65.9006 225.545C65.9006 231.065 69.977 235.008 71.1604 235.533C71.5549 235.008 72.7384 232.773 73.2644 226.465C73.3959 225.808 73.9218 225.151 74.7108 225.282C75.3683 225.413 76.0258 225.939 75.8943 226.728C74.9738 236.848 73.0014 238.162 71.2919 238.162Z" fill="#333333"/>
<path d="M359.006 180.597H358.875C358.217 180.465 357.691 179.808 357.691 179.151C357.691 178.757 357.954 178.494 358.217 178.231C358.48 177.968 358.875 177.968 359.138 177.968C359.795 178.1 360.321 178.757 360.321 179.414C360.19 180.071 359.664 180.597 359.006 180.597Z" fill="#333333"/>
<path d="M349.933 185.723C349.67 185.723 349.407 185.723 349.276 185.723C347.303 185.591 345.594 184.803 344.016 183.62C340.071 180.334 339.413 175.208 339.282 172.317C339.15 169.163 339.939 165.877 341.386 162.854C341.517 162.591 341.649 162.329 341.78 162.197C343.753 158.517 346.646 156.02 350.065 155.1C350.722 154.969 351.511 155.363 351.642 156.02C351.774 156.677 351.379 157.466 350.722 157.597C348.092 158.386 345.594 160.489 344.016 163.511C343.884 163.774 343.753 163.906 343.753 164.037C342.569 166.666 341.912 169.557 341.912 172.317C341.912 174.683 342.569 179.02 345.725 181.648C346.777 182.568 348.092 183.094 349.407 183.225C353.22 183.488 356.376 180.466 357.954 178.626C358.48 178.1 359.269 177.968 359.795 178.494C360.321 179.02 360.453 179.808 359.927 180.334C357.034 183.751 353.483 185.723 349.933 185.723Z" fill="#333333"/>
<path d="M360.453 160.094C360.321 160.094 360.321 160.094 360.19 160.094C359.401 159.963 359.006 159.306 359.138 158.517C359.269 157.86 359.927 157.334 360.716 157.466C361.373 157.597 361.899 158.254 361.768 159.043C361.636 159.569 361.11 160.094 360.453 160.094Z" fill="#333333"/>
<path d="M343.358 242.893C337.572 242.893 332.444 242.63 329.682 242.236C329.288 242.236 328.893 242.105 328.499 241.973C324.686 241.053 324.16 238.162 324.028 237.11C320.741 214.768 320.872 189.14 324.554 164.694C326.395 152.997 329.288 141.826 333.233 131.575C333.496 130.918 333.89 130.26 334.416 129.866C335.731 128.683 337.572 128.289 339.15 128.946L340.991 129.603C342.175 129.998 342.964 130.786 343.621 131.838C344.147 132.758 344.279 133.809 344.147 134.86V135.255C342.701 144.455 343.358 153.917 344.147 162.854C344.147 163.643 343.621 164.169 342.964 164.3C342.175 164.431 341.649 163.774 341.517 163.117C340.728 154.049 340.071 144.323 341.517 134.86V134.466C341.649 133.94 341.517 133.546 341.254 133.152C340.991 132.758 340.597 132.363 340.071 132.232L338.23 131.575C337.441 131.312 336.652 131.443 336.126 131.969C335.863 132.232 335.731 132.495 335.6 132.758C331.655 142.746 328.762 153.654 327.052 165.22C323.371 189.402 323.239 214.768 326.527 236.848C326.658 238.03 327.052 239.082 329.025 239.476C329.288 239.608 329.551 239.608 329.945 239.608C340.071 241.053 367.816 240.528 373.471 235.533C373.734 235.27 374.128 234.876 374.26 234.482C374.391 232.379 372.156 151.814 370.841 135.386C370.841 135.123 370.709 134.992 370.709 134.86C370.446 134.466 370.052 134.203 369.657 134.203L366.501 134.072C366.238 134.072 365.975 134.072 365.712 134.335C365.318 134.597 365.186 134.86 365.055 135.255C364.66 138.015 364.134 140.512 363.74 143.14C362.951 147.872 362.557 151.42 362.294 154.443C362.162 156.152 362.031 157.466 361.899 159.043V160.226C361.768 162.066 361.768 164.169 361.505 166.666C361.242 170.214 360.979 174.42 360.453 179.545C360.321 181.517 360.058 183.62 359.795 185.854C359.664 186.511 359.006 187.037 358.349 187.037C357.691 186.905 357.165 186.248 357.165 185.591C357.428 183.357 357.56 181.254 357.823 179.283C358.349 174.157 358.612 170.083 358.875 166.403C359.006 163.774 359.138 161.803 359.269 159.963V158.78V158.649C359.401 157.203 359.401 155.757 359.664 154.18C359.927 151.026 360.453 147.609 361.11 142.746C361.505 140.117 361.899 137.62 362.294 134.992V134.86C362.425 133.809 363.083 132.758 364.134 132.232C364.792 131.838 365.581 131.575 366.501 131.575L369.657 131.706C370.972 131.838 372.156 132.495 372.813 133.678C373.076 134.072 373.339 134.729 373.339 135.386C374.786 151.946 377.021 233.562 376.758 235.008C376.627 235.928 376.101 236.848 375.18 237.636C370.578 241.71 355.324 242.893 343.358 242.893Z" fill="#333333"/>
<path d="M371.63 135.517C371.498 135.517 371.367 135.517 371.235 135.386C370.578 135.123 370.183 134.335 370.446 133.678C370.709 132.889 370.972 131.838 371.104 130.918C371.761 126.449 370.315 121.061 369.394 119.878C368.342 120.798 366.502 124.74 365.976 127.763C365.713 129.472 365.713 131.18 366.107 132.758C366.239 133.415 365.844 134.203 365.055 134.335C364.398 134.466 363.609 134.072 363.477 133.283C363.083 131.443 363.083 129.472 363.346 127.369C363.609 125.529 364.398 123.032 365.45 120.929C366.896 118.169 368.211 116.855 369.657 117.118C372.682 117.643 374.391 126.318 373.602 131.312C373.471 132.495 373.208 133.546 372.813 134.598C372.682 135.123 372.156 135.517 371.63 135.517Z" fill="#333333"/>
<path d="M342.438 133.809C342.175 133.809 342.043 133.809 341.78 133.678C341.123 133.283 340.86 132.495 341.254 131.838C342.438 129.603 343.227 127.369 343.621 125.266C343.753 124.215 343.753 121.586 343.621 120.403C342.306 120.403 340.728 121.323 339.15 122.901C337.441 124.478 336.257 126.449 336.126 127.369C335.994 128.289 336.126 129.472 336.52 130.523C336.783 131.18 336.389 131.969 335.731 132.232C335.074 132.495 334.285 132.1 334.022 131.443C333.496 129.866 333.233 128.289 333.496 126.975C333.759 125.398 335.205 123.032 337.178 121.061C338.624 119.746 341.386 117.512 344.41 117.906C346.12 118.169 346.251 120.666 346.251 121.981C346.251 123.558 346.251 125.135 346.12 125.66C345.725 128.158 344.805 130.655 343.49 133.152C343.358 133.546 342.964 133.809 342.438 133.809Z" fill="#333333"/>
<path d="M405.162 294.807C405.03 294.807 404.899 294.807 404.767 294.807C402.269 294.544 399.376 294.018 396.614 293.493C395.036 293.23 393.458 292.967 392.012 292.704C371.761 289.681 362.82 279.561 354.93 264.447C352.826 260.242 350.722 255.642 348.881 251.567C348.618 250.91 348.881 250.122 349.539 249.859C350.196 249.596 350.985 249.859 351.248 250.516C352.957 254.459 355.061 259.059 357.165 263.264C364.792 278.116 372.945 287.316 392.275 290.207C393.721 290.47 395.299 290.733 396.877 290.995C399.507 291.521 402.269 291.915 404.767 292.178C405.03 292.178 405.293 292.178 405.425 292.047C405.819 291.915 406.082 291.653 406.213 291.39L408.712 286.264C408.975 285.87 408.843 285.344 408.712 284.95C408.449 284.293 408.712 283.504 409.369 283.241C410.027 282.978 410.816 283.241 411.079 283.898C411.605 285.081 411.605 286.396 411.079 287.578L408.58 292.704C408.186 293.624 407.397 294.281 406.477 294.675C406.214 294.675 405.688 294.807 405.162 294.807Z" fill="#333333"/>
<path d="M410.027 285.738C409.501 285.738 409.106 285.476 408.843 284.95C408.712 284.687 408.449 284.424 408.186 284.293C375.838 268.653 375.049 259.322 373.865 245.127C373.602 242.499 373.471 239.739 372.945 236.585C372.813 235.928 373.339 235.139 373.997 235.139C374.654 235.008 375.443 235.533 375.443 236.19C375.969 239.345 376.101 242.105 376.364 244.865C377.416 258.139 378.205 266.813 409.238 281.796C410.027 282.19 410.684 282.847 411.079 283.636C411.342 284.293 411.079 285.081 410.421 285.344C410.421 285.738 410.29 285.738 410.027 285.738Z" fill="#333333"/>
<path d="M359.532 319.647C358.875 319.647 358.349 319.515 357.823 319.252C357.428 319.121 357.034 318.858 356.639 318.464C337.704 299.933 329.025 276.801 327.447 240.79C327.447 240.002 327.973 239.476 328.762 239.476C329.419 239.476 330.077 240.002 330.077 240.79C331.655 276.013 340.202 298.75 358.48 316.755C358.612 316.887 358.743 317.018 358.875 317.018C359.269 317.149 359.532 317.149 359.927 317.149L364.792 316.098C365.581 315.967 365.976 315.309 365.976 314.784C365.976 314.521 365.976 314.258 365.844 313.995C364.661 311.498 363.346 309.132 362.162 306.767C356.639 296.253 350.985 285.344 352.957 272.464C353.352 269.441 354.141 266.55 354.93 263.79C355.061 263.133 355.85 262.739 356.508 262.87C357.165 263.002 357.56 263.79 357.428 264.447C356.639 267.602 355.982 270.23 355.587 272.859C353.746 284.95 359.006 294.938 364.529 305.584C365.713 307.95 367.028 310.447 368.211 312.944C368.605 313.601 368.737 314.389 368.605 315.178C368.474 317.018 367.159 318.464 365.318 318.858L360.453 319.909C360.19 319.647 359.795 319.647 359.532 319.647Z" fill="#333333"/>
<path d="M360.979 332.001C360.716 332.001 360.584 332.001 360.321 332.001C358.612 331.738 354.93 330.029 356.639 319.384C356.771 318.858 356.902 318.201 357.165 317.544C357.428 316.887 358.217 316.624 358.875 316.887C359.532 317.149 359.795 317.938 359.532 318.595C359.401 318.989 359.269 319.384 359.138 319.647C358.217 326.086 359.138 329.109 360.584 329.372C362.557 329.635 366.238 325.824 367.027 320.172C367.422 317.807 366.896 316.624 366.107 315.572C365.581 315.047 365.713 314.127 366.238 313.732C366.764 313.207 367.685 313.338 368.079 313.864C369.526 315.704 370.052 317.675 369.526 320.435C368.868 326.744 364.792 332.001 360.979 332.001Z" fill="#333333"/>
<path d="M411.473 304.532C408.58 304.532 406.345 300.721 404.898 293.624C404.767 292.967 405.161 292.178 405.95 292.047C406.608 291.915 407.397 292.31 407.528 293.098C409.106 300.327 410.947 301.904 411.605 301.904C412.262 301.904 413.709 300.195 414.498 295.333C415.813 286.658 411.736 286.001 410.027 285.738L410.421 283.11C415.944 284.03 418.311 288.235 417.128 295.727C416.076 301.247 414.235 304.401 411.473 304.532C411.605 304.532 411.473 304.532 411.473 304.532Z" fill="#333333"/>
<path d="M249.338 309.789C249.075 309.789 248.812 309.789 248.549 309.789C247.103 309.789 245.788 309.527 244.473 309.264C237.109 307.424 232.638 301.51 232.638 294.018C232.638 292.047 233.164 290.207 234.348 288.498C234.479 288.367 234.611 288.104 234.742 287.973C239.344 281.796 250.522 280.481 253.809 280.218C255.124 280.087 256.307 280.218 257.622 280.35C258.28 280.481 258.806 281.138 258.674 281.796C258.543 282.453 257.885 282.978 257.228 282.847C256.176 282.716 255.124 282.584 254.072 282.716C247.892 283.11 240.133 285.081 236.977 289.418C236.846 289.55 236.846 289.681 236.714 289.813C235.925 290.995 235.531 292.441 235.531 293.887C235.531 300.195 239.344 305.058 245.393 306.504C246.577 306.767 247.76 307.03 248.944 307.03C250.785 307.03 252.626 306.898 254.466 306.504C255.124 306.372 255.913 306.767 256.044 307.424C256.176 308.081 255.781 308.869 255.124 309.001C253.02 309.527 251.179 309.789 249.338 309.789Z" fill="#333333"/>
<path d="M255.124 309.001C254.598 309.001 254.072 308.607 253.809 308.081C253.677 307.424 254.072 306.635 254.729 306.504C255.913 306.241 257.096 305.715 258.28 305.19C258.937 304.927 259.595 304.532 260.121 304.27C260.778 303.875 261.567 304.007 261.962 304.664C262.356 305.321 262.225 306.11 261.567 306.504C260.91 306.898 260.252 307.292 259.463 307.687C258.148 308.344 256.833 308.738 255.518 309.132C255.387 309.001 255.255 309.001 255.124 309.001Z" fill="#333333"/>
<path d="M203.446 336.075C199.369 336.075 195.293 335.681 191.085 334.892C184.379 333.709 175.832 331.475 168.336 325.692C167.153 324.772 166.495 323.326 166.627 321.749L166.758 319.909C167.679 308.212 170.44 297.698 175.174 287.841C177.147 283.898 179.382 279.956 182.012 276.013C182.669 275.093 183.458 274.436 184.51 274.173C184.773 274.041 185.168 274.041 185.562 274.041C192.137 273.647 199.238 274.436 206.865 276.144C217.121 278.51 227.51 282.716 236.188 287.973C236.846 288.367 236.977 289.155 236.583 289.813C236.188 290.47 235.399 290.601 234.742 290.207C226.326 285.081 216.201 280.876 206.207 278.641C198.975 276.933 192.006 276.276 185.694 276.67C185.562 276.67 185.431 276.67 185.299 276.801C184.905 276.933 184.51 277.196 184.247 277.59C181.617 281.401 179.382 285.213 177.541 289.024C172.939 298.618 170.177 308.738 169.388 320.172L169.257 322.012C169.257 322.669 169.52 323.326 170.046 323.721C177.147 329.241 185.299 331.212 191.743 332.395C201.079 334.103 210.547 333.841 218.962 331.475C219.62 331.344 220.409 331.738 220.54 332.395C220.672 333.052 220.277 333.841 219.62 333.972C214.492 335.418 208.969 336.075 203.446 336.075Z" fill="#333333"/>
<path d="M206.996 364.069C204.235 364.069 201.342 363.806 198.449 363.412C196.871 363.149 195.688 362.097 195.162 360.783C194.899 360.126 194.767 359.337 194.899 358.549L195.425 355.526C195.556 354.475 196.214 353.686 197.002 353.029C197.66 352.503 198.58 352.109 199.632 352.109C209.889 351.977 216.201 342.909 217.779 333.972C217.91 333.446 217.91 332.921 218.042 332.395C218.568 328.583 218.305 324.641 217.253 320.829C217.121 320.172 217.516 319.384 218.173 319.252C218.831 319.121 219.62 319.515 219.751 320.172C220.803 324.246 221.066 328.583 220.54 332.658C220.54 333.183 220.409 333.841 220.277 334.366C218.436 344.355 211.336 354.475 199.501 354.606C199.106 354.606 198.843 354.737 198.58 355C198.317 355.263 198.054 355.526 198.054 355.92L197.528 358.943C197.528 359.206 197.528 359.469 197.66 359.732C197.923 360.257 198.317 360.652 198.975 360.783C223.433 364.2 238.161 353.292 243.815 327.138C244.999 321.618 244.999 315.309 243.815 308.081C243.684 307.424 244.21 306.635 244.867 306.504C245.525 306.372 246.314 306.898 246.445 307.555C247.76 315.178 247.76 321.749 246.445 327.664C240.922 351.977 227.773 364.069 206.996 364.069Z" fill="#333333"/>
<path d="M235.794 290.076C235.399 290.076 235.005 289.813 234.742 289.55C228.825 280.876 221.461 263.133 237.898 242.762C238.161 242.499 238.161 242.236 238.161 241.842C238.161 241.579 238.029 241.316 237.898 241.185L234.61 237.373C234.479 237.242 234.347 237.11 234.216 237.11C233.822 236.979 233.427 236.979 233.033 237.11C220.935 242.893 211.073 256.562 208.443 271.019C208.048 273.253 207.917 275.356 207.917 277.59C207.917 278.379 207.391 278.904 206.602 278.904C205.813 278.904 205.287 278.379 205.287 277.59C205.287 275.224 205.418 272.859 205.813 270.493C208.574 254.985 218.831 240.922 231.849 234.745C232.901 234.219 234.085 234.219 235.136 234.613C235.662 234.745 236.188 235.139 236.583 235.665L239.87 239.476C240.396 240.002 240.659 240.79 240.791 241.579C240.922 242.63 240.659 243.682 240.002 244.47C225.274 262.607 230.271 278.247 236.977 288.104C237.372 288.761 237.24 289.55 236.583 289.944C236.32 289.944 236.057 290.076 235.794 290.076Z" fill="#333333"/>
<path d="M195.03 361.703C194.241 361.703 193.452 361.572 192.663 361.44C186.614 360.389 183.064 354.869 183.721 350.663C184.379 347.246 187.009 345.8 189.244 346.195C191.743 346.589 193.847 348.692 195.819 350.532C196.739 351.452 197.528 352.24 198.449 352.897C198.975 353.292 199.106 354.212 198.712 354.737C198.317 355.263 197.397 355.395 196.871 355C195.951 354.343 194.899 353.292 193.978 352.503C192.269 350.795 190.428 349.086 188.85 348.823C187.798 348.692 186.614 349.349 186.351 351.058C185.825 353.817 188.718 357.892 193.189 358.68C194.11 358.812 195.162 358.943 196.214 358.812C196.871 358.68 197.528 359.206 197.66 359.995C197.791 360.652 197.265 361.309 196.477 361.44C195.951 361.703 195.425 361.703 195.03 361.703Z" fill="#333333"/>
<path d="M239.476 242.893C238.95 242.893 238.424 242.63 238.292 242.105C238.029 241.448 238.424 240.659 239.081 240.396C243.815 238.556 247.629 236.453 248.549 235.533C248.418 235.27 248.155 235.008 247.892 234.876C247.366 234.482 246.445 234.219 245.525 234.088C243.421 233.693 238.292 234.088 235.663 236.716C235.137 237.242 234.348 237.242 233.822 236.716C233.296 236.19 233.296 235.402 233.822 234.876C237.372 231.328 243.552 231.196 246.051 231.59C246.577 231.722 248.023 231.985 249.338 232.773C251.179 233.956 251.311 235.402 251.179 236.19C250.653 238.819 240.528 242.762 240.133 242.893C239.739 242.893 239.607 242.893 239.476 242.893Z" fill="#333333"/>
<path d="M168.073 321.355C167.81 321.355 167.547 321.224 167.284 321.092C162.025 317.412 153.74 309.527 144.404 293.493C139.67 295.727 121.261 304.401 114.16 306.504C113.765 306.635 113.502 306.635 113.239 306.635C112.319 306.635 111.267 306.372 110.478 305.847C107.453 303.744 106.007 299.275 107.19 295.99C107.322 295.595 107.585 295.333 107.848 294.938C107.848 294.807 107.979 294.675 108.242 294.544C118.894 283.767 130.86 275.356 140.722 271.544C145.324 269.836 149.269 269.179 152.162 269.704C157.948 270.756 168.994 279.561 177.41 287.447C177.936 287.973 177.936 288.761 177.41 289.287C176.884 289.813 176.095 289.813 175.569 289.287C167.153 281.401 156.502 273.121 151.636 272.201C149.269 271.807 145.719 272.333 141.643 273.91C132.043 277.59 120.472 285.738 110.083 296.384L109.952 296.515C109.82 296.647 109.82 296.778 109.689 296.778C108.9 298.881 109.952 302.167 111.924 303.481C112.187 303.744 112.582 303.875 113.108 303.744C113.239 303.744 113.371 303.744 113.502 303.744C121.261 301.51 144.273 290.47 144.404 290.338C144.667 290.207 144.93 290.207 145.193 290.207C145.85 290.338 145.982 290.601 146.508 291.653C155.713 307.424 163.734 315.047 168.862 318.726C169.52 319.121 169.651 319.909 169.125 320.566C168.862 321.224 168.468 321.355 168.073 321.355Z" fill="#333333"/>
<path d="M107.716 309.527C107.059 309.527 106.533 309.527 105.875 309.395C98.1171 307.949 93.7778 297.567 94.1722 295.201C94.5667 293.23 96.1447 291.258 99.6951 291.784C100.616 291.915 105.744 293.23 109.426 294.675C110.083 294.938 110.346 295.727 110.083 296.384C109.82 297.041 109.031 297.304 108.374 297.041C104.955 295.595 100.09 294.413 99.3006 294.281C97.8541 294.018 97.0652 294.413 96.9337 295.595C96.8022 297.041 100.616 305.715 106.533 306.767C108.9 307.161 110.741 306.504 112.319 304.664C112.845 304.138 113.634 304.007 114.16 304.532C114.686 305.058 114.817 305.847 114.291 306.372C112.319 308.475 110.215 309.527 107.716 309.527Z" fill="#333333"/>
<path d="M184.905 276.801C184.51 276.801 184.116 276.538 183.853 276.144C172.15 258.27 161.235 252.093 156.633 251.173C143.878 248.807 123.89 251.962 110.741 253.933C109.426 254.196 108.111 254.327 107.059 254.459C106.796 254.459 106.533 254.59 106.27 254.722C106.138 254.853 106.007 254.853 105.875 254.984C104.429 256.562 103.64 259.059 103.246 260.767C102.983 261.95 103.64 263.002 104.824 263.264H104.955C108.9 264.053 133.884 267.864 134.147 267.864C136.646 268.127 139.276 269.31 142.037 271.413C142.563 271.807 142.694 272.727 142.3 273.253C141.906 273.779 140.985 273.91 140.459 273.516C138.092 271.676 135.988 270.624 133.884 270.493C132.832 270.361 108.374 266.55 104.429 265.893C104.298 265.893 104.298 265.893 104.166 265.761C101.668 265.104 100.09 262.739 100.616 260.11C101.273 256.956 102.457 254.59 103.903 253.013C104.166 252.75 104.561 252.487 104.824 252.225C105.349 251.962 105.875 251.699 106.533 251.699C107.716 251.567 108.9 251.305 110.215 251.173C123.628 249.07 143.746 246.047 157.028 248.413C162.024 249.333 173.728 255.904 185.957 274.436C186.351 275.093 186.22 275.881 185.562 276.276C185.431 276.801 185.168 276.801 184.905 276.801Z" fill="#333333"/>
<path d="M103.246 266.287C102.851 266.287 102.325 266.287 101.931 266.156C99.1691 265.63 96.8022 263.133 95.2242 258.927C93.9093 255.51 93.3833 251.699 93.9093 248.939C94.0408 247.887 94.3037 246.967 94.6982 246.31C95.0927 245.653 95.8817 244.996 97.4597 245.259C100.879 245.916 105.875 252.356 106.533 253.013C106.927 253.539 106.927 254.459 106.27 254.853C105.744 255.247 104.823 255.247 104.429 254.59C101.799 251.042 98.3801 248.019 97.0652 247.756H96.9337C96.8022 248.15 96.5392 249.07 96.5392 249.465C96.1447 251.699 96.5392 255.116 97.7227 258.007C98.9061 261.162 100.616 263.264 102.457 263.527C103.114 263.659 103.64 263.659 104.166 263.527H104.297C104.955 263.396 105.612 263.79 105.875 264.447C106.138 265.104 105.744 265.893 104.955 266.024C104.823 266.024 104.692 266.024 104.56 266.156C104.166 266.287 103.771 266.287 103.246 266.287Z" fill="#333333"/>
<path d="M244.341 185.46C244.21 185.46 244.21 185.46 244.341 185.46C243.552 185.328 243.026 184.803 243.026 184.014C244.078 172.448 245.788 163.117 250.522 155.232C250.916 154.574 251.705 154.443 252.363 154.837C253.02 155.232 253.151 156.02 252.757 156.677C248.286 164.169 246.577 173.106 245.656 184.277C245.525 184.934 244.999 185.46 244.341 185.46Z" fill="#92B700"/>
<path d="M226.721 178.888C226.458 178.888 226.195 178.757 225.932 178.626C225.406 178.231 225.274 177.311 225.669 176.786C232.375 167.717 237.24 159.832 238.687 151.157C238.818 150.5 239.476 149.975 240.265 150.106C240.922 150.237 241.448 150.895 241.317 151.683C239.739 160.883 234.742 169.031 227.773 178.494C227.51 178.626 227.115 178.888 226.721 178.888Z" fill="#92B700"/>
<path d="M251.574 157.203C249.207 157.203 247.103 156.809 245.13 156.02C225.537 148.529 218.436 105.027 246.708 24.4619C246.84 23.9362 247.366 23.6733 247.76 23.5419C266.696 21.7019 317.848 41.0217 330.734 54.9529C331.129 55.3472 331.129 55.8729 330.997 56.3986C302.2 127.369 271.693 157.203 251.574 157.203ZM248.944 26.1704C221.592 104.107 228.299 146.82 246.051 153.523C263.803 160.226 297.071 132.626 328.368 56.1357C315.086 42.8616 267.616 24.9876 248.944 26.1704Z" fill="#92B700"/>
<path d="M251.442 194.528C250.916 194.528 250.39 194.134 250.127 193.608C248.418 188.483 242.895 183.62 235.662 180.86C228.43 178.1 221.066 178.1 216.464 180.86C215.806 181.254 215.018 180.991 214.623 180.334C214.229 179.677 214.492 178.888 215.149 178.494C220.54 175.34 228.562 175.34 236.714 178.363C244.867 181.386 250.785 186.774 252.757 192.688C253.02 193.345 252.625 194.134 251.968 194.397C251.705 194.528 251.574 194.528 251.442 194.528Z" fill="#92B700"/>
<path d="M253.283 201.362C253.152 201.362 253.02 201.362 252.757 201.231C252.1 200.968 251.705 200.18 251.968 199.522L252.231 198.997C253.02 197.025 252.363 194.791 250.916 194.265L214.755 180.597C214.097 180.334 213.308 180.466 212.519 180.86C211.73 181.386 210.941 182.174 210.547 183.225L210.284 183.751C210.021 184.408 209.232 184.803 208.574 184.54C207.917 184.277 207.522 183.488 207.785 182.831L208.048 182.305C208.706 180.728 209.758 179.414 211.073 178.626C212.519 177.706 214.097 177.574 215.544 178.1L251.705 191.768C254.598 192.82 255.781 196.5 254.466 199.917L254.204 200.442C254.335 201.1 253.809 201.362 253.283 201.362Z" fill="#92B700"/>
<path d="M254.335 213.717C253.678 213.717 253.152 213.585 252.494 213.454L200.947 193.871C198.317 192.951 197.003 189.928 198.054 187.3L199.369 183.751C199.895 182.437 200.816 181.517 201.999 180.991C203.183 180.466 204.629 180.334 205.813 180.86L257.359 200.442C259.989 201.494 261.304 204.385 260.252 207.014L258.937 210.562C258.28 212.402 256.439 213.717 254.335 213.717ZM204.103 183.094C203.709 183.094 203.446 183.225 203.051 183.357C202.525 183.62 201.999 184.145 201.736 184.671L200.421 188.22C199.895 189.403 200.553 190.848 201.868 191.374L253.415 210.957C254.598 211.482 256.044 210.825 256.57 209.511L257.885 205.962C258.411 204.779 257.754 203.334 256.439 202.808L204.892 183.225C204.761 183.094 204.366 183.094 204.103 183.094Z" fill="#92B700"/>
<path d="M263.408 109.626C263.145 109.626 262.751 109.626 262.488 109.495C261.173 108.969 260.384 107.524 260.91 106.078L273.139 73.8783L270.115 74.9297C268.8 75.324 267.222 74.6669 266.827 73.2212C266.433 71.9069 267.09 70.3298 268.537 69.9355L276.821 67.1756C277.741 66.9127 278.793 67.1756 279.582 67.8327C280.24 68.6213 280.503 69.6727 280.108 70.5927L265.907 107.918C265.512 108.969 264.46 109.626 263.408 109.626Z" fill="#92B700"/>
<path d="M297.203 121.061C296.677 121.061 296.151 120.666 295.888 120.141C295.625 119.483 296.019 118.695 296.808 118.563C318.637 112.124 337.572 93.1981 350.196 65.3356C350.196 65.2042 350.196 65.2042 350.196 65.2042C350.196 65.2042 350.196 65.0728 350.064 65.0728L338.493 60.7357C337.572 60.3414 336.389 60.6043 335.468 61.2614C332.707 63.2328 329.814 64.4156 326.921 64.4156C326.132 64.4156 325.606 63.8899 325.606 63.1014C325.606 62.3128 326.132 61.7871 326.921 61.7871C329.156 61.6557 331.655 60.7357 333.89 59.1586C335.468 57.9757 337.572 57.7129 339.413 58.37L350.985 62.7071C351.774 62.9699 352.3 63.6271 352.563 64.2842C352.826 65.0728 352.826 65.8613 352.563 66.5185C339.676 94.9067 320.083 114.358 297.597 120.929C297.466 121.061 297.334 121.061 297.203 121.061Z" fill="#92B700"/>
<path d="M229.745 95.5638C229.351 95.5638 228.825 95.3009 228.693 94.9066C216.201 74.9298 214.491 47.593 223.696 17.6277C223.959 16.8391 224.485 16.182 225.143 15.9191C225.8 15.5248 226.721 15.5248 227.378 15.7877L238.95 20.1248C240.791 20.7819 242.106 22.359 242.5 24.3304C243.158 27.0904 244.341 29.4561 246.051 31.0332C246.577 31.5589 246.577 32.3475 246.051 32.8732C245.525 33.3989 244.736 33.3989 244.21 32.8732C242.106 30.9018 240.659 28.1418 240.002 24.8561C239.739 23.8047 239.081 22.8847 238.029 22.4905L226.458 18.1534C226.326 18.1534 226.326 18.1534 226.326 18.1534C226.326 18.1534 226.195 18.1534 226.195 18.2848C217.253 47.4615 218.962 74.1412 230.929 93.4609C231.323 94.1181 231.06 94.9066 230.534 95.3009C230.14 95.4323 230.008 95.5638 229.745 95.5638Z" fill="#92B700"/>
<path d="M283.79 251.567C278.53 251.567 274.191 249.465 272.35 245.522C269.589 239.345 274.323 231.196 283.001 227.122C291.68 223.179 301.016 224.888 303.909 230.933C306.671 237.11 301.937 245.259 293.258 249.333C290.102 250.91 286.815 251.567 283.79 251.567ZM292.601 227.648C289.971 227.648 287.078 228.305 284.185 229.619C276.821 233.036 272.613 239.739 274.849 244.47C277.084 249.333 284.842 250.385 292.206 246.967C299.57 243.55 303.778 236.848 301.542 232.116C300.096 229.225 296.677 227.648 292.601 227.648Z" fill="#333333"/>
<path d="M287.472 258.927C286.42 258.927 285.5 258.796 284.579 258.664C280.503 258.007 277.478 255.904 276.163 252.882C275.9 252.225 276.163 251.436 276.821 251.173C277.478 250.91 278.267 251.173 278.53 251.83C279.582 254.065 281.818 255.642 285.105 256.167C288.393 256.693 292.338 256.167 296.019 254.459C303.383 251.042 307.591 244.339 305.356 239.608C305.093 238.95 305.356 238.162 306.013 237.899C306.671 237.636 307.46 237.899 307.723 238.556C310.484 244.733 305.75 252.882 297.071 256.956C293.784 258.27 290.497 258.927 287.472 258.927Z" fill="#333333"/>
<path d="M277.215 253.802C276.689 253.802 276.295 253.539 276.032 253.013L272.35 245.653C272.087 244.996 272.35 244.208 273.008 243.945C273.665 243.682 274.454 243.945 274.717 244.602L278.399 251.962C278.662 252.619 278.399 253.407 277.741 253.67C277.61 253.67 277.478 253.802 277.215 253.802Z" fill="#333333"/>
<path d="M306.276 240.265C305.75 240.265 305.356 240.002 305.093 239.476L301.411 232.116C301.148 231.459 301.411 230.671 302.068 230.408C302.726 230.145 303.515 230.408 303.778 231.065L307.46 238.425C307.723 239.082 307.46 239.87 306.802 240.133C306.671 240.265 306.539 240.265 306.276 240.265Z" fill="#333333"/>
<path d="M95.8817 356.315C95.3558 356.315 94.9613 356.052 94.6983 355.657C93.2518 353.029 92.3313 349.875 92.3313 346.852C92.3313 336.863 100.484 328.715 110.478 328.715C111.267 328.715 111.793 329.241 111.793 330.029C111.793 330.818 111.267 331.344 110.478 331.344C101.931 331.344 94.9613 338.309 94.9613 346.852C94.9613 349.48 95.6187 352.109 96.9337 354.475C97.3282 355.132 97.0652 355.92 96.4077 356.315C96.4077 356.315 96.1447 356.315 95.8817 356.315Z" fill="#333333"/>
<path d="M104.56 352.766C104.034 352.766 103.64 352.503 103.377 352.109C102.588 350.663 102.062 348.955 102.062 347.115C102.062 341.595 106.664 336.995 112.187 336.995C112.976 336.995 113.502 337.521 113.502 338.309C113.502 339.098 112.976 339.623 112.187 339.623C108.111 339.623 104.692 343.041 104.692 347.115C104.692 348.429 105.086 349.612 105.612 350.795C106.007 351.452 105.744 352.24 105.086 352.635C104.955 352.635 104.823 352.766 104.56 352.766Z" fill="#333333"/>
<path d="M112.713 339.623C110.215 339.623 107.585 337.389 107.059 334.498C106.664 332.921 107.059 331.343 107.848 330.292C108.637 329.372 109.689 328.846 110.872 328.846C113.371 328.846 116.001 331.081 116.527 333.972C116.921 335.549 116.527 337.126 115.738 338.178C114.949 339.098 113.897 339.623 112.713 339.623ZM110.872 331.343C110.478 331.343 110.083 331.475 109.82 331.869C109.426 332.395 109.294 333.052 109.557 333.972C109.952 335.549 111.398 336.995 112.713 336.995C113.108 336.995 113.502 336.863 113.765 336.469C114.16 335.943 114.291 335.286 114.028 334.366C113.634 332.789 112.187 331.343 110.872 331.343Z" fill="#333333"/>
<path d="M99.4322 358.286C98.1172 358.286 96.8023 357.892 95.8818 357.235C94.8298 356.446 94.3038 355.395 94.4353 354.212C94.4353 352.766 95.4873 351.32 97.0653 350.269C99.6952 348.56 103.246 348.56 105.087 350.269C106.007 351.058 106.402 352.109 106.402 353.292C106.27 354.737 105.481 356.052 104.035 357.103C102.72 357.76 101.01 358.286 99.4322 358.286ZM101.405 351.452C100.484 351.452 99.4322 351.715 98.5117 352.372C97.7227 352.898 97.1968 353.686 97.0653 354.212C97.0653 354.606 97.1967 354.869 97.5912 355.132C98.6432 355.92 101.01 355.789 102.457 354.737C103.246 354.212 103.64 353.555 103.772 352.898C103.772 352.503 103.64 352.24 103.377 352.109C102.983 351.583 102.194 351.452 101.405 351.452Z" fill="#333333"/>
<path d="M184.51 219.894C184.247 219.894 184.116 219.894 183.853 219.894L158.343 214.768C157.291 214.505 156.502 213.848 156.107 212.796C155.713 211.745 155.976 210.694 156.765 209.905L168.599 196.894C169.257 196.237 170.046 195.842 170.966 195.974C171.887 195.974 172.676 196.5 173.202 197.157L187.009 215.294C187.798 216.345 187.798 217.659 187.14 218.711C186.483 219.368 185.562 219.894 184.51 219.894ZM170.703 198.34C170.703 198.34 170.572 198.34 170.44 198.471L158.606 211.482C158.474 211.614 158.474 211.745 158.474 211.876C158.474 212.008 158.606 212.139 158.737 212.139L184.247 217.265C184.379 217.265 184.51 217.265 184.642 217.134C184.773 217.002 184.773 216.871 184.642 216.739L171.098 198.471C170.966 198.471 170.835 198.34 170.703 198.34Z" fill="#333333"/>
<path d="M184.51 226.071C184.247 226.071 184.116 226.071 183.853 226.071L158.343 220.945C157.028 220.682 155.976 219.499 155.976 218.185C155.976 218.185 155.976 218.185 155.976 218.054V212.008C155.976 211.219 156.502 210.694 157.291 210.694C158.08 210.694 158.606 211.219 158.606 212.008V218.054C158.606 218.185 158.606 218.316 158.869 218.448L184.379 223.573C184.51 223.573 184.642 223.573 184.642 223.442C184.773 223.311 184.773 223.311 184.773 223.179C184.773 222.391 185.299 221.865 185.957 221.865C186.746 221.865 187.272 222.391 187.272 223.048C187.272 223.968 186.877 224.888 186.22 225.413C185.957 225.808 185.168 226.071 184.51 226.071Z" fill="#333333"/>
<path d="M186.22 224.362C185.431 224.362 184.905 223.836 184.905 223.048V217.134C184.905 216.345 185.431 215.819 186.22 215.819C187.009 215.819 187.535 216.345 187.535 217.134V223.048C187.535 223.836 186.877 224.362 186.22 224.362Z" fill="#333333"/>
<path d="M52.4879 313.995C51.173 313.995 49.858 313.338 49.069 312.155L31.4485 287.184C30.6595 286.133 30.528 284.818 30.791 283.636C31.1855 282.453 31.9745 281.401 33.158 280.876C33.2895 280.876 33.421 280.744 33.5525 280.744L62.4817 276.801C64.0596 276.144 65.7691 276.538 67.0841 277.721C68.399 279.036 68.662 280.876 68.0045 282.453L56.6958 311.367C56.0384 312.812 54.7234 313.732 53.2769 313.864C52.7509 313.995 52.6194 313.995 52.4879 313.995ZM51.173 310.578C51.699 311.235 52.3565 311.235 52.6194 311.235C52.8824 311.235 53.5399 311.104 53.9344 310.315L65.2431 281.401C65.6376 280.35 65.1116 279.693 64.9801 279.561C64.8486 279.43 64.0596 278.773 63.1392 279.298C63.0077 279.298 62.8762 279.43 62.7447 279.43L33.9469 283.373C33.5525 283.636 33.2895 283.898 33.158 284.293C33.0265 284.818 33.158 285.213 33.421 285.607L51.173 310.578Z" fill="#333333"/>
<path d="M58.0108 316.361C57.7478 316.361 57.4848 316.361 57.2218 316.229H57.0903C56.9588 316.229 56.8273 316.098 56.8273 316.098L51.699 313.732C51.0415 313.469 50.7785 312.681 51.0415 312.024C51.3045 311.367 52.0935 311.104 52.7509 311.367L57.7478 313.601C58.4053 313.732 59.0628 313.469 59.4573 312.681L70.766 283.767C71.0289 283.11 70.8975 282.584 70.766 282.321C70.503 281.927 70.1085 281.533 69.5825 281.401C68.925 281.27 68.399 280.613 68.5305 279.824C68.662 279.167 69.3195 278.641 70.1085 278.773C71.4234 279.036 72.4754 279.824 73.1329 281.007C73.7904 282.19 73.7904 283.504 73.2644 284.687L61.9557 313.601C61.1667 315.309 59.5888 316.361 58.0108 316.361Z" fill="#333333"/>
<path d="M69.977 281.533C69.8455 281.533 69.5825 281.533 69.451 281.401L64.5856 279.167C63.9281 278.904 63.6651 278.116 63.9281 277.458C64.1911 276.801 64.9801 276.538 65.6376 276.801L70.503 279.036C71.1604 279.298 71.4234 280.087 71.1604 280.744C70.8975 281.27 70.503 281.533 69.977 281.533Z" fill="#333333"/>
<path d="M298.781 167.191C295.888 167.191 293.521 164.826 293.521 161.934C293.521 159.043 295.888 156.677 298.781 156.677C301.674 156.677 304.041 159.043 304.041 161.934C304.041 164.826 301.674 167.191 298.781 167.191ZM298.781 159.174C297.334 159.174 296.151 160.357 296.151 161.803C296.151 163.249 297.334 164.431 298.781 164.431C300.227 164.431 301.411 163.249 301.411 161.803C301.411 160.357 300.227 159.174 298.781 159.174Z" fill="#333333"/>
<path d="M220.54 156.414C219.883 156.414 219.225 155.889 219.225 155.231L218.962 151.42L215.412 150.237C214.886 150.106 214.492 149.58 214.492 149.054L214.229 145.243L210.678 144.06C210.152 143.929 209.758 143.403 209.758 142.877L209.495 138.146C209.495 137.357 210.021 136.832 210.678 136.7C211.336 136.7 211.993 137.226 212.125 137.883L212.388 141.695L215.938 142.877C216.464 143.009 216.859 143.534 216.859 144.06L217.122 147.872L220.672 149.054C221.198 149.186 221.592 149.712 221.592 150.237L221.855 154.969C221.855 155.757 221.329 156.414 220.54 156.414Z" fill="#333333"/>
<path d="M291.811 311.892C291.154 311.892 290.497 311.367 290.497 310.709C290.497 309.921 291.023 309.395 291.68 309.264L295.493 309.001L296.677 305.452C296.808 304.927 297.334 304.532 297.86 304.532L302.594 304.27C303.383 304.27 303.909 304.795 304.041 305.452C304.041 306.241 303.515 306.767 302.857 306.898L299.044 307.161L297.86 310.709C297.729 311.235 297.203 311.629 296.677 311.629L291.811 311.892Z" fill="#333333"/>
<path d="M201.342 46.4101C197.792 46.4101 194.767 43.5187 194.767 39.8388C194.767 36.2902 197.66 33.2674 201.342 33.2674C204.892 33.2674 207.917 36.1588 207.917 39.8388C207.917 43.5187 204.892 46.4101 201.342 46.4101ZM201.342 36.0274C199.238 36.0274 197.397 37.7359 197.397 39.9702C197.397 42.073 199.107 43.913 201.342 43.913C203.577 43.913 205.287 42.2044 205.287 39.9702C205.287 37.7359 203.446 36.0274 201.342 36.0274Z" fill="#333333"/>
<path d="M39.2068 164.957C36.4454 164.957 34.2099 162.723 34.2099 159.963C34.2099 157.203 36.4454 154.969 39.2068 154.969C41.9682 154.969 44.2037 157.203 44.2037 159.963C44.0722 162.723 41.8367 164.957 39.2068 164.957ZM39.2068 157.597C37.8918 157.597 36.8399 158.649 36.8399 159.963C36.8399 161.277 37.8918 162.329 39.2068 162.329C40.5218 162.329 41.5737 161.277 41.5737 159.963C41.4422 158.649 40.3903 157.597 39.2068 157.597Z" fill="#333333"/>
<path d="M394.905 161.277C392.538 161.277 390.565 159.306 390.565 156.94C390.565 154.574 392.538 152.603 394.905 152.603C397.272 152.603 399.244 154.574 399.244 156.94C399.244 159.306 397.272 161.277 394.905 161.277ZM394.905 155.363C393.984 155.363 393.195 156.152 393.195 157.072C393.195 157.992 393.984 158.78 394.905 158.78C395.825 158.78 396.614 157.992 396.614 157.072C396.614 156.02 395.825 155.363 394.905 155.363Z" fill="#333333"/>
<path d="M212.914 106.209C212.914 106.209 212.782 106.209 212.914 106.209L200.553 105.026C200.027 105.026 199.632 104.632 199.501 104.238C199.369 103.844 199.369 103.318 199.632 102.924L206.996 93.0666C207.259 92.6724 207.785 92.5409 208.18 92.5409C208.706 92.5409 209.1 92.9352 209.232 93.3295L214.097 104.369C214.229 104.764 214.229 105.289 213.966 105.684C213.703 105.946 213.308 106.209 212.914 106.209ZM203.183 102.529L210.81 103.318L207.785 96.3523L203.183 102.529Z" fill="#333333"/>
</svg>
