<svg width="491" height="286" viewBox="0 0 491 286" fill="none" xmlns="http://www.w3.org/2000/svg">
<g clip-path="url(#clip0)">
<path d="M485.613 284.306C473.07 261.72 440.623 239.595 445.188 197.708C449.934 154.229 489.923 132.233 477.969 103.025C469.915 83.313 444.701 76.1264 442.213 75.4335C421.872 69.9152 407.816 78.6931 393.785 81.388C338.637 92.0139 310.678 3.90136 249.219 0.102746C201.356 -2.82322 146.105 46.2252 132.972 95.5559C120.352 142.936 149.311 180.229 125.533 205.151C107.039 224.555 79.0802 212.928 67.4092 231.254C58.6112 245.088 65.1777 266.417 74.2579 284.28H485.613V284.306Z" fill="#92BF20" fill-opacity="0.26"/>
<path d="M334.097 142.859L331.608 124.995L317.013 129.281L314.448 148.608L334.097 142.859Z" fill="#FFADAF"/>
<path d="M303.803 91.2694L305.342 83.9545C309.087 82.1836 315.603 79.7452 323.785 79.9249C332.07 80.1046 349.666 83.1589 352.437 94.6317C354.309 102.409 348.897 112.162 341.689 115.267C331.172 119.81 313.833 111.418 303.803 91.2694Z" fill="black"/>
<path d="M343.51 90.9617C343.51 90.9617 342.253 124.636 335.969 128.948C329.685 133.285 310.832 138.804 301.264 132.259C291.696 125.714 306.138 81.8501 306.138 81.8501C306.138 81.8501 328.761 69.2736 343.51 90.9617Z" fill="#FFADAF"/>
<path d="M350.179 90.9101C350.179 90.9101 306.138 108.928 290.363 88.2921C274.588 67.6821 293.8 31.2359 350.179 90.9101Z" fill="black"/>
<path d="M350.308 91.5264C350.308 91.5264 300.058 106.721 285.771 83.6725C271.484 60.6241 297.365 23.9213 350.308 91.5264Z" stroke="black" stroke-width="4.3065" stroke-miterlimit="10" stroke-linecap="round"/>
<path d="M351.077 284.922C351.077 284.922 367.545 213.313 334.25 142.91L314.448 148.608L287.182 284.306L351.077 284.922Z" fill="white"/>
<path d="M192.532 183.848C192.378 184.387 192.045 184.823 191.583 185.131C189.326 186.62 183.118 190.085 175.09 188.827C167.856 187.698 163.137 183.335 160.52 180.127C159.289 178.612 160.366 176.354 162.29 176.328C164.009 176.328 165.984 176.405 168.138 176.687C175.808 177.637 180.63 180.255 181.554 178.869C182.656 177.201 176.603 172.298 177.732 170.681C178.629 169.398 183.298 171.246 185.324 172.196C188.171 173.556 191.326 175.045 192.481 178.484C193.224 180.563 192.917 182.565 192.532 183.848Z" fill="#E59EA3"/>
<path d="M312.704 195.269C296.467 199.325 271.125 203.56 240.498 200.043C216.361 197.271 196.867 190.598 183.246 184.669C183.246 183.104 183.221 181.512 183.221 179.947C197.713 181.949 217.362 183.129 240.19 180.049C268.508 176.225 290.773 167.344 305.548 160.055C307.907 171.785 310.293 183.514 312.704 195.269Z" fill="#E59EA3"/>
<path d="M300.982 201.429L293.877 161.929L315.526 151.688L325.324 176.071L336.328 192.549L300.982 201.429Z" fill="white"/>
<path d="M327.273 12.5765C321.579 27.2063 344.895 55.5163 372.675 63.1905C396.863 69.8894 420.897 59.9822 420.667 56.2606C420.436 52.154 390.912 59.7769 371.367 41.9901C354.899 27.001 357.695 5.05625 344.998 2.61794C338.175 1.30896 329.762 6.18557 327.273 12.5765Z" fill="#ECF5D5"/>
<path d="M127.713 175.943C130.868 180.691 133.869 183.514 135.87 185.157C136.563 185.722 137.101 186.132 137.922 186.286C142.36 187.236 147.156 179.613 147.952 178.33C148.311 178.638 148.67 178.971 149.029 179.279C147.028 187.031 142.924 192.421 138.256 192.831C136.306 193.011 134.742 192.267 132.843 191.368C130.253 190.136 125.379 187.262 121.198 180.64C123.353 179.048 125.533 177.509 127.713 175.943Z" fill="#FFADAF"/>
<path d="M116.94 180.64L123.378 186.928L131.099 179.972L123.968 169.5L116.94 180.64Z" fill="#DD2C2C"/>
<path d="M45.5551 184.079C49.6079 186.671 56.1231 190.11 64.7929 191.933C71.6159 193.37 77.5412 193.319 81.7735 192.934C81.9274 192.497 82.0556 192.087 82.2095 191.65C78.0798 190.88 72.6163 189.417 66.691 186.517C59.3294 182.898 54.0454 178.458 50.6852 175.147C48.9923 178.124 47.2737 181.102 45.5551 184.079Z" fill="#FFADAF"/>
<path d="M19.8278 278.685L13.4152 266.442L13.646 265.903C14.0564 264.902 16.7754 264.209 17.8527 264.158C19.5713 264.081 19.4687 265.005 20.3151 266.622L22.6237 271.011C24.0344 273.706 23.0084 277.042 20.2895 278.454L19.8278 278.685Z" fill="#ECF5D5"/>
<path d="M19.443 279.07L12.5687 265.98C12.5431 265.929 12.5687 265.852 12.62 265.826L13.6973 265.262C13.7486 265.236 13.8256 265.262 13.8512 265.313L20.7255 278.428C20.7512 278.48 20.7255 278.557 20.6742 278.582L19.5969 279.147C19.5456 279.173 19.4687 279.147 19.443 279.07Z" fill="#92BF20"/>
<path d="M19.6482 268.11L18.3657 265.647C18.1861 265.287 18.3144 264.851 18.6735 264.671L22.1876 262.823L24.137 266.545L20.6229 268.393C20.2638 268.598 19.8277 268.47 19.6482 268.11Z" fill="#FFADAF"/>
<path d="M22.3159 270.703L20.1869 270.831" stroke="white" stroke-width="1.2908" stroke-miterlimit="10"/>
<path d="M22.7775 271.576L20.6486 271.73" stroke="white" stroke-width="1.2908" stroke-miterlimit="10"/>
<path d="M68.2557 282.869L54.5071 281.355L54.1737 280.867C53.5837 279.969 54.5071 277.325 55.0714 276.401C55.9692 274.938 56.6874 275.528 58.5086 275.734L63.4335 276.273C66.4602 276.606 68.6405 279.327 68.307 282.356L68.2557 282.869Z" fill="#ECF5D5"/>
<path d="M68.3583 283.408L53.6606 281.791C53.6093 281.791 53.558 281.714 53.558 281.662L53.6863 280.456C53.6863 280.405 53.7632 280.354 53.8145 280.354L68.5122 281.97C68.5635 281.97 68.6148 282.047 68.6148 282.099L68.4866 283.305C68.4866 283.382 68.4353 283.433 68.3583 283.408Z" fill="#92BF20"/>
<path d="M59.7141 277.376L56.9695 276.966C56.5848 276.914 56.3026 276.555 56.3539 276.144L56.9439 272.217L61.0993 272.833L60.5093 276.76C60.4837 277.145 60.1245 277.428 59.7141 277.376Z" fill="#FFADAF"/>
<path d="M63.023 276.324L61.9457 278.197" stroke="white" stroke-width="1.2908" stroke-miterlimit="10"/>
<path d="M64.0234 276.452L62.946 278.3" stroke="white" stroke-width="1.2908" stroke-miterlimit="10"/>
<path d="M42.1436 167.704L42.9131 162.057L47.5302 163.417L48.351 169.526L42.1436 167.704Z" fill="#FFADAF"/>
<path d="M49.0692 150.405L48.0689 148.274C48.0689 148.274 36.7314 146.324 34.3459 154.973L39.1425 160.543L41.605 158.772L49.0692 150.405Z" fill="black"/>
<path d="M37.4496 153.69C37.4496 153.69 40.2711 163.957 42.5284 164.829C44.7856 165.702 50.9673 166.036 53.4554 163.315C55.9179 160.594 48.2997 148.146 48.2997 148.146C48.2997 148.146 40.3994 145.939 37.4496 153.69Z" fill="#FFADAF"/>
<path d="M35.2437 153.998C35.2437 153.998 47.1198 155.872 49.7874 149.891C52.4551 143.911 45.6321 136.057 35.2437 153.998Z" fill="black"/>
<path d="M42.5284 210.156C46.5298 215.52 52.4294 224.863 55.6614 237.85C59.5602 253.609 57.5595 266.802 56.0205 273.706C57.7904 274.065 59.5602 274.425 61.3301 274.758C63.1513 265.262 64.6647 251.402 62.3818 235.001C60.7402 223.143 57.5852 213.313 54.5841 205.896C50.557 207.333 46.5555 208.744 42.5284 210.156Z" fill="#92BF20"/>
<path d="M37.3983 205.767C40.5533 204.355 43.6827 202.969 46.8377 201.558C48.0432 203.919 57.6621 223.605 47.7354 244.266C40.2199 259.897 26.3686 266.057 22.7519 267.546C22.0594 266.083 21.3925 264.645 20.6999 263.182C23.0854 262.207 36.2697 256.586 42.0154 241.854C49.2488 223.374 38.3217 207.102 37.3983 205.767Z" fill="#92BF20"/>
<path d="M37.1418 211.979C37.1418 211.979 31.55 189.982 42.0923 167.704L48.351 169.501L54.7636 206.768L37.1418 211.979Z" fill="#FFE36C"/>
<path d="M80.5936 192.652C80.568 192.806 80.5936 192.96 80.6706 193.114C81.081 193.781 82.2352 195.449 84.4668 196.142C86.4675 196.758 88.2374 196.219 89.3147 195.732C89.8277 195.501 89.8277 194.782 89.3404 194.525C88.9043 194.32 88.3913 194.089 87.8014 193.884C85.698 193.165 84.1334 193.242 84.0564 192.754C83.9795 192.19 86.1597 191.676 86.0828 191.112C86.0058 190.675 84.5694 190.547 83.9282 190.547C83.0304 190.547 82.03 190.521 81.2862 191.266C80.8245 191.728 80.6706 192.267 80.5936 192.652Z" fill="#FFADAF"/>
<path d="M17.7501 204.946C17.6218 204.869 17.4423 204.843 17.2884 204.869C16.5188 204.997 14.5438 205.51 13.133 207.384C11.8505 209.052 11.7479 210.9 11.8505 212.081C11.9018 212.645 12.5687 212.902 12.9791 212.517C13.3382 212.183 13.7229 211.773 14.1334 211.285C15.5441 209.565 16.0058 208.051 16.4932 208.154C17.0575 208.282 16.7753 210.489 17.314 210.618C17.7501 210.695 18.3657 209.386 18.5965 208.795C18.9043 207.948 19.2634 207.024 18.8274 206.075C18.5452 205.485 18.0835 205.151 17.7501 204.946Z" fill="#FFADAF"/>
<path d="M37.783 174.967C33.9868 177.919 28.5489 182.898 23.9062 190.444C20.2638 196.399 18.3144 201.968 17.2371 206.101C17.5962 206.383 17.9553 206.665 18.2887 206.948C20.4177 203.303 23.624 198.657 28.3693 194.063C34.2433 188.339 40.1942 184.874 44.4778 182.847C42.2462 180.203 40.0146 177.585 37.783 174.967Z" fill="#FFADAF"/>
<path d="M89.6481 191.625C89.5455 191.497 89.4173 191.42 89.2377 191.394C88.4682 191.266 86.4418 191.06 84.4668 192.344C82.6969 193.473 81.953 195.167 81.6452 196.322C81.4913 196.861 82.03 197.323 82.543 197.117C83.0047 196.912 83.492 196.681 84.0307 196.347C85.9288 195.218 86.9035 193.961 87.314 194.217C87.8013 194.525 86.7753 196.527 87.2627 196.809C87.6474 197.04 88.6478 196.014 89.0838 195.526C89.6738 194.833 90.3407 194.089 90.2381 193.037C90.2125 192.421 89.9046 191.933 89.6481 191.625Z" fill="#FFADAF"/>
<path d="M148.157 179.484C148.285 179.587 148.439 179.613 148.618 179.613C149.388 179.536 151.414 179.176 153.005 177.431C154.415 175.84 154.672 173.992 154.672 172.811C154.672 172.247 154.005 171.939 153.569 172.298C153.184 172.606 152.748 172.991 152.312 173.453C150.773 175.07 150.157 176.558 149.696 176.404C149.131 176.225 149.593 174.018 149.054 173.864C148.618 173.735 147.9 175.019 147.618 175.609C147.233 176.43 146.797 177.354 147.156 178.329C147.413 178.894 147.849 179.279 148.157 179.484Z" fill="#FFADAF"/>
<path d="M110.015 282.176L101.704 270.189L101.883 269.574C102.191 268.496 104.936 267.392 106.039 267.187C107.834 266.879 107.86 267.854 108.937 269.445C109.425 270.549 109.886 271.652 110.374 272.756C110.81 273.5 111.99 275.682 111.631 278.505C111.425 279.994 110.887 281.123 110.476 281.816L110.015 282.176Z" fill="#92BF20"/>
<path d="M110.476 274.142L108.27 274.553" stroke="white" stroke-width="1.3609" stroke-miterlimit="10"/>
<path d="M111.066 275.015L108.86 275.425" stroke="white" stroke-width="1.3609" stroke-miterlimit="10"/>
<path d="M109.45 282.92L100.652 270.035C100.627 269.984 100.627 269.907 100.678 269.856L101.755 269.137C101.806 269.111 101.883 269.111 101.935 269.163L110.733 282.047C110.758 282.099 110.758 282.176 110.707 282.227L109.63 282.946C109.578 282.997 109.502 282.971 109.45 282.92Z" fill="white"/>
<path d="M140.231 283.485L125.661 283.51L125.251 283.023C124.533 282.15 125.2 279.275 125.661 278.249C126.431 276.606 127.252 277.145 129.175 277.145C130.355 277.376 131.535 277.607 132.715 277.838C133.587 277.889 136.024 278.172 138.127 280.071C139.23 281.072 139.846 282.176 140.205 282.92L140.231 283.485Z" fill="#92BF20"/>
<path d="M140.436 284.049L124.841 284.075C124.764 284.075 124.712 284.024 124.712 283.947V282.663C124.712 282.586 124.764 282.535 124.841 282.535L140.436 282.509C140.513 282.509 140.564 282.561 140.564 282.638V283.921C140.539 283.998 140.487 284.049 140.436 284.049Z" fill="white"/>
<path d="M133.613 278.352L132.69 280.405" stroke="white" stroke-width="1.3609" stroke-miterlimit="10"/>
<path d="M134.665 278.326L133.767 280.405" stroke="white" stroke-width="1.3609" stroke-miterlimit="10"/>
<path d="M131.433 224.17C131.971 223.965 132.613 224.221 132.818 224.786C135.255 230.869 139.076 243.06 136.588 258.024C135.126 266.853 131.946 273.757 129.304 278.377C129.047 278.813 128.534 279.019 128.047 278.865C128.047 278.865 128.047 278.865 128.021 278.865C127.457 278.711 127.149 278.121 127.277 277.556C128.534 272.423 129.688 265.21 129.073 256.663C128.175 244.395 124.071 234.975 121.044 229.38C120.736 228.79 120.993 228.071 121.609 227.84C124.917 226.608 128.175 225.402 131.433 224.17Z" fill="#FFADAF"/>
<path d="M128.226 219.627C128.816 219.627 129.304 220.089 129.329 220.679C129.586 227.224 129.073 239.98 121.686 253.25C117.325 261.078 112.015 266.494 107.988 269.959C107.603 270.292 107.039 270.292 106.654 270.01C106.654 270.01 106.654 270.01 106.629 270.01C106.167 269.676 106.039 269.009 106.372 268.547C109.296 264.132 112.785 257.741 115.093 249.477C118.377 237.619 117.684 227.353 116.709 221.09C116.607 220.448 117.094 219.858 117.761 219.832C121.249 219.755 124.738 219.678 128.226 219.627Z" fill="#FFADAF"/>
<path d="M113.862 151.534C112.785 155.82 114.863 160.081 118.428 161.57C121.249 162.75 125.123 162.211 126.585 160.03C129.278 156 123.609 146.58 123.609 146.58C123.609 146.555 116.53 144.553 113.862 151.534Z" fill="black"/>
<path d="M120.172 165.676L120.89 160.594L125.046 161.826L125.764 167.319L120.172 165.676Z" fill="#FFADAF"/>
<path d="M115.965 153.048C114.888 157.335 116.966 161.595 120.531 163.084C123.353 164.265 127.226 163.726 128.688 161.544C131.381 157.514 125.713 148.095 125.713 148.095C125.713 148.095 118.633 146.093 115.965 153.048Z" fill="#FFADAF"/>
<path d="M114.811 156.847C114.811 156.847 114.709 139.651 123.738 137.135C132.792 134.594 142.411 145.965 114.811 156.847Z" fill="black"/>
<path d="M115.709 205.51C115.709 205.51 110.682 185.721 120.146 165.702L125.79 167.319L131.561 200.839L115.709 205.51Z" fill="#DD2C2C"/>
<path d="M131.253 199.787C135.639 206.28 141.257 216.316 144.361 229.611C146.053 236.9 146.618 243.471 146.669 248.912C141.539 250.067 134.254 250.965 125.841 249.425C123.302 248.963 120.967 248.322 118.89 247.629C120.48 242.547 121.865 236.105 121.968 228.584C121.993 226.12 121.916 223.81 121.711 221.629C121.506 225.761 120.993 230.561 119.916 235.771C119.044 239.98 117.966 243.779 116.838 247.09C115.478 246.576 114.093 246.063 112.734 245.55C111.4 241.315 110.092 235.617 109.912 228.841C109.604 217.265 112.503 203.508 114.786 198.221C120.198 197.194 125.841 200.813 131.253 199.787Z" fill="#92BF20"/>
<path d="M118.531 150.815C115.504 142.063 108.296 136.827 101.883 137.623C97.0611 138.213 92.7775 142.192 91.0333 146.632C87.6474 155.281 95.163 162.442 91.495 167.935C90.2381 169.834 87.4679 171.759 80.8757 171.888C85.185 175.891 91.2128 177.354 96.5738 175.583C103.294 173.376 107.963 166.472 107.116 161.339C106.577 158.002 103.884 156.565 104.705 154.152C105.628 151.483 109.809 150.661 111.271 150.379C114.478 149.712 117.145 150.353 118.531 150.815Z" fill="black"/>
<path d="M118.864 170.424C114.273 171.836 107.424 174.582 100.421 180.024C94.9065 184.31 91.1103 188.853 88.6478 192.343C88.8787 192.728 89.1095 193.113 89.3404 193.498C92.598 190.855 97.2407 187.621 103.32 184.977C110.835 181.692 117.633 180.563 122.352 180.152C121.173 176.918 120.018 173.684 118.864 170.424Z" fill="#FFADAF"/>
<path d="M112.246 171.426L115.299 182.411L123.353 181.384L120.711 174.172L121.352 168.936L112.246 171.426Z" fill="#DD2C2C"/>
<path d="M47.6585 181.23C45.1447 178.227 42.6566 175.198 40.1429 172.195C35.7823 175.506 29.5236 181.127 24.137 189.674C21.1872 194.371 19.1865 198.888 17.8014 202.764C18.0835 202.995 18.3657 203.226 18.6479 203.431C19.1352 203.791 19.6482 204.099 20.1356 204.381C22.4185 201.121 25.3683 197.477 29.1645 193.832C35.9362 187.364 42.7592 183.488 47.6585 181.23Z" fill="#FFE36C"/>
<path d="M79.3111 193.396C79.465 192.549 79.5932 191.676 79.6445 190.829C75.9252 189.88 71.5903 188.417 67.0245 186.184C58.996 182.257 52.6347 176.764 48.9667 173.12C47.0942 176.379 45.863 180.281 43.9905 183.515C48.4023 186.338 55.5075 190.085 64.9725 192.061C70.3848 193.216 75.2583 193.499 79.3111 193.396Z" fill="#FFE36C"/>
<path d="M340.483 103.615C341.766 102.896 343.869 102.486 344.998 103.487C346.511 104.821 345.588 108.055 344.408 109.878C342.818 112.367 339.457 114.215 338.021 113.24C336.226 111.982 336.918 105.617 340.483 103.615Z" fill="#FFADAF"/>
<path d="M249.681 158.541C249.142 158.413 248.681 158.105 248.347 157.669C246.757 155.487 242.986 149.455 243.858 141.37C244.628 134.081 248.758 129.153 251.836 126.381C253.298 125.098 255.606 126.048 255.709 127.973C255.811 129.692 255.811 131.669 255.658 133.825C255.068 141.524 252.708 146.478 254.144 147.351C255.863 148.377 260.48 142.089 262.147 143.116C263.481 143.937 261.865 148.711 260.993 150.79C259.787 153.69 258.428 156.924 255.068 158.259C252.99 159.08 250.989 158.849 249.681 158.541Z" fill="#FFADAF"/>
<path d="M310.78 215.212C299.956 220.217 264.635 235.027 236.445 221.167C230.187 218.087 227.57 215.212 226.006 212.646C217.823 199.094 227.827 174.737 250.784 150.302C252.708 150.893 254.632 151.509 256.555 152.099C250.04 167.473 250.476 181.564 257.787 187.878C261.019 190.65 264.763 191.24 267.739 191.651C285.002 194.089 299.725 182.539 304.65 178.33C306.702 190.624 308.728 202.918 310.78 215.212Z" fill="#FFADAF"/>
<path d="M282.693 189.007C290.465 201.353 298.212 213.672 305.984 226.018C311.088 220.936 318.091 212.8 323.836 201.327C329.864 189.238 332.121 178.202 333.019 170.861C327.222 166.908 321.425 162.981 315.628 159.029C304.624 169.013 293.646 178.997 282.693 189.007Z" fill="white"/>
<path d="M328.3 197.297C325.709 202.969 320.271 212.517 309.626 218.959C307.292 220.371 304.983 221.475 302.803 222.322L282.667 189.007C289.054 183.873 295.467 178.74 301.854 173.607" stroke="#92B700" stroke-width="3" stroke-miterlimit="10" stroke-linecap="round"/>
<path d="M334.173 143.218C327.71 145.066 321.22 146.914 314.756 148.762C313.217 155.281 311.678 161.801 310.139 168.346" stroke="#92B700" stroke-width="3" stroke-miterlimit="10" stroke-linecap="round"/>
<path d="M257.292 41.9193C260.477 41.1668 262.449 37.9735 261.697 34.7868C260.945 31.6001 257.754 29.6268 254.569 30.3792C251.385 31.1317 249.412 34.325 250.164 37.5117C250.916 40.6984 254.108 42.6718 257.292 41.9193Z" stroke="white" stroke-width="8.396" stroke-miterlimit="10" stroke-linecap="round"/>
<path d="M441.418 93.2716C444.393 93.2716 446.804 90.8584 446.804 87.8816C446.804 84.9049 444.393 82.4917 441.418 82.4917C438.443 82.4917 436.031 84.9049 436.031 87.8816C436.031 90.8584 438.443 93.2716 441.418 93.2716Z" stroke="white" stroke-width="7.6341" stroke-miterlimit="10" stroke-linecap="round"/>
<path d="M377.215 152.201C380.19 152.201 382.601 149.788 382.601 146.811C382.601 143.835 380.19 141.421 377.215 141.421C374.24 141.421 371.828 143.835 371.828 146.811C371.828 149.788 374.24 152.201 377.215 152.201Z" stroke="white" stroke-width="7.6341" stroke-miterlimit="10" stroke-linecap="round"/>
<path d="M344.947 92.1163C346.152 88.6514 349.23 86.5724 352.077 86.906C354.437 87.1884 355.899 89.062 356.233 89.5497" stroke="black" stroke-width="4.3065" stroke-miterlimit="10" stroke-linecap="round"/>
<path d="M344.1 90.2943C347.05 89.396 349.025 87.0861 349.051 84.6734C349.051 83.1591 348.281 82.0041 347.845 81.4395" stroke="black" stroke-width="4.3065" stroke-miterlimit="10" stroke-linecap="round"/>
</g>
<defs>
<clipPath id="clip0">
<rect width="491" height="286" fill="white"/>
</clipPath>
</defs>
</svg>
