<?xml version="1.0" encoding="UTF-8"?>
<svg width="76px" height="68px" viewBox="0 0 76 68" version="1.1" xmlns="http://www.w3.org/2000/svg" xmlns:xlink="http://www.w3.org/1999/xlink">
    <!-- Generator: Sketch 48.1 (47250) - http://www.bohemiancoding.com/sketch -->
    <title>004</title>
    <desc>Created with Sketch.</desc>
    <defs></defs>
    <g id="Главная-HR-Usetech(var.0.3_13_11_2017)-Copy" stroke="none" stroke-width="1" fill="none" fill-rule="evenodd" transform="translate(-1196.000000, -2164.000000)">
        <g id="004" transform="translate(1195.000000, 2164.000000)">
            <g transform="translate(41.637819, 39.519369) rotate(16.000000) translate(-41.637819, -39.519369) translate(4.137819, 20.019369)" fill-rule="nonzero">
                <path d="M74.6007421,25.587279 L69.8168443,8.80392815 C68.8931116,5.56095071 66.6101474,2.82700013 63.5531578,1.30279785 C60.4960218,-0.221548336 56.9018729,-0.417848204 53.6918068,0.764700194 C51.3448287,1.63006024 49.3517577,3.15124031 47.9293911,5.16245046 C47.9293911,5.16245046 47.9226528,5.16777531 47.9088832,5.16777531 L27.1656222,5.16777531 C27.153171,5.16777531 27.1465791,5.16345787 27.1459932,5.16345787 C25.7240661,3.15138422 23.731581,1.63020416 21.383138,0.764412365 C18.1729255,-0.417272545 14.5784835,-0.221404421 11.5216405,1.30294177 C8.46538341,2.82700013 6.18256561,5.56095071 5.25883299,8.80364032 L0.474935162,25.5871351 C-1.10548843,31.1297281 1.36160714,36.4846561 6.34135504,38.320434 C7.59467826,38.7821129 8.91186882,39 10.2251043,39 C14.4971845,38.9998561 18.7213643,36.6936205 20.5235657,32.9764436 L22.8189812,28.2568997 C24.2334376,30.1185823 26.4872514,31.273643 28.9335462,31.273643 C32.2697356,31.273643 35.1935705,29.135356 36.1931822,26.07918 L38.8741454,26.07918 C39.8736107,29.135356 42.7965667,31.273643 46.1321701,31.273643 C48.5797832,31.273643 50.8346224,30.1172871 52.2487859,28.2543092 L54.5497678,32.9747166 C55.7099267,35.367445 57.7265818,37.231862 60.2281013,38.224155 C62.7297673,39.2165919 65.4989143,39.2508436 68.0257756,38.3202901 C70.552051,37.389161 72.6154347,35.5743946 73.8357989,33.2104491 C75.0558701,30.8470793 75.3275992,28.1398969 74.6007421,25.587279 Z" id="Shape" stroke="#616161" stroke-width="2" fill="#FFFFFF"></path>
                <circle id="Oval" fill="#616161" cx="58" cy="9" r="2"></circle>
                <circle id="Oval" fill="#616161" cx="58" cy="19" r="2"></circle>
                <circle id="Oval" fill="#616161" cx="54" cy="14" r="2"></circle>
                <circle id="Oval" fill="#616161" cx="63" cy="14" r="2"></circle>
                <path d="M21.4087305,12.4087305 L18.5912695,12.4087305 L18.5912695,9.59126954 C18.5912695,8.71248395 17.8789366,8 17,8 C16.1212144,8 15.4087305,8.71233291 15.4087305,9.59126954 L15.4087305,12.4087305 L12.5912695,12.4087305 C11.712484,12.4087305 11,13.1210634 11,14 C11,14.8787856 11.7123329,15.5912695 12.5912695,15.5912695 L15.4087305,15.5912695 L15.4087305,18.4087305 C15.4087305,19.287516 16.1210634,20 17,20 C17.8787856,20 18.5912695,19.2876671 18.5912695,18.4087305 L18.5912695,15.5912695 L21.4087305,15.5912695 C22.287516,15.5912695 23,14.8789366 23,14 C22.999849,13.1210634 22.287516,12.4087305 21.4087305,12.4087305 Z" id="Shape" fill="#616161"></path>
                <path d="M33.383905,13 L31.616095,13 C30.7235994,13 30,13.671476 30,14.5 C30,15.3283816 30.723446,16 31.616095,16 L33.383905,16 C34.2764006,16 35,15.328524 35,14.5 C34.9998466,13.671476 34.2764006,13 33.383905,13 Z" id="Shape" fill="#616161"></path>
                <path d="M42.383905,13 L40.616095,13 C39.7235994,13 39,13.671476 39,14.5 C39,15.3283816 39.723446,16 40.616095,16 L42.383905,16 C43.2764006,16 44,15.328524 44,14.5 C44,13.671476 43.2764006,13 42.383905,13 Z" id="Shape" fill="#616161"></path>
                <path d="M27.9999293,21 C26.3457323,21 25,22.3457323 25,23.9999293 C25,25.6542677 26.3457323,27 27.9999293,27 C29.6542677,27 31,25.6542677 31,23.9999293 C30.9998586,22.3457323 29.6541263,21 27.9999293,21 Z M27.9999293,24.7650803 C27.5781769,24.7650803 27.2349197,24.4219645 27.2349197,23.9999293 C27.2349197,23.5781769 27.5780355,23.2349197 27.9999293,23.2349197 C28.4218231,23.2349197 28.7650803,23.5780355 28.7650803,23.9999293 C28.7649388,24.4218231 28.4218231,24.7650803 27.9999293,24.7650803 Z" id="Shape" fill="#616161"></path>
                <path d="M46,21 C44.345764,21 43,22.3457323 43,23.9999293 C43,25.6542677 44.345764,27 46,27 C47.654236,27 49,25.6542677 49,23.9999293 C49,22.3457323 47.654236,21 46,21 Z M46,24.7650803 C45.5782377,24.7650803 45.2349724,24.4219645 45.2349724,23.9999293 C45.2349724,23.5781769 45.5780963,23.2349197 46,23.2349197 C46.4219037,23.2349197 46.7650276,23.5780355 46.7650276,23.9999293 C46.7650276,24.4218231 46.4219037,24.7650803 46,24.7650803 Z" id="Shape" fill="#616161"></path>
            </g>
            <path d="M50.0756429,21.7772809 L45.8022404,19.9452672 L45.8022404,0 C45.8022404,0 55.0898618,1.56018663 56.3688882,5.42759839 C57.6479146,9.29345463 55.6549045,11.7986197 54.9545316,11.8728958 C53.0042983,12.0766689 52.263093,10.8551968 52.263093,10.8551968 L52.263093,4.61328363 L50.1436969,3.73091488 L50.0756429,21.7772809 Z M51.1874508,19.0294547 L51.1874508,21.3701235 C51.1874508,21.3701235 61.2481657,18.1132534 62.7294097,16.8587265 C64.2087093,15.6038107 59.2629333,12.4838263 56.6045495,13.0928124 C56.6045495,13.0928124 53.7805028,13.2308648 51.2208945,14.3477282 C51.1963951,14.358228 51.2208945,16.4515691 51.2208945,16.4515691 L57.7148019,14.9248261 L60.0025831,15.9425251 L51.1874508,19.0294547 Z M44.7254316,18.8606808 C44.7254316,18.8606808 43.4129616,19.5381098 40.4854728,19.5046661 C37.5583729,19.4696669 34.9668765,18.655741 35.0003202,16.8921701 C35.0337638,15.1282104 39.8461541,13.194699 44.6919879,12.3803842 L44.6919879,14.8563833 L39.5439943,16.2143523 C39.5439943,16.2143523 38.6627922,17.3339378 39.8461541,17.3673815 C42.539537,17.4420465 44.7604308,16.7218407 44.7604308,16.7218407 L44.7254316,18.8606808 Z" id="Fill-1" fill="#616161"></path>
        </g>
    </g>
</svg>