<svg width="480" height="441" viewBox="0 0 480 441" fill="none" xmlns="http://www.w3.org/2000/svg">
<g clip-path="url(#clip0)">
<path d="M446.669 225.844C458.231 234.254 466.946 245.997 471.646 259.498C477.066 276.056 476.677 295.308 470.867 315.279C461.955 342.869 445.048 367.192 422.292 385.163C397.808 404.819 367.881 416.492 336.552 418.607L333.407 418.757H333.108H329.574H325.142H322.147C316.993 431.118 304.905 439.162 291.511 439.147C285.518 439.156 279.637 437.531 274.5 434.447C269.363 431.362 272.011 432.607 270 432C266.102 430.824 263.829 434.383 260 433C257.025 431.925 255.98 431.508 255 428.5C254.274 426.272 253.995 425.288 254.5 423L254.544 422.802C254.855 421.387 254.914 421.118 256 420C257.173 418.793 260.92 419.08 261.5 417.5C261.769 416.767 261.216 416.251 261 415.5C260.368 413.304 257.46 414.176 255.5 413C253 411.5 253.183 412.232 252.5 409.5C252 407.5 252 407.562 252 405.5C252 403.5 252.5 403 253.5 401.5C253.933 400.85 254.811 400.327 256.5 399C259.234 396.852 255.5 395.477 255.5 392C255.5 389.5 255 388.5 257 386.5C258.105 385.395 259.441 385.093 261 385C263.766 384.836 263.927 384.529 266.5 383.5C269.983 382.107 271.286 380.011 274.5 378C276.8 376.561 280.5 374.5 280.5 374.5L285.222 373.426C287.256 373.044 289.321 372.853 291.391 372.857C296.322 372.844 301.194 373.939 305.646 376.061C313.733 379.911 319.921 386.865 322.806 395.343H326.639C391.925 394.475 435.379 349.652 448.137 308.213C449.421 304.064 450.372 299.818 450.982 295.518V295.278V295.069C451.338 290.57 451.248 286.046 450.712 281.565V281.026C450.652 280.337 450.503 279.679 450.503 279.02V278.751C450.096 275.264 449.354 271.825 448.286 268.481V268.301C448.167 267.912 447.867 267.523 447.867 267.103L447.568 266.265L446.969 264.678L446.759 264.229L446.13 262.822V262.672L445.891 262.193L445.202 260.786V260.606V260.426C444.407 258.901 443.527 257.422 442.566 255.995L442.147 255.366L441.668 254.708L441.159 254.019L440.859 253.6L440.081 252.612L439.452 251.833L438.703 250.965L438.254 250.486L437.925 250.127L437.266 249.408L436.787 248.929L436.337 249.737L435.738 250.785L435.499 251.204C435.139 251.893 434.72 252.552 434.301 253.181L433.912 253.809L432.714 255.666L432.504 255.995L430.917 258.211V258.39C430.438 259.049 429.929 259.708 429.419 260.337L428.97 260.876L427.832 262.223L427.203 262.912C426.754 263.391 426.335 263.87 425.886 264.319L425.317 264.888C424.628 265.606 423.999 266.205 423.4 266.744C415.524 273.96 400.31 276.535 389.709 276.535C387.136 276.541 384.565 276.381 382.012 276.056L382.432 276.804L376.442 274.948L375.873 274.798C335.966 311.407 280.083 325.024 227.804 310.879C175.525 296.733 134.138 256.798 118.144 205.065C108.89 200.364 97.6595 191.98 93.916 182.788C93.4368 181.65 92.9876 180.393 92.5384 179.015L92.3887 178.506C92.1191 177.698 91.8496 176.86 91.64 175.991L91.3106 175.632V174.614C89.9879 169.425 89.1656 164.121 88.8549 158.775V158.535L88.196 158.805L86.7885 159.434L84.7221 160.392L83.9434 160.781C82.476 161.559 80.9187 162.338 79.4812 163.146L79.1818 163.326L76.7859 164.733L76.4565 164.943C73.8511 166.56 71.3355 168.266 68.8798 170.123C45.9186 187.974 30.3075 213.629 25.0065 242.222C23.682 249.832 23.3298 257.579 23.9583 265.277C23.9583 266.415 24.2578 268.061 24.3476 268.84C24.4375 269.618 24.677 270.397 24.677 271.175C24.8168 272.094 24.9765 273.002 25.1562 273.9C27.0846 283.722 31.0645 293.027 36.8358 301.207C37.4747 302.125 38.1435 303.033 38.8423 303.931C40.2798 305.788 41.8271 307.594 43.4842 309.351C46.6614 312.335 50.0657 315.068 53.6664 317.525L54.0856 317.854L56.9307 319.89L57.7692 319.052C58.6314 318.24 59.5415 317.48 60.4944 316.776H60.6442L61.6025 316.088L61.8421 315.938L62.1116 315.788C67 312.5 83.5 309.351 91.1908 312.345C91.1908 312.345 99.423 315.996 103.5 319.89C108.31 324.485 110.909 327.893 112.5 334.352C113.728 339.338 113.212 342.415 112.5 347.5L112.473 347.692C111.727 353.024 111.266 356.323 108.5 361C106.387 364.573 104.58 366.216 101.5 369C98.8056 371.436 97.2725 372.924 94 374.5C89.2979 376.764 80.8588 376.929 80.8588 376.929H80.3797C62.0207 376.929 47.1378 362.049 47.1378 343.694V342.257L46.7784 342.017L46.419 341.777L44.1131 340.25L43.4243 339.771L40.4295 337.705L39.591 337.077L36.9556 335.041L36.1171 334.352L33.6014 332.226L33.1522 331.837L31.6249 330.49C6.37904 307.195 -4.31227 274.679 1.67726 238.33C6.64292 210.318 20.0365 184.486 40.0701 164.284C48.1039 155.945 57.2312 148.734 67.2027 142.846L68.5503 142.068L70.2873 141.109L71.9644 140.181C73.4318 139.403 74.9292 138.624 76.4266 137.906L77.2352 137.546L79.4213 136.558L81.4278 135.69L82.7755 135.121L84.2429 134.552L85.3809 134.103L88.196 133.085H88.4955H88.8249L90.0827 132.666L91.7897 132.127C91.8496 131.798 91.9095 131.588 91.9994 131.169C92.0892 130.75 92.3288 130.301 92.3288 129.851V129.462L92.5684 128.564L92.8978 127.366L93.317 125.899L93.6465 124.881V124.672L93.916 123.833L94.0957 123.294C94.2155 123.055 94.3652 122.815 94.3652 122.576C94.7545 121.528 95.1439 120.54 95.5332 119.581L95.7129 119.162L95.8925 118.743L96.0722 118.294L96.5813 117.156L96.8808 116.468C97.2402 115.719 97.6295 114.941 98.0188 114.162L98.1686 113.863L98.5279 113.234L99.1568 112.006L99.3365 111.647L100.145 110.27L100.355 109.94L100.624 109.491L100.894 109.072L101.762 107.755L102.002 107.395L102.721 106.347L103.08 105.838V105.629L103.589 104.94L104.368 103.952L104.547 103.712L104.757 103.473L106.165 101.826L106.524 101.437C112.108 95.0676 119.373 90.3983 127.487 87.9632C153.935 34.8099 207.948 0.960711 267.325 0.329178C326.701 -0.302355 381.422 32.3903 408.995 84.9691L409.325 85.5979C420.966 108.085 427.046 133.035 427.054 158.356V161.799C450.443 175.842 452.389 204.316 446.669 225.844Z" fill="white"/>
<path fill-rule="evenodd" clip-rule="evenodd" d="M333.108 418.667H332.808L329.274 418.847H332.808L333.108 418.667Z" fill="white"/>
<path fill-rule="evenodd" clip-rule="evenodd" d="M69.5684 349.323C68.4347 349.321 67.3134 349.087 66.2741 348.634C19.8254 328.364 -2.99476 287.344 5.12105 238.898C9.89916 212.005 22.649 187.168 41.7171 167.608C61.9916 146.649 87.4771 134.043 113.591 132.007C116.659 131.553 119.723 132.847 121.536 135.362C123.35 137.877 123.608 141.193 122.207 143.959C120.807 146.724 117.98 148.478 114.879 148.505C65.4955 152.367 28.63 198.897 21.4425 241.653C14.5246 282.703 33.4216 316.148 72.8926 333.424C76.4604 335.014 78.4354 338.877 77.6347 342.699C76.834 346.522 73.4745 349.268 69.5684 349.293V349.323Z" fill="#EDDFD5"/>
<path fill-rule="evenodd" clip-rule="evenodd" d="M68.281 342.706C67.7764 342.709 67.2765 342.607 66.8136 342.406C22.4611 323.034 0.599348 283.901 8.38574 237.701C13.0111 211.722 25.3326 187.731 43.7539 168.835C63.2498 148.715 87.6571 136.588 112.633 134.642H112.933C114.828 134.651 116.401 136.107 116.557 137.996C116.712 140.004 115.211 141.759 113.202 141.918C61.5728 145.96 23.0301 194.405 15.5432 238.928C8.26594 282.254 28.0014 317.525 69.7185 335.729C71.2745 336.438 72.1304 338.132 71.7785 339.805C71.4265 341.478 69.961 342.683 68.2511 342.706H68.281Z" fill="white"/>
<path opacity="0.5" fill-rule="evenodd" clip-rule="evenodd" d="M72.8927 333.304C60.8787 328.256 50.0096 320.831 40.9386 311.477C38.5953 317.185 36.7516 323.086 35.4282 329.112C44.6336 337.143 55.0422 343.68 66.2743 348.484C70.3981 350.004 74.992 348.045 76.7483 344.017C78.5045 339.988 76.8135 335.29 72.8927 333.304Z" fill="#E6CBC3"/>
<path opacity="0.5" fill-rule="evenodd" clip-rule="evenodd" d="M122.366 139.612C122.191 137.41 121.144 135.368 119.457 133.94C117.77 132.513 115.584 131.817 113.382 132.007C97.8659 133.348 82.8407 138.114 69.3888 145.96C68.0484 153.029 67.1978 160.182 66.8433 167.368C80.6719 156.615 97.3084 150.076 114.759 148.535C119.323 148.169 122.728 144.176 122.366 139.612Z" fill="#E6CBC3"/>
<path fill-rule="evenodd" clip-rule="evenodd" d="M92.8379 146.469C92.1791 157.937 92.8379 170.752 97.2402 181.53C102.092 193.507 123.834 206.651 136.591 207.37C151.326 208.208 164.772 182.578 166.539 150.092C168.306 117.605 157.974 90.5981 143.24 89.7597C111.316 87.9632 94.3652 118.174 92.8379 146.469Z" fill="#E6CBC3"/>
<path fill-rule="evenodd" clip-rule="evenodd" d="M108.83 166.021C101.38 157.853 96.2151 147.867 93.8561 137.067C93.3322 140.179 92.9922 143.318 92.8379 146.469C92.1791 157.937 92.8379 170.752 97.2402 181.531C102.092 193.507 123.834 206.651 136.591 207.37C145.785 207.909 154.56 198.058 160.19 182.698C141.342 186.315 121.955 180.02 108.83 166.021Z" fill="#DEC0B8"/>
<path fill-rule="evenodd" clip-rule="evenodd" d="M159.711 119.581C158.954 116.229 157.954 112.937 156.716 109.731C156.117 108.174 155.459 106.737 154.8 105.389C154.52 108.343 154.301 111.338 154.141 114.372C154.041 116.368 153.931 118.364 153.812 120.36H155.728C157.046 120.12 158.374 119.861 159.711 119.581Z" fill="#EDDFD5"/>
<path fill-rule="evenodd" clip-rule="evenodd" d="M113.053 184.016C110.956 183.177 108.89 182.249 106.883 181.261C104.734 180.173 102.653 178.953 100.654 177.608C100.894 178.327 101.163 179.045 101.463 179.734C104.49 185.393 108.978 190.139 114.46 193.477C113.765 190.361 113.295 187.199 113.053 184.016Z" fill="#EDDFD5"/>
<path fill-rule="evenodd" clip-rule="evenodd" d="M423.64 158.356C423.654 170.455 422.247 182.514 419.447 194.286C419.447 194.495 419.447 194.705 419.447 194.914C419.177 196.022 418.908 197.13 418.608 198.238L418.459 198.837C396.059 279.962 312.847 328.249 231.281 307.454C149.714 286.659 99.7904 204.429 118.982 122.486L119.282 121.228C119.491 120.36 119.701 119.492 119.94 118.653C119.94 118.264 120.15 117.875 120.24 117.516C140.928 43.2039 213.268 -4.46614 289.73 5.82635C366.192 16.1188 423.346 81.2199 423.64 158.356Z" fill="#E6CBC3"/>
<path fill-rule="evenodd" clip-rule="evenodd" d="M360.72 268.481C359.986 267.1 359.403 265.645 358.983 264.139C304.637 308.57 227.185 310.856 170.312 269.708C225.238 318.506 307.566 319.918 364.134 273.032C362.788 271.682 361.639 270.15 360.72 268.481Z" fill="#EDDFD5"/>
<path fill-rule="evenodd" clip-rule="evenodd" d="M406.18 115.06C406.08 116.597 405.95 118.144 405.791 119.701C398.034 200.723 335.054 264.648 243.534 264.648C205.068 264.404 167.372 253.847 134.375 234.078C115.117 199.728 109.656 159.338 119.102 121.108C119.401 119.851 119.731 118.623 120.06 117.366C136.903 56.1932 189.429 11.526 252.524 4.72028C315.619 -2.08546 376.465 30.3528 405.97 86.526C406.767 96.0182 406.837 105.557 406.18 115.06Z" fill="#EDDFD5"/>
<path fill-rule="evenodd" clip-rule="evenodd" d="M264.767 15.9239C315.229 17.6605 372.04 49.0692 401.448 105.748C395.459 51.8537 336.941 9.93559 267.912 9.93559C247.244 9.84605 226.754 13.7501 207.567 21.4331C226.644 19.5468 245.571 15.2652 264.767 15.9239Z" fill="white"/>
<path fill-rule="evenodd" clip-rule="evenodd" d="M408.846 184.555C374.526 155.811 325.441 133.115 270.577 120.719C242.875 114.346 214.55 111.072 186.125 110.958C163.786 110.753 141.508 113.297 119.791 118.534C119.551 119.402 119.342 120.27 119.132 121.108L118.833 122.366C140.848 116.89 163.47 114.234 186.155 114.461C214.318 114.581 242.381 117.824 269.829 124.133C333.258 138.505 386.624 166.29 418.489 198.088C418.788 196.98 419.058 195.872 419.327 194.765C419.327 194.555 419.327 194.345 419.327 194.136C416.113 190.922 412.619 187.728 408.846 184.555Z" fill="white"/>
<path fill-rule="evenodd" clip-rule="evenodd" d="M402.257 178.476C369.554 151.05 322.776 129.462 270.487 117.635C244.092 111.562 217.103 108.439 190.018 108.323C166.393 108.022 142.843 111.046 120.06 117.306C119.701 118.534 119.402 119.791 119.102 121.049C142.175 114.525 166.073 111.388 190.048 111.737C216.891 111.849 243.639 114.942 269.799 120.959C335.084 135.72 389.14 165.452 418.339 198.807C418.678 197.509 419.008 196.202 419.327 194.884C414.018 189.033 408.314 183.551 402.257 178.476Z" fill="#D49C8C"/>
<path fill-rule="evenodd" clip-rule="evenodd" d="M338.918 133.115C334.156 186.83 286.09 228.509 231.885 228.509C178.368 228.509 135.423 187.728 135.423 135.211C135.423 80.1785 182.202 32.5715 240.54 31.284C299.656 30.0264 343.919 76.7352 338.918 133.115Z" fill="#191919"/>
<path fill-rule="evenodd" clip-rule="evenodd" d="M324.872 132.696C320.889 177.818 280.49 212.849 235.03 212.849C190.108 212.849 154.171 178.566 154.171 134.462C154.171 88.2327 193.432 48.2608 242.427 47.2129C291.9 46.1949 329.065 85.4182 324.872 132.696Z" fill="#333333"/>
<path fill-rule="evenodd" clip-rule="evenodd" d="M197.176 107.755C213.467 100.169 230.098 93.3228 247.068 87.2147C254.795 84.4301 262.971 82.7235 270.787 80.1784C277.375 78.0526 294.895 74.1901 282.976 66.3155C270.466 58.3778 255.858 54.3824 241.049 54.8479C209.612 55.5732 181.562 74.7669 169.504 103.802C168.078 107.279 168.967 111.275 171.733 113.82C174.498 116.364 178.555 116.919 181.902 115.21C186.974 112.615 192.065 110.13 197.176 107.755Z" fill="#595959"/>
<path fill-rule="evenodd" clip-rule="evenodd" d="M440.23 234.497C435.918 245.126 429.839 256.444 421.244 264.439C411.75 273.122 386.474 275.756 374.615 270.966C360.959 265.427 359.641 236.503 371.98 206.352C384.318 176.201 405.192 156.26 418.878 161.799C448.436 173.566 450.832 208.119 440.23 234.497Z" fill="#EDDFD5"/>
<path fill-rule="evenodd" clip-rule="evenodd" d="M406 178.866C402.122 182.519 398.793 186.714 396.117 191.321C393.392 195.873 390.787 200.484 388.421 205.184C395.84 210.303 402.661 216.239 408.755 222.88C412.798 214.436 418.039 205.993 425.526 200.723C422.114 191.172 415.108 183.33 406 178.866Z" fill="white"/>
<path fill-rule="evenodd" clip-rule="evenodd" d="M423.46 169.135C420.054 170.111 416.777 171.488 413.697 173.237C422.988 178.311 430.142 186.558 433.852 196.471C435.501 195.63 437.285 195.083 439.122 194.855H440.23C438.462 184.322 432.385 175.002 423.46 169.135Z" fill="white"/>
<path fill-rule="evenodd" clip-rule="evenodd" d="M424.418 248.18C413.222 248.136 402.624 243.123 395.489 234.497L395.069 233.958C392.601 232.306 390.4 230.286 388.541 227.97C381.256 219.068 378.177 207.452 380.095 196.112C380.095 195.553 380.095 194.994 380.095 194.435C379.646 193.567 379.197 192.669 378.808 191.741C376.238 196.345 373.957 201.105 371.98 205.993C359.761 236.144 360.929 265.067 374.615 270.607C386.594 275.397 411.75 272.762 421.244 264.079C426.556 259.004 431.007 253.099 434.42 246.593C431.152 247.474 427.799 248.006 424.418 248.18Z" fill="#E6CBC3"/>
<path fill-rule="evenodd" clip-rule="evenodd" d="M383.809 255.456C380.378 252.845 377.208 249.907 374.346 246.683C374.983 253.186 376.598 259.556 379.137 265.576L380.036 267.523C383.221 268.153 386.462 268.454 389.709 268.421C396.709 268.471 403.667 267.327 410.283 265.037C400.694 264.586 391.465 261.246 383.809 255.456Z" fill="#EDDFD5"/>
<path d="M438.413 232.842C444.204 218.559 443.642 204.85 437.159 202.221C430.676 199.592 420.725 209.04 414.934 223.323C409.143 237.606 409.705 251.315 416.188 253.944C422.671 256.573 432.622 247.125 438.413 232.842Z" fill="#333333"/>
<path opacity="0.5" fill-rule="evenodd" clip-rule="evenodd" d="M369.015 241.773C370.118 228.082 374.043 214.768 380.545 202.669C385.447 192.545 391.792 183.186 399.382 174.883C404.816 169.016 411.528 164.477 418.998 161.619C405.312 156.08 384.318 176.021 372.1 206.172C359.881 236.323 361.049 265.247 374.735 270.786L375.664 271.115C370.743 262.15 368.44 251.983 369.015 241.773Z" fill="#BA6C6A"/>
<path fill-rule="evenodd" clip-rule="evenodd" d="M324.842 415.404C315.489 415.394 306.153 414.602 296.931 413.038C292.546 412.149 289.656 407.943 290.399 403.532C291.143 399.12 295.252 396.093 299.686 396.69C376.742 409.655 435.379 361.299 451.431 309.231C461.733 275.756 449.814 247.312 423.61 235.276C419.447 233.359 419.627 229.587 421.513 225.425C423.4 221.263 426.365 218.329 430.498 220.215C447.987 228.239 462.631 243.03 468.351 260.576C473.532 276.445 473.143 294.949 467.243 314.082C451.132 366.389 397.286 415.404 324.842 415.404Z" fill="#EDDFD5"/>
<path fill-rule="evenodd" clip-rule="evenodd" d="M328.016 409.685C318.914 409.671 309.829 408.9 300.854 407.379C299.067 406.987 297.846 405.333 297.997 403.51C298.148 401.686 299.625 400.256 301.453 400.163H302.082C310.621 401.607 319.266 402.338 327.927 402.349C398.363 402.349 445.261 354.203 459.037 309.531C469.789 274.619 457.899 243.48 428.73 230.006C428.492 229.915 428.277 229.772 428.101 229.587C428.039 228.429 428.331 227.28 428.94 226.293C430.108 223.778 431.096 223.299 431.216 223.299C431.416 223.32 431.609 223.381 431.785 223.479C448.825 231.293 462.032 245.336 467.153 261.055C472.035 276.026 471.645 293.542 466.015 311.776C457.241 338.868 440.32 362.593 417.56 379.713C391.861 399.353 360.362 409.896 328.016 409.685Z" fill="white"/>
<path opacity="0.5" fill-rule="evenodd" clip-rule="evenodd" d="M332.629 414.146C332.419 410.134 332.209 405.014 329.305 401.84C328.286 400.732 327.208 399.714 326.07 398.846C317.231 398.925 308.402 398.224 299.686 396.75C295.252 396.153 291.143 399.18 290.399 403.592C289.656 408.003 292.546 412.209 296.931 413.098C306.153 414.662 315.489 415.453 324.842 415.464C327.478 415.464 330.083 415.464 332.659 415.254C332.629 414.895 332.629 414.565 332.629 414.146Z" fill="#D4AEA7"/>
<path d="M80.14 373.456C96.5804 373.456 109.908 360.131 109.908 343.694C109.908 327.257 96.5804 313.932 80.14 313.932C63.6996 313.932 50.3721 327.257 50.3721 343.694C50.3721 360.131 63.6996 373.456 80.14 373.456Z" fill="#EDDFD5"/>
<path fill-rule="evenodd" clip-rule="evenodd" d="M84.7818 353.934C70.0775 353.125 59.0268 342.316 61.6322 326.986C62.1261 323.984 63.0542 321.069 64.3874 318.333C52.2591 325.906 47.2386 341.037 52.435 354.356C57.6314 367.675 71.5732 375.411 85.627 372.773C99.6807 370.135 109.867 357.87 109.878 343.574C109.878 343.095 109.878 342.586 109.878 342.107C103.908 349.863 94.5648 354.266 84.7818 353.934Z" fill="#E6CBC3"/>
<path fill-rule="evenodd" clip-rule="evenodd" d="M82.1465 316.357H80.14C64.9966 316.374 52.7245 328.643 52.708 343.784C52.708 344.562 52.708 345.311 52.708 346.089C56.691 333.304 69.0594 321.118 82.1465 316.357Z" fill="white"/>
<path fill-rule="evenodd" clip-rule="evenodd" d="M75.7376 340.49C76.0537 337.457 76.1737 334.406 76.0969 331.358C76.1366 330.845 76.2066 330.335 76.3066 329.831C75.9794 327.182 77.206 324.581 79.4583 323.148C81.7106 321.715 84.5865 321.706 86.8481 323.124C88.4488 324.152 89.7911 325.536 90.7713 327.166C91.8802 328.635 92.5453 330.391 92.6879 332.226C93.4882 337.663 93.048 343.211 91.4002 348.454C88.9389 356.117 83.8194 362.648 76.9654 366.868C74.2843 368.474 70.8551 368.055 68.64 365.85C65.6452 362.527 67.3223 357.916 68.9694 354.413C71.3952 349.413 74.5397 346.089 75.7376 340.49Z" fill="#333333"/>
<path fill-rule="evenodd" clip-rule="evenodd" d="M321.069 406.032C321.043 419.274 312.27 430.907 299.543 434.573C286.815 438.24 273.196 433.058 266.127 421.859C259.058 410.66 260.24 396.139 269.027 386.231C277.814 376.322 292.092 373.409 304.059 379.085C314.471 384.014 321.098 394.514 321.069 406.032Z" fill="#E6CBC3"/>
<path fill-rule="evenodd" clip-rule="evenodd" d="M313.133 385.821C304.82 376.835 291.847 373.861 280.448 378.328C269.049 382.796 261.554 393.791 261.563 406.032C261.567 407.485 261.677 408.936 261.892 410.374C292.589 420.524 304.987 413.038 313.133 385.821Z" fill="#EDDFD5"/>
<path fill-rule="evenodd" clip-rule="evenodd" d="M312.684 407.379C313.578 410.838 313.951 414.41 313.792 417.979C317.953 410.167 317.752 400.754 313.259 393.128C308.767 385.502 300.631 380.761 291.78 380.612C301.784 386.683 309.219 396.204 312.684 407.379Z" fill="white"/>
<path fill-rule="evenodd" clip-rule="evenodd" d="M281.268 403.188C281.83 400.147 282.59 397.146 283.544 394.205C283.653 393.701 283.733 393.191 283.784 392.678C284.802 390.23 284.33 387.415 282.57 385.432C280.81 383.449 278.071 382.647 275.518 383.366C273.695 383.888 272.015 384.82 270.607 386.091C269.123 387.175 267.98 388.661 267.313 390.373C264.987 395.357 263.82 400.802 263.899 406.302C264.083 414.354 267.142 422.075 272.524 428.069C274.637 430.388 278.059 430.969 280.819 429.476C284.772 427.171 284.353 422.26 283.814 418.428C282.886 412.978 280.819 408.936 281.268 403.188Z" fill="#333333"/>
<path fill-rule="evenodd" clip-rule="evenodd" d="M302.861 175.333L294.326 174.374L295.793 166.021L304.328 166.979L302.861 175.333Z" fill="#7FB728"/>
<path fill-rule="evenodd" clip-rule="evenodd" d="M168.426 154.014L159.891 153.056L161.358 144.702L169.893 145.661L168.426 154.014Z" fill="#7FB728"/>
<path fill-rule="evenodd" clip-rule="evenodd" d="M273.752 400.463L262.911 398.008C260.541 397.867 258.478 396.34 257.651 394.115C256.825 391.89 257.39 389.387 259.094 387.734C260.797 386.08 263.316 385.589 265.516 386.48L276.357 388.935C283.634 389.534 280.58 403.008 273.752 400.463Z" fill="#EDDFD5"/>
<path fill-rule="evenodd" clip-rule="evenodd" d="M262.461 395.612C264.245 394.114 266.27 392.929 268.451 392.109C270.307 391.383 272.25 390.9 274.231 390.672L265.007 388.576C264.546 388.465 264.074 388.404 263.599 388.396C261.661 388.273 259.971 389.699 259.766 391.63C259.567 393.438 260.708 395.124 262.461 395.612Z" fill="white"/>
<path fill-rule="evenodd" clip-rule="evenodd" d="M278.783 389.834C278.469 391.176 277.796 392.407 276.836 393.397C273.962 395.826 270.125 396.788 266.445 396.002C263.491 396.045 260.571 395.366 257.939 394.025C258.764 396.152 260.658 397.68 262.911 398.038L273.752 400.493C279.651 402.679 282.736 392.918 278.783 389.834Z" fill="#E6CBC3"/>
<path fill-rule="evenodd" clip-rule="evenodd" d="M277.705 389.235C279.431 391.954 279.535 395.399 277.974 398.217C277.419 399.202 276.652 400.051 275.728 400.702C280.699 400.373 282.586 391.091 277.705 389.235Z" fill="#D6AA9F"/>
<path fill-rule="evenodd" clip-rule="evenodd" d="M271.416 414.356L259.437 413.158C256.955 413.237 254.652 411.868 253.536 409.65C252.42 407.432 252.693 404.768 254.235 402.822C255.778 400.877 258.31 400.003 260.724 400.583L272.703 401.78C280.52 401.481 279.022 416.212 271.416 414.356Z" fill="#EDDFD5"/>
<path fill-rule="evenodd" clip-rule="evenodd" d="M258.598 410.403C260.206 406.98 263.259 404.455 266.923 403.517L260.634 402.858H259.856C258.771 402.75 257.689 403.088 256.859 403.794C256.029 404.5 255.521 405.513 255.453 406.601C255.357 408.484 256.615 410.169 258.448 410.613L258.598 410.403Z" fill="white"/>
<path fill-rule="evenodd" clip-rule="evenodd" d="M273.302 409.266C266.811 412.245 259.249 411.714 253.237 407.858C253.855 410.886 256.496 413.078 259.586 413.128L271.565 414.326C276.716 415.583 279.052 409.236 277.555 405.104C276.703 406.971 275.187 408.454 273.302 409.266Z" fill="#E6CBC3"/>
<path fill-rule="evenodd" clip-rule="evenodd" d="M274.92 402.17C277.17 405.635 276.839 410.174 274.111 413.278C273.707 413.714 273.266 414.115 272.793 414.475C278.513 414.386 279.741 404.325 274.92 402.17Z" fill="#D6AA9F"/>
<path fill-rule="evenodd" clip-rule="evenodd" d="M275.848 429.117L264.198 431.542C261.863 432.333 259.282 431.708 257.567 429.937C255.853 428.166 255.313 425.566 256.18 423.259C257.047 420.952 259.166 419.35 261.623 419.146L273.272 416.721C280.64 414.146 283.664 428.458 275.848 429.117Z" fill="#EDDFD5"/>
<path fill-rule="evenodd" clip-rule="evenodd" d="M267.373 420.135L262.102 421.242C258.957 421.901 258.029 423.997 258.209 425.734C258.414 427.825 260.244 429.376 262.342 429.237H263.21C263.707 425.87 265.151 422.713 267.373 420.135Z" fill="white"/>
<path fill-rule="evenodd" clip-rule="evenodd" d="M274.111 416.392C275.455 417.653 275.996 419.552 275.519 421.332C273.512 427.77 264.528 429.686 258.568 429.177C258.052 429.134 257.541 429.044 257.041 428.907C258.687 431.224 261.619 432.245 264.348 431.452L275.998 429.027C283.335 428.488 280.849 415.134 274.111 416.392Z" fill="#E6CBC3"/>
<path fill-rule="evenodd" clip-rule="evenodd" d="M274.111 416.392C277.704 417.646 279.97 421.199 279.591 424.985C279.451 425.907 279.21 426.81 278.873 427.68C282.346 424.236 279.681 415.344 274.111 416.392Z" fill="#D6AA9F"/>
<path fill-rule="evenodd" clip-rule="evenodd" d="M84.2132 337.795L96.1922 338.903C98.6017 339.429 101.099 338.519 102.605 336.567C104.11 334.614 104.356 331.968 103.234 329.772C102.113 327.576 99.8253 326.223 97.3602 326.298L85.3811 325.19C77.8643 323.423 76.4268 338.125 84.2132 337.795Z" fill="#EDDFD5"/>
<path fill-rule="evenodd" clip-rule="evenodd" d="M97.0606 328.633L89.8433 327.945C91.5544 329.137 92.9935 330.677 94.0659 332.466L94.3953 333.095C95.082 334.159 95.5785 335.334 95.8627 336.568H96.3718H97.0906C98.1849 336.684 99.2791 336.346 100.117 335.633C100.955 334.92 101.463 333.894 101.523 332.795C101.493 331.118 100.415 328.933 97.0606 328.633Z" fill="white"/>
<path fill-rule="evenodd" clip-rule="evenodd" d="M82.6558 325.31C82.5369 326.774 82.8163 328.243 83.4644 329.561C85.6036 332.945 89.1832 335.154 93.1675 335.55C96.1597 336.574 99.3571 336.851 102.481 336.358C100.937 338.242 98.5085 339.165 96.1023 338.783L84.1233 337.676C77.4749 338.095 77.5947 327.166 82.6558 325.31Z" fill="#E6CBC3"/>
<path fill-rule="evenodd" clip-rule="evenodd" d="M83.8535 325.07C81.2053 327.244 79.9442 330.682 80.5593 334.053C80.7914 335.233 81.2823 336.348 81.9967 337.316C77.1752 335.43 78.3431 325.34 83.8535 325.07Z" fill="#D6AA9F"/>
<path fill-rule="evenodd" clip-rule="evenodd" d="M80.859 353.455L92.5086 355.97C94.8374 356.791 97.4312 356.195 99.1675 354.44C100.904 352.684 101.47 350.084 100.622 347.765C99.7741 345.447 97.6634 343.825 95.2039 343.604L83.5843 341.089C76.277 338.424 73.1325 352.856 80.859 353.455Z" fill="#EDDFD5"/>
<path fill-rule="evenodd" clip-rule="evenodd" d="M94.7547 345.909L89.8433 344.832C91.5958 346.564 92.4662 348.998 92.2091 351.449C92.1217 352.126 91.9507 352.79 91.7 353.425L93.0177 353.724C93.499 353.836 93.991 353.897 94.4851 353.904C96.5716 354.026 98.3826 352.48 98.588 350.401C98.8276 348.664 97.8992 346.568 94.7547 345.909Z" fill="white"/>
<path fill-rule="evenodd" clip-rule="evenodd" d="M80.8587 348.035C86.0972 352.884 93.4436 354.735 100.355 352.946C98.8137 355.613 95.6294 356.857 92.688 355.94L80.8587 353.455C75.5879 353.036 75.3184 346.299 77.864 342.796C78.1658 344.857 79.2355 346.729 80.8587 348.035Z" fill="#E6CBC3"/>
<path fill-rule="evenodd" clip-rule="evenodd" d="M81.3981 340.789C78.1787 343.382 77.0773 347.799 78.7028 351.598C78.9467 352.141 79.2373 352.662 79.5713 353.155C74.2406 351.269 76.1273 341.328 81.3981 340.789Z" fill="#D6AA9F"/>
<path fill-rule="evenodd" clip-rule="evenodd" d="M72.1442 366L82.4762 371.988C84.4444 373.49 87.1041 373.718 89.2988 372.572C91.4935 371.426 92.8268 369.114 92.7188 366.641C92.6109 364.168 91.0813 361.98 88.7951 361.03L78.4632 355.042C72.264 350.251 64.8969 363.066 72.1442 366Z" fill="#EDDFD5"/>
<path fill-rule="evenodd" clip-rule="evenodd" d="M87.6269 363.006L83.0749 360.251C84.1101 361.698 84.5103 363.504 84.1829 365.252C83.9433 366.684 83.531 368.081 82.9551 369.414L83.6439 369.803C84.4921 370.325 85.4632 370.614 86.459 370.641C88.2428 370.629 89.7823 369.387 90.1725 367.647C90.5197 365.694 89.4605 363.763 87.6269 363.006Z" fill="white"/>
<path fill-rule="evenodd" clip-rule="evenodd" d="M77.8638 354.562C76.2331 355.38 75.1772 357.021 75.1087 358.844C75.1087 365.581 82.9549 370.192 88.7947 371.569C89.2963 371.686 89.8076 371.756 90.3221 371.779C88.008 373.42 84.9096 373.42 82.5956 371.779L72.2636 365.791C65.196 363.246 71.7246 351.269 77.8638 354.562Z" fill="#E6CBC3"/>
<path fill-rule="evenodd" clip-rule="evenodd" d="M77.8638 354.563C74.048 354.626 70.7759 357.303 69.9576 361.03C69.7958 361.949 69.7356 362.883 69.778 363.814C67.472 359.473 72.7727 351.838 77.8638 354.563Z" fill="#D6AA9F"/>
<path fill-rule="evenodd" clip-rule="evenodd" d="M423.58 235.276C446.19 245.665 458.139 268.211 454.396 295.728C456.516 289.132 457.18 282.155 456.342 275.277C454.853 264.778 450.869 254.787 444.723 246.144L442.746 243.48C441.339 242.491 439.931 241.503 438.553 240.485C433.283 236.533 427.143 232.132 424.358 225.934C423.857 224.815 423.495 223.638 423.28 222.431C422.584 223.362 421.992 224.366 421.513 225.425C419.597 229.587 419.417 233.359 423.58 235.276Z" fill="#E6CBC3"/>
<path fill-rule="evenodd" clip-rule="evenodd" d="M95.5929 157.368C97.6186 144.068 101.817 131.191 108.021 119.252C114.122 107.276 123.366 97.1844 134.764 90.0592C108.351 93.5025 94.2153 120.719 92.8377 146.469C91.922 157.073 92.9366 167.755 95.8325 177.997C94.5679 171.186 94.4868 164.207 95.5929 157.368Z" fill="#EDDFD5"/>
<path fill-rule="evenodd" clip-rule="evenodd" d="M234.437 192.992L226.411 191.914L227.968 184.04L235.994 185.147L234.437 192.992Z" fill="#92BF20"/>
<path fill-rule="evenodd" clip-rule="evenodd" d="M227.344 183.238L219.289 182.16L220.846 174.315L228.902 175.393L227.344 183.238Z" fill="#92BF20"/>
<path fill-rule="evenodd" clip-rule="evenodd" d="M217.337 191.016L209.311 189.938L210.868 182.093L218.894 183.171L217.337 191.016Z" fill="#92BF20"/>
<path d="M136.617 385.531L115.292 378.023L118.232 369.67L150.916 347.514L162.326 351.53L152.38 379.783L157.541 381.6L154.003 391.651L148.841 389.834L145.59 399.071L133.365 394.767L136.617 385.531ZM140.155 375.479L145.343 360.742L129.764 371.821L140.155 375.479Z" fill="#81A200"/>
<path d="M174.89 410.378C172.218 409.437 169.88 408.13 167.873 406.457C165.883 404.739 164.37 402.603 163.335 400.051C162.3 397.498 161.834 394.485 161.938 391.01C162.103 387.506 162.974 383.513 164.552 379.03L165.031 377.672C166.497 373.507 168.224 370.12 170.21 367.512C172.243 364.919 174.446 362.998 176.82 361.747C179.21 360.451 181.711 359.78 184.323 359.732C186.934 359.685 189.576 360.131 192.247 361.072C194.919 362.012 197.257 363.319 199.264 364.992C201.27 366.665 202.799 368.755 203.85 371.263C204.917 373.725 205.408 376.595 205.322 379.872C205.282 383.166 204.529 386.895 203.063 391.061L202.585 392.419C201.007 396.902 199.162 400.552 197.05 403.371C194.999 406.16 192.771 408.225 190.365 409.567C187.959 410.908 185.442 411.625 182.814 411.717C180.203 411.765 177.561 411.318 174.89 410.378ZM178.428 400.326C179.334 400.645 180.274 400.722 181.248 400.556C182.268 400.406 183.263 399.891 184.234 399.012C185.266 398.103 186.29 396.784 187.306 395.055C188.338 393.281 189.356 390.968 190.36 388.116L190.838 386.757C191.715 384.267 192.267 382.121 192.494 380.318C192.738 378.47 192.726 376.914 192.459 375.649C192.237 374.401 191.767 373.421 191.051 372.711C190.395 371.971 189.614 371.442 188.709 371.123C187.803 370.804 186.841 370.72 185.821 370.87C184.863 370.99 183.883 371.46 182.883 372.278C181.928 373.112 180.966 374.326 179.998 375.919C179.046 377.466 178.132 379.485 177.255 381.976L176.777 383.334C175.773 386.186 175.117 388.627 174.81 390.656C174.519 392.64 174.468 394.301 174.658 395.641C174.91 396.95 175.363 397.975 176.019 398.715C176.719 399.47 177.523 400.008 178.428 400.326Z" fill="#81A200"/>
<path d="M223.234 416.024L201.909 408.516L204.85 400.163L237.534 378.007L248.943 382.023L238.997 410.276L244.159 412.093L240.62 422.144L235.459 420.327L232.207 429.564L219.983 425.26L223.234 416.024ZM226.773 405.972L231.961 391.235L216.382 402.314L226.773 405.972Z" fill="#81A200"/>
<path d="M132.617 381.531L111.292 374.023L114.232 365.67L146.916 343.514L158.326 347.53L148.38 375.783L153.541 377.6L150.003 387.651L144.841 385.834L141.59 395.071L129.365 390.767L132.617 381.531ZM136.155 371.479L141.343 356.742L125.764 367.821L136.155 371.479Z" fill="white"/>
<path d="M170.89 406.378C168.218 405.437 165.88 404.13 163.873 402.457C161.883 400.739 160.37 398.603 159.335 396.051C158.3 393.498 157.834 390.485 157.938 387.01C158.103 383.506 158.974 379.513 160.552 375.03L161.031 373.672C162.497 369.507 164.224 366.12 166.21 363.512C168.243 360.919 170.446 358.998 172.82 357.747C175.21 356.451 177.711 355.78 180.323 355.732C182.934 355.685 185.576 356.131 188.247 357.072C190.919 358.012 193.257 359.319 195.264 360.992C197.27 362.665 198.799 364.755 199.85 367.263C200.917 369.725 201.408 372.595 201.322 375.872C201.282 379.166 200.529 382.895 199.063 387.061L198.585 388.419C197.007 392.902 195.162 396.552 193.05 399.371C190.999 402.16 188.771 404.225 186.365 405.567C183.959 406.908 181.442 407.625 178.814 407.717C176.203 407.765 173.561 407.318 170.89 406.378ZM174.428 396.326C175.334 396.645 176.274 396.722 177.248 396.556C178.268 396.406 179.263 395.891 180.234 395.012C181.266 394.103 182.29 392.784 183.306 391.055C184.338 389.281 185.356 386.968 186.36 384.116L186.838 382.757C187.715 380.267 188.267 378.121 188.494 376.318C188.738 374.47 188.726 372.914 188.459 371.649C188.237 370.401 187.767 369.421 187.051 368.711C186.395 367.971 185.614 367.442 184.709 367.123C183.803 366.804 182.841 366.72 181.821 366.87C180.863 366.99 179.883 367.46 178.883 368.278C177.928 369.112 176.966 370.326 175.998 371.919C175.046 373.466 174.132 375.485 173.255 377.976L172.777 379.334C171.773 382.186 171.117 384.627 170.81 386.656C170.519 388.64 170.468 390.301 170.658 391.641C170.91 392.95 171.363 393.975 172.019 394.715C172.719 395.47 173.523 396.008 174.428 396.326Z" fill="white"/>
<path d="M219.234 412.024L197.909 404.516L200.85 396.163L233.534 374.007L244.943 378.023L234.997 406.276L240.159 408.093L236.62 418.144L231.459 416.327L228.207 425.564L215.983 421.26L219.234 412.024ZM222.773 401.972L227.961 387.235L212.382 398.314L222.773 401.972Z" fill="white"/>
<path fill-rule="evenodd" clip-rule="evenodd" d="M190.026 98.9525L182 97.8746L183.557 90L191.583 91.1078L190.026 98.9525Z" fill="#92BF20"/>
<path fill-rule="evenodd" clip-rule="evenodd" d="M196.026 107.953L188 106.875L189.557 99L197.583 100.108L196.026 107.953Z" fill="#92BF20"/>
<path fill-rule="evenodd" clip-rule="evenodd" d="M202.026 116.953L194 115.875L195.557 108L203.583 109.108L202.026 116.953Z" fill="#92BF20"/>
<path fill-rule="evenodd" clip-rule="evenodd" d="M212.026 108.953L204 107.875L205.557 100L213.583 101.108L212.026 108.953Z" fill="#92BF20"/>
<path fill-rule="evenodd" clip-rule="evenodd" d="M192.026 123.953L184 122.875L185.557 115L193.583 116.108L192.026 123.953Z" fill="#92BF20"/>
<path fill-rule="evenodd" clip-rule="evenodd" d="M182.026 130.953L174 129.875L175.557 122L183.583 123.108L182.026 130.953Z" fill="#92BF20"/>
<path fill-rule="evenodd" clip-rule="evenodd" d="M222.026 102.953L214 101.875L215.557 94L223.583 95.1078L222.026 102.953Z" fill="#92BF20"/>
<path fill-rule="evenodd" clip-rule="evenodd" d="M209.026 125.953L201 124.875L202.557 117L210.583 118.108L209.026 125.953Z" fill="#92BF20"/>
<path fill-rule="evenodd" clip-rule="evenodd" d="M215.026 134.953L207 133.875L208.557 126L216.583 127.108L215.026 134.953Z" fill="#92BF20"/>
<path fill-rule="evenodd" clip-rule="evenodd" d="M266.026 107.953L258 106.875L259.557 99L267.583 100.108L266.026 107.953Z" fill="#92BF20"/>
<path fill-rule="evenodd" clip-rule="evenodd" d="M272.026 116.953L264 115.875L265.557 108L273.583 109.108L272.026 116.953Z" fill="#92BF20"/>
<path fill-rule="evenodd" clip-rule="evenodd" d="M278.026 125.953L270 124.875L271.557 117L279.583 118.108L278.026 125.953Z" fill="#92BF20"/>
<path fill-rule="evenodd" clip-rule="evenodd" d="M288.026 117.953L280 116.875L281.557 109L289.583 110.108L288.026 117.953Z" fill="#92BF20"/>
<path fill-rule="evenodd" clip-rule="evenodd" d="M268.026 132.953L260 131.875L261.557 124L269.583 125.108L268.026 132.953Z" fill="#92BF20"/>
<path fill-rule="evenodd" clip-rule="evenodd" d="M258.026 139.953L250 138.875L251.557 131L259.583 132.108L258.026 139.953Z" fill="#92BF20"/>
<path fill-rule="evenodd" clip-rule="evenodd" d="M298.026 111.953L290 110.875L291.557 103L299.583 104.108L298.026 111.953Z" fill="#92BF20"/>
<path fill-rule="evenodd" clip-rule="evenodd" d="M285.026 134.953L277 133.875L278.557 126L286.583 127.108L285.026 134.953Z" fill="#92BF20"/>
<path fill-rule="evenodd" clip-rule="evenodd" d="M291.026 143.953L283 142.875L284.557 135L292.583 136.108L291.026 143.953Z" fill="#92BF20"/>
</g>
<defs>
<clipPath id="clip0">
<rect width="480" height="441" fill="white"/>
</clipPath>
</defs>
</svg>
