<svg width="669" height="473" viewBox="0 0 669 473" fill="none" xmlns="http://www.w3.org/2000/svg">
<path fill-rule="evenodd" clip-rule="evenodd" d="M316.151 20.0946C374.539 14.2183 434.707 -15.2293 487.605 10.178C543.475 37.013 569.559 99.3192 596.902 154.943C628.778 219.789 694.272 294.682 658.245 357.317C620.069 423.689 516.646 398.696 443.563 421.532C399.739 435.225 361.626 457.879 316.151 464.209C263.316 471.564 210.167 479.314 160.067 460.995C97.434 438.094 7.52747 415.064 0.398948 348.758C-7.21588 277.928 96.2902 248.332 130.485 185.838C154.815 141.372 130.25 76.0925 168.062 42.3379C206.234 8.26215 265.239 25.2186 316.151 20.0946Z" fill="#92BF20"/>
</svg>
