<?xml version="1.0" encoding="UTF-8"?>
<svg width="510px" height="297px" viewBox="0 0 510 297" version="1.1" xmlns="http://www.w3.org/2000/svg" xmlns:xlink="http://www.w3.org/1999/xlink">
    <!-- Generator: Sketch 47.1 (45422) - http://www.bohemiancoding.com/sketch -->
    <title>about-map</title>
    <desc>Created with Sketch.</desc>
    <defs></defs>
    <g id="1200px" stroke="none" stroke-width="1" fill="none" fill-rule="evenodd">
        <g id="Главная-HR-Usetech(var.0.3_13_11_2017)-Copy" transform="translate(-1081.000000, -1103.000000)" fill-rule="nonzero" fill="#86A800">
            <g id="about-map" transform="translate(1081.000000, 1103.000000)">
                <path d="M0.88,218.947 L1.863,223.659 L0,226.43 L1.272,230.05 L5.222,229.177 L10.337,233.867 L13.822,235.242 L13.962,235.012 L15.549,232.407 L10.615,227.685 L11.912,220.451 L9.566,219.067 L8.23,220.37 L1.6,217.227 L0.88,218.947 L0.88,218.947 Z M507.228,213.437 L506.664,214.195 L506.587,214.299 L506.604,214.429 L506.754,215.514 L506.764,215.581 L506.801,215.639 L507.358,216.511 L507.515,216.759 L507.771,216.619 L508.921,215.989 L509.161,215.859 L509.064,215.603 L508.592,214.346 L508.568,214.282 L508.523,214.236 L507.705,213.404 L507.448,213.146 L507.231,213.436 L507.228,213.437 Z M502.838,213.047 L501.711,213.821 L501.681,213.843 L501.659,213.867 L501.075,214.503 L500.927,214.663 L501.027,214.857 L501.899,216.605 L502.075,219.032 L502.08,219.098 L502.11,219.16 L502.946,220.703 L503.109,221.003 L503.392,220.818 L503.946,220.458 L504.106,220.354 L504.088,220.164 L503.642,215.901 L504.188,215.007 L504.236,214.927 L504.233,214.831 L504.195,213.679 L504.188,213.479 L504.008,213.402 L503.138,213.022 L502.978,212.955 L502.835,213.052 L502.838,213.047 Z M505.6,199.577 L504.376,199.717 L504.022,199.757 L504.108,200.105 L504.385,201.208 L503.777,201.938 L503.767,201.948 L503.759,201.96 L502.519,203.748 L502.443,203.856 L502.468,203.986 L503.174,207.679 L503.177,207.704 L503.181,207.716 L504.103,210.636 L504.151,210.791 L504.308,210.841 L504.904,211.029 L505.326,211.161 L505.31,210.719 L505.256,208.972 L505.224,206.647 L505.221,206.621 L505.047,204.864 L505.897,203.094 L505.903,203.084 L506.563,201.558 L506.618,201.433 L506.565,201.311 L505.923,199.766 L505.833,199.549 L505.598,199.577 L505.6,199.577 Z M506.104,189.757 L505.132,191.107 L505.054,191.215 L505.078,191.347 L505.525,193.777 L505.989,196.315 L505.991,196.325 L506.231,197.478 L506.291,197.771 L508.021,197.495 L508.059,197.275 L508.591,194.233 L508.601,194.168 L508.587,194.108 L507.913,191.316 L507.893,191.242 L507.843,191.184 L506.593,189.74 L506.333,189.438 L506.103,189.758 L506.104,189.757 Z M506.238,180.764 L505.415,181.974 L505.305,182.137 L505.402,182.307 L506.512,184.287 L506.652,184.537 L506.909,184.423 L509.129,183.441 L509.441,183.304 L509.275,183.002 L508.155,180.969 L508.081,180.827 L507.921,180.807 L506.534,180.631 L506.346,180.607 L506.236,180.765 L506.238,180.764 Z M505.308,176.734 L504.908,178.104 L504.858,178.266 L504.966,178.394 L505.806,179.398 L505.973,179.594 L506.195,179.471 L507.082,178.991 L507.252,178.896 L507.245,178.702 L507.181,176.892 L507.171,176.61 L506.889,176.592 L505.629,176.512 L505.382,176.494 L505.31,176.734 L505.308,176.734 Z M504.732,170.738 L503.942,170.751 L503.722,170.755 L503.652,170.968 L503.195,172.346 L503.135,172.526 L503.265,172.664 L504.49,173.947 L504.743,174.212 L504.965,173.922 L505.991,172.562 L506.138,172.372 L505.992,172.182 L504.989,170.866 L504.893,170.738 L504.735,170.74 L504.732,170.738 Z M499.539,160.16 L499.563,161.613 L499.563,161.706 L499.615,161.781 L500.492,163.098 L500.666,163.358 L500.924,163.186 L502.57,162.09 L502.696,162.006 L502.712,161.856 L502.805,160.884 L502.83,160.618 L502.572,160.548 L499.932,159.85 L499.532,159.744 L499.539,160.16 L499.539,160.16 Z M496.021,151.962 L496.317,155.869 L496.327,155.989 L496.417,156.072 L498.224,157.78 L498.407,157.954 L498.617,157.81 L499.887,156.94 L500.064,156.82 L500.014,156.608 L499.118,152.84 L499.088,152.72 L498.985,152.653 L497.731,151.813 L497.668,151.769 L497.593,151.759 L496.37,151.623 L495.993,151.581 L496.02,151.961 L496.021,151.962 Z M494.215,150.928 L492.985,152.041 L492.829,152.187 L492.904,152.389 L493.262,153.329 L493.309,153.453 L493.429,153.505 L494.811,154.115 L495.161,154.268 L495.244,153.894 L495.602,152.254 L495.635,152.104 L495.532,151.987 L494.664,150.961 L494.456,150.714 L494.216,150.929 L494.215,150.928 Z M497.09,148.96 L496.61,149.58 L496.548,149.656 L496.544,149.756 L496.492,150.721 L496.475,150.991 L496.739,151.047 L498.199,151.355 L498.407,151.398 L498.524,151.218 L499.122,150.288 L499.294,150.021 L499.024,149.851 L497.502,148.889 L497.262,148.739 L497.09,148.961 L497.09,148.96 Z M15.758,135.818 L14.338,137.086 L12.133,137.29 L11.608,137.34 L11.902,137.78 L19.486,149.084 L19.669,149.357 L19.933,149.16 L23.135,146.766 L23.279,146.659 L23.259,146.479 L22.484,139.715 L22.474,139.615 L22.406,139.54 L20.319,137.216 L19.834,136.676 L19.774,137.399 L19.541,140.139 L18.197,139.555 L16.245,135.905 L16.059,135.553 L15.762,135.817 L15.758,135.818 Z M176.765,133.683 L174.527,134.643 L174.339,134.723 L174.337,134.929 L174.309,137.235 L174.307,137.349 L174.383,137.439 L176.233,139.644 L176.361,139.798 L176.551,139.745 L178.367,139.253 L178.627,139.183 L178.597,138.913 L178.285,136.36 L178.28,136.31 L178.26,136.27 L177.172,133.842 L177.046,133.559 L176.764,133.682 L176.765,133.683 Z M103.761,130.103 L103.359,130.893 L103.321,130.968 L103.324,131.05 L103.352,131.75 L103.358,131.89 L103.472,131.982 L104.224,132.585 L104.434,132.755 L104.634,132.571 L105.406,131.849 L105.566,131.702 L105.481,131.5 L105.071,130.52 L105.027,130.417 L104.927,130.365 L104.185,129.972 L103.905,129.824 L103.761,130.106 L103.761,130.103 Z M221.739,130.036 L220.176,131.259 L220.103,131.314 L220.073,131.407 L219.745,132.387 L219.635,132.724 L219.981,132.794 L221.436,133.09 L221.519,133.108 L221.599,133.081 L222.974,132.596 L223.3,132.481 L223.153,132.168 L222.213,130.156 L222.047,129.796 L221.737,130.036 L221.739,130.036 Z M150.453,128.129 L148.035,129.439 L147.891,129.517 L147.873,129.68 L147.603,132 L147.585,132.154 L147.699,132.262 L149.433,133.922 L149.541,134.025 L149.691,134.005 L153.071,133.555 L153.307,133.525 L153.341,133.288 L153.525,131.968 L153.535,131.903 L153.517,131.84 L153.005,129.984 L152.978,129.884 L152.898,129.822 L150.796,128.16 L150.633,128.033 L150.453,128.129 L150.453,128.129 Z M224.81,127.127 L223.963,128.985 L223.87,129.188 L224.033,129.342 L225.745,130.965 L225.923,131.135 L226.13,131.002 L227.046,130.412 L227.241,130.288 L227.181,130.063 L226.465,127.53 L226.42,127.37 L226.26,127.316 L225.192,126.959 L224.924,126.869 L224.809,127.127 L224.81,127.127 Z M215.61,125.211 L214.716,125.663 L214.444,125.801 L214.574,126.077 L215.11,127.227 L215.2,127.417 L215.41,127.407 L216.587,127.35 L216.853,127.338 L216.883,127.072 L216.973,126.262 L216.991,126.092 L216.859,125.982 L215.949,125.246 L215.792,125.119 L215.612,125.211 L215.61,125.211 Z M164.887,121.409 L165.535,124.207 L165.663,124.762 L166.063,124.36 L167.005,123.41 L167.118,123.295 L166.771,121.135 L166.523,121.117 L165.213,121.027 L164.791,120.997 L164.888,121.41 L164.887,121.409 Z M236.117,120.585 L235.961,121.802 L235.933,122.02 L236.131,122.124 L236.849,122.494 L237.172,122.661 L237.289,122.315 L237.586,121.428 L237.654,121.222 L237.486,121.085 L236.626,120.385 L236.191,120.03 L236.118,120.588 L236.117,120.585 Z M233.425,119.54 L232.969,120.806 L232.885,121.036 L233.09,121.174 L234.42,122.064 L234.673,122.234 L235.495,121.09 L235.599,120.945 L235.529,120.781 L235.034,119.625 L234.961,119.453 L234.776,119.435 L233.748,119.335 L233.506,119.311 L233.423,119.541 L233.425,119.54 Z M237.019,117.514 L237.127,118.468 L237.147,118.645 L237.307,118.719 L238.019,119.045 L238.334,119.19 L238.446,118.86 L238.714,118.066 L238.804,117.796 L238.544,117.679 L237.454,117.189 L236.954,116.967 L237.018,117.513 L237.019,117.514 Z M227.139,115.102 L226.199,115.562 L226.029,115.645 L226.023,115.833 L225.989,116.72 L225.984,116.864 L226.09,116.962 L226.97,117.792 L227.24,118.045 L227.444,117.742 L228.084,116.8 L228.184,116.655 L228.112,116.495 L227.562,115.259 L227.429,114.961 L227.139,115.101 L227.139,115.102 Z M238.199,115.002 L237.669,115.53 L237.497,115.7 L237.613,115.908 L238.045,116.678 L238.089,116.758 L238.169,116.801 L238.989,117.246 L239.277,117.4 L239.417,117.102 L239.947,116.002 L240.077,115.726 L239.805,115.586 L238.56,114.946 L238.36,114.843 L238.2,115.003 L238.199,115.002 Z M290.191,113.702 L288.851,113.862 L288.674,113.882 L288.6,114.046 L288.04,115.318 L288.02,115.365 L288.016,115.415 L287.946,116.169 L287.93,116.324 L288.045,116.428 L288.782,117.108 L288.987,117.296 L289.197,117.116 L291.117,115.459 L291.312,115.291 L291.185,115.066 L290.498,113.856 L290.396,113.673 L290.192,113.701 L290.191,113.702 Z M231.968,109.489 L231.118,110.506 L230.921,110.744 L231.154,110.946 L231.972,111.654 L232.007,111.684 L232.042,111.701 L232.946,112.131 L233.128,112.215 L233.281,112.085 L234.364,111.16 L234.597,110.962 L234.407,110.722 L233.527,109.628 L233.447,109.531 L233.32,109.514 L232.243,109.379 L232.075,109.357 L231.965,109.49 L231.968,109.489 Z M293.006,108.742 L291.696,108.759 L291.451,108.763 L291.395,109.006 L290.951,111.002 L290.901,111.23 L291.103,111.345 L293.266,112.565 L293.57,112.738 L293.71,112.415 L294.363,110.88 L294.383,110.832 L294.388,110.786 L294.496,109.586 L294.516,109.356 L294.306,109.268 L293.131,108.768 L293.069,108.743 L293.007,108.743 L293.006,108.742 Z M235.13,106.384 L234.045,106.471 L233.819,106.491 L233.767,106.714 L233.583,107.494 L233.545,107.664 L233.665,107.787 L234.455,108.587 L234.723,108.859 L234.936,108.543 L235.504,107.701 L235.569,107.605 L235.556,107.491 L235.468,106.665 L235.434,106.362 L235.13,106.384 L235.13,106.384 Z M256.073,100.031 L255.693,101.249 L255.863,101.382 L256.533,101.916 L256.78,102.112 L256.974,101.864 L257.591,101.071 L257.783,100.821 L257.533,100.628 L256.563,99.875 L256.207,99.6 L256.072,100.03 L256.073,100.031 Z M494.443,97.621 L491.675,97.734 L491.621,97.734 L491.571,97.754 L489.141,98.744 L488.727,98.914 L489.027,99.246 L490.237,100.584 L490.331,100.687 L490.471,100.687 L494.251,100.679 L494.353,100.679 L494.435,100.619 L495.797,99.599 L496.061,99.402 L495.853,99.147 L494.697,97.737 L494.597,97.614 L494.442,97.622 L494.443,97.621 Z M257.866,96.254 L256.566,97.424 L256.226,97.728 L256.63,97.936 L257.963,98.63 L258.147,98.724 L258.305,98.594 L259.103,97.931 L259.326,97.747 L259.159,97.509 L258.329,96.309 L258.129,96.015 L257.864,96.252 L257.866,96.254 Z M246.118,95.817 L245.492,96.557 L245.385,96.687 L245.43,96.847 L245.675,97.715 L245.72,97.871 L245.872,97.926 L247.509,98.516 L247.963,98.681 L247.927,98.199 L247.839,96.985 L247.829,96.853 L247.729,96.766 L246.559,95.781 L246.319,95.581 L246.119,95.817 L246.118,95.817 Z M209.062,94.067 L205.804,95.492 L205.666,95.552 L205.626,95.697 L205.306,96.845 L199.716,97.269 L196.933,95.581 L196.746,95.469 L196.576,95.605 L194.666,97.135 L192.426,96.555 L192.262,96.515 L192.138,96.627 L189.688,98.869 L187.338,99.247 L187.263,99.335 L186.447,100.273 L184.857,99.045 L184.393,98.685 L184.355,99.272 L184.142,102.578 L182.64,102.906 L182.39,102.96 L182.392,103.217 L182.415,104.415 L178.545,106.343 L176.992,105.939 L176.766,105.879 L176.646,106.083 L175.861,107.41 L175.715,107.657 L177.15,108.7 L175.988,110.22 L173.18,109.55 L172.804,109.46 L172.794,109.85 L172.757,111.783 L170.973,111.983 L170.663,112.016 L170.695,112.326 L170.847,113.822 L168.513,115.552 L166.801,115.269 L166.641,115.244 L166.527,115.362 L164.817,117.136 L164.715,117.242 L164.733,117.39 L164.98,119.55 L164.996,119.69 L165.106,119.77 L167.152,121.255 L167.652,123.81 L166.264,125.738 L166.138,125.914 L166.258,126.094 L168.103,128.902 L168.201,129.048 L168.378,129.042 L169.704,128.996 L169.964,130.096 L170.017,130.324 L170.251,130.338 L172.023,130.445 L173.245,130.832 L173.675,130.968 L173.651,130.515 L173.239,122.992 L173.362,120.172 L175.272,117.288 L177.96,115.883 L178.053,115.833 L178.099,115.743 L178.999,113.895 L179.066,113.753 L178.993,113.613 L178.391,112.456 L179.941,113.129 L180.039,113.173 L180.144,113.145 L182.054,112.635 L182.251,112.585 L182.495,111.085 L183.533,110.999 L183.848,110.974 L183.818,110.657 L183.718,109.597 L184.956,109.85 L185.316,109.924 L185.332,109.554 L185.365,108.661 L186.249,109.359 L186.545,109.592 L186.719,109.257 L187.406,107.947 L187.443,107.879 L187.443,107.803 L187.45,106.5 L188.84,107.187 L189.067,107.297 L189.225,107.097 L190.035,106.079 L192.188,106.199 L192.373,106.209 L192.471,106.049 L193.901,103.727 L207.898,101.179 L207.974,101.165 L208.034,101.119 L211.136,98.719 L211.26,98.624 L211.26,98.468 L211.24,95.868 L211.238,95.73 L211.131,95.635 L209.393,94.115 L209.243,93.985 L209.063,94.065 L209.062,94.067 Z M497.626,94 L495.076,95.475 L494.656,95.718 L495.05,96.003 L496.55,97.093 L496.78,97.26 L496.97,97.046 L499.157,94.564 L499.577,94.089 L498.942,94.041 L497.802,93.959 L497.706,93.951 L497.626,93.999 L497.626,94 Z M464.461,91.72 L462.938,91.72 L462.895,91.986 L462.395,95.062 L462.365,95.242 L462.507,95.356 L466.857,98.92 L467.422,99.382 L467.369,98.652 L466.929,92.595 L466.912,92.375 L466.696,92.315 L464.546,91.728 L464.511,91.716 L464.461,91.719 L464.461,91.72 Z M335.528,88.296 L332.244,88.392 L331.696,88.408 L331.989,88.873 L332.855,90.247 L332.908,90.331 L333,90.371 L334.615,91.048 L334.741,91.1 L334.864,91.042 L336.067,90.49 L336.304,90.38 L336.241,90.127 L335.844,88.535 L335.781,88.29 L335.528,88.296 L335.528,88.296 Z M272.342,84.926 L272.272,85.47 L272.259,85.55 L272.287,85.623 L272.747,86.83 L272.82,87.018 L273.022,87.032 L275.385,87.186 L275.825,87.214 L275.705,86.787 L275.46,85.919 L275.417,85.771 L275.277,85.711 L272.767,84.673 L272.393,84.518 L272.343,84.923 L272.342,84.926 Z M344.222,80.916 L343.382,82.763 L342.882,83.543 L342.815,83.647 L343.37,87.097 L343.73,86.957 L346.903,85.727 L346.943,85.713 L346.978,85.686 L349.796,83.578 L350.03,83.4 L349.872,83.156 L348.437,80.936 L348.343,80.79 L348.168,80.793 L346.108,80.838 L344.526,80.735 L344.312,80.72 L344.222,80.916 L344.222,80.916 Z M340.308,80.848 L339.602,81.826 L339.504,81.966 L339.566,82.126 L340.543,84.633 L340.636,84.871 L342.488,84.574 L342.478,84.294 L342.385,81.934 L342.378,81.764 L342.232,81.676 L340.722,80.766 L340.476,80.618 L340.308,80.848 L340.308,80.848 Z M324.598,79.128 L325.321,80.956 L325.351,81.031 L325.411,81.081 L327.401,82.778 L327.574,82.923 L327.767,82.808 L328.749,82.218 L329.049,82.038 L328.834,81.758 L327.204,79.642 L327.148,79.575 L327.068,79.543 L325.001,78.723 L324.331,78.457 L324.597,79.131 L324.598,79.128 Z M265.023,78.116 L262.755,79.87 L262.618,79.974 L262.632,80.144 L263.016,84.82 L261.796,88.265 L261.752,88.385 L261.806,88.5 L262.871,90.838 L263.069,91.273 L263.386,90.919 L265.846,88.184 L268.774,87.506 L268.891,87.48 L270.306,85.513 L270.376,85.417 L270.363,85.297 L269.968,81.517 L269.954,81.397 L269.868,81.319 L267.808,79.406 L267.548,79.166 L267.34,79.453 L266.312,80.88 L265.762,80.454 L265.52,78.331 L265.457,77.779 L265.021,78.117 L265.023,78.116 Z M228.315,76.48 L227.208,77.21 L227.071,77.3 L227.066,77.463 L227.036,78.473 L227.03,78.637 L227.165,78.737 L228.331,79.587 L228.433,79.661 L228.56,79.643 L229.977,79.449 L230.307,79.402 L230.239,79.074 L229.973,77.821 L229.953,77.723 L229.883,77.658 L228.703,76.518 L228.523,76.344 L228.315,76.481 L228.315,76.48 Z M256.568,73.063 L252.895,75.681 L252.798,75.751 L252.771,75.868 L251.896,79.691 L251.886,79.743 L251.892,79.798 L252.022,80.952 L252.046,81.165 L252.252,81.22 L253.82,81.644 L256.79,83.484 L256.808,83.496 L256.823,83.503 L260.103,85.059 L260.273,85.139 L260.425,85.025 L261.751,84.011 L261.876,83.914 L261.874,83.759 L261.861,81.679 L261.861,81.539 L261.751,81.442 L260.566,80.422 L261.476,78.23 L261.506,78.157 L261.496,78.081 L261.278,75.715 L261.263,75.57 L261.143,75.486 L259.046,74.008 L258.532,73.648 L258.552,74.275 L258.582,75.293 L258.07,75.543 L257.03,73.196 L256.877,72.846 L256.567,73.069 L256.568,73.063 Z M207.628,70.847 L207.063,71.869 L206.951,72.069 L207.111,72.237 L207.987,73.157 L208.284,73.471 L208.488,73.091 L208.998,72.146 L209.098,71.959 L208.965,71.796 L208.145,70.799 L207.851,70.445 L207.629,70.845 L207.628,70.847 Z M339.268,68.39 L336.018,68.697 L335.91,68.707 L335.832,68.787 L334.435,70.159 L331.907,70.153 L331.581,70.15 L331.596,70.48 L331.668,72.268 L331.673,72.415 L331.793,72.505 L333.363,73.701 L332.989,74.313 L330.479,72.828 L330.369,72.762 L330.245,72.796 L327.351,73.549 L327.098,73.614 L327.118,73.874 L327.291,76.296 L327.294,76.326 L327.304,76.356 L327.979,78.77 L328.001,78.854 L328.067,78.917 L329.617,80.343 L330.387,82.103 L330.457,82.267 L330.637,82.287 L333.487,82.623 L333.545,82.63 L333.6,82.617 L336.082,82.001 L336.385,81.926 L336.312,81.622 L335.762,79.357 L337.234,79.294 L337.434,79.284 L337.509,79.097 L338.449,76.761 L339.965,76.831 L340.145,76.841 L340.245,76.687 L341.161,75.244 L341.318,74.994 L341.078,74.82 L339.778,73.876 L339.714,73.828 L339.634,73.818 L337.167,73.518 L335.287,71.906 L336.165,71.516 L337.843,73.362 L337.933,73.458 L338.063,73.463 L340.879,73.588 L341.253,73.604 L341.2,73.23 L340.762,70.06 L340.749,69.97 L340.693,69.902 L339.537,68.505 L339.432,68.377 L339.262,68.39 L339.268,68.39 Z M206.57,67.17 L205.998,68.234 L205.918,68.149 L205.042,67.225 L204.892,67.069 L204.692,67.154 L203.702,67.578 L203.594,67.624 L203.544,67.732 L203,68.882 L202.885,69.125 L203.105,69.275 L204.295,70.082 L204.529,70.24 L204.711,70.022 L205.614,68.942 L205.397,69.345 L205.254,69.611 L205.514,69.765 L206.394,70.287 L206.57,70.393 L206.737,70.267 L207.977,69.337 L208.09,69.252 L208.102,69.109 L208.228,67.429 L208.251,67.119 L207.944,67.091 L206.87,67 L206.665,66.982 L206.567,67.169 L206.57,67.17 Z M196.534,66.363 L196.422,67.31 L196.394,67.548 L196.617,67.638 L197.677,68.068 L198.161,68.261 L198.106,67.741 L197.972,66.501 L197.947,66.264 L197.71,66.224 L196.895,66.091 L196.573,66.037 L196.536,66.364 L196.534,66.363 Z M210.364,65.777 L208.972,67.395 L208.882,67.499 L208.897,67.632 L209.009,68.744 L209.024,68.891 L209.15,68.974 L210.702,69.987 L210.882,70.103 L211.054,69.978 L213.544,68.183 L213.764,68.025 L213.638,67.785 L212.872,66.312 L212.806,66.185 L212.666,66.152 L210.673,65.675 L210.486,65.63 L210.363,65.775 L210.364,65.777 Z M232.594,65.812 L231.958,66.66 L231.893,66.748 L231.895,66.858 L231.931,68.084 L231.931,68.121 L231.939,68.149 L232.129,68.929 L232.179,69.135 L232.389,69.165 L233.774,69.365 L233.862,69.375 L233.944,69.341 L235.324,68.731 L235.664,68.581 L235.464,68.271 L234.311,66.511 L234.268,66.447 L234.201,66.411 L232.999,65.729 L232.759,65.594 L232.595,65.814 L232.594,65.812 Z M216.862,64.997 L216.066,66.669 L214.47,66.515 L214.208,66.491 L214.138,66.746 L213.931,67.51 L213.901,67.613 L213.941,67.713 L214.491,69.083 L214.589,69.323 L214.841,69.275 L217.538,68.775 L217.706,68.745 L217.771,68.585 L218.575,66.597 L218.648,66.42 L218.524,66.274 L217.381,64.93 L217.069,64.562 L216.862,64.997 L216.862,64.997 Z M200.898,64.537 L199.3,65.72 L199.034,65.918 L199.244,66.173 L200.644,67.875 L200.894,68.181 L201.131,67.867 L202.225,66.427 L202.355,66.257 L202.243,66.072 L201.347,64.622 L201.167,64.332 L200.895,64.532 L200.898,64.537 Z M248.118,64.297 L245.948,64.7 L245.682,64.75 L245.692,65.02 L245.762,66.77 L245.772,67.066 L246.068,67.073 L249.268,67.146 L249.788,67.159 L249.556,66.692 L248.456,64.465 L248.349,64.253 L248.117,64.297 L248.118,64.297 Z M252.831,64.221 L251.459,66.128 L250.002,67.464 L249.842,67.609 L249.92,67.809 L250.61,69.639 L249.334,72.079 L249.284,72.173 L249.539,73.763 L249.659,73.841 L252.152,75.471 L252.164,75.477 L251.994,75.442 L248.528,74.717 L248.388,74.687 L248.275,74.777 L247.141,75.652 L246.947,75.802 L247.044,76.026 L247.64,77.426 L247.685,77.533 L247.793,77.587 L250.213,78.747 L250.388,78.83 L250.54,78.71 L251.91,77.636 L252.01,77.558 L252.027,77.428 L252.243,75.793 L252.273,75.553 L252.326,75.583 L252.496,75.473 L256.436,72.863 L256.606,72.753 L256.344,71.123 L257.756,70.025 L257.99,69.842 L257.82,69.595 L257.002,68.412 L255.497,65.625 L255.457,65.552 L255.39,65.508 L253.257,64.142 L253.007,63.982 L252.834,64.222 L252.831,64.221 Z M202.547,64.061 L202.264,64.769 L202.216,64.889 L202.264,65.005 L202.7,66.065 L202.88,66.505 L203.212,66.169 L203.837,65.536 L204.021,65.351 L203.874,65.136 L203.096,63.998 L202.763,63.514 L202.546,64.061 L202.547,64.061 Z M212.249,63.797 L211.481,65.183 L211.293,65.518 L211.659,65.634 L212.913,66.03 L213.146,66.102 L213.274,65.894 L213.904,64.864 L214.059,64.606 L213.809,64.436 L212.699,63.686 L212.415,63.499 L212.25,63.795 L212.249,63.797 Z M387.41,62.32 L386.056,62.824 L385.888,62.886 L385.856,63.063 L385.63,64.325 L385.586,64.565 L385.806,64.668 L386.97,65.201 L387.146,65.283 L387.298,65.158 L388.375,64.264 L388.562,64.11 L388.459,63.887 L387.801,62.481 L387.678,62.219 L387.408,62.319 L387.41,62.32 Z M348.58,61.885 L347.574,63.442 L345.104,63.634 L344.911,63.65 L344.841,63.835 L344.401,64.973 L342.911,65.213 L342.915,65.485 L342.927,66.639 L341.517,66.803 L341.007,66.865 L341.297,67.293 L342.612,69.243 L342.722,69.405 L342.919,69.375 L349.223,68.435 L349.41,68.409 L349.473,68.229 L350.749,64.566 L350.799,64.42 L350.713,64.29 L349.107,61.883 L348.842,61.487 L348.582,61.885 L348.58,61.885 Z M206.043,61.407 L204.327,63.077 L204.077,63.32 L204.343,63.544 L206.257,65.164 L206.323,65.218 L206.405,65.233 L208.991,65.68 L209.354,65.743 L209.357,65.373 L209.377,63.445 L209.38,63.271 L209.233,63.177 L206.429,61.369 L206.219,61.235 L206.042,61.408 L206.043,61.407 Z M217.095,60.157 L216.113,61.047 L215.935,61.205 L216.043,61.42 L216.627,62.588 L216.777,62.888 L217.064,62.718 L218.152,62.078 L218.402,61.932 L218.275,61.67 L217.585,60.253 L217.402,59.879 L217.095,60.157 L217.095,60.157 Z M209.849,58.912 L208.425,59.937 L208.23,60.079 L208.315,60.302 L208.665,61.242 L208.71,61.366 L208.83,61.419 L210.257,62.054 L210.54,62.181 L210.668,61.898 L211.256,60.608 L211.33,60.443 L211.223,60.293 L210.285,58.983 L210.103,58.728 L209.849,58.91 L209.849,58.912 Z M200.293,58.019 L200.096,58.846 L200.056,59.016 L200.179,59.142 L201.206,60.172 L201.466,60.435 L201.681,60.135 L202.523,58.965 L202.245,58.785 L200.768,57.827 L200.396,57.587 L200.292,58.017 L200.293,58.019 Z M192.131,57.935 L192.768,59.425 L192.81,59.528 L192.904,59.578 L194.21,60.298 L194.316,60.358 L194.434,60.331 L195.969,59.961 L197.027,60.574 L197.287,60.724 L196.017,61.102 L195.972,61.116 L195.937,61.138 L195.191,61.612 L193.413,61.397 L193.039,61.351 L193.064,61.727 L193.154,63.11 L193.164,63.258 L193.281,63.345 L194.698,64.373 L196.15,65.711 L196.5,66.031 L196.656,65.585 L196.929,64.811 L196.969,64.701 L196.927,64.591 L196.477,63.446 L197.725,62.936 L199.879,63.292 L200.071,63.322 L200.184,63.166 L201.319,61.59 L201.489,61.354 L201.265,61.164 L199.812,59.936 L199.752,59.886 L199.672,59.869 L198.578,59.647 L198.408,59.613 L198.29,59.738 L197.385,60.696 L197.299,60.72 L197.453,60.46 L197.973,59.58 L198.126,59.32 L197.874,59.156 L196.397,58.196 L196.249,58.101 L196.089,58.178 L195.117,58.658 L192.544,57.522 L191.819,57.204 L192.131,57.934 L192.131,57.935 Z M211.794,57.375 L211.232,57.995 L211.056,58.189 L211.216,58.397 L211.716,59.047 L211.75,59.091 L211.795,59.119 L212.535,59.599 L212.753,59.741 L212.933,59.549 L213.667,58.767 L213.917,58.501 L213.615,58.293 L212.203,57.323 L211.977,57.17 L211.795,57.375 L211.794,57.375 Z M337.102,56.943 L336.929,58.553 L336.895,58.881 L337.223,58.901 L338.525,58.979 L338.8,58.999 L338.852,58.727 L339.127,57.314 L339.189,57.006 L338.879,56.946 L337.471,56.666 L337.138,56.601 L337.101,56.943 L337.102,56.943 Z M402.726,13.603 L399.509,14.389 L399.361,14.426 L399.298,14.566 L397.815,17.833 L397.777,17.92 L398.177,20.422 L398.267,20.498 L402.537,24.186 L402.795,24.41 L402.995,24.132 L403.649,23.219 L403.709,23.139 L403.709,23.046 L403.899,18.006 L404.687,15.569 L404.747,15.384 L404.607,15.247 L403.02,13.685 L402.894,13.562 L402.724,13.602 L402.726,13.603 Z M325.92,244.932 L326.055,244.12 L326.149,243.57 L326.151,243.548 L326.151,243.518 L326.144,239.192 L326.887,237.182 L328.135,237.128 L328.605,238.566 L328.543,242.466 L328.543,242.502 L328.551,242.542 L329.401,246.216 L329.407,246.246 L329.424,246.28 L330.314,248.163 L329.884,250.158 L328.914,251.41 L328.882,251.45 L328.865,251.497 L328.595,252.244 L328.549,252.372 L328.609,252.49 L329.196,253.677 L328.923,254.903 L327.801,255.385 L327.589,255.475 L327.612,255.708 L327.758,257.098 L326.608,259.908 L324.371,261.021 L324.275,261.069 L324.23,261.162 L323.037,263.512 L321.287,263.639 L321.002,263.659 L320.998,263.949 L320.958,266.739 L319.888,268.422 L315.881,271.032 L315.846,271.056 L313.096,271.498 L312.429,270.514 L313.449,269.654 L315.125,269.134 L315.193,269.112 L315.249,269.059 L318.365,266.063 L318.409,266.023 L318.435,265.963 L319.375,263.847 L321.58,261.089 L321.633,261.023 L321.645,260.943 L321.942,259.118 L323.042,256.245 L324.434,253.07 L324.446,253.038 L324.453,253.001 L325.351,248.331 L325.353,248.327 L325.353,248.323 L325.436,247.891 L325.426,247.893 L325.92,244.935 L325.92,244.932 Z M86.534,151.392 L86.606,151.309 L86.558,151.262 L86.596,151.064 L86.768,150.158 L86.78,150.088 L86.765,150.024 L86.152,147.504 L86.776,145.577 L89.516,141.447 L91.418,141.589 L92.155,142.546 L92.162,144.486 L90.962,146.096 L90.947,146.116 L88.92,149.319 L88.882,149.379 L88.872,149.452 L88.592,151.955 L88.572,152.118 L88.562,152.133 L87.668,153.319 L85.482,153.569 L84.519,152.834 L85.217,152.738 L85.329,152.721 L85.405,152.637 L86.395,151.537 L86.488,151.625 L86.532,151.385 L86.534,151.392 Z M69.057,146.877 L72.409,141.149 L72.469,141.044 L72.444,140.924 L71.908,138.364 L71.951,138.346 L73.856,137.639 L76.431,137.589 L77.628,138.809 L77.858,140.547 L77.155,141.702 L77.091,141.807 L77.117,141.929 L77.54,143.939 L77.567,145.689 L76.45,146.879 L76.39,146.944 L76.37,147.032 L76.162,148.054 L73.642,148.509 L72.399,147.179 L72.286,147.059 L69.716,147.471 L69.053,146.876 L69.057,146.877 Z M442.083,0 L441.871,0.176 L435.477,5.486 L435.357,5.586 L435.364,5.74 L435.496,9.14 L434.026,11.875 L433.833,12.238 L434.233,12.331 L438.563,13.326 L436.881,14.44 L429.011,13.593 L428.871,13.577 L428.766,13.674 L420.833,21.021 L408.72,30.407 L408.653,30.457 L408.621,30.537 L405.988,36.95 L405.942,37.06 L405.982,37.173 L406.502,38.603 L404.46,39.537 L404.39,39.567 L404.346,39.625 L401.436,43.26 L401.25,43.492 L401.47,43.689 L404.362,46.306 L404.522,46.45 L404.712,46.355 L406.642,45.402 L409.859,46.596 L410.023,49.448 L407.333,50.194 L407.267,50.214 L407.217,50.254 L405.555,51.622 L401.065,49.708 L400.543,49.486 L401.479,55.316 L397.789,59.15 L397.739,59.203 L397.717,59.269 L396.587,62.731 L396.503,62.989 L396.486,63.033 L396.471,63.083 L395.917,64.78 L392.017,67.9 L388.375,65.393 L388.285,65.333 L388.177,65.339 L384.8,65.539 L384.69,65.544 L384.61,65.619 L380.37,69.466 L380.335,69.5 L380.308,69.544 L377.713,74.07 L377.68,74.127 L377.67,74.189 L377.185,78.294 L375.397,79.177 L372.645,78.307 L372.557,78.282 L372.471,78.302 L369.936,78.968 L369.803,79.002 L369.739,79.122 L368.846,80.795 L367.806,80.155 L367.549,79.995 L367.382,80.245 L366.662,81.325 L365.66,80.649 L367.475,78.129 L366.793,78.186 L362.253,78.574 L362.123,78.584 L362.04,78.686 L359.824,81.353 L359.698,81.506 L359.784,81.69 L361.892,86.132 L360.275,88.302 L359.74,84.97 L357.57,85.32 L357.492,85.415 L356.34,86.855 L355.88,85.678 L357.966,83.071 L358.526,82.374 L357.656,82.569 L354.942,83.175 L354.876,83.19 L354.823,83.227 L347.351,88.707 L347.035,88.937 L347.329,89.197 L348.999,90.671 L347.209,93.065 L347.063,93.258 L347.21,93.448 L348.392,94.97 L348.578,95.206 L348.821,95.029 L349.968,94.203 L350.418,96.136 L350.438,96.239 L350.518,96.305 L352.5,97.991 L350.016,99.038 L349.911,99.082 L349.859,99.182 L349.147,100.582 L349.067,100.74 L349.16,100.89 L350.104,102.422 L348.124,103.089 L344.709,102.632 L344.389,102.59 L344.357,102.915 L343.993,106.541 L338.468,106.454 L338.098,106.447 L339.438,114.797 L335.802,114.772 L329.162,110.435 L330.872,108.763 L331.09,108.55 L330.883,108.325 L326.243,103.335 L326.183,103.271 L326.103,103.247 L323.507,102.467 L323.383,102.43 L323.269,102.49 L319.913,104.276 L315.7,103.37 L315.296,103.282 L315.323,103.696 L315.748,109.943 L309.162,114.113 L306.39,112.813 L306.537,111.471 L306.585,111.066 L306.18,111.126 L298.606,112.256 L298.45,112.281 L298.376,112.421 L296.81,115.411 L296.783,115.465 L296.777,115.521 L296.717,116.045 L296.253,114.775 L296.216,114.675 L296.126,114.618 L294.512,113.593 L294.256,113.431 L294.084,113.681 L292.734,115.656 L290.814,117.04 L290.789,117.06 L290.662,117.15 L290.517,117.254 L290.365,117.364 L288.35,118.817 L288.325,118.837 L288.305,118.857 L286.16,121.135 L282.967,122.66 L282.852,122.714 L282.809,122.831 L282.291,124.214 L282.021,122.22 L287.695,114.036 L287.719,114.002 L287.733,113.962 L290.443,106.424 L290.455,106.388 L290.459,106.352 L291.211,99.897 L291.231,99.727 L291.101,99.621 L284.804,94.383 L284.7,94.295 L284.564,94.312 L279.551,94.945 L279.384,94.965 L279.31,95.119 L278.024,97.783 L276.712,98.226 L277.43,94.256 L277.5,93.868 L277.108,93.884 L273.478,94.018 L274.272,92.358 L274.397,92.098 L274.149,91.951 L271.321,90.265 L271.165,90.171 L271.01,90.261 L268.9,91.455 L268.812,91.505 L268.769,91.599 L266.054,97.514 L265.994,97.641 L266.054,97.771 L267.239,100.459 L263.829,101.239 L263.516,101.309 L263.591,101.619 L263.835,102.607 L263.855,102.687 L263.911,102.747 L265.126,104.039 L263.066,103.934 L262.904,103.926 L262.804,104.056 L261.702,105.494 L258.802,105.426 L258.242,104.246 L258.138,104.03 L257.904,104.074 L253.431,104.877 L253.117,104.934 L253.179,105.246 L253.624,107.541 L248.612,109.078 L248.532,109.103 L248.472,109.165 L245.355,112.597 L242.647,113.114 L242.534,113.137 L242.464,113.222 L240.681,115.392 L240.619,115.468 L240.611,115.568 L240.301,119.47 L240.291,119.592 L240.365,119.688 L242.368,122.256 L240.251,123.166 L233.066,123.132 L233.046,123.132 L233.021,123.135 L228.936,123.705 L228.75,123.731 L228.686,123.911 L227.802,126.361 L227.775,126.433 L227.787,126.511 L228.557,132.379 L228.575,132.515 L228.687,132.595 L231.614,134.649 L233.041,136.912 L230.121,137.382 L226.237,132.268 L226.114,132.108 L225.92,132.152 L223.687,132.647 L223.677,132.649 L223.529,132.681 L223.372,132.716 L221.722,133.084 L221.504,133.132 L221.479,133.355 L221.189,135.985 L218.469,134.202 L218.049,133.927 L217.987,134.427 L217.657,137.134 L217.633,137.308 L217.771,137.418 L221.101,140.053 L221.521,141.925 L216.187,138.505 L215.593,135.775 L217.333,132.765 L217.383,132.679 L217.375,132.581 L216.995,128.104 L216.951,127.576 L216.511,127.869 L215.665,128.432 L215.555,128.506 L215.53,128.636 L214.947,131.736 L213.621,133.386 L212.021,134.136 L211.917,134.186 L211.869,134.291 L210.609,137.061 L210.569,137.148 L210.587,137.248 L211.713,143.734 L208.71,150.726 L208.67,150.821 L208.692,150.921 L209.57,154.803 L209.636,155.09 L213.936,154.4 L217.802,157.77 L218.396,161.468 L216.513,164.678 L216.41,164.852 L216.53,165.019 L217.408,166.249 L217.463,166.326 L217.553,166.359 L218.886,166.856 L216.471,167.844 L215.047,164.646 L216.911,159.666 L216.961,159.536 L216.895,159.411 L215.168,156.093 L215.078,155.92 L214.888,155.92 L210.722,155.99 L210.569,155.993 L210.479,156.116 L208.583,158.646 L208.509,158.746 L208.522,158.869 L209.05,163.714 L206.037,167.998 L202.895,169.76 L202.829,169.797 L202.786,169.859 L201.006,172.522 L192.816,169.102 L192.546,167.422 L197.696,168.87 L197.826,168.905 L197.941,168.839 L200.509,167.313 L200.536,167.297 L200.559,167.277 L204.507,163.73 L204.57,163.674 L204.597,163.591 L206.623,157.103 L206.653,157.005 L206.623,156.912 L205.629,153.82 L208.732,140.994 L208.738,140.97 L208.738,140.956 L208.985,138.776 L208.995,138.698 L208.965,138.626 L208.005,136.13 L210.715,132.565 L210.779,132.478 L210.779,132.371 L210.733,127.841 L210.733,127.709 L210.636,127.619 L207.9,124.984 L209.975,124.364 L210.272,124.276 L210.188,123.978 L209.281,120.821 L209.211,120.571 L208.953,120.591 L206.298,120.821 L205.991,120.845 L206.013,121.158 L206.196,123.531 L206.201,123.605 L206.238,123.667 L206.655,124.369 L205.595,124.129 L205.422,124.089 L205.3,124.219 L203.116,126.539 L203.09,126.566 L203.07,126.606 L200.707,130.902 L198.807,133.442 L195.527,134.805 L195.451,134.835 L195.398,134.905 L193.851,136.95 L193.681,137.174 L193.886,137.366 L195.953,139.349 L194.649,142.949 L192.154,144.167 L191.959,144.262 L191.979,144.48 L192.097,145.745 L192.111,145.885 L192.221,145.968 L194.877,147.968 L194.457,150.245 L194.439,150.342 L194.481,150.432 L195.138,151.87 L195.158,151.918 L195.198,151.956 L196.138,152.946 L193.918,155.768 L192.951,154.666 L191.564,151.262 L191.544,151.212 L191.51,151.172 L187.424,146.465 L187.324,146.347 L187.234,146.232 L185.181,143.558 L185.158,143.53 L185.128,143.505 L180.248,139.665 L180.138,139.58 L176.601,140.148 L176.586,140.398 L176.464,142.302 L176.464,142.332 L176.467,142.362 L176.804,144.956 L174.999,146.466 L173.833,146.42 L173.623,146.41 L173.536,146.602 L173.046,147.679 L171.886,147.029 L173.216,145.356 L173.304,145.246 L172.937,142.966 L172.629,143.013 L166.817,143.863 L163.651,142.207 L163.544,142.153 L163.43,142.183 L159.18,143.276 L157.77,141.874 L159.855,141.336 L160.022,141.292 L160.074,141.129 L161.044,138.149 L161.171,137.764 L160.768,137.737 L157.061,137.477 L156.871,137.463 L156.771,137.63 L155.664,139.505 L154.874,138.498 L154.791,138.391 L154.655,138.379 L145.152,137.595 L144.977,137.58 L144.075,138.833 L142.797,137.966 L142.603,137.836 L142.423,137.983 L138.243,141.443 L135.721,139.673 L136.085,137.581 L136.105,137.477 L136.053,137.38 L135.105,135.61 L137.515,134.347 L140.425,135.757 L140.725,135.903 L140.852,135.595 L141.832,133.211 L141.866,133.129 L141.849,133.037 L141.137,129.127 L141.115,129.011 L141.022,128.937 L136.722,125.519 L136.28,125.167 L136.218,125.729 L135.781,129.707 L131.405,133.683 L131.303,133.775 L131.303,133.915 L131.289,136.377 L129.443,138.683 L129.323,138.833 L129.309,138.85 L129.213,138.97 L129.093,139.12 L127.207,141.476 L126.195,140.151 L127.405,139.699 L127.802,139.552 L127.549,139.215 L124.839,135.625 L124.706,135.448 L124.494,135.518 L121.492,136.501 L118.234,135.934 L118.159,135.922 L118.089,135.945 L114.275,137.155 L114.103,137.211 L114.066,137.387 L112.856,142.803 L111.566,142.306 L108.576,137.566 L108.256,133.5 L108.226,133.118 L107.86,133.221 L104.27,134.226 L104.068,134.284 L104.043,134.494 L103.609,138.157 L103.589,138.322 L103.714,138.432 L105.417,139.934 L104.485,141.714 L102.263,140.912 L101.443,138.312 L101.379,138.109 L101.345,137.999 L100.939,136.716 L100.997,135.563 L101.004,135.427 L100.904,135.329 L99.724,134.139 L100.35,132.359 L102.748,128.129 L105.105,126.924 L105.215,126.871 L105.258,126.758 L106.338,123.931 L106.358,123.874 L106.358,123.814 L106.318,119.974 L106.318,119.864 L106.315,119.86 L106.315,119.48 L106.319,115.864 L106.922,116.482 L106.986,119.427 L106.988,119.52 L107.042,119.598 L108.682,122.018 L109.714,126.333 L109.734,126.413 L109.787,126.473 L111.917,128.811 L112.752,131.431 L112.797,131.574 L112.935,131.631 L120.045,134.511 L120.157,134.556 L120.267,134.516 L124.135,133.124 L124.252,133.082 L124.308,132.972 L126.645,128.402 L126.675,128.339 L126.679,128.269 L126.814,123.796 L126.816,123.728 L126.788,123.663 L124.643,118.741 L123.609,111.247 L123.604,111.197 L123.581,111.151 L122.308,108.531 L122.288,108.491 L122.262,108.463 L119.692,105.51 L119.02,103.234 L119.47,102.834 L120.79,104.176 L121.004,104.393 L121.226,104.186 L122.338,103.151 L122.544,102.961 L122.378,102.733 L120.851,100.668 L120.805,100.604 L120.731,100.571 L115.846,98.274 L115.773,98.24 L115.693,98.247 L109.283,98.677 L109.163,98.685 L109.081,98.77 L107.995,99.876 L105.145,102.209 L104.999,102.329 L105.504,104.909 L104.007,108.515 L99.951,109.248 L99.806,109.273 L99.733,109.401 L98.648,111.341 L98.568,111.484 L98.488,111.622 L98.448,111.692 L95.704,116.597 L94.021,116.79 L93.919,116.8 L93.844,116.873 L91.849,118.758 L90.277,118.931 L90.055,118.955 L90.005,119.173 L89.612,120.933 L89.12,122.391 L87.816,123.747 L87.976,123.961 L88.813,125.073 L88.273,125.819 L85.281,125.814 L85.005,125.814 L84.97,126.091 L84.61,129.145 L84.607,129.165 L84.607,129.193 L84.731,133.526 L83.251,134.434 L75.016,134.654 L74.989,134.654 L74.964,134.661 L71.31,135.389 L71.154,135.419 L71.002,135.449 L68.272,135.993 L68.222,136.003 L68.182,136.026 L64.975,137.824 L64.795,137.926 L64.815,138.132 L65.092,140.912 L65.097,140.962 L65.117,141.007 L65.571,142.024 L65.125,142.54 L64.289,141.115 L64.189,140.943 L63.989,140.963 L62.759,141.083 L60.455,139.478 L60.251,139.338 L60.067,139.504 L57.817,141.538 L56.197,141.988 L55.877,142.08 L54.297,142.52 L54.212,142.545 L54.154,142.608 L51.899,145.024 L51.869,145.057 L51.847,145.097 L50.763,147.27 L48,147.552 L47.812,147.572 L47.74,147.749 L46.5,150.8 L44.61,151.34 L44.353,151.415 L44.385,151.683 L44.645,153.787 L42.013,156.174 L41.877,156.296 L41.917,156.474 L42.552,159.369 L42.572,159.464 L42.647,159.531 L43.963,160.747 L42.957,162.509 L42.88,162.644 L42.938,162.784 L43.498,164.149 L43.571,164.329 L43.763,164.346 L45.639,164.509 L46.279,166.233 L45.872,167.351 L45.832,167.461 L45.762,167.657 L45.717,167.777 L45.522,168.315 L43.102,170.287 L43.042,170.337 L43.012,170.407 L41.962,172.887 L41.952,172.905 L41.949,172.919 L40.949,176.247 L40.932,176.307 L40.938,176.367 L41.173,178.897 L41.179,178.95 L41.202,179 L41.79,180.29 L41.005,181.657 L40.955,181.745 L40.965,181.845 L41.049,182.753 L38.862,182.92 L37.167,181.754 L37.099,180.379 L37.085,180.094 L36.8,180.08 L35.17,180 L34.907,179.987 L34.847,180.244 L34.313,182.569 L31.497,185.879 L31.385,186.011 L31.435,186.175 L31.979,187.972 L32.063,188.247 L32.343,188.187 L33.958,187.847 L35.262,188.603 L36.094,190.757 L36.198,191.023 L36.471,190.948 L37.894,190.552 L39.384,190.596 L39.514,191.406 L37.857,194.524 L37.754,194.719 L37.697,194.727 L37.627,194.735 L37.567,194.773 L36.287,195.588 L36.193,195.648 L36.159,195.758 L35.749,197.062 L34.926,197.416 L34.712,197.508 L34.74,197.741 L34.924,199.421 L34.944,199.611 L35.122,199.679 L36.478,200.213 L36.626,203.183 L36.63,203.285 L36.598,203.341 L35.638,205.031 L35.632,205.041 L35.624,205.061 L35.189,206.073 L35.139,206.19 L35.182,206.31 L35.632,207.52 L35.687,207.668 L35.84,207.712 L36.97,208.035 L37.096,209.763 L37.108,209.953 L37.288,210.029 L40.61,211.457 L41.253,214.949 L41.268,215.022 L41.31,215.082 L44.55,219.412 L44.61,219.494 L44.748,219.678 L45.603,220.822 L45.949,223.679 L45.949,223.681 L45.989,224.013 L45.991,224.027 L46.008,224.179 L46.074,224.712 L43.794,224.999 L43.621,225.019 L43.548,225.177 L42.852,226.71 L41.689,227.05 L41.536,227.095 L41.483,227.245 L40.397,230.227 L38.213,231.475 L36.016,229.125 L35.92,229.023 L35.776,229.026 L31.196,229.163 L31.038,229.169 L30.948,229.296 L29.22,231.8 L28.994,232.127 L29.364,232.273 L33.824,234.043 L33.142,234.695 L30.775,233.725 L30.575,233.642 L30.428,233.802 L29.305,235.022 L29.272,234.975 L29.235,234.928 L29.189,234.896 L25.702,232.608 L25.182,232.268 L25.219,232.888 L25.421,236.508 L24.056,236.076 L23.978,236.051 L23.898,236.071 L20.768,236.745 L20.628,236.775 L20.558,236.899 L19.858,238.185 L17.194,234.991 L16.948,234.695 L16.708,234.995 L15.15,236.958 L15.056,237.074 L15.089,237.22 L15.699,239.99 L15.022,241.116 L14.932,241.266 L15.012,241.423 L15.675,242.695 L15.761,242.74 L17.105,243.45 L17.338,245.388 L17.343,245.43 L17.357,245.466 L18.624,248.639 L18.864,251.719 L19.1,256.893 L19.106,257.015 L19.192,257.101 L20.005,257.913 L20.185,258.093 L20.395,257.955 L21.399,257.308 L22.333,258.424 L22.496,258.618 L22.539,258.668 L25.074,261.708 L25.414,263.826 L25.508,263.901 L27.884,265.811 L27.882,265.811 L28.148,266.026 L30.118,267.613 L30.608,270.155 L30.624,270.242 L30.682,270.305 L31.342,271.045 L31.392,271.099 L31.415,271.203 L31.998,274.046 L32.036,274.232 L32.219,274.286 L35.619,275.286 L35.684,275.586 L35.701,275.669 L35.727,275.786 L35.772,275.986 L35.905,276.59 L35.935,276.736 L36.065,276.806 L37.048,277.319 L37.122,277.355 L37.154,277.41 L37.994,278.9 L38.424,280.054 L38.402,280.084 L37.662,281.118 L37.579,281.233 L37.609,281.371 L38.179,283.851 L38.199,283.934 L38.259,283.998 L41.049,286.885 L41.429,290.278 L41.284,291.985 L41.272,292.139 L41.388,292.243 L43.878,294.497 L44.054,294.655 L44.254,294.53 L45.184,293.953 L45.274,293.897 L45.312,293.797 L45.622,292.985 L46.692,293.355 L46.722,293.365 L46.748,293.368 L48.146,293.574 L48.286,293.594 L48.396,293.498 L49.814,292.242 L49.944,292.127 L49.21,287.557 L49.284,281.259 L52.594,276.862 L52.664,276.765 L52.656,276.645 L52.346,272.588 L52.341,272.538 L52.323,272.491 L51.705,270.995 L53.26,269.371 L53.3,269.331 L53.358,269.321 L55.958,268.961 L56.031,268.951 L56.089,268.911 L58.383,267.366 L58.433,267.333 L58.458,267.358 L58.553,267.378 L61.313,267.911 L61.369,267.921 L61.429,267.911 L68.382,266.621 L68.752,266.553 L68.618,266.203 L67.708,263.84 L69.098,263.335 L69.302,263.262 L69.306,263.044 L69.429,255.321 L69.431,255.185 L69.336,255.091 L67.918,253.694 L67.833,253.611 L67.72,253.601 L66.203,253.488 L66.219,252.431 L67.992,250.164 L68.164,249.947 L67.967,249.747 L65.867,247.63 L66.421,247.215 L67.544,246.485 L67.662,246.41 L67.792,246.343 L70.45,244.959 L70.614,244.873 L70.62,244.688 L70.683,242.601 L72.733,240.991 L75.163,239.929 L75.173,239.923 L76.039,239.499 L76.069,239.521 L77.774,240.696 L77.864,242.202 L77.668,243.575 L77.648,243.709 L77.728,243.813 L78.911,245.336 L79.091,245.566 L79.331,245.404 L81.025,244.277 L81.117,244.215 L81.15,244.11 L81.754,242.173 L82.526,241.013 L85.01,241.093 L85.155,241.098 L85.252,240.988 L86.412,239.668 L87.182,239.476 L87.916,239.879 L88.022,239.936 L88.137,239.911 L90.687,239.331 L90.715,239.324 L90.745,239.311 L92.575,238.503 L93.645,238.078 L93.845,239.858 L93.855,239.925 L93.89,239.987 L95.276,242.247 L95.412,242.467 L95.655,242.375 L96.777,241.938 L96.854,241.908 L96.906,241.843 L97.486,241.123 L98.959,241.557 L99.039,242.467 L98.731,243.577 L98.676,243.772 L98.832,243.902 L99.522,244.476 L99.585,244.528 L99.667,244.543 L101.262,244.833 L102.232,246.913 L103.324,249.623 L102.894,251.48 L102.861,251.618 L103.933,253.115 L104.13,253.391 L104.39,253.171 L106.006,251.785 L106.601,251.865 L107.281,252.871 L108.031,254.941 L108.075,255.055 L108.185,255.113 L109.578,255.83 L109.775,255.93 L109.935,255.783 L111.192,254.613 L112.457,254.483 L115.037,255.157 L115.134,256.202 L115.144,256.299 L115.202,256.371 L115.946,257.281 L116.036,257.391 L116.18,257.396 L117.55,257.432 L117.72,257.437 L117.817,257.293 L118.53,256.223 L119.617,257.013 L119.644,257.033 L119.684,257.05 L121.134,257.65 L121.174,259.834 L121.174,259.894 L121.198,259.954 L121.745,261.234 L121.775,261.304 L121.837,261.354 L123.601,262.784 L123.663,262.834 L123.747,262.849 L125.06,263.066 L125.2,263.088 L125.31,262.998 L126.327,262.138 L127.107,262.266 L128.021,263.543 L128.098,263.65 L128.228,263.67 L131.463,264.177 L131.623,264.204 L131.735,264.088 L132.905,262.873 L132.941,262.833 L132.963,262.793 L133.983,260.659 L134.06,260.499 L133.96,260.349 L130.78,255.559 L130.73,255.487 L130.708,255.475 L130.716,255.46 L131.396,254.18 L134.379,253.457 L134.629,253.395 L134.617,253.135 L134.512,251.005 L135.675,250.085 L137.081,249.935 L139.147,251.082 L139.38,251.212 L139.546,250.999 L140.536,249.727 L140.692,249.527 L140.525,249.331 L138.767,247.257 L137.819,245.225 L138.979,243.52 L140.076,242.998 L142.458,244.868 L142.556,244.948 L142.68,244.932 L147.206,244.495 L147.336,244.482 L147.474,244.492 L152.276,244.826 L155.156,246.049 L155.358,246.133 L155.508,245.969 L156.748,244.615 L159.081,245.425 L159.128,245.445 L159.172,245.445 L167.226,245.695 L167.324,245.695 L167.408,245.64 L170.038,243.883 L170.13,243.821 L170.22,243.806 L172.366,243.421 L174.684,246.227 L174.777,246.342 L174.927,246.342 L176.507,246.338 L176.671,246.338 L176.808,246.354 L177.844,246.484 L178.206,248.294 L177.66,249.142 L177.562,249.296 L177.646,249.458 L178.304,250.72 L177.044,252.755 L176.958,252.892 L177.02,253.042 L177.58,254.406 L177.653,254.586 L177.848,254.6 L181.328,254.844 L181.746,256.514 L181.813,256.784 L182.086,256.754 L183.811,256.561 L185.069,256.669 L186.314,257.689 L184.872,259.337 L184.775,259.447 L185.08,261.347 L185.46,261.159 L187.158,260.329 L188.844,260.934 L188.954,260.974 L189.064,260.928 L190.507,260.356 L190.581,260.326 L190.631,260.266 L191.651,259.046 L195.043,257.846 L195.19,257.796 L195.324,257.776 L198.936,257.28 L197.886,258.81 L197.752,259.006 L197.908,259.189 L202.468,264.587 L202.534,264.667 L202.574,264.77 L209.696,283.474 L209.802,283.754 L210.084,283.662 L212.19,282.982 L212.318,282.94 L212.378,282.818 L213.416,280.636 L214.511,280.894 L215.233,282.918 L215.283,283.058 L215.423,283.112 L220.395,284.88 L220.53,284.93 L220.652,284.86 L223.902,283.01 L225.712,283.477 L227.468,285.997 L227.532,286.091 L227.557,286.188 L228.309,289.011 L228.351,289.171 L228.504,289.227 L231.238,290.243 L231.741,292.889 L231.788,293.132 L232.033,293.147 L234.676,293.297 L235.886,294.387 L236.08,294.557 L236.284,294.404 L238.712,292.57 L239.465,294.21 L239.488,294.26 L239.521,294.294 L241.888,296.824 L241.988,296.93 L242.131,296.923 L245.178,296.778 L245.402,296.764 L245.462,296.546 L246.004,294.582 L249.777,293.812 L249.871,293.794 L249.938,293.724 L252.266,291.326 L252.36,291.228 L252.463,291.17 L262.465,285.438 L266.027,284.625 L266.727,285.387 L266.815,285.481 L266.942,285.487 L272.662,285.807 L273.427,288.122 L273.477,288.275 L273.63,288.322 L275.964,289.062 L276.019,289.078 L276.076,289.076 L282.246,288.769 L284.601,288.719 L285.954,289.629 L286.11,289.736 L286.276,289.646 L288.081,288.671 L288.133,288.641 L288.171,288.598 L289.675,286.818 L289.725,286.756 L289.741,286.682 L290.491,283.396 L290.534,283.212 L290.39,283.087 L288.004,281.007 L287.669,277.467 L288.739,276.932 L288.935,276.834 L288.911,276.616 L288.743,275.133 L290.198,274.828 L290.423,274.778 L290.618,272.714 L298.01,274.408 L298.034,274.413 L298.056,274.415 L304.589,274.86 L306.672,279.644 L306.728,279.772 L306.858,279.816 L311.998,281.56 L312.074,281.587 L312.154,281.569 L315.466,280.953 L315.546,280.936 L315.608,280.884 L319.782,277.377 L323.487,277.935 L323.545,277.947 L323.603,277.933 L327.193,277.113 L328.349,278.553 L328.457,278.688 L328.632,278.668 L330.844,278.408 L331.092,278.378 L331.162,278.371 L332.382,278.227 L334.116,280.527 L334.216,280.663 L334.386,280.653 L345.434,279.903 L345.538,279.897 L345.616,279.833 L352.156,274.286 L354.388,273.846 L354.605,273.804 L354.638,273.581 L354.985,271.125 L357.901,267.369 L362.604,266.369 L364.216,267.472 L364.456,267.638 L364.639,267.408 L366.313,265.273 L375.197,265.277 L375.454,265.277 L375.506,265.021 L376.183,261.501 L378.767,259.001 L378.949,258.827 L378.819,258.612 L377.119,255.798 L377.109,247.433 L378.932,244.9 L379.05,244.737 L378.948,244.563 L376.81,240.797 L376.712,240.627 L376.52,240.637 L373.777,240.784 L375.171,236.764 L378.631,233.424 L378.728,233.33 L378.842,233.247 L383.929,229.492 L388.359,230.278 L388.436,230.291 L388.509,230.267 L393.459,228.641 L402.194,234.914 L413.244,243.234 L413.414,243.362 L413.594,243.254 L416.974,241.221 L419.346,241.895 L419.489,241.938 L419.613,241.848 L421.039,240.822 L424.232,241.298 L424.296,241.308 L424.366,241.288 L426.041,240.791 L426.044,240.788 L429.144,244.312 L429.174,244.346 L429.214,244.372 L432.247,246.282 L432.422,246.392 L432.592,246.272 L437.8,242.61 L437.91,242.535 L437.93,242.398 L438.294,240.008 L441.694,234.682 L443.717,233.326 L446.385,236.451 L446.003,239.114 L445.99,239.217 L446.038,239.309 L448.016,242.979 L448.063,243.067 L448.078,243.171 L449.323,252.964 L449.335,253.054 L449.39,253.124 L451.305,255.462 L445.067,257.02 L444.889,257.064 L444.841,257.244 L443.387,262.526 L443.331,262.733 L443.501,262.86 L450.771,268.287 L451.298,270.567 L451.45,271.22 L451.852,270.688 L454.729,266.891 L460.597,266.034 L460.71,266.014 L460.785,265.934 L464.543,261.734 L464.588,261.684 L464.608,261.618 L466.352,256.031 L466.372,255.971 L466.368,255.913 L465.338,241.548 L465.888,233.864 L465.892,233.81 L465.874,233.752 L463.317,225.248 L463.277,225.118 L463.267,224.986 L462.44,215.022 L462.435,214.96 L462.405,214.9 L460.829,211.986 L460.822,211.971 L460.809,211.955 L454.409,202.882 L454.384,202.848 L454.359,202.826 L452.531,201.213 L450.034,194.587 L450.019,194.553 L450.007,194.533 L448.983,192.878 L453.363,194.428 L455.553,198.243 L455.576,198.283 L455.613,198.317 L458.503,201.002 L462.153,205.199 L464.778,208.284 L464.814,208.328 L464.869,208.358 L467.489,209.76 L468.541,211.725 L468.541,211.727 L469.515,213.539 L469.577,213.653 L469.702,213.69 L472.76,214.583 L473.61,217.356 L473.634,217.436 L473.696,217.496 L477.399,220.924 L477.994,221.474 L477.924,220.664 L477.624,217.204 L477.621,217.169 L477.607,217.133 L476.883,214.94 L478.933,214.464 L478.988,214.451 L479.034,214.421 L479.757,213.939 L482.044,214.699 L482.93,214.995 L482.397,214.222 L479.952,210.677 L479.84,210.513 L477.05,210.961 L474.12,210.189 L470.62,208.429 L467.735,203.509 L466.145,200.511 L468.15,198.901 L472.69,197.919 L473.604,197.722 L472.756,197.326 L461.166,191.926 L452.762,186.479 L448.357,180.646 L448.31,180.584 L448.246,180.552 L443.111,178.065 L440.544,175.69 L440.366,175.525 L440.161,175.659 L438.774,176.566 L438.637,176.654 L438.63,176.816 L438.55,178.456 L438.542,178.661 L438.728,178.753 L441.724,180.206 L443.39,182.01 L442.938,182.85 L441.758,182.746 L441.438,182.719 L441.418,183.043 L441.312,185.027 L441.302,185.23 L441.482,185.325 L444.387,186.861 L447.559,191.801 L444.312,191.027 L443.038,189.913 L443.708,187.763 L443.808,187.441 L443.478,187.364 L440.645,186.707 L440.619,186.699 L440.583,186.699 L434.855,186.592 L434.749,186.592 L434.663,186.652 L430.706,189.599 L430.588,189.686 L430.578,189.832 L430.182,196.006 L428.462,194.41 L428.169,194.138 L427.976,194.49 L426.606,196.986 L424.316,192.686 L424.132,192.341 L423.836,192.597 L420.629,195.363 L417.873,195.356 L417.603,192.742 L419.973,182.138 L419.981,182.096 L419.979,182.05 L419.369,171.896 L419.754,166.894 L419.759,166.814 L419.729,166.746 L418.127,162.986 L418.861,159.286 L418.877,159.203 L418.854,159.127 L417.706,155.534 L424.579,146.187 L427.155,146.255 L427.45,146.263 L427.473,145.968 L427.563,144.928 L427.576,144.793 L427.483,144.69 L426.753,143.875 L427.573,143.121 L427.641,143.057 L427.805,142.907 L429.792,141.077 L429.808,141.064 L429.82,141.051 L431.066,139.613 L432.996,138.807 L433.262,138.697 L433.174,138.422 L431.909,134.528 L435.136,132.895 L435.196,132.863 L435.24,132.813 L437.59,129.943 L439.43,129.588 L438.23,132.085 L438.11,132.34 L438.35,132.488 L440.43,133.78 L440.696,133.942 L440.861,133.682 L443.037,130.252 L443.087,130.17 L443.087,130.074 L442.99,125.397 L445.09,124.184 L445.168,124.138 L445.212,124.061 L446.72,121.251 L446.87,120.971 L446.59,120.824 L444.355,119.642 L444.085,119.502 L443.935,119.764 L442.71,121.916 L440.98,120.722 L439.128,112.33 L439.12,112.29 L439.102,112.256 L436.738,107.48 L436.636,103.792 L438.9,99.084 L440.48,98.752 L440.69,98.708 L440.726,98.496 L441.056,96.46 L444.99,100.38 L445.128,100.517 L445.311,100.455 L447.739,99.638 L447.969,99.561 L447.951,99.318 L447.823,97.458 L447.817,97.418 L447.805,97.382 L446.622,93.722 L446.612,93.696 L445.556,91.154 L445.544,91.126 L446.857,89.429 L447.04,89.194 L446.815,88.999 L441.887,84.699 L442.305,81.529 L445.185,79.975 L443.935,82.725 L443.881,82.845 L443.925,82.967 L444.825,85.39 L444.871,85.51 L444.985,85.565 L448.589,87.298 L448.669,87.336 L448.755,87.326 L449.96,87.201 L450.212,89.247 L450.242,89.504 L450.502,89.522 L451.662,89.608 L451.418,96.193 L451.412,96.315 L451.492,96.409 L453.342,98.613 L455.07,106.219 L455.076,106.245 L455.084,106.268 L457.054,111.088 L457.062,111.108 L459.365,115.701 L457.96,117.846 L457.86,117.996 L457.938,118.156 L458.758,119.838 L458.051,121.192 L457.934,121.416 L458.126,121.578 L461.106,124.101 L462.26,128.693 L462.284,128.793 L462.366,128.859 L466.546,132.299 L466.773,132.487 L466.787,132.499 L471.502,136.379 L471.534,136.404 L471.569,136.422 L496.981,148.177 L497.571,148.447 L497.416,147.817 L495.412,139.58 L495.407,139.56 L495.395,139.533 L493.865,135.843 L493.83,135.759 L493.76,135.709 L490.69,133.479 L490.31,129.626 L491.445,128.334 L491.658,128.094 L491.412,127.887 L485.882,123.217 L485.382,119.604 L486.962,117.214 L487.054,117.074 L486.994,116.921 L486.144,114.831 L486.076,114.661 L485.891,114.637 L481.845,114.127 L476.869,107.847 L477.323,107.427 L478.636,108.76 L478.843,108.97 L479.063,108.778 L480.858,107.205 L481.163,106.939 L480.829,106.709 L477.285,104.283 L477.095,104.153 L476.918,104.293 L475.548,105.363 L472.79,104.135 L472.732,104.111 L472.692,104.046 L470.999,101.294 L470.886,101.114 L467.679,101.63 L467.676,101.896 L467.656,103.576 L466.346,103.661 L459.026,93.434 L458.802,90.11 L460.754,89.335 L461.054,89.215 L460.927,88.918 L458.555,83.356 L461.783,85.169 L462.339,85.481 L462.243,84.848 L461.058,76.948 L463.268,73.783 L467.366,73.043 L467.812,72.961 L467.576,72.571 L464.241,67.071 L461.051,54.541 L460.981,54.271 L460.971,54.228 L458.705,45.325 L458.665,45.163 L458.512,45.107 L456.259,44.263 L461.142,39.573 L461.308,39.417 L461.205,39.21 L459.932,36.59 L459.838,36.397 L459.628,36.414 L448.511,37.257 L448.341,37.27 L448.261,37.423 L447.279,39.263 L444.463,39.961 L444.221,40.021 L444.225,40.271 L444.263,42.371 L442.409,42.537 L441.969,39.797 L444.364,38.543 L444.482,38.481 L444.518,38.354 L445.236,35.929 L445.26,35.844 L445.24,35.758 L443.706,29.928 L443.656,29.74 L443.466,29.7 L442.32,29.457 L442.166,29.424 L442.051,29.527 L441.261,30.219 L440.936,28.596 L440.848,28.162 L440.472,28.385 L438.246,29.69 L436.466,28.208 L436.579,25.546 L438.591,26.826 L438.814,26.97 L438.991,26.774 L439.881,25.79 L441.801,27.317 L442.181,27.617 L442.297,27.15 L442.977,24.472 L442.997,24.394 L442.977,24.32 L442.287,21.514 L443.817,19.744 L447.231,19.526 L447.353,19.518 L447.438,19.431 L452.543,14.074 L452.773,13.834 L452.52,13.617 L451.467,12.717 L453.617,12.68 L453.987,12.674 L453.917,12.308 L453.377,9.485 L453.309,9.125 L452.967,9.247 L450.13,10.257 L449.03,8.605 L448.94,8.469 L448.783,8.462 L444.926,8.327 L445.996,6.427 L446.158,6.141 L445.868,5.991 L443.84,4.951 L445.295,3.518 L445.527,3.29 L445.285,3.062 L442.283,0.19 L442.083,0 Z" id="Shape"></path>
            </g>
        </g>
    </g>
</svg>