<?xml version="1.0" encoding="UTF-8"?>
<svg width="268px" height="65px" viewBox="0 0 268 65" version="1.1" xmlns="http://www.w3.org/2000/svg" xmlns:xlink="http://www.w3.org/1999/xlink">
    <!-- Generator: Sketch 48.1 (47250) - http://www.bohemiancoding.com/sketch -->
    <title>Group 27</title>
    <desc>Created with Sketch.</desc>
    <defs>
        <linearGradient x1="50%" y1="0%" x2="50%" y2="100%" id="linearGradient-1">
            <stop stop-color="#A4C815" offset="0%"></stop>
            <stop stop-color="#92B700" offset="100%"></stop>
        </linearGradient>
    </defs>
    <g id="Вакансия-HR-Usetech" stroke="none" stroke-width="1" fill="none" fill-rule="evenodd" transform="translate(-1516.000000, -857.000000)">
        <g id="Group-27" transform="translate(1516.000000, 857.000000)">
            <g id="Group-25" transform="translate(127.000000, 10.000000)" fill="#FFFFFF">
                <polygon id="Fill-9" points="34.311856 7.91142857 22.0014681 7.91142857 22.0014681 43.1364286 12.2496399 43.1364286 12.2496399 7.91142857 0 7.91142857 0 0 34.311856 0"></polygon>
                <polygon id="Fill-11" points="62.8814737 43.1321429 37 43.1321429 37 0 61.8880665 0 61.8880665 7.91071429 46.721097 7.91071429 46.721097 17.5057143 60.8353407 17.5057143 60.8353407 25.3857143 46.721097 25.3857143 46.721097 35.2521429 62.8814737 35.2521429"></polygon>
                <path d="M97.6457729,42.3192857 C94.4961717,43.8435714 90.3831801,44.605 85.3067978,44.605 C78.6859889,44.605 73.4802493,42.6607143 69.6881496,38.77 C65.8960499,34.88 64,29.6964286 64,23.22 C64,16.3221429 66.1311801,10.7271429 70.3949695,6.43714286 C74.658759,2.14571429 80.1903934,0 86.9920166,0 C91.2050637,0 94.7563158,0.531428571 97.6457729,1.59357143 L97.6457729,10.9485714 C94.7563158,9.22357143 91.4666371,8.36142857 87.7738781,8.36142857 C83.722349,8.36142857 80.4512521,9.635 77.9641607,12.1814286 C75.4756399,14.7278571 74.2320942,18.1771429 74.2320942,22.5285714 C74.2320942,26.6992857 75.4056011,30.0228571 77.7533296,32.4992857 C80.1003435,34.9757143 83.2606648,36.2135714 87.2328643,36.2135714 C91.0242493,36.2135714 94.4961717,35.2914286 97.6457729,33.4464286 L97.6457729,42.3192857 Z" id="Fill-13"></path>
                <polygon id="Fill-15" points="140.347823 43.1321429 130.596709 43.1321429 130.596709 25.5664286 112.721097 25.5664286 112.721097 43.1321429 103 43.1321429 103 0 112.721097 0 112.721097 17.205 130.596709 17.205 130.596709 0 140.347823 0"></polygon>
            </g>
            <g id="icon-inverse">
                <polygon id="Fill-1" fill="#FFFFFF" points="0 0 0 65 118.026344 65 125 33.3058917 118.026344 0"></polygon>
                <polygon id="Fill-2" fill="#FFFFFF" points="0 33.0101257 0 65 118.026344 65 125 33"></polygon>
                <path d="M43.6904765,35.4521429 C43.6904765,48.405 37.6514183,54.8814286 25.5740166,54.8814286 C13.8582438,54.8814286 8,48.5557143 8,35.9028571 L8,11 L17.7503989,11 L17.7503989,36.0235714 C17.7503989,43.0007143 20.478338,46.49 25.9356454,46.49 C31.2921828,46.49 33.9700942,43.1214286 33.9700942,36.3842857 L33.9700942,11 L43.6904765,11 L43.6904765,35.4521429 Z" id="Fill-3" fill="url(#linearGradient-1)"></path>
                <path d="M47.1800997,52.215 L47.1800997,42.5871429 C48.9260665,44.0507143 50.822831,45.1485714 52.8703934,45.8814286 C54.917241,46.6135714 56.9848144,46.9792857 59.0716842,46.9792857 C60.2966482,46.9792857 61.365097,46.8692857 62.2777452,46.6485714 C63.191108,46.4278571 63.9536731,46.1221429 64.5661551,45.7307143 C65.1786371,45.34 65.6346039,44.8785714 65.9361994,44.3464286 C66.2370803,43.815 66.3871634,43.2385714 66.3871634,42.6164286 C66.3871634,41.7742857 66.1470305,41.0221429 65.6646205,40.36 C65.1829252,39.6985714 64.526133,39.0864286 63.6928144,38.5242857 C62.8602105,37.9628571 61.8718061,37.4214286 60.7276011,36.9 C59.5833961,36.3778571 58.3491413,35.8464286 57.0248366,35.305 C53.6529695,33.9007143 51.1394349,32.1857143 49.483518,30.16 C47.8276011,28.1335714 47,25.6864286 47,22.8185714 C47,20.5714286 47.450964,18.6407143 48.3543213,17.0257143 C49.2576787,15.4114286 50.4869307,14.0821429 52.0420776,13.0392857 C53.5972244,11.9964286 55.3989363,11.2292857 57.4464986,10.7378571 C59.4933463,10.2464286 61.6609751,10 63.9486704,10 C66.1970582,10 68.1888753,10.1357143 69.9248366,10.4071429 C71.6607978,10.6778571 73.2616842,11.0942857 74.7267812,11.6557143 L74.7267812,20.6521429 C74.0042382,20.15 73.2166593,19.7092857 72.3633296,19.3278571 C71.51,18.9471429 70.6323712,18.6307143 69.7290139,18.38 C68.8263712,18.1292857 67.9280166,17.9442857 67.0346648,17.8235714 C66.141313,17.7035714 65.2937008,17.6435714 64.4911136,17.6435714 C63.3869307,17.6435714 62.383518,17.7485714 61.4801607,17.9592857 C60.577518,18.17 59.8142382,18.4657143 59.1924654,18.8464286 C58.5699778,19.2271429 58.0882825,19.6842857 57.7473795,20.2157143 C57.4064765,20.7471429 57.2356676,21.3435714 57.2356676,22.0057143 C57.2356676,22.7285714 57.4257729,23.375 57.8074127,23.9464286 C58.1890526,24.5185714 58.7307812,25.0592857 59.433313,25.5714286 C60.1351302,26.0828571 60.9884598,26.5842857 61.9918726,27.0764286 C62.9952853,27.5671429 64.1294848,28.0735714 65.3937562,28.5957143 C67.1197119,29.3171429 68.6705706,30.085 70.0456177,30.8971429 C71.4199501,31.7092857 72.5991745,32.6271429 73.5825762,33.6507143 C74.5659778,34.6728571 75.3185374,35.8414286 75.8409695,37.1557143 C76.362687,38.4692857 76.6235457,39.9985714 76.6235457,41.7442857 C76.6235457,44.1514286 76.1668643,46.1721429 75.2535014,47.8071429 C74.3401385,49.4414286 73.1008809,50.7657143 71.5357285,51.7785714 C69.9698615,52.7921429 68.1488532,53.5185714 66.0712742,53.96 C63.9936953,54.4014286 61.8010526,54.6221429 59.4933463,54.6221429 C57.124892,54.6221429 54.8722161,54.4214286 52.7346039,54.02 C50.5969917,53.6192857 48.7459668,53.0171429 47.1800997,52.215" id="Fill-5" fill="url(#linearGradient-1)"></path>
                <polygon id="Fill-7" fill="url(#linearGradient-1)" points="106.875756 54.1228571 81 54.1228571 81 11 105.883064 11 105.883064 18.9085714 90.7182382 18.9085714 90.7182382 28.5014286 104.829623 28.5014286 104.829623 36.38 90.7182382 36.38 90.7182382 46.2442857 106.875756 46.2442857"></polygon>
            </g>
        </g>
    </g>
</svg>