<?xml version="1.0" encoding="UTF-8"?>
<svg width="267px" height="65px" viewBox="0 0 267 65" version="1.1" xmlns="http://www.w3.org/2000/svg" xmlns:xlink="http://www.w3.org/1999/xlink">
    <!-- Generator: Sketch 48.1 (47250) - http://www.bohemiancoding.com/sketch -->
    <title>icon-in</title>
    <desc>Created with Sketch.</desc>
    <defs></defs>
    <g id="Вакансия-HR-Usetech" stroke="none" stroke-width="1" fill="none" fill-rule="evenodd" transform="translate(-1516.000000, -937.000000)">
        <g id="icon-in" transform="translate(1516.000000, 937.000000)">
            <g>
                <polygon id="Fill-1" fill="#A4C815" points="0 0 0 65 118.026344 65 125 33.3058917 118.026344 0"></polygon>
                <polygon id="Fill-2" fill="#92B700" points="0 33.0101257 0 65 118.026344 65 125 33"></polygon>
                <path d="M43.6904765,35.4521429 C43.6904765,48.405 37.6514183,54.8814286 25.5740166,54.8814286 C13.8582438,54.8814286 8,48.5557143 8,35.9028571 L8,11 L17.7503989,11 L17.7503989,36.0235714 C17.7503989,43.0007143 20.478338,46.49 25.9356454,46.49 C31.2921828,46.49 33.9700942,43.1214286 33.9700942,36.3842857 L33.9700942,11 L43.6904765,11 L43.6904765,35.4521429 Z" id="Fill-3" fill="#FFFFFF"></path>
                <path d="M48.1800997,53.215 L48.1800997,43.5871429 C49.9260665,45.0507143 51.822831,46.1485714 53.8703934,46.8814286 C55.917241,47.6135714 57.9848144,47.9792857 60.0716842,47.9792857 C61.2966482,47.9792857 62.365097,47.8692857 63.2777452,47.6485714 C64.191108,47.4278571 64.9536731,47.1221429 65.5661551,46.7307143 C66.1786371,46.34 66.6346039,45.8785714 66.9361994,45.3464286 C67.2370803,44.815 67.3871634,44.2385714 67.3871634,43.6164286 C67.3871634,42.7742857 67.1470305,42.0221429 66.6646205,41.36 C66.1829252,40.6985714 65.526133,40.0864286 64.6928144,39.5242857 C63.8602105,38.9628571 62.8718061,38.4214286 61.7276011,37.9 C60.5833961,37.3778571 59.3491413,36.8464286 58.0248366,36.305 C54.6529695,34.9007143 52.1394349,33.1857143 50.483518,31.16 C48.8276011,29.1335714 48,26.6864286 48,23.8185714 C48,21.5714286 48.450964,19.6407143 49.3543213,18.0257143 C50.2576787,16.4114286 51.4869307,15.0821429 53.0420776,14.0392857 C54.5972244,12.9964286 56.3989363,12.2292857 58.4464986,11.7378571 C60.4933463,11.2464286 62.6609751,11 64.9486704,11 C67.1970582,11 69.1888753,11.1357143 70.9248366,11.4071429 C72.6607978,11.6778571 74.2616842,12.0942857 75.7267812,12.6557143 L75.7267812,21.6521429 C75.0042382,21.15 74.2166593,20.7092857 73.3633296,20.3278571 C72.51,19.9471429 71.6323712,19.6307143 70.7290139,19.38 C69.8263712,19.1292857 68.9280166,18.9442857 68.0346648,18.8235714 C67.141313,18.7035714 66.2937008,18.6435714 65.4911136,18.6435714 C64.3869307,18.6435714 63.383518,18.7485714 62.4801607,18.9592857 C61.577518,19.17 60.8142382,19.4657143 60.1924654,19.8464286 C59.5699778,20.2271429 59.0882825,20.6842857 58.7473795,21.2157143 C58.4064765,21.7471429 58.2356676,22.3435714 58.2356676,23.0057143 C58.2356676,23.7285714 58.4257729,24.375 58.8074127,24.9464286 C59.1890526,25.5185714 59.7307812,26.0592857 60.433313,26.5714286 C61.1351302,27.0828571 61.9884598,27.5842857 62.9918726,28.0764286 C63.9952853,28.5671429 65.1294848,29.0735714 66.3937562,29.5957143 C68.1197119,30.3171429 69.6705706,31.085 71.0456177,31.8971429 C72.4199501,32.7092857 73.5991745,33.6271429 74.5825762,34.6507143 C75.5659778,35.6728571 76.3185374,36.8414286 76.8409695,38.1557143 C77.362687,39.4692857 77.6235457,40.9985714 77.6235457,42.7442857 C77.6235457,45.1514286 77.1668643,47.1721429 76.2535014,48.8071429 C75.3401385,50.4414286 74.1008809,51.7657143 72.5357285,52.7785714 C70.9698615,53.7921429 69.1488532,54.5185714 67.0712742,54.96 C64.9936953,55.4014286 62.8010526,55.6221429 60.4933463,55.6221429 C58.124892,55.6221429 55.8722161,55.4214286 53.7346039,55.02 C51.5969917,54.6192857 49.7459668,54.0171429 48.1800997,53.215" id="Fill-5" fill="#FFFFFF"></path>
                <polygon id="Fill-7" fill="#FFFFFF" points="106.875756 54.1228571 81 54.1228571 81 11 105.883064 11 105.883064 18.9085714 90.7182382 18.9085714 90.7182382 28.5014286 104.829623 28.5014286 104.829623 36.38 90.7182382 36.38 90.7182382 46.2442857 106.875756 46.2442857"></polygon>
            </g>
            <g id="Group-26" transform="translate(127.000000, 10.000000)" fill="#333333">
                <polygon id="Fill-9" points="34.311856 8.91142857 22.0014681 8.91142857 22.0014681 44.1364286 12.2496399 44.1364286 12.2496399 8.91142857 0 8.91142857 0 1 34.311856 1"></polygon>
                <polygon id="Fill-11" points="62.8814737 44.1321429 37 44.1321429 37 1 61.8880665 1 61.8880665 8.91071429 46.721097 8.91071429 46.721097 18.5057143 60.8353407 18.5057143 60.8353407 26.3857143 46.721097 26.3857143 46.721097 36.2521429 62.8814737 36.2521429"></polygon>
                <path d="M97.6457729,42.3192857 C94.4961717,43.8435714 90.3831801,44.605 85.3067978,44.605 C78.6859889,44.605 73.4802493,42.6607143 69.6881496,38.77 C65.8960499,34.88 64,29.6964286 64,23.22 C64,16.3221429 66.1311801,10.7271429 70.3949695,6.43714286 C74.658759,2.14571429 80.1903934,0 86.9920166,0 C91.2050637,0 94.7563158,0.531428571 97.6457729,1.59357143 L97.6457729,10.9485714 C94.7563158,9.22357143 91.4666371,8.36142857 87.7738781,8.36142857 C83.722349,8.36142857 80.4512521,9.635 77.9641607,12.1814286 C75.4756399,14.7278571 74.2320942,18.1771429 74.2320942,22.5285714 C74.2320942,26.6992857 75.4056011,30.0228571 77.7533296,32.4992857 C80.1003435,34.9757143 83.2606648,36.2135714 87.2328643,36.2135714 C91.0242493,36.2135714 94.4961717,35.2914286 97.6457729,33.4464286 L97.6457729,42.3192857 Z" id="Fill-13"></path>
                <polygon id="Fill-15" points="139.347823 44.1321429 129.596709 44.1321429 129.596709 26.5664286 111.721097 26.5664286 111.721097 44.1321429 102 44.1321429 102 1 111.721097 1 111.721097 18.205 129.596709 18.205 129.596709 1 139.347823 1"></polygon>
            </g>
        </g>
    </g>
</svg>