<?xml version="1.0" encoding="UTF-8"?>
<svg width="265px" height="77px" viewBox="0 0 265 77" version="1.1" xmlns="http://www.w3.org/2000/svg" xmlns:xlink="http://www.w3.org/1999/xlink">
    <!-- Generator: Sketch 47.1 (45422) - http://www.bohemiancoding.com/sketch -->
    <title>Group 4</title>
    <desc>Created with Sketch.</desc>
    <defs></defs>
    <g id="1200px" stroke="none" stroke-width="1" fill="none" fill-rule="evenodd">
        <g id="Главная-HR-Usetech(var.0.3_13_11_2017)-Copy" transform="translate(-388.000000, -30.000000)">
            <g id="Group-4" transform="translate(388.000000, 30.000000)">
                <g id="Page-1">
                    <polygon id="Fill-1" fill="#A4C815" points="0 0 0 65 118.026344 65 125 33.3058917 118.026344 0"></polygon>
                    <polygon id="Fill-2" fill="#92B700" points="0 33.0101257 0 65 118.026344 65 125 33"></polygon>
                    <g id="Group-17" transform="translate(7.000000, 10.000000)">
                        <path d="M36.0886255,25.4621429 C36.0886255,38.415 30.0495673,44.8914286 17.9721657,44.8914286 C6.2563928,44.8914286 0.39814903,38.5657143 0.39814903,25.9128571 L0.39814903,1.01 L10.1485479,1.01 L10.1485479,26.0335714 C10.1485479,33.0107143 12.876487,36.5 18.3337945,36.5 C23.6903319,36.5 26.3682432,33.1314286 26.3682432,26.3942857 L26.3682432,1.01 L36.0886255,1.01 L36.0886255,25.4621429 Z" id="Fill-3" fill="#FFFFFF"></path>
                        <path d="M40.4035861,42.4843571 L40.4035861,32.8565 C42.1495529,34.3200714 44.0463175,35.4179286 46.0938798,36.1507857 C48.1407274,36.8829286 50.2083008,37.2486429 52.2951706,37.2486429 C53.5201346,37.2486429 54.5885834,37.1386429 55.5012316,36.9179286 C56.4145945,36.6972143 57.1771596,36.3915 57.7896416,36.0000714 C58.4021235,35.6093571 58.8580903,35.1479286 59.1596859,34.6157857 C59.4605668,34.0843571 59.6106499,33.5079286 59.6106499,32.8857857 C59.6106499,32.0436429 59.3705169,31.2915 58.8881069,30.6293571 C58.4064116,29.9679286 57.7496194,29.3557857 56.9163008,28.7936429 C56.083697,28.2322143 55.0952925,27.6907857 53.9510875,27.1693571 C52.8068825,26.6472143 51.5726277,26.1157857 50.248323,25.5743571 C46.876456,24.1700714 44.3629213,22.4550714 42.7070044,20.4293571 C41.0510875,18.4029286 40.2234864,15.9557857 40.2234864,13.0879286 C40.2234864,10.8407857 40.6744504,8.91007143 41.5778078,7.29507143 C42.4811651,5.68078571 43.7104172,4.3515 45.265564,3.30864286 C46.8207108,2.26578571 48.6224227,1.49864286 50.669985,1.00721429 C52.7168327,0.515785714 54.8844615,0.269357143 57.1721568,0.269357143 C59.4205446,0.269357143 61.4123618,0.405071429 63.148323,0.6765 C64.8842842,0.947214286 66.4851706,1.36364286 67.9502676,1.92507143 L67.9502676,10.9215 C67.2277247,10.4193571 66.4401457,9.97864286 65.5868161,9.59721429 C64.7334864,9.2165 63.8558576,8.90007143 62.9525003,8.64935714 C62.0498576,8.39864286 61.151503,8.21364286 60.2581512,8.09292857 C59.3647994,7.97292857 58.5171873,7.91292857 57.7146,7.91292857 C56.6104172,7.91292857 55.6070044,8.01792857 54.7036471,8.22864286 C53.8010044,8.43935714 53.0377247,8.73507143 52.4159518,9.11578571 C51.7934643,9.4965 51.311769,9.95364286 50.9708659,10.4850714 C50.6299629,11.0165 50.459154,11.6129286 50.459154,12.2750714 C50.459154,12.9979286 50.6492593,13.6443571 51.0308992,14.2157857 C51.4125391,14.7879286 51.9542676,15.3286429 52.6567994,15.8407857 C53.3586166,16.3522143 54.2119463,16.8536429 55.215359,17.3457857 C56.2187717,17.8365 57.3529712,18.3429286 58.6172427,18.8650714 C60.3431983,19.5865 61.8940571,20.3543571 63.2691042,21.1665 C64.6434366,21.9786429 65.8226609,22.8965 66.8060626,23.9200714 C67.7894643,24.9422143 68.5420238,26.1107857 69.064456,27.4250714 C69.5861734,28.7386429 69.8470321,30.2679286 69.8470321,32.0136429 C69.8470321,34.4207857 69.3903507,36.4415 68.4769878,38.0765 C67.5636249,39.7107857 66.3243673,41.0350714 64.759215,42.0479286 C63.1933479,43.0615 61.3723396,43.7879286 59.2947607,44.2293571 C57.2171817,44.6707857 55.0245391,44.8915 52.7168327,44.8915 C50.3483784,44.8915 48.0957025,44.6907857 45.9580903,44.2893571 C43.8204781,43.8886429 41.9694532,43.2865 40.4035861,42.4843571" id="Fill-5" fill="#FFFFFF"></path>
                        <polygon id="Fill-7" fill="#FFFFFF" points="99.7458731 44.1326429 73.8701169 44.1326429 73.8701169 1.00978571 98.7531806 1.00978571 98.7531806 8.91835714 83.5883551 8.91835714 83.5883551 18.5112143 97.6997402 18.5112143 97.6997402 26.3897857 83.5883551 26.3897857 83.5883551 36.2540714 99.7458731 36.2540714"></polygon>
                        <polygon id="Fill-9" fill="#333333" points="152.342353 8.8885 140.031966 8.8885 140.031966 44.1135 130.280137 44.1135 130.280137 8.8885 118.030498 8.8885 118.030498 0.977071429 152.342353 0.977071429"></polygon>
                        <polygon id="Fill-11" fill="#333333" points="180.944905 44.1089286 155.063432 44.1089286 155.063432 0.976785714 179.951498 0.976785714 179.951498 8.8875 164.784529 8.8875 164.784529 18.4825 178.898772 18.4825 178.898772 26.3625 164.784529 26.3625 164.784529 36.2289286 180.944905 36.2289286"></polygon>
                        <path d="M215.722876,42.6036429 C212.573275,44.1279286 208.460284,44.8893571 203.383901,44.8893571 C196.763093,44.8893571 191.557353,42.9450714 187.765253,39.0543571 C183.973153,35.1643571 182.077104,29.9807857 182.077104,23.5043571 C182.077104,16.6065 184.208284,11.0115 188.472073,6.7215 C192.735863,2.43007143 198.267497,0.284357143 205.06912,0.284357143 C209.282167,0.284357143 212.833419,0.815785714 215.722876,1.87792857 L215.722876,11.2329286 C212.833419,9.50792857 209.543741,8.64578571 205.850982,8.64578571 C201.799453,8.64578571 198.528356,9.91935714 196.041264,12.4657857 C193.552743,15.0122143 192.309198,18.4615 192.309198,22.8129286 C192.309198,26.9836429 193.482705,30.3072143 195.830433,32.7836429 C198.177447,35.2600714 201.337768,36.4979286 205.309968,36.4979286 C209.101353,36.4979286 212.573275,35.5757857 215.722876,33.7307857 L215.722876,42.6036429 Z" id="Fill-13" fill="#333333"></path>
                        <polygon id="Fill-15" fill="#333333" points="257.511444 44.1089286 247.76033 44.1089286 247.76033 26.5432143 229.884718 26.5432143 229.884718 44.1089286 220.163621 44.1089286 220.163621 0.976785714 229.884718 0.976785714 229.884718 18.1817857 247.76033 18.1817857 247.76033 0.976785714 257.511444 0.976785714"></polygon>
                    </g>
                </g>
                <g id="Group-3" transform="translate(192.000000, 61.000000)">
                    <path d="M13.73,9.57 L13.73,9.63 C13.9200009,9.66000015 14.0949992,9.69249983 14.255,9.7275 C14.4150008,9.76250017 14.5674993,9.8199996 14.7125,9.9 C14.8575007,9.9800004 14.9849995,10.0499997 15.095,10.11 C15.2050005,10.1700003 15.3174994,10.2774992 15.4325,10.4325 C15.5475006,10.5875008 15.6424996,10.7099995 15.7175,10.8 C15.7925004,10.8900005 15.8824995,11.0549988 15.9875,11.295 C16.0925005,11.5350012 16.1749997,11.7224993 16.235,11.8575 C16.2950003,11.9925007 16.3824994,12.2299983 16.4975,12.57 C16.6125006,12.9100017 16.6999997,13.1724991 16.76,13.3575 C16.8200003,13.5425009 16.9199993,13.8549978 17.06,14.295 C17.1600005,14.6050016 17.2349998,14.8399992 17.285,15 L14.9,15 C14.3399972,13.1699908 13.960001,12.050002 13.76,11.64 C13.4499984,11.0099969 13.0600023,10.6350006 12.59,10.515 C12.4099991,10.4649998 12.2050012,10.44 11.975,10.44 L11.24,10.44 C11.3200004,10.8100018 11.36,11.1399985 11.36,11.43 L11.36,15 L9.08,15 L9.08,4.65 L11.36,4.65 L11.36,7.575 C11.36,7.96500195 11.3200004,8.37499785 11.24,8.805 L11.945,8.805 C12.6550035,8.805 13.1674984,8.5350027 13.4825,7.995 C13.7975016,7.4549973 14.1849977,6.39000795 14.645,4.8 C14.6650001,4.72999965 14.6799999,4.68000015 14.69,4.65 L17.015,4.65 C16.4549972,6.4100088 16.1000007,7.45499835 15.95,7.785 C15.5999982,8.5650039 15.1600026,9.07999875 14.63,9.33 C14.3799988,9.44000055 14.0800018,9.51999975 13.73,9.57 Z M24.23,12.285 L20.675,12.285 L19.925,15 L17.585,15 L20.57,5.25 C20.6100002,5.0699991 20.7049993,4.92500055 20.855,4.815 C21.0050008,4.70499945 21.1749991,4.65 21.365,4.65 L23.525,4.65 C23.9550021,4.65 24.2199995,4.849998 24.32,5.25 L27.305,15 L24.98,15 L24.23,12.285 Z M23.735,10.515 L22.865,7.35 C22.7449994,6.8499975 22.6750001,6.52500075 22.655,6.375 L22.25,6.375 C22.2299999,6.4750005 22.1950002,6.6349989 22.145,6.855 C22.0949997,7.0750011 22.0550002,7.23999945 22.025,7.35 L21.155,10.515 L23.735,10.515 Z M28.385,15 L28.385,4.65 C29.3150046,4.55999955 30.6299915,4.515 32.33,4.515 C33.7700072,4.515 34.7574973,4.74999765 35.2925,5.22 C35.8275027,5.69000235 36.095,6.57999345 36.095,7.89 C36.095,9.20000655 35.8425025,10.0924976 35.3375,10.5675 C34.8324975,11.0425024 33.9300065,11.28 32.63,11.28 C31.9699967,11.28 31.3200032,11.2400004 30.68,11.16 L30.68,15 L28.385,15 Z M30.68,9.525 L32.27,9.525 C32.870003,9.51499995 33.274999,9.4000011 33.485,9.18 C33.6950011,8.9599989 33.8,8.5300032 33.8,7.89 C33.8,7.2499968 33.6950011,6.8200011 33.485,6.6 C33.274999,6.3799989 32.870003,6.27 32.27,6.27 L30.68,6.285 L30.68,9.525 Z M39.92,8.49 L41.45,8.49 C42.8700071,8.49 43.8524973,8.7299976 44.3975,9.21 C44.9425027,9.6900024 45.215,10.5649937 45.215,11.835 C45.215,13.0850062 44.9600025,13.9449976 44.45,14.415 C43.9399974,14.8850024 43.0700061,15.12 41.84,15.12 C40.0299909,15.12 38.6500047,15.0800004 37.7,15 L37.64,15 L37.64,4.65 L39.92,4.65 L39.92,8.49 Z M39.92,13.35 L41.45,13.35 C42.060003,13.35 42.4574991,13.247501 42.6425,13.0425 C42.8275009,12.837499 42.92,12.4100032 42.92,11.76 C42.92,11.1099968 42.8275009,10.6700012 42.6425,10.44 C42.4574991,10.2099988 42.060003,10.095 41.45,10.095 L39.92,10.095 L39.92,13.35 Z M53.675,13.215 L53.765,14.895 C52.8349954,14.9950005 51.2350114,15.045 48.965,15.045 C48.2749966,15.045 47.7250021,14.8575019 47.315,14.4825 C46.904998,14.1074981 46.7,13.6000032 46.7,12.96 L46.7,6.69 C46.7,6.0499968 46.9074979,5.54250187 47.3225,5.1675 C47.7375021,4.79249813 48.2849966,4.605 48.965,4.605 C51.2350114,4.605 52.8349954,4.6549995 53.765,4.755 L53.675,6.45 L49.685,6.45 C49.4349988,6.45 49.2550006,6.5099994 49.145,6.63 C49.0349995,6.7500006 48.98,6.94499865 48.98,7.215 L48.98,8.79 L53.105,8.79 L53.105,10.44 L48.98,10.44 L48.98,12.435 C48.98,12.7150014 49.0349995,12.9149994 49.145,13.035 C49.2550006,13.1550006 49.4349988,13.215 49.685,13.215 L53.675,13.215 Z M55.445,15 L55.445,4.65 C56.3750046,4.55999955 57.6899915,4.515 59.39,4.515 C60.8300072,4.515 61.8174973,4.74999765 62.3525,5.22 C62.8875027,5.69000235 63.155,6.57999345 63.155,7.89 C63.155,9.20000655 62.9025025,10.0924976 62.3975,10.5675 C61.8924975,11.0425024 60.9900065,11.28 59.69,11.28 C59.0299967,11.28 58.3800032,11.2400004 57.74,11.16 L57.74,15 L55.445,15 Z M57.74,9.525 L59.33,9.525 C59.930003,9.51499995 60.3349989,9.4000011 60.545,9.18 C60.7550011,8.9599989 60.86,8.5300032 60.86,7.89 C60.86,7.2499968 60.7550011,6.8200011 60.545,6.6 C60.3349989,6.3799989 59.930003,6.27 59.33,6.27 L57.74,6.285 L57.74,9.525 Z M69.77,12.285 L66.215,12.285 L65.465,15 L63.125,15 L66.11,5.25 C66.1500002,5.0699991 66.2449993,4.92500055 66.395,4.815 C66.5450007,4.70499945 66.7149991,4.65 66.905,4.65 L69.065,4.65 C69.4950022,4.65 69.7599995,4.849998 69.86,5.25 L72.845,15 L70.52,15 L69.77,12.285 Z M69.275,10.515 L68.405,7.35 C68.2849994,6.8499975 68.2150001,6.52500075 68.195,6.375 L67.79,6.375 C67.7699999,6.4750005 67.7350003,6.6349989 67.685,6.855 C67.6349998,7.0750011 67.5950002,7.23999945 67.565,7.35 L66.695,10.515 L69.275,10.515 Z" id="Карьера" fill="#333333"></path>
                    <rect id="Rectangle-2" fill="#92B700" x="0" y="4" width="6" height="6"></rect>
                </g>
            </g>
        </g>
    </g>
</svg>