<?xml version="1.0" encoding="UTF-8"?>
<svg width="60px" height="83px" viewBox="0 0 60 83" version="1.1" xmlns="http://www.w3.org/2000/svg" xmlns:xlink="http://www.w3.org/1999/xlink">
    <!-- Generator: Sketch 48.1 (47250) - http://www.bohemiancoding.com/sketch -->
    <title>map-marker</title>
    <desc>Created with Sketch.</desc>
    <defs>
        <filter x="-13.5%" y="-6.6%" width="126.9%" height="118.4%" filterUnits="objectBoundingBox" id="filter-1">
            <feOffset dx="0" dy="2" in="SourceAlpha" result="shadowOffsetOuter1"></feOffset>
            <feGaussianBlur stdDeviation="2" in="shadowOffsetOuter1" result="shadowBlurOuter1"></feGaussianBlur>
            <feColorMatrix values="0 0 0 0 0   0 0 0 0 0   0 0 0 0 0  0 0 0 0.178130661 0" type="matrix" in="shadowBlurOuter1" result="shadowMatrixOuter1"></feColorMatrix>
            <feMerge>
                <feMergeNode in="shadowMatrixOuter1"></feMergeNode>
                <feMergeNode in="SourceGraphic"></feMergeNode>
            </feMerge>
        </filter>
        <linearGradient x1="50%" y1="0%" x2="50%" y2="100%" id="linearGradient-2">
            <stop stop-color="#A4C815" offset="0%"></stop>
            <stop stop-color="#92B700" offset="100%"></stop>
        </linearGradient>
    </defs>
    <g id="Вакансия-HR-Usetech" stroke="none" stroke-width="1" fill="none" fill-rule="evenodd" transform="translate(-1445.000000, -441.000000)">
        <g id="map-marker" filter="url(#filter-1)" transform="translate(1449.000000, 443.000000)">
            <path d="M26,44.3491886 C15.6531018,44.3491886 7.26420867,36.0337774 7.26420867,25.7762962 C7.26420867,15.5178291 15.6531018,7.20241786 26,7.20241786 C36.3468982,7.20241786 44.7357913,15.5178291 44.7357913,25.7762962 C44.7357913,36.0337774 36.3468982,44.3491886 26,44.3491886 Z M52,25.7762962 C52,11.5400361 40.3593666,0 26,0 C11.6406334,0 0,11.5400361 0,25.7762962 C0,40.0115704 11.6406334,51.5516065 26,51.5516065 L26,76 L48.1078559,39.3402254 C48.2261914,39.1509476 48.3405492,38.9587122 48.4539126,38.765491 L48.4807619,38.721129 L48.4797675,38.721129 C50.7142201,34.9158549 52,30.4964134 52,25.7762962 Z" id="Fill-15" fill="url(#linearGradient-2)"></path>
            <circle id="Oval-2" fill="#FFFFFF" cx="26" cy="26" r="19"></circle>
            <path d="M21.4717627,26.7727579 C21.4717627,30.2576034 19.8691927,32 16.6640046,32 C13.5546526,32 12,30.2980615 12,26.8941335 L12,20.1942009 L14.5875642,20.1942009 L14.5875642,26.9265003 C14.5875642,28.8037855 15.311649,29.742414 16.7598403,29.742414 C18.1814104,29.742414 18.8921848,28.836152 18.8921848,27.0236008 L18.8921848,20.1942009 L21.4717627,20.1942009 L21.4717627,26.7727579 Z M23.4363948,31.3526635 L23.4363948,28.7633176 C23.899603,29.1571159 24.4027354,29.4524602 24.9458072,29.6493594 C25.4888789,29.8462586 26.0372667,29.9447067 26.5909869,29.9447067 C26.9157651,29.9447067 27.1992762,29.9150374 27.4415288,29.8556979 C27.6837814,29.7963584 27.8860992,29.7140936 28.0484883,29.6089009 C28.2108774,29.5037082 28.3320019,29.3796366 28.4118654,29.2366824 C28.4917289,29.0937282 28.53166,28.9386387 28.53166,28.7714093 C28.53166,28.5448404 28.4677702,28.3425498 28.3399886,28.1645314 C28.212207,27.9865129 28.037841,27.8219832 27.8168853,27.6709373 C27.5959297,27.5198914 27.3337152,27.3742421 27.0302339,27.2339852 C26.7267526,27.0937282 26.3993172,26.9507762 26.0479179,26.8051247 C25.1534468,26.4275099 24.4865966,25.9662873 24.0473474,25.421443 C23.6080982,24.8765988 23.3884769,24.2184799 23.3884769,23.4470668 C23.3884769,22.842883 23.5082703,22.3236704 23.7478608,21.8894134 C23.9874513,21.4551563 24.3135556,21.0977762 24.7261837,20.8172623 C25.1388117,20.5367484 25.6166544,20.330412 26.1597262,20.1982468 C26.7027979,20.0660816 27.2778064,20 27.884769,20 C28.481083,20 29.0095052,20.0364123 29.4700513,20.109238 C29.9305975,20.1820637 30.3551987,20.2939979 30.7438677,20.4450438 L30.7438677,22.8644639 C30.5521953,22.7296015 30.3432223,22.6109243 30.1169424,22.5084289 C29.8906625,22.4059334 29.6577308,22.3209713 29.4181403,22.2535401 C29.1785499,22.1861089 28.940294,22.1362105 28.7033657,22.1038436 C28.4664373,22.0714766 28.2414918,22.0552933 28.0285225,22.0552933 C27.7356897,22.0552933 27.4694821,22.083614 27.2298916,22.1402562 C26.9903011,22.1968985 26.7879833,22.2764661 26.6229321,22.3789616 C26.4578809,22.481457 26.3301012,22.60418 26.2395893,22.7471342 C26.1490773,22.8900884 26.103822,23.0505723 26.103822,23.2285907 C26.103822,23.4227926 26.1544015,23.5967625 26.2555619,23.7505057 C26.3567223,23.9042489 26.5004744,24.0498982 26.6868226,24.1874579 C26.8731707,24.3250175 27.0994472,24.459878 27.3656589,24.5920432 C27.6318705,24.7242083 27.9326851,24.8604174 28.2681118,25.0006743 C28.7259958,25.1948762 29.1372866,25.4012127 29.5019966,25.6196898 C29.8667065,25.838167 30.1795005,26.0849615 30.4403879,26.3600809 C30.7012753,26.6352003 30.900931,26.9494251 31.0393611,27.3027647 C31.1777911,27.6561043 31.2470051,28.0674285 31.2470051,28.5367498 C31.2470051,29.1840895 31.1258807,29.727577 30.8836281,30.1672286 C30.6413755,30.6068801 30.312609,30.9629117 29.8973189,31.2353338 C29.4820287,31.5077559 28.9988619,31.7033035 28.4478038,31.8219825 C27.8967457,31.9406614 27.315082,32 26.7027952,32 C26.0745357,32 25.4768996,31.9460558 24.9098688,31.8381659 C24.342838,31.7302759 23.8516849,31.5684434 23.4363948,31.3526635 Z M40,31.7977073 L33.1317741,31.7977073 L33.1317741,20.1942009 L39.7364518,20.1942009 L39.7364518,22.3223196 L35.711352,22.3223196 L35.711352,24.9035738 L39.456931,24.9035738 L39.456931,27.0236008 L35.711352,27.0236008 L35.711352,29.6776804 L40,29.6776804 L40,31.7977073 Z" id="USE" fill="url(#linearGradient-2)"></path>
        </g>
    </g>
</svg>