<?xml version="1.0" encoding="UTF-8"?>
<svg width="223px" height="142px" viewBox="0 0 223 142" version="1.1" xmlns="http://www.w3.org/2000/svg" xmlns:xlink="http://www.w3.org/1999/xlink">
    <!-- Generator: Sketch 48.1 (47250) - http://www.bohemiancoding.com/sketch -->
    <title>Shape</title>
    <desc>Created with Sketch.</desc>
    <defs></defs>
    <g id="Главная-HR-Usetech(var.0.3_13_11_2017)-Copy" stroke="none" stroke-width="1" fill="none" fill-rule="evenodd" transform="translate(-122.000000, -3007.000000)">
        <path d="M325.578144,3078.66838 C326.353077,3074.81716 326.763402,3070.83186 326.763402,3066.74997 C326.763402,3033.75123 300.186541,3007 267.402317,3007 C243.090427,3007 222.203367,3021.71977 213.026087,3042.78193 C205.974369,3038.15807 197.572022,3035.44647 188.529071,3035.44647 C164.753369,3035.44647 145.337157,3054.03167 143.717305,3077.54864 C130.912008,3083.46324 122,3096.4497 122,3111.56033 C122,3132.23731 138.653433,3149 159.19564,3149 C159.19564,3149 199.492139,3149 212.923929,3149 C215.558023,3149 215.686143,3146.05775 215.686143,3146.05775 L215.686143,3122.038 C215.686143,3119.98599 214.018317,3118.30722 211.979109,3118.30722 L201.815808,3118.30722 C199.777165,3118.30722 199.101568,3116.95795 200.315611,3115.30986 L231.294292,3073.21622 C232.50777,3071.56756 234.493359,3071.56756 235.706837,3073.21622 L266.684954,3115.30986 C267.897303,3116.95795 267.222835,3118.30722 265.185321,3118.30722 L255.020891,3118.30722 C252.983377,3118.30722 251.314421,3119.98599 251.314421,3122.038 L251.314421,3146.10547 C251.314421,3146.10547 251.469069,3149 254.197419,3149 C267.59986,3149 307.80436,3149 307.80436,3149 C328.346567,3149 345,3132.23731 345,3111.56033 C345,3097.36493 337.147387,3085.01532 325.578144,3078.66838 Z" id="Shape" fill="#C4C4C4" fill-rule="nonzero"></path>
    </g>
</svg>