<?xml version="1.0" encoding="UTF-8"?>
<svg width="110px" height="70px" viewBox="0 0 110 70" version="1.1" xmlns="http://www.w3.org/2000/svg" xmlns:xlink="http://www.w3.org/1999/xlink">
    <!-- Generator: Sketch 48.1 (47250) - http://www.bohemiancoding.com/sketch -->
    <title>Shape</title>
    <desc>Created with Sketch.</desc>
    <defs></defs>
    <g id="Главная-HR-Usetech(var.0.3_13_11_2017)-Copy" stroke="none" stroke-width="1" fill="none" fill-rule="evenodd" transform="translate(-122.000000, -3007.000000)">
        <path d="M222.419712,3042.32948 C222.801966,3040.43099 223.004368,3038.46641 223.004368,3036.45421 C223.004368,3020.18722 209.894706,3007 193.723116,3007 C181.730704,3007 171.42767,3014.25622 166.90076,3024.63898 C163.422334,3022.35961 159.277679,3021.02291 154.81703,3021.02291 C143.089106,3021.02291 133.511602,3030.18462 132.712572,3041.7775 C126.396058,3044.69315 122,3051.09492 122,3058.54382 C122,3068.7367 130.214698,3077 140.347625,3077 C140.347625,3077 160.224822,3077 166.850369,3077 C168.149697,3077 168.212896,3075.5496 168.212896,3075.5496 L168.212896,3063.70887 C168.212896,3062.69732 167.390201,3061.86975 166.384314,3061.86975 L161.371026,3061.86975 C160.365418,3061.86975 160.032164,3061.20462 160.631019,3060.39218 L175.911983,3039.6418 C176.510559,3038.82908 177.489998,3038.82908 178.088574,3039.6418 L193.36926,3060.39218 C193.96728,3061.20462 193.634582,3061.86975 192.62953,3061.86975 L187.615686,3061.86975 C186.610634,3061.86975 185.787383,3062.69732 185.787383,3063.70887 L185.787383,3075.57312 C185.787383,3075.57312 185.863666,3077 187.209489,3077 C193.820559,3077 213.652375,3077 213.652375,3077 C223.785302,3077 232,3068.7367 232,3058.54382 C232,3051.54609 228.126514,3045.45826 222.419712,3042.32948 Z" id="Shape" fill="#92B700" fill-rule="nonzero"></path>
    </g>
</svg>