<svg width="164" height="40" viewBox="0 0 164 40" fill="none" xmlns="http://www.w3.org/2000/svg">
<path fill-rule="evenodd" clip-rule="evenodd" d="M0 0V40H73.0068L77.3205 20.4959L73.0068 0H0Z" fill="#A4C815"/>
<path fill-rule="evenodd" clip-rule="evenodd" d="M0 20.3138V39.9999H73.0068L77.3205 20.3076L0 20.3138Z" fill="#92B700"/>
<path fill-rule="evenodd" clip-rule="evenodd" d="M26.6531 21.8229C26.6531 29.7938 22.9175 33.7793 15.4469 33.7793C8.19993 33.7793 4.57623 29.8866 4.57623 22.1002V6.77539H10.6075V22.1745C10.6075 26.4681 12.2949 28.6154 15.6706 28.6154C18.9839 28.6154 20.6404 26.5424 20.6404 22.3965V6.77539H26.6531V21.8229Z" fill="white"/>
<path fill-rule="evenodd" clip-rule="evenodd" d="M29.3221 32.2978V26.373C30.4021 27.2736 31.5754 27.9492 32.8419 28.4002C34.108 28.8508 35.3869 29.0758 36.6778 29.0758C37.4355 29.0758 38.0964 29.0081 38.661 28.8723C39.2259 28.7365 39.6976 28.5483 40.0765 28.3075C40.4553 28.067 40.7374 27.7831 40.9239 27.4556C41.1101 27.1286 41.2029 26.7738 41.2029 26.391C41.2029 25.8727 41.0544 25.4099 40.756 25.0024C40.458 24.5954 40.0517 24.2187 39.5363 23.8727C39.0212 23.5272 38.4099 23.1941 37.7021 22.8732C36.9943 22.5519 36.2309 22.2248 35.4117 21.8916C33.326 21.0275 31.7712 19.9721 30.7469 18.7255C29.7226 17.4785 29.2107 15.9725 29.2107 14.2077C29.2107 12.8248 29.4896 11.6367 30.0484 10.6429C30.6072 9.64945 31.3676 8.83142 32.3295 8.18967C33.2915 7.54791 34.406 7.07582 35.6725 6.7734C36.9386 6.47098 38.2794 6.31934 39.6945 6.31934C41.0853 6.31934 42.3174 6.40285 43.3912 6.56989C44.465 6.73648 45.4552 6.99274 46.3615 7.33824V12.8745C45.9145 12.5655 45.4274 12.2943 44.8995 12.0596C44.3717 11.8253 43.8288 11.6305 43.27 11.4763C42.7117 11.322 42.156 11.2081 41.6034 11.1338C41.0508 11.06 40.5265 11.0231 40.0301 11.0231C39.3471 11.0231 38.7264 11.0877 38.1676 11.2174C37.6093 11.347 37.1371 11.529 36.7525 11.7633C36.3675 11.9976 36.0695 12.2789 35.8586 12.6059C35.6478 12.933 35.5421 13.3 35.5421 13.7075C35.5421 14.1523 35.6597 14.5501 35.8958 14.9018C36.1318 15.2538 36.4669 15.5866 36.9015 15.9018C37.3356 16.2165 37.8635 16.5251 38.4841 16.8279C39.1048 17.1299 39.8064 17.4415 40.5884 17.7629C41.656 18.2068 42.6153 18.6793 43.4659 19.1791C44.316 19.6789 45.0454 20.2437 45.6537 20.8736C46.262 21.5026 46.7275 22.2218 47.0507 23.0305C47.3734 23.8389 47.5348 24.78 47.5348 25.8543C47.5348 27.3356 47.2523 28.5791 46.6873 29.5853C46.1223 30.591 45.3558 31.4059 44.3876 32.0292C43.419 32.653 42.2926 33.1 41.0075 33.3716C39.7224 33.6433 38.3661 33.7791 36.9386 33.7791C35.4736 33.7791 34.0802 33.6556 32.7579 33.4086C31.4357 33.162 30.2907 32.7914 29.3221 32.2978Z" fill="white"/>
<path fill-rule="evenodd" clip-rule="evenodd" d="M66.0292 33.3125H50.0234V6.77539H65.4151V11.6422H56.0347V17.5455H64.7635V22.3939H56.0347V28.4642H66.0292V33.3125Z" fill="white"/>
<path fill-rule="evenodd" clip-rule="evenodd" d="M98.5635 11.6235H90.9488V33.3004H84.9167V11.6235H77.3395V6.75488H98.5635V11.6235Z" fill="#333333"/>
<path fill-rule="evenodd" clip-rule="evenodd" d="M116.256 33.2977H100.247V6.75488H115.641V11.623H106.26V17.5276H114.99V22.3769H106.26V28.4485H116.256V33.2977Z" fill="#333333"/>
<path fill-rule="evenodd" clip-rule="evenodd" d="M137.768 32.3717C135.82 33.3098 133.276 33.7783 130.136 33.7783C126.04 33.7783 122.82 32.5818 120.475 30.1876C118.129 27.7937 116.956 24.6038 116.956 20.6183C116.956 16.3735 118.274 12.9304 120.912 10.2904C123.549 7.64954 126.971 6.3291 131.178 6.3291C133.784 6.3291 135.981 6.65613 137.768 7.30976V13.0667C135.981 12.0051 133.946 11.4746 131.662 11.4746C129.156 11.4746 127.132 12.2583 125.594 13.8254C124.055 15.3924 123.285 17.515 123.285 20.1928C123.285 22.7594 124.011 24.8047 125.464 26.3287C126.915 27.8526 128.87 28.6144 131.327 28.6144C133.672 28.6144 135.82 28.0469 137.768 26.9115V32.3717Z" fill="#333333"/>
<path fill-rule="evenodd" clip-rule="evenodd" d="M163.617 33.2977H157.585V22.4881H146.528V33.2977H140.515V6.75488H146.528V17.3426H157.585V6.75488H163.617V33.2977Z" fill="#333333"/>
</svg>
