<svg width="265" height="77" viewBox="0 0 265 77" fill="none" xmlns="http://www.w3.org/2000/svg">
<path fill-rule="evenodd" clip-rule="evenodd" d="M0 0V65H118.026L125 33.3059L118.026 0H0Z" fill="#92B700"/>
<path fill-rule="evenodd" clip-rule="evenodd" d="M0 33.0101V65H118.026L125 33L0 33.0101Z" fill="#92B700"/>
<path fill-rule="evenodd" clip-rule="evenodd" d="M43.0886 35.4622C43.0886 48.415 37.0496 54.8914 24.9721 54.8914C13.2564 54.8914 7.39813 48.5657 7.39813 35.9129V11.01H17.1485V36.0336C17.1485 43.0107 19.8765 46.5 25.3338 46.5C30.6903 46.5 33.3682 43.1314 33.3682 36.3943V11.01H43.0886V35.4622Z" fill="white"/>
<path fill-rule="evenodd" clip-rule="evenodd" d="M47.4035 52.4844V42.8566C49.1495 44.3201 51.0463 45.418 53.0938 46.1508C55.1407 46.883 57.2083 47.2487 59.2951 47.2487C60.5201 47.2487 61.5885 47.1387 62.5012 46.918C63.4146 46.6973 64.1771 46.3916 64.7896 46.0001C65.4021 45.6094 65.8581 45.148 66.1596 44.6158C66.4605 44.0844 66.6106 43.508 66.6106 42.8858C66.6106 42.0437 66.3705 41.2916 65.8881 40.6294C65.4064 39.968 64.7496 39.3558 63.9163 38.7937C63.0837 38.2323 62.0953 37.6908 60.951 37.1694C59.8068 36.6473 58.5726 36.1158 57.2483 35.5744C53.8764 34.1701 51.3629 32.4551 49.707 30.4294C48.051 28.403 47.2234 25.9558 47.2234 23.088C47.2234 20.8408 47.6744 18.9101 48.5778 17.2951C49.4811 15.6808 50.7104 14.3516 52.2655 13.3087C53.8207 12.2658 55.6224 11.4987 57.6699 11.0073C59.7168 10.5158 61.8844 10.2694 64.1721 10.2694C66.4205 10.2694 68.4123 10.4051 70.1483 10.6766C71.8842 10.9473 73.4851 11.3637 74.9502 11.9251V20.9216C74.2277 20.4194 73.4401 19.9787 72.5868 19.5973C71.7334 19.2166 70.8558 18.9001 69.9525 18.6494C69.0498 18.3987 68.1515 18.2137 67.2581 18.093C66.3648 17.973 65.5171 17.913 64.7146 17.913C63.6104 17.913 62.607 18.018 61.7036 18.2287C60.801 18.4394 60.0377 18.7351 59.4159 19.1158C58.7934 19.4966 58.3117 19.9537 57.9708 20.4851C57.6299 21.0166 57.4591 21.613 57.4591 22.2751C57.4591 22.998 57.6492 23.6444 58.0309 24.2158C58.4125 24.788 58.9542 25.3287 59.6568 25.8408C60.3586 26.3523 61.2119 26.8537 62.2153 27.3458C63.2187 27.8366 64.3529 28.343 65.6172 28.8651C67.3432 29.5866 68.894 30.3544 70.2691 31.1666C71.6434 31.9787 72.8226 32.8966 73.806 33.9201C74.7894 34.9423 75.542 36.1108 76.0644 37.4251C76.5861 38.7387 76.847 40.268 76.847 42.0137C76.847 44.4208 76.3903 46.4416 75.477 48.0766C74.5636 49.7108 73.3243 51.0351 71.7592 52.048C70.1933 53.0616 68.3723 53.788 66.2947 54.2294C64.2171 54.6708 62.0245 54.8916 59.7168 54.8916C57.3483 54.8916 55.0957 54.6908 52.9581 54.2894C50.8204 53.8887 48.9694 53.2866 47.4035 52.4844Z" fill="white"/>
<path fill-rule="evenodd" clip-rule="evenodd" d="M106.746 54.1327H80.8701V11.0099H105.753V18.9185H90.5884V28.5113H104.7V36.3899H90.5884V46.2542H106.746V54.1327Z" fill="white"/>
<path fill-rule="evenodd" clip-rule="evenodd" d="M159.342 18.8886H147.032V54.1136H137.28V18.8886H125.03V10.9772H159.342V18.8886Z" fill="#333333"/>
<path fill-rule="evenodd" clip-rule="evenodd" d="M187.945 54.1089H162.063V10.9768H186.951V18.8875H171.785V28.4825H185.899V36.3625H171.785V46.2289H187.945V54.1089Z" fill="#333333"/>
<path fill-rule="evenodd" clip-rule="evenodd" d="M222.723 52.6037C219.573 54.128 215.46 54.8894 210.384 54.8894C203.763 54.8894 198.557 52.9451 194.765 49.0544C190.973 45.1644 189.077 39.9809 189.077 33.5044C189.077 26.6066 191.208 21.0116 195.472 16.7216C199.736 12.4301 205.268 10.2844 212.069 10.2844C216.282 10.2844 219.833 10.8159 222.723 11.878V21.233C219.833 19.508 216.544 18.6459 212.851 18.6459C208.799 18.6459 205.528 19.9194 203.041 22.4659C200.553 25.0123 199.309 28.4616 199.309 32.813C199.309 36.9837 200.483 40.3073 202.83 42.7837C205.177 45.2601 208.338 46.498 212.31 46.498C216.101 46.498 219.573 45.5759 222.723 43.7309V52.6037Z" fill="#333333"/>
<path fill-rule="evenodd" clip-rule="evenodd" d="M264.511 54.1089H254.76V36.5432H236.885V54.1089H227.164V10.9768H236.885V28.1818H254.76V10.9768H264.511V54.1089Z" fill="#333333"/>
<path fill-rule="evenodd" clip-rule="evenodd" d="M205.73 70.57V70.63C205.92 70.66 206.095 70.6925 206.255 70.7275C206.415 70.7625 206.567 70.82 206.712 70.9C206.857 70.98 206.985 71.05 207.095 71.11C207.205 71.17 207.317 71.2775 207.432 71.4325C207.547 71.5875 207.642 71.71 207.717 71.8C207.792 71.89 207.882 72.055 207.987 72.295C208.092 72.535 208.175 72.7225 208.235 72.8575C208.295 72.9925 208.382 73.23 208.497 73.57C208.612 73.91 208.7 74.1725 208.76 74.3575C208.82 74.5425 208.92 74.855 209.06 75.295C209.16 75.605 209.235 75.84 209.285 76H206.9C206.34 74.17 205.96 73.05 205.76 72.64C205.45 72.01 205.06 71.635 204.59 71.515C204.41 71.465 204.205 71.44 203.975 71.44H203.24C203.32 71.81 203.36 72.14 203.36 72.43V76H201.08V65.65H203.36V68.575C203.36 68.965 203.32 69.375 203.24 69.805H203.945C204.655 69.805 205.167 69.535 205.482 68.995C205.797 68.455 206.185 67.39 206.645 65.8C206.665 65.73 206.68 65.68 206.69 65.65H209.015C208.455 67.41 208.1 68.455 207.95 68.785C207.6 69.565 207.16 70.08 206.63 70.33C206.38 70.44 206.08 70.52 205.73 70.57ZM216.23 73.285H212.675L211.925 76H209.585L212.57 66.25C212.61 66.07 212.705 65.925 212.855 65.815C213.005 65.705 213.175 65.65 213.365 65.65H215.525C215.955 65.65 216.22 65.85 216.32 66.25L219.305 76H216.98L216.23 73.285ZM215.735 71.515L214.865 68.35C214.745 67.85 214.675 67.525 214.655 67.375H214.25C214.23 67.475 214.195 67.635 214.145 67.855C214.095 68.075 214.055 68.24 214.025 68.35L213.155 71.515H215.735ZM220.385 76V65.65C221.315 65.56 222.63 65.515 224.33 65.515C225.77 65.515 226.757 65.75 227.292 66.22C227.827 66.69 228.095 67.58 228.095 68.89C228.095 70.2 227.842 71.0925 227.337 71.5675C226.832 72.0425 225.93 72.28 224.63 72.28C223.97 72.28 223.32 72.24 222.68 72.16V76H220.385ZM222.68 70.525H224.27C224.87 70.515 225.275 70.4 225.485 70.18C225.695 69.96 225.8 69.53 225.8 68.89C225.8 68.25 225.695 67.82 225.485 67.6C225.275 67.38 224.87 67.27 224.27 67.27L222.68 67.285V70.525ZM231.92 69.49H233.45C234.87 69.49 235.852 69.73 236.397 70.21C236.942 70.69 237.215 71.565 237.215 72.835C237.215 74.085 236.96 74.945 236.45 75.415C235.94 75.885 235.07 76.12 233.84 76.12C232.03 76.12 230.65 76.08 229.7 76H229.64V65.65H231.92V69.49ZM231.92 74.35H233.45C234.06 74.35 234.457 74.2475 234.642 74.0425C234.827 73.8375 234.92 73.41 234.92 72.76C234.92 72.11 234.827 71.67 234.642 71.44C234.457 71.21 234.06 71.095 233.45 71.095H231.92V74.35ZM245.675 74.215L245.765 75.895C244.835 75.995 243.235 76.045 240.965 76.045C240.275 76.045 239.725 75.8575 239.315 75.4825C238.905 75.1075 238.7 74.6 238.7 73.96V67.69C238.7 67.05 238.907 66.5425 239.322 66.1675C239.737 65.7925 240.285 65.605 240.965 65.605C243.235 65.605 244.835 65.655 245.765 65.755L245.675 67.45H241.685C241.435 67.45 241.255 67.51 241.145 67.63C241.035 67.75 240.98 67.945 240.98 68.215V69.79H245.105V71.44H240.98V73.435C240.98 73.715 241.035 73.915 241.145 74.035C241.255 74.155 241.435 74.215 241.685 74.215H245.675ZM247.445 76V65.65C248.375 65.56 249.69 65.515 251.39 65.515C252.83 65.515 253.817 65.75 254.352 66.22C254.887 66.69 255.155 67.58 255.155 68.89C255.155 70.2 254.902 71.0925 254.397 71.5675C253.892 72.0425 252.99 72.28 251.69 72.28C251.03 72.28 250.38 72.24 249.74 72.16V76H247.445ZM249.74 70.525H251.33C251.93 70.515 252.335 70.4 252.545 70.18C252.755 69.96 252.86 69.53 252.86 68.89C252.86 68.25 252.755 67.82 252.545 67.6C252.335 67.38 251.93 67.27 251.33 67.27L249.74 67.285V70.525ZM261.77 73.285H258.215L257.465 76H255.125L258.11 66.25C258.15 66.07 258.245 65.925 258.395 65.815C258.545 65.705 258.715 65.65 258.905 65.65H261.065C261.495 65.65 261.76 65.85 261.86 66.25L264.845 76H262.52L261.77 73.285ZM261.275 71.515L260.405 68.35C260.285 67.85 260.215 67.525 260.195 67.375H259.79C259.77 67.475 259.735 67.635 259.685 67.855C259.635 68.075 259.595 68.24 259.565 68.35L258.695 71.515H261.275Z" fill="#333333"/>
<path d="M198 65H192V71H198V65Z" fill="#92B700"/>
<g clip-path="url(#clip0)">
<path d="M213.274 6.22034C212.405 6.42867 212.037 6.20546 210.829 6.69653C209.327 7.30665 209.519 7.79772 208.002 8.39296C206.5 9.00308 206.308 8.512 204.792 9.12212C203.29 9.73224 203.481 10.2084 201.964 10.8186C200.462 11.4287 200.271 10.9376 198.754 11.5477C197.546 12.0388 197.428 12.4406 196.663 12.9019C196.722 13.0953 196.78 13.2888 196.854 13.4822L197.473 15.0596C198.268 14.5834 198.386 14.1668 199.593 13.6906C201.11 13.0805 201.301 13.5715 202.804 12.9614C204.32 12.3513 204.129 11.8602 205.631 11.265C207.148 10.6549 207.339 11.1459 208.841 10.5358C210.344 9.9257 210.152 9.43462 211.669 8.83939C212.891 8.34831 213.245 8.57153 214.128 8.36319L213.524 6.78581C213.451 6.59236 213.362 6.39891 213.274 6.22034Z" fill="#FFED00"/>
<path d="M200.226 4.13707C197.237 6.25017 195.75 9.74719 196.663 12.8871C197.428 12.4406 197.546 12.024 198.754 11.5329C200.271 10.9377 200.462 11.4287 201.964 10.8186C203.466 10.2085 203.275 9.71743 204.792 9.12219C206.308 8.51207 206.5 9.00314 208.002 8.39302C209.504 7.7829 209.313 7.29183 210.83 6.6966C212.037 6.20552 212.405 6.42874 213.274 6.2204C211.801 3.30374 208.355 1.80076 204.747 2.32159" fill="#A2C621"/>
<path d="M208.842 10.5358C207.339 11.1459 207.148 10.6548 205.631 11.2649C204.129 11.8602 204.32 12.3512 202.804 12.9614C201.302 13.5715 201.11 13.0804 199.593 13.6905C198.371 14.1816 198.268 14.5983 197.473 15.0447L198.076 16.5774L214.732 9.881L214.128 8.34827C213.245 8.5566 212.877 8.33339 211.669 8.82446C210.167 9.43458 210.358 9.92565 208.842 10.5358Z" fill="#EF7A7A"/>
<path d="M209.283 15.5209L215.896 12.8721C216.426 12.6638 216.72 12.1132 216.529 11.6518L216.028 10.3423C215.851 9.88101 215.262 9.68756 214.732 9.8959L198.091 16.5774C197.561 16.7858 197.266 17.3364 197.458 17.7977L197.973 19.1072C198.15 19.5685 198.739 19.762 199.269 19.5536L205.881 16.9048" fill="#A2C621"/>
<path d="M202.995 4.53541C204.272 4.02234 204.957 2.71485 204.524 1.61505C204.092 0.515257 202.706 0.0396218 201.428 0.552693C200.151 1.06576 199.466 2.37325 199.899 3.47305C200.331 4.57284 201.718 5.04848 202.995 4.53541Z" fill="#FBF8F6"/>
<path d="M215.012 9.46433L213.893 6.63695C213.819 6.4435 213.731 6.25004 213.628 6.05659C212.155 3.13993 208.724 1.5179 205.013 1.94945C204.983 1.80064 204.954 1.63695 204.895 1.48814C204.394 0.193496 202.789 -0.357099 201.302 0.238139C199.814 0.833377 199.019 2.35123 199.52 3.631C199.579 3.77981 199.652 3.92862 199.741 4.04766C196.751 6.30957 195.367 9.881 196.28 13.0209C196.339 13.2292 196.412 13.4227 196.486 13.6161L197.605 16.4435C197.104 16.8155 196.884 17.4108 197.09 17.9316L197.605 19.2411C197.856 19.881 198.665 20.1489 199.402 19.8512L206.014 17.2024C206.22 17.1131 206.338 16.9048 206.264 16.7262C206.191 16.5477 205.97 16.4733 205.764 16.5477L199.151 19.1965C198.827 19.3304 198.474 19.2114 198.356 18.9286L197.841 17.6191C197.738 17.3364 197.9 17.009 198.238 16.875L198.621 16.7262L199.019 17.7233C199.093 17.9018 199.313 17.9762 199.52 17.9018C199.726 17.8125 199.844 17.6042 199.77 17.4256L199.372 16.4286L201.14 15.7143L201.537 16.7114C201.611 16.8899 201.832 16.9643 202.038 16.8899C202.244 16.8006 202.362 16.5923 202.288 16.4137L201.891 15.4167L203.658 14.7024L204.055 15.6995C204.129 15.878 204.35 15.9524 204.556 15.878C204.762 15.8036 204.88 15.5804 204.806 15.4018L204.394 14.4197L206.161 13.7054L206.559 14.7024C206.633 14.881 206.853 14.9703 207.06 14.881C207.266 14.7917 207.384 14.5834 207.31 14.4048L206.912 13.4078L208.68 12.6935L209.077 13.6905C209.151 13.8691 209.372 13.9435 209.578 13.8691C209.784 13.7798 209.902 13.5715 209.828 13.3929L209.445 12.3959L211.212 11.6816L211.61 12.6786C211.684 12.8572 211.905 12.9316 212.111 12.8572C212.317 12.7828 212.435 12.5596 212.361 12.381L211.964 11.384L213.731 10.6697L214.128 11.6667C214.202 11.8453 214.423 11.9197 214.629 11.8453C214.835 11.756 214.953 11.5477 214.879 11.3691L214.482 10.3721L214.865 10.2233C215.189 10.0893 215.542 10.2084 215.66 10.4911L216.175 11.8006C216.278 12.0834 216.116 12.4108 215.778 12.5447L209.165 15.1935C208.959 15.2828 208.842 15.4911 208.915 15.6697C208.989 15.8483 209.21 15.9227 209.416 15.8483L216.028 13.1994C216.764 12.9018 217.162 12.1429 216.912 11.503L216.396 10.1935C216.205 9.65778 215.616 9.38993 215.012 9.46433ZM197.237 13.3185C197.193 13.2143 197.163 13.1102 197.134 13.006C197.311 12.8869 197.458 12.7679 197.59 12.6489C197.914 12.381 198.194 12.1429 198.886 11.875C199.579 11.5923 199.932 11.5774 200.344 11.5477C200.771 11.5179 201.272 11.4881 202.097 11.1459C202.921 10.8036 203.304 10.506 203.628 10.2233C203.952 9.9554 204.232 9.71731 204.924 9.44945C205.616 9.16671 205.97 9.15183 206.382 9.12207C206.809 9.09231 207.31 9.06254 208.135 8.72028C208.959 8.3929 209.342 8.0804 209.666 7.79766C209.99 7.52981 210.27 7.29171 210.962 7.02385C211.654 6.74112 212.008 6.72623 212.42 6.69647C212.611 6.68159 212.788 6.66671 213.009 6.63695C213.053 6.74112 213.097 6.8304 213.142 6.93457L213.598 8.09528C213.495 8.11016 213.392 8.11016 213.289 8.12504C212.862 8.15481 212.361 8.18457 211.536 8.52683C210.727 8.83933 210.344 9.15183 210.005 9.43457C209.681 9.70243 209.401 9.94052 208.724 10.2084C208.032 10.4911 207.678 10.506 207.266 10.5358C206.824 10.5655 206.338 10.6102 205.513 10.9375C204.689 11.2649 204.306 11.5774 203.967 11.8602C203.643 12.128 203.363 12.3661 202.686 12.634C201.994 12.9167 201.64 12.9316 201.228 12.9614C200.786 12.9911 200.3 13.0358 199.475 13.3631C198.651 13.6905 198.268 14.003 197.929 14.2858C197.856 14.3453 197.782 14.4197 197.694 14.4792L197.237 13.3185ZM201.552 0.892901C202.612 0.461353 203.776 0.863139 204.144 1.78576C204.512 2.70838 203.938 3.77981 202.863 4.21135C201.788 4.6429 200.639 4.24112 200.271 3.33338C199.903 2.42564 200.492 1.32445 201.552 0.892901ZM200.227 4.5685C200.271 4.59826 200.315 4.62802 200.359 4.65778C200.02 5.44647 199.991 6.32445 200.241 7.15778C200.3 7.35123 200.521 7.44052 200.727 7.36612C200.742 7.36612 200.742 7.36612 200.757 7.35124C200.948 7.27683 201.066 7.08338 201.007 6.90481C200.816 6.26493 200.83 5.59528 201.051 4.98516C201.567 5.14885 202.156 5.14885 202.745 5.00004L203.113 5.93754C203.187 6.11612 203.407 6.19052 203.614 6.11612C203.82 6.02683 203.938 5.8185 203.864 5.63993L203.496 4.68754C204.026 4.38993 204.438 3.97326 204.718 3.51195C205.292 3.80957 205.764 4.28576 206.043 4.881C206.117 5.04469 206.338 5.11909 206.544 5.02981C206.559 5.02981 206.559 5.02981 206.574 5.01493C206.78 4.92564 206.868 4.70243 206.795 4.52385C206.397 3.75004 205.764 3.13992 204.983 2.79766C204.998 2.75302 204.998 2.6935 205.013 2.64885C208.223 2.27683 211.198 3.57147 212.656 5.96731C212.582 5.96731 212.523 5.98219 212.45 5.98219C212.022 6.01195 211.522 6.04171 210.697 6.38397C209.887 6.69647 209.504 7.02385 209.165 7.29171C208.842 7.55957 208.562 7.79766 207.884 8.06552C207.192 8.34826 206.824 8.37802 206.412 8.40778C205.985 8.43754 205.484 8.46731 204.659 8.79469C203.849 9.12207 203.466 9.44945 203.128 9.71731C202.804 9.98516 202.524 10.2233 201.846 10.4911C201.154 10.7739 200.786 10.8036 200.374 10.8334C199.947 10.8631 199.446 10.8929 198.636 11.2203C197.826 11.5477 197.428 11.8602 197.09 12.1429C197.031 12.1875 196.987 12.2322 196.928 12.2768C196.368 9.53874 197.649 6.5179 200.227 4.5685ZM198.342 16.1012L197.973 15.1489C198.15 15.0149 198.312 14.8959 198.445 14.7768C198.754 14.509 199.034 14.2858 199.726 14.003C200.418 13.7352 200.771 13.7054 201.184 13.6756C201.611 13.6459 202.111 13.6161 202.936 13.2739C203.761 12.9316 204.144 12.634 204.468 12.3512C204.792 12.0834 205.072 11.8453 205.749 11.5774C206.456 11.3096 206.809 11.2798 207.222 11.25C207.663 11.2203 208.149 11.1905 208.974 10.8631C209.799 10.5358 210.182 10.2233 210.506 9.94052C210.83 9.67266 211.109 9.43457 211.787 9.16671C212.464 8.89885 212.832 8.86909 213.245 8.83933C213.436 8.82445 213.628 8.80957 213.849 8.77981L214.217 9.73219L198.342 16.1012Z" fill="#333333"/>
</g>
<defs>
<clipPath id="clip0">
<rect width="21" height="20" fill="white" transform="translate(196)"/>
</clipPath>
</defs>
</svg>
