<?xml version="1.0" encoding="UTF-8"?>
<svg width="40px" height="40px" viewBox="0 0 40 40" version="1.1" xmlns="http://www.w3.org/2000/svg" xmlns:xlink="http://www.w3.org/1999/xlink">
    <!-- Generator: Sketch 52.6 (67491) - http://www.bohemiancoding.com/sketch -->
    <title>sv</title>
    <desc>Created with Sketch.</desc>
    <defs>
        <path d="M39.8543,0.3774 C40.0036,0.5871 40.0407,0.8556 39.9538,1.0972 L37.6008,7.6399 C37.4876,7.9544 37.1872,8.1644 36.8502,8.1644 L26.8316,8.1644 C26.0188,8.1644 25.2633,8.4861 24.7039,9.07 C24.1371,9.6617 23.8489,10.439 23.8923,11.2584 C23.9056,11.5104 23.9109,11.7664 23.9081,12.0197 C23.8366,18.4854 18.4774,23.7315 11.954,23.7315 C11.9405,23.7315 11.9278,23.7314 11.9143,23.7314 C10.2327,23.7259 8.6168,23.3833 7.1014,22.7136 C6.3286,23.501 5.2625,23.9571 4.1365,23.9571 C1.8556,23.9571 0,22.1185 0,19.8587 C0,18.7886 0.4296,17.7624 1.1724,17.0032 C0.3916,15.3876 -0.013,13.6017 0.0004,11.7984 C0.0484,5.3165 5.4586,0.0429 12.0606,0.0429 L39.2032,0.0429 C39.4622,0.0429 39.705,0.1677 39.8543,0.3774 Z M5.5975,21.9199 L5.5994,21.9189 C4.1693,21.03 2.9524,19.8579 2.0146,18.4661 L2.0136,18.468 C1.7415,18.8735 1.5936,19.3524 1.5936,19.8587 C1.5936,21.248 2.7343,22.3782 4.1365,22.3782 C4.6662,22.3782 5.1749,22.2141 5.5975,21.9199 Z M36.2882,6.5856 L38.0733,1.6218 L12.0605,1.6218 C6.3308,1.6218 1.6355,6.1922 1.5939,11.81 C1.5809,13.5579 2.0193,15.2871 2.8615,16.8107 C3.8676,18.6305 5.3843,20.091 7.2478,21.0343 C8.703,21.7709 10.2747,22.1472 11.9194,22.1526 C17.5901,22.1678 22.2524,17.6177 22.3145,12.0024 C22.317,11.7824 22.3124,11.56 22.3007,11.3413 C22.2343,10.0848 22.6771,8.8923 23.5478,7.9832 C24.4111,7.082 25.5772,6.5856 26.8315,6.5856 L36.2882,6.5856 Z" id="path-1"></path>
        <path d="M0.6225,4.5252 C0.2204,4.3481 0.0394,3.8815 0.2182,3.4831 C0.6483,2.5249 1.2495,1.6638 2.0052,0.9237 C2.3182,0.6171 2.8227,0.6201 3.132,0.9301 C3.4414,1.2402 3.4385,1.7401 3.1255,2.0466 C2.5116,2.6479 2.0233,3.347 1.6743,4.1247 C1.5423,4.4188 1.251,4.5935 0.9458,4.5935 C0.8376,4.5935 0.7277,4.5716 0.6225,4.5252 Z" id="path-3"></path>
        <path d="M2.0851,0.8872 C2.0851,4.64 5.1666,7.6932 8.9543,7.6932 C12.7421,7.6932 15.8236,4.64 15.8236,0.8872 C15.8236,0.4512 16.1803,0.0977 16.6204,0.0977 C17.0605,0.0977 17.4172,0.4512 17.4172,0.8872 C17.4172,5.5106 13.6207,9.2721 8.9543,9.2721 C4.288,9.2721 0.4915,5.5107 0.4915,0.8872 C0.4915,0.4512 0.8482,0.0977 1.2883,0.0977 C1.7284,0.0977 2.0851,0.4512 2.0851,0.8872 Z" id="path-5"></path>
    </defs>
    <g id="sv" stroke="none" stroke-width="1" fill="none" fill-rule="evenodd">
        <g id="Group-55" transform="translate(0.000000, 8.000000)">
            <g id="Group-26">
                <g id="Group-75">
                    <mask id="mask-2" fill="white">
                        <use xlink:href="#path-1"></use>
                    </mask>
                    <g id="Clip-74"></g>
                    <polygon id="Fill-73" fill="#796EFF" mask="url(#mask-2)" points="-5 -4.9571 45 -4.9571 45 28.9571 -5 28.9571"></polygon>
                </g>
                <g id="Group-78" transform="translate(4.000000, 5.000000)">
                    <mask id="mask-4" fill="white">
                        <use xlink:href="#path-3"></use>
                    </mask>
                    <g id="Clip-77"></g>
                    <polygon id="Fill-76" fill="#796EFF" mask="url(#mask-4)" points="-4.8507 -4.3043 8.3621 -4.3043 8.3621 9.5935 -4.8507 9.5935"></polygon>
                </g>
                <g id="Group-81" transform="translate(3.000000, 11.000000)">
                    <mask id="mask-6" fill="white">
                        <use xlink:href="#path-5"></use>
                    </mask>
                    <g id="Clip-80"></g>
                    <polygon id="Fill-79" fill="#796EFF" mask="url(#mask-6)" points="-4.5085 -4.9023 22.4172 -4.9023 22.4172 14.2721 -4.5085 14.2721"></polygon>
                </g>
            </g>
        </g>
    </g>
</svg>