<?xml version="1.0" encoding="UTF-8"?>
<svg width="40px" height="40px" viewBox="0 0 40 40" version="1.1" xmlns="http://www.w3.org/2000/svg" xmlns:xlink="http://www.w3.org/1999/xlink">
    <!-- Generator: Sketch 52.6 (67491) - http://www.bohemiancoding.com/sketch -->
    <title>Group 21</title>
    <desc>Created with Sketch.</desc>
    <defs>
        <path d="M5.3604,4.9408 C8.8171,1.7547 13.413,0 18.3014,0 C23.1899,0 27.7859,1.7547 31.2426,4.9408 C34.6637,8.094 36.5635,12.2754 36.6023,16.7292 L39.9327,22.8685 C40.0815,23.1429 39.9761,23.4767 39.6907,23.6345 L36.6029,25.3421 L36.6029,34.4031 C36.6029,34.7273 36.3177,34.9902 35.9659,34.9902 L29.8088,34.9902 L29.8088,39.4129 C29.8088,39.7371 29.5236,40 29.1718,40 C28.8201,40 28.5348,39.7371 28.5348,39.4129 L28.5348,34.4031 C28.5348,34.0788 28.8201,33.8159 29.1718,33.8159 L35.3291,33.8159 L35.3291,25.0097 C35.3291,24.8035 35.4465,24.6124 35.6383,24.5063 L38.5296,22.9073 L35.3964,17.1314 C35.3522,17.0498 35.3291,16.96 35.3291,16.8688 C35.3291,8.2147 27.6905,1.1741 18.3015,1.1741 C8.9125,1.1741 1.2739,8.2147 1.2739,16.8688 C1.2739,21.7318 3.6611,26.241 7.8233,29.2403 C7.9778,29.3516 8.068,29.5222 8.068,29.7029 L8.068,39.4128 C8.068,39.737 7.7828,39.9999 7.4311,39.9999 C7.0793,39.9999 6.7941,39.737 6.7941,39.4128 L6.7941,29.9861 C2.472,26.7638 0,21.9996 0,16.8689 C0,12.363 1.9036,8.1269 5.3604,4.9408 Z" id="path-1"></path>
        <path d="M8.9999,0.2727 C13.9626,0.2727 18,3.8453 18,8.2366 C18,11.4679 15.7822,14.3762 12.4348,15.5992 L12.4348,16.8928 L13.1739,16.8928 C13.5341,16.8928 13.8261,17.1512 13.8261,17.4699 L13.8261,21.7789 C13.8261,23.4548 12.2852,24.8182 10.3914,24.8182 L7.6087,24.8182 C5.7148,24.8182 4.1739,23.4547 4.1739,21.7789 L4.1739,17.4699 C4.1739,17.1512 4.466,16.8928 4.8261,16.8928 L5.5653,16.8928 L5.5653,15.5992 C4.0131,15.0331 2.6802,14.1001 1.69,12.8824 C1.4796,12.6237 1.5461,12.2631 1.8385,12.077 C2.1309,11.8909 2.5385,11.9497 2.7487,12.2084 C3.674,13.3462 4.9487,14.1933 6.4349,14.6582 C6.6955,14.7398 6.8697,14.9578 6.8697,15.2023 L6.8697,16.8928 L11.1306,16.8928 L11.1306,15.2023 C11.1306,14.9577 11.3048,14.7397 11.5654,14.6582 C14.6341,13.6985 16.6958,11.1177 16.6958,8.2366 C16.6958,4.4818 13.2435,1.427 9.0002,1.427 C4.7568,1.427 1.3045,4.4818 1.3045,8.2366 C1.3045,8.8135 1.3861,9.3864 1.5469,9.9394 C1.6367,10.2481 1.4267,10.5627 1.0778,10.6422 C0.7288,10.7217 0.3734,10.5358 0.2836,10.2271 C0.0954,9.5802 0,8.9105 0,8.2365 C-0.0001,3.8453 4.0373,0.2727 8.9999,0.2727 Z M5.4783,21.7788 C5.4783,22.8182 6.4341,23.664 7.6087,23.664 L10.3914,23.664 C11.566,23.664 12.5218,22.8183 12.5218,21.7788 L12.5218,21.7384 C12.5074,21.7392 12.493,21.7403 12.4783,21.7403 L5.4783,21.7403 L5.4783,21.7788 Z M5.4783,20.5862 L12.4783,20.5862 C12.493,20.5862 12.5074,20.5873 12.5218,20.5881 L12.5218,19.8936 L5.4783,19.8936 L5.4783,20.5862 Z M6.2174,18.047 L5.4783,18.047 L5.4783,18.7395 L12.5218,18.7395 L12.5218,18.047 L11.7827,18.047 L6.2174,18.047 Z" id="path-3"></path>
        <path d="M0.6048,3.7764 L3.2422,3.7764 L3.2422,0.5854 C3.2422,0.0523 3.9463,-0.2057 4.3089,0.1963 L8.8533,5.2388 C9.191,5.6136 8.907,6.2189 8.3952,6.2189 L5.7578,6.2189 L5.7578,9.4098 C5.7578,9.656 5.6005,9.8764 5.3632,9.963 C5.1283,10.0486 4.8564,9.9823 4.6911,9.799 L0.1467,4.7565 C-0.191,4.3817 0.093,3.7764 0.6048,3.7764 Z M4.5405,7.8372 L4.5405,5.628 C4.5405,5.3016 4.813,5.037 5.1491,5.037 L7.0539,5.037 L4.4593,2.1581 L4.4593,4.3673 C4.4593,4.6936 4.1868,4.9582 3.8507,4.9582 L1.9459,4.9582 L4.5405,7.8372 Z" id="path-5"></path>
        <path d="M0.5,0.6364 C0.7761,0.6364 1,0.9318 1,1.2962 L1,2.7038 C1,3.0682 0.7761,3.3636 0.5,3.3636 C0.2239,3.3636 0,3.0682 0,2.7038 L0,1.2962 C0.0001,0.9317 0.2239,0.6364 0.5,0.6364 Z" id="path-7"></path>
        <path d="M0.1653,1.2075 L1.0259,0.4247 C1.2488,0.2221 1.6101,0.2221 1.8329,0.4247 C2.0557,0.6274 2.0557,0.9559 1.8329,1.1585 L0.9722,1.9413 C0.7401,2.1523 0.3483,2.1381 0.135,1.9115 C-0.0564,1.7084 -0.0425,1.3964 0.1653,1.2075 Z" id="path-9"></path>
        <path d="M0.7258,0.5455 L2.2742,0.5455 C2.675,0.5455 3,0.749 3,1 C3,1.251 2.675,1.4545 2.2742,1.4545 L0.7258,1.4545 C0.325,1.4545 0,1.251 0,1 C0,0.749 0.325,0.5455 0.7258,0.5455 Z" id="path-11"></path>
        <path d="M0.1671,1.0611 C0.3899,0.8584 0.7512,0.8584 0.9741,1.0611 L1.8348,1.8438 C2.0425,2.0327 2.0563,2.3448 1.8651,2.5479 C1.6518,2.7744 1.2599,2.7887 1.0279,2.5776 L0.1672,1.7949 C-0.0557,1.5922 -0.0557,1.2637 0.1671,1.0611 Z" id="path-13"></path>
        <path d="M0.1613,1.8438 L1.0238,1.0611 C1.2472,0.8584 1.6092,0.8584 1.8325,1.0611 C2.0558,1.2638 2.0558,1.5923 1.8325,1.7949 L0.9699,2.5776 C0.7305,2.7949 0.3261,2.7729 0.1212,2.5292 C-0.0508,2.3245 -0.0418,2.0279 0.1613,1.8438 Z" id="path-15"></path>
        <path d="M0.7258,0.5455 L2.2742,0.5455 C2.675,0.5455 3,0.749 3,1 C3,1.251 2.675,1.4545 2.2742,1.4545 L0.7258,1.4545 C0.325,1.4545 0,1.251 0,1 C0,0.749 0.325,0.5455 0.7258,0.5455 Z" id="path-17"></path>
        <path d="M0.1675,0.4247 C0.3908,0.2221 0.7529,0.2221 0.9762,0.4247 L1.8388,1.2074 C2.0421,1.3918 2.0505,1.688 1.8789,1.8928 C1.6744,2.1368 1.2693,2.1583 1.0301,1.9412 L0.1675,1.1585 C-0.0558,0.9559 -0.0558,0.6273 0.1675,0.4247 Z" id="path-19"></path>
    </defs>
    <g id="Var2-(31-Jan-2019)" stroke="none" stroke-width="1" fill="none" fill-rule="evenodd">
        <g id="Главная-HR-Usetech(var.0.3_13_11_2017)-Copy" transform="translate(-417.000000, -1165.000000)">
            <g id="Group-34" transform="translate(388.000000, 988.000000)">
                <g id="Group-49" transform="translate(0.000000, 147.000000)">
                    <g id="Group-21" transform="translate(29.000000, 30.000000)">
                        <g id="Group-32">
                            <mask id="mask-2" fill="white">
                                <use xlink:href="#path-1"></use>
                            </mask>
                            <g id="Clip-31"></g>
                            <polygon id="Fill-30" fill="#FF5163" mask="url(#mask-2)" points="-5 45 45 45 45 -5 -5 -5"></polygon>
                        </g>
                        <g id="Group-35" transform="translate(9.000000, 7.000000)">
                            <mask id="mask-4" fill="white">
                                <use xlink:href="#path-3"></use>
                            </mask>
                            <g id="Clip-34"></g>
                            <polygon id="Fill-33" fill="#FF5163" mask="url(#mask-4)" points="-5 29.8182 23 29.8182 23 -4.72725 -5 -4.72725"></polygon>
                        </g>
                        <g id="Group-38" transform="translate(14.000000, 10.000000)">
                            <mask id="mask-6" fill="white">
                                <use xlink:href="#path-5"></use>
                            </mask>
                            <g id="Clip-37"></g>
                            <polygon id="Fill-36" fill="#FF5163" mask="url(#mask-6)" points="-5 15 14 15 14 -5 -5 -5"></polygon>
                        </g>
                        <g id="Group-41" transform="translate(18.000000, 3.000000)">
                            <mask id="mask-8" fill="white">
                                <use xlink:href="#path-7"></use>
                            </mask>
                            <g id="Clip-40"></g>
                            <polygon id="Fill-39" fill="#FF5163" mask="url(#mask-8)" points="-5 8.3636 6 8.3636 6 -4.36367 -5 -4.36367"></polygon>
                        </g>
                        <g id="Group-44" transform="translate(25.000000, 7.000000)">
                            <mask id="mask-10" fill="white">
                                <use xlink:href="#path-9"></use>
                            </mask>
                            <g id="Clip-43"></g>
                            <polygon id="Fill-42" fill="#FF5163" mask="url(#mask-10)" points="-5 7.0909 7 7.0909 7 -4.72728 -5 -4.72728"></polygon>
                        </g>
                        <g id="Group-47" transform="translate(27.000000, 14.000000)">
                            <mask id="mask-12" fill="white">
                                <use xlink:href="#path-11"></use>
                            </mask>
                            <g id="Clip-46"></g>
                            <polygon id="Fill-45" fill="#FF5163" mask="url(#mask-12)" points="-5 6.4545 8 6.4545 8 -4.45459 -5 -4.45459"></polygon>
                        </g>
                        <g id="Group-50" transform="translate(25.000000, 20.000000)">
                            <mask id="mask-14" fill="white">
                                <use xlink:href="#path-13"></use>
                            </mask>
                            <g id="Clip-49"></g>
                            <polygon id="Fill-48" fill="#FF5163" mask="url(#mask-14)" points="-5 7.7273 7 7.7273 7 -4.09088 -5 -4.09088"></polygon>
                        </g>
                        <g id="Group-53" transform="translate(10.000000, 20.000000)">
                            <mask id="mask-16" fill="white">
                                <use xlink:href="#path-15"></use>
                            </mask>
                            <g id="Clip-52"></g>
                            <polygon id="Fill-51" fill="#FF5163" mask="url(#mask-16)" points="-5 7.7273 7 7.7273 7 -4.09088 -5 -4.09088"></polygon>
                        </g>
                        <g id="Group-56" transform="translate(6.000000, 14.000000)">
                            <mask id="mask-18" fill="white">
                                <use xlink:href="#path-17"></use>
                            </mask>
                            <g id="Clip-55"></g>
                            <polygon id="Fill-54" fill="#FF5163" mask="url(#mask-18)" points="-5 6.4545 8 6.4545 8 -4.45459 -5 -4.45459"></polygon>
                        </g>
                        <g id="Group-59" transform="translate(10.000000, 7.000000)">
                            <mask id="mask-20" fill="white">
                                <use xlink:href="#path-19"></use>
                            </mask>
                            <g id="Clip-58"></g>
                            <polygon id="Fill-57" fill="#FF5163" mask="url(#mask-20)" points="-5 7.0909 7 7.0909 7 -4.72728 -5 -4.72728"></polygon>
                        </g>
                    </g>
                </g>
            </g>
        </g>
    </g>
</svg>