<?xml version="1.0" encoding="UTF-8"?>
<svg width="62px" height="40px" viewBox="0 0 62 40" version="1.1" xmlns="http://www.w3.org/2000/svg" xmlns:xlink="http://www.w3.org/1999/xlink">
    <!-- Generator: Sketch 52.6 (67491) - http://www.bohemiancoding.com/sketch -->
    <title>sport</title>
    <desc>Created with Sketch.</desc>
    <defs>
        <path d="M58.649,10.0971 C60.4795,10.0971 61.9705,11.5881 61.9705,13.4186 C61.9705,15.249 60.4795,16.74 58.649,16.74 L56.4938,16.74 L56.4938,23.3829 C56.4938,25.2133 55.0029,26.7043 53.1724,26.7043 L51.0171,26.7043 C49.1867,26.7043 47.6957,25.2133 47.6957,23.3829 L47.6957,16.74 L14.4519,16.74 L14.4519,23.3829 C14.4519,25.2133 12.961,26.7043 11.1305,26.7043 L8.7981,26.7043 C6.9676,26.7043 5.4767,25.2133 5.4767,23.3829 L5.4767,16.74 L3.3214,16.74 C1.491,16.74 0,15.249 0,13.4186 C0,11.5881 1.491,10.0971 3.3214,10.0971 L5.4767,10.0971 L5.4767,3.4543 C5.4767,1.6238 6.9676,0.1329 8.7981,0.1329 L11.1305,0.1329 C12.961,0.1329 14.4519,1.6238 14.4519,3.4543 L14.4519,10.0971 L47.6957,10.0971 L47.6957,3.4543 C47.6957,1.6238 49.1867,0.1329 51.0171,0.1329 L53.1724,0.1329 C55.0029,0.1329 56.4938,1.6238 56.4938,3.4543 L56.4938,10.0971 L58.649,10.0971 Z M5.4619,14.5848 L5.4619,12.2524 L3.3067,12.2524 C2.6424,12.2524 2.1405,12.7543 2.1405,13.4186 C2.1405,14.0829 2.6424,14.5848 3.3067,14.5848 L5.4619,14.5848 Z M12.1343,23.3829 L12.1343,3.4543 C12.1343,2.79 11.6324,2.2881 11.1305,2.2881 L8.7981,2.2881 C8.2962,2.2881 7.7943,2.79 7.7943,3.4543 L7.7943,23.3829 C7.7943,24.0471 8.2962,24.549 8.7981,24.549 L11.1305,24.549 C11.6324,24.549 12.1343,24.0471 12.1343,23.3829 Z M47.6957,14.5848 L47.6957,12.2524 L14.4519,12.2524 L14.4519,14.5848 L47.6957,14.5848 Z M54.3386,23.3829 L54.3386,3.4543 C54.3386,2.79 53.8367,2.2881 53.1724,2.2881 L51.0171,2.2881 C50.3529,2.2881 49.851,2.79 49.851,3.4543 L49.851,23.3829 C49.851,24.0471 50.3529,24.549 51.0171,24.549 L53.1724,24.549 C53.8367,24.549 54.3386,24.0471 54.3386,23.3829 Z M58.649,14.5848 C59.3133,14.5848 59.8152,14.0829 59.8152,13.4186 C59.8152,12.7543 59.3133,12.2524 58.649,12.2524 L56.4938,12.2524 L56.4938,14.5848 L58.649,14.5848 Z" id="path-1"></path>
    </defs>
    <g id="Symbols" stroke="none" stroke-width="1" fill="none" fill-rule="evenodd">
        <g id="sport">
            <g id="Group-26" transform="translate(0.000000, 8.000000)">
                <g id="Group-118">
                    <mask id="mask-2" fill="white">
                        <use xlink:href="#path-1"></use>
                    </mask>
                    <g id="Clip-117"></g>
                    <polygon id="Fill-116" fill="#0CA2FF" mask="url(#mask-2)" points="-5 -4.8671 66.9705 -4.8671 66.9705 31.7043 -5 31.7043"></polygon>
                </g>
            </g>
        </g>
    </g>
</svg>