<?xml version="1.0" encoding="UTF-8"?>
<svg width="43px" height="40px" viewBox="0 0 43 40" version="1.1" xmlns="http://www.w3.org/2000/svg" xmlns:xlink="http://www.w3.org/1999/xlink">
    <!-- Generator: Sketch 52.6 (67491) - http://www.bohemiancoding.com/sketch -->
    <title>Group 29</title>
    <desc>Created with Sketch.</desc>
    <defs>
        <path d="M33.325,11.3617 C33.919,11.3617 34.4,11.8448 34.4,12.442 C34.4,13.039 33.919,13.5222 33.325,13.5222 L24.725,13.5222 C24.263,13.5222 23.851,13.2247 23.704,12.7841 L22.655,9.6155 L19.308,21.3814 C19.176,21.8459 18.754,22.1642 18.275,22.1642 C18.264,22.1642 18.254,22.1642 18.243,22.1642 C17.752,22.149 17.332,21.8013 17.225,21.3181 L13.681,5.2884 L10.673,12.843 C10.511,13.2543 10.114,13.5228 9.675,13.5221 L1.075,13.5221 C0.481,13.5221 0,13.0389 0,12.4419 C0,11.845 0.481,11.3618 1.075,11.3618 L8.946,11.3618 L12.978,1.2392 C13.152,0.7984 13.593,0.5327 14.061,0.5644 C14.532,0.6025 14.922,0.9439 15.025,1.4062 L18.406,16.6927 L21.542,5.6635 C21.671,5.2076 22.08,4.8915 22.552,4.8807 C23.014,4.8152 23.447,5.1695 23.596,5.6188 L25.5,11.3617 L33.325,11.3617 Z" id="path-1"></path>
        <path d="M39.222,3.829 C44.259,8.8915 44.259,17.0979 39.222,22.1603 L21.5,39.9672 L4.3,22.6845 L7.341,22.6845 L21.5,36.9117 L37.702,20.6322 C41.893,16.421 41.893,9.5677 37.702,5.3565 C35.671,3.3164 32.972,2.193 30.1,2.193 C27.48,2.193 25.028,3.1695 23.072,4.8841 L21.5,6.3603 L19.929,4.8847 C17.973,3.1695 15.521,2.1937 12.9,2.1937 C10.028,2.1937 7.329,3.317 5.298,5.3571 C2.379,8.2901 1.542,12.4927 2.688,16.2035 L0.452,16.2035 C-0.638,11.9145 0.438,7.1862 3.778,3.8291 C6.297,1.2979 9.598,0.0327 12.9,0.0327 C15.989,0.0327 19.052,1.1856 21.5,3.4014 C23.947,1.1856 27.011,0.0327 30.1,0.0327 C33.401,0.0327 36.703,1.2979 39.222,3.829 Z" id="path-3"></path>
    </defs>
    <g id="Var2-(31-Jan-2019)" stroke="none" stroke-width="1" fill="none" fill-rule="evenodd">
        <g id="Главная-HR-Usetech(var.0.3_13_11_2017)-Copy" transform="translate(-1197.000000, -1422.000000)">
            <g id="Group-34" transform="translate(388.000000, 988.000000)">
                <g id="Group" transform="translate(779.000000, 404.000000)">
                    <g id="Group-29" transform="translate(30.000000, 30.000000)">
                        <g id="Group-121" transform="translate(0.000000, 7.000000)">
                            <mask id="mask-2" fill="white">
                                <use xlink:href="#path-1"></use>
                            </mask>
                            <g id="Clip-120"></g>
                            <polygon id="Fill-119" fill="#FF5163" mask="url(#mask-2)" points="-5 -4.4382 39.4 -4.4382 39.4 27.1642 -5 27.1642"></polygon>
                        </g>
                        <g id="Group-124">
                            <mask id="mask-4" fill="white">
                                <use xlink:href="#path-3"></use>
                            </mask>
                            <g id="Clip-123"></g>
                            <polygon id="Fill-122" fill="#FF5163" mask="url(#mask-4)" points="-4.958 -4.9673 48 -4.9673 48 44.9672 -4.958 44.9672"></polygon>
                        </g>
                    </g>
                </g>
            </g>
        </g>
    </g>
</svg>