<svg width="450" height="329" viewBox="0 0 450 329" fill="none" xmlns="http://www.w3.org/2000/svg">
<g clip-path="url(#clip0)">
<path d="M362.699 172.535L365.699 149.495L380.771 145.07L383.884 165.323L362.699 172.535Z" fill="white" stroke="#333333" stroke-width="2"/>
<path d="M349.59 104.992L351.361 96.5772C355.671 94.5399 363.168 91.735 372.584 91.9417C382.117 92.1484 402.365 95.6619 405.553 108.86C407.708 117.806 401.48 129.025 393.186 132.598C381.084 137.824 361.131 128.169 349.59 104.992Z" fill="black"/>
<path d="M386.038 147.51L386.036 147.512C382.576 149.899 375.496 152.694 367.89 153.947C360.256 155.205 352.409 154.858 347.233 151.318C346.125 150.561 345.276 149.199 344.71 147.216C344.146 145.24 343.895 142.755 343.9 139.909C343.909 134.219 344.939 127.282 346.323 120.527C347.706 113.783 349.432 107.266 350.813 102.433C351.504 100.017 352.108 98.0238 352.539 96.6354C352.754 95.9413 352.927 95.3985 353.045 95.0298C353.065 94.9654 353.084 94.9063 353.102 94.8526C353.283 94.7606 353.535 94.6368 353.85 94.4897C354.571 94.1541 355.626 93.6986 356.946 93.2271C359.589 92.2828 363.278 91.2815 367.472 91.0394C375.749 90.5615 386.043 93.026 394.269 104.929C394.267 104.961 394.266 104.994 394.264 105.03C394.252 105.313 394.233 105.73 394.206 106.262C394.153 107.326 394.069 108.853 393.945 110.701C393.697 114.399 393.292 119.376 392.662 124.504C392.031 129.639 391.179 134.894 390.044 139.157C389.476 141.29 388.845 143.146 388.15 144.603C387.444 146.084 386.724 147.04 386.038 147.51Z" fill="white" stroke="#333333" stroke-width="2"/>
<path d="M402.956 104.579C402.956 104.579 352.276 125.305 334.124 101.567C315.971 77.8582 338.079 35.9323 402.956 104.579Z" fill="black"/>
<path d="M403.103 105.287C403.103 105.287 345.281 122.766 328.84 96.2523C312.4 69.7387 342.182 27.5176 403.103 105.287Z" stroke="black" stroke-width="4.3065" stroke-miterlimit="10" stroke-linecap="round"/>
<path d="M331.683 326.063L362.7 171.744L384.084 165.593C402.858 205.662 407.623 246.023 407.675 276.45C407.7 291.758 406.533 304.541 405.36 313.493C404.773 317.969 404.185 321.486 403.745 323.881C403.525 325.079 403.341 325.996 403.213 326.612C403.203 326.66 403.193 326.707 403.184 326.752L331.683 326.063Z" fill="#92BF20" stroke="#333333" stroke-width="2"/>
<path d="M211.849 209.71C211.845 209.187 211.841 208.666 211.838 208.147C228.467 210.364 250.739 211.588 276.524 208.111L276.524 208.111C308.508 203.793 333.807 193.895 350.873 185.588C353.442 198.346 356.038 211.104 358.66 223.888C340.024 228.461 311.369 233.087 276.858 229.126C249.556 225.992 227.438 218.502 211.863 211.777C211.861 211.089 211.855 210.399 211.849 209.712L211.849 209.71Z" fill="white" stroke="#333333" stroke-width="2"/>
<path d="M220.591 211.202L220.591 211.202L220.587 211.215C220.48 211.592 220.249 211.901 219.904 212.132C217.39 213.789 210.508 217.619 201.633 216.229L201.632 216.229C193.647 214.983 188.417 210.166 185.488 206.577C184.605 205.49 185.376 203.862 186.757 203.839C188.703 203.839 190.927 203.926 193.349 204.243L193.349 204.243L193.356 204.244C197.255 204.727 200.499 205.59 203.034 206.264C203.316 206.339 203.59 206.412 203.854 206.481C205.149 206.822 206.3 207.107 207.204 207.191C208.022 207.267 209.137 207.233 209.748 206.316L209.75 206.313C210.103 205.78 210.116 205.187 210.02 204.691C209.925 204.203 209.707 203.714 209.458 203.261C208.968 202.367 208.219 201.374 207.53 200.461L207.504 200.428C206.779 199.467 206.121 198.591 205.712 197.848C205.508 197.477 205.404 197.203 205.369 197.017C205.36 196.973 205.357 196.941 205.356 196.918C205.42 196.89 205.591 196.834 205.978 196.839C206.539 196.846 207.285 196.982 208.135 197.215C209.821 197.677 211.688 198.455 212.827 198.989C216.179 200.59 219.37 202.147 220.542 205.637L220.545 205.646L220.548 205.656C221.306 207.773 220.999 209.841 220.591 211.202ZM205.358 196.873C205.358 196.873 205.358 196.875 205.357 196.879C205.357 196.875 205.358 196.873 205.358 196.873Z" fill="white" stroke="#333333" stroke-width="2"/>
<path d="M373.355 219.823L347.111 230.33L339.287 186.851L362.547 175.852L373.355 202.737V219.823Z" fill="#92BF20" stroke="#333333" stroke-width="2"/>
<path d="M156.03 213.382L156.032 213.383C156.827 214.031 157.533 214.581 158.61 214.785C160.044 215.089 161.47 214.695 162.78 213.97C164.091 213.244 165.329 212.165 166.413 211.026C168.231 209.116 169.671 206.983 170.361 205.904C170.419 205.956 170.478 206.008 170.537 206.061L170.539 206.062C170.667 206.177 170.796 206.293 170.927 206.408C169.788 210.687 168.088 214.291 166.049 216.886C163.96 219.545 161.55 221.105 159.049 221.325L159.047 221.325C156.961 221.518 155.283 220.731 153.079 219.688C150.209 218.324 144.828 215.162 140.138 207.924C141.823 206.685 143.52 205.472 145.223 204.254C145.76 203.871 146.296 203.488 146.834 203.103C150.39 208.354 153.758 211.517 156.03 213.382ZM159.093 221.823V221.823V221.823Z" fill="white" stroke="#333333"/>
<path d="M150.199 206.952L141.987 214.347L135.203 207.724L142.668 195.896L150.199 206.952Z" fill="#FFE36C" stroke="#333333"/>
<path d="M23.0567 308.197L23.0567 308.197L23.0529 308.19L21.5794 305.36C21.4891 305.176 21.5644 304.985 21.7115 304.912L21.7115 304.912L21.7205 304.907L25.321 303.014L27.1001 306.41L23.4984 308.303L23.4906 308.307L23.4829 308.311C23.3098 308.41 23.1302 308.344 23.0567 308.197Z" fill="white" stroke="#333333"/>
<path d="M74.6611 220.301L74.6609 220.301C65.0419 218.279 57.7453 214.516 53.0937 211.59C54.883 208.491 56.672 205.391 58.4383 202.29C62.3477 206.071 68.3226 210.979 76.5217 215.009L76.5225 215.009C83.1217 218.238 89.2264 219.93 93.94 220.848C93.9182 220.914 93.8966 220.978 93.8751 221.043L93.8744 221.045C93.8267 221.188 93.7795 221.33 93.7312 221.472C88.922 221.885 82.2819 221.905 74.6611 220.301Z" fill="white" stroke="#333333"/>
<path d="M16.1622 306.079L16.1623 306.079L16.1653 306.071C16.2233 305.93 16.3986 305.734 16.7494 305.514C17.0862 305.303 17.523 305.108 18.0012 304.94C18.9623 304.602 20.0054 304.4 20.5664 304.373C21.0212 304.353 21.3036 304.402 21.4929 304.48C21.6697 304.553 21.7999 304.665 21.9262 304.846C22.0631 305.043 22.1833 305.302 22.3429 305.668C22.3595 305.706 22.3764 305.745 22.3936 305.785C22.5374 306.116 22.7075 306.508 22.9339 306.94L22.9344 306.941L25.5904 311.989C25.5904 311.989 25.5905 311.989 25.5906 311.99C27.0858 314.845 25.9986 318.378 23.1203 319.874L23.0312 319.919L15.9902 306.48L16.1622 306.079Z" fill="#ECF5D5" stroke="#333333"/>
<path d="M23.2342 320.194L22.6584 320.496L15.0781 306.066L15.6656 305.758L23.2342 320.194Z" fill="#92BF20" stroke="#333333"/>
<path d="M65.9463 313.713L69.7388 314.275L69.1344 318.297L69.1313 318.317L69.1299 318.338C69.1214 318.465 68.9929 318.608 68.7807 318.584L65.6295 318.113L65.6295 318.113L65.6217 318.112C65.4585 318.09 65.3198 317.933 65.3427 317.729L65.9463 313.713Z" fill="white" stroke="#333333"/>
<path d="M67.2706 317.687L67.2722 317.687L72.9389 318.307C76.1473 318.66 78.4582 321.543 78.1048 324.753L78.1047 324.753L78.1042 324.758L78.0954 324.846L63.005 323.184L62.7542 322.817C62.6712 322.688 62.6086 322.433 62.6218 322.022C62.6345 321.624 62.7154 321.152 62.8411 320.661C63.094 319.674 63.5053 318.698 63.7978 318.219C64.0352 317.832 64.2345 317.625 64.4067 317.511C64.5679 317.404 64.7362 317.358 64.9598 317.354C65.2014 317.349 65.4859 317.394 65.8803 317.465C65.9264 317.474 65.9736 317.483 66.0221 317.491C66.3752 317.556 66.7917 317.633 67.2706 317.687Z" fill="#ECF5D5" stroke="#333333"/>
<path d="M78.4203 324.822L78.3502 325.481L62.1657 323.701L62.2358 323.042L78.4203 324.822Z" fill="#92BF20" stroke="#333333"/>
<path d="M76.9063 214.625L76.9063 214.625C82.0298 217.13 86.9022 218.798 91.1189 219.9C91.0607 220.586 90.962 221.287 90.8431 221.982C86.2953 222.071 80.8723 221.729 74.869 220.448L74.8668 220.448C64.3321 218.249 56.3557 214.131 51.2902 210.939C52.2795 209.163 53.1165 207.238 53.942 205.337L53.9523 205.313C54.7532 203.469 55.5441 201.649 56.4627 199.964C60.768 204.171 67.9351 210.239 76.9063 214.625Z" fill="#FFE36C" stroke="#333333"/>
<path d="M54.2413 188.375L55.0554 194.433L48.586 193.573L49.7729 187.059L54.2413 188.375Z" fill="white" stroke="#333333"/>
<path d="M56.4646 173.018L55.3134 170.567C55.3134 170.567 42.2672 168.323 39.5222 178.273L45.0418 184.68L47.8753 182.643L56.4646 173.018Z" fill="black"/>
<path d="M55.082 170.818C55.1498 170.832 55.2088 170.845 55.2585 170.856C55.3209 170.96 55.4093 171.108 55.5194 171.295C55.7519 171.69 56.0814 172.258 56.4681 172.95C57.242 174.335 58.2427 176.211 59.1543 178.181C60.0681 180.156 60.8819 182.204 61.2938 183.938C61.4999 184.806 61.5995 185.572 61.571 186.198C61.5423 186.828 61.3871 187.261 61.142 187.533C59.8438 188.951 57.5151 189.624 55.0909 189.792C52.6801 189.958 50.33 189.613 49.1182 189.145C48.9166 189.067 48.6493 188.855 48.3305 188.459C48.02 188.073 47.6967 187.559 47.3696 186.949C46.716 185.731 46.0759 184.185 45.5108 182.655C44.9469 181.127 44.4629 179.629 44.1196 178.511C43.948 177.953 43.8118 177.491 43.7187 177.168C43.6769 177.023 43.6438 176.907 43.62 176.823C45.2563 172.672 48.173 171.206 50.6969 170.757C51.9861 170.528 53.1788 170.564 54.0514 170.659C54.4867 170.707 54.8398 170.769 55.082 170.818Z" fill="white" stroke="#333333"/>
<path d="M40.5553 177.152C40.5553 177.152 54.2213 179.307 57.291 172.428C60.3607 165.548 52.5094 156.513 40.5553 177.152Z" fill="black"/>
<path d="M64.5356 273.491L64.5355 273.49C60.903 258.898 54.3587 248.284 49.7433 242C54.0114 240.504 58.257 239.006 62.5262 237.484C65.9134 245.934 69.4386 257.046 71.2882 270.402L71.2883 270.402C73.8667 288.921 72.2214 304.613 70.1754 315.484C68.4719 315.159 66.7678 314.815 65.0611 314.469C66.8236 306.358 68.9553 291.349 64.5356 273.491Z" fill="#92BF20" stroke="#333333"/>
<path d="M48.6697 234.739C50.3323 233.999 51.9953 233.259 53.6641 232.514C55.6808 236.608 65.3334 258.19 54.4791 280.775C46.1911 298.007 31.1374 305.142 26.4291 307.126C26.1011 306.432 25.7772 305.741 25.453 305.049L25.4511 305.045C25.1342 304.369 24.817 303.693 24.4957 303.012C28.2415 301.426 42.4458 294.72 48.8133 278.398C56.704 258.245 46.0422 240.372 43.7808 236.918C45.4136 236.188 47.0411 235.464 48.669 234.74L48.6697 234.739Z" fill="#92BF20" stroke="#333333"/>
<path d="M43.1061 243.219C43.0696 243.055 43.0258 242.852 42.9765 242.611C42.8259 241.878 42.6236 240.798 42.4182 239.421C42.0073 236.668 41.5845 232.727 41.5386 227.989C41.4478 218.606 42.8356 206.113 48.7076 193.516L55.1986 195.379L62.449 237.502L43.1061 243.219Z" fill="#FFE36C" stroke="#333333"/>
<path d="M102.57 224.704L102.569 224.704C101.384 225.241 99.4819 225.812 97.3447 225.154C94.9739 224.418 93.7289 222.653 93.2676 221.907C93.2301 221.826 93.224 221.762 93.2323 221.705C93.3138 221.302 93.4655 220.801 93.8906 220.376C94.5707 219.696 95.4825 219.696 96.5576 219.696L96.5772 219.696C96.923 219.696 97.4878 219.731 97.9657 219.823C98.1383 219.856 98.285 219.894 98.3998 219.935C98.2157 220.06 97.9603 220.192 97.6627 220.345L97.6422 220.355C97.355 220.503 97.026 220.671 96.7751 220.849C96.6464 220.94 96.5086 221.054 96.4038 221.193C96.2969 221.335 96.1943 221.545 96.2293 221.802L96.2292 221.802L96.2309 221.813C96.2996 222.248 96.6856 222.437 96.917 222.525C97.1825 222.627 97.5341 222.701 97.9079 222.775C97.99 222.791 98.0749 222.808 98.1624 222.825C98.8991 222.969 99.8241 223.149 100.871 223.507C101.52 223.732 102.087 223.987 102.58 224.219C102.787 224.335 102.754 224.621 102.57 224.704ZM98.6127 220.037C98.6125 220.037 98.6107 220.036 98.608 220.033C98.6115 220.036 98.6129 220.037 98.6127 220.037Z" fill="white" stroke="#333333"/>
<path d="M15.5087 238.869L15.5087 238.869L15.5117 238.865C17.0247 236.856 19.1494 236.302 19.9762 236.164C20.0559 236.151 20.1368 236.17 20.1666 236.187C20.5196 236.405 20.95 236.725 21.2122 237.27C21.6105 238.142 21.3007 238.996 20.9315 240.011C20.8044 240.335 20.574 240.85 20.3224 241.265C20.2351 241.409 20.1521 241.529 20.077 241.622C20.0281 241.408 19.996 241.131 19.959 240.81L19.9585 240.805C19.9211 240.481 19.8779 240.107 19.796 239.804C19.7547 239.651 19.6951 239.482 19.5998 239.336C19.5021 239.185 19.34 239.019 19.0898 238.962L19.0898 238.962L19.082 238.961C18.645 238.869 18.3314 239.169 18.1686 239.357C17.9819 239.572 17.7906 239.879 17.5924 240.205C17.5528 240.27 17.5121 240.338 17.4704 240.407C17.0794 241.054 16.5871 241.869 15.8789 242.732C15.4169 243.281 14.989 243.737 14.5949 244.103L14.5932 244.104C14.4302 244.257 14.157 244.164 14.1345 243.923C14.0223 242.63 14.1394 240.65 15.5087 238.869ZM19.8949 241.801C19.8949 241.801 19.8968 241.8 19.9005 241.798C19.8967 241.801 19.8949 241.801 19.8949 241.801Z" fill="white" stroke="#333333"/>
<path d="M20.402 236.898C21.6486 232.215 23.8675 225.987 27.9355 219.339C32.3901 212.101 39.6122 206.75 44.4158 203.191C45.1478 202.649 45.8236 202.148 46.4249 201.689C48.6539 204.4 49.9466 207.091 50.6097 210.057C45.6733 212.428 38.9424 216.408 32.2967 222.882C27.0136 227.995 23.3768 233.163 20.9118 237.304C20.7435 237.168 20.5727 237.032 20.402 236.898Z" fill="#FFE36C" stroke="#333333"/>
<path d="M102.769 220.748L102.769 220.748L102.775 220.756C103.037 221.07 103.316 221.528 103.339 222.08L103.339 222.094L103.341 222.108C103.434 223.067 102.846 223.757 102.138 224.589L102.133 224.595C101.888 224.868 101.497 225.279 101.123 225.585C100.99 225.694 100.87 225.78 100.769 225.841C100.793 225.625 100.856 225.352 100.931 225.034L100.935 225.016C101.009 224.701 101.094 224.339 101.12 224.03C101.133 223.872 101.135 223.693 101.096 223.522C101.056 223.347 100.96 223.134 100.74 222.995L100.74 222.995L100.738 222.994C100.359 222.757 99.9584 222.939 99.7479 223.056C99.4998 223.194 99.2146 223.416 98.915 223.654C98.8523 223.704 98.7879 223.755 98.7215 223.808C98.131 224.281 97.3899 224.873 96.4396 225.439L96.4396 225.439L96.432 225.443C95.844 225.807 95.3099 226.061 94.7907 226.292C94.5676 226.376 94.3749 226.172 94.431 225.976L94.431 225.976L94.4333 225.968C94.7694 224.707 95.5734 222.891 97.4659 221.684L97.4659 221.684L97.4693 221.682C99.5867 220.306 101.766 220.523 102.605 220.663L102.605 220.663L102.616 220.665C102.697 220.676 102.73 220.7 102.769 220.748ZM100.556 225.939C100.556 225.939 100.558 225.938 100.563 225.938C100.558 225.939 100.556 225.939 100.556 225.939Z" fill="white" stroke="#333333"/>
<path d="M170.798 206.08L170.781 206.066L170.763 206.054C170.461 205.853 170.043 205.48 169.798 204.951C169.48 204.063 169.86 203.203 170.318 202.226C170.474 201.9 170.747 201.391 171.033 200.988C171.137 200.842 171.234 200.723 171.319 200.635C171.354 200.854 171.365 201.14 171.377 201.473L171.377 201.479C171.39 201.808 171.404 202.189 171.463 202.501C171.493 202.659 171.541 202.834 171.625 202.989C171.711 203.147 171.859 203.324 172.102 203.402C172.534 203.545 172.879 203.259 173.052 203.091C173.256 202.891 173.474 202.6 173.701 202.288C173.753 202.217 173.806 202.144 173.86 202.069C174.306 201.452 174.865 200.679 175.63 199.876L175.631 199.875C176.114 199.363 176.598 198.936 177.026 198.593L177.026 198.593L177.032 198.589C177.215 198.438 177.483 198.577 177.483 198.794C177.483 200.086 177.202 202.071 175.693 203.774C174.001 205.628 171.845 206.029 170.993 206.118C170.847 206.115 170.812 206.091 170.798 206.08ZM171.499 200.485C171.499 200.486 171.497 200.487 171.493 200.488C171.497 200.486 171.499 200.485 171.499 200.485Z" fill="white" stroke="#333333"/>
<path d="M161.601 326.756L143.656 326.786C143.567 326.786 143.508 326.727 143.508 326.638V325.162C143.508 325.073 143.567 325.014 143.656 325.014L161.601 324.984C161.69 324.984 161.749 325.044 161.749 325.132V326.608C161.72 326.697 161.66 326.756 161.601 326.756Z" fill="white"/>
<path d="M151.418 258.341L151.419 258.341C151.798 258.196 152.232 258.386 152.365 258.753L152.368 258.761L152.371 258.768C155.157 265.721 159.523 279.648 156.681 296.735L156.681 296.736C155.011 306.817 151.378 314.701 148.359 319.98C148.179 320.284 147.828 320.42 147.496 320.315L147.422 320.292H147.392C147.064 320.171 146.858 319.798 146.946 319.401C148.401 313.459 149.737 305.111 149.024 295.217L149.024 295.216C147.985 281.013 143.233 270.11 139.729 263.633C139.508 263.206 139.701 262.718 140.112 262.564C140.889 262.275 141.664 261.987 142.437 261.699C145.45 260.579 148.434 259.47 151.418 258.341Z" fill="white" stroke="#333333"/>
<path d="M134.793 254.252C134.723 253.818 135.051 253.404 135.525 253.384C139.536 253.295 143.546 253.207 147.555 253.148C147.967 253.149 148.303 253.472 148.321 253.879C148.615 261.359 148.027 275.93 139.588 291.082C134.607 300.022 128.541 306.208 123.937 310.168L123.936 310.169C123.678 310.392 123.288 310.396 123.024 310.203L122.729 310.606V310.565L122.992 310.201C122.67 309.968 122.597 309.509 122.809 309.216L122.815 309.207L122.821 309.199C126.207 304.088 130.247 296.689 132.921 287.12L132.921 287.119C136.724 273.389 135.922 261.503 134.793 254.254L134.793 254.252Z" fill="white" stroke="#333333"/>
<path d="M131.023 174.317C129.783 179.248 132.174 184.149 136.277 185.862C139.523 187.22 143.98 186.6 145.663 184.09C148.762 179.455 142.239 168.619 142.239 168.619C142.239 168.589 134.092 166.286 131.023 174.317Z" fill="black"/>
<path d="M117.719 310.244L117.719 310.244L117.719 310.241C117.765 310.082 117.93 309.851 118.272 309.573C118.6 309.306 119.034 309.042 119.512 308.801C120.471 308.316 121.53 307.958 122.108 307.85C122.584 307.769 122.893 307.782 123.109 307.84C123.312 307.895 123.468 307.998 123.627 308.173C123.798 308.362 123.958 308.619 124.171 308.981C124.199 309.029 124.227 309.078 124.257 309.129C124.438 309.44 124.651 309.804 124.916 310.199C125.189 310.818 125.455 311.437 125.723 312.058L125.723 312.059C125.996 312.693 126.27 313.33 126.551 313.967L126.563 313.993L126.577 314.018C127.062 314.845 128.35 317.234 127.959 320.313C127.742 321.884 127.186 323.089 126.744 323.852L126.705 323.882L117.579 310.723L117.719 310.244Z" fill="#92BF20" stroke="#333333"/>
<path d="M126.488 324.074L126.174 324.281L116.674 311.005L116.989 310.797L126.488 324.074Z" fill="#92BF20" stroke="#333333"/>
<path d="M143.438 186.544L144.137 191.886L138.576 191.078L139.512 185.38L143.438 186.544Z" fill="white" stroke="#333333"/>
<path d="M144.202 170.767C144.252 170.777 144.296 170.787 144.335 170.796C144.378 170.87 144.433 170.965 144.498 171.081C144.668 171.382 144.907 171.818 145.186 172.356C145.743 173.433 146.453 174.914 147.066 176.535C147.68 178.159 148.189 179.903 148.358 181.511C148.529 183.128 148.348 184.536 147.668 185.554C146.929 186.656 145.542 187.39 143.891 187.675C142.249 187.959 140.42 187.782 138.89 187.142L138.889 187.142C135.046 185.538 132.752 180.916 133.921 176.21C135.384 172.422 138.017 171.1 140.289 170.702C141.439 170.5 142.504 170.536 143.283 170.623C143.671 170.666 143.986 170.722 144.202 170.767Z" fill="white" stroke="#333333"/>
<path d="M132.115 180.429C132.115 180.429 131.997 160.647 142.386 157.753C152.806 154.83 163.874 167.91 132.115 180.429Z" fill="black"/>
<path d="M133.515 235.779C133.485 235.642 133.45 235.476 133.41 235.285C133.275 234.626 133.093 233.656 132.909 232.418C132.539 229.943 132.159 226.401 132.117 222.143C132.033 213.72 133.274 202.51 138.526 191.213L144.308 192.869L150.821 230.681L133.515 235.779Z" fill="#FFE36C" stroke="#333333"/>
<mask id="path-43-inside-1" fill="white">
<path d="M136.778 196.048C131.495 197.672 123.614 200.831 115.556 207.09C109.21 212.021 105.334 216.985 102.5 221C102.766 221.443 103.234 221.557 103.5 222C107.249 218.959 111.896 215.83 118.891 212.789C127.54 209.009 135.362 207.71 140.793 207.238C139.435 203.518 138.107 199.797 136.778 196.048Z"/>
</mask>
<path d="M136.778 196.048C131.495 197.672 123.614 200.831 115.556 207.09C109.21 212.021 105.334 216.985 102.5 221C102.766 221.443 103.234 221.557 103.5 222C107.249 218.959 111.896 215.83 118.891 212.789C127.54 209.009 135.362 207.71 140.793 207.238C139.435 203.518 138.107 199.797 136.778 196.048Z" fill="white"/>
<path d="M136.778 196.048L137.721 195.714L137.401 194.81L136.485 195.092L136.778 196.048ZM115.556 207.09L114.943 206.3L114.943 206.301L115.556 207.09ZM102.5 221L101.683 220.423L101.307 220.956L101.642 221.514L102.5 221ZM103.5 222L102.642 222.514L103.235 223.503L104.13 222.777L103.5 222ZM118.891 212.789L119.29 213.706L119.292 213.705L118.891 212.789ZM140.793 207.238L140.879 208.234L142.179 208.121L141.732 206.895L140.793 207.238ZM136.485 195.092C131.12 196.741 123.121 199.947 114.943 206.3L116.17 207.88C124.107 201.714 131.869 198.603 137.072 197.004L136.485 195.092ZM114.943 206.301C108.489 211.315 104.547 216.365 101.683 220.423L103.317 221.577C106.12 217.604 109.931 212.727 116.17 207.88L114.943 206.301ZM101.642 221.514C101.888 221.924 102.227 222.169 102.396 222.297C102.594 222.447 102.623 222.481 102.642 222.514L104.358 221.486C104.112 221.076 103.773 220.831 103.604 220.703C103.406 220.553 103.377 220.519 103.358 220.486L101.642 221.514ZM104.13 222.777C107.815 219.787 112.385 216.707 119.29 213.706L118.493 211.871C111.407 214.952 106.682 218.131 102.87 221.223L104.13 222.777ZM119.292 213.705C127.814 209.981 135.523 208.7 140.879 208.234L140.706 206.242C135.2 206.721 127.265 208.038 118.491 211.872L119.292 213.705ZM141.732 206.895C140.376 203.179 139.049 199.462 137.721 195.714L135.836 196.382C137.164 200.133 138.494 203.856 139.853 207.581L141.732 206.895Z" fill="#333333" mask="url(#path-43-inside-1)"/>
<path d="M138.407 200.298L138.393 200.417L138.434 200.531L141.258 208.238L133.041 209.285L129.779 197.549L139.054 195.014L138.407 200.298Z" fill="#FFE36C" stroke="#333333"/>
<path d="M139.555 254.926C139.32 259.657 138.733 265.153 137.499 271.118L137.499 271.118C136.542 275.732 135.371 279.915 134.139 283.589C133.515 283.355 132.887 283.12 132.26 282.886C131.547 282.619 130.835 282.353 130.128 282.086C128.629 277.273 127.179 270.849 126.977 263.234L126.977 263.234C126.801 256.618 127.542 249.368 128.656 243.009C129.741 236.815 131.174 231.504 132.44 228.469C135.349 227.989 138.337 228.682 141.446 229.411L141.499 229.423C144.535 230.135 147.689 230.874 150.801 230.373C155.798 237.816 162.119 249.21 165.63 264.246C167.527 272.411 168.187 279.787 168.269 285.936C162.435 287.211 154.28 288.152 144.897 286.435L144.896 286.435C142.189 285.942 139.684 285.27 137.431 284.538C139.21 278.731 140.734 271.437 140.85 262.959L140.85 262.957C140.879 260.109 140.791 257.434 140.552 254.904L139.555 254.926Z" fill="#92BF20" stroke="#333333"/>
<path d="M136.395 173.491C132.912 163.422 124.618 157.399 117.239 158.315C111.689 158.994 106.76 163.57 104.753 168.678C100.857 178.628 109.505 186.865 105.284 193.184C103.838 195.369 100.65 197.583 93.0647 197.731C98.0235 202.337 104.96 204.02 111.129 201.982C118.862 199.443 124.234 191.501 123.26 185.596C122.64 181.758 119.541 180.104 120.485 177.329C121.548 174.258 126.359 173.313 128.041 172.989C131.731 172.221 134.801 172.959 136.395 173.491Z" fill="black"/>
<path d="M292.478 100.482L278.743 155.638L220.962 160.68L243.809 68.9192L292.478 100.482Z" fill="#FFE36C" stroke="#333333" stroke-width="2"/>
<path d="M214.343 156.52L214.343 156.519L235.771 70.3969C235.771 70.3964 235.772 70.3959 235.772 70.3954C236.377 68.0017 238.79 66.5342 241.199 67.136C243.592 67.7412 245.06 70.1557 244.457 72.5669L244.457 72.5679L223.029 158.692C223.029 158.692 223.028 158.693 223.028 158.693C222.424 161.109 220.016 162.554 217.601 161.951C215.208 161.345 213.74 158.931 214.343 156.52Z" fill="#92BF20" stroke="#333333" stroke-width="2"/>
<path d="M303.243 120.311L303.486 119.343L303.243 120.311L304.896 120.725C306.835 121.209 308.014 123.168 307.537 125.108L295.122 168.93C295.113 168.937 295.105 168.944 295.095 168.951C294.935 169.078 294.71 169.246 294.451 169.412C293.881 169.778 293.347 170.003 293.008 170C292.534 169.996 292.211 169.95 291.958 169.857C291.723 169.771 291.499 169.627 291.257 169.347C291.201 169.282 291.125 169.145 291.063 168.903C291.003 168.668 290.97 168.395 290.958 168.119C290.946 167.846 290.955 167.593 290.967 167.407C290.973 167.315 290.98 167.242 290.985 167.193C290.986 167.174 290.988 167.159 290.989 167.148L298.856 122.918C299.355 120.992 301.311 119.828 303.243 120.311Z" fill="#92BF20" stroke="#333333" stroke-width="2"/>
<path d="M152.621 320.102L152.654 320.108L152.688 320.11C153.646 320.166 156.313 320.478 158.61 322.55C159.768 323.601 160.436 324.759 160.841 325.583L160.842 325.607L144.832 325.636L144.512 325.256C144.406 325.125 144.31 324.857 144.277 324.421C144.245 324 144.275 323.495 144.35 322.965C144.5 321.903 144.813 320.831 145.055 320.292C145.258 319.858 145.445 319.614 145.615 319.471C145.776 319.336 145.952 319.267 146.188 319.236C146.443 319.203 146.748 319.216 147.168 319.245C147.216 319.249 147.264 319.252 147.314 319.256C147.679 319.281 148.108 319.312 148.595 319.314L150.584 319.703L152.621 320.102Z" fill="#92BF20" stroke="#333333"/>
<path d="M160.924 326.353L160.908 327.016L144.632 326.569L144.648 325.906L160.924 326.353Z" fill="#92BF20" stroke="#333333"/>
<path d="M291.603 174.888C292.359 175.125 293.117 175.363 293.876 175.598C290.376 184.174 288.728 192.419 288.964 199.488C289.21 206.828 291.497 213.007 295.985 216.882L295.987 216.884C299.949 220.281 304.527 220.983 307.952 221.456C326.88 224.127 343.131 212.555 349.866 207.031C350.949 213.525 352.027 220.019 353.104 226.514L353.105 226.519C354.237 233.339 355.368 240.159 356.507 246.98C350.054 249.928 337.252 255.292 322.157 258.15C306.49 261.115 288.468 261.359 272.522 253.522C265.462 250.049 262.608 246.862 260.922 244.098C256.455 236.699 256.86 226.173 261.815 213.825C266.704 201.642 275.953 187.881 288.883 174.04C289.788 174.319 290.694 174.603 291.602 174.888L291.603 174.888Z" fill="white" stroke="#333333" stroke-width="2"/>
<path d="M281.605 162.732L281.605 162.73C282.454 154.69 287.01 149.233 290.454 146.13C291.53 145.193 293.177 145.914 293.249 147.266L293.249 147.266L293.249 147.273C293.365 149.206 293.365 151.434 293.191 153.871C292.894 157.748 292.2 161.005 291.656 163.562C291.59 163.873 291.525 164.174 291.465 164.465C291.189 165.777 290.964 166.943 290.927 167.855C290.894 168.684 290.99 169.79 291.928 170.359L291.928 170.359L291.934 170.363C292.483 170.691 293.078 170.677 293.569 170.557C294.052 170.44 294.531 170.199 294.973 169.928C295.848 169.392 296.811 168.59 297.695 167.852L297.714 167.837C298.641 167.064 299.486 166.361 300.212 165.913C300.574 165.689 300.844 165.569 301.031 165.522C301.074 165.512 301.107 165.506 301.13 165.504C301.161 165.567 301.224 165.734 301.238 166.112C301.259 166.671 301.16 167.424 300.968 168.287C300.587 169.999 299.894 171.911 299.406 173.074L299.404 173.077C297.988 176.484 296.556 179.766 293.142 181.123C291.018 181.962 288.947 181.735 287.542 181.405C287.157 181.313 286.825 181.095 286.577 180.774C284.802 178.337 280.642 171.657 281.605 162.732ZM301.178 165.503C301.177 165.503 301.175 165.503 301.171 165.502C301.176 165.502 301.178 165.503 301.178 165.503Z" fill="white" stroke="#333333" stroke-width="2"/>
<path d="M310.534 105.785L310.534 105.785C325.495 109.519 334.614 124.684 330.881 139.649C327.148 154.613 312.017 163.706 297.057 160.001C297.056 160.001 297.056 160.001 297.056 160.001L278.871 155.46L292.349 101.244L310.534 105.785Z" fill="#92BF20" stroke="#333333" stroke-width="2"/>
<path d="M371.749 231.148C365.523 243.576 358.002 252.569 352.276 258.403C348.028 251.657 343.787 244.918 339.545 238.179C335.229 231.321 330.913 224.463 326.59 217.598C338.794 206.45 351.026 195.33 363.286 184.209C366.404 186.333 369.522 188.451 372.639 190.569L372.641 190.571C375.809 192.723 378.975 194.874 382.141 197.032C381.069 205.391 378.457 217.698 371.749 231.148Z" fill="#92BF20" stroke="#333333" stroke-width="2"/>
<path d="M296.07 48.2217C299.734 47.3561 302.004 43.6827 301.138 40.0168C300.273 36.351 296.601 34.081 292.936 34.9466C289.271 35.8122 287.002 39.4856 287.867 43.1515C288.733 46.8173 292.405 49.0873 296.07 48.2217Z" stroke="#333333" stroke-width="2" stroke-miterlimit="10" stroke-linecap="round"/>
<path d="M437.945 77.2948C441.368 77.2948 444.143 74.5188 444.143 71.0945C444.143 67.6701 441.368 64.8942 437.945 64.8942C434.522 64.8942 431.747 67.6701 431.747 71.0945C431.747 74.5188 434.522 77.2948 437.945 77.2948Z" stroke="#333333" stroke-width="2" stroke-miterlimit="10" stroke-linecap="round"/>
<path d="M434.066 175.085C437.489 175.085 440.264 172.309 440.264 168.885C440.264 165.46 437.489 162.684 434.066 162.684C430.643 162.684 427.867 165.46 427.867 168.885C427.867 172.309 430.643 175.085 434.066 175.085Z" stroke="#333333" stroke-width="2" stroke-miterlimit="10" stroke-linecap="round"/>
<path d="M396.935 105.966C398.322 101.98 401.864 99.5886 405.14 99.9725C407.856 100.297 409.538 102.453 409.922 103.014" stroke="black" stroke-width="4.3065" stroke-miterlimit="10" stroke-linecap="round"/>
<path d="M395.96 103.87C399.355 102.836 401.628 100.179 401.657 97.4038C401.657 95.6618 400.772 94.3331 400.27 93.6836" stroke="black" stroke-width="4.3065" stroke-miterlimit="10" stroke-linecap="round"/>
<path d="M136.336 91.0854L185.421 103.457" stroke="#333333" stroke-width="2" stroke-miterlimit="10" stroke-linecap="round"/>
<path d="M142.386 140.806L186.366 136.318" stroke="#333333" stroke-width="2" stroke-miterlimit="10" stroke-linecap="round"/>
<path d="M165.261 50.1635L201.153 74.5218" stroke="#333333" stroke-width="2" stroke-miterlimit="10" stroke-linecap="round"/>
<path d="M1 330H444" stroke="#92BF20" stroke-width="6" stroke-miterlimit="10" stroke-linecap="round"/>
</g>
<defs>
<clipPath id="clip0">
<rect width="450" height="329" fill="white"/>
</clipPath>
</defs>
</svg>
