<svg width="340" height="350" viewBox="0 0 340 350" fill="none" xmlns="http://www.w3.org/2000/svg">
<path d="M175.906 210.467C175.906 210.467 164.935 215.474 158.835 226.339C152.735 237.205 151.485 252.247 151.485 252.247L170.244 252.442C170.244 252.442 158.778 238.149 175.906 210.467Z" fill="#92BF20"/>
<path d="M340 348.278C340.007 347.836 339.931 347.406 339.79 347.082C339.649 346.759 339.453 346.568 339.246 346.551H0.914754C0.409276 346.551 0 347.323 0 348.278C0 349.232 0.409276 350 0.914754 350H339.246C339.453 349.985 339.649 349.795 339.79 349.472C339.931 349.149 340.007 348.719 340 348.278V348.278Z" fill="#219653"/>
<path d="M181.415 217.927L177.439 208.472L167.422 206.401C167.165 206.348 166.928 206.224 166.738 206.043C166.548 205.861 166.412 205.63 166.346 205.376C166.28 205.121 166.286 204.853 166.363 204.601C166.441 204.35 166.588 204.125 166.786 203.953L174.515 197.23L173.376 187.03C173.347 186.769 173.391 186.504 173.503 186.266C173.616 186.029 173.793 185.828 174.013 185.685C174.234 185.543 174.489 185.466 174.751 185.462C175.014 185.458 175.271 185.528 175.496 185.664L184.255 190.964L193.57 186.724C193.808 186.615 194.073 186.576 194.333 186.61C194.593 186.644 194.838 186.751 195.041 186.918C195.244 187.085 195.396 187.306 195.48 187.555C195.564 187.805 195.577 188.073 195.517 188.329L193.207 198.33L200.102 205.913C200.278 206.108 200.397 206.349 200.444 206.607C200.491 206.866 200.466 207.133 200.37 207.379C200.275 207.624 200.113 207.837 199.904 207.995C199.694 208.153 199.444 208.249 199.183 208.272L188.994 209.159L183.941 218.087C183.812 218.318 183.62 218.508 183.387 218.635C183.155 218.762 182.892 218.821 182.628 218.804C182.364 218.787 182.11 218.696 181.895 218.541C181.681 218.386 181.514 218.173 181.415 217.927V217.927Z" fill="#FFE36C"/>
<path d="M141.341 87.9169L144.915 81.8546L141.969 75.4685C141.9 75.3054 141.876 75.1264 141.901 74.9509C141.927 74.7755 141.999 74.6104 142.111 74.4733C142.223 74.3363 142.37 74.2326 142.536 74.1735C142.703 74.1144 142.882 74.1021 143.055 74.1381L149.897 75.677L155.038 70.8918C155.169 70.7683 155.333 70.6843 155.509 70.6493C155.686 70.6143 155.869 70.6298 156.038 70.694C156.206 70.7582 156.353 70.8686 156.462 71.0125C156.571 71.1564 156.638 71.3282 156.654 71.5083L157.304 78.4974L163.43 81.9255C163.587 82.0133 163.717 82.1437 163.804 82.3018C163.892 82.46 163.933 82.6395 163.924 82.8202C163.915 83.0008 163.855 83.1752 163.752 83.3235C163.649 83.4719 163.507 83.5883 163.341 83.6595L156.906 86.4534L155.537 93.3627C155.501 93.5386 155.416 93.7009 155.293 93.8313C155.171 93.9618 155.014 94.0553 154.841 94.1013C154.668 94.1474 154.486 94.1441 154.315 94.092C154.143 94.0399 153.99 93.9409 153.872 93.8062L149.234 88.52L142.287 89.367C142.108 89.3886 141.928 89.3598 141.765 89.2837C141.602 89.2077 141.464 89.0874 141.366 88.9366C141.267 88.7858 141.213 88.6104 141.209 88.4302C141.204 88.25 141.25 88.0722 141.341 87.9169V87.9169Z" fill="#F2994A"/>
<path d="M207.805 129.506L200.649 134.3L204.651 141.271L197.814 146.304L200.817 153.44L196.312 158.048L198.636 160.336L204.66 154.176L201.811 147.413L208.927 142.176L204.991 135.32L211.471 130.978L207.805 129.506Z" fill="#92BF20"/>
<path d="M255.709 165.767L247.418 163.474L244.786 171.071L236.522 169.177L233.112 176.127L226.695 175.719L226.491 178.983L235.073 179.524L238.302 172.938L246.902 174.912L249.49 167.435L257.003 169.514L255.709 165.767Z" fill="#92BF20"/>
<path d="M224.051 203.775L227.323 209.913L234.381 209.514L237.566 216.658L244.955 213.904L248.913 221.82L256.028 220.13L261.072 227.12L258.435 229.04L254.663 223.811L247.155 225.594L243.352 217.988L235.843 220.782L232.328 212.906L225.433 213.292L222.399 207.602L217.924 208.809L217.081 205.651L224.051 203.775Z" fill="#FFE36C"/>
<path d="M140.98 225.555L135.768 226.083L133.992 217.759L126.281 217.595L123.935 211.581L120.906 212.774L124.037 220.814L131.351 220.974L133.197 229.631L141.037 228.832L140.98 225.555Z" fill="#219653"/>
<path d="M153.651 2.07281L155.709 6.91147L148.326 11.0947L150.465 18.536L145.453 22.5781L147.489 25.1244L154.198 19.7245L152.168 12.6688L159.847 8.31942L156.752 1.04116L153.651 2.07281Z" fill="#92BF20"/>
<path d="M236.395 273.353C233.983 273.827 224.355 286.786 224.355 286.786L224.014 287.673C224.014 287.673 241.439 285.726 242.07 284.981C243.775 282.972 238.373 272.958 236.395 273.353ZM224.469 287.061C227.649 282.981 234.893 277.02 236.461 275.756C237.857 277.189 239.964 281.415 240.242 283.327C238.245 283.739 229.558 286.444 224.474 287.061H224.469Z" fill="#92BF20"/>
<path d="M213.054 275.559C208.315 272.454 207.012 272.477 205.629 273.266C204.247 274.055 199.154 281.39 201.433 283.679C203.712 285.967 221.75 287.599 221.75 287.599L222.157 286.49C222.157 286.49 217.815 278.663 213.054 275.559ZM204.565 282.872C203.513 281.816 206.133 277.421 207.33 276.49C207.634 276.317 219.781 284.078 221.463 286.73C214.723 285.994 205.55 283.745 204.565 282.872Z" fill="#92BF20"/>
<path d="M222.929 284.376H221.913C220.906 284.376 220.089 285.196 220.089 286.208V289.206C220.089 290.217 220.906 291.037 221.913 291.037H222.929C223.936 291.037 224.753 290.217 224.753 289.206V286.208C224.753 285.196 223.936 284.376 222.929 284.376Z" fill="#92BF20"/>
<path d="M260.432 287.738L177.838 287.489C177.321 287.487 176.809 287.598 176.339 287.813C175.868 288.028 175.45 288.343 175.112 288.737C174.774 289.13 174.525 289.592 174.382 290.091C174.239 290.59 174.205 291.114 174.282 291.627L175.559 300.093H179.702L182.197 342.667C182.261 343.765 182.739 344.797 183.536 345.552C184.332 346.308 185.386 346.728 186.482 346.729H252.416L255.159 299.92H259.059L260.432 287.738Z" fill="#92BF20"/>
<path d="M253.809 346.735H203.201L200.489 288.64H260.619L258.097 342.713C258.032 343.807 257.55 344.835 256.752 345.583C255.954 346.332 254.901 346.744 253.809 346.735V346.735Z" fill="#FFE36C"/>
<path d="M263.103 299.949L197.827 300.122L196.338 287.514L260.285 287.758C260.781 287.761 261.272 287.866 261.725 288.069C262.179 288.271 262.586 288.566 262.92 288.935C263.254 289.303 263.508 289.737 263.667 290.21C263.825 290.682 263.884 291.182 263.84 291.679L263.103 299.949Z" fill="#92BF20"/>
<path d="M197.827 300.119L260.087 299.946L199.802 303.251L197.827 300.119Z" fill="#92BF20"/>
<path d="M224.054 287.612H222.323V300.064H224.054V287.612Z" fill="#92BF20"/>
<path d="M229.514 300.004H227.35V346.822H229.514V300.004Z" fill="#92BF20"/>
<path d="M187.493 259.656H120.507V346.728H187.493V259.656Z" fill="#92BF20"/>
<path d="M131.132 259.656H128.707V346.728H131.132V259.656Z" fill="#FFE36C"/>
<path d="M138.294 259.656H135.869V346.728H138.294V259.656Z" fill="#FFE36C"/>
<path d="M145.454 259.656H143.03V346.728H145.454V259.656Z" fill="#FFE36C"/>
<path d="M152.613 259.656H150.188V346.728H152.613V259.656Z" fill="#FFE36C"/>
<path d="M159.772 259.656H157.347V346.728H159.772V259.656Z" fill="#FFE36C"/>
<path d="M166.935 259.656H164.51V346.728H166.935V259.656Z" fill="#FFE36C"/>
<path d="M174.095 259.656H171.67V346.728H174.095V259.656Z" fill="#FFE36C"/>
<path d="M181.256 259.656H178.832V346.728H181.256V259.656Z" fill="#FFE36C"/>
<path d="M187.486 259.649H120.51V263.237H187.486V259.649Z" fill="#FFE36C"/>
<path d="M65.589 232.513C67.7267 234.73 87.7614 235.967 87.7614 235.967L88.9229 235.71C88.9229 235.71 75.0188 218.783 73.8263 218.632C70.549 218.224 63.8311 230.708 65.589 232.513ZM87.9645 235.648C81.5557 235.103 70.4209 231.577 68.0402 230.801C68.5747 228.357 71.5295 223.262 73.3404 221.679C75.1204 223.51 83.8569 230.748 87.9601 235.648H87.9645Z" fill="#219653"/>
<path d="M83.8084 255.444C83.8084 262.54 84.727 263.871 86.4849 264.784C88.2428 265.698 99.3422 266.026 100.177 262.083C101.012 258.141 90.3805 238.109 90.3805 238.109L88.9495 238.437C88.9495 238.437 83.7995 248.38 83.8084 255.444ZM97.1868 259.347C96.8114 261.17 90.4601 261.418 88.6713 260.802C88.287 260.602 88.0662 242.584 89.6651 239C93.5209 246.624 97.4297 257.737 97.1868 259.365V259.347Z" fill="#219653"/>
<path d="M91.2246 234.765L94.3522 232.709C94.859 232.376 95.4768 232.259 96.0698 232.383C96.6627 232.507 97.1823 232.863 97.5141 233.372L98.2113 234.441C98.5424 234.948 98.6591 235.568 98.5356 236.162C98.4121 236.756 98.0586 237.277 97.5528 237.609L94.4215 239.668C93.9148 240.001 93.297 240.118 92.704 239.994C92.1111 239.87 91.5916 239.514 91.2598 239.005L90.5626 237.936C90.3983 237.684 90.285 237.402 90.2292 237.106C90.1734 236.811 90.1763 236.507 90.2376 236.212C90.2988 235.917 90.4173 235.637 90.5863 235.388C90.7552 235.14 90.9713 234.927 91.2222 234.762L91.2246 234.765Z" fill="#219653"/>
<path d="M69.3918 199.131L107.088 267.245L120.616 259.697L82.92 191.584L69.3918 199.131Z" fill="#27AE60"/>
<path d="M137.877 145.427C139.948 147.42 141.384 149.984 142.004 152.797C142.624 155.609 142.399 158.542 141.358 161.226C140.318 163.91 138.508 166.224 136.157 167.875C133.807 169.527 131.022 170.441 128.154 170.503C125.286 170.565 122.464 169.772 120.045 168.224C117.626 166.676 115.719 164.442 114.564 161.806C113.409 159.169 113.059 156.248 113.558 153.412C114.056 150.575 115.381 147.951 117.365 145.871C118.683 144.489 120.259 143.381 122.003 142.611C123.747 141.841 125.625 141.424 127.53 141.382C129.434 141.341 131.328 141.677 133.104 142.371C134.879 143.065 136.501 144.104 137.877 145.427V145.427Z" fill="#FFE36C"/>
<path d="M137.557 157.603L131.374 159.51L129.435 165.719C129.4 165.831 129.334 165.932 129.245 166.009C129.156 166.085 129.048 166.136 128.932 166.154C128.816 166.172 128.697 166.157 128.589 166.11C128.481 166.064 128.389 165.988 128.322 165.892L124.611 160.57L118.154 160.632C118.036 160.634 117.92 160.602 117.819 160.54C117.718 160.479 117.636 160.39 117.583 160.285C117.53 160.179 117.507 160.06 117.517 159.942C117.528 159.824 117.571 159.711 117.642 159.617L121.52 154.437L119.466 148.29C119.43 148.178 119.425 148.058 119.453 147.944C119.481 147.829 119.539 147.725 119.623 147.642C119.706 147.558 119.81 147.5 119.925 147.473C120.039 147.446 120.158 147.451 120.27 147.488L126.378 149.59L131.564 145.731C131.657 145.661 131.769 145.618 131.886 145.608C132.003 145.598 132.12 145.622 132.224 145.675C132.329 145.729 132.416 145.811 132.477 145.911C132.537 146.012 132.568 146.128 132.566 146.246L132.465 152.73L137.725 156.49C137.82 156.558 137.894 156.65 137.94 156.758C137.986 156.865 138.001 156.983 137.983 157.099C137.966 157.214 137.917 157.323 137.841 157.412C137.766 157.501 137.668 157.567 137.557 157.603Z" fill="#F2994A"/>
<path d="M301.293 98.6954C304.079 99.3813 306.6 100.881 308.537 103.006C310.474 105.13 311.741 107.783 312.176 110.63C312.611 113.477 312.196 116.389 310.983 118.999C309.77 121.609 307.813 123.8 305.36 125.293C302.907 126.787 300.069 127.516 297.203 127.39C294.337 127.264 291.573 126.287 289.26 124.583C286.947 122.88 285.189 120.526 284.208 117.819C283.228 115.112 283.068 112.175 283.75 109.377C284.203 107.519 285.017 105.769 286.143 104.226C287.27 102.684 288.689 101.379 290.318 100.387C291.947 99.3954 293.755 98.7354 295.638 98.4451C297.521 98.1548 299.443 98.2399 301.293 98.6954V98.6954Z" fill="#FFE36C"/>
<path d="M307.078 109.399L302.672 114.155L304.085 120.505C304.111 120.62 304.104 120.74 304.065 120.851C304.026 120.962 303.957 121.06 303.866 121.134C303.774 121.208 303.664 121.255 303.548 121.269C303.431 121.283 303.313 121.264 303.207 121.214L297.344 118.468L291.782 121.763C291.681 121.823 291.566 121.853 291.448 121.85C291.331 121.848 291.217 121.812 291.119 121.748C291.02 121.684 290.942 121.593 290.892 121.487C290.842 121.38 290.822 121.262 290.835 121.145L291.612 114.708L286.773 110.416C286.686 110.337 286.622 110.236 286.589 110.122C286.556 110.009 286.555 109.889 286.585 109.776C286.616 109.662 286.677 109.559 286.763 109.478C286.848 109.397 286.954 109.342 287.069 109.318L293.406 108.071L295.975 102.127C296.021 102.019 296.097 101.926 296.193 101.858C296.289 101.791 296.402 101.752 296.519 101.746C296.637 101.74 296.753 101.767 296.856 101.824C296.958 101.881 297.043 101.966 297.1 102.069L300.24 107.735L306.669 108.351C306.785 108.362 306.895 108.404 306.988 108.475C307.081 108.545 307.153 108.639 307.195 108.748C307.238 108.857 307.249 108.976 307.229 109.09C307.208 109.205 307.156 109.312 307.078 109.399Z" fill="#F2994A"/>
<path d="M96.6675 117.068L100.069 122.74C100.156 122.87 100.277 122.976 100.419 123.044C100.561 123.112 100.718 123.141 100.875 123.128C101.031 123.115 101.182 123.06 101.31 122.969C101.439 122.878 101.541 122.755 101.606 122.611L104.022 116.451L110.444 114.957C110.595 114.913 110.732 114.83 110.84 114.716C110.949 114.602 111.025 114.461 111.061 114.307C111.097 114.153 111.092 113.993 111.045 113.842C110.999 113.691 110.913 113.555 110.797 113.449L105.709 109.24L106.279 102.646C106.285 102.487 106.248 102.33 106.173 102.19C106.099 102.05 105.988 101.933 105.852 101.851C105.717 101.769 105.562 101.725 105.404 101.724C105.246 101.722 105.09 101.764 104.953 101.843L99.3928 105.391L93.3241 102.81C93.1763 102.755 93.0166 102.741 92.8617 102.769C92.7067 102.797 92.562 102.867 92.4427 102.97C92.3233 103.073 92.2336 103.206 92.1828 103.356C92.1319 103.505 92.1218 103.666 92.1536 103.821L93.8054 110.229L89.4859 115.227C89.3879 115.351 89.3248 115.5 89.3032 115.657C89.2817 115.814 89.3023 115.974 89.3632 116.12C89.424 116.266 89.5229 116.393 89.6494 116.488C89.7758 116.583 89.9252 116.642 90.0821 116.66L96.6675 117.068Z" fill="#219653"/>
<path d="M102.209 175.872C102.26 176.467 102.132 177.063 101.84 177.583C101.548 178.103 101.106 178.523 100.573 178.787C100.04 179.05 99.4394 179.146 98.8509 179.062C98.2623 178.977 97.713 178.716 97.2748 178.312C96.8367 177.909 96.5302 177.382 96.3956 176.8C96.2609 176.219 96.3043 175.61 96.5201 175.054C96.7359 174.497 97.1142 174.02 97.6051 173.683C98.0961 173.346 98.6769 173.166 99.2714 173.167C100.018 173.135 100.746 173.403 101.297 173.91C101.847 174.417 102.175 175.122 102.209 175.872V175.872Z" fill="#219653"/>
<path d="M220.169 237.558C220.22 238.201 220.077 238.844 219.759 239.405C219.44 239.965 218.961 240.415 218.383 240.698C217.806 240.98 217.157 241.081 216.521 240.987C215.885 240.893 215.293 240.609 214.821 240.172C214.348 239.734 214.018 239.164 213.874 238.536C213.73 237.907 213.777 237.25 214.011 236.649C214.245 236.048 214.653 235.532 215.184 235.168C215.714 234.804 216.342 234.609 216.984 234.609C217.794 234.583 218.581 234.878 219.177 235.43C219.772 235.981 220.129 236.745 220.169 237.558Z" fill="#219653"/>
<path d="M97.126 75.2076C94.4759 76.0635 92.157 74.2497 91.2913 71.5622C89.688 66.5687 94.3521 63.8192 97.4748 65.7438C100.885 67.8237 101.251 73.8727 97.126 75.2076ZM93.4644 58.0939C93.6676 59.0252 93.2362 59.6653 92.1703 60.0141C90.9866 60.3955 90.4036 60.5197 89.825 59.4642C86.2562 52.9304 84.1611 48.6996 83.5398 46.772C77.7494 28.35 76.7777 26.7402 77.4623 26.5185C78.4826 26.1859 80.1477 26.0351 81.2077 25.6892C82.2678 25.3433 83.7386 24.4829 84.7412 24.1547C85.2933 23.9729 85.5583 25.2901 86.8524 29.1394C91.5652 43.1754 92.1879 50.6036 93.4644 58.0939Z" fill="#FFE36C"/>
<path d="M232.467 57.5586C234.073 56.8437 235.819 56.4968 237.576 56.5428C239.333 56.5888 241.058 57.0267 242.625 57.8247C247.528 60.2416 248.999 65.8072 246.773 70.375C244.198 75.6479 236.543 79.6215 221.932 79.1603C212.622 67.8516 211.063 59.3414 213.638 54.064C215.846 49.5095 221.146 47.2567 226.058 49.6736C227.641 50.4292 229.037 51.5285 230.146 52.8922C231.254 54.2558 232.047 55.8497 232.467 57.5586Z" fill="#92BF20"/>
<path d="M190.904 39.69C194.689 42.408 198.627 44.9059 202.697 47.1715C203.925 47.8544 205.855 49.3888 207.29 48.8256C207.65 48.7134 207.954 48.4673 208.14 48.1376C208.325 47.8078 208.378 47.4194 208.288 47.0517C207.948 45.5217 205.877 44.8964 204.64 44.2046C200.868 42.1026 196.69 39.5437 192.64 36.7099C192.245 36.4829 191.778 36.4208 191.338 36.537C190.898 36.6531 190.522 36.9383 190.29 37.3308C190.074 37.7278 190.017 38.1928 190.131 38.6306C190.245 39.0684 190.522 39.4458 190.904 39.6856V39.69Z" fill="#92BF20"/>
<path d="M248.472 84.5372C250.261 85.5705 252.067 86.5728 253.869 87.5839C255.596 88.5462 257.464 89.992 259.425 90.3157C260.874 90.5507 261.877 89.0074 260.861 87.8411C259.536 86.3333 257.372 85.5084 255.636 84.5461C253.829 83.5438 252.027 82.5371 250.208 81.5615C248.26 80.5193 246.55 83.4241 248.472 84.5372Z" fill="#92BF20"/>
<path d="M194.367 72.6978C198.744 70.1567 202.154 70.5248 205.069 70.2454C205.396 70.2326 205.708 70.1043 205.951 69.8832C206.193 69.662 206.35 69.3622 206.394 69.0364C206.437 68.7106 206.365 68.3797 206.19 68.102C206.015 67.8243 205.748 67.6175 205.436 67.518C201.328 65.9969 196.236 67.5979 192.627 69.7354C190.737 70.8618 192.441 73.8109 194.354 72.7023L194.367 72.6978Z" fill="#92BF20"/>
<path d="M209.814 93.905C210.766 92.003 212.104 90.3218 213.741 88.9691C214.756 88.1398 218.559 86.3704 216.753 84.6231C215.052 82.9822 212.151 85.6653 210.901 86.7873C209.222 88.304 207.845 90.1263 206.841 92.1577C205.857 94.1401 208.803 95.8962 209.814 93.905V93.905Z" fill="#92BF20"/>
<path d="M231.433 91.1093C232.022 92.4013 232.61 93.6933 233.199 94.9853C233.791 96.2758 234.158 97.8723 235.624 98.3424C236.45 98.6085 237.157 98.0231 237.448 97.3047C237.974 95.9964 236.781 94.3777 236.234 93.2025C235.645 91.9164 235.043 90.6289 234.427 89.3398C234.03 88.4839 232.802 88.2622 232.042 88.7101C231.65 88.9523 231.367 89.3367 231.25 89.7835C231.133 90.2303 231.192 90.7051 231.415 91.1093H231.433Z" fill="#92BF20"/>
<path d="M226.263 39.533C227.589 28.149 227.695 28.1445 227.346 26.9472C227.261 26.666 227.097 26.4154 226.874 26.2254C226.651 26.0355 226.378 25.9142 226.088 25.8763C225.797 25.8384 225.503 25.8853 225.238 26.0116C224.974 26.1378 224.752 26.338 224.598 26.5879C223.962 27.7232 224.086 27.5503 222.73 39.533C222.624 40.4865 223.613 41.3069 224.497 41.3069C225.544 41.3069 226.153 40.4909 226.263 39.533Z" fill="#92BF20"/>
<path d="M242.747 48.6572C244.197 47.4625 245.517 46.1155 246.682 44.6393C247.764 43.2646 249.615 41.3 248.807 39.4595C248.689 39.2537 248.52 39.0831 248.315 38.9654C248.11 38.8476 247.877 38.787 247.641 38.7899C245.874 38.9451 244.991 41.1492 243.988 42.4175C242.878 43.7896 241.653 45.064 240.327 46.227C240.006 46.5492 239.825 46.9863 239.825 47.4421C239.825 47.8979 240.006 48.3349 240.327 48.6572C240.647 48.9795 241.083 49.1605 241.537 49.1605C241.991 49.1605 242.426 48.9795 242.747 48.6572Z" fill="#92BF20"/>
<path d="M265.073 63.211C265.735 62.6567 265.541 61.6766 265.073 61.0956C264.106 59.9071 261.804 60.2087 260.418 60.2087C258.806 60.2536 257.2 60.4301 255.617 60.7364C254.702 60.9049 254.181 62.018 254.415 62.8651C254.685 63.854 255.608 64.1955 256.535 64.0758C262.577 63.1932 263.452 64.5769 265.073 63.211Z" fill="#92BF20"/>
</svg>
