<svg width="446" height="319" viewBox="0 0 446 319" fill="none" xmlns="http://www.w3.org/2000/svg">
<rect width="446" height="319" fill="#E5E5E5"/>
<rect width="1440" height="2891" transform="translate(-815 -167)" fill="white"/>
<rect x="-815" y="-53" width="1440" height="433" fill="#434343"/>
<path d="M125.336 281.745C121.876 277.076 116.775 274.909 111.832 271.809C107.174 268.885 100.543 268.864 97.1983 263.958C92.4335 256.993 91.6852 245.592 89.2201 237.757C88.9444 236.876 90.2702 236.442 90.5511 237.336C93.0136 245.198 93.7881 256.501 98.3482 263.167C100.186 265.862 103.26 266.908 106.51 268.018C111.693 269.785 111.259 269.916 115.93 272.627C119.713 274.822 123.624 277.097 126.457 280.909C129.697 285.277 132.115 290.614 133.451 296.343C133.493 296.525 133.461 296.715 133.362 296.873C133.264 297.031 133.107 297.143 132.926 297.185C131.051 297.619 132.519 291.429 125.336 281.745Z" fill="#92BF20"/>
<path d="M7.32238 157.665C17.7054 172.389 35.2895 177.837 46.6019 169.838C57.9142 161.84 58.6624 143.416 48.282 128.692C37.9017 113.968 20.3123 108.517 8.99994 116.518C-2.3124 124.52 -3.06061 142.941 7.32238 157.665Z" fill="#92BF20"/>
<path d="M78.4347 197.887C76.6967 197.471 75.1819 197.111 73.9533 196.785C58.9892 192.799 49.3544 166.721 49.2599 166.458L47.9473 166.934C48.3463 168.036 57.9233 193.964 73.5936 198.136C74.8328 198.465 76.3581 198.83 78.1091 199.246C95.0947 203.3 134.868 212.797 138.338 246.813L139.727 246.671C136.157 211.667 95.7064 202.012 78.4347 197.887Z" fill="#92BF20"/>
<path d="M49.2599 166.458L47.9473 166.934C48.9247 169.515 50.0323 172.044 51.2656 174.512C51.5702 174.046 51.8721 173.584 52.1792 173.124C50.3048 169.295 49.2914 166.542 49.2599 166.458Z" fill="#92BF20"/>
<path opacity="0.37" d="M73.5938 198.136C74.8329 198.465 76.3582 198.83 78.1093 199.246C95.0948 203.3 134.868 212.797 138.338 246.813L139.727 246.671C136.157 211.667 95.7065 202.012 78.4348 197.886C76.6969 197.471 75.1821 197.111 73.9534 196.785C63.791 194.079 56.1015 181.203 52.1636 173.121C51.8564 173.581 51.5545 174.044 51.25 174.509C55.3586 182.828 63.1084 195.344 73.5938 198.136Z" fill="#FAFAFA"/>
<path d="M48.2811 128.693C43.2589 121.57 36.5645 116.619 29.6836 114.308C34.8524 117.253 39.2986 121.318 42.6971 126.206C53.0801 140.93 52.3266 159.351 41.0169 167.352C35.1757 171.482 27.6647 172.027 20.335 169.56C29.2767 174.556 39.2606 175.029 46.6009 169.839C57.9106 161.838 58.6615 143.417 48.2811 128.693Z" fill="#219653"/>
<path d="M115.145 189.942C99.8444 188.141 99.8155 164.845 97.521 150.996C95.4208 138.236 69.4305 119.092 69.168 118.9L69.9923 117.772C71.0792 118.561 96.6809 137.445 98.8862 150.768C101.078 163.996 101.173 186.889 115.294 188.554L115.145 189.942Z" fill="#92BF20"/>
<path d="M69.5924 118.337C76.7082 114.222 78.414 103.839 73.4024 95.1454C68.3908 86.4517 58.5596 82.7396 51.4438 86.8543C44.3281 90.9689 42.6223 101.352 47.6339 110.046C52.6454 118.739 62.4766 122.452 69.5924 118.337Z" fill="#92BF20"/>
<path opacity="0.2" d="M140.129 196.584C152.128 194.499 159.663 180.147 156.957 164.527C154.252 148.907 142.331 137.935 130.332 140.02C118.332 142.105 110.798 156.457 113.503 172.077C116.208 187.697 128.129 198.669 140.129 196.584Z" fill="#92BF20"/>
<path d="M204.451 174.897C204.294 174.897 204.141 174.843 204.018 174.744C195.092 167.645 190.666 160.599 190.459 153.197C189.918 133.956 219.074 119.247 222.466 109.753C225.522 101.236 223.92 93.0094 220.61 88.5921C218.163 81.6007 216.803 80.3728 217.985 79.9153C218.07 79.8814 218.161 79.8648 218.253 79.8664C218.345 79.8681 218.435 79.8879 218.519 79.9249C218.603 79.9618 218.679 80.0151 218.742 80.0816C218.806 80.1481 218.855 80.2266 218.888 80.3124L221.878 87.9952C222.603 88.9786 228.376 97.4214 223.784 110.226C220.179 120.268 191.338 134.697 191.855 153.158C192.052 160.123 196.318 166.83 204.89 173.651C205.003 173.741 205.085 173.865 205.126 174.004C205.166 174.143 205.161 174.292 205.114 174.429C205.066 174.566 204.976 174.684 204.858 174.768C204.74 174.852 204.599 174.897 204.454 174.897H204.451Z" fill="#92BF20"/>
<path d="M221.26 88.3437C231.036 85.4678 235.935 72.821 232.203 60.0963C228.47 47.3716 217.52 39.3876 207.745 42.2635C197.969 45.1394 193.07 57.7862 196.802 70.5109C200.535 83.2356 211.485 91.2197 221.26 88.3437Z" fill="#92BF20"/>
<g style="mix-blend-mode:multiply" opacity="0.39">
<path d="M232.203 60.0903C230.326 53.7011 226.634 48.4872 222.171 45.2662C224.239 48.0971 225.796 51.2686 226.771 54.6371C230.504 67.3631 225.605 80.0101 215.829 82.8866C210.972 84.3143 205.824 83.0627 201.416 79.8786C206.538 86.8279 214.214 90.4169 221.274 88.3398C231.037 85.4633 235.936 72.8163 232.203 60.0903Z" fill="#92BF20"/>
</g>
<path d="M247.86 73.8026C251.696 62.7384 251.305 61.0293 252.56 61.4211C253.815 61.8129 252.46 63.1012 249.021 74.5887C248.821 74.8306 229.087 99.0414 234.718 116.395C234.775 116.571 234.76 116.763 234.676 116.928C234.592 117.094 234.445 117.219 234.269 117.276C231.534 118.164 228.326 97.7899 247.86 73.8026Z" fill="#92BF20"/>
<path d="M269.882 65.3C264.815 74.0898 255.235 78.0496 248.485 74.145C241.736 70.2405 240.368 59.9467 245.435 51.1647C250.502 42.3828 260.079 38.4178 266.831 42.3197C273.583 46.2216 274.94 56.5128 269.882 65.3Z" fill="#92BF20"/>
<path d="M143.562 146.093H324.383C326.278 146.093 328.095 146.847 329.435 148.188C330.774 149.53 331.527 151.35 331.527 153.247V175.289H143.557V146.104L143.562 146.093Z" fill="#92BF20"/>
<path d="M215.83 134.609C215.83 134.609 257.679 101.424 267.088 99.1682C276.497 96.9122 285.788 131.848 283.139 141.148C280.49 150.448 214.504 138.855 214.504 138.855L215.83 134.609Z" fill="#EB5757"/>
<g style="mix-blend-mode:multiply">
<path d="M81.6982 304.616H256.235C256.235 306.306 255.564 307.927 254.371 309.123C253.178 310.318 251.559 310.989 249.871 310.989H88.0619C86.3742 310.989 84.7555 310.318 83.5621 309.123C82.3687 307.927 81.6982 306.306 81.6982 304.616Z" fill="#92BF20"/>
</g>
<g style="mix-blend-mode:multiply">
<path d="M271.221 304.616H445.757C445.757 306.306 445.087 307.927 443.893 309.123C442.7 310.318 441.081 310.989 439.394 310.989H277.584C275.897 310.989 274.278 310.318 273.085 309.123C271.891 307.927 271.221 306.306 271.221 304.616Z" fill="#92BF20"/>
</g>
<path d="M416.666 202.6H300.306V305.212H416.666V202.6Z" fill="#92BF20"/>
<g style="mix-blend-mode:multiply">
<path d="M300.306 305.212H334.91C337.818 285.96 343.72 254.013 351.299 250.206C359.978 245.847 399.885 242.055 416.669 240.693V202.6H300.306V305.212Z" fill="#9CD16A"/>
</g>
<path d="M300.306 202.6H420.866C422.097 202.6 423.278 203.089 424.149 203.961C425.019 204.833 425.508 206.015 425.508 207.248V230.594H300.306V202.6Z" fill="#9CD16A"/>
<g style="mix-blend-mode:screen" opacity="0.54">
<path d="M420.866 202.6H300.306V209.394H420.866C421.476 209.394 422.08 209.514 422.643 209.748C423.206 209.981 423.718 210.324 424.149 210.755C424.58 211.187 424.921 211.7 425.155 212.264C425.388 212.828 425.508 213.432 425.508 214.043V207.254C425.508 206.643 425.389 206.038 425.155 205.473C424.922 204.909 424.581 204.396 424.15 203.964C423.719 203.532 423.207 203.189 422.644 202.955C422.08 202.721 421.476 202.6 420.866 202.6Z" fill="#9CD16A"/>
</g>
<path d="M141.576 169.632L140.342 121.652C140.342 121.652 140.229 114.95 139.786 109.365C139.648 107.824 139.416 106.292 139.09 104.78L130.164 109.036L130.427 117.831L133.236 170.444C135.404 171.462 139.395 170.292 141.576 169.632Z" fill="#5CB30B"/>
<path d="M139.836 110.874C139.815 110.5 139.773 109.698 139.715 108.725C139.581 107.45 139.35 104.087 139.077 102.765L130.151 109.036L130.414 117.831L130.474 118.951C133.289 117.405 137.964 114.465 139.836 110.874Z" fill="#4FA104"/>
<path d="M129.565 178.129C131.006 179.631 131.014 181.497 129.492 181.81C127.969 182.123 124.937 181.395 124.937 181.395L122.674 168.188L127.641 167.912C128.51 176.06 128.31 176.822 129.565 178.129Z" fill="#F3A875"/>
<path d="M140.297 168.188C139.772 169.878 140.297 175.455 141.668 176.572C142.169 176.984 142.724 177.326 143.316 177.59C145.726 178.642 148.845 178.408 149.278 180.574C149.712 182.741 134.01 179.967 134.01 179.967C134.01 179.967 135.099 174.708 135.17 173.817C135.241 172.926 135.073 169.694 135.073 169.694L140.297 168.188Z" fill="#F3A875"/>
<path d="M133.834 179.282C138.946 180.246 144.197 180.205 149.294 179.161C141.287 180.373 134.832 179.424 135.278 179.48L133.834 179.282Z" fill="#FFE36C"/>
<path d="M138.518 100.711H122.892C122.832 100.86 122.749 100.998 122.645 101.121C115.032 109.895 115.615 119.503 116.586 129.299C117.985 143.422 121.278 160.407 121.942 171.163C123.357 171.9 126.764 172.334 129.366 171.234L129.86 119.292C129.883 118.138 132.863 115.193 135.549 112.774C138.646 109.977 140.08 105.651 138.859 101.657C138.759 101.334 138.646 101.029 138.518 100.711Z" fill="#5CB30B"/>
<path d="M125.207 100.882C125.235 100.829 125.251 100.771 125.252 100.711H124.493C123.81 102.002 119.702 109.913 119.121 114.922C118.596 119.547 121.361 159.608 122.188 171.269C122.424 171.351 122.666 171.412 122.912 171.453C122.125 160.21 119.303 119.537 119.828 115.004C120.429 109.798 125.16 100.968 125.207 100.882Z" fill="#D3EABD"/>
<path d="M142.204 57.4772C141.941 55.1607 141.28 53.5674 140.366 53.2702C138.975 52.8127 137.778 52.8285 136.612 51.9398C134.774 50.5463 131.44 51.08 128.789 52.6655C125.568 54.5902 124.032 58.5788 124.418 63.7087C124.47 64.4406 124.761 65.1351 125.245 65.6859C130.133 71.2075 136.3 69.3669 136.57 69.1908C140.718 66.5851 143.005 64.6394 142.204 57.4772Z" fill="#333333"/>
<path d="M143.887 74.4127C143.887 74.4127 147.825 77.4759 155.987 77.4759C164.149 77.4759 171.145 61.2556 171.145 61.2556L175.306 61.324C175.306 61.324 169.588 85.2219 156.142 84.6539C142.695 84.086 139.298 80.1841 139.298 80.1841L143.887 74.4127Z" fill="#F2A46E"/>
<g style="mix-blend-mode:multiply" opacity="0.65">
<path d="M156.137 81.7485C147.282 81.3752 142.787 79.553 140.747 78.3514L139.293 80.1762C139.293 80.1762 142.685 84.086 156.137 84.646C169.589 85.2061 175.301 61.3161 175.301 61.3161L174.537 61.0952C172.584 67.3293 166.78 82.1981 156.137 81.7485Z" fill="#F2A46E"/>
</g>
<path d="M131.141 76.1476C132.489 74.6711 134.166 73.535 136.037 72.832C139.114 71.6909 146.141 74.0573 146.141 74.0573C146.141 74.0573 147.793 74.4964 145.661 80.7384C143.529 86.9804 131.141 76.1476 131.141 76.1476Z" fill="#FFE36C"/>
<g style="mix-blend-mode:multiply" opacity="0.44">
<path d="M131.153 76.1613C131.203 76.206 131.416 76.3769 131.723 76.6424C134.204 78.6881 143.799 86.1632 145.661 80.7389C146.02 79.7226 146.312 78.6835 146.535 77.6284C141.481 76.3348 137.677 72.6853 137.677 72.6853C137.199 72.5328 136.59 72.6327 135.934 72.8773L135.9 72.893H135.868L135.782 72.9272C133.823 73.716 131.529 75.709 131.146 76.1403L131.153 76.1613Z" fill="#FFE36C"/>
</g>
<path d="M142.889 83.8709C142.889 86.5896 140.135 101.75 139.198 102.66C137.237 104.624 120.325 103.728 118.408 101.808C116.492 99.8887 116.022 85.2092 123.278 75.4386C125.239 72.8093 128.791 71.9811 128.791 71.9811L137.455 72.5227H137.481C137.492 72.5316 137.501 72.5413 137.51 72.5516C137.927 72.8636 138.321 73.2055 138.689 73.5744C139.597 74.429 140.763 75.7515 141.33 77.2161C141.963 78.8094 142.889 81.1416 142.889 83.8709Z" fill="#FFE36C"/>
<g style="mix-blend-mode:multiply" opacity="0.44">
<path d="M139.812 101.117C140.234 99.6445 140.749 97.3096 141.237 94.8065C138.801 95.1773 135.769 95.2693 133.408 94.1544C128.709 91.9327 124.005 74.7764 124.005 74.7764L122.149 77.1033C122.149 77.1033 120.098 85.4488 120.896 90.7758C121.694 96.1028 123.204 101.227 130.148 102.655C132.941 103.239 136.525 102.366 139.812 101.117Z" fill="#FFE36C"/>
</g>
<path d="M138.147 80.4472C133.632 81.9985 128.799 71.9808 128.799 71.9808C129.3 72.0157 129.802 72.0157 130.303 71.9808C131.44 71.639 131.836 62.7072 131.836 62.7072L136.709 65.581C136.709 65.581 136.41 70.4453 136.709 71.5548C136.792 71.8896 136.995 72.1824 137.278 72.3778C138.099 73.0322 138.733 73.8921 139.116 74.8704C139.843 76.7004 140.909 79.4954 138.147 80.4472Z" fill="#F2A46E"/>
<g style="mix-blend-mode:multiply" opacity="0.65">
<path d="M131.837 62.6914C131.837 62.6914 131.808 63.3435 131.742 64.3005C132.769 68.3234 134.966 70.6319 136.641 71.0973C136.47 69.4908 136.714 65.5758 136.714 65.5758L131.837 62.6914Z" fill="#F2A46E"/>
</g>
<path d="M131.172 59.1873C131.172 59.1873 132.043 55.693 134.698 54.7175C137.352 53.742 139.736 54.5702 140.573 58.0278C141.41 61.4854 139.967 66.907 138.331 68.5451C136.695 70.1832 131.353 66.8649 131.172 59.1873Z" fill="#F5BA92"/>
<path d="M131.936 60.3159C131.936 60.3159 130.662 58.2414 129.835 59.4061C129.008 60.5709 129.654 63.4106 131.179 63.592C132.705 63.7734 131.936 60.3159 131.936 60.3159Z" fill="#F2A46E"/>
<path d="M150.291 146L105.031 304.946C104.972 305.156 104.998 305.382 105.103 305.573C105.208 305.764 105.384 305.905 105.592 305.966C105.666 305.989 105.743 306 105.821 306C105.997 305.997 106.168 305.938 106.309 305.83C106.449 305.722 106.551 305.572 106.6 305.401L152 146H150.291Z" fill="#333333"/>
<path d="M82.3914 306.027C82.3125 306.027 82.2339 306.017 82.1578 305.996C81.9469 305.934 81.7693 305.79 81.6639 305.597C81.5586 305.404 81.5342 305.176 81.596 304.965L130.004 140.167C130.031 140.059 130.08 139.958 130.148 139.869C130.215 139.78 130.3 139.706 130.397 139.651C130.494 139.596 130.601 139.56 130.711 139.548C130.822 139.535 130.934 139.544 131.041 139.576C131.148 139.607 131.248 139.66 131.334 139.731C131.42 139.801 131.491 139.889 131.542 139.988C131.594 140.087 131.625 140.195 131.634 140.306C131.643 140.417 131.63 140.529 131.594 140.635L83.1869 305.431C83.1361 305.602 83.0312 305.753 82.8879 305.861C82.7446 305.968 82.5705 306.027 82.3914 306.027Z" fill="#333333"/>
<path d="M141.143 181.375H118.999C118.779 181.375 118.568 181.287 118.412 181.131C118.256 180.976 118.169 180.764 118.169 180.544C118.169 180.324 118.256 180.112 118.412 179.956C118.568 179.801 118.779 179.713 118.999 179.713H141.135C141.355 179.713 141.566 179.801 141.722 179.956C141.877 180.112 141.964 180.324 141.964 180.544C141.964 180.764 141.877 180.976 141.722 181.131C141.566 181.287 141.355 181.375 141.135 181.375H141.143Z" fill="#333333"/>
<path d="M132.614 211.165H111.273C111.053 211.165 110.842 211.077 110.686 210.921C110.531 210.765 110.443 210.554 110.443 210.334C110.443 210.113 110.531 209.902 110.686 209.746C110.842 209.59 111.053 209.503 111.273 209.503H132.614C132.834 209.503 133.045 209.59 133.2 209.746C133.356 209.902 133.443 210.113 133.443 210.334C133.443 210.554 133.356 210.765 133.2 210.921C133.045 211.077 132.834 211.165 132.614 211.165Z" fill="#333333"/>
<path d="M124.165 240.671H101.587C101.367 240.671 101.156 240.583 101.001 240.428C100.845 240.272 100.758 240.06 100.758 239.84C100.758 239.62 100.845 239.408 101.001 239.253C101.156 239.097 101.367 239.009 101.587 239.009H124.165C124.385 239.009 124.596 239.097 124.751 239.253C124.907 239.408 124.994 239.62 124.994 239.84C124.994 240.06 124.907 240.272 124.751 240.428C124.596 240.583 124.385 240.671 124.165 240.671Z" fill="#333333"/>
<path d="M115.782 269.944H92.9897C92.8808 269.944 92.7729 269.923 92.6723 269.881C92.5716 269.839 92.4802 269.778 92.4031 269.701C92.3261 269.624 92.265 269.532 92.2233 269.431C92.1816 269.331 92.1602 269.223 92.1602 269.114C92.1602 269.004 92.1816 268.896 92.2233 268.796C92.265 268.695 92.3261 268.603 92.4031 268.526C92.4802 268.449 92.5716 268.388 92.6723 268.346C92.7729 268.304 92.8808 268.283 92.9897 268.283H115.782C116.002 268.283 116.213 268.37 116.369 268.526C116.525 268.682 116.612 268.893 116.612 269.114C116.612 269.334 116.525 269.545 116.369 269.701C116.213 269.857 116.002 269.944 115.782 269.944Z" fill="#333333"/>
<path d="M124.892 64.3055C124.892 64.3055 119.802 57.1012 115.008 60.3616C110.214 63.6219 109.361 66.338 107.053 65.8043C104.746 65.2705 94.452 62.7542 93.2077 71.7018C91.9633 80.6494 107.229 87.0413 111.06 78.1542C114.89 69.2671 116.384 72.9139 120.773 72.9139C125.163 72.9139 124.892 64.3055 124.892 64.3055Z" fill="#333333"/>
<path d="M129.176 176.038C129.176 176.038 130.709 178.123 131.069 178.993C131.428 179.864 131.35 182.025 131.069 182.248C128.588 184.21 123.886 182.446 123.886 182.446C123.663 181.387 123.5 180.317 123.4 179.24C123.238 177.476 123.329 175.822 123.886 175.822C124.443 175.822 124.542 176.748 125.813 176.485C127.084 176.222 127.871 175.778 129.176 176.038Z" fill="#FFE36C"/>
<path d="M123.496 180.122C124.611 180.574 125.771 180.904 126.956 181.105C128.245 181.289 129.981 180.716 131.288 180.138C131.356 181.063 131.259 182.099 131.07 182.241C128.589 184.203 123.887 182.438 123.887 182.438C123.887 182.438 123.667 181.46 123.496 180.122Z" fill="#92BF20"/>
<path d="M134.648 176.227C134.648 176.227 134.454 177.063 134.015 178.483C133.752 179.376 133.695 180.318 133.85 181.236C133.85 181.236 148.551 181.933 149.155 181.468C149.759 181.002 149.444 179.301 149.294 179.151C149.145 179.001 147.278 178.496 146.32 177.905C145.362 177.313 142.101 175.084 140.988 175.176C139.875 175.268 139.373 176.083 137.276 176.177C135.178 176.272 135.168 175.83 134.648 176.227Z" fill="#FFE36C"/>
<path d="M149.155 181.488C148.559 181.953 133.85 181.256 133.85 181.256C133.739 180.607 133.734 179.943 133.834 179.292C141.513 180.717 149.294 179.171 149.294 179.171C149.452 179.313 149.751 181.012 149.155 181.488Z" fill="#92BF20"/>
<path d="M148.681 175.402H321.758V297.82C321.758 299.781 320.98 301.66 319.596 303.047C318.212 304.433 316.335 305.211 314.378 305.211H156.073C154.116 305.211 152.239 304.433 150.855 303.047C149.471 301.66 148.694 299.781 148.694 297.82V175.402H148.681Z" fill="#92BF20"/>
<g style="mix-blend-mode:multiply">
<path d="M143.562 146.093H324.37C326.268 146.093 328.089 146.848 329.431 148.192C330.773 149.537 331.527 151.36 331.527 153.261V175.402H143.557V146.093H143.562Z" fill="#FFE36C"/>
</g>
<g style="mix-blend-mode:multiply">
<path d="M148.681 175.402H321.758V297.82C321.758 299.781 320.98 301.66 319.596 303.047C318.212 304.433 316.335 305.211 314.378 305.211H156.073C154.116 305.211 152.239 304.433 150.855 303.047C149.471 301.66 148.694 299.781 148.694 297.82V175.402H148.681Z" fill="#92BF20"/>
</g>
<path d="M136.119 175.402H277.097V298.541C277.097 300.31 276.395 302.007 275.146 303.258C273.897 304.509 272.203 305.211 270.436 305.211H142.779C141.013 305.211 139.319 304.509 138.07 303.258C136.821 302.007 136.119 300.31 136.119 298.541V175.402Z" fill="#92BF20"/>
<path d="M141.683 266.623C141.683 252.772 155.642 252.635 155.642 237.32C155.642 221.959 141.683 221.92 141.683 208.018C141.683 194.17 155.642 194.033 155.642 178.72C155.646 177.609 155.566 176.5 155.403 175.402H152.555C152.757 176.496 152.856 177.607 152.851 178.72C152.851 192.571 138.893 192.705 138.893 208.018C138.893 223.379 152.851 223.421 152.851 237.32C152.851 251.171 138.893 251.308 138.893 266.623C138.893 281.984 152.851 282.023 152.851 295.925C152.851 299.937 151.68 302.798 150.016 305.211H153.347C154.718 302.777 155.642 299.837 155.642 295.925C155.642 280.564 141.683 280.522 141.683 266.623Z" fill="#FFE36C"/>
<path d="M168.396 280.31C165.007 276.749 161.804 273.389 161.804 266.637C161.804 252.786 175.76 252.649 175.76 237.333C175.76 221.973 161.804 221.933 161.804 208.032C161.804 194.183 175.76 194.047 175.76 178.734C175.764 177.623 175.684 176.514 175.521 175.415H172.673C172.875 176.51 172.974 177.621 172.969 178.734C172.969 192.585 159.011 192.719 159.011 208.032C159.011 223.393 172.969 223.435 172.969 237.333C172.969 251.185 159.011 251.321 159.011 266.637C159.011 281.998 172.969 282.037 172.969 295.938C172.969 300.001 171.814 302.838 170.155 305.225H173.466C174.839 302.79 175.76 299.851 175.76 295.938C175.76 288.04 172.03 284.109 168.396 280.31Z" fill="#FFE36C"/>
<path d="M181.922 266.623C181.922 252.772 195.88 252.635 195.88 237.32C195.88 221.959 181.922 221.92 181.922 208.018C181.922 194.17 195.88 194.033 195.88 178.72C195.883 177.609 195.802 176.5 195.639 175.402H192.79C192.992 176.496 193.092 177.607 193.087 178.72C193.087 192.571 179.131 192.705 179.131 208.018C179.131 215.906 182.875 219.835 186.495 223.634C189.884 227.194 193.087 230.554 193.087 237.306C193.087 251.158 179.131 251.294 179.131 266.61C179.131 281.971 193.087 282.01 193.087 295.911C193.087 299.974 191.932 302.811 190.275 305.198H193.583C194.956 302.763 195.88 299.824 195.88 295.911C195.88 280.564 181.922 280.522 181.922 266.623Z" fill="#FFE36C"/>
<path d="M202.039 266.624C202.039 259.856 205.242 256.496 208.634 252.951C212.254 249.149 215.985 245.219 215.985 237.333C215.985 221.973 202.026 221.933 202.026 208.032C202.026 194.183 215.985 194.047 215.985 178.734C215.989 177.623 215.908 176.514 215.743 175.415H212.897C213.1 176.51 213.199 177.621 213.194 178.734C213.194 192.585 199.235 192.719 199.235 208.032C199.235 215.92 202.979 219.848 206.599 223.648C209.991 227.208 213.194 230.568 213.194 237.32C213.194 251.171 199.235 251.308 199.235 266.624C199.235 281.984 213.194 282.024 213.194 295.925C213.194 299.987 212.036 302.824 210.38 305.212H213.69C215.061 302.777 215.985 299.838 215.985 295.925C215.998 280.565 202.039 280.523 202.039 266.624Z" fill="#FFE36C"/>
<path d="M228.752 280.31C225.36 276.749 222.159 273.389 222.159 266.637C222.159 252.786 236.115 252.649 236.115 237.333C236.115 221.973 222.159 221.933 222.159 208.032C222.159 194.183 236.115 194.047 236.115 178.734C236.119 177.623 236.039 176.514 235.877 175.415H233.028C233.23 176.51 233.33 177.621 233.325 178.734C233.325 192.585 219.366 192.719 219.366 208.032C219.366 223.393 233.325 223.435 233.325 237.333C233.325 244.101 230.122 247.461 226.73 251.019C223.11 254.821 219.379 258.752 219.379 266.637C219.379 281.998 233.338 282.037 233.338 295.938C233.338 300.001 232.183 302.838 230.524 305.225H233.834C235.207 302.79 236.129 299.851 236.129 295.938C236.116 288.04 232.372 284.109 228.752 280.31Z" fill="#FFE36C"/>
<path d="M242.276 266.624C242.276 259.856 245.479 256.496 248.868 252.951C252.489 249.149 256.219 245.219 256.219 237.333C256.219 221.973 242.263 221.933 242.263 208.032C242.263 194.183 256.219 194.047 256.219 178.734C256.223 177.623 256.143 176.514 255.98 175.415H253.15C253.353 176.51 253.452 177.621 253.447 178.734C253.447 192.585 239.488 192.719 239.488 208.032C239.488 223.393 253.447 223.435 253.447 237.333C253.447 244.101 250.244 247.461 246.855 251.019C243.235 254.821 239.488 258.752 239.488 266.637C239.488 281.998 253.447 282.037 253.447 295.938C253.447 299.951 252.276 302.811 250.612 305.225H253.938C255.311 302.79 256.232 299.851 256.232 295.938C256.232 280.565 242.276 280.523 242.276 266.624Z" fill="#FFE36C"/>
<path d="M262.394 266.624C262.394 252.773 276.353 252.636 276.353 237.32C276.353 229.432 272.607 225.507 268.986 221.705C265.597 218.147 262.394 214.784 262.394 208.032C262.394 194.183 276.353 194.047 276.353 178.734C276.357 177.623 276.276 176.514 276.111 175.415H273.265C273.467 176.51 273.565 177.621 273.56 178.734C273.56 192.585 259.604 192.719 259.604 208.032C259.604 223.393 273.56 223.435 273.56 237.333C273.56 244.101 270.359 247.461 266.967 251.019C263.347 254.821 259.604 258.752 259.604 266.637C259.604 274.522 263.347 278.451 266.967 282.253C270.359 285.81 273.56 289.173 273.56 295.925C273.56 299.932 272.391 302.793 270.729 305.204C272.291 305.137 273.779 304.519 274.93 303.461C275.914 301.073 276.4 298.508 276.355 295.925C276.353 280.565 262.394 280.523 262.394 266.624Z" fill="#FFE36C"/>
<g style="mix-blend-mode:multiply" opacity="0.51">
<path d="M277.092 175.286H136.119V183.172H277.092V175.286Z" fill="#92BF20"/>
</g>
<g style="mix-blend-mode:multiply" opacity="0.51">
<path d="M277.09 183.171H321.754V175.286H277.09V183.171Z" fill="#92BF20"/>
</g>
<path d="M279.881 76.6484L279.388 82.0675C279.388 82.0675 282.197 82.8063 286.213 85.007C286.476 82.7064 287.235 81.773 287.87 79.5328C287.804 79.5196 279.881 76.6484 279.881 76.6484Z" fill="#F5BA92"/>
<path d="M334.626 87.3279L327.914 81.1621C327.914 81.1621 322.369 84.454 308.862 82.4768C296.331 80.6363 288.385 79.3637 287.303 79.1875C286.659 81.4308 286.201 83.7235 285.933 86.0421C293.525 90.1912 308.158 97.5612 319.712 95.8101C337.393 93.1255 334.626 87.3279 334.626 87.3279Z" fill="#92BF20"/>
<path d="M273.365 70.9926C282.766 69.1521 308.392 116.54 300.303 126.101C297.308 129.642 214.588 138.855 214.588 138.855L216.2 134.606C216.2 134.606 261.924 73.2486 273.365 70.9926Z" fill="#EB5757"/>
<path d="M328.182 201.676C328.182 201.676 328.875 200.827 331.65 200.288C334.425 199.749 337.425 198.203 337.425 198.203C337.425 198.203 339.967 196.042 338.888 189.789L343.589 190.331C343.589 190.331 345.627 202.499 344.902 203.214C344.177 203.93 329.647 203.143 328.182 201.676Z" fill="#F5BA92"/>
<path d="M344.905 203.228C344.177 203.959 329.647 203.144 328.182 201.677C328.182 201.677 328.875 200.828 331.65 200.289C334.089 199.813 336.706 198.561 337.304 198.267C337.439 198.802 337.506 199.351 337.507 199.902C337.507 201.669 342.521 198.711 344.773 198.503C345.049 200.891 345.191 202.942 344.905 203.228Z" fill="#333333"/>
<path d="M347.18 135.153C347.18 135.153 352.265 180.228 344.712 194.894L338.241 193.813C338.241 193.813 336.235 130.513 332.074 124.81C327.913 119.107 328.992 109.991 328.992 109.991L343.169 116.706L347.18 135.153Z" fill="#333333"/>
<path d="M348.039 144.787C347.614 139.002 347.18 135.153 347.18 135.153L343.182 116.705L341.641 115.974L331.421 119.616C331.728 120.405 332.589 122.685 334.773 128.648C336.821 134.246 341.967 140.043 348.039 144.787Z" fill="#333333"/>
<path d="M327.913 81.1632C327.821 81.2815 327.73 81.3972 327.651 81.5287C326.601 83.059 325.747 85.8171 325.026 87.6471C322.014 94.8672 321.849 115.415 324.33 117.884C325.687 119.244 327.617 119.094 327.454 117.926C324.33 95.6823 325.482 87.7759 328.89 81.9599C328.602 81.6512 328.273 81.3832 327.913 81.1632Z" fill="#FFE36C"/>
<path d="M381.399 106.054C381.399 106.054 380.706 106.903 377.931 107.442C375.156 107.981 372.155 109.527 372.155 109.527C372.155 109.527 369.611 111.689 370.69 117.941L365.991 117.415C365.991 117.415 363.951 105.247 364.678 104.532C365.405 103.816 379.934 104.587 381.399 106.054Z" fill="#F5BA92"/>
<path d="M364.675 104.502C365.403 103.771 379.933 104.586 381.398 106.054C381.398 106.054 380.705 106.903 377.93 107.442C375.489 107.918 372.871 109.169 372.275 109.464C372.14 108.929 372.072 108.38 372.073 107.828C372.073 106.061 367.059 109.019 364.807 109.227C364.528 106.84 364.389 104.789 364.675 104.502Z" fill="#333333"/>
<path d="M371.764 115.781L364.289 115.084C364.289 115.084 368.343 133.245 364.906 137.004C361.181 141.08 348.259 113.619 348.259 113.619L331.421 118.854C331.728 119.535 332.587 121.534 334.773 126.742C339.236 137.394 358.432 148.894 369.837 149.82C381.241 150.745 371.764 115.781 371.764 115.781Z" fill="#333333"/>
<path d="M335.177 71.6349L336.227 83.2854L326.826 85.7543C326.826 85.7543 328.522 78.1135 327.905 76.6464C327.288 75.1792 335.177 71.6349 335.177 71.6349Z" fill="#F5BA92"/>
<path d="M336.236 78.806C336.974 79.1123 337.628 79.5932 338.142 80.2075C338.189 80.2732 337.309 80.4835 337.354 80.5519C338.475 81.9723 339.815 83.2044 341.323 84.2014C345.099 86.7492 345.87 104.886 347.256 108.977C348.643 113.069 351.194 116.773 351.194 116.773C351.194 116.773 349.963 124.569 332.392 128.429C332.392 128.429 322.295 110.6 323.681 99.3305C325.068 88.0612 327.648 81.5195 327.648 81.5195L336.236 78.806Z" fill="#F0EBFC"/>
<path d="M347.307 124.293C350.426 124.293 352.164 123.767 353.132 123.183C352.56 122.132 352.014 121.098 351.51 120.131L350.108 119.316C350.108 119.316 340.557 124.293 347.307 124.293Z" fill="#333333"/>
<path d="M333.125 127.586C333.649 129.828 334.055 132.096 334.341 134.381C339.494 131.812 342.741 124.308 342.741 124.308C342.741 124.308 334.299 125.935 333.125 127.586Z" fill="#333333"/>
<path d="M350.108 116.706L354.348 119.175C354.348 119.175 352.048 123.555 345.298 123.555C338.549 123.555 350.108 116.706 350.108 116.706Z" fill="#CCE2FF"/>
<path d="M342.558 124.191C342.558 124.191 338.011 132.605 330.92 132.605C330.92 132.605 333.385 127.201 332.999 125.427C332.613 123.652 342.558 124.191 342.558 124.191Z" fill="#CCE2FF"/>
<g style="mix-blend-mode:multiply" opacity="0.72">
<path d="M332.266 129.221C335.337 128.461 338.341 127.449 341.247 126.194C341.725 125.554 342.164 124.885 342.559 124.191C342.559 124.191 339.824 124.044 337.277 124.157C335.371 125.697 333.715 127.099 332.654 128.006C332.536 128.408 332.405 128.818 332.266 129.221Z" fill="#9BC2F2"/>
</g>
<g style="mix-blend-mode:multiply" opacity="0.72">
<path d="M350.106 116.706C350.106 116.706 338.555 123.542 345.297 123.542C345.612 123.542 345.917 123.542 346.213 123.516C348.684 121.865 350.692 119.853 351.432 117.469L350.106 116.706Z" fill="#9BC2F2"/>
</g>
<path d="M323.674 99.3386C323.884 97.6453 324.251 95.2921 324.501 93.817C326.735 85.958 333.382 82.4531 337.365 80.5626C338.476 81.9785 339.805 83.2086 341.302 84.2069C345.078 86.7547 345.849 104.892 347.236 108.983C348.622 113.074 351.173 116.779 351.173 116.779C351.173 116.779 349.942 124.575 332.371 128.435C332.384 128.437 322.288 110.608 323.674 99.3386Z" fill="#92BF20"/>
<g style="mix-blend-mode:multiply" opacity="0.36">
<path d="M328.559 120.623C333.434 117.397 340.635 109.788 344.549 92.3738L325.647 112.956C326.489 115.559 327.461 118.118 328.559 120.623Z" fill="#FFE36C"/>
</g>
<path d="M342.465 84.7833C339.577 82.7587 335.534 85.0462 334.117 88.2671C331.363 94.5407 325.529 106.906 321.762 108.289C319.063 109.281 314.044 109.133 309.93 108.681C308.861 110.548 308.958 112.962 308.861 114.584C313.66 116.283 321.888 117.339 324.836 116.706C331.662 115.239 343.512 95.7607 344.922 91.417C345.626 89.2426 344.408 86.1505 342.465 84.7833Z" fill="#92BF20"/>
<path d="M333.445 82.1457C333.433 82.1263 333.417 82.1095 333.399 82.0963C333.38 82.0831 333.359 82.0738 333.337 82.0689C333.314 82.064 333.291 82.0636 333.269 82.0678C333.247 82.072 333.225 82.0806 333.206 82.0931L328.447 85.1852L327.843 82.2062C327.834 82.1609 327.807 82.121 327.769 82.0954C327.73 82.0697 327.683 82.0604 327.638 82.0695C327.593 82.0786 327.553 82.1052 327.527 82.1437C327.502 82.1822 327.492 82.2292 327.501 82.2746L328.208 85.7584L333.395 82.3876C333.414 82.3751 333.431 82.3589 333.444 82.3399C333.457 82.321 333.466 82.2996 333.471 82.2771C333.475 82.2546 333.475 82.2314 333.471 82.2089C333.467 82.1863 333.458 82.1648 333.445 82.1457Z" fill="#FFE36C"/>
<path d="M337.065 65.5326C337.065 65.5326 335.463 71.0542 333.914 73.1734C332.365 75.2926 325.718 79.7467 323.859 77.0648C322.001 74.3829 326.535 66.1505 329.089 62.6482C331.643 59.146 337.159 62.054 337.065 65.5326Z" fill="#F5BA92"/>
<path d="M325.1 56.9406C328.864 54.7267 332.088 56.7329 335.076 58.4078C336.74 59.3554 338.463 60.1958 340.234 60.924C340.234 60.924 341.408 63.3351 340.253 64.9206C339.098 66.5061 341.733 66.9162 340.717 69.1117C339.701 71.3072 335.37 73.7078 335.37 73.7078C335.095 73.5776 334.86 73.3759 334.69 73.1239C334.519 72.8718 334.42 72.5786 334.401 72.2748C333.666 73.713 331.476 76.5317 329.413 77.8989C326.945 79.5396 322.745 78.2828 321.926 76.5843C321.106 74.8857 323.95 72.5141 323.95 72.5141C323.95 72.5141 325.926 74.1705 327.888 73.8287C329.263 73.5894 331.899 71.4623 333.332 70.2502C333.551 70.0613 333.727 69.8267 333.845 69.5628C333.964 69.2988 334.024 69.0121 334.02 68.7226C334.02 67.0293 334.459 65.8146 333.928 65.4254C333.29 64.96 331.4 63.9319 327.706 64.5761C324.013 65.2203 321.335 59.1545 325.1 56.9406Z" fill="#333333"/>
<path d="M334.902 69.9749C334.957 69.8562 335.021 69.742 335.094 69.6331C335.472 69.0599 336.375 68.1212 337.593 69.7724C339.216 71.9705 334.377 74.0714 334.025 73.1222C333.936 72.8777 334.902 69.9749 334.902 69.9749Z" fill="#F5BA92"/>
<path d="M304.01 106.979C304.01 106.303 303.582 103.066 301.863 102.612C300.965 102.375 302.999 104.846 302.212 105.073C301.81 105.188 300.705 104.46 299.586 103.682C297.305 101.954 296.31 98.6491 295.557 99.062C294.803 99.4748 297.108 103.532 297.103 103.545C296.683 102.909 295.845 101.365 295.557 101.523C294.955 101.852 295.916 103.626 296.381 104.415C296.381 104.436 297.043 105.53 297.043 105.551C296.651 104.967 295.683 103.55 295.404 103.711C294.617 104.134 297.171 107.407 297.318 107.555C297.799 108.036 303.495 111.422 309.788 113.649C309.888 112.027 309.914 110.363 309.922 108.685C306.312 108.28 304.01 107.297 304.01 106.979Z" fill="#F5BA92"/>
<path d="M412.695 248.648C409.591 257.903 410.92 267.332 416.669 273.071V248.416C415.351 248.583 414.023 248.661 412.695 248.648Z" fill="#9CD16A"/>
<path d="M412.694 248.648C414.023 248.661 415.351 248.584 416.669 248.417V240.5C415.003 243.035 413.667 245.773 412.694 248.648Z" fill="#9CD16A"/>
<path d="M412.695 248.648C409.591 257.903 410.92 267.332 416.669 273.072V240.5C415.003 243.035 413.667 245.773 412.695 248.648Z" fill="#92BF20"/>
<path d="M87.6268 239.548C98.6412 234.185 101.927 218.213 94.9667 203.875C88.0059 189.537 73.4342 182.262 62.4199 187.626C51.4055 192.99 48.1193 208.961 55.0801 223.299C62.0408 237.637 76.6125 244.912 87.6268 239.548Z" fill="#219653"/>
<g style="mix-blend-mode:multiply" opacity="0.39">
<path d="M94.977 203.86C88.7997 191.137 76.6289 183.977 66.2695 186.275C74.3318 187.935 82.3126 194.34 86.9331 203.86C93.8954 218.198 90.6085 234.171 79.5981 239.535C78.3742 240.129 77.0852 240.578 75.7573 240.873C79.8396 241.712 83.9403 241.336 87.642 239.535C98.655 234.171 101.934 218.198 94.977 203.86Z" fill="#92BF20"/>
</g>
<path opacity="0.28" d="M94.9767 203.859C89.9703 193.545 81.0234 186.887 72.2969 185.959C77.5475 189.035 82.2546 194.084 85.4076 200.578C92.3698 214.916 89.083 230.889 78.0699 236.253C75.0034 237.726 71.5827 238.3 68.2041 237.906C74.5284 241.622 81.6167 242.468 87.6312 239.534C98.6548 234.17 101.934 218.197 94.9767 203.859Z" fill="#219653"/>
<path d="M75.64 175.575C81.7806 187.386 94.1115 193.121 103.184 188.39C112.257 183.66 114.631 170.248 108.49 158.44C102.35 146.632 90.0161 140.894 80.9457 145.625C71.8754 150.355 69.4969 163.767 75.64 175.575Z" fill="#92BF20"/>
<path d="M137.478 146.093H275.728C277.693 146.093 279.577 146.875 280.967 148.266C282.356 149.658 283.136 151.545 283.136 153.513V175.402H130.069V153.513C130.069 151.545 130.85 149.658 132.239 148.266C133.629 146.875 135.513 146.093 137.478 146.093Z" fill="#D5E4F6"/>
<g style="mix-blend-mode:screen">
<path d="M275.728 146.093H137.478C136.505 146.093 135.541 146.284 134.642 146.657C133.743 147.03 132.926 147.576 132.238 148.265C131.55 148.955 131.005 149.773 130.633 150.673C130.26 151.573 130.069 152.538 130.069 153.513V161.885C130.069 160.91 130.26 159.945 130.633 159.045C131.005 158.144 131.55 157.326 132.238 156.637C132.926 155.948 133.743 155.402 134.642 155.029C135.541 154.656 136.505 154.464 137.478 154.465H275.728C277.693 154.465 279.577 155.247 280.967 156.638C282.356 158.03 283.136 159.917 283.136 161.885V153.513C283.136 151.545 282.356 149.658 280.967 148.266C279.577 146.875 277.693 146.093 275.728 146.093Z" fill="#D5E4F6"/>
</g>
<path d="M243.477 146.093H219.516V175.402H243.477V146.093Z" fill="#92BF20"/>
<path d="M212.155 143.334C212.155 143.334 197.577 141.475 189.094 154.217C180.612 166.958 168.688 177.313 154.375 173.329C154.375 173.329 156.228 196.956 162.855 199.885C162.855 199.885 186.711 197.403 198.107 171.568C209.503 145.732 216.922 145.203 216.922 145.203L212.155 143.334Z" fill="#EB5757"/>
<path d="M215.347 138.734C215.347 138.734 224.648 134.856 234.976 145.2C245.304 155.543 264.642 171.214 275.778 169.621C275.778 169.621 276.041 191.92 266.765 195.37C266.765 195.37 243.177 194.055 232.043 173.604C220.91 153.153 220.125 138.629 215.347 138.734Z" fill="#EB5757"/>
<path d="M216.534 131.483C216.534 131.483 207.692 93.3284 194.497 75.4201C181.303 57.5118 174.262 60.5382 169.271 62.6942C164.28 64.8503 145.704 88.0277 151.503 100.107C157.302 112.186 214.468 135.939 214.468 135.939L216.534 131.483Z" fill="#EB5757"/>
<g style="mix-blend-mode:multiply" opacity="0.33">
<path d="M162.397 93.3193C160.535 90.7609 156.621 87.2534 152.843 84.4847C150.457 90.1325 149.43 95.8197 151.502 100.108C157.298 112.185 214.467 135.941 214.467 135.941C214.467 135.941 205.703 130.28 188.445 119.144C176.303 111.312 168.818 102.146 162.397 93.3193Z" fill="#92BF20"/>
</g>
<path d="M173.589 62.9502C172.991 63.3315 173.237 63.5813 172.539 64.0204C171.841 64.4595 171.072 63.2658 170.964 64.988C170.88 66.3026 167.835 63.5944 167.835 63.5944C167.527 61.9748 171.956 60.1553 173.61 60.5918C175.146 60.9993 175.277 61.42 175.093 62.2509C174.91 63.0817 174.19 62.569 173.589 62.9502Z" fill="#F2A46E"/>
<path d="M157.751 91.6933C156.359 92.5373 153.566 92.937 153.566 92.937C155.59 92.2665 156.769 91.4541 157.191 90.7021C157.226 90.6389 157.239 90.5663 157.229 90.495C157.219 90.4237 157.187 90.3575 157.137 90.306C157.086 90.2545 157.021 90.2205 156.95 90.209C156.879 90.1975 156.806 90.209 156.743 90.2419C155.627 90.8309 153.645 91.8195 152.938 91.8195C152.545 91.8087 152.154 91.7486 151.775 91.6407C151.484 91.5603 151.234 91.3703 151.079 91.1103C150.923 90.8502 150.874 90.5402 150.941 90.2446C150.998 89.9974 151.056 89.7503 151.122 89.5031C150.578 89.8686 149.998 90.7468 149.444 91.036C144.514 93.6259 134.262 92.7372 133.385 90.3655C132.201 87.163 130.442 82.6616 130.442 82.6616L124.404 85.7432C124.404 85.7432 126.323 96.363 131.104 97.512C135.885 98.661 149.744 95.6137 149.744 95.6137C149.744 95.6137 150.006 95.6137 150.423 95.5953C152.978 95.8109 155.215 95.5453 156.54 94.8065C157.37 94.3411 157.289 94.0913 157.113 93.9677C157.056 93.931 156.991 93.9071 156.924 93.8975C156.857 93.888 156.789 93.8931 156.724 93.9125C155.737 94.1912 153.726 94.2254 153.726 94.2254C157.987 93.7679 159.142 90.8519 157.751 91.6933Z" fill="#F2A46E"/>
<g style="mix-blend-mode:multiply" opacity="0.65">
<path d="M130.442 82.6636L124.404 85.7478C124.714 87.3223 125.134 88.8731 125.662 90.3885C127.786 90.4437 130.868 90.2702 132.892 89.0528C131.771 86.0633 130.442 82.6636 130.442 82.6636Z" fill="#F2A46E"/>
</g>
<path d="M124.803 72.6855C126.202 71.6048 128.578 70.9869 129.46 72.5224C131.14 75.4384 132.595 82.1352 133.288 84.123C134.726 88.2353 122.768 90.8751 121.957 88.2353C121.146 85.5954 121.099 75.5514 124.803 72.6855Z" fill="#FFE36C"/>
<g style="mix-blend-mode:screen" opacity="0.35">
<path d="M133.288 84.1242C132.595 82.1364 131.14 75.4474 129.46 72.5236C129.321 72.2811 129.128 72.0745 128.896 71.9202C128.663 71.7659 128.398 71.6682 128.121 71.6349C129.452 76.6753 130.51 83.4142 131.098 85.8332C131.264 86.4303 131.257 87.0623 131.077 87.6553C132.718 86.7482 133.779 85.5177 133.288 84.1242Z" fill="#FFE36C"/>
</g>
<path d="M229.216 175.402H205.255V181.878H229.216V175.402Z" fill="#92BF20"/>
<path d="M317.8 146.093H297.804V175.286H317.8V146.093Z" fill="#92BF20"/>
<path d="M214.895 195.685C214.818 195.685 214.742 195.672 214.669 195.646C211.737 194.639 209.526 192.572 208.106 189.503C201.469 175.284 213.356 143.837 213.863 142.507C213.896 142.421 213.945 142.342 214.009 142.274C214.072 142.207 214.148 142.153 214.232 142.115C214.316 142.078 214.407 142.057 214.499 142.054C214.591 142.051 214.683 142.067 214.769 142.099C214.855 142.132 214.934 142.182 215.001 142.245C215.068 142.308 215.122 142.384 215.16 142.469C215.198 142.553 215.219 142.644 215.221 142.736C215.224 142.828 215.209 142.92 215.176 143.007C215.052 143.327 202.992 175.229 209.379 188.912C210.645 191.625 212.585 193.445 215.155 194.323C215.312 194.376 215.445 194.484 215.53 194.626C215.615 194.768 215.647 194.936 215.62 195.1C215.593 195.264 215.509 195.413 215.382 195.52C215.255 195.627 215.095 195.686 214.929 195.685H214.895Z" fill="#92BF20"/>
<path d="M215.455 146.719H218.201C220.921 146.719 223.126 144.511 223.126 141.786V133.699C223.126 130.974 220.921 128.766 218.201 128.766H215.455C212.735 128.766 210.53 130.974 210.53 133.699V141.786C210.53 144.511 212.735 146.719 215.455 146.719Z" fill="#EB5757"/>
<path d="M220.875 129.56C221.391 130.358 221.665 131.29 221.662 132.242V140.33C221.662 141.638 221.143 142.892 220.22 143.817C219.296 144.742 218.044 145.262 216.737 145.262H213.991C213.041 145.265 212.111 144.991 211.313 144.473C211.76 145.164 212.373 145.732 213.095 146.126C213.817 146.519 214.626 146.724 215.448 146.724H218.192C218.84 146.725 219.481 146.597 220.08 146.349C220.679 146.101 221.222 145.737 221.68 145.278C222.138 144.819 222.501 144.275 222.749 143.675C222.996 143.075 223.123 142.432 223.122 141.784V133.698C223.122 132.875 222.917 132.066 222.524 131.343C222.132 130.62 221.565 130.007 220.875 129.56Z" fill="#F0B9B9"/>
<path d="M289.978 204.847C289.978 204.847 290.708 206.278 290.708 207.49C290.708 208.702 288.87 206.63 288.87 206.63L289.978 204.847Z" fill="#92BF20"/>
<path d="M303.133 180.475C303.133 180.475 307.938 180.12 309.857 183.514C311.776 186.909 314.813 187.261 316.583 189.036C318.352 190.811 315.774 193.847 317.796 195.872C319.817 197.897 320.599 197.237 322.7 201.394C325.931 207.783 319.835 216.604 311.072 207.825C306.273 203.021 294.152 201.186 295.701 188.92C296.365 183.661 295.701 181.132 303.133 180.475Z" fill="#333333"/>
<path d="M304.249 202.812C304.609 202.181 313.03 207.24 313.03 207.24C315.485 204.697 314.466 192.531 308.791 190.367C304.59 188.769 308.728 183.655 307.622 182.887C304.784 180.918 302.175 201.589 304.249 202.812Z" fill="#333333"/>
<path d="M315.672 280.134C315.672 280.134 316.801 315.283 318.169 317.862H306.82C306.82 317.862 312.937 315.122 312.493 313.106C312.493 313.106 305.854 283.115 306.82 279.166C307.786 275.217 315.672 280.134 315.672 280.134Z" fill="#FFADAF"/>
<path d="M298.93 280.939L299.006 281.312C299.71 284.812 305.128 311.833 305.128 314.397V317.137L293.858 317.297C293.858 317.297 300.946 314.476 300.946 313.188C300.946 311.899 289.597 284.649 290.24 280.455C290.883 276.261 298.93 280.939 298.93 280.939Z" fill="#FFADAF"/>
<g style="mix-blend-mode:multiply" opacity="0.65">
<path d="M298.93 280.938C298.93 280.938 290.881 276.263 290.238 280.454C290.096 281.372 290.529 283.396 291.288 286.012C293.853 286.299 296.83 286.131 299.904 285.849C299.468 283.651 299.137 282.01 298.998 281.311L298.93 280.938Z" fill="#F2A46E"/>
</g>
<g style="mix-blend-mode:multiply" opacity="0.65">
<path d="M315.671 280.133C315.671 280.133 307.796 275.214 306.819 279.165C306.601 280.054 306.769 282.263 307.16 285.15C308.709 285.024 310.219 284.937 311.647 284.937C313.051 284.946 314.454 284.864 315.847 284.69C315.729 281.908 315.671 280.133 315.671 280.133Z" fill="#F2A46E"/>
</g>
<path d="M294.582 224.669C294.582 224.669 290.755 229.017 289.715 228.902C283.861 228.252 277.841 216.686 276.552 216.686C275.263 216.686 271.924 215.679 270.837 214.582C269.75 213.486 271.123 211.709 271.48 211.351C271.837 210.993 274.943 212.229 274.943 211.351C274.943 210.473 274.418 208.819 275.184 209.584C275.951 210.349 287.239 221.6 288.867 220.977C290.272 220.451 292.409 216.933 292.409 216.933L294.582 224.669Z" fill="#FFADAF"/>
<path d="M304.524 202.092C304.524 202.092 311.875 203.06 312.734 208.261C313.592 213.461 311.035 228.677 314.787 235.106C323.579 250.164 322.116 279.216 321.754 279.581C321.392 279.946 319.738 282.147 311.647 282.147C303.556 282.147 292.858 284.808 287.184 282.147C281.511 279.486 292.65 244.498 294.582 235.309C296.515 226.119 291.002 219.99 291.002 217.329C291.002 214.668 294.141 201.246 304.524 202.092Z" fill="#DBEAFF"/>
<path d="M305.772 193.582L305.341 202.259C305.341 202.259 306.699 202.55 306.94 203.479C307.182 204.407 301.225 213.233 299.012 211.014C296.799 208.795 300.306 202.6 300.306 202.6L300.66 196.45L304.441 192.864L305.772 193.582Z" fill="#F5BA92"/>
<g style="mix-blend-mode:multiply" opacity="0.65">
<path d="M300.494 199.335C302.069 200.326 303.941 200.413 305.482 199.264L305.766 193.59L304.435 192.864L300.654 196.45L300.494 199.335Z" fill="#F2A46E"/>
</g>
<path d="M298.231 315.038C298.231 315.038 292.82 316.632 292.82 317.297C292.82 317.962 304.246 317.862 305.506 317.136C306.138 316.771 305.451 314.276 305.243 314.081C304.435 313.327 302.544 315.519 301.061 315.519C299.578 315.519 298.956 314.815 298.231 315.038Z" fill="#333333"/>
<path d="M310.734 315.431C310.734 315.431 305.861 317.332 305.861 317.997C305.861 318.662 316.93 318.578 318.355 318.023C318.893 317.813 318.161 315.717 318.161 315.717C317.945 315.147 317.783 315.094 317.441 315.246C316.57 315.633 315.097 316.217 314.107 316.217C312.624 316.217 311.461 315.21 310.734 315.431Z" fill="#333333"/>
<path d="M300.572 182.408C300.572 182.408 297.742 182.95 297.337 186.323C296.933 189.697 297.944 195.728 300.167 197.177C302.614 198.755 305.967 198.342 307.584 194.698C309.201 191.053 309.807 184.84 307.111 182.882C304.415 180.923 300.572 182.408 300.572 182.408Z" fill="#F5BA92"/>
<path d="M303.438 180.939C303.438 180.939 304.196 181.849 302.831 184.989C301.466 188.128 296.467 191.977 296.467 191.977C295.724 189.085 295.986 186.024 297.21 183.301C297.448 182.791 297.812 182.35 298.266 182.02C298.721 181.69 299.252 181.481 299.809 181.413L303.438 180.939Z" fill="#333333"/>
<path d="M307.11 182.88C305.913 182.01 304.485 181.828 303.28 181.876C303.119 182.588 303.093 183.325 303.201 184.047C303.514 186.966 307.139 189.398 308.79 190.358C309.231 187.324 308.893 184.174 307.11 182.88Z" fill="#333333"/>
<path d="M297.674 191.271C297.674 191.271 297.456 190.272 296.765 190.367C296.075 190.461 295.978 192.996 296.637 193.259C297.296 193.522 298.13 192.864 297.674 191.271Z" fill="#F5BA92"/>
<path d="M308.623 190.453C308.784 190.369 308.961 190.321 309.143 190.313C309.324 190.304 309.505 190.336 309.673 190.406C310.34 190.613 309.81 193.124 309.119 193.266C308.429 193.408 307.914 191.949 308.623 190.453Z" fill="#F5BA92"/>
<path d="M286.507 199.926L237.286 185.168C236.196 184.839 235.026 184.904 233.98 185.352L217.089 192.567C216.562 192.791 216.091 193.13 215.709 193.558C215.327 193.986 215.043 194.493 214.879 195.042C214.714 195.592 214.673 196.172 214.757 196.739C214.842 197.307 215.05 197.849 215.367 198.327L225.516 213.656C226.146 214.604 227.087 215.301 228.176 215.628L277.397 230.392C278.009 230.576 278.651 230.638 279.287 230.573C279.923 230.508 280.539 230.319 281.102 230.015C281.664 229.712 282.162 229.3 282.565 228.804C282.969 228.308 283.271 227.737 283.454 227.124L289.773 205.995C289.957 205.381 290.018 204.738 289.953 204.101C289.888 203.464 289.699 202.846 289.396 202.282C289.092 201.719 288.681 201.221 288.185 200.816C287.69 200.412 287.119 200.109 286.507 199.926ZM218.961 198.051C218.598 198.051 218.242 197.943 217.94 197.741C217.638 197.539 217.402 197.251 217.263 196.915C217.124 196.579 217.088 196.209 217.159 195.852C217.23 195.495 217.405 195.167 217.662 194.909C217.919 194.652 218.246 194.477 218.603 194.406C218.959 194.335 219.329 194.371 219.664 194.51C220 194.65 220.287 194.886 220.489 195.188C220.691 195.491 220.799 195.847 220.799 196.211C220.799 196.699 220.605 197.167 220.261 197.512C219.916 197.857 219.448 198.051 218.961 198.051Z" fill="#FFE36C"/>
<g style="mix-blend-mode:multiply">
<path d="M312.891 213.495L312.684 209.219C312.684 209.219 306.286 222.382 304.425 224.246C302.563 226.11 292.792 215.509 292.792 215.509C292.792 215.509 297.575 236.101 303.503 236.806C308.045 237.332 312.616 223.189 312.692 219.589C312.744 217.431 312.844 215.346 312.891 213.495Z" fill="#E8E1D0"/>
</g>
<path d="M310.119 204.268C310.119 204.268 314.538 204.594 314.491 209.835C314.464 212.84 306.139 233.498 302.619 232.954C299.098 232.41 293.895 222.755 288.865 211.509C288.324 210.3 286.901 209.311 286.578 208.544C286.256 207.776 286.938 203.161 288.458 204.252C289.115 204.721 300.634 224.559 302.11 223.844C303.819 223.031 307.494 203.621 310.119 204.268Z" fill="#FFADAF"/>
<path d="M217.481 196.07C217.296 196.07 217.118 195.996 216.987 195.865C216.856 195.734 216.783 195.556 216.783 195.37C216.783 194.997 216.103 194.029 215.494 193.393C215.424 193.328 215.368 193.25 215.33 193.163C215.292 193.076 215.271 192.982 215.271 192.887C215.27 192.791 215.288 192.697 215.325 192.609C215.362 192.522 215.416 192.442 215.485 192.376C215.554 192.311 215.635 192.259 215.724 192.226C215.813 192.192 215.908 192.178 216.003 192.182C216.098 192.187 216.191 192.211 216.276 192.253C216.361 192.294 216.437 192.353 216.499 192.426C216.893 192.836 218.177 194.266 218.177 195.37C218.177 195.555 218.103 195.733 217.973 195.864C217.843 195.995 217.666 196.069 217.481 196.07Z" fill="#92BF20"/>
<path d="M214.107 197.862H214C213.815 197.85 213.642 197.766 213.52 197.627C213.397 197.488 213.335 197.306 213.346 197.12C213.358 196.935 213.442 196.762 213.581 196.64C213.72 196.517 213.902 196.454 214.086 196.466C214.11 196.466 214.958 196.482 217.053 195.906C217.229 195.863 217.416 195.891 217.572 195.984C217.728 196.076 217.842 196.226 217.89 196.402C217.938 196.577 217.916 196.764 217.828 196.923C217.74 197.083 217.594 197.201 217.421 197.255C215.404 197.804 214.422 197.862 214.107 197.862Z" fill="#92BF20"/>
<path d="M277.238 228.005C277.003 228.004 276.769 227.967 276.545 227.895C276.272 227.796 276.015 227.657 275.784 227.482C275.274 227.066 274.622 226.866 273.967 226.924C273.242 226.969 272.785 226.662 272.344 226.399C271.905 226.056 271.366 225.865 270.809 225.857C270.733 225.853 270.656 225.853 270.58 225.857C270.305 225.877 270.028 225.845 269.764 225.762C269.491 225.663 269.234 225.523 269.002 225.347C268.556 224.985 268.001 224.785 267.427 224.779H267.191C266.914 224.8 266.636 224.768 266.372 224.684C266.099 224.585 265.842 224.446 265.611 224.271C265.159 223.904 264.594 223.704 264.012 223.706H263.776C263.223 223.741 262.678 223.566 262.25 223.214C261.76 222.805 261.131 222.6 260.494 222.641C259.969 222.626 259.423 222.612 258.837 222.115C258.317 221.723 257.676 221.526 257.026 221.558H256.874C256.555 221.557 256.239 221.489 255.949 221.357C255.658 221.225 255.399 221.033 255.188 220.793C255.07 220.665 254.925 220.564 254.763 220.498C254.602 220.432 254.428 220.401 254.254 220.409C254.132 220.41 254.011 220.422 253.891 220.446C253.575 220.509 253.249 220.502 252.937 220.424C252.624 220.347 252.332 220.2 252.083 219.996C251.843 219.787 251.563 219.629 251.261 219.529C250.959 219.43 250.64 219.392 250.324 219.418C249.799 219.418 249.273 219.418 248.693 218.929C248.196 218.509 247.554 218.302 246.905 218.35C246.609 218.362 246.312 218.329 246.026 218.25C245.753 218.153 245.497 218.013 245.267 217.838C244.821 217.476 244.266 217.276 243.692 217.27H243.456C242.729 217.325 242.277 217.028 241.841 216.744C241.402 216.395 240.86 216.203 240.3 216.197C240.224 216.197 240.145 216.197 240.067 216.197C239.337 216.252 238.885 215.952 238.449 215.671C238.012 215.323 237.47 215.13 236.911 215.124C236.835 215.124 236.756 215.124 236.675 215.124C236.093 215.161 235.518 214.973 235.071 214.598C234.567 214.192 233.925 213.998 233.28 214.057C232.735 214.094 232.196 213.928 231.765 213.591C231.254 213.159 230.595 212.944 229.928 212.992C229.638 213.001 229.349 212.967 229.069 212.892C228.777 212.803 228.507 212.653 228.278 212.45C228.048 212.248 227.865 211.999 227.741 211.719C227.614 211.434 227.548 211.125 227.548 210.812C227.548 210.499 227.614 210.19 227.741 209.905C227.928 209.441 227.977 208.934 227.883 208.443C227.82 207.857 227.757 207.252 228.227 206.574C228.896 205.601 228.901 205.064 228.909 204.544C228.868 203.989 229.047 203.441 229.408 203.019C229.613 202.785 229.769 202.513 229.867 202.218C229.965 201.923 230.004 201.612 229.98 201.302C229.894 200.481 230.203 200.021 230.505 199.574C230.904 199.077 231.093 198.442 231.03 197.807C230.991 197.244 231.165 196.687 231.519 196.248C231.924 195.755 232.128 195.127 232.091 194.489C232.061 193.949 232.205 193.414 232.501 192.962C232.938 192.411 233.171 191.725 233.157 191.021C233.123 190.492 233.277 189.968 233.592 189.542C233.908 189.117 234.364 188.817 234.879 188.697C235.358 188.573 235.798 188.332 236.16 187.995C236.549 187.672 237.039 187.497 237.544 187.5C238.055 187.499 238.551 187.671 238.954 187.987C239.47 188.376 240.103 188.581 240.749 188.568H240.938C241.449 188.553 241.947 188.731 242.335 189.065C242.825 189.471 243.451 189.676 244.086 189.638C244.611 189.654 245.152 189.672 245.719 190.124C246.255 190.555 246.935 190.764 247.62 190.708C248.164 190.668 248.703 190.845 249.119 191.2C249.615 191.619 250.256 191.826 250.904 191.776C251.199 191.766 251.495 191.8 251.781 191.876C252.046 191.958 252.293 192.091 252.508 192.267C253.006 192.686 253.647 192.893 254.296 192.846C254.591 192.834 254.887 192.867 255.172 192.943C255.445 193.043 255.702 193.183 255.934 193.359C256.444 193.773 257.096 193.973 257.751 193.916C258.472 193.869 258.932 194.179 259.373 194.442C259.812 194.785 260.352 194.976 260.909 194.983H261.137C261.413 194.962 261.69 194.995 261.954 195.078C262.218 195.16 262.464 195.293 262.678 195.47C263.202 195.889 263.863 196.096 264.532 196.048C265.085 196.016 265.63 196.188 266.065 196.532C266.587 196.955 267.249 197.164 267.918 197.118C268.194 197.098 268.471 197.131 268.735 197.216C269.086 197.324 269.403 197.522 269.656 197.789C269.808 197.97 270.005 198.107 270.228 198.188C270.45 198.268 270.689 198.288 270.922 198.246C271.256 198.163 271.606 198.159 271.943 198.234C272.279 198.309 272.594 198.462 272.862 198.68C273.379 199.098 274.036 199.304 274.699 199.256C275.287 199.223 275.865 199.411 276.322 199.782C276.757 200.133 277.299 200.325 277.858 200.324H278.089C278.677 200.288 279.257 200.476 279.714 200.849C280.211 201.25 280.845 201.439 281.48 201.375H281.63C282.059 201.372 282.479 201.495 282.838 201.729C283.197 201.962 283.48 202.297 283.652 202.69C283.722 202.842 283.822 202.978 283.948 203.09C284.073 203.201 284.22 203.285 284.379 203.337C284.694 203.451 284.976 203.641 285.202 203.89C285.427 204.139 285.588 204.439 285.67 204.765C285.77 205.117 285.786 205.488 285.715 205.848C285.644 206.208 285.49 206.546 285.263 206.834C284.762 207.439 284.738 207.97 284.71 208.535C284.681 209.1 284.654 209.671 284.153 210.236C283.949 210.446 283.794 210.699 283.7 210.976C283.606 211.254 283.575 211.549 283.61 211.84C283.658 212.144 283.641 212.454 283.561 212.751C283.481 213.048 283.339 213.324 283.145 213.562C282.726 214.08 282.518 214.738 282.565 215.403C282.607 215.961 282.433 216.515 282.079 216.949C281.653 217.463 281.445 218.123 281.499 218.789C281.52 219.066 281.488 219.345 281.404 219.61C281.304 219.882 281.164 220.138 280.99 220.37C280.575 220.882 280.375 221.535 280.433 222.192C280.462 222.679 280.333 223.162 280.065 223.569C279.572 224.319 279.346 224.984 279.375 225.61C279.387 225.917 279.337 226.223 279.228 226.51C279.119 226.797 278.954 227.06 278.742 227.282C278.555 227.5 278.324 227.676 278.066 227.801C277.807 227.925 277.525 227.995 277.238 228.005ZM274.182 226.322C274.885 226.319 275.568 226.555 276.12 226.99C276.303 227.132 276.507 227.245 276.723 227.327C276.998 227.423 277.295 227.437 277.578 227.368C277.86 227.299 278.117 227.149 278.317 226.938C278.473 226.774 278.595 226.58 278.676 226.368C278.756 226.157 278.794 225.931 278.787 225.704C278.75 224.95 279.01 224.166 279.574 223.309C279.77 223.009 279.862 222.654 279.837 222.297C279.77 221.508 280.006 220.723 280.496 220.101C280.637 219.918 280.751 219.715 280.835 219.499C280.895 219.306 280.918 219.104 280.903 218.902C280.839 218.081 281.095 217.267 281.617 216.631C281.743 216.475 281.84 216.296 281.9 216.105C281.961 215.912 281.984 215.709 281.969 215.508C281.911 214.687 282.166 213.875 282.683 213.236C282.823 213.063 282.926 212.862 282.984 212.646C283.043 212.431 283.055 212.205 283.021 211.985C282.97 211.605 283.005 211.219 283.124 210.854C283.242 210.49 283.442 210.157 283.707 209.881C284.069 209.471 284.09 209.063 284.114 208.545C284.142 207.938 284.177 207.249 284.804 206.492C284.97 206.278 285.082 206.028 285.133 205.762C285.184 205.496 285.171 205.222 285.095 204.962C285.038 204.729 284.924 204.513 284.764 204.334C284.603 204.155 284.402 204.019 284.177 203.936C283.94 203.858 283.722 203.731 283.537 203.563C283.352 203.396 283.204 203.191 283.103 202.963C282.966 202.666 282.742 202.416 282.461 202.248C282.18 202.08 281.854 202.002 281.528 202.022H281.265C280.588 202.025 279.929 201.799 279.396 201.381C279.002 201.118 278.695 200.907 278.146 200.944C278.052 200.944 277.963 200.944 277.884 200.944C277.207 200.947 276.55 200.721 276.017 200.303C275.623 200.04 275.314 199.829 274.765 199.866C273.955 199.924 273.152 199.672 272.52 199.161C272.223 198.921 271.852 198.791 271.47 198.793C271.341 198.794 271.212 198.811 271.087 198.843C270.753 198.91 270.407 198.887 270.084 198.778C269.762 198.668 269.474 198.474 269.249 198.218C269.064 198.024 268.833 197.88 268.577 197.799C268.386 197.739 268.184 197.716 267.984 197.731C267.908 197.731 267.832 197.731 267.753 197.731C267.012 197.727 266.294 197.472 265.716 197.008C265.398 196.754 264.998 196.628 264.592 196.653C263.773 196.709 262.964 196.455 262.324 195.941C262.169 195.812 261.991 195.716 261.799 195.657C261.607 195.596 261.406 195.572 261.205 195.586C261.111 195.586 261.019 195.586 260.943 195.586C260.271 195.58 259.619 195.356 259.084 194.949C258.688 194.686 258.346 194.473 257.821 194.508C257.035 194.573 256.252 194.337 255.632 193.848C255.453 193.692 255.244 193.576 255.018 193.505C254.793 193.435 254.554 193.411 254.319 193.437C253.535 193.486 252.763 193.231 252.161 192.725C252.007 192.597 251.828 192.5 251.636 192.441C251.405 192.383 251.168 192.359 250.93 192.367C250.148 192.417 249.378 192.164 248.777 191.66C248.484 191.403 248.101 191.273 247.711 191.297C247.616 191.308 247.519 191.313 247.423 191.313C246.68 191.308 245.962 191.053 245.383 190.587C244.971 190.259 244.595 190.245 244.102 190.23C243.338 190.263 242.59 190.011 242.001 189.522C241.729 189.283 241.377 189.153 241.014 189.16C240.941 189.16 240.865 189.16 240.791 189.16C240.01 189.173 239.247 188.923 238.625 188.45C238.326 188.214 237.956 188.088 237.575 188.092C237.21 188.089 236.855 188.215 236.572 188.447C236.134 188.847 235.604 189.133 235.029 189.278C234.653 189.368 234.322 189.588 234.094 189.9C233.866 190.211 233.755 190.594 233.782 190.979C233.805 191.819 233.534 192.641 233.018 193.303C232.79 193.662 232.685 194.084 232.718 194.508C232.748 195.272 232.497 196.02 232.012 196.611C231.752 196.934 231.624 197.343 231.653 197.757C231.726 198.526 231.499 199.293 231.02 199.898C230.757 200.303 230.529 200.626 230.595 201.228C230.627 201.616 230.581 202.007 230.461 202.378C230.341 202.749 230.148 203.092 229.894 203.387C229.757 203.544 229.655 203.728 229.591 203.926C229.528 204.124 229.506 204.334 229.526 204.541C229.526 205.093 229.51 205.779 228.739 206.907C228.395 207.407 228.439 207.836 228.497 208.377C228.604 208.973 228.537 209.588 228.305 210.147C228.215 210.354 228.168 210.578 228.168 210.804C228.168 211.03 228.215 211.254 228.305 211.461C228.396 211.664 228.529 211.844 228.695 211.99C228.861 212.136 229.057 212.245 229.269 212.308C229.493 212.366 229.725 212.39 229.957 212.379C230.756 212.335 231.541 212.598 232.154 213.113C232.468 213.357 232.862 213.476 233.259 213.447C234.035 213.377 234.808 213.607 235.42 214.091C235.806 214.354 236.108 214.553 236.646 214.514C236.74 214.514 236.835 214.514 236.927 214.514C237.602 214.518 238.257 214.745 238.791 215.158C239.198 215.421 239.513 215.632 240.038 215.592C240.132 215.592 240.227 215.592 240.316 215.592C240.992 215.596 241.648 215.823 242.183 216.236C242.59 216.499 242.905 216.712 243.427 216.673C243.521 216.673 243.616 216.673 243.708 216.673C244.402 216.676 245.075 216.912 245.619 217.343C245.798 217.498 246.007 217.615 246.233 217.686C246.458 217.756 246.697 217.779 246.932 217.753C247.716 217.705 248.488 217.96 249.09 218.466C249.512 218.813 249.877 218.816 250.35 218.821C251.126 218.771 251.891 219.027 252.482 219.533C252.636 219.662 252.815 219.758 253.007 219.817C253.261 219.898 253.532 219.913 253.794 219.859C253.952 219.828 254.113 219.812 254.275 219.812C254.535 219.803 254.793 219.851 255.033 219.953C255.272 220.055 255.487 220.208 255.661 220.401C255.815 220.577 256.005 220.718 256.217 220.814C256.43 220.911 256.661 220.961 256.895 220.961H257.047C257.836 220.926 258.611 221.172 259.236 221.655C259.664 222.008 260.048 222.018 260.531 222.029C261.294 221.993 262.043 222.245 262.631 222.733C262.943 222.991 263.34 223.121 263.744 223.099C263.839 223.099 263.93 223.099 264.022 223.099C264.724 223.096 265.406 223.332 265.957 223.767C266.141 223.908 266.345 224.022 266.561 224.106C266.753 224.165 266.954 224.188 267.154 224.174C267.251 224.174 267.346 224.161 267.438 224.161C268.131 224.166 268.803 224.403 269.346 224.834C269.531 224.974 269.734 225.088 269.95 225.173C270.143 225.234 270.345 225.257 270.546 225.242C270.638 225.242 270.73 225.242 270.809 225.242C271.48 225.25 272.131 225.473 272.667 225.878C273.064 226.141 273.402 226.354 273.928 226.322H274.182Z" fill="#FAFAFA"/>
<path d="M287.857 201.888C287.857 201.888 288.578 204.336 289.198 205.248C289.818 206.16 288.526 207.01 288.526 207.01L287.324 204.543C287.324 204.543 286.867 201.814 287.016 201.477C287.166 201.141 287.57 200.991 287.857 201.888Z" fill="#FFADAF"/>
<path d="M286.045 202.342C285.946 202.462 285.878 202.604 285.846 202.756C285.814 202.908 285.819 203.066 285.861 203.215C287.035 208.027 288.707 207.577 288.762 207.656L289.064 206.728L287.324 204.543C287.324 204.543 286.502 202.542 286.302 202.342C286.267 202.31 286.221 202.293 286.174 202.293C286.126 202.293 286.08 202.31 286.045 202.342Z" fill="#FFADAF"/>
<path d="M288.277 207.873L286.78 205.856C286.78 205.856 286.518 204.773 286.255 204.849C285.993 204.925 285.974 205.833 286.116 206.103C286.258 206.374 286.098 206.642 286.027 206.934C285.956 207.226 286.31 208.422 286.73 208.775C287.15 209.127 288.277 207.873 288.277 207.873Z" fill="#FFADAF"/>
<path d="M158.041 117.797C149.976 121.25 151.36 141.343 151.36 146.094C151.36 150.141 199.271 144.02 214.503 142.768C217.149 142.55 213.322 138.035 213.322 138.035C213.322 138.035 167.812 113.619 158.041 117.797Z" fill="#EB5757"/>
<path d="M403.42 157.745L405.937 153.353L403.862 148.727C403.813 148.609 403.797 148.479 403.814 148.352C403.832 148.225 403.883 148.105 403.962 148.006C404.041 147.906 404.144 147.831 404.262 147.789C404.379 147.746 404.505 147.737 404.627 147.763L409.446 148.878L413.067 145.411C413.159 145.322 413.274 145.261 413.399 145.236C413.523 145.21 413.652 145.221 413.771 145.268C413.889 145.314 413.993 145.394 414.07 145.499C414.146 145.603 414.193 145.727 414.205 145.858L414.662 150.921L418.977 153.404C419.088 153.468 419.18 153.562 419.241 153.677C419.303 153.792 419.332 153.922 419.325 154.053C419.319 154.183 419.277 154.31 419.204 154.417C419.132 154.525 419.032 154.609 418.915 154.661L414.383 156.685L413.418 161.69C413.393 161.817 413.333 161.935 413.247 162.029C413.16 162.124 413.05 162.192 412.928 162.225C412.806 162.258 412.678 162.256 412.557 162.218C412.437 162.181 412.329 162.109 412.245 162.011L408.979 158.182L404.086 158.795C403.96 158.811 403.833 158.79 403.718 158.735C403.604 158.68 403.506 158.593 403.437 158.484C403.368 158.374 403.329 158.247 403.326 158.117C403.323 157.986 403.356 157.857 403.42 157.745Z" fill="#6FCF97"/>
<path d="M378.666 186.285L373.474 189.711L376.377 194.694L371.416 198.291L373.595 203.391L370.326 206.684L372.012 208.319L376.384 203.917L374.317 199.083L379.48 195.34L376.624 190.44L381.326 187.338L378.666 186.285Z" fill="#27AE60"/>
<path d="M47.3931 282.147L41.4154 280.43L39.5173 286.119L33.5587 284.701L31.1 289.905L26.4727 289.599L26.3262 292.043L32.5141 292.448L34.8421 287.517L41.0428 288.995L42.909 283.396L48.3262 284.953L47.3931 282.147Z" fill="#F2994A"/>
<path d="M172.326 32.5623L169.191 27.5414L164.305 30.1354L160.996 25.324L156.021 27.2316L152.95 24.0361L151.326 25.5822L155.428 29.8559L160.144 28.0517L163.587 33.0544L168.392 30.5029L171.233 35.0531L172.326 32.5623Z" fill="#92BF20"/>
<path d="M356.238 273.419L358.544 277.555L363.518 277.286L365.762 282.101L370.969 280.245L373.758 285.58L378.772 284.441L382.326 289.151L380.468 290.445L377.81 286.922L372.519 288.123L369.839 282.998L364.548 284.881L362.07 279.573L357.212 279.833L355.074 275.998L351.921 276.811L351.326 274.683L356.238 273.419Z" fill="#F7CC7F"/>
<path d="M396.215 82.1254L394.804 85.5452L388.898 83.9455L386.203 88.6947L381.582 88.204L381.326 90.4776L387.506 91.1392L390.061 86.6354L396.202 88.3003L398.326 83.1566L396.215 82.1254Z" fill="#6FCF97"/>
<path d="M223.74 10.7678L226.237 14.7483C226.302 14.8401 226.39 14.9138 226.495 14.9618C226.599 15.0097 226.714 15.0301 226.829 15.0209C226.944 15.0117 227.054 14.9732 227.149 14.9094C227.243 14.8457 227.318 14.7589 227.366 14.658L229.14 10.3352L233.856 9.28639C233.967 9.25599 234.067 9.1977 234.147 9.11754C234.227 9.03738 234.282 8.93826 234.309 8.83041C234.335 8.72256 234.331 8.60989 234.297 8.50403C234.263 8.39818 234.2 8.30296 234.115 8.22824L230.379 5.27478L230.797 0.646967C230.802 0.535664 230.775 0.425222 230.72 0.327163C230.665 0.229104 230.583 0.147018 230.484 0.0894749C230.385 0.031932 230.271 0.00104938 230.155 2.62704e-05C230.039 -0.000996837 229.925 0.0278811 229.824 0.0836624L225.741 2.57341L221.285 0.762116C221.176 0.723776 221.059 0.71398 220.945 0.733718C220.831 0.753457 220.725 0.80201 220.638 0.874378C220.55 0.946746 220.484 1.04029 220.447 1.14531C220.409 1.25033 220.402 1.36302 220.425 1.4717L221.638 5.96879L218.466 9.47623C218.394 9.56342 218.348 9.66752 218.332 9.7777C218.316 9.88789 218.332 10.0001 218.376 10.1028C218.421 10.2054 218.494 10.2946 218.586 10.3612C218.679 10.4278 218.789 10.4694 218.904 10.4815L223.74 10.7678Z" fill="#219653"/>
<path d="M211.326 31.5492C211.326 32.9307 209.761 34.0515 207.826 34.0515C205.892 34.0515 204.326 32.9307 204.326 31.5492C204.326 30.1676 205.895 29.0438 207.826 29.0438C209.757 29.0438 211.326 30.1706 211.326 31.5492Z" fill="#6FCF97"/>
<path d="M405.326 115.678C405.326 117.06 403.761 118.181 401.826 118.181C399.892 118.181 398.326 117.06 398.326 115.678C398.326 114.297 399.895 113.173 401.826 113.173C403.757 113.173 405.326 114.3 405.326 115.678Z" fill="#F2994A"/>
</svg>
