<?xml version="1.0" encoding="UTF-8"?>
<svg width="20px" height="20px" viewBox="0 0 20 20" version="1.1" xmlns="http://www.w3.org/2000/svg" xmlns:xlink="http://www.w3.org/1999/xlink">
    <!-- Generator: Sketch 48.1 (47250) - http://www.bohemiancoding.com/sketch -->
    <title>cog</title>
    <desc>Created with Sketch.</desc>
    <defs></defs>
    <g id="Вакансия-HR-Usetech" stroke="none" stroke-width="1" fill="none" fill-rule="evenodd" transform="translate(-764.000000, -491.000000)">
        <g id="cog" transform="translate(764.000000, 491.000000)" fill="#616161" fill-rule="nonzero">
            <path d="M17.726,12 L15.65,12 C14.824,14.328 12.606,16 10,16 C6.691,16 4,13.31 4,10 C4,7.394 5.674,5.177 8,4.35 L8,2.274 C7.101,2.508 6.255,2.875 5.507,3.385 L3.989,1.868 L1.868,3.989 L3.386,5.507 C2.875,6.256 2.496,7.098 2.264,8 L0,8 L0,12 L2.264,12 C2.496,12.903 2.875,13.744 3.386,14.493 L1.868,16.011 L3.989,18.133 L5.507,16.615 C6.256,17.125 7.099,17.503 8,17.737 L8,20 L12,20 L12,17.737 C12.901,17.504 13.744,17.125 14.493,16.615 L16.011,18.133 L18.132,16.011 L16.614,14.493 C17.124,13.745 17.492,12.899 17.726,12 Z" id="Shape"></path>
            <path d="M20,5.909 L20,4.09 L18.508,4.09 C18.427,3.778 18.305,3.486 18.15,3.214 L19.091,2.272 L17.728,0.909 L16.785,1.85 C16.513,1.694 16.221,1.573 15.908,1.492 L15.908,0 L14.091,0 L14.091,1.492 C13.779,1.573 13.487,1.694 13.215,1.85 L12.273,0.909 L10.909,2.272 L11.851,3.214 C11.696,3.486 11.574,3.778 11.492,4.09 L10,4.09 L10,5.908 L11.491,5.908 C11.573,6.22 11.695,6.512 11.85,6.785 L10.908,7.727 L12.272,9.09 L13.214,8.15 C13.486,8.305 13.778,8.427 14.09,8.508 L14.09,10 L15.907,10 L15.907,8.509 C16.22,8.427 16.511,8.306 16.784,8.151 L17.726,9.091 L19.089,7.728 L18.148,6.786 C18.303,6.513 18.425,6.221 18.506,5.909 L20,5.909 Z M15,7 C13.895,7 13,6.104 13,5 C13,3.896 13.895,3 15,3 C16.105,3 17,3.896 17,5 C17,6.104 16.105,7 15,7 Z" id="Shape"></path>
        </g>
    </g>
</svg>