<?xml version="1.0" encoding="UTF-8"?>
<svg width="21px" height="25px" viewBox="0 0 21 25" version="1.1" xmlns="http://www.w3.org/2000/svg" xmlns:xlink="http://www.w3.org/1999/xlink">
    <!-- Generator: Sketch 48.1 (47250) - http://www.bohemiancoding.com/sketch -->
    <title>Shape</title>
    <desc>Created with Sketch.</desc>
    <defs></defs>
    <g id="Вакансия-HR-Usetech" stroke="none" stroke-width="1" fill="none" fill-rule="evenodd" transform="translate(-1270.000000, -477.000000)">
        <path d="M1285.24318,477 L1272.27273,477 C1271.01932,477 1270,478.018182 1270,479.272727 L1270,499.727273 C1270,500.981818 1271.01932,502 1272.27273,502 L1288.18182,502 C1289.43523,502 1290.45455,500.981818 1290.45455,499.727273 L1290.45455,482.211364 L1285.24318,477 Z M1278.75795,495.518182 L1277.15114,497.125 L1272.93864,492.9125 L1277.15114,488.7 L1278.75795,490.306818 L1276.15227,492.9125 L1278.75795,495.518182 Z M1283.30341,497.125 L1281.69659,495.518182 L1284.30227,492.9125 L1281.69659,490.306818 L1283.30341,488.7 L1287.51591,492.9125 L1283.30341,497.125 Z M1283.63636,483.818182 L1283.63636,478.136364 L1289.31818,483.818182 L1283.63636,483.818182 Z" id="Shape" fill="#92B700" fill-rule="nonzero"></path>
    </g>
</svg>