<?xml version="1.0" encoding="UTF-8"?>
<svg width="15px" height="20px" viewBox="0 0 15 20" version="1.1" xmlns="http://www.w3.org/2000/svg" xmlns:xlink="http://www.w3.org/1999/xlink">
    <!-- Generator: Sketch 52.4 (67378) - http://www.bohemiancoding.com/sketch -->
    <title>location-pin-5</title>
    <desc>Created with Sketch.</desc>
    <g id="1200px" stroke="none" stroke-width="1" fill="none" fill-rule="evenodd">
        <g id="Вакансия-HR-Usetech" transform="translate(-793.000000, -491.000000)" fill="#616161" fill-rule="nonzero">
            <g id="location-pin-5" transform="translate(793.000000, 491.000000)">
                <g id="Line_Icons">
                    <g id="Group">
                        <path d="M7.40740741,0 C3.32314815,0 0,3.32314815 0,7.40740741 C0,10.4861111 1.88518519,13.2138889 4.73148148,14.312963 L7.40740741,19.662963 L10.0824074,14.312963 C12.9287037,13.2138889 14.8148148,10.4861111 14.8148148,7.40740741 C14.8148148,3.32314815 11.4916667,0 7.40740741,0 Z M9.13240741,12.6861111 L8.76481481,12.8055556 L7.40740741,15.5222222 L6.04907407,12.8064815 L5.68148148,12.687037 C3.39074074,11.9388889 1.85185185,9.81666667 1.85185185,7.40740741 C1.85185185,4.34351852 4.34351852,1.85185185 7.40740741,1.85185185 C10.4712963,1.85185185 12.962963,4.34351852 12.962963,7.40740741 C12.962963,9.81666667 11.4231481,11.9388889 9.13240741,12.6861111 Z" id="Shape"></path>
                        <path d="M7.40740741,3.7037037 C5.36481481,3.7037037 3.7037037,5.36481481 3.7037037,7.40740741 C3.7037037,9.45 5.36481481,11.1111111 7.40740741,11.1111111 C9.45,11.1111111 11.1111111,9.45 11.1111111,7.40740741 C11.1111111,5.36481481 9.45,3.7037037 7.40740741,3.7037037 Z M7.40740741,9.25925926 C6.38611111,9.25925926 5.55555556,8.4287037 5.55555556,7.40740741 C5.55555556,6.38703704 6.38611111,5.55555556 7.40740741,5.55555556 C8.4287037,5.55555556 9.25925926,6.38703704 9.25925926,7.40740741 C9.25925926,8.4287037 8.4287037,9.25925926 7.40740741,9.25925926 Z" id="Shape"></path>
                    </g>
                </g>
            </g>
        </g>
    </g>
</svg>