<?xml version="1.0" encoding="UTF-8"?>
<svg width="30px" height="31px" viewBox="0 0 30 31" version="1.1" xmlns="http://www.w3.org/2000/svg" xmlns:xlink="http://www.w3.org/1999/xlink">
    <!-- Generator: Sketch 48.1 (47250) - http://www.bohemiancoding.com/sketch -->
    <title>Shape</title>
    <desc>Created with Sketch.</desc>
    <defs></defs>
    <g id="Вакансия-HR-Usetech" stroke="none" stroke-width="1" fill="none" fill-rule="evenodd" transform="translate(-1024.000000, -468.000000)">
        <g id="language-python" transform="translate(1024.000000, 468.000000)" fill="#92B700" fill-rule="nonzero">
            <path d="M25.715486,8.21420304 C28.0826044,8.21420304 30.0015004,10.1329736 30.0015004,12.4998509 L30.0015004,18.1785083 C30.0015004,20.5453406 28.0826044,22.4641262 25.715486,22.4641262 L15.0007502,22.4641262 C15.0007502,23.0558717 15.4804742,23.9105653 16.0721038,23.9105653 L22.5012753,23.9105653 L22.5012753,26.4284464 C22.5012753,28.7954287 20.5823793,30.7142143 18.215261,30.7142143 L11.7863444,30.7142143 C9.41928606,30.7142143 7.5004051,28.7954287 7.5004051,26.4284464 L7.50027009,20.8034886 C7.50027009,18.4365064 9.41928606,16.5177208 11.7863444,16.5177208 L19.6616333,16.5177208 C22.0287517,16.5177208 23.9476476,14.5989352 23.9476476,12.2319529 L23.9476476,8.21420304 L25.715486,8.21420304 Z M19.2866145,25.8926504 C18.6948349,25.8926504 18.215111,26.3442971 18.215111,27.2318404 C18.215111,28.1195337 18.6948349,28.3032824 19.2866145,28.3032824 C19.8783941,28.3032824 20.3581181,28.1195337 20.3581181,27.2318404 C20.3581181,26.3442971 19.8783941,25.8926504 19.2866145,25.8926504 Z M4.28595434,23.2141205 C1.91888096,23.2141205 0,21.2953349 0,18.9285027 L0,13.2498453 C0,10.882968 1.91888096,8.96418241 4.28595434,8.96418241 L15.0007502,8.96419741 C15.0007502,8.37245185 14.5210262,7.51777326 13.9293966,7.51777326 L7.50028509,7.51777326 L7.50028509,4.99992214 C7.50028509,2.63298489 9.41916606,0.714214286 11.7862244,0.714214286 L18.215111,0.714214286 C20.5822293,0.714214286 22.5011253,2.63298489 22.5011253,4.99992214 L22.5011253,10.62491 C22.5011253,12.9918472 20.5822293,14.9106328 18.215111,14.9106328 L10.3398671,14.9106328 C7.97279372,14.9106328 6.05391276,16.8294184 6.05391276,19.1964007 L6.05389776,23.2141205 L4.28595434,23.2141205 Z M10.7148709,5.53570312 C11.3066355,5.53570312 11.7863594,5.08405651 11.7863594,4.19646817 C11.7863594,3.30886483 11.3066505,3.1251162 10.7148859,3.1251162 C10.1231213,3.1251162 9.64339727,3.30886483 9.64339727,4.19646817 C9.64339727,5.08405651 10.1231063,5.53570312 10.7148709,5.53570312 Z" id="Shape"></path>
        </g>
    </g>
</svg>