<?xml version="1.0" encoding="UTF-8"?>
<svg width="20px" height="20px" viewBox="0 0 20 20" version="1.1" xmlns="http://www.w3.org/2000/svg" xmlns:xlink="http://www.w3.org/1999/xlink">
    <!-- Generator: Sketch 47.1 (45422) - http://www.bohemiancoding.com/sketch -->
    <title>russia-ruble</title>
    <desc>Created with Sketch.</desc>
    <defs>
        <polygon id="path-1" points="0.00681818182 20 20 20 20 0 0.00681818182 0"></polygon>
    </defs>
    <g id="1200px" stroke="none" stroke-width="1" fill="none" fill-rule="evenodd">
        <g id="Вакансия-HR-Usetech" transform="translate(-1088.000000, -380.000000)">
            <g id="Group-22" transform="translate(0.000000, 30.000000)">
                <g id="Group-14" transform="translate(1088.000000, 346.000000)">
                    <g id="russia-ruble" transform="translate(0.000000, 4.000000)">
                        <g id="Group-3">
                            <mask id="mask-2" fill="white">
                                <use xlink:href="#path-1"></use>
                            </mask>
                            <g id="Clip-2"></g>
                            <path d="M10,0 C4.48602273,0 0,4.48602273 0,10 C0,15.5139773 4.48602273,20 10,20 C15.5139773,20 20,15.5139773 20,10 C20,4.48602273 15.5139773,0 10,0 Z M10,19.0909091 C4.98715909,19.0909091 0.909090909,15.0128409 0.909090909,10 C0.909090909,4.98715909 4.98715909,0.909090909 10,0.909090909 C15.0128409,0.909090909 19.0909091,4.98715909 19.0909091,10 C19.0909091,15.0128409 15.0128409,19.0909091 10,19.0909091 Z" id="Fill-1" fill="#616161" mask="url(#mask-2)"></path>
                        </g>
                        <path d="M10,1.77295455 C5.46340909,1.77295455 1.77295455,5.46340909 1.77295455,10 C1.77295455,14.5365909 5.46340909,18.2270455 10,18.2270455 C14.5365909,18.2270455 18.2270455,14.5365909 18.2270455,10 C18.2270455,5.46340909 14.5365909,1.77295455 10,1.77295455 Z M10,17.9545455 C5.61386364,17.9545455 2.04545455,14.3861364 2.04545455,10 C2.04545455,5.61386364 5.61386364,2.04545455 10,2.04545455 C14.3861364,2.04545455 17.9545455,5.61386364 17.9545455,10 C17.9545455,14.3861364 14.3861364,17.9545455 10,17.9545455 Z" id="Fill-4" fill="#616161"></path>
                        <polygon id="Fill-5" fill="#616161" points="9.39852273 12.1702273 8.48943182 12.1702273 8.48943182 13.1715909 7.69397727 13.1715909 7.69397727 14.0806818 10.1939773 14.0806818 10.1939773 13.1715909 9.39852273 13.1715909"></polygon>
                        <path d="M11.1873864,5.25215909 L7.55238636,5.25215909 L7.55238636,6.34318182 L8.48943182,6.34318182 L8.48943182,9.4225 L7.55238636,9.4225 L7.55238636,10.5136364 L8.48943182,10.5136364 L8.48943182,10.7155682 L9.39852273,10.7155682 L9.39852273,10.5136364 L11.1873864,10.5136364 C12.6380682,10.5136364 13.8184091,9.33329545 13.8184091,7.88261364 C13.8184091,6.43204545 12.6380682,5.25215909 11.1873864,5.25215909 Z M11.1873864,9.42295455 L9.39852273,9.42295455 L9.39852273,6.34318182 L11.1873864,6.34318182 C12.0365909,6.34318182 12.7272727,7.03386364 12.7272727,7.88261364 C12.7272727,8.73181818 12.0365909,9.42295455 11.1873864,9.42295455 Z" id="Fill-6" fill="#616161"></path>
                        <polygon id="Fill-7" fill="#616161" points="7.55238636 11.9882955 12.4604545 11.9882955 12.4604545 10.8971591 7.55238636 10.8971591"></polygon>
                    </g>
                </g>
            </g>
        </g>
    </g>
</svg>