<?xml version="1.0" encoding="UTF-8"?>
<svg width="25px" height="25px" viewBox="0 0 25 25" version="1.1" xmlns="http://www.w3.org/2000/svg" xmlns:xlink="http://www.w3.org/1999/xlink">
    <!-- Generator: Sketch 48.1 (47250) - http://www.bohemiancoding.com/sketch -->
    <title>smm</title>
    <desc>Created with Sketch.</desc>
    <defs></defs>
    <g id="Вакансия-HR-Usetech" stroke="none" stroke-width="1" fill="none" fill-rule="evenodd" transform="translate(-1200.000000, -475.000000)">
        <g id="smm" transform="translate(1200.000000, 475.000000)" fill="#92B700" fill-rule="nonzero">
            <path d="M17.7565517,16.5517241 C12.6141379,16.5517241 8.4462069,12.3837931 8.4462069,7.24137931 C8.4462069,7.03344828 8.4637931,6.82965517 8.47724138,6.62586207 C4.26896552,7.80724138 1.20482759,11.3462069 1.20482759,15.5172414 C1.20482759,17.312069 1.76448276,19.0262069 2.83206897,20.52 C0.170344828,24.8275862 0.170344828,24.8275862 0.170344828,24.8275862 C0.170344828,24.8275862 6.98034483,24.8275862 11.5496552,24.8275862 C17.2331034,24.8275862 21.8562069,20.6813793 21.8913793,15.5741379 C20.6448276,16.1937931 19.2431034,16.5517241 17.7565517,16.5517241 Z" id="Shape"></path>
            <path d="M21.5913793,0.303103448 C21.1868966,-0.10137931 20.5331034,-0.10137931 20.1286207,0.303103448 L12.8872414,7.54448276 C12.7558621,7.67689655 12.6606897,7.84241379 12.6151724,8.02551724 L11.5796552,12.1634483 C11.4917241,12.5162069 11.5962069,12.8886207 11.8527586,13.1451724 C12.1093103,13.4017241 12.4817241,13.5062069 12.8344828,13.4182759 L16.9724138,12.3827586 C17.1544828,12.3382759 17.32,12.242069 17.4534483,12.1106897 L24.6948276,4.86931034 C25.0982759,4.46482759 25.0993103,3.81103448 24.6948276,3.40655172 L21.5913793,0.303103448 Z M16.1924138,10.4441379 L14.0055172,10.9924138 L14.5537931,8.80551724 L17.7565517,5.60068966 L19.3962069,7.24137931 L16.1924138,10.4441379 Z M20.86,5.77862069 L19.2193103,4.13793103 L20.86,2.49724138 L22.5006897,4.13793103 L20.86,5.77862069 Z" id="Shape"></path>
        </g>
    </g>
</svg>