<?xml version="1.0" encoding="UTF-8"?>
<svg width="30px" height="27px" viewBox="0 0 30 27" version="1.1" xmlns="http://www.w3.org/2000/svg" xmlns:xlink="http://www.w3.org/1999/xlink">
    <!-- Generator: Sketch 48.1 (47250) - http://www.bohemiancoding.com/sketch -->
    <title>ux</title>
    <desc>Created with Sketch.</desc>
    <defs></defs>
    <g id="Вакансия-HR-Usetech" stroke="none" stroke-width="1" fill="none" fill-rule="evenodd" transform="translate(-934.000000, -509.000000)">
        <g id="ux" transform="translate(934.000000, 509.000000)" fill="#92B700" fill-rule="nonzero">
            <path d="M10.2941176,7.35588235 L0,7.35588235 L0,23.5294118 C0,25.1514706 1.31911765,26.4705882 2.94117647,26.4705882 L10.2941176,26.4705882 L10.2941176,7.35588235 Z M7.35294118,23.5338235 L2.94117647,23.5338235 L2.94117647,20.5926471 L7.35294118,20.5926471 L7.35294118,23.5338235 Z M7.35294118,19.1220588 L2.94117647,19.1220588 L2.94117647,16.1808824 L7.35294118,16.1808824 L7.35294118,19.1220588 Z M2.94117647,14.7102941 L2.94117647,11.7691176 L7.35294118,11.7691176 L7.35294118,14.7102941 L2.94117647,14.7102941 Z" id="Shape"></path>
            <path d="M29.4117647,5.88529412 L29.4117647,2.94117647 C29.4117647,1.31911765 28.0941176,0 26.4705882,0 L2.94117647,0 C1.31911765,0 0,1.31911765 0,2.94117647 L0,5.88529412 L29.4117647,5.88529412 Z M8.82352941,1.47058824 C9.63676471,1.47058824 10.2941176,2.12794118 10.2941176,2.94117647 C10.2941176,3.75441176 9.63676471,4.41176471 8.82352941,4.41176471 C8.01029412,4.41176471 7.35294118,3.75441176 7.35294118,2.94117647 C7.35294118,2.12794118 8.01029412,1.47058824 8.82352941,1.47058824 Z M4.41176471,1.47058824 C5.225,1.47058824 5.88235294,2.12794118 5.88235294,2.94117647 C5.88235294,3.75441176 5.225,4.41176471 4.41176471,4.41176471 C3.59852941,4.41176471 2.94117647,3.75441176 2.94117647,2.94117647 C2.94117647,2.12794118 3.59852941,1.47058824 4.41176471,1.47058824 Z" id="Shape"></path>
            <path d="M13.2352941,7.35588235 L13.2352941,26.4705882 L26.4705882,26.4705882 C28.0941176,26.4705882 29.4117647,25.1514706 29.4117647,23.5294118 L29.4117647,7.35588235 L13.2352941,7.35588235 Z M19.1176471,22.0632353 L16.1764706,22.0632353 L16.1764706,17.6514706 L19.1176471,17.6514706 L19.1176471,22.0632353 Z M26.4705882,23.5338235 L20.5882353,23.5338235 L20.5882353,17.6514706 L26.4705882,17.6514706 L26.4705882,23.5338235 Z M26.4705882,14.7102941 L16.1764706,14.7102941 L16.1764706,11.7691176 L26.4705882,11.7691176 L26.4705882,14.7102941 Z" id="Shape"></path>
        </g>
    </g>
</svg>