<?xml version="1.0" encoding="UTF-8"?>
<svg width="20px" height="20px" viewBox="0 0 20 20" version="1.1" xmlns="http://www.w3.org/2000/svg" xmlns:xlink="http://www.w3.org/1999/xlink">
    <!-- Generator: Sketch 48.1 (47250) - http://www.bohemiancoding.com/sketch -->
    <title>zan</title>
    <desc>Created with Sketch.</desc>
    <defs></defs>
    <g id="Вакансия-HR-Usetech" stroke="none" stroke-width="1" fill="none" fill-rule="evenodd" transform="translate(-867.000000, -328.000000)">
        <g id="zan" transform="translate(867.000000, 328.000000)" fill="#616161" fill-rule="nonzero">
            <path d="M12.8016,19.2048 L0.0016,19.2048 L0.0016,18.4048 C0.0016,15.5784 2.6328,13.6048 6.4016,13.6048 C10.1704,13.6048 12.8016,15.5784 12.8016,18.4048 L12.8016,19.2048 Z M1.7288,17.6048 L11.076,17.6048 C10.5968,16.1584 8.8088,15.2048 6.4024,15.2048 C3.996,15.2048 2.2072,16.1584 1.7288,17.6048 Z" id="Shape"></path>
            <path d="M6.4016,11.2048 C5.5184,11.2048 4.8016,10.4872 4.8016,9.6048 C4.8016,8.7216 5.5184,8.0048 6.4016,8.0048 L6.4016,6.4048 C4.6376,6.4048 3.2016,7.8408 3.2016,9.6048 C3.2016,11.3688 4.6376,12.8048 6.4016,12.8048 C7.5808,12.8048 8.6016,12.156 9.156,11.2048 L6.4016,11.2048 Z" id="Shape"></path>
            <path d="M13.6016,11.2048 C10.5144,11.2048 8.0016,8.6928 8.0016,5.6048 C8.0016,2.5176 10.5144,0.0048 13.6016,0.0048 C16.6888,0.0048 19.2016,2.5176 19.2016,5.6048 C19.2016,8.6928 16.6896,11.2048 13.6016,11.2048 Z M13.6016,1.6048 C11.396,1.6048 9.6016,3.3992 9.6016,5.6048 C9.6016,7.8104 11.396,9.6048 13.6016,9.6048 C15.8072,9.6048 17.6016,7.8104 17.6016,5.6048 C17.6016,3.3992 15.8072,1.6048 13.6016,1.6048 Z" id="Shape"></path>
            <polygon id="Shape" points="16.0016 6.4048 12.8016 6.4048 12.8016 2.4048 14.4016 2.4048 14.4016 4.8048 16.0016 4.8048"></polygon>
        </g>
    </g>
</svg>