<svg width="64" height="64" viewBox="0 0 64 64" fill="none" xmlns="http://www.w3.org/2000/svg">
<path d="M32 56C45.2548 56 56 45.2548 56 32C56 18.7452 45.2548 8 32 8C18.7452 8 8 18.7452 8 32C8 45.2548 18.7452 56 32 56Z" stroke="#616161" stroke-width="2" stroke-linecap="round" stroke-linejoin="round"/>
<path d="M17.7561 51.3178C21.3161 45.4201 26.3397 40.5424 32.3397 37.1577C38.3397 33.773 45.1125 31.9962 52.0014 31.9995C53.3506 31.9995 54.6831 32.0653 55.999 32.1968" stroke="#616161" stroke-width="2" stroke-linecap="round" stroke-linejoin="round"/>
<path d="M47.0074 13.2729C43.2598 17.8791 38.5318 21.5913 33.168 24.1389C27.8042 26.6866 21.9396 28.0055 16.0015 27.9998C13.4721 28.0009 10.9483 27.7635 8.46362 27.2906" stroke="#616161" stroke-width="2" stroke-linecap="round" stroke-linejoin="round"/>
<path d="M21.4824 10.4214C27.4972 13.9506 32.4842 18.9916 35.9485 25.0439C39.4127 31.0963 41.2337 37.9495 41.2306 44.9232C41.2329 48.1907 40.8357 51.4463 40.0478 54.6174" stroke="#616161" stroke-width="2" stroke-linecap="round" stroke-linejoin="round"/>
</svg>
