<svg width="64" height="64" viewBox="0 0 64 64" fill="none" xmlns="http://www.w3.org/2000/svg">
<path d="M26 44C30.4183 44 34 40.4183 34 36C34 31.5817 30.4183 28 26 28C21.5817 28 18 31.5817 18 36C18 40.4183 21.5817 44 26 44Z" stroke="#616161" stroke-width="2" stroke-linecap="round" stroke-linejoin="round"/>
<path d="M13.3474 51.9997C14.4837 49.606 16.2757 47.5837 18.5153 46.1677C20.7549 44.7517 23.3503 44 26 44C28.6497 44 31.2451 44.7517 33.4847 46.1677C35.7243 47.5837 37.5163 49.606 38.6526 51.9997L54 52C54.2626 52 54.5227 51.9483 54.7653 51.8478C55.008 51.7473 55.2285 51.5999 55.4142 51.4142C55.5999 51.2285 55.7472 51.008 55.8478 50.7654C55.9483 50.5227 56 50.2626 56 50V14C56 13.4696 55.7893 12.9609 55.4142 12.5858C55.0391 12.2107 54.5304 12 54 12H10C9.46957 12 8.96086 12.2107 8.58579 12.5858C8.21071 12.9609 8 13.4696 8 14V50.0002C8 50.2628 8.05173 50.5229 8.15224 50.7655C8.25276 51.0082 8.40008 51.2286 8.5858 51.4143C8.77152 51.6 8.992 51.7473 9.23465 51.8478C9.4773 51.9483 9.73736 52 10 52L13.3474 51.9997Z" stroke="#616161" stroke-width="2" stroke-linecap="round" stroke-linejoin="round"/>
<path d="M44 44H48V20H16V24" stroke="#616161" stroke-width="2" stroke-linecap="round" stroke-linejoin="round"/>
</svg>
