<?xml version="1.0" encoding="iso-8859-1"?>
<!-- Generator: Adobe Illustrator 19.1.0, SVG Export Plug-In . SVG Version: 6.00 Build 0)  -->
<svg version="1.1" id="Capa_1" xmlns="http://www.w3.org/2000/svg" xmlns:xlink="http://www.w3.org/1999/xlink" x="0px" y="0px"
	 viewBox="0 0 497.274 497.274" style="enable-background:new 0 0 497.274 497.274;" xml:space="preserve">
<g>
	<g>
		<path style="fill:#616161;" d="M411.428,357.652H78.241L43.585,209.446C19.393,208.475,0,188.465,0,164.043
			c0-25.075,20.381-45.438,45.455-45.438s45.455,20.363,45.455,45.438c0,12.052-4.888,23.486-13.252,31.886
			c55.249,59.713,100.775,55.09,143.036-15.934c-10.887-8.488-17.505-21.634-17.505-35.786c0-25.057,20.381-45.455,45.455-45.455
			s45.455,20.381,45.455,45.455c0,15.087-7.641,29.027-19.781,37.356c36.333,69.789,82.847,73.353,143.583,14.452
			c-7.358-8.223-11.523-18.881-11.523-30.192c0-25.057,20.381-45.42,45.438-45.42s45.455,20.363,45.455,45.42
			c0,24.969-20.222,45.279-45.138,45.455L411.428,357.652z M94.405,337.307h301.548l34.868-125.479
			c-73.812,70.653-137.09,59.06-179.281-30.28l-3.829-8.099l-4.358,7.923c-49.32,89.605-111.803,100.757-178.169,31.039
			L94.405,337.307z M442.325,189.506l4.306,0.882c15.811,3.335,30.245-8.999,30.245-24.545c0-13.817-11.24-25.075-25.075-25.075
			s-25.075,11.258-25.075,25.075c0,8.523,4.323,16.411,11.593,21.069L442.325,189.506z M45.455,138.951
			c-13.834,0-25.075,11.258-25.075,25.075c0,13.834,11.24,25.092,25.075,25.092c1.482,0,2.894-0.212,4.306-0.459l4.111-0.723
			l3.9-2.223c7.994-4.553,12.758-12.67,12.758-21.687C70.53,150.209,59.272,138.951,45.455,138.951z M248.611,119.117
			c-13.834,0-25.075,11.258-25.075,25.092c0,9.899,5.894,18.899,14.999,22.922l9.123,4.023l9.564-3.529
			c9.846-3.617,16.463-13.023,16.463-23.416C273.685,130.375,262.445,119.117,248.611,119.117z"/>
		<path style="fill:#616161;" d="M399.711,398.52H89.976c-5.647,0-10.252-4.606-10.252-10.252l0,0
			c0-5.647,4.606-10.252,10.252-10.252h309.735c5.647,0,10.252,4.606,10.252,10.252l0,0
			C409.963,393.897,405.358,398.52,399.711,398.52z"/>
	</g>
	<g>
	</g>
	<g>
	</g>
	<g>
	</g>
	<g>
	</g>
	<g>
	</g>
	<g>
	</g>
	<g>
	</g>
	<g>
	</g>
	<g>
	</g>
	<g>
	</g>
	<g>
	</g>
	<g>
	</g>
	<g>
	</g>
	<g>
	</g>
	<g>
	</g>
</g>
<g>
</g>
<g>
</g>
<g>
</g>
<g>
</g>
<g>
</g>
<g>
</g>
<g>
</g>
<g>
</g>
<g>
</g>
<g>
</g>
<g>
</g>
<g>
</g>
<g>
</g>
<g>
</g>
<g>
</g>
</svg>
