<svg width="48" height="48" viewBox="0 0 48 48" fill="none" xmlns="http://www.w3.org/2000/svg">
<rect x="1" y="1" width="46" height="46" rx="3" fill="white" stroke="#E0E0E0" stroke-width="2"/>
<path fill-rule="evenodd" clip-rule="evenodd" d="M19 16C15.9624 16 13.5 18.4624 13.5 21.5C13.5 24.5376 15.9624 27 19 27C22.0376 27 24.5 24.5376 24.5 21.5C24.5 18.4624 22.0376 16 19 16ZM11.5 21.5C11.5 17.3579 14.8579 14 19 14C23.1421 14 26.5 17.3579 26.5 21.5C26.5 25.6421 23.1421 29 19 29C14.8579 29 11.5 25.6421 11.5 21.5Z" fill="#92B700"/>
<path fill-rule="evenodd" clip-rule="evenodd" d="M30.0242 16.0622C29.2474 15.9429 28.454 15.9914 27.6975 16.2046C27.1659 16.3543 26.6135 16.0448 26.4638 15.5132C26.314 14.9816 26.6235 14.4293 27.1551 14.2795C28.1866 13.9889 29.2685 13.9227 30.3278 14.0853C31.3871 14.248 32.3992 14.6358 33.296 15.2226C34.1928 15.8094 34.9535 16.5815 35.5267 17.487C36.1 18.3925 36.4725 19.4104 36.6193 20.472C36.7661 21.5336 36.6836 22.6144 36.3775 23.6414C36.0715 24.6685 35.5488 25.6181 34.8448 26.4261C34.1409 27.2342 33.2719 27.8821 32.2965 28.326C31.3211 28.77 30.2618 28.9998 29.1901 28.9999C28.6378 29 28.19 28.5523 28.19 28C28.1899 27.4477 28.6376 27 29.1899 26.9999C29.9758 26.9998 30.7526 26.8313 31.468 26.5057C32.1833 26.1801 32.8206 25.705 33.3368 25.1124C33.8531 24.5198 34.2364 23.8234 34.4608 23.0702C34.6853 22.317 34.7458 21.5244 34.6382 20.7459C34.5305 19.9673 34.2573 19.2209 33.8369 18.5568C33.4165 17.8928 32.8587 17.3265 32.201 16.8962C31.5433 16.4658 30.8011 16.1815 30.0242 16.0622Z" fill="#92B700"/>
<path fill-rule="evenodd" clip-rule="evenodd" d="M19 29C17.3953 29.0001 15.8142 29.3862 14.3901 30.1259C12.966 30.8655 11.7408 31.937 10.8179 33.2497C10.5003 33.7015 9.87653 33.8103 9.42472 33.4927C8.97291 33.175 8.86414 32.5513 9.18177 32.0995C10.2892 30.5242 11.7594 29.2385 13.4682 28.351C15.177 27.4634 17.0743 27.0001 18.9999 27C20.9255 26.9999 22.8228 27.4632 24.5317 28.3506C26.2406 29.238 27.7109 30.5236 28.8184 32.0987C29.1361 32.5505 29.0274 33.1743 28.5756 33.4919C28.1238 33.8096 27.5 33.7009 27.1824 33.2491C26.2594 31.9364 25.0341 30.8651 23.61 30.1255C22.1858 29.386 20.6047 28.9999 19 29Z" fill="#92B700"/>
<path fill-rule="evenodd" clip-rule="evenodd" d="M33.8009 30.1239C32.3768 29.3843 30.7955 28.9988 29.1909 29C28.6386 29.0004 28.1906 28.553 28.1902 28.0007C28.1898 27.4484 28.6372 27.0004 29.1895 27C31.1154 26.9986 33.0134 27.4613 34.7226 28.349C36.4318 29.2366 37.902 30.523 39.0087 32.0993C39.326 32.5513 39.2168 33.175 38.7648 33.4923C38.3128 33.8097 37.6891 33.7005 37.3718 33.2485C36.4498 31.9352 35.2249 30.8634 33.8009 30.1239Z" fill="#92B700"/>
</svg>
