<svg width="24" height="19" viewBox="0 0 24 19" fill="none" xmlns="http://www.w3.org/2000/svg">
<path d="M22.5005 3.68701C21.684 4.85594 20.6653 5.86965 19.4924 6.68041L19.4924 6.6804C19.4182 8.73079 18.8197 10.7279 17.754 12.4812C16.6883 14.2345 15.191 15.6853 13.4051 16.6952C11.6191 17.7051 9.60406 18.2404 7.55235 18.25C5.50064 18.2595 3.48072 17.743 1.68542 16.7498L1.68603 16.7487C4.03039 16.7162 6.31331 15.9943 8.25011 14.673L8.25004 14.6731C6.17677 13.26 4.5977 11.2335 3.73421 8.87778C2.87072 6.52201 2.76611 3.95508 3.43505 1.53687L3.43501 1.53689C4.39311 3.01238 5.66394 4.25913 7.15749 5.18882C8.65104 6.11852 10.3308 6.7084 12.0777 6.91668L12.0774 6.91674C11.8934 6.03981 12.0295 5.12599 12.4609 4.34067C12.8923 3.55535 13.5906 2.95042 14.4294 2.63535C15.2682 2.32028 16.1921 2.31589 17.0338 2.62297C17.8756 2.93006 18.5796 3.52833 19.0185 4.30952L19.0185 4.30993C20.2035 4.27457 21.3768 4.06467 22.5005 3.68701" stroke="#1DA1F2" stroke-width="1.5" stroke-linecap="round" stroke-linejoin="round"/>
</svg>
