<svg width="22" height="15" viewBox="0 0 22 15" fill="none" xmlns="http://www.w3.org/2000/svg">
<path d="M20.6743 11.6431L20.6715 11.6336L20.6685 11.6243C20.5407 11.226 20.2753 10.806 19.9778 10.4033C19.6717 9.98909 19.2853 9.53293 18.8599 9.05414C18.6058 8.75483 18.2971 8.45245 18.0492 8.20955L18.0464 8.20685C17.7627 7.92889 17.6032 7.76891 17.5477 7.69124L17.5473 7.69058C17.552 7.68279 17.5571 7.6746 17.5625 7.66596L17.5852 7.63373L17.5859 7.63283C17.737 7.418 18.341 6.55291 18.9386 5.60344C19.237 5.1293 19.5392 4.62554 19.7839 4.16644C20.0114 3.73972 20.2265 3.28442 20.3134 2.9118C20.3949 2.62504 20.4533 2.17491 20.1741 1.77564C19.8754 1.34855 19.384 1.25 18.9914 1.25H17.0222C16.631 1.25 16.2838 1.35681 16.0009 1.57055C15.7275 1.77712 15.5707 2.04096 15.4762 2.26143L15.4761 2.26139L15.4718 2.27196L15.4717 2.272L15.4717 2.27209L15.4716 2.27225L15.4715 2.27255L15.47 2.27632L15.4626 2.29398C15.4558 2.31015 15.4452 2.33496 15.4311 2.36762C15.4029 2.43294 15.3605 2.52953 15.3049 2.65102C15.1936 2.89428 15.0304 3.23573 14.8245 3.62484C14.4263 4.37768 13.886 5.27478 13.2712 5.98696V2.72386C13.2712 2.438 13.2377 2.04698 12.9971 1.72512C12.7144 1.34695 12.2993 1.25 11.9586 1.25H8.8641C8.14135 1.25 7.61302 1.81383 7.61302 2.45263C7.61302 2.78318 7.74524 3.02825 7.85799 3.1914C7.90941 3.2658 7.96563 3.33542 8.00588 3.38528L8.00778 3.38762L8.01143 3.39215C8.0549 3.44598 8.0888 3.48796 8.12255 3.53387C8.22963 3.6795 8.36518 3.89883 8.39542 4.3936V6.75931C8.24259 6.56422 8.0746 6.32502 7.89756 6.04524C7.32008 5.13268 6.6983 3.87145 6.23507 2.52205L6.23444 2.52024C6.13436 2.23109 5.99107 1.88444 5.71101 1.62657C5.39276 1.33353 5.01072 1.25 4.64437 1.25H2.67516C2.29291 1.25 1.88349 1.33871 1.58516 1.64995C1.28955 1.95835 1.25 2.33398 1.25 2.55692C1.25 2.79223 1.31482 3.13193 1.41888 3.51346C1.52882 3.91657 1.69926 4.42574 1.946 5.02144C2.43949 6.21291 3.24355 7.76359 4.49549 9.519C6.2295 12.0068 8.73105 13.44 11.1146 13.44C11.7408 13.44 12.3034 13.381 12.7051 13.1116C13.2247 12.7631 13.2712 12.2318 13.2712 11.9241V10.3231C13.2846 10.3304 13.2988 10.3383 13.3136 10.3469C13.5458 10.4807 13.9116 10.7513 14.4718 11.291C14.7904 11.6098 15.0434 11.8854 15.2585 12.1238C15.297 12.1665 15.3351 12.2089 15.3727 12.2507C15.5389 12.4357 15.6955 12.6099 15.8384 12.7532C16.0166 12.9319 16.2195 13.1108 16.4663 13.24C16.7292 13.3777 17.0046 13.44 17.3036 13.44H19.2728C19.6482 13.44 20.126 13.3498 20.4537 12.9694C20.8047 12.562 20.7935 12.051 20.6743 11.6431ZM13.277 6.69923C13.277 6.69924 13.2769 6.69883 13.2767 6.698L13.277 6.69923ZM8.37582 7.57921C8.37582 7.5792 8.37594 7.57869 8.37622 7.57771L8.37582 7.57921ZM8.91889 7.29689C8.92344 7.29886 8.92579 7.30018 8.92583 7.30035C8.92587 7.30052 8.92359 7.29953 8.91889 7.29689ZM13.2832 9.95358C13.2832 9.9536 13.283 9.95427 13.2827 9.95555L13.2832 9.95358Z" stroke="#2787F5" stroke-width="1.5"/>
</svg>
