<svg width="124" height="48" viewBox="0 0 124 48" fill="none" xmlns="http://www.w3.org/2000/svg">
    <path d="M0 22.1585V19.2466L2.14817 18.7921V4.85782L0 4.40329V1.47723H9.27554V4.40329L7.12737 4.85782V18.7921L9.27554 19.2466V22.1585H0Z" fill="#143F7A"/>
    <path d="M16.0689 22.1585V19.2466L18.2313 18.7921V5.34076H15.0304L14.9024 7.57082H11.1324V1.47723H30.3806V7.57082H26.5679L26.4541 5.34076H23.2247V18.7921L25.3871 19.2466V22.1585H16.0689Z" fill="#143F7A"/>
    <path d="M45.4784 22.1585L40.6983 4.61635L38.351 4.40329V1.47723H47.6977V4.40329L45.393 4.72998L47.655 13.9769L47.9822 15.3121H48.0675L48.409 13.9627L52.4635 1.47723H55.9062L60.1741 14.5451L60.4729 15.4399H60.5582L60.8001 14.5451L63.2185 4.72998L60.8427 4.40329V1.47723H70.0045V4.40329L67.7994 4.61635L62.806 22.1585H58.3531L54.7823 11.4628L54.3413 9.98552H54.256L53.7012 11.548L50.0734 22.1585H45.4784Z" fill="#143F7A"/>
    <path d="M76.2634 22.4568C74.6795 22.4568 73.3233 22.1301 72.1947 21.4767C71.0755 20.8138 70.2172 19.8953 69.6197 18.7211C69.0317 17.5374 68.7377 16.1691 68.7377 14.6161V14.332C68.7377 12.7979 69.0317 11.4438 69.6197 10.2696C70.2172 9.09539 71.0755 8.17686 72.1947 7.514C73.3138 6.84167 74.6605 6.5055 76.2349 6.5055C77.8188 6.5055 79.1655 6.83693 80.2752 7.49979C81.3943 8.16265 82.2479 9.08119 82.8359 10.2554C83.4334 11.4296 83.7322 12.7885 83.7322 14.332V14.6161C83.7322 16.1596 83.4334 17.5232 82.8359 18.7069C82.2479 19.8811 81.3943 20.7996 80.2752 21.4625C79.1655 22.1253 77.8283 22.4568 76.2634 22.4568ZM76.2634 18.6643C77.1739 18.6643 77.8188 18.3044 78.1982 17.5847C78.5775 16.8556 78.7672 15.866 78.7672 14.6161V14.332C78.7672 13.1199 78.5728 12.1493 78.1839 11.4201C77.8046 10.6815 77.1549 10.3122 76.2349 10.3122C75.315 10.3122 74.6653 10.6815 74.2859 11.4201C73.916 12.1493 73.7311 13.1199 73.7311 14.332V14.6161C73.7311 15.8755 73.916 16.8651 74.2859 17.5847C74.6653 18.3044 75.3244 18.6643 76.2634 18.6643Z" fill="#143F7A"/>
    <path d="M85.3645 22.1585V19.2466L87.157 18.7921V10.1702L85.023 9.71564V6.78959H91.8659L91.9797 8.66454L92.0081 9.04805C92.672 7.35302 93.7295 6.5055 95.1806 6.5055C95.3893 6.5055 95.6358 6.52444 95.9204 6.56232C96.2049 6.59073 96.4942 6.64754 96.7882 6.73277L96.2903 11.3065L94.1563 11.2071C93.6631 11.1881 93.2743 11.245 92.9898 11.3775C92.7147 11.5006 92.4349 11.709 92.1504 12.0025V18.7921L93.9429 19.2466V22.1585H85.3645Z" fill="#143F7A"/>
    <path d="M98.0797 22.1585V19.2466L99.9007 18.7921V3.38059L97.7383 2.92606V0H104.894V18.7921L106.701 19.2466V22.1585H98.0797Z" fill="#143F7A"/>
    <path d="M113.601 22.4568C112.396 22.4568 111.358 22.1395 110.485 21.5051C109.622 20.8706 108.958 19.9805 108.493 18.8347C108.038 17.6794 107.81 16.3348 107.81 14.8007V14.5024C107.81 12.9021 108.043 11.5054 108.508 10.3122C108.972 9.1096 109.631 8.17686 110.485 7.514C111.348 6.84167 112.368 6.5055 113.544 6.5055C114.359 6.5055 115.061 6.67595 115.649 7.01685C116.247 7.34828 116.768 7.81702 117.214 8.42306V3.38059L115.052 2.92606V0H122.207V18.7921L124 19.2466V22.1585H117.883L117.513 20.2551C117.048 20.9748 116.498 21.524 115.863 21.9028C115.227 22.2721 114.473 22.4568 113.601 22.4568ZM115.151 18.6359C116.052 18.6359 116.74 18.3139 117.214 17.67V11.5196C116.74 10.7241 116.062 10.3264 115.18 10.3264C114.317 10.3264 113.705 10.7099 113.345 11.477C112.984 12.244 112.804 13.2525 112.804 14.5024V14.8007C112.804 16.0223 112.975 16.9692 113.316 17.6416C113.657 18.3044 114.269 18.6359 115.151 18.6359Z" fill="#143F7A"/>
    <path d="M9.59223 47.7017V44.7899L11.0433 44.5768L17.2175 27.0205H22.6235L28.8119 44.5768L30.263 44.7899V47.7017H22.5239V44.7899L23.8754 44.5342L23.2495 42.2899H16.5916L15.9941 44.5342L17.3456 44.7899V47.7017H9.59223ZM17.6443 38.7957H22.1825L20.1624 32.5317L19.9347 31.8073H19.8494L19.6075 32.6027L17.6443 38.7957Z" fill="#143F7A"/>
    <path d="M33.8091 47.7017L30.5228 35.6992L28.5454 35.2589V32.3328H36.6543V35.2447L35.2033 35.5572L36.1991 40.486L36.3556 41.2672H36.4409L36.6828 40.486L39.713 32.3328H42.7716L45.7592 40.6991L45.9726 41.3809H46.0579L46.2429 40.6991L47.6228 35.5856L45.9157 35.2447V32.3328H53.8681V35.2589L52.0187 35.6708L48.1492 47.7017H44.1374L41.5055 41.0968L41.1498 39.8894H41.0645L40.7231 41.111L38.2904 47.7017H33.8091Z" fill="#143F7A"/>
    <path d="M59.683 48C58.194 48 56.98 47.5786 56.041 46.7358C55.1021 45.8931 54.6326 44.7709 54.6326 43.3694C54.6326 41.9301 55.2112 40.7511 56.3682 39.8326C57.5348 38.9141 59.2941 38.4548 61.6462 38.4548H63.2538V37.5457C63.2538 36.9302 63.0783 36.4094 62.7274 35.9833C62.3765 35.5477 61.8217 35.3299 61.0629 35.3299C60.4275 35.3299 59.8727 35.4861 59.3984 35.7986L59.057 37.7588H55.5431L55.472 33.4834C56.3445 33.0951 57.255 32.7589 58.2034 32.4749C59.1613 32.1908 60.2283 32.0487 61.4043 32.0487C63.5004 32.0487 65.1648 32.5317 66.3978 33.4976C67.6307 34.454 68.2472 35.8223 68.2472 37.6026V43.27C68.2472 43.4878 68.2472 43.7009 68.2472 43.9092C68.2567 44.1175 68.2804 44.3164 68.3183 44.5058L69.9828 44.7899V47.7017H64.15C64.0267 47.5313 63.8939 47.304 63.7517 47.0199C63.6094 46.7358 63.5098 46.4517 63.4529 46.1677C62.9882 46.7453 62.4666 47.1951 61.888 47.5171C61.3095 47.839 60.5745 48 59.683 48ZM61.2194 44.4774C61.5798 44.4774 61.9402 44.4063 62.3006 44.2643C62.6705 44.1128 62.9882 43.8903 63.2538 43.5967V41.3809H61.7031C61.0297 41.3809 60.5081 41.5276 60.1382 41.8212C59.7778 42.1147 59.5976 42.503 59.5976 42.9859C59.5976 43.4499 59.7494 43.8145 60.0529 44.0797C60.3563 44.3448 60.7452 44.4774 61.2194 44.4774Z" fill="#143F7A"/>
    <path d="M71.5619 47.7017V44.7899L73.3544 44.3353V35.7134L71.2205 35.2589V32.3328H78.0633L78.1771 34.2078L78.2056 34.5913C78.8695 32.8962 79.927 32.0487 81.3781 32.0487C81.5867 32.0487 81.8333 32.0677 82.1178 32.1056C82.4023 32.134 82.6916 32.1908 82.9856 32.276L82.4877 36.8497L80.3538 36.7503C79.8606 36.7314 79.4717 36.7882 79.1872 36.9208C78.9122 37.0439 78.6324 37.2522 78.3478 37.5457V44.3353L80.1404 44.7899V47.7017H71.5619Z" fill="#143F7A"/>
    <path d="M89.487 48C88.2825 48 87.244 47.6828 86.3715 47.0483C85.5084 46.4139 84.8445 45.5237 84.3798 44.3779C83.9245 43.2227 83.6969 41.878 83.6969 40.344V40.0457C83.6969 38.4453 83.9293 37.0486 84.394 35.8554C84.8587 34.6528 85.5179 33.7201 86.3715 33.0572C87.2345 32.3849 88.2541 32.0487 89.4301 32.0487C90.2458 32.0487 90.9476 32.2192 91.5356 32.5601C92.1331 32.8915 92.6547 33.3603 93.1005 33.9663V28.9238L90.9381 28.4693V25.5432H98.0939V44.3353L99.8864 44.7899V47.7017H93.7691L93.3993 45.7984C92.9345 46.518 92.3844 47.0673 91.749 47.446C91.1136 47.8153 90.3596 48 89.487 48ZM91.0377 44.1791C91.9387 44.1791 92.6263 43.8571 93.1005 43.2132V37.0628C92.6263 36.2674 91.9482 35.8697 91.0661 35.8697C90.2031 35.8697 89.5914 36.2532 89.231 37.0202C88.8706 37.7872 88.6904 38.7957 88.6904 40.0457V40.344C88.6904 41.5655 88.8611 42.5125 89.2025 43.1848C89.5439 43.8477 90.1557 44.1791 91.0377 44.1791Z" fill="#143F7A"/>
    <path d="M107.654 48C106.44 48 105.307 47.8911 104.254 47.6733C103.211 47.446 102.267 47.1383 101.423 46.75L101.366 41.9632H104.738L105.307 44.1933C105.506 44.3164 105.762 44.4253 106.075 44.52C106.388 44.6052 106.762 44.6478 107.199 44.6478C108.005 44.6478 108.56 44.5389 108.863 44.3211C109.167 44.1033 109.318 43.8287 109.318 43.4973C109.318 43.1753 109.143 42.8818 108.792 42.6166C108.451 42.342 107.716 42.1005 106.587 41.8922C104.785 41.5418 103.457 40.9453 102.604 40.1025C101.75 39.2502 101.323 38.1897 101.323 36.9208C101.323 36.059 101.522 35.2636 101.921 34.5345C102.319 33.8053 102.969 33.2182 103.87 32.7731C104.78 32.3186 105.994 32.0913 107.512 32.0913C108.669 32.0913 109.769 32.1908 110.812 32.3896C111.865 32.5885 112.728 32.8394 113.401 33.1425L113.387 37.773H110.03L109.603 35.7844C109.157 35.4814 108.602 35.3299 107.939 35.3299C107.303 35.3299 106.838 35.4435 106.544 35.6708C106.25 35.8981 106.103 36.1916 106.103 36.5515C106.103 36.8639 106.265 37.1717 106.587 37.4747C106.909 37.7777 107.621 38.0524 108.721 38.2986C110.476 38.6868 111.794 39.2266 112.676 39.9178C113.567 40.6091 114.013 41.6602 114.013 43.0712C114.013 44.5863 113.468 45.7889 112.377 46.679C111.296 47.5597 109.722 48 107.654 48Z" fill="#143F7A"/>
</svg>
