<svg width="136" height="31" viewBox="0 0 136 31" fill="none" xmlns="http://www.w3.org/2000/svg">
<path d="M19.6217 9.1398C19.0219 8.64472 18.2652 8.37338 17.4843 8.37338C16.4933 8.37338 15.552 8.81036 14.918 9.56487L8.18143 17.5676C7.15242 18.7896 7.15242 20.5823 8.18143 21.8042L14.918 29.8027C15.552 30.5561 16.4928 30.9925 17.483 30.9925C19.3148 30.9925 20.8222 29.4995 20.8222 27.6851C20.8222 26.9115 20.5481 26.1618 20.048 25.5675L15.0939 19.6859L20.048 13.7986C20.5486 13.2042 20.8229 12.4542 20.8229 11.6802C20.8229 10.6994 20.3825 9.76777 19.6217 9.1398V9.1398ZM3.33895 8.37324C1.50725 8.37324 0 9.86611 0 11.6803V11.6817V27.6929C0.0373379 29.4816 1.53329 30.933 3.33967 30.933C5.14605 30.933 6.64199 29.4816 6.67933 27.6929V11.6817C6.67933 11.6813 6.67933 11.6808 6.67933 11.6803C6.67933 9.86611 5.17208 8.37324 3.34038 8.37324C3.33995 8.37324 3.33938 8.37324 3.33895 8.37324V8.37324ZM61.9351 14.9888C63.741 14.9518 65.2064 13.4702 65.2064 11.681C65.2064 9.8919 63.741 8.41022 61.9351 8.37324H47.791C45.9586 8.37324 44.4507 9.86682 44.4507 11.6817V17.6852C44.4514 19.158 45.4443 20.4614 46.8741 20.8662L58.5947 24.1832V24.383H47.791C47.768 24.3826 47.745 24.3823 47.722 24.3823C45.8894 24.3823 44.3816 25.8759 44.3816 27.6908C44.3816 29.5057 45.8894 30.9993 47.722 30.9993C47.745 30.9993 47.768 30.999 47.791 30.9986H61.9351C63.7668 30.9986 65.274 29.5057 65.274 27.6915V21.688C65.2743 20.215 64.2809 18.911 62.8507 18.507L51.13 15.19V14.9888H61.9351ZM39.7083 8.37324C37.8766 8.37324 36.3694 9.86611 36.3694 11.6803V11.6817V24.383H28.9047V11.6817C28.9051 11.6589 28.9054 11.6361 28.9054 11.6133C28.9054 9.79824 27.3974 8.30481 25.565 8.30481C23.7326 8.30481 22.2246 9.79824 22.2246 11.6133C22.2246 11.6361 22.2249 11.6589 22.2253 11.6817V27.6929C22.2253 29.5071 23.7326 31 25.5643 31H25.5657H39.7083H39.7098C41.5415 31 43.0487 29.5071 43.0487 27.6929V11.6817C43.0487 11.6813 43.0487 11.6808 43.0487 11.6803C43.0487 9.86611 41.5415 8.37324 39.7098 8.37324C39.7093 8.37324 39.7088 8.37324 39.7083 8.37324V8.37324ZM78.6442 9.56345C78.0104 8.80965 77.0695 8.3731 76.0791 8.37324H70.0164C68.1847 8.37324 66.6774 9.86611 66.6774 11.6803V11.6817V27.6929C66.6774 29.5071 68.1847 31 70.0164 31H78.3781C80.184 30.963 81.6493 29.4813 81.6493 27.6922C81.6493 25.9031 80.184 24.4214 78.3781 24.3844H73.3568V14.9902H74.5141L82.8414 24.8874V27.6929C82.8788 29.4816 84.3747 30.933 86.1811 30.933C87.9875 30.933 89.4834 29.4816 89.5208 27.6929V23.6887C89.5201 22.9145 89.2451 22.1645 88.744 21.5704L78.6442 9.56345ZM135.227 21.5704L125.125 9.56345C124.491 8.80965 123.55 8.3731 122.56 8.37324H116.497C116.497 8.37324 116.496 8.37324 116.496 8.37324C114.664 8.37324 113.157 9.86611 113.157 11.6803V11.6817V27.6929C113.157 29.5066 114.664 30.9986 116.496 30.9986H116.497H124.857C126.663 30.9616 128.129 29.4799 128.129 27.6908C128.129 25.9016 126.663 24.42 124.857 24.383H119.836V14.9888H120.993L129.321 24.886V27.6915C129.358 29.4802 130.854 30.9316 132.66 30.9316C134.467 30.9316 135.963 29.4802 136 27.6915V23.6887C136.001 22.9151 135.727 22.1651 135.227 21.5704V21.5704ZM109.811 8.67646C108.628 8.13775 107.231 8.33088 106.243 9.16955L101.343 13.3296L96.4347 9.16813C95.8299 8.65521 95.0594 8.3731 94.2631 8.3731C92.4314 8.3731 90.9242 9.86597 90.9242 11.6802V11.6817V27.6929C90.9615 29.4816 92.4575 30.933 94.2638 30.933C96.0702 30.933 97.5662 29.4816 97.6035 27.6929V18.8669L99.1771 20.1974C100.422 21.2539 102.278 21.2539 103.523 20.1974L105.081 18.874V27.6915C105.081 29.5064 106.589 31 108.421 31C110.254 31 111.762 29.5064 111.762 27.6915V11.6803C111.76 10.3897 110.996 9.21291 109.811 8.67646V8.67646ZM86.4036 6.86564V6.99033C86.4036 6.99033 90.9971 5.19085 91.8912 5.6556L91.3519 5.81287C91.3991 5.81287 92.2732 5.86955 92.2732 5.86955C92.3147 6.23129 92.5181 6.55619 92.8268 6.75371C93.3533 7.09802 93.3633 7.28505 93.3633 7.28505C93.3633 7.28505 93.09 7.39557 93.09 7.53584C93.3441 7.46387 93.6069 7.42617 93.8711 7.42391C94.1095 7.43227 94.3459 7.46996 94.575 7.53584C94.804 7.60173 94.5478 7.39415 94.1801 7.28505C93.8125 7.17595 93.4577 6.79055 93.2789 6.57659C93.061 6.29873 93.0065 5.92665 93.1358 5.59892C93.2631 5.27586 93.7081 5.09591 94.6107 4.63116C95.6822 4.08282 95.9269 3.67191 96.0771 3.35594C96.2273 3.03996 96.4533 2.4066 96.5778 2.10905C96.6812 1.83091 96.8593 1.58592 97.0928 1.40059C97.2516 1.28015 97.9754 1.00952 97.9754 1.00952C97.9754 1.00952 97.4232 0.543356 97.243 0.403081C97.0177 0.191819 96.7327 0.0533859 96.4261 0.00634428C96.0427 -0.0432478 95.6536 0.208964 95.3904 0.377577C95.1272 0.54619 94.6179 1.03928 94.4119 1.18097C94.2059 1.32266 93.678 1.46435 92.8383 1.97303C91.9985 2.4817 88.6653 4.58866 88.6653 4.58866L89.5236 4.59716L85.6711 6.57659H86.0559L85.5009 7.00167C85.8082 7.07138 86.131 7.02264 86.4036 6.86564V6.86564Z" fill="#5F5F5F"/>
</svg>
