<svg width="265" height="92" viewBox="0 0 265 92" fill="none" xmlns="http://www.w3.org/2000/svg">
<g id="Group 18" clip-path="url(#clip0)">
<path id="JAVA" d="M135.898 82H132.478L137.428 69.4H141.028L145.978 82H142.558L141.838 80.02H136.618L135.898 82ZM138.904 73.684L137.608 77.32H140.848L139.552 73.684C139.408 73.276 139.3 72.85 139.228 72.406C139.156 72.85 139.048 73.276 138.904 73.684ZM160.637 69.4H164.237L160.385 82H156.785L154.643 74.206L152.501 82H148.901L145.049 69.4H148.649L150.791 78.256L153.185 69.4H156.101L158.495 78.256L160.637 69.4ZM166.73 82H163.31L168.26 69.4H171.86L176.81 82H173.39L172.67 80.02H167.45L166.73 82ZM169.736 73.684L168.44 77.32H171.68L170.384 73.684C170.24 73.276 170.132 72.85 170.06 72.406C169.988 72.85 169.88 73.276 169.736 73.684ZM181.345 82H178.015V69.4H183.325C184.009 69.4 184.639 69.472 185.215 69.616C185.803 69.748 186.349 69.97 186.853 70.282C187.369 70.582 187.771 71.02 188.059 71.596C188.347 72.172 188.491 72.856 188.491 73.648C188.491 75.52 187.687 76.78 186.079 77.428L189.553 82H185.791L182.785 77.896H181.345V82ZM181.345 72.28V75.196H183.469C183.961 75.196 184.351 75.07 184.639 74.818C184.927 74.566 185.071 74.206 185.071 73.738C185.071 73.27 184.927 72.91 184.639 72.658C184.351 72.406 183.961 72.28 183.469 72.28H181.345ZM190.812 69.4H195.834C198.006 69.4 199.644 69.97 200.748 71.11C201.864 72.25 202.422 73.78 202.422 75.7C202.422 77.62 201.864 79.15 200.748 80.29C199.644 81.43 198.006 82 195.834 82H190.812V69.4ZM195.834 79.12C197.946 79.12 199.002 77.98 199.002 75.7C199.002 73.42 197.946 72.28 195.834 72.28H194.142V79.12H195.834ZM203.757 72.838C203.757 71.638 204.201 70.72 205.089 70.084C205.989 69.448 207.129 69.13 208.509 69.13C210.153 69.13 211.563 69.466 212.739 70.138V73.198C211.659 72.382 210.339 71.986 208.779 72.01C207.711 72.022 207.177 72.292 207.177 72.82C207.177 73.072 207.339 73.3 207.663 73.504C207.987 73.696 208.389 73.864 208.869 74.008C209.361 74.14 209.889 74.326 210.453 74.566C211.017 74.794 211.539 75.052 212.019 75.34C212.511 75.628 212.919 76.042 213.243 76.582C213.567 77.11 213.729 77.722 213.729 78.418C213.729 80.986 212.049 82.27 208.689 82.27C206.853 82.27 205.239 81.886 203.847 81.118V77.968C205.227 78.916 206.757 79.39 208.437 79.39C209.109 79.39 209.589 79.33 209.877 79.21C210.165 79.078 210.309 78.856 210.309 78.544C210.309 78.22 210.081 77.938 209.625 77.698C209.181 77.458 208.635 77.236 207.987 77.032C207.351 76.816 206.709 76.564 206.061 76.276C205.425 75.988 204.879 75.55 204.423 74.962C203.979 74.374 203.757 73.666 203.757 72.838ZM219.023 70.84C220.295 69.94 221.753 69.49 223.397 69.49C224.729 69.49 225.833 69.802 226.709 70.426C227.585 71.05 228.023 72.004 228.023 73.288C228.023 73.78 227.933 74.242 227.753 74.674C227.573 75.106 227.309 75.496 226.961 75.844C226.613 76.192 226.277 76.492 225.953 76.744C225.629 76.984 225.239 77.242 224.783 77.518C223.511 78.286 222.785 78.76 222.605 78.94C222.497 79.048 222.443 79.138 222.443 79.21H228.113V82H218.627V80.542C218.627 80.002 218.711 79.498 218.879 79.03C219.047 78.562 219.227 78.184 219.419 77.896C219.611 77.596 219.917 77.278 220.337 76.942C220.757 76.594 221.069 76.354 221.273 76.222C221.489 76.09 221.849 75.874 222.353 75.574C222.473 75.502 222.563 75.448 222.623 75.412C222.719 75.352 222.923 75.238 223.235 75.07C223.559 74.89 223.769 74.77 223.865 74.71C223.961 74.638 224.093 74.53 224.261 74.386C224.441 74.242 224.555 74.098 224.603 73.954C224.663 73.81 224.693 73.648 224.693 73.468C224.693 73.108 224.543 72.838 224.243 72.658C223.955 72.466 223.571 72.37 223.091 72.37C221.675 72.37 220.319 72.88 219.023 73.9V70.84ZM231 80.488C230.064 79.288 229.596 77.752 229.596 75.88C229.596 74.008 230.064 72.478 231 71.29C231.948 70.09 233.37 69.49 235.266 69.49C237.162 69.49 238.578 70.09 239.514 71.29C240.462 72.478 240.936 74.008 240.936 75.88C240.936 77.752 240.462 79.288 239.514 80.488C238.578 81.676 237.162 82.27 235.266 82.27C233.37 82.27 231.948 81.676 231 80.488ZM235.266 79.39C236.826 79.39 237.606 78.22 237.606 75.88C237.606 73.54 236.826 72.37 235.266 72.37C233.706 72.37 232.926 73.54 232.926 75.88C232.926 78.22 233.706 79.39 235.266 79.39ZM242.718 70.84C243.99 69.94 245.448 69.49 247.092 69.49C248.424 69.49 249.528 69.802 250.404 70.426C251.28 71.05 251.718 72.004 251.718 73.288C251.718 73.78 251.628 74.242 251.448 74.674C251.268 75.106 251.004 75.496 250.656 75.844C250.308 76.192 249.972 76.492 249.648 76.744C249.324 76.984 248.934 77.242 248.478 77.518C247.206 78.286 246.48 78.76 246.3 78.94C246.192 79.048 246.138 79.138 246.138 79.21H251.808V82H242.322V80.542C242.322 80.002 242.406 79.498 242.574 79.03C242.742 78.562 242.922 78.184 243.114 77.896C243.306 77.596 243.612 77.278 244.032 76.942C244.452 76.594 244.764 76.354 244.968 76.222C245.184 76.09 245.544 75.874 246.048 75.574C246.168 75.502 246.258 75.448 246.318 75.412C246.414 75.352 246.618 75.238 246.93 75.07C247.254 74.89 247.464 74.77 247.56 74.71C247.656 74.638 247.788 74.53 247.956 74.386C248.136 74.242 248.25 74.098 248.298 73.954C248.358 73.81 248.388 73.648 248.388 73.468C248.388 73.108 248.238 72.838 247.938 72.658C247.65 72.466 247.266 72.37 246.786 72.37C245.37 72.37 244.014 72.88 242.718 73.9V70.84ZM254.695 80.488C253.759 79.288 253.291 77.752 253.291 75.88C253.291 74.008 253.759 72.478 254.695 71.29C255.643 70.09 257.065 69.49 258.961 69.49C260.857 69.49 262.273 70.09 263.209 71.29C264.157 72.478 264.631 74.008 264.631 75.88C264.631 77.752 264.157 79.288 263.209 80.488C262.273 81.676 260.857 82.27 258.961 82.27C257.065 82.27 255.643 81.676 254.695 80.488ZM258.961 79.39C260.521 79.39 261.301 78.22 261.301 75.88C261.301 73.54 260.521 72.37 258.961 72.37C257.401 72.37 256.621 73.54 256.621 75.88C256.621 78.22 257.401 79.39 258.961 79.39Z" fill="#92B700"/>
<g id="Group 4">
<g id="Page 1">
<path id="Fill 1" fill-rule="evenodd" clip-rule="evenodd" d="M0 0V65H118.026L125 33.3059L118.026 0H0Z" fill="#A4C815"/>
<path id="Fill 2" fill-rule="evenodd" clip-rule="evenodd" d="M0 33.0101V65H118.026L125 33L0 33.0101Z" fill="#92B700"/>
<g id="Group 17">
<path id="Fill 3" fill-rule="evenodd" clip-rule="evenodd" d="M43.0887 35.4622C43.0887 48.415 37.0496 54.8914 24.9722 54.8914C13.2564 54.8914 7.39819 48.5657 7.39819 35.9129V11.01H17.1486V36.0336C17.1486 43.0107 19.8765 46.5 25.3338 46.5C30.6904 46.5 33.3683 43.1314 33.3683 36.3943V11.01H43.0887V35.4622Z" fill="white"/>
<path id="Fill 5" fill-rule="evenodd" clip-rule="evenodd" d="M47.4037 52.4843V42.8565C49.1497 44.3201 51.0465 45.4179 53.094 46.1508C55.1409 46.8829 57.2084 47.2486 59.2953 47.2486C60.5203 47.2486 61.5887 47.1386 62.5014 46.9179C63.4147 46.6972 64.1773 46.3915 64.7898 46.0001C65.4023 45.6093 65.8582 45.1479 66.1598 44.6158C66.4607 44.0843 66.6108 43.5079 66.6108 42.8858C66.6108 42.0436 66.3707 41.2915 65.8883 40.6293C65.4066 39.9679 64.7498 39.3558 63.9164 38.7936C63.0838 38.2322 62.0954 37.6908 60.9512 37.1693C59.807 36.6472 58.5728 36.1158 57.2485 35.5743C53.8766 34.1701 51.3631 32.4551 49.7072 30.4293C48.0512 28.4029 47.2236 25.9558 47.2236 23.0879C47.2236 20.8408 47.6746 18.9101 48.578 17.2951C49.4813 15.6808 50.7106 14.3515 52.2657 13.3086C53.8209 12.2658 55.6226 11.4986 57.6701 11.0072C59.717 10.5158 61.8846 10.2693 64.1723 10.2693C66.4207 10.2693 68.4125 10.4051 70.1485 10.6765C71.8844 10.9472 73.4853 11.3636 74.9504 11.9251V20.9215C74.2279 20.4193 73.4403 19.9786 72.587 19.5972C71.7336 19.2165 70.856 18.9001 69.9526 18.6493C69.05 18.3986 68.1516 18.2136 67.2583 18.0929C66.3649 17.9729 65.5173 17.9129 64.7147 17.9129C63.6106 17.9129 62.6072 18.0179 61.7038 18.2286C60.8012 18.4393 60.0379 18.7351 59.4161 19.1158C58.7936 19.4965 58.3119 19.9536 57.971 20.4851C57.6301 21.0165 57.4593 21.6129 57.4593 22.2751C57.4593 22.9979 57.6494 23.6443 58.031 24.2158C58.4127 24.7879 58.9544 25.3286 59.6569 25.8408C60.3588 26.3522 61.2121 26.8536 62.2155 27.3458C63.2189 27.8365 64.3531 28.3429 65.6174 28.8651C67.3433 29.5865 68.8942 30.3543 70.2693 31.1665C71.6436 31.9786 72.8228 32.8965 73.8062 33.9201C74.7896 34.9422 75.5422 36.1108 76.0646 37.4251C76.5863 38.7386 76.8472 40.2679 76.8472 42.0136C76.8472 44.4208 76.3905 46.4415 75.4771 48.0765C74.5638 49.7108 73.3245 51.0351 71.7594 52.0479C70.1935 53.0615 68.3725 53.7879 66.2949 54.2293C64.2173 54.6708 62.0247 54.8915 59.717 54.8915C57.3485 54.8915 55.0958 54.6908 52.9582 54.2893C50.8206 53.8886 48.9696 53.2865 47.4037 52.4843Z" fill="white"/>
<path id="Fill 7" fill-rule="evenodd" clip-rule="evenodd" d="M106.746 54.1326H80.8701V11.0098H105.753V18.9183H90.5884V28.5112H104.7V36.3898H90.5884V46.2541H106.746V54.1326Z" fill="white"/>
<path id="Fill 9" fill-rule="evenodd" clip-rule="evenodd" d="M159.342 18.8885H147.032V54.1135H137.28V18.8885H125.031V10.9771H159.342V18.8885Z" fill="#333333"/>
<path id="Fill 11" fill-rule="evenodd" clip-rule="evenodd" d="M187.945 54.1089H162.063V10.9768H186.952V18.8875H171.785V28.4825H185.899V36.3625H171.785V46.229H187.945V54.1089Z" fill="#333333"/>
<path id="Fill 13" fill-rule="evenodd" clip-rule="evenodd" d="M222.723 52.6036C219.573 54.1279 215.46 54.8894 210.384 54.8894C203.763 54.8894 198.557 52.9451 194.765 49.0544C190.973 45.1644 189.077 39.9808 189.077 33.5044C189.077 26.6065 191.208 21.0115 195.472 16.7215C199.736 12.4301 205.268 10.2844 212.069 10.2844C216.282 10.2844 219.833 10.8158 222.723 11.8779V21.2329C219.833 19.5079 216.544 18.6458 212.851 18.6458C208.799 18.6458 205.528 19.9194 203.041 22.4658C200.553 25.0122 199.309 28.4615 199.309 32.8129C199.309 36.9837 200.483 40.3072 202.83 42.7836C205.177 45.2601 208.338 46.4979 212.31 46.4979C216.101 46.4979 219.573 45.5758 222.723 43.7308V52.6036Z" fill="#333333"/>
<path id="Fill 15" fill-rule="evenodd" clip-rule="evenodd" d="M264.511 54.1089H254.76V36.5432H236.885V54.1089H227.164V10.9768H236.885V28.1818H254.76V10.9768H264.511V54.1089Z" fill="#333333"/>
</g>
</g>
</g>
</g>
<defs>
<clipPath id="clip0">
<rect width="265" height="92" fill="white"/>
</clipPath>
</defs>
</svg>
