<svg width="64" height="64" viewBox="0 0 64 64" fill="none" xmlns="http://www.w3.org/2000/svg">
<path d="M31.9983 44C43.044 44 51.9983 35.0457 51.9983 24C51.9983 12.9543 43.044 4 31.9983 4C20.9526 4 11.9983 12.9543 11.9983 24C11.9983 35.0457 20.9526 44 31.9983 44Z" stroke="#616161" stroke-width="2" stroke-linecap="round" stroke-linejoin="round"/>
<path d="M31.9983 36C38.6257 36 43.9983 30.6274 43.9983 24C43.9983 17.3726 38.6257 12 31.9983 12C25.3709 12 19.9983 17.3726 19.9983 24C19.9983 30.6274 25.3709 36 31.9983 36Z" stroke="#616161" stroke-width="2" stroke-linecap="round" stroke-linejoin="round"/>
<path d="M44 39.9985V59.9998L31.9982 53.9998L20 59.9998V40.0003" stroke="#616161" stroke-width="2" stroke-linecap="round" stroke-linejoin="round"/>
</svg>
