<svg width="138" height="47" viewBox="0 0 138 47" fill="none" xmlns="http://www.w3.org/2000/svg">
<path fill-rule="evenodd" clip-rule="evenodd" d="M84.0311 11.0196C82.7401 12.3659 82.0943 14.2474 82.0943 16.6641C82.0943 18.3941 82.4204 19.8348 83.0725 20.9861C83.7245 22.1371 84.5733 22.9785 85.6194 23.5103C86.6715 24.0423 87.9981 24.3082 89.5991 24.3082C91.1746 24.3082 92.4881 24.0018 93.5406 23.3892C94.5991 22.77 95.4063 21.9083 95.9615 20.8042C96.5232 19.6934 96.804 18.2731 96.804 16.543C96.804 14.1599 96.1649 12.3085 94.8866 10.9892C93.6084 9.66298 91.7879 9 89.425 9C87.1201 9 85.3222 9.67312 84.0311 11.0196ZM87.2751 19.9054C86.7457 19.2526 86.481 18.1789 86.481 16.6844C86.481 15.1765 86.749 14.0959 87.2848 13.443C87.8206 12.7899 88.5309 12.4635 89.4153 12.4635C90.3385 12.4635 91.0679 12.7867 91.6037 13.4329C92.1459 14.0724 92.4173 15.0888 92.4173 16.4825C92.4173 18.1384 92.159 19.2862 91.6426 19.9257C91.126 20.5652 90.3966 20.885 89.4539 20.885C88.5372 20.885 87.8109 20.5586 87.2751 19.9054ZM1 9.25228H5.09621L10.4416 17.4418V9.25228H14.5764V24.0557H10.4416L5.12524 15.927V24.0557H1V9.25228ZM21.6463 9.25228H33.4023V12.4131H26.0427V14.7658H32.8698V17.785H26.0427V20.7031H33.6154V24.0557H21.6463V9.25228ZM52.4898 9.25228H39.1553V12.9078H43.6292V24.0557H48.0159V12.9078H52.4898V9.25228ZM57.1871 9.25228H61.351L62.852 17.5223L65.0405 9.25228H69.195L71.3932 17.5223L72.894 9.25228H77.0387L73.9109 24.0557H69.6114L67.1226 14.7354L64.6436 24.0557H60.3441L57.1871 9.25228ZM103.389 24.0557V9.25228H110.701C112.056 9.25228 113.093 9.37363 113.809 9.61606C114.526 9.8582 115.104 10.3092 115.543 10.969C115.982 11.6221 116.201 12.4198 116.201 13.3622C116.201 14.1834 116.033 14.8936 115.698 15.4928C115.362 16.0851 114.9 16.5665 114.313 16.9367C113.938 17.1724 113.425 17.3676 112.773 17.5223C113.296 17.7042 113.677 17.8861 113.916 18.0677C114.077 18.1888 114.31 18.448 114.613 18.8454C114.923 19.2425 115.129 19.5486 115.233 19.7641L117.353 24.0557H112.395L110.052 19.5318C109.755 18.9462 109.49 18.5659 109.258 18.3909C108.942 18.1618 108.583 18.0474 108.183 18.0474H107.796V24.0557H103.389ZM107.796 15.2504H109.645C109.845 15.2504 110.233 15.1832 110.807 15.0485C111.098 14.988 111.333 14.833 111.514 14.5839C111.701 14.3348 111.795 14.049 111.795 13.7257C111.795 13.2478 111.65 12.8809 111.359 12.6251C111.069 12.3694 110.523 12.2413 109.723 12.2413H107.796V15.2504ZM127.338 9.25228H122.951V24.0557H127.338V20.4407L129.604 17.9666L132.596 24.0557H138L132.596 14.8365L137.768 9.25228H131.938L127.338 14.8466V9.25228ZM28.9978 30.0208C28.2232 30.8289 27.8357 31.9576 27.8357 33.4078C27.8357 34.4459 28.0315 35.3101 28.4226 36.0009C28.814 36.6914 29.3231 37.1963 29.9508 37.5154C30.5822 37.8346 31.378 37.9942 32.3388 37.9942C33.2837 37.9942 34.072 37.8103 34.7033 37.4427C35.3386 37.0711 35.823 36.5541 36.156 35.8917C36.493 35.2253 36.6616 34.3731 36.6616 33.3351C36.6616 31.9051 36.278 30.7944 35.5111 30.0028C34.7442 29.2069 33.6517 28.8092 32.234 28.8092C30.8513 28.8092 29.7725 29.213 28.9978 30.0208ZM30.9441 35.3524C30.6266 34.9608 30.4678 34.3164 30.4678 33.4197C30.4678 32.5151 30.6286 31.8666 30.9499 31.475C31.2716 31.0832 31.6977 30.8874 32.2282 30.8874C32.7823 30.8874 33.2198 31.0811 33.5415 31.469C33.8667 31.8527 34.0295 32.4624 34.0295 33.2986C34.0295 34.2923 33.8745 34.9808 33.5645 35.3646C33.2548 35.7484 32.8171 35.9401 32.2515 35.9401C31.7016 35.9401 31.2658 35.7443 30.9441 35.3524ZM10.2947 28.9607H14.6698C15.6228 28.9607 16.3355 29.197 16.808 29.6694C17.2843 30.1421 17.5226 30.8147 17.5226 31.687C17.5226 32.5838 17.2632 33.2844 16.7441 33.7892C16.2288 34.2944 15.4405 34.5466 14.3792 34.5466H12.9384V37.8427H10.2947V28.9607ZM12.9384 32.7474H13.5833C14.0906 32.7474 14.447 32.6565 14.6523 32.4746C14.8578 32.2889 14.9603 32.0526 14.9603 31.7658C14.9603 31.4872 14.8711 31.2509 14.6931 31.0568C14.5148 30.863 14.1798 30.766 13.6879 30.766H12.9384V32.7474ZM18.9403 37.8427V28.9607H23.327C24.1406 28.9607 24.7622 29.0334 25.1922 29.1788C25.6222 29.3242 25.9688 29.5947 26.2322 29.9906C26.4955 30.3825 26.6271 30.861 26.6271 31.4264C26.6271 31.9193 26.5266 32.3454 26.3252 32.7048C26.1238 33.0602 25.8466 33.349 25.4941 33.5711C25.2697 33.7125 24.9617 33.8298 24.5703 33.9228C24.8842 34.0317 25.1128 34.1409 25.2561 34.2498C25.3528 34.3225 25.4922 34.478 25.6744 34.7164C25.8602 34.9547 25.9844 35.1384 26.0463 35.2676L27.3188 37.8427H24.3439L22.9379 35.1282C22.7596 34.7769 22.6007 34.5487 22.4613 34.4438C22.2716 34.3062 22.0566 34.2376 21.8163 34.2376H21.5841V37.8427H18.9403ZM21.5841 32.5594H22.6937C22.8137 32.5594 23.0462 32.5192 23.3909 32.4384C23.5654 32.4019 23.7067 32.3089 23.8151 32.1597C23.9276 32.0103 23.9837 31.8385 23.9837 31.6445C23.9837 31.3577 23.8965 31.1376 23.722 30.9841C23.5479 30.8309 23.2207 30.7541 22.7401 30.7541H21.5841V32.5594ZM38.114 28.9607H42.0243C42.7951 28.9607 43.4167 29.0696 43.8895 29.2877C44.3659 29.5058 44.7589 29.8189 45.0689 30.227C45.3789 30.6348 45.6036 31.1095 45.743 31.6506C45.8824 32.1919 45.9522 32.7654 45.9522 33.3713C45.9522 34.3204 45.8474 35.0576 45.6383 35.5827C45.433 36.1037 45.1464 36.542 44.7783 36.8973C44.4103 37.249 44.0153 37.483 43.5931 37.6003C43.0159 37.7619 42.4929 37.8427 42.0243 37.8427H38.114V28.9607ZM40.7461 30.9722V35.8251H41.391C41.941 35.8251 42.3324 35.7625 42.5646 35.6371C42.7971 35.508 42.9793 35.2858 43.1109 34.9707C43.2426 34.6518 43.3084 34.1368 43.3084 33.4258C43.3084 32.4847 43.1612 31.8406 42.8668 31.4933C42.5723 31.1457 42.0843 30.9722 41.4027 30.9722H40.7461ZM55.5099 28.9607H52.8837V34.383C52.8837 34.876 52.754 35.2577 52.4943 35.5282C52.2387 35.7947 51.8843 35.9282 51.431 35.9282C50.9741 35.9282 50.6158 35.7927 50.3561 35.5221C50.1005 35.2476 49.9728 34.8679 49.9728 34.383V28.9607H47.3465V34.2559C47.3465 34.692 47.4279 35.1928 47.5904 35.7585C47.6912 36.1098 47.877 36.451 48.1484 36.7824C48.4234 37.1134 48.7253 37.37 49.0548 37.5519C49.3839 37.7295 49.7925 37.8485 50.2805 37.9093C50.7727 37.9699 51.2257 38 51.6402 38C52.3568 38 52.9706 37.9012 53.482 37.7031C53.85 37.5618 54.2006 37.3176 54.5336 36.97C54.8708 36.6187 55.1166 36.2109 55.2716 35.7463C55.4305 35.2777 55.5099 34.781 55.5099 34.2559V28.9607ZM62.9237 34.2136L65.2302 34.9405C65.0755 35.6151 64.8314 36.1785 64.4983 36.6309C64.165 37.0833 63.7506 37.4245 63.2548 37.6547C62.7629 37.885 62.1354 38 61.3724 38C60.4466 38 59.6894 37.8607 59.1006 37.582C58.5156 37.2994 58.0101 36.8047 57.584 36.0977C57.1579 35.3909 56.9449 34.4861 56.9449 33.3835C56.9449 31.9133 57.3187 30.7842 58.0665 29.9967C58.8178 29.2051 59.8791 28.8092 61.2505 28.8092C62.3232 28.8092 63.1659 29.0354 63.7778 29.4878C64.3936 29.9402 64.8508 30.6348 65.1491 31.5718L62.8248 32.1111C62.7437 31.8406 62.6584 31.6427 62.5693 31.5173C62.4221 31.3073 62.2421 31.1457 62.029 31.0328C61.816 30.9195 61.5777 30.863 61.3143 30.863C60.7177 30.863 60.2608 31.1136 59.943 31.6143C59.7028 31.986 59.5828 32.5696 59.5828 33.3652C59.5828 34.3508 59.7261 35.0274 60.0127 35.395C60.2994 35.7585 60.7022 35.9401 61.2213 35.9401C61.7249 35.9401 62.1046 35.7927 62.3601 35.4978C62.6195 35.203 62.8076 34.7749 62.9237 34.2136ZM73.9167 28.9607H65.916V31.1538H68.6003V37.8427H71.2324V31.1538H73.9167V28.9607ZM74.6544 34.9041L77.1587 34.7407C77.2129 35.1647 77.3234 35.4877 77.4898 35.7098C77.7609 36.0696 78.1484 36.2491 78.652 36.2491C79.0278 36.2491 79.3164 36.1582 79.5178 35.9766C79.723 35.7906 79.8255 35.5766 79.8255 35.3345C79.8255 35.1042 79.7289 34.898 79.535 34.7164C79.3414 34.5345 78.8922 34.363 78.187 34.2014C77.0329 33.9309 76.2096 33.5711 75.7177 33.1228C75.2219 32.6747 74.9741 32.103 74.9741 31.4084C74.9741 30.9519 75.0999 30.5218 75.3519 30.1178C75.6074 29.71 75.9891 29.3908 76.4963 29.1605C77.0076 28.9262 77.7067 28.8092 78.5939 28.8092C79.6822 28.8092 80.5113 29.0212 81.0807 29.4453C81.654 29.8655 81.9948 30.536 82.1032 31.4568L79.6222 31.6083C79.5564 31.2083 79.4169 30.9175 79.2039 30.7359C78.9947 30.554 78.7042 30.463 78.3323 30.463C78.0265 30.463 77.7959 30.532 77.6409 30.6693C77.4859 30.8025 77.4084 30.9661 77.4084 31.1599C77.4084 31.3013 77.4726 31.4284 77.6004 31.5417C77.7242 31.6587 78.0187 31.7679 78.4834 31.8687C79.6339 32.1273 80.4569 32.3897 80.9527 32.6565C81.4524 32.9189 81.8146 33.2462 82.0393 33.6381C82.2679 34.0296 82.382 34.4679 82.382 34.9527C82.382 35.5221 82.2309 36.0473 81.929 36.5278C81.6268 37.0086 81.2046 37.3741 80.6624 37.6246C80.1199 37.8708 79.4364 37.9942 78.6111 37.9942C77.1626 37.9942 76.1593 37.7031 75.6016 37.1215C75.0438 36.5399 74.728 35.8008 74.6544 34.9041ZM91.969 32.7775V34.6254H93.7294V35.4616C93.3848 35.6757 93.0787 35.8271 92.8114 35.9161C92.5442 36.0047 92.2634 36.0493 91.969 36.0493C91.3493 36.0493 90.8649 35.8434 90.5163 35.4312C90.1716 35.0193 89.9994 34.3326 89.9994 33.3713C89.9994 32.4665 90.1697 31.8061 90.5105 31.3902C90.8554 30.9702 91.3163 30.7599 91.8934 30.7599C92.2806 30.7599 92.5984 30.8488 92.8465 31.0267C93.0981 31.2042 93.2761 31.4608 93.3809 31.796L95.9199 31.3236C95.7649 30.7501 95.5327 30.2774 95.2227 29.9058C94.9166 29.5301 94.5294 29.2535 94.0605 29.0757C93.5958 28.8981 92.8928 28.8092 91.9515 28.8092C90.9754 28.8092 90.1988 28.9526 89.6216 29.2393C88.8817 29.6109 88.32 30.1563 87.9367 30.8752C87.5531 31.59 87.3615 32.4323 87.3615 33.4017C87.3615 34.3225 87.5356 35.1384 87.8845 35.8494C88.237 36.5602 88.7309 37.0955 89.3661 37.4549C90.0052 37.8143 90.8302 37.9942 91.8412 37.9942C92.6623 37.9942 93.3711 37.8951 93.9678 37.6973C94.568 37.4952 95.2574 37.1175 96.036 36.5643V32.7775H91.969ZM103.142 28.9607H105.768V34.2559C105.768 34.781 105.689 35.2777 105.53 35.7463C105.375 36.2109 105.129 36.6187 104.792 36.97C104.459 37.3176 104.109 37.5618 103.741 37.7031C103.229 37.9012 102.615 38 101.899 38C101.484 38 101.031 37.9699 100.539 37.9093C100.051 37.8485 99.6425 37.7295 99.313 37.5519C98.9839 37.37 98.6817 37.1134 98.4067 36.7824C98.1356 36.451 97.9495 36.1098 97.8489 35.7585C97.6862 35.1928 97.6048 34.692 97.6048 34.2559V28.9607H100.231V34.383C100.231 34.8679 100.359 35.2476 100.615 35.5221C100.874 35.7927 101.232 35.9282 101.69 35.9282C102.143 35.9282 102.497 35.7947 102.753 35.5282C103.012 35.2577 103.142 34.876 103.142 34.383V28.9607ZM110.254 28.9607H107.616V37.8427H110.254V28.9607ZM112.183 28.9607H116.093C116.864 28.9607 117.486 29.0696 117.958 29.2877C118.434 29.5058 118.828 29.8189 119.137 30.227C119.447 30.6348 119.672 31.1095 119.812 31.6506C119.951 32.1919 120.021 32.7654 120.021 33.3713C120.021 34.3204 119.916 35.0576 119.707 35.5827C119.502 36.1037 119.215 36.542 118.847 36.8973C118.479 37.249 118.084 37.483 117.662 37.6003C117.085 37.7619 116.562 37.8427 116.093 37.8427H112.183V28.9607ZM114.815 30.9722V35.8251H115.46C116.01 35.8251 116.401 35.7625 116.633 35.6371C116.866 35.508 117.048 35.2858 117.18 34.9707C117.311 34.6518 117.377 34.1368 117.377 33.4258C117.377 32.4847 117.23 31.8406 116.935 31.4933C116.641 31.1457 116.153 30.9722 115.471 30.9722H114.815ZM128.457 28.9607H121.403V37.8427H128.585V35.8312H124.041V34.0803H128.138V32.2686H124.041V30.8569H128.457V28.9607Z" fill="#043E7C"/>
<path fill-rule="evenodd" clip-rule="evenodd" d="M138 44H0V42H138V44Z" fill="#043E7C"/>
<path fill-rule="evenodd" clip-rule="evenodd" d="M138 47H0V46H138V47Z" fill="#043E7C"/>
<path fill-rule="evenodd" clip-rule="evenodd" d="M138 5H0V2H138V5Z" fill="#043E7C"/>
<path fill-rule="evenodd" clip-rule="evenodd" d="M138 1H0V0H138V1Z" fill="#043E7C"/>
</svg>
