<svg width="357" height="192" viewBox="0 0 357 192" fill="none" xmlns="http://www.w3.org/2000/svg">
<g clip-path="url(#clip0)">
<g opacity="0.49">
<path opacity="0.49" d="M210.73 1.17032C210.242 2.34064 209.413 3.21837 208.535 4.16925C207.975 4.77879 207.389 5.41271 206.902 6.11977C206.707 6.41235 206.487 6.60741 206.414 6.60741C203.732 6.29045 199.124 5.92472 198.661 6.77808L198.563 6.94875C198.246 7.50952 197.832 8.21659 198.563 8.97241C198.88 9.28937 199.197 9.6551 199.49 9.99644L199.709 10.2403C201.123 11.8494 202.269 13.483 200.953 15.7505C200.489 16.5551 200.148 17.3353 199.977 18.0911C199.904 18.4081 199.758 18.725 199.612 19.0664C199.173 20.066 198.685 21.1876 199.807 22.1141C201.148 23.2112 202.22 22.3091 203.098 21.5533C203.366 21.3095 203.635 21.09 203.903 20.9437C205.268 20.0904 206.731 19.4077 208.096 20.2123C208.803 20.6268 209.803 21.4558 210.852 22.3579C212.851 24.0402 214.216 25.1374 215.021 25.1374C215.167 25.1374 215.313 25.0886 215.411 25.0155C215.947 24.6254 215.899 23.2112 215.801 21.09C215.752 20.2611 215.728 19.4565 215.777 19.042V19.0176V18.9932C215.752 17.8229 216.167 16.7745 216.923 16.1162C217.532 15.5798 218.264 15.3604 219.092 15.4823C220.482 15.6773 221.067 15.336 221.409 14.0925C221.555 13.5805 221.531 13.1904 221.36 12.8978C221.092 12.459 220.58 12.3127 220.092 12.1908C219.97 12.1664 219.873 12.142 219.751 12.0933C216.801 11.1911 215.021 9.14309 214.289 5.87596C214.192 5.46147 214.094 5.04699 213.997 4.65688C213.729 3.65724 213.46 2.63322 213.436 1.58481C213.412 0.682692 213.07 0.146298 212.388 9.27597e-06C211.315 -0.219425 210.9 0.755837 210.73 1.17032Z" fill="#FFBD3B"/>
</g>
<g opacity="0.49">
<path opacity="0.49" d="M234.575 26.5027C234.453 23.5038 236.647 20.9681 239.451 20.8462C242.426 20.6999 245.278 23.26 245.522 26.2833C245.741 28.8433 243.133 31.9154 240.621 32.0617C237.964 32.208 234.697 29.1847 234.575 26.5027Z" fill="#525354"/>
</g>
<g opacity="0.55">
<path opacity="0.55" d="M269.099 72.0475C270.05 69.3899 273.025 67.7319 275.219 68.951C277.291 70.0969 278.096 72.0475 277.267 74.3881C276.56 76.4361 273.464 78.2648 271.659 77.8015C269.587 77.2407 268.295 74.3393 269.099 72.0475Z" fill="#FF8B43"/>
</g>
<g opacity="0.55">
<path opacity="0.55" d="M139.048 70.8771C138.682 72.145 138.438 73.2909 138.024 74.3637C137.366 76.0216 136.049 76.558 134.415 75.9972C132.782 75.4365 131.88 73.3884 132.416 71.4867C132.831 70.0969 134.074 69.3898 135.683 69.7556C136.732 69.9994 137.707 70.4139 139.048 70.8771Z" fill="#FF8B43"/>
</g>
<g opacity="0.47">
<path opacity="0.47" d="M275.633 12.8247C274.877 12.0444 274.244 12.654 273.634 14.6289C271.123 22.9674 269.099 31.4521 265.612 39.4737C265.344 40.0588 265.003 40.8634 265.71 41.2048C266.734 41.7168 266.953 40.7415 267.197 40.0344C269.952 31.4278 272.707 22.8455 275.463 14.2388C275.609 13.7512 275.585 13.2148 275.633 12.8247Z" fill="#8EC0B4"/>
<path opacity="0.47" d="M283.216 41.0097C286.288 36.9867 289.36 32.9638 292.408 28.9408C292.749 28.4776 292.92 27.9168 292.335 27.5267C291.798 27.161 291.286 27.4292 290.969 27.9412C288.263 32.2079 285.557 36.4747 282.875 40.7415C282.997 40.8146 283.094 40.9121 283.216 41.0097Z" fill="#8EC0B4"/>
<path opacity="0.47" d="M264.052 48.1291C262.492 46.9344 261.687 48.4705 260.834 49.2019C260.127 49.8115 260.127 50.738 261.029 51.5182C262.175 51.9326 263.345 51.8839 264.077 50.7136C264.54 49.9334 265.149 48.9581 264.052 48.1291Z" fill="#8EC0B4"/>
<path opacity="0.47" d="M278.047 47.1296C278.267 47.544 278.632 47.7635 279.095 47.8366C279.608 47.9098 280.071 47.6903 280.315 47.2271C280.558 46.7638 280.29 46.2274 279.949 45.9105C279.729 45.691 279.437 45.5448 279.144 45.6179C278.925 45.5691 278.681 45.6179 278.51 45.7642C278.096 46.0568 277.779 46.6175 278.047 47.1296Z" fill="#8EC0B4"/>
</g>
<path d="M191.59 19.8709C190.566 19.6271 189.591 19.4564 189.567 18.408C189.542 17.1401 190.42 16.5062 191.615 16.555C192.468 16.6037 193.346 16.9207 193.419 17.9935C193.516 19.3832 192.444 19.6271 191.59 19.8709Z" fill="#8EBDB2"/>
<path d="M255.275 31.2327C255.47 29.2334 256.567 27.6973 258.542 27.8436C259.371 27.8924 260.761 29.8185 260.639 30.7206C260.492 31.7934 259.151 33.2076 258.054 33.5245C256.713 33.939 255.665 32.6712 255.275 31.2327Z" fill="#FF4B34"/>
<path d="M349.412 67.1955C346.389 68.2195 343.731 69.3655 341.78 71.9011C341.659 72.0718 341.439 72.1937 341.268 72.34C331.028 79.7276 316.643 78.9962 307.744 73.7298C304.477 71.8036 302.941 71.3647 298.503 71.4379C296.163 71.0234 293.091 71.0966 290.262 69.8287C286.727 68.2439 285.215 64.8549 286.459 61.2464C287.458 58.3206 289.409 56.297 292.262 55.0779C294.773 54.0295 297.26 54.0539 299.82 54.8097C302.477 55.6143 302.477 55.5655 302.258 52.9079C302.039 50.3235 303.233 48.2754 305.574 47.2758C309.67 45.4959 315.18 47.227 317.594 51.0305C317.887 51.5182 318.155 52.0546 318.837 51.957C319.471 48.9094 320.398 48.6655 321.251 48.1291C323.519 46.715 326.274 46.8613 328.395 48.7387C330.029 50.2016 331.223 50.9574 333.515 49.397C336.075 47.6659 339.318 46.52 342.488 47.6415C346.779 49.1532 350.412 51.6888 352.947 55.6874C355.946 60.3687 354.678 65.4157 349.412 67.1955Z" fill="#92B700" fill-opacity="0.15"/>
<path d="M286.483 61.2708C286.776 60.4175 287.166 59.6373 287.604 58.9546C287.97 60.0518 288.482 61.1245 289.214 62.1486C290.994 64.5867 293.237 66.7567 296.065 67.9758C299.966 69.6825 303.989 70.6577 308.207 71.1454C314.351 71.8768 320.056 71.7305 326.152 70.7309C334.734 69.3411 346.462 66.6835 354.556 61.1245C354.386 63.8065 352.654 66.1228 349.436 67.2199C346.413 68.244 343.755 69.3899 341.805 71.9256C341.683 72.0962 341.463 72.2181 341.293 72.3644C331.052 79.752 316.667 79.0206 307.768 73.7542C304.501 71.828 302.965 71.3892 298.527 71.4623C296.187 71.0478 293.115 71.121 290.286 69.8531C286.751 68.2683 285.239 64.8549 286.483 61.2708Z" fill="#92B700" fill-opacity="0.27"/>
<path d="M354.239 65.0012C356.58 61.8316 356.58 58.0037 354.459 54.6878C352.728 51.9571 350.436 49.9578 347.73 48.2023C342.707 44.9596 337.684 44.5451 332.589 47.8366C331.223 48.7143 330.394 48.5924 329.126 47.4709C326.201 44.862 323.25 44.7158 319.91 46.9832C318.569 47.8854 318.569 48.885 317.228 47.9341C314.644 46.1055 310.816 44.8864 307.719 45.1546C304.087 45.4716 301.673 47.1295 300.893 50.6161C300.454 52.6154 299.625 52.7617 297.942 52.6641C293.993 52.4447 290.335 53.3712 287.483 56.3214C285.581 58.2963 284.24 60.6125 284.338 63.5139C284.484 67.5613 287.336 70.9503 291.75 71.9743C294.358 72.5839 297.04 73.0227 299.99 72.9008C302.429 72.1937 304.599 73.3641 306.671 74.7538C311.816 78.216 317.594 79.24 323.665 79.1669C327.249 79.1181 330.76 78.728 334.222 77.4114C337.782 76.0704 340.781 73.998 343.682 71.7061C345.023 70.6577 346.242 69.6824 347.973 69.2923C350.631 68.7559 352.655 67.1224 354.239 65.0012ZM349.412 67.1955C346.389 68.2196 343.731 69.3655 341.78 71.9012C341.659 72.0718 341.439 72.1937 341.268 72.34C331.028 79.7276 316.643 78.9962 307.744 73.7298C304.477 71.8036 302.941 71.3648 298.503 71.4379C296.163 71.0234 293.09 71.0966 290.262 69.8287C286.727 68.2439 285.215 64.8549 286.459 61.2464C287.458 58.3206 289.409 56.297 292.262 55.0779C294.773 54.0295 297.26 54.0539 299.82 54.8097C302.477 55.6143 302.477 55.5655 302.258 52.9079C302.039 50.3235 303.233 48.2755 305.574 47.2758C309.67 45.496 315.18 47.2271 317.594 51.0306C317.887 51.5182 318.155 52.0546 318.837 51.9571C319.471 48.9094 320.398 48.6656 321.251 48.1292C323.519 46.715 326.274 46.8613 328.395 48.7387C330.029 50.2016 331.223 50.9574 333.515 49.397C336.075 47.6659 339.318 46.52 342.487 47.6415C346.779 49.1532 350.411 51.6889 352.947 55.6874C355.946 60.3687 354.678 65.4157 349.412 67.1955Z" fill="#3D3D3D"/>
<path d="M121.079 35.0778C118.056 36.1019 115.398 37.2478 113.448 39.7835C113.326 39.9541 113.107 40.076 112.936 40.2223C102.696 47.6099 88.3106 46.8785 79.4113 41.6121C76.1442 39.6859 74.6082 39.2471 70.1707 39.3202C67.8301 38.9057 64.758 38.9789 61.9298 37.711C58.3944 36.1262 56.8828 32.7372 58.1262 29.1287C59.1259 26.203 61.0764 24.1793 63.929 22.9602C66.4403 21.9118 68.9272 21.9362 71.4873 22.692C74.1449 23.4966 74.1449 23.4478 73.9255 20.7903C73.706 18.2058 74.9007 16.1578 77.2414 15.1581C81.3375 13.3783 86.8477 15.1094 89.2615 18.9129C89.554 19.4005 89.8222 19.9369 90.5049 19.8394C91.1388 16.7917 92.0653 16.5479 92.9187 16.0115C95.1862 14.5973 97.9413 14.7436 100.062 16.621C101.696 18.0839 102.891 18.8397 105.183 17.2793C107.743 15.5482 110.985 14.4023 114.155 15.5238C118.446 17.0355 122.079 19.5712 124.615 23.5697C127.614 28.251 126.346 33.298 121.079 35.0778Z" fill="#92B700" fill-opacity="0.15"/>
<path d="M58.1504 29.1532C58.443 28.2998 58.8331 27.5196 59.272 26.8369C59.6377 27.9341 60.1497 29.0069 60.8811 30.0309C62.661 32.469 64.9041 34.639 67.7324 35.8581C71.6334 37.5648 75.6564 38.54 79.8744 39.0277C86.0185 39.7591 91.7238 39.6128 97.8192 38.6132C106.401 37.2234 118.129 34.5659 126.224 29.0069C126.053 31.6888 124.322 34.0051 121.104 35.1023C118.08 36.1263 115.423 37.2722 113.472 39.8079C113.35 39.9786 113.131 40.1005 112.96 40.2468C102.72 47.6344 88.3348 46.9029 79.4355 41.6365C76.1684 39.7104 74.6323 39.2715 70.1949 39.3446C67.8543 38.9302 64.7822 39.0033 61.9539 37.7355C58.4186 36.1507 56.907 32.7372 58.1504 29.1532Z" fill="#92B700" fill-opacity="0.27"/>
<path d="M125.907 32.8835C128.248 29.7139 128.248 25.886 126.126 22.5701C124.395 19.8394 122.103 17.8401 119.397 16.0846C114.374 12.8419 109.352 12.4274 104.256 15.7189C102.891 16.5966 102.062 16.4747 100.794 15.3532C97.8681 12.7444 94.9179 12.5981 91.5777 14.8656C90.2367 15.7677 90.2367 16.7673 88.8957 15.8164C86.3112 13.9878 82.4833 12.7687 79.3869 13.0369C75.754 13.3539 73.3403 15.0118 72.5601 18.4984C72.1212 20.4977 71.2922 20.644 69.6099 20.5465C65.6601 20.327 62.0029 21.2535 59.1502 24.2037C57.2485 26.1786 55.9075 28.4948 56.005 31.3962C56.1513 35.4436 59.0039 38.8326 63.417 39.8566C66.0258 40.4662 68.7078 40.905 71.658 40.7831C74.0961 40.0761 76.2661 41.2464 78.3385 42.6361C83.483 46.0983 89.2614 47.1223 95.3324 47.0492C98.9165 47.0004 102.427 46.6103 105.89 45.2937C109.449 43.9527 112.448 41.8803 115.35 39.5884C116.691 38.54 117.91 37.5648 119.641 37.1747C122.298 36.6383 124.322 35.0047 125.907 32.8835ZM121.079 35.0779C118.056 36.1019 115.398 37.2478 113.448 39.7835C113.326 39.9542 113.107 40.0761 112.936 40.2224C102.696 47.61 88.3105 46.8785 79.4113 41.6121C76.1441 39.686 74.6081 39.2471 70.1707 39.3202C67.8301 38.9058 64.758 38.9789 61.9297 37.7111C58.3944 36.1263 56.8827 32.7372 58.1262 29.1288C59.1258 26.203 61.0764 24.1793 63.929 22.9602C66.4403 21.9118 68.9272 21.9362 71.4873 22.692C74.1449 23.4966 74.1449 23.4479 73.9254 20.7903C73.706 18.2058 74.9007 16.1578 77.2413 15.1581C81.3374 13.3783 86.8476 15.1094 89.2614 18.9129C89.554 19.4005 89.8222 19.9369 90.5049 19.8394C91.1388 16.7917 92.0653 16.5479 92.9186 16.0115C95.1861 14.5974 97.9413 14.7436 100.062 16.621C101.696 18.0839 102.891 18.8398 105.183 17.2793C107.743 15.5482 110.985 14.4023 114.155 15.5239C118.446 17.0355 122.079 19.5712 124.615 23.5698C127.614 28.251 126.346 33.298 121.079 35.0779Z" fill="#3D3D3D"/>
<path d="M210.583 151.458C213.07 151.531 218.629 151.58 222.213 151.629C221.604 154.335 221.092 156.529 220.726 158.09C218.142 158.48 215.557 158.87 212.973 159.163C212.948 158.992 212.924 158.821 212.875 158.675C212.168 156.334 211.339 153.896 210.364 151.458C210.437 151.458 210.51 151.458 210.583 151.458Z" fill="#92A4BD"/>
<path d="M195.028 110.009C195.004 103.792 191.541 98.5502 186.373 95.8438C186.86 91.1138 187.567 85.8961 188.494 80.7029C196.564 81.7513 202.001 81.5075 203.903 81.5075C211.266 81.5319 217.971 81.6781 224.895 80.8004C226.626 90.4555 227.602 100.306 227.943 106.767C228.065 113.033 227.553 119.786 226.748 126.296C219.702 128.954 212.607 130.002 206.975 130.539C203.513 130.636 200.197 130.466 197.076 130.027C195.296 128.296 193.37 126.76 191.298 125.492C190.03 124.712 188.738 124.126 187.397 123.809C191.858 121.42 194.93 117.056 195.028 110.009Z" fill="#FFEBBE"/>
<path d="M232.356 161.723C232.088 169.013 229.942 175.815 226.773 182.325C225.578 184.763 223.725 186.299 221.092 187.201C210.754 190.786 200.173 190.834 190.054 187.226C187.884 186.446 186.543 185.08 185.763 182.886C183.13 175.474 181.667 167.014 180.009 159.333C179.863 158.821 179.741 158.382 179.619 157.992C179.96 158.334 180.35 158.602 180.716 158.748C185.105 160.211 194.735 161.552 201.977 161.284C204.781 161.235 207.585 161.162 210.364 160.869C216.703 160.187 223.14 160.089 229.187 157.675C230.211 157.261 231.673 156.895 232.698 156.188C232.6 157.139 232.576 158.041 232.527 158.358C232.478 159.48 232.381 160.601 232.356 161.723Z" fill="#ACBBCD"/>
<path d="M178.887 95.4294C187.177 95.5269 193.516 102.622 193.76 110.01C193.858 118.982 186.714 124.297 178.18 124.346C169.793 124.395 164.039 118.446 163.844 109.741C163.673 101.549 171.256 95.3318 178.887 95.4294Z" fill="white"/>
<path d="M226.529 80.5809C228.285 80.3127 230.064 79.9714 231.869 79.5569C239.086 77.8502 246.302 75.9728 252.69 72.1449C253.276 71.8036 253.861 71.4379 254.3 70.9746C258.03 85.5548 255.616 100.062 245.912 112.545C240.963 118.909 234.77 122.98 228.431 125.638C229.942 112.667 230.138 97.4286 226.529 80.5809Z" fill="#FFEBBE"/>
<path d="M245.059 73.7786C236.867 76.7775 228.528 79.3376 219.702 79.8739C206.243 80.7029 181.13 80.4103 163.795 73.4372C161.552 72.145 159.333 70.9015 157.944 68.6828C163.795 46.7394 183.52 30.0381 210.266 32.3543C226.358 33.7441 240.743 40.8147 249.374 57.8818C251.154 61.3927 252.593 64.9524 253.666 68.4878C253.617 68.5365 253.592 68.5853 253.568 68.6341C251.569 71.633 248.204 72.6326 245.059 73.7786Z" fill="#FFEBBE"/>
<path d="M194.37 159.675C190.81 159.333 187.299 158.553 183.764 157.919C182.74 157.724 181.716 157.529 180.887 157.041C180.423 153.433 178.156 145.582 176.547 143.12C175.742 141.876 174.645 140.998 173.109 140.633C168.745 139.609 164.356 138.682 159.894 138.146C159.455 138.097 158.968 138.195 158.553 138.024C152.872 135.927 147.167 133.806 142.291 130.1C140.633 128.832 139.828 126.955 140.365 124.712C140.998 121.981 143.071 120.567 145.85 121.103C148.069 121.542 150.02 122.737 152.068 123.614C155.457 125.077 158.797 126.662 162.405 127.589C163.259 127.808 164.185 127.979 165.063 127.93C170.524 127.54 176.083 127.662 181.423 126.15C185.714 124.931 189.225 126.126 192.712 128.661C201.196 134.83 206.243 143.168 208.95 153.116C209.194 153.969 210.681 158.577 211.022 159.406C205.488 159.967 199.953 160.211 194.37 159.675Z" fill="white"/>
<path d="M224.237 151.678C226.188 151.702 228.845 152.214 230.601 152.945C232.088 153.555 232.161 154.384 230.918 155.359C229.284 156.651 226.407 157.188 224.481 157.505C223.676 157.627 222.896 157.749 222.092 157.895C222.506 156.017 222.994 153.921 223.53 151.678C223.774 151.653 224.018 151.678 224.237 151.678Z" fill="#92A4BD"/>
<path d="M161.552 73.9247C171.354 77.5576 179.936 79.4837 186.787 80.459C185.739 85.4572 185.007 90.3335 184.568 95.0391C182.667 94.3077 180.594 93.8932 178.4 93.8688C170.964 93.7713 163.942 99.3059 162.576 107.181C160.089 102.866 158.285 98.1356 157.164 93.2105C155.603 85.4084 155.774 77.6307 157.456 70.3894C158.675 71.706 160.016 73.047 161.552 73.9247Z" fill="#FFEBBE"/>
<path d="M219.629 156.627C220.117 156.651 220.58 156.651 221.067 156.676C220.946 157.188 220.824 157.675 220.726 158.114C218.142 158.504 215.557 158.894 212.973 159.187C212.948 159.016 212.924 158.846 212.875 158.699C212.631 157.919 212.388 157.139 212.144 156.359C214.631 156.408 217.142 156.505 219.629 156.627Z" fill="#7D92AF"/>
<path d="M193.809 116.666C202.513 119.226 211.973 119.299 220.726 117.056C223.116 116.446 225.481 115.642 227.773 114.642C227.577 118.519 227.212 122.444 226.724 126.296C219.678 128.954 212.583 130.002 206.951 130.539C203.489 130.636 200.173 130.466 197.052 130.027C195.272 128.296 193.346 126.76 191.273 125.492C190.006 124.712 188.713 124.126 187.372 123.809C190.225 122.298 192.517 119.957 193.809 116.666Z" fill="#FFDD92"/>
<path d="M182.618 159.285C183.179 160.991 183.812 162.649 184.52 164.283C188.201 172.621 193.638 181.057 203.366 182.715C210.486 183.934 218.556 183.349 225.359 180.862C226.212 180.545 227.065 180.18 227.919 179.789C227.553 180.643 227.163 181.472 226.748 182.325C225.554 184.763 223.701 186.299 221.067 187.201C210.73 190.785 200.148 190.834 190.03 187.226C187.86 186.446 186.519 185.08 185.739 182.886C183.105 175.474 181.643 167.013 179.985 159.333C179.838 158.821 179.716 158.382 179.594 157.992C179.936 158.334 180.326 158.602 180.692 158.748C181.277 158.919 181.911 159.114 182.618 159.285Z" fill="#99A9BF"/>
<path d="M178.887 95.4294C187.177 95.5269 193.516 102.622 193.76 110.01C193.858 118.982 186.714 124.297 178.18 124.346C169.793 124.395 164.039 118.446 163.844 109.741C163.673 101.549 171.256 95.3318 178.887 95.4294Z" fill="white"/>
<path d="M249.643 97.4773C252.008 94.3321 254.031 91.0406 255.836 87.6272C255.128 96.4046 251.91 104.865 245.937 112.545C240.987 118.909 234.794 122.98 228.455 125.638C228.894 121.932 229.211 118.031 229.382 113.959C237.306 110.205 244.449 104.377 249.643 97.4773Z" fill="#FFDD92"/>
<path d="M171.963 44.9596C170.183 47.4221 168.598 50.031 167.282 52.7129C165.112 57.126 163.356 61.9535 162.527 66.8055C162.235 68.5365 161.942 70.3652 161.772 72.1938C160.284 71.2429 158.919 70.1945 157.944 68.6585C160.357 59.5154 165.209 51.2988 171.963 44.9596Z" fill="#FFDD92"/>
<path d="M194.37 159.675C190.81 159.333 187.299 158.553 183.764 157.919C182.74 157.724 181.716 157.529 180.887 157.041C180.423 153.433 178.156 145.582 176.547 143.12C175.742 141.876 174.645 140.998 173.109 140.633C168.745 139.609 164.356 138.682 159.894 138.146C159.455 138.097 158.968 138.195 158.553 138.024C152.872 135.927 147.167 133.806 142.291 130.1C140.633 128.832 139.828 126.955 140.365 124.712C140.998 121.981 143.071 120.567 145.85 121.103C148.069 121.542 150.02 122.737 152.068 123.614C155.457 125.077 158.797 126.662 162.405 127.589C163.259 127.808 164.185 127.979 165.063 127.93C170.524 127.54 176.083 127.662 181.423 126.15C185.714 124.931 189.225 126.126 192.712 128.661C201.196 134.83 206.243 143.168 208.95 153.116C209.194 153.969 210.681 158.577 211.022 159.406C205.488 159.967 199.953 160.211 194.37 159.675Z" fill="white"/>
<path d="M228.065 156.725C226.822 157.115 225.505 157.334 224.481 157.505C223.676 157.627 222.896 157.749 222.092 157.895C222.189 157.505 222.262 157.115 222.36 156.7C224.262 156.7 226.163 156.676 228.065 156.725Z" fill="#7D92AF"/>
<path d="M157.505 70.3894C158.7 71.706 160.016 73.047 161.577 73.9491C161.601 73.9491 161.601 73.9491 161.625 73.9735C161.455 76.4848 161.455 78.9961 161.869 81.3855C162.844 87.2127 164.795 92.796 168.135 97.6723C165.356 100.013 163.308 103.329 162.649 107.206C160.163 102.89 158.358 98.16 157.237 93.2349C155.652 85.384 155.823 77.6307 157.505 70.3894Z" fill="#FFDD92"/>
<path d="M162.625 110.351C162.552 110.229 162.479 110.107 162.406 109.985C162.406 110.034 162.406 110.058 162.406 110.107C162.479 117.153 167.136 123.614 173.328 125.565C176.449 125.297 179.57 124.907 182.618 123.956C184.251 123.444 185.836 123.444 187.348 123.809C191.883 121.42 194.955 117.056 195.028 110.009C195.004 103.792 191.541 98.5501 186.373 95.8437C186.348 96.0388 186.324 96.2582 186.299 96.4533C185.861 96.1851 185.349 95.99 184.788 95.8681C184.69 95.8437 184.617 95.8437 184.52 95.8193C184.544 95.5511 184.568 95.3073 184.593 95.0391C182.691 94.3077 180.619 93.8932 178.424 93.8688C170.988 93.7713 163.966 99.3059 162.601 107.181C162.796 107.498 162.966 107.839 163.161 108.156C162.82 108.839 162.625 109.595 162.625 110.351ZM163.844 109.741C163.673 101.549 171.256 95.3317 178.887 95.4292C187.177 95.5268 193.516 102.622 193.76 110.009C193.858 118.982 186.714 124.297 178.18 124.346C169.793 124.395 164.015 118.445 163.844 109.741Z" fill="#3D3D3D"/>
<path d="M254.153 99.9643C253.592 99.7936 253.275 100.208 253.129 100.598C252.178 103.061 250.472 107.547 248.423 112.96C248.399 112.984 248.399 113.008 248.375 113.033C245.278 117.446 236.696 123.98 234.965 124.882C232.722 126.053 230.454 127.052 228.162 127.906C228.26 127.15 228.357 126.394 228.455 125.638C234.794 122.98 241.011 118.909 245.937 112.545C255.64 100.062 258.054 85.5548 254.324 70.9747C254.738 70.5602 255.055 70.0725 255.153 69.4142C255.226 68.951 255.128 68.4877 254.69 68.2439C254.251 68.0001 253.885 68.1952 253.617 68.5121C252.544 64.9524 251.105 61.4171 249.326 57.9062C240.695 40.8391 226.309 33.7928 210.218 32.3787C183.495 30.0624 163.746 46.7638 157.895 68.7072C157.627 68.3171 157.163 68.0976 156.725 68.439C156.237 68.8047 156.456 69.2436 156.773 69.6093C156.993 69.8775 157.237 70.1457 157.48 70.4139C155.798 77.6552 155.627 85.4329 157.188 93.235C158.309 98.1845 160.114 102.89 162.6 107.206C162.796 107.523 162.966 107.864 163.161 108.181C162.82 108.864 162.6 109.619 162.6 110.375C162.527 110.253 162.454 110.131 162.381 110.01C150.97 92.5523 150.97 70.3407 164.844 50.2504C181.057 26.7953 211.802 28.1363 224.335 33.2564C237.086 38.4497 244.279 44.2525 250.984 57.1991C258.664 72.0231 260.322 87.5541 254.299 102.232C254.446 101.622 254.373 101.208 254.153 99.9643Z" fill="#3D3D3D"/>
<path d="M206.926 130.563C212.558 130.002 219.653 128.978 226.7 126.321C226.602 127.052 226.505 127.808 226.407 128.539C215.801 132.197 205.683 132.831 201.733 132.806C200.977 132.806 200.27 132.782 199.539 132.733C198.734 131.807 197.881 130.904 197.027 130.051C200.173 130.49 203.464 130.661 206.926 130.563Z" fill="#3D3D3D"/>
<path d="M138.39 126.833C138.292 124.37 138.585 121.81 140.925 120.225C143.095 118.762 145.265 118.909 147.606 120.055C150.922 121.664 154.36 123.078 157.773 124.541C160.162 125.565 162.649 126.418 165.283 126.174C167.965 125.931 170.646 125.833 173.328 125.589C176.449 125.321 179.57 124.931 182.618 123.98C184.251 123.468 185.836 123.468 187.348 123.834C188.689 124.151 190.005 124.736 191.249 125.516C193.321 126.784 195.247 128.32 197.027 130.051C197.905 130.904 198.734 131.807 199.539 132.733C203.879 137.756 207.243 143.924 209.803 150.068C209.535 150.166 209.267 150.312 209.096 150.629C209.169 151.531 209.803 151.482 210.388 151.458C211.339 153.896 212.193 156.334 212.9 158.675C212.948 158.846 212.997 159.016 212.997 159.163C212.339 159.236 211.705 159.309 211.047 159.382C210.705 158.553 209.218 153.969 208.974 153.092C206.244 143.144 201.197 134.805 192.736 128.637C189.25 126.101 185.739 124.882 181.447 126.126C176.108 127.637 170.573 127.515 165.087 127.905C164.21 127.979 163.283 127.784 162.43 127.564C158.821 126.662 155.481 125.053 152.092 123.59C150.044 122.712 148.094 121.518 145.875 121.079C143.095 120.518 141.047 121.956 140.389 124.687C139.853 126.955 140.657 128.808 142.315 130.075C147.191 133.781 152.897 135.878 158.578 137.999C158.992 138.146 159.48 138.048 159.919 138.121C164.38 138.658 168.769 139.56 173.133 140.608C174.694 140.974 175.767 141.876 176.571 143.095C178.18 145.558 180.448 153.409 180.911 157.017C180.18 156.603 179.594 155.969 179.278 154.945C179.18 154.652 178.936 154.433 178.644 154.384C178.546 154.116 178.449 153.823 178.327 153.555C177.303 151.044 175.937 143.095 172.865 142.437C170.013 141.827 165.965 140.462 163.088 140.291C159.407 140.072 156.091 139.243 152.872 137.463C149.044 135.342 144.851 133.952 141.437 131.099C139.999 129.954 138.438 128.71 138.39 126.833Z" fill="#3D3D3D"/>
<path d="M177.912 155.895C178.375 156.456 178.985 157.334 179.643 157.968C179.765 158.358 179.887 158.797 180.033 159.309C181.691 166.989 183.13 175.425 185.787 182.861C186.568 185.056 187.933 186.446 190.078 187.201C200.197 190.81 210.778 190.761 221.116 187.177C223.749 186.275 225.602 184.739 226.797 182.301C229.967 175.791 232.112 168.988 232.38 161.698C232.429 160.577 232.502 159.455 232.6 158.334C232.624 158.017 232.649 157.115 232.771 156.164C233.136 155.92 233.429 155.627 233.648 155.286C234.014 154.701 234.209 154.213 234.233 153.774C234.721 154.823 234.624 157.773 234.648 158.334C234.648 158.456 234.624 158.553 234.624 158.675C234.477 165.819 232.99 172.719 230.259 179.302C226.895 187.445 225.554 188.445 217.02 190.395C216.264 190.566 215.46 190.615 214.704 190.761C210.34 191.614 206 191.005 201.635 190.712C197.637 190.444 193.468 190.103 189.908 188.494C185.105 186.348 185.105 186.226 183.52 181.179C182.398 177.644 181.813 173.255 180.887 169.671C180.082 166.648 179.399 163.576 178.79 160.504C178.619 159.675 177.327 156.456 177.741 155.335C177.668 155.505 177.741 155.725 177.912 155.895Z" fill="#3D3D3D"/>
<path d="M252.69 72.1205C246.302 75.9728 239.085 77.8502 231.868 79.5325C230.064 79.9714 228.284 80.2884 226.529 80.5566C226.48 80.2884 226.431 80.0446 226.358 79.7764C226.383 81.7025 224.481 78.606 224.798 80.3615C224.822 80.5078 224.847 80.6297 224.871 80.776C217.947 81.6537 211.242 81.5074 203.878 81.4831C202.001 81.4831 196.564 81.7269 188.469 80.6785C188.518 80.3859 188.567 80.0689 188.64 79.7764C188.957 77.9965 187.055 81.093 187.08 79.1912C186.982 79.6057 186.909 80.0445 186.811 80.459C179.936 79.4594 171.354 77.5576 161.577 73.9248C160.04 73.0227 158.7 71.7061 157.505 70.3651C157.261 70.0969 157.017 69.8287 156.798 69.5605C156.481 69.1948 156.286 68.7559 156.749 68.3902C157.212 68.0488 157.675 68.2683 157.919 68.6584C159.333 70.8527 161.528 72.0962 163.771 73.4128C181.131 80.3859 206.219 80.6785 219.678 79.8495C228.504 79.3131 236.842 76.753 245.035 73.7541C248.204 72.6082 251.569 71.6085 253.519 68.6096C253.544 68.5608 253.592 68.5121 253.617 68.4633C253.885 68.1464 254.251 67.9513 254.69 68.1951C255.128 68.4389 255.226 68.9022 255.153 69.3654C255.031 69.9994 254.714 70.5114 254.324 70.9259C253.861 71.4135 253.275 71.7792 252.69 72.1205Z" fill="#3D3D3D"/>
<path d="M210.852 149.971C213.485 150.02 218.581 150.044 222.53 150.166C222.408 150.678 222.311 151.166 222.213 151.653C218.629 151.604 213.07 151.531 210.583 151.482C210.51 151.482 210.437 151.482 210.364 151.482C209.779 151.507 209.169 151.556 209.072 150.654C209.267 150.337 209.511 150.166 209.779 150.093C210.145 149.971 210.51 149.971 210.852 149.971Z" fill="#3D3D3D"/>
<path d="M179.229 154.969C179.57 155.993 180.155 156.627 180.862 157.041C181.691 157.529 182.715 157.724 183.739 157.919C187.275 158.553 190.785 159.333 194.345 159.675C199.929 160.211 205.488 159.992 210.998 159.406C211.656 159.333 212.29 159.26 212.948 159.187C215.533 158.87 218.117 158.504 220.702 158.114C220.677 158.236 220.653 158.382 220.604 158.504C220.263 159.967 221.848 157.285 221.848 158.846C221.921 158.529 221.969 158.236 222.043 157.919C222.847 157.797 223.627 157.675 224.432 157.529C226.358 157.212 229.235 156.676 230.869 155.384C232.137 154.408 232.039 153.555 230.552 152.97C228.772 152.263 226.114 151.726 224.188 151.702C223.969 151.702 223.749 151.702 223.481 151.702C223.603 151.214 223.701 150.727 223.822 150.239C224.7 150.263 225.48 150.312 226.114 150.361C228.114 150.507 230.942 150.995 232.722 152.043C232.722 152.043 232.722 152.043 232.746 152.043C232.551 152.482 232.527 153.067 233.039 153.457C233.161 153.335 233.356 153.067 233.599 152.653C233.965 153.019 234.136 153.384 234.111 153.823C234.087 154.262 233.892 154.75 233.526 155.335C233.307 155.676 233.014 155.969 232.649 156.212C231.625 156.92 230.137 157.31 229.138 157.7C223.091 160.114 216.654 160.211 210.315 160.894C207.536 161.186 204.732 161.259 201.928 161.308C194.662 161.576 185.031 160.235 180.667 158.773C180.301 158.651 179.936 158.382 179.57 158.017C178.912 157.383 178.302 156.505 177.839 155.944C177.693 155.749 177.595 155.554 177.595 155.359C177.571 155.042 177.741 154.75 178.107 154.53C178.253 154.433 178.424 154.408 178.57 154.433C178.887 154.433 179.131 154.652 179.229 154.969Z" fill="#3D3D3D"/>
<path d="M222.53 150.166C223.798 144.363 225.31 136.683 226.431 128.515C226.529 127.784 226.626 127.052 226.724 126.296C227.529 119.787 228.041 113.057 227.919 106.767C227.577 100.281 226.602 90.4311 224.871 80.8004C224.847 80.6541 224.822 80.5322 224.798 80.3859C224.481 78.6061 226.383 81.7025 226.358 79.8008C226.407 80.069 226.48 80.3128 226.529 80.581C230.137 97.4286 229.942 112.667 228.431 125.638C228.333 126.394 228.236 127.174 228.138 127.906C227.016 136.463 225.334 143.973 223.871 150.215C223.749 150.702 223.652 151.19 223.53 151.678C222.994 153.921 222.506 156.017 222.091 157.895C222.018 158.212 221.945 158.529 221.896 158.821C221.896 157.261 220.312 159.943 220.653 158.48C220.677 158.358 220.702 158.236 220.75 158.09C221.116 156.554 221.628 154.335 222.238 151.629C222.311 151.166 222.433 150.678 222.53 150.166Z" fill="#3D3D3D"/>
<path d="M187.08 79.2156C187.055 81.1417 188.957 78.0453 188.64 79.8007C188.591 80.0933 188.542 80.4103 188.469 80.7029C187.543 85.8961 186.86 91.1138 186.348 95.8438C186.324 96.0388 186.299 96.2583 186.275 96.4533C185.836 96.1851 185.324 95.9901 184.763 95.8682C184.666 95.8438 184.593 95.8438 184.495 95.8194C184.519 95.5512 184.544 95.3074 184.568 95.0392C185.007 90.3336 185.739 85.4816 186.787 80.459C186.909 80.0445 186.982 79.6301 187.08 79.2156Z" fill="#3D3D3D"/>
<path d="M232.795 151.994C232.795 151.97 232.819 151.946 232.819 151.921C235.794 145.948 243.181 126.613 248.375 112.96C250.423 107.571 252.129 103.061 253.08 100.598C253.227 100.232 253.544 99.7936 254.104 99.9642C254.324 101.208 254.397 101.622 254.275 102.207C254.202 102.5 254.08 102.841 253.909 103.353C251.105 111.35 237.037 146.655 233.624 152.604C233.38 153.018 233.209 153.287 233.063 153.409C232.575 153.018 232.6 152.433 232.795 151.994Z" fill="#3D3D3D"/>
<path d="M162.259 38.0596C162.674 37.8401 163.137 37.7914 163.454 38.2058C163.771 38.6203 163.698 39.0348 163.356 39.4005C162.893 39.8882 162.405 40.3514 161.942 40.839C158.041 44.9108 154.725 49.3726 153.067 54.8828C152.677 56.1507 152.287 57.4429 150.995 58.345C151.824 55.3461 152.336 52.2252 153.555 49.397C155.359 45.1302 158.382 41.6436 161.723 38.4497C161.893 38.3034 162.064 38.1571 162.259 38.0596Z" fill="#3D3D3D"/>
<path d="M15.7508 79.9713C9.48478 88.578 12.3618 101.866 12.8494 104.06C13.5809 107.327 14.9219 110.375 16.7992 112.179C14.3855 111.302 11.9229 109.4 10.0699 105.986C8.1438 102.232 7.04663 98.3063 7.04663 94.0882C7.14416 88.9194 8.31447 84.0431 11.606 80.2152C14.995 76.241 18.7985 74.6318 22.6264 75.6314C20.1883 76.3873 17.4575 77.5332 15.7508 79.9713Z" fill="#FFCB5F"/>
<path d="M58.4185 97.0385C60.7104 91.2113 65.0259 87.4565 70.8287 87.2615C71.0969 87.2615 72.1941 87.676 72.4623 87.676C71.0969 88.4318 69.439 89.3583 68.2931 90.4555C58.4185 99.8667 62.344 119.031 70.1948 126.662C70.6581 127.296 71.0969 127.759 71.5114 128.125C69.3171 127.735 67.269 126.93 65.6598 125.687C59.1987 120.664 56.98 113.74 56.6874 105.913C56.6631 102.817 57.297 99.8667 58.4185 97.0385Z" fill="#FFCB5F"/>
<path d="M93.9909 131.514C100.818 125.126 104.158 117.129 102.793 107.669C101.476 98.5989 97.7457 90.748 89.7729 85.6766C94.5761 87.2127 99.4768 88.895 100.964 89.919C102.159 90.748 103.67 91.0406 104.792 92.0158C105.328 92.4791 124.492 94.5515 125.687 94.5271C128.637 94.4296 130.1 96.0144 131.148 98.5501C135.537 109.18 133.977 118.177 130.002 126.199C128.393 129.417 125.76 131.002 122.103 130.904C116.836 130.758 111.546 130.734 106.279 130.612C105.036 130.587 103.792 130.514 102.72 131.294C100.233 133.099 97.4531 134.245 94.5761 135.269C88.7733 136.512 84.3602 135.878 80.9712 135.025C86.6033 135.269 91.6503 133.708 93.9909 131.514Z" fill="#FFC958"/>
<path d="M43.4482 103.426C43.9115 101.427 44.1553 99.4034 44.2285 97.4773C44.3991 97.5017 44.5698 97.5017 44.7405 97.4042C46.1058 96.7702 48.6903 97.3798 50.0069 97.7699C52.0793 98.3794 53.5666 99.0133 55.127 100.525C55.2733 100.671 55.444 100.744 55.6146 100.769C55.1514 103.378 55.1026 105.938 55.3464 108.376C52.25 105.401 47.715 103.695 43.4482 103.426Z" fill="#39485D"/>
<path d="M64.148 102.988C65.0501 97.3798 68.2929 91.8208 72.8522 88.7975C73.5837 88.3099 74.437 88.3587 75.2172 87.9442C75.2416 87.9442 75.2416 87.9198 75.266 87.9198C79.8497 88.6269 83.9946 90.9187 87.0179 95.1611C88.8709 97.7699 89.9681 100.671 90.7239 103.743C92.8451 112.301 89.6511 121.201 82.7267 126.053C80.2886 127.759 76.9727 128.515 73.7056 128.369C69.5363 124.419 63.5385 118.957 64.148 102.988Z" fill="#92B700" fill-opacity="0.17"/>
<path d="M43.0093 105.06C47.4712 105.255 52.7132 107.254 55.4439 110.838C55.5414 110.96 55.6634 111.058 55.7853 111.107C56.5167 114.837 57.8821 118.153 59.4669 120.737C57.9796 119.811 56.5899 118.836 54.7125 118.64C51.7379 118.348 48.6659 118.567 45.6913 118.64C42.5217 118.689 39.3521 118.762 36.1825 118.762C34.427 118.762 32.7447 118.665 31.0136 118.25C30.5016 118.128 29.9165 118.055 29.3313 117.958C37.3772 116.08 41.2782 110.814 43.0093 105.06Z" fill="#FFC958"/>
<path d="M66.0742 87.0907C61.6124 88.9681 58.2965 92.1621 56.5654 97.0871C56.346 97.7455 56.1753 98.4038 56.0047 99.0377C54.176 97.3797 52.3474 96.5751 49.8361 95.99C48.1538 95.5999 45.9595 95.2098 44.2771 95.8193C44.3015 90.5285 43.2775 86.3105 43.1556 85.9204C42.2778 83.4579 41.0832 81.0929 39.4496 79.0448C37.5722 76.631 32.9153 74.3879 28.0146 73.6077C28.6973 73.5833 29.38 73.6077 29.9896 73.6077C31.3793 73.5833 34.5245 72.5106 40.815 74.9487C44.716 76.5579 48.1538 78.8741 51.6404 81.166C55.5414 83.7017 59.9788 84.9208 64.7089 85.1158C64.8308 85.189 64.9771 85.2377 65.1477 85.2133C66.9276 85.1646 68.7074 84.872 70.4873 84.7501C68.9269 85.3352 67.4152 86.0911 66.0742 87.0907Z" fill="#FFC958"/>
<path d="M97.502 96.9165C98.6723 99.3303 99.9402 102.159 100.452 104.816C102.427 114.91 100.33 123.127 92.8208 129.978C89.0416 133.416 82.7024 133.659 77.7042 132.879C72.8279 132.123 70.0728 130.368 68.2686 128.71C70.9505 129.88 73.9738 130.295 77.3141 129.978C79.2402 129.807 81.0201 129.246 82.7024 128.247C91.4554 123.029 94.7957 113.813 92.8451 103.938C91.6261 97.7942 88.0907 91.9914 82.3611 88.8706C79.1671 87.1395 73.9738 86.213 70.6823 86.1155C72.4134 85.0915 77.3385 84.8477 79.4597 84.8477C88.3102 85.1402 93.8448 89.3339 97.502 96.9165Z" fill="#FFD986"/>
<path d="M42.6924 96.6483C42.7899 99.2328 42.5461 101.525 41.9853 103.597C41.7903 103.792 41.7172 104.085 41.7659 104.353C40.3762 108.815 37.4016 112.204 32.7691 115.032C28.99 117.324 24.3087 117.519 19.7981 115.91C18.701 115.52 17.36 114.642 15.9946 113.642C19.0911 114.813 23.6992 114.837 26.1861 113.081C30.9405 109.741 33.4518 104.475 34.9635 99.1109C36.4507 93.7713 36.0363 88.8706 33.9151 83.7017C32.2084 79.5325 28.478 76.1678 24.3819 74.7537C28.5267 74.4367 34.1345 75.7046 37.1578 78.9473C41.4002 83.5311 42.3023 85.8717 42.6924 96.6483Z" fill="#FFD986"/>
<path d="M28.6486 79.2886C32.2814 82.3363 33.3298 86.6275 33.7199 90.9918C34.427 99.2327 31.4524 106.108 25.0645 111.423C24.0161 112.301 22.0655 112.935 19.8712 112.813C18.262 110.911 16.4822 109.814 15.5801 107.01C13.4832 100.452 13.2638 92.0402 14.9705 85.0183C16.0189 80.7271 22.1387 75.5339 25.674 77.3381C26.5517 77.8989 27.6733 78.484 28.6486 79.2886Z" fill="#92B700" fill-opacity="0.17"/>
<path d="M154.774 116.446C156.676 110.96 154.091 101.866 149.093 98.5988C147.655 97.6723 145.948 99.0133 144.753 99.696C143.681 100.281 142.51 100.549 141.316 100.671C138.682 100.939 136.195 99.6716 133.635 99.4765C136.464 107.132 135.732 115.715 132.977 123.639C135.098 123.956 139.121 123.541 140.682 124.906C142.291 126.321 142.169 127.954 144.973 127.345C149.727 126.345 153.311 120.664 154.774 116.446ZM143.242 118.007C146.363 111.204 144.948 108.156 142.583 101.281C147.46 104.792 147.63 115.251 143.242 118.007Z" fill="#FFD986"/>
<path d="M8.72896 84.9452C8.36323 86.5056 8.19256 88.1392 8.21694 89.8703C8.21694 92.6985 8.43638 95.8194 9.67984 98.4038C10.5088 100.159 11.4841 101.671 12.6056 102.939C12.7031 103.451 12.8007 103.841 12.8494 104.085C13.5809 107.352 14.9219 110.4 16.7992 112.204C14.3855 111.326 11.9229 109.424 10.0699 106.011C8.1438 102.256 7.04663 98.3307 7.04663 94.1126C7.09539 90.8699 7.58302 87.7491 8.72896 84.9452Z" fill="#FFBF45"/>
<path d="M58.0284 98.1356C57.8821 99.3059 57.8821 100.525 58.004 101.744C58.6379 107.644 60.0764 115.105 65.1234 118.933C66.44 122.03 68.1955 124.711 70.1948 126.662C70.658 127.296 71.0969 127.759 71.5114 128.125C69.317 127.735 67.269 126.93 65.6598 125.687C59.1987 120.664 56.98 113.74 56.6874 105.913C56.663 103.207 57.1506 100.623 58.0284 98.1356Z" fill="#FFBF45"/>
<path d="M93.9911 131.514C97.1119 128.588 99.5013 125.345 101.037 121.761C105.012 123.249 109.23 124.126 113.35 124.468C117.129 124.76 120.908 125.004 124.663 124.297C127.199 123.809 129.393 123.249 131.587 122.493C131.1 123.761 130.563 125.004 129.954 126.223C128.345 129.441 125.711 131.026 122.054 130.929C116.788 130.782 111.497 130.758 106.231 130.636C104.987 130.612 103.744 130.539 102.671 131.319C100.184 133.123 97.4045 134.269 94.5275 135.293C88.7247 136.536 84.3116 135.903 80.9226 135.049C86.6035 135.269 91.6505 133.708 93.9911 131.514Z" fill="#FFBD3B"/>
<path d="M43.4482 103.426C43.9115 101.427 44.1553 99.4034 44.2285 97.4773C44.3991 97.5017 44.5698 97.5017 44.7405 97.4042C46.1058 96.7702 48.6903 97.3798 50.0069 97.7699C52.0793 98.3794 53.5666 99.0133 55.127 100.525C55.2733 100.671 55.444 100.744 55.6146 100.769C55.1514 103.378 55.1026 105.938 55.3464 108.376C52.25 105.401 47.715 103.695 43.4482 103.426Z" fill="#2C3D51"/>
<path d="M78.1186 88.578C81.5564 89.6752 84.6529 91.8208 87.0179 95.1366C88.8709 97.7455 89.9681 100.647 90.7239 103.719C92.8451 112.277 89.6511 121.176 82.7267 126.028C80.2886 127.735 76.9727 128.491 73.7056 128.344C73.2423 127.905 72.7303 127.418 72.2427 126.93C86.3596 120.713 90.0656 98.9158 78.1186 88.578Z" fill="#92B700" fill-opacity="0.3"/>
<path d="M43.0093 105.06C43.5214 105.084 44.0577 105.133 44.5941 105.206C45.5694 107.206 46.7885 109.083 48.4464 110.448C50.9821 112.545 53.5665 113.618 56.5411 114.105C57.2969 116.617 58.3209 118.86 59.4669 120.737C57.9796 119.811 56.5899 118.836 54.7125 118.64C51.7379 118.348 48.6659 118.567 45.6913 118.64C42.5217 118.689 39.3521 118.762 36.1825 118.762C34.427 118.762 32.7447 118.665 31.0136 118.25C30.5016 118.128 29.9165 118.055 29.3313 117.958C37.3772 116.08 41.2782 110.814 43.0093 105.06Z" fill="#FFBD3B"/>
<path d="M35.451 73.5102C36.2556 74.7293 37.0602 75.9484 37.8404 77.1919C37.9867 77.4113 38.1086 77.6307 38.2549 77.8502C35.963 75.924 32.0864 74.2661 28.0146 73.6078C28.6973 73.5834 29.38 73.6078 29.9896 73.6078C30.9161 73.5834 32.5984 73.1201 35.451 73.5102Z" fill="#FFBD3B"/>
<path d="M77.2897 129.978C79.0939 129.807 80.7763 129.295 82.3854 128.417C87.0423 128.808 91.8211 128.003 96.2098 126.296C95.2345 127.564 94.113 128.783 92.7964 129.953C89.0172 133.391 82.678 133.635 77.6798 132.855C72.8035 132.099 70.0484 130.344 68.2441 128.686C70.9505 129.856 73.9494 130.295 77.2897 129.978Z" fill="#FFCC65"/>
<path d="M26.1617 113.106C26.5518 112.838 26.9176 112.545 27.2833 112.228C32.0864 111.277 36.6458 109.083 40.2055 105.694C40.7419 105.182 41.2539 104.621 41.7659 104.036C41.7415 104.133 41.7415 104.255 41.7659 104.353C40.3762 108.815 37.4016 112.204 32.7691 115.032C28.99 117.324 24.3087 117.519 19.7981 115.91C18.701 115.52 17.36 114.642 15.9946 113.642C19.0911 114.837 23.6992 114.837 26.1617 113.106Z" fill="#FFCC65"/>
<path d="M26.8201 99.2815C28.5999 92.2352 27.8928 84.8964 26.5275 77.8501C27.2345 78.2646 27.966 78.7035 28.6487 79.2886C32.2815 82.3363 33.3299 86.6275 33.72 90.9918C34.4271 99.2327 31.4526 106.108 25.0646 111.423C24.0162 112.301 22.0657 112.935 19.8713 112.813C19.6763 112.594 19.5056 112.399 19.3105 112.179C23.0165 108.62 25.4791 104.499 26.8201 99.2815Z" fill="#92B700" fill-opacity="0.3"/>
<path d="M142.047 120.079C145.582 121.176 149.703 120.957 153.36 119.665C151.531 123.127 148.581 126.589 144.973 127.369C142.169 127.954 142.291 126.345 140.682 124.931C139.121 123.566 135.074 123.98 132.977 123.663C133.855 121.152 134.513 118.592 134.928 116.007C136.854 117.909 139.316 119.226 142.047 120.079Z" fill="#FFCC65"/>
<path d="M75.4854 89.0657C77.4115 89.0657 72.5596 93.3812 69.195 101.573C65.5377 110.521 69.6826 119.104 69.0243 118.007C59.4667 101.939 72.267 89.0657 75.4854 89.0657Z" fill="white"/>
<path d="M23.4554 77.7039C25.2597 77.7039 21.5293 80.8247 18.3841 88.3586C14.9463 96.5752 17.9452 105.353 17.4088 104.28C10.2163 90.4554 20.4321 77.7039 23.4554 77.7039Z" fill="white"/>
<path d="M156.554 116.251C158.114 110.009 155.579 101.768 150.581 97.5992C148.289 95.6975 146.119 97.1604 143.9 98.2575C140.17 100.086 136.732 97.7455 132.953 97.7943C132.587 96.9166 132.173 96.0388 131.734 95.1611C130.978 93.6982 129.832 93.0399 128.223 93.0155C120.664 92.9667 114.203 91.1625 106.694 90.748C105.523 90.6749 103.768 89.6021 102.768 89.0901C99.8913 87.6516 90.5045 82.9947 82.7267 83.4092C85.2624 83.6774 87.3592 84.2625 88.5052 84.8965C88.944 85.1403 89.3585 85.4085 89.773 85.6523C94.5762 87.1883 99.4769 88.8706 100.964 89.8947C102.159 90.7236 103.67 91.0162 104.792 91.9915C105.328 92.4547 124.492 94.5272 125.687 94.5028C128.637 94.4053 130.1 95.9901 131.148 98.5257C135.537 109.156 133.977 118.153 130.003 126.174C128.393 129.393 125.76 130.978 122.103 130.88C116.837 130.734 111.546 130.709 106.279 130.587C105.036 130.563 103.792 130.49 102.72 131.27C100.233 133.074 97.4532 134.22 94.5762 135.244C88.7734 136.488 84.3603 135.854 80.9713 135.001C78.7769 134.903 76.5095 134.488 74.2664 133.757C76.0218 134.976 78.7282 136.975 90.4557 137.658C94.2105 136.854 97.8677 136.512 101.135 134.488C103.841 132.806 104.207 132.319 107.279 132.221C110.887 132.099 116.958 132.367 120.518 132.66C126.784 133.172 129.515 131.295 131.807 125.589C131.856 125.467 133.148 125.345 133.197 125.224C135.147 125.589 137.268 125.37 139.097 125.979C140.292 126.369 140.413 127.003 141.145 127.881C142.486 129.49 145.509 129.368 147.289 128.613C152.165 126.467 155.286 121.322 156.554 116.251ZM154.774 116.446C153.311 120.664 149.752 126.345 144.973 127.369C142.169 127.954 142.291 126.345 140.682 124.931C139.121 123.566 135.074 123.98 132.977 123.663C135.732 115.739 136.464 107.157 133.635 99.501C136.22 99.696 138.682 100.964 141.316 100.696C142.51 100.574 143.681 100.33 144.753 99.7204C145.948 99.0377 147.655 97.6968 149.093 98.6233C154.092 101.866 156.676 110.96 154.774 116.446Z" fill="#3D3D3D"/>
<path d="M28.0147 65.1718C35.1829 65.0011 42.1072 66.1227 48.5684 69.4386C49.7143 70.0237 51.0309 70.487 51.3235 72.9495C42.5217 66.5859 32.9642 66.0495 23.3091 65.7082C24.8939 65.3912 26.4543 65.1962 28.0147 65.1718Z" fill="#3D3D3D"/>
<path d="M143.242 118.006C146.363 111.204 144.949 108.156 142.583 101.281C147.46 104.792 147.63 115.251 143.242 118.006Z" fill="#3D3D3D"/>
<path d="M0.0245771 97.8186C-0.024186 96.2582 -0.121712 94.6002 2.09701 92.9667C0.0245772 99.2571 3.46237 103.914 4.85212 109.497C2.65778 106.523 0.0733402 100.257 0.0245771 97.8186Z" fill="#3D3D3D"/>
<path d="M88.0492 84.9714C86.9032 84.3131 84.8064 83.7524 82.2707 83.4842C80.1739 83.2647 77.7601 83.2404 75.322 83.5573C75.2001 83.4354 66.4715 83.5817 64.716 83.6305C64.5454 83.6305 64.4235 83.6792 64.3015 83.7524C64.1309 83.728 63.9358 83.7036 63.7651 83.7036C57.2553 83.411 51.7207 80.7534 46.6981 76.7793C45.3327 75.7065 39.6274 71.9517 31.8741 72.0005C29.2897 72.0249 23.8526 73.3171 23.8282 73.3902C22.4872 73.4146 21.1462 73.5609 19.9028 73.8778C19.4395 73.9998 18.2692 74.2192 18.2936 74.268C8.51659 75.804 4.83498 87.1414 5.00565 95.7481C5.37137 100.771 6.22472 106.086 10.4915 110.279C13.5392 114.79 20.0491 118.618 25.5593 118.52C25.608 118.667 28.2413 119.471 29.4116 119.764C30.7282 120.081 32.0204 120.373 33.3858 120.447C36.5554 120.593 39.725 120.495 42.8946 120.422C45.9666 120.373 49.0631 120.276 52.1352 120.3C53.8906 120.3 55.4754 120.52 57.0358 121.397C58.0599 121.983 60.5468 123.348 60.7662 123.25C61.0832 123.641 61.4245 124.031 61.7659 124.396C64.9598 129.395 69.3241 132.345 73.8591 133.832C76.1022 134.563 78.3697 134.954 80.564 135.076C86.1962 135.344 91.2431 133.783 93.5838 131.589C100.411 125.201 103.751 117.204 102.385 107.744C101.069 98.6739 97.3385 90.823 89.3658 85.7517C88.9025 85.4591 88.4636 85.2153 88.0492 84.9714ZM56.2313 105.94C56.2069 102.867 56.8652 99.9173 57.9623 97.0891C60.2542 91.2619 64.5697 87.5071 70.3726 87.3121C70.6407 87.3121 71.7379 87.7266 72.0061 87.7266C70.6407 88.4824 68.9828 89.4089 67.8369 90.5061C57.9623 99.9173 61.8878 119.081 69.7386 126.713C70.2019 127.347 70.6407 127.81 71.0552 128.176C68.8609 127.785 66.8128 126.981 65.2037 125.737C58.7182 120.69 56.4995 113.766 56.2313 105.94ZM63.692 103.038C64.5941 97.4304 67.8369 91.8714 72.3962 88.8481C73.1277 88.3605 73.981 88.4092 74.7612 87.9948C74.7856 87.9948 74.7856 87.9704 74.81 87.9704C79.3937 88.6774 83.5386 90.9693 86.5619 95.2117C88.4149 97.8205 89.5121 100.722 90.2679 103.794C92.3891 112.352 89.1951 121.251 82.2707 126.103C79.8326 127.81 76.5167 128.566 73.2496 128.419C69.0803 124.47 63.0825 119.008 63.692 103.038ZM28.8752 118.008C36.9211 116.131 40.8221 110.865 42.5532 105.111C47.015 105.306 52.2571 107.305 54.9878 110.889C55.0853 111.011 55.2072 111.108 55.3291 111.157C56.0606 114.888 57.4259 118.203 59.0107 120.788C57.5235 119.861 56.1337 118.886 54.2563 118.691C51.2818 118.399 48.2097 118.618 45.2352 118.691C42.0656 118.74 38.896 118.813 35.7264 118.813C33.9709 118.813 32.2886 118.715 30.5575 118.301C30.0455 118.179 29.4603 118.106 28.8752 118.008ZM54.9146 108.426C51.7694 105.452 47.2588 103.77 42.9921 103.501C43.4553 101.502 43.6991 99.4785 43.7723 97.5523C43.943 97.5767 44.1136 97.5767 44.2843 97.4792C45.6497 96.8453 48.2341 97.4548 49.5507 97.8449C51.6231 98.4544 53.1104 99.0884 54.6708 100.6C54.8171 100.746 54.9878 100.819 55.1585 100.844C54.744 103.428 54.6708 105.988 54.9146 108.426ZM22.1702 75.6821C19.7077 76.4379 17.0014 77.6082 15.2947 80.0464C9.0286 88.6531 11.9056 101.941 12.3933 104.135C13.1247 107.402 14.4657 110.45 16.3431 112.254C13.9293 111.377 11.4668 109.475 9.61376 106.061C7.68762 102.307 6.59045 98.3813 6.59045 94.1633C6.68797 88.9944 7.85829 84.1181 11.1498 80.2902C14.5388 76.2916 18.3423 74.6824 22.1702 75.6821ZM25.1936 77.3888C26.0957 77.9496 27.2172 78.5347 28.1681 79.3393C31.801 82.387 32.8494 86.6782 33.2395 91.0425C33.9465 99.2834 30.972 106.159 24.584 111.474C23.5356 112.352 21.5851 112.986 19.3908 112.864C17.7816 110.962 16.0017 109.865 15.0996 107.061C13.0028 100.502 12.7834 92.0909 14.4901 85.069C15.5385 80.7778 21.6582 75.5846 25.1936 77.3888ZM36.6773 79.0224C40.944 83.6061 41.8461 85.9223 42.2363 96.699C42.3338 99.2834 42.09 101.575 41.5292 103.648C41.3341 103.843 41.261 104.135 41.3098 104.404C39.92 108.865 36.9455 112.254 32.313 115.083C28.5338 117.375 23.8526 117.57 19.342 115.96C18.2448 115.57 16.9038 114.693 15.5385 113.693C18.6349 114.863 23.243 114.888 25.73 113.132C30.4844 109.792 32.9956 104.525 34.5073 99.1615C35.9946 93.8219 35.5801 88.9213 33.4589 83.7524C31.7522 79.5831 28.0218 76.2185 23.9257 74.8043C28.0462 74.5118 33.654 75.7796 36.6773 79.0224ZM70.0312 84.8008C68.4708 85.3859 66.9591 86.1418 65.6181 87.1414C61.1563 89.0188 57.8404 92.2128 56.1093 97.1378C55.8899 97.7961 55.7192 98.4544 55.5486 99.0884C53.72 97.4304 51.8913 96.6258 49.38 96.0407C47.6977 95.6506 45.5034 95.2605 43.8211 95.87C43.8454 90.5792 42.8214 86.3612 42.6995 85.9711C41.8218 83.5086 40.6271 81.1435 38.9935 79.0955C37.1161 76.6817 32.4593 74.4386 27.5586 73.6584C28.2413 73.634 28.9239 73.6584 29.5335 73.6584C30.9232 73.634 34.0684 72.5612 40.3589 74.9994C44.2599 76.6086 47.6977 78.9248 51.1843 81.2167C55.0853 83.7524 59.5228 84.9714 64.2528 85.1665C64.3747 85.2396 64.521 85.2884 64.6917 85.264C66.4715 85.2153 68.2514 84.9227 70.0312 84.8008ZM97.0459 96.9672C98.2163 99.3809 99.4841 102.209 99.9961 104.867C101.971 114.961 99.8742 123.177 92.3647 130.029C88.5856 133.466 82.2464 133.71 77.2481 132.93C72.3718 132.174 69.6167 130.419 67.8125 128.761C70.4945 129.931 73.5178 130.345 76.858 130.029C78.7842 129.858 80.564 129.297 82.2464 128.297C90.9993 123.08 94.3396 113.864 92.3891 103.989C91.17 97.8449 87.6347 92.0421 81.905 88.9213C78.711 87.1902 73.5178 86.2637 70.2263 86.1661C71.9573 85.1421 76.8824 84.8983 79.0036 84.8983C87.8541 85.1909 93.3887 89.3845 97.0459 96.9672Z" fill="#3D3D3D"/>
</g>
<defs>
<clipPath id="clip0">
<rect width="356.019" height="191.2" fill="white"/>
</clipPath>
</defs>
</svg>
