<svg width="138" height="130" viewBox="0 0 138 130" fill="none" xmlns="http://www.w3.org/2000/svg">
<g clip-path="url(#clip0)">
<path opacity="0.3" d="M120.052 129.451H14.0988C-3.41765 113.399 -0.121857 79.5869 0.915695 42.3569C2.44151 -11.9624 73.6669 1.52587 73.6669 1.52587C152.399 3.78409 137.08 31.8592 135.92 86.1785C135.371 110.897 130.672 123.042 120.052 129.451Z" fill="#92B700"/>
<path d="M124.629 38.939C124.568 46.8122 119.442 54.0141 111.935 56.5164C104.611 58.9578 96.1881 56.5775 91.2444 50.7183C86.1177 44.615 85.4463 35.6432 89.7186 28.8686C93.9299 22.216 101.986 18.9812 109.676 20.6902C117.183 22.277 123.226 28.4413 124.385 36.0704C124.568 37.047 124.629 38.0235 124.629 38.939C124.629 39.061 123.775 38.939 123.775 38.6949C123.714 31.1878 119.014 24.169 111.935 21.5446C104.733 18.9202 96.4322 21.4836 91.6716 27.4648C86.9721 33.324 86.4228 41.7465 90.2069 48.216C94.174 54.9296 102.047 58.4085 109.676 56.5775C116.878 54.9296 122.493 48.8263 123.592 41.5024C123.714 40.5869 123.775 39.6714 123.775 38.7559C123.775 38.6338 124.629 38.6948 124.629 38.939Z" fill="black"/>
<path d="M105.77 55.4789C96.6017 55.4789 89.1692 48.0464 89.1692 38.8779C89.1692 29.7095 96.6017 22.277 105.77 22.277C114.939 22.277 122.371 29.7095 122.371 38.8779C122.371 48.0464 114.939 55.4789 105.77 55.4789Z" fill="black"/>
<path d="M106.32 29.723L106.198 32.3474C106.137 33.2019 106.076 34.1174 106.076 34.9718C106.015 36.7418 105.954 38.5118 105.832 40.2207L106.442 39.6714C106.137 39.6714 105.832 39.6103 105.587 39.6103C105.282 39.6103 104.977 39.5493 104.733 39.5493C104.123 39.5493 103.573 39.5493 102.963 39.5493C102.353 39.5493 101.803 39.6103 101.193 39.6714C100.888 39.7324 100.583 39.7324 100.339 39.7934C100.033 39.8545 99.7283 39.8545 99.4842 39.9155V40.0376C99.7893 40.0986 100.094 40.1596 100.339 40.2207C100.644 40.2817 100.949 40.3427 101.193 40.4038C101.803 40.5258 102.353 40.5869 102.963 40.6479C103.573 40.7089 104.123 40.77 104.733 40.77C105.038 40.77 105.343 40.77 105.587 40.77C105.893 40.77 106.198 40.77 106.442 40.77H107.052V40.2207C106.93 38.4507 106.93 36.6808 106.808 34.9718C106.808 34.1174 106.747 33.2019 106.686 32.3474L106.564 29.723H106.32Z" fill="#92B700"/>
<path d="M106.93 24.108C106.93 25.0235 106.93 25.878 106.93 26.7935C106.93 26.9155 106.93 27.0376 106.93 27.1597C106.93 27.2207 106.808 27.2817 106.747 27.2817C106.625 27.2817 106.503 27.2817 106.442 27.2817C106.259 27.2207 106.076 27.1597 106.076 26.9766C106.076 26.0611 106.076 25.2066 106.076 24.2911C106.076 24.1691 106.076 24.047 106.076 23.9249C106.076 23.8639 106.198 23.8029 106.259 23.8029C106.381 23.8029 106.503 23.8029 106.564 23.8029C106.686 23.8029 106.93 23.9249 106.93 24.108Z" fill="#92B700"/>
<path d="M116.695 29.1737C116.085 29.7841 115.414 30.4554 114.803 31.0658C114.742 31.1268 114.62 31.2489 114.559 31.3099C114.437 31.432 114.132 31.3709 113.949 31.3099C113.827 31.2489 113.583 31.1268 113.705 31.0047C114.315 30.3944 114.986 29.723 115.597 29.1127C115.658 29.0517 115.78 28.9296 115.841 28.8686C115.963 28.7465 116.268 28.8075 116.451 28.8686C116.573 28.8686 116.878 29.0517 116.695 29.1737Z" fill="#92B700"/>
<path d="M120.602 39.8545C119.686 39.8545 118.832 39.8545 117.916 39.8545C117.794 39.8545 117.672 39.8545 117.55 39.8545C117.367 39.8545 117.062 39.7934 116.94 39.6103C116.818 39.4272 117.062 39.3662 117.184 39.3662C118.099 39.3662 118.954 39.3662 119.869 39.3662C119.991 39.3662 120.113 39.3662 120.235 39.3662C120.419 39.3662 120.724 39.4272 120.846 39.6103C120.907 39.7934 120.724 39.8545 120.602 39.8545Z" fill="#92B700"/>
<path d="M116.269 49.1925C115.658 48.5822 114.987 47.9108 114.377 47.3005C114.316 47.2395 114.194 47.1174 114.133 47.0564C114.072 46.9954 114.01 46.9343 114.072 46.8733C114.072 46.8123 114.194 46.7512 114.255 46.7512C114.438 46.7512 114.743 46.7512 114.865 46.9343C115.475 47.5446 116.147 48.216 116.757 48.8263C116.818 48.8874 116.94 49.0094 117.001 49.0705C117.062 49.1315 117.123 49.1925 117.062 49.2536C117.062 49.3146 116.94 49.3756 116.879 49.3756C116.696 49.3756 116.391 49.3146 116.269 49.1925Z" fill="#92B700"/>
<path d="M105.649 52.4273C105.649 51.5118 105.649 50.6573 105.649 49.7418C105.649 49.6197 105.649 49.4977 105.649 49.3756C105.649 49.3146 105.771 49.2535 105.832 49.2535C105.954 49.2535 106.076 49.2535 106.137 49.2535C106.32 49.3146 106.503 49.3756 106.503 49.5587C106.503 50.4742 106.503 51.3287 106.503 52.2442C106.503 52.3662 106.503 52.4883 106.503 52.6103C106.503 52.6714 106.381 52.7324 106.32 52.7324C106.198 52.7324 106.076 52.7324 106.015 52.7324C105.893 52.6714 105.649 52.6104 105.649 52.4273Z" fill="#92B700"/>
<path d="M95.2735 47.7277C95.8838 47.1174 96.5552 46.4461 97.1655 45.8357C97.2265 45.7747 97.3486 45.6526 97.4096 45.5916C97.5317 45.4695 97.8369 45.5306 98.02 45.5916C98.142 45.6526 98.3862 45.7747 98.2641 45.8968C97.6538 46.5071 96.9824 47.1785 96.3721 47.7888C96.311 47.8498 96.189 47.9719 96.1279 48.0329C96.0059 48.155 95.7007 48.0939 95.5176 48.0329C95.4566 48.0329 95.1514 47.8498 95.2735 47.7277Z" fill="#92B700"/>
<path d="M90.5728 39C91.4883 39 92.3428 39 93.2583 39C93.3803 39 93.5024 39 93.6245 39C93.8076 39 94.1127 39.061 94.2348 39.2441C94.3569 39.4272 94.1127 39.4883 93.9907 39.4883C93.0752 39.4883 92.2207 39.4883 91.3052 39.4883C91.1832 39.4883 91.0611 39.4883 90.939 39.4883C90.7559 39.4883 90.4508 39.4272 90.3287 39.2441C90.2066 39.061 90.4508 39 90.5728 39Z" fill="#92B700"/>
<path d="M96.1271 29.3568C96.7375 29.9671 97.4088 30.6385 98.0192 31.2488C98.0802 31.3099 98.2023 31.4319 98.2633 31.493C98.3243 31.554 98.3854 31.615 98.3243 31.6761C98.3243 31.7371 98.2023 31.7981 98.1412 31.7981C97.9581 31.7981 97.653 31.7981 97.5309 31.615C96.9206 31.0047 96.2492 30.3333 95.6389 29.723C95.5779 29.662 95.4558 29.5399 95.3948 29.4789C95.3337 29.4178 95.2727 29.3568 95.3337 29.2958C95.3337 29.2347 95.4558 29.1737 95.5168 29.1737C95.6999 29.1737 96.0051 29.2347 96.1271 29.3568Z" fill="#92B700"/>
<path d="M27.3438 81.1737C27.3438 81.1737 25.3297 72.9343 36.0715 69.2113C46.7522 65.4883 46.0198 67.1972 42.7851 44.0657L58.9588 42.601C58.9588 42.601 59.4471 63.5352 64.2076 64.7559C68.9682 65.9765 81.7851 60.3005 88.5597 73.9718C95.2733 87.6432 92.9541 122.127 92.9541 122.127L43.5785 129.023C43.5785 128.962 27.5879 96.3709 27.3438 81.1737Z" fill="#FFAFA4"/>
<path d="M62.9268 64.2066C63.0488 64.2066 63.1099 64.1456 63.2319 64.1456C59.4479 60.4836 59.0207 42.601 59.0207 42.601L42.847 44.0657C43.8235 51.0235 44.5559 55.723 44.861 59.0188C48.0348 61.0329 54.6873 64.4507 62.9268 64.2066Z" fill="#EA8D83"/>
<path d="M88.8042 83.4929C83.7995 89.5352 78.5507 95.4554 73.2409 101.254C64.6352 110.714 55.6634 119.807 46.3864 128.596L92.9545 122.066C92.9545 122.066 94.6634 96.7371 90.8794 80.8685C90.208 81.723 89.5366 82.6385 88.8042 83.4929Z" fill="#EA8D83"/>
<path d="M42.1138 129.39C42.1138 129.39 26.3673 95.0282 26.0011 83.554C25.696 72.0798 40.2828 66.6479 40.2828 66.6479C40.2828 66.6479 42.3579 76.9014 57.372 74.3991C69.0293 72.446 66.7101 63.5352 66.7101 63.5352C66.7101 63.5352 80.1983 61.9484 87.1561 69.9437C89.2312 72.324 92.588 79.2207 93.8087 86.9719C94.0528 88.4977 87.095 89.3521 87.095 89.3521L91.3673 117.061L95.2734 129.573L42.1138 129.39Z" fill="white"/>
<path opacity="0.1" d="M71.8368 111.141C59.8744 107.235 49.9871 100.399 41.3204 91.3052C36.6209 86.3615 32.2875 81.0517 28.0763 75.6808C26.7946 77.7559 25.8791 80.3803 26.0011 83.554C26.3063 95.0282 42.1138 129.39 42.1138 129.39L95.2734 129.573C95.2734 129.573 95.1514 123.653 94.6631 115.474C86.9119 114.803 79.2218 113.521 71.8368 111.141Z" fill="#002838"/>
<path d="M25.085 96.3098C25.085 96.3098 22.5216 127.864 26.977 129.451C31.4324 130.977 69.4559 125.545 69.4559 125.545C69.4559 125.545 79.3432 136.469 71.1648 124.324C71.1648 124.324 83.1272 135.92 73.362 123.653C73.362 123.653 86.4841 131.526 74.8878 121.944C74.8878 121.944 86.301 124.995 73.362 119.563C66.038 116.512 40.5873 114.62 40.5873 114.62L42.7845 96.554L25.2071 90.3896L25.085 96.3098Z" fill="#FFAFA4"/>
<path d="M40.6479 114.559C33.1409 115.413 23.2536 118.404 23.2536 118.404C23.2536 118.404 18.0658 68.9671 38.2676 67.2582C38.2676 67.2582 47.9719 79.6478 45.6526 89.0469C44.0047 95.6385 43.4554 114.253 40.6479 114.559Z" fill="white"/>
<path d="M40.771 43.0282C40.771 43.0282 35.0339 26.1221 43.5174 19.0423C51.94 11.9625 65.0621 7.75122 69.8226 27.1597C73.1184 40.4648 76.9635 56.1503 66.4658 60.4836C55.9682 64.8169 44.616 54.6245 40.771 43.0282Z" fill="#FFAFA4"/>
<path d="M43.6395 46.568C43.6395 46.568 41.2592 37.3521 39.062 37.5352C36.8648 37.7183 35.278 39.6103 36.3766 43.0892C37.4751 46.568 44.1277 52.2441 43.6395 46.568Z" fill="#FFAFA4"/>
<path d="M30.3952 23.0704C30.7614 20.385 33.3248 19.4695 34.6675 19.4695C30.8224 4.15026 55.9069 7.9343 61.2778 8.84979C66.7708 9.76529 65.6111 3.96716 65.6111 3.96716C69.8834 6.77467 67.259 11.6573 67.259 11.6573C69.8224 10.1925 69.4562 6.71364 69.4562 6.71364C74.3999 14.0376 69.2731 20.2629 69.2731 20.2629L70.921 18.9812C68.9069 28.0751 46.9351 24.3521 45.0431 24.047C45.1651 24.108 45.2872 24.169 45.4093 24.2301C48.7661 33.0798 42.8459 35.3381 42.8459 35.3381L44.86 42.3568C46.813 48.277 49.8647 55.662 53.0384 54.9296C58.2872 53.77 52.4891 49.3756 59.1417 47.3615C63.7802 45.9578 71.4093 44.493 71.5313 52.3662C71.6534 60.1784 73.3623 48.3991 73.3623 48.3991C73.3623 48.3991 75.3764 59.385 70.921 61.5212C66.5266 63.6573 50.414 66.2207 46.5689 56.6996C45.0431 52.9766 44.1276 49.2535 43.2731 46.0798C42.968 45.4085 42.4797 44.1268 41.6863 41.7465C40.4656 37.9625 39.1229 37.9625 39.1229 37.9625C38.3905 37.8404 37.475 38.6949 37.475 38.6949C37.475 38.6949 29.4797 29.7841 30.3952 23.0704Z" fill="#01334C"/>
<path d="M30.3956 23.0704C30.7618 20.3849 33.3252 19.4694 34.6679 19.4694C32.7759 11.7793 38.1468 8.91073 44.6773 8.05627C43.9449 14.0985 44.5552 20.3239 47.912 24.5351C46.4472 24.352 45.4097 24.1689 45.0435 24.1079C45.1655 24.1689 45.2876 24.23 45.4097 24.291C48.7665 33.1408 42.8463 35.399 42.8463 35.399L44.8604 42.4178C46.8134 48.338 49.8651 55.7229 53.0388 54.9905C53.1609 54.9905 53.2219 54.9295 53.344 54.9295C53.8322 58.4084 55.4801 61.5821 58.6538 63.5351C53.5881 63.291 48.5224 61.5211 46.6303 56.6995C45.1045 52.9765 44.189 49.2535 43.3346 46.0797C43.0294 45.4084 42.5411 44.1267 41.7477 41.7464C40.5271 37.9624 39.1843 37.9624 39.1843 37.9624C38.4519 37.8403 37.5364 38.6948 37.5364 38.6948C37.5364 38.6948 29.4801 29.784 30.3956 23.0704Z" fill="#002838"/>
<path d="M61.8885 31.7981C61.8885 31.7981 62.4378 31.5539 63.2922 31.1877C63.4753 31.1267 63.7195 31.0046 63.9026 30.9436C64.0857 30.8826 64.3298 30.8215 64.5129 30.6995C64.757 30.6384 64.9401 30.5774 65.1843 30.5164C65.3063 30.5164 65.4284 30.4554 65.4894 30.4554L65.7946 30.3943C65.9777 30.3333 66.2218 30.3333 66.466 30.3333C66.7101 30.3333 66.8932 30.3333 67.1373 30.2723C67.3814 30.2723 67.5645 30.2723 67.8087 30.2723C68.0528 30.2723 68.2359 30.3333 68.48 30.3333C68.6631 30.3333 68.9073 30.3333 69.0904 30.3943C69.2735 30.3943 69.4566 30.3943 69.5786 30.4554C69.8838 30.4554 70.0669 30.4554 70.0669 30.4554C70.0669 30.4554 70.0059 30.2723 69.8838 30.0281C69.8228 29.9061 69.7007 29.723 69.5786 29.6009C69.4566 29.4178 69.3345 29.2347 69.0904 29.1126C68.9073 28.9295 68.7242 28.7464 68.419 28.6244C68.1749 28.5023 67.8697 28.3192 67.5645 28.1971C67.2594 28.1361 66.8932 28.014 66.527 28.014C66.1608 28.014 65.7946 27.953 65.4284 28.0751L64.8791 28.1971C64.696 28.2582 64.5129 28.3192 64.3908 28.3802C64.2077 28.4413 64.0857 28.5023 63.9026 28.6244C63.7805 28.6854 63.5974 28.8075 63.4753 28.8685C63.2312 29.0516 62.9871 29.2957 62.804 29.5399C62.6209 29.784 62.4378 29.9671 62.3157 30.2112C62.0716 30.6385 61.9495 31.0657 61.8885 31.3708C61.8885 31.615 61.8885 31.7981 61.8885 31.7981Z" fill="#01334C"/>
<path d="M58.2871 31.0047C58.2871 31.0047 57.9209 30.2723 57.0054 29.5399C56.5782 29.1737 55.9679 28.8075 55.2355 28.5633C54.8693 28.4413 54.5031 28.3192 54.0758 28.2582C53.6486 28.1971 53.2214 28.1971 52.7942 28.1971C52.3669 28.2582 51.9397 28.3192 51.5125 28.5023C51.0852 28.6244 50.719 28.8685 50.3528 29.1126C50.0477 29.3568 49.7425 29.6619 49.4984 29.9671C49.2542 30.2723 49.1322 30.5774 49.0101 30.8216C48.888 31.1267 48.827 31.3709 48.766 31.615C48.7049 31.8591 48.7049 32.0422 48.7049 32.2253C48.7049 32.5915 48.7049 32.7746 48.7049 32.7746C48.7049 32.7746 48.888 32.6525 49.1322 32.4084C49.2542 32.2863 49.4373 32.1643 49.5594 32.0422C49.7425 31.9201 49.9256 31.737 50.1087 31.615C50.5359 31.3098 50.9632 31.0657 51.4514 30.8216C51.5735 30.7605 51.6956 30.7605 51.8176 30.6995C51.9397 30.6995 52.0618 30.6385 52.1838 30.5774C52.428 30.5164 52.7331 30.4554 52.9772 30.4554C54.0758 30.3333 55.3575 30.5774 56.3951 30.7605C56.9444 30.8216 57.3716 30.9436 57.6768 30.9436C58.104 30.9436 58.2871 31.0047 58.2871 31.0047Z" fill="#01334C"/>
<path d="M41.9912 47.5446C41.7471 47.4225 41.564 47.3005 41.3809 47.1174C41.1978 46.9343 41.0757 46.7512 41.0147 46.5681C41.0147 46.507 41.0147 46.507 41.0147 46.446C41.0147 46.385 41.0147 46.385 41.0147 46.3239L41.0757 46.2019L41.1368 46.0798C41.1978 46.0188 41.2588 45.8967 41.3199 45.8357L41.564 45.5916L41.686 45.4695V45.2864C41.625 44.8592 41.564 44.4319 41.4419 44.0047C41.3809 43.5775 41.2588 43.1502 41.1368 42.784C40.8926 41.9906 40.5875 41.1362 40.1602 40.4038C39.9161 40.0376 39.672 39.6103 39.2447 39.3052C39.0006 39.1831 38.6954 39.061 38.3292 39.1221C38.2072 39.1831 38.1461 39.1831 38.0241 39.2441C37.902 39.3052 37.7799 39.3662 37.6579 39.4272C37.4748 39.5493 37.2917 39.7934 37.1696 39.9765C37.0476 40.1596 36.9865 40.4038 36.9255 40.6479C36.8645 41.0751 36.8645 41.5023 36.9255 41.9296C36.9865 41.5023 37.1086 41.1362 37.2307 40.77C37.4138 40.4038 37.5968 40.0986 37.902 39.9765C37.963 39.9155 38.0241 39.9155 38.0851 39.9155C38.1461 39.9155 38.2682 39.8545 38.3903 39.8545C38.4513 39.8545 38.5734 39.9155 38.6954 39.9765C38.9396 40.1596 39.1227 40.5258 39.3058 40.831C39.4889 41.1972 39.6109 41.5634 39.794 41.9296C39.9161 42.2958 40.0992 42.662 40.2213 43.0892C40.4654 43.8826 40.7095 44.6761 40.9537 45.4695L41.0757 45.1643L40.8316 45.4695C40.7706 45.5916 40.7095 45.7136 40.6485 45.8357L40.5875 46.0798C40.5875 46.1408 40.5875 46.2629 40.5875 46.3239C40.5875 46.385 40.5875 46.507 40.5875 46.5681C40.5875 46.6291 40.6485 46.6901 40.6485 46.8122C40.6485 46.8732 40.7095 46.9343 40.7706 46.9953C40.8316 47.0563 40.8926 47.1174 40.9537 47.1174C41.0757 47.2394 41.1978 47.3005 41.3199 47.3615C41.503 47.4836 41.7471 47.5446 41.9912 47.5446Z" fill="#FF8973"/>
<path d="M61.7659 33.2019C62.3762 34.2395 62.8645 35.277 63.4138 36.3146C63.902 37.3521 64.4513 38.3897 64.8785 39.4883C65.1227 40.0376 65.3668 40.5258 65.5499 41.0751C65.733 41.6244 65.9771 42.1737 66.1602 42.723C66.3433 43.2723 66.5264 43.8216 66.7706 44.3709C66.9537 44.9202 67.1368 45.4695 67.3199 46.0188L67.6861 45.4695C65.9161 45.7747 64.2072 46.1409 62.4983 46.5681C64.2682 46.5681 66.0382 46.446 67.8081 46.2629L68.2964 46.2019L68.1743 45.7136C67.9302 44.554 67.625 43.3944 67.1978 42.2958C67.0147 41.7465 66.7706 41.1972 66.5875 40.6479C66.4654 40.3427 66.3433 40.0986 66.2213 39.8545C66.0992 39.6104 65.9771 39.3052 65.8551 39.0611C65.6109 38.5118 65.3058 38.0235 65.0006 37.4742C64.6954 36.9859 64.3903 36.4366 64.0241 35.9484C63.7189 35.4601 63.3527 34.9719 62.9865 34.4836C62.6203 34.0564 62.1931 33.6291 61.7659 33.2019Z" fill="#FF8973"/>
<path d="M69.1509 35.8263C69.1509 35.8263 69.1509 35.7042 69.1509 35.4601C69.1509 35.216 69.0898 34.8498 68.9678 34.4836C68.9067 34.3005 68.8457 34.0563 68.7236 33.8732C68.6016 33.6291 68.4185 33.446 68.2354 33.2019C68.1133 33.0798 67.9913 33.0188 67.8692 32.8967C67.7471 32.7747 67.6251 32.7136 67.442 32.7136C67.1368 32.5916 66.7706 32.5916 66.4654 32.5916H66.4044H66.3434H66.2213L66.0382 32.6526C65.9161 32.6526 65.733 32.7746 65.5499 32.8357C65.2448 33.0188 65.0006 33.2629 64.8786 33.507C64.6955 33.7512 64.6344 33.9953 64.5734 34.3005C64.5124 34.5446 64.5124 34.7887 64.5124 34.9718C64.5124 35.3991 64.5734 35.7653 64.6344 35.9484C64.6955 36.1925 64.7565 36.3146 64.7565 36.3146C64.7565 36.3146 64.7565 36.1925 64.8175 35.9484C64.8786 35.7042 64.8786 35.3991 65.0006 35.0329C65.0617 34.8498 65.1227 34.6667 65.1837 34.4836C65.2448 34.3005 65.3668 34.1174 65.4889 33.9953C65.5499 33.9343 65.611 33.8732 65.672 33.8122C65.733 33.7512 65.8551 33.6901 65.9161 33.6901C66.0382 33.6901 66.0382 33.6291 66.1603 33.5681L66.3434 33.507H66.4654C66.4654 33.507 66.5265 33.507 66.4044 33.507H66.4654C66.6485 33.507 66.8927 33.507 67.0758 33.5681C67.2589 33.6291 67.442 33.6901 67.6251 33.8122C67.9302 34.0563 68.2354 34.4225 68.4185 34.7277C68.6016 35.0329 68.7847 35.338 68.9067 35.5211C69.0898 35.7042 69.1509 35.8263 69.1509 35.8263Z" fill="#01334C"/>
<path d="M56.8223 37.108C56.8223 37.108 56.8223 36.986 56.8223 36.7418C56.8223 36.4977 56.7612 36.1315 56.6392 35.7653C56.5781 35.5822 56.5171 35.3381 56.395 35.155C56.273 34.9108 56.0899 34.7278 55.9068 34.4836C55.7847 34.3616 55.6626 34.3005 55.5406 34.1785C55.4185 34.0564 55.2964 33.9954 55.1133 33.9954C54.8082 33.8733 54.442 33.8733 54.1368 33.8733H54.0758H54.0148H53.8927L53.7096 33.9343C53.5875 33.9343 53.4044 34.0564 53.2213 34.1174C52.9162 34.3005 52.672 34.5447 52.55 34.7888C52.3669 35.0329 52.3058 35.277 52.2448 35.5822C52.1838 35.8263 52.1838 36.0705 52.1838 36.2536C52.1838 36.6808 52.2448 37.047 52.3058 37.2301C52.3669 37.4742 52.4279 37.5963 52.4279 37.5963C52.4279 37.5963 52.4279 37.4742 52.4889 37.2301C52.55 36.986 52.55 36.6808 52.672 36.3146C52.7331 36.1315 52.7941 35.9484 52.8551 35.7653C52.9162 35.5822 53.0382 35.3991 53.1603 35.277C53.2213 35.216 53.2824 35.155 53.3434 35.0939C53.4044 35.0329 53.5265 34.9719 53.5875 34.9719C53.7096 34.9719 53.7096 34.9108 53.8317 34.8498L54.0148 34.7888H54.1368C54.1368 34.7888 54.1979 34.7888 54.0758 34.7888H54.1368C54.3199 34.7888 54.5641 34.7888 54.7472 34.8498C54.9303 34.9108 55.1133 34.9719 55.2964 35.0939C55.6016 35.3381 55.9068 35.7043 56.0899 36.0094C56.273 36.3146 56.4561 36.6198 56.5781 36.8029C56.7612 36.986 56.8223 37.108 56.8223 37.108Z" fill="#01334C"/>
<path d="M69.2119 50.8403L57.6157 50.4131C57.6157 50.4131 61.949 55.0516 69.2119 50.8403Z" fill="white"/>
<path d="M105.1 128.108C105.1 128.902 104.489 129.512 103.696 129.512H49.3156C48.5221 129.512 47.9118 128.902 47.9118 128.108C47.9118 127.315 48.5221 126.704 49.3156 126.704H103.696C104.489 126.704 105.1 127.315 105.1 128.108Z" fill="#002838"/>
<path d="M129.757 127.193C129.757 128.535 128.719 129.573 127.377 129.573H80.1982C78.8554 129.573 77.8179 128.535 77.8179 127.193V95.2113C77.8179 93.8686 78.8554 92.8311 80.1982 92.8311H127.377C128.719 92.8311 129.757 93.8686 129.757 95.2113V127.193Z" fill="#01334C"/>
<path d="M81.2364 127.193V95.2113C81.2364 93.8686 82.274 92.8311 83.6167 92.8311H80.1378C78.7951 92.8311 77.7575 93.8686 77.7575 95.2113V127.132C77.7575 128.474 78.7951 129.512 80.1378 129.512H83.6167C82.335 129.573 81.2364 128.474 81.2364 127.193Z" fill="#002838"/>
</g>
<defs>
<clipPath id="clip0">
<rect width="137.873" height="130" fill="white" transform="matrix(-1 0 0 1 137.873 0)"/>
</clipPath>
</defs>
</svg>
