<svg width="39" height="39" viewBox="0 0 39 39" fill="none" xmlns="http://www.w3.org/2000/svg">
<path d="M16.4531 21.9375H6.09375C5.77052 21.9375 5.46052 21.8091 5.23196 21.5805C5.0034 21.352 4.875 21.042 4.875 20.7188L4.875 10.9688C4.875 10.6455 5.0034 10.3355 5.23196 10.107C5.46052 9.8784 5.77052 9.75 6.09375 9.75L15.2344 9.75C15.5576 9.75 15.8676 9.8784 16.0962 10.107C16.3247 10.3355 16.4531 10.6455 16.4531 10.9688V24.375C16.4531 25.9912 15.8111 27.5411 14.6683 28.6839C13.5255 29.8267 11.9755 30.4688 10.3594 30.4688" stroke="white" stroke-width="2" stroke-linecap="round" stroke-linejoin="round"/>
<path d="M34.125 21.9375H23.7656C23.4424 21.9375 23.1324 21.8091 22.9038 21.5805C22.6753 21.352 22.5469 21.042 22.5469 20.7188V10.9688C22.5469 10.6455 22.6753 10.3355 22.9038 10.107C23.1324 9.8784 23.4424 9.75 23.7656 9.75L32.9062 9.75C33.2295 9.75 33.5395 9.8784 33.768 10.107C33.9966 10.3355 34.125 10.6455 34.125 10.9688V24.375C34.125 25.9912 33.483 27.5411 32.3402 28.6839C31.1974 29.8267 29.6474 30.4688 28.0312 30.4688" stroke="white" stroke-width="2" stroke-linecap="round" stroke-linejoin="round"/>
</svg>
