<svg width="64" height="64" viewBox="0 0 64 64" fill="none" xmlns="http://www.w3.org/2000/svg">
<path d="M23.5147 46.1422C20.6863 54.6275 9.37256 54.6275 9.37256 54.6275C9.37256 54.6275 9.37256 43.3138 17.8578 40.4854" stroke="#616161" stroke-width="2" stroke-linecap="round" stroke-linejoin="round"/>
<path d="M48.9708 26.343L32.0002 43.3136L20.6865 31.9999L37.6571 15.0293C44.0831 8.60329 50.5092 8.66597 53.2497 9.07486C53.6716 9.13776 54.0622 9.33454 54.3639 9.63621C54.6656 9.93788 54.8624 10.3285 54.9253 10.7504C55.3341 13.491 55.3968 19.917 48.9708 26.343Z" stroke="#616161" stroke-width="2" stroke-linecap="round" stroke-linejoin="round"/>
<path d="M46.1421 29.1714V45.3135C46.1421 45.5762 46.0904 45.8362 45.9899 46.0789C45.8894 46.3215 45.7421 46.542 45.5564 46.7277L37.4709 54.8132C37.2149 55.0691 36.8943 55.2508 36.5432 55.3389C36.192 55.427 35.8236 55.418 35.4771 55.3131C35.1307 55.2082 34.8192 55.0113 34.5758 54.7432C34.3325 54.4752 34.1665 54.1462 34.0955 53.7912L32 43.3135" stroke="#616161" stroke-width="2" stroke-linecap="round" stroke-linejoin="round"/>
<path d="M34.8286 17.8579H18.6865C18.4239 17.8579 18.1638 17.9096 17.9211 18.0102C17.6785 18.1107 17.458 18.258 17.2723 18.4437L9.18686 26.5291C8.93089 26.7851 8.74919 27.1058 8.66114 27.4569C8.57309 27.808 8.58199 28.1765 8.68689 28.5229C8.79179 28.8694 8.98876 29.1809 9.25679 29.4242C9.52483 29.6675 9.85387 29.8335 10.2088 29.9045L20.6865 32" stroke="#616161" stroke-width="2" stroke-linecap="round" stroke-linejoin="round"/>
</svg>
