<svg width="351" height="155" viewBox="0 0 351 155" fill="none" xmlns="http://www.w3.org/2000/svg">
    <path d="M51.6702 53.502H46.2366V36.9647H61.7343V53.502H56.3007V41.7369H51.6702V53.502Z" fill="#AFC150"/>
    <path d="M67.2753 51.4466C65.7161 49.8086 64.9365 47.7376 64.9365 45.2333C64.9365 42.7291 65.7161 40.6659 67.2753 39.0437C68.8345 37.4057 71.0395 36.5867 73.8902 36.5867C76.7409 36.5867 78.9458 37.4057 80.5051 39.0437C82.0643 40.6659 82.8439 42.7291 82.8439 45.2333C82.8439 47.7376 82.0643 49.8086 80.5051 51.4466C78.9458 53.0688 76.7409 53.88 73.8902 53.88C71.0395 53.88 68.8345 53.0688 67.2753 51.4466ZM76.3471 47.9502C76.9456 47.2887 77.2449 46.3831 77.2449 45.2333C77.2449 44.0836 76.9456 43.178 76.3471 42.5165C75.7644 41.855 74.9454 41.5243 73.8902 41.5243C72.8349 41.5243 72.0081 41.855 71.4096 42.5165C70.8269 43.178 70.5355 44.0836 70.5355 45.2333C70.5355 46.3831 70.8269 47.2887 71.4096 47.9502C72.0081 48.6117 72.8349 48.9424 73.8902 48.9424C74.9454 48.9424 75.7644 48.6117 76.3471 47.9502Z" fill="#AFC150"/>
    <path d="M88.4386 36.9647H101.172V53.502H95.715V41.7369H93.4234C93.3446 42.6976 93.2659 43.556 93.1871 44.312C93.1084 45.0522 92.9903 45.8555 92.8328 46.7217C92.6753 47.5879 92.4941 48.3518 92.2894 49.0133C92.0847 49.659 91.8169 50.2969 91.4862 50.9269C91.1554 51.5569 90.7853 52.0766 90.3758 52.4861C89.9663 52.8798 89.4702 53.2027 88.8875 53.4547C88.3205 53.691 87.6905 53.8091 86.9975 53.8091C86.1312 53.8091 85.3044 53.691 84.5169 53.4547V48.7298C85.1311 48.9345 85.6824 48.8873 86.1706 48.588C86.5171 48.4305 86.8164 48.1155 87.0684 47.6431C87.3204 47.1706 87.5094 46.6587 87.6354 46.1075C87.7771 45.5562 87.8952 44.8475 87.9897 43.9812C88.1 43.115 88.1708 42.359 88.2023 41.7133C88.2338 41.0675 88.2732 40.2407 88.3205 39.2327C88.3677 38.2247 88.4071 37.4687 88.4386 36.9647Z" fill="#AFC150"/>
    <path d="M114.818 49.6984C114.125 51.2104 113.306 52.2892 112.361 52.935C111.416 53.565 110.242 53.88 108.841 53.88C108.006 53.88 107.006 53.7146 105.84 53.3838V48.9897C106.454 49.2102 107.1 49.3204 107.777 49.3204C108.785 49.3204 109.423 49.0054 109.691 48.3754L109.951 47.8557L103.667 36.9647H109.502L112.526 43.4615L114.959 36.9647H120.771L114.818 49.6984Z" fill="#AFC150"/>
    <path d="M137.561 53.502H132.104V48.2573C131.017 48.6038 129.899 48.777 128.749 48.777C126.922 48.777 125.466 48.3045 124.379 47.3596C123.292 46.3988 122.749 44.9971 122.749 43.1544V36.9647H128.206V42.4929C128.206 43.0126 128.387 43.3985 128.749 43.6505C129.127 43.9025 129.616 44.0285 130.214 44.0285C130.891 44.0285 131.521 43.8946 132.104 43.6269V36.9647L137.561 36.9647V53.502Z" fill="#AFC150"/>
    <path d="M156.976 53.502H151.518V48.5408C151.518 47.4698 151.566 46.5406 151.66 45.7531L146.061 53.502H141.454V36.9647H146.912V41.9023C146.912 43.0048 146.864 43.9497 146.77 44.7372L152.369 36.9647H156.976V53.502Z" fill="#AFC150"/>
    <path d="M168.197 51.4466C166.638 49.8086 165.858 47.7376 165.858 45.2333C165.858 42.7291 166.638 40.6659 168.197 39.0437C169.756 37.4057 171.961 36.5867 174.812 36.5867C177.663 36.5867 179.868 37.4057 181.427 39.0437C182.986 40.6659 183.766 42.7291 183.766 45.2333C183.766 47.7376 182.986 49.8086 181.427 51.4466C179.868 53.0688 177.663 53.88 174.812 53.88C171.961 53.88 169.756 53.0688 168.197 51.4466ZM177.269 47.9502C177.867 47.2887 178.167 46.3831 178.167 45.2333C178.167 44.0836 177.867 43.178 177.269 42.5165C176.686 41.855 175.867 41.5243 174.812 41.5243C173.757 41.5243 172.93 41.855 172.331 42.5165C171.749 43.178 171.457 44.0836 171.457 45.2333C171.457 46.3831 171.749 47.2887 172.331 47.9502C172.93 48.6117 173.757 48.9424 174.812 48.9424C175.867 48.9424 176.686 48.6117 177.269 47.9502Z" fill="#AFC150"/>
    <path d="M198.731 54.6123H193.794V52.4861C191.321 52.3129 189.384 51.5962 187.982 50.3363C186.581 49.0605 185.88 47.3596 185.88 45.2333C185.88 43.1071 186.581 41.414 187.982 40.1541C189.384 38.8783 191.321 38.1538 193.794 37.9806V35.8544H198.731V37.9806C201.188 38.1538 203.11 38.8783 204.496 40.1541C205.898 41.414 206.598 43.1071 206.598 45.2333C206.598 47.3596 205.898 49.0605 204.496 50.3363C203.11 51.5962 201.188 52.3129 198.731 52.4861V54.6123ZM193.865 42.2803C192.117 42.5008 191.242 43.4851 191.242 45.2333C191.242 46.9816 192.117 47.9659 193.865 48.1864V42.2803ZM198.661 42.2803V48.1864C200.362 47.9502 201.212 46.9658 201.212 45.2333C201.212 43.5009 200.362 42.5165 198.661 42.2803Z" fill="#AFC150"/>
    <path d="M221.162 54.6123H216.224V52.4861C213.752 52.3129 211.814 51.5962 210.413 50.3363C209.011 49.0605 208.31 47.3596 208.31 45.2333C208.31 43.1071 209.011 41.414 210.413 40.1541C211.814 38.8783 213.752 38.1538 216.224 37.9806V35.8544H221.162V37.9806C223.619 38.1538 225.54 38.8783 226.926 40.1541C228.328 41.414 229.029 43.1071 229.029 45.2333C229.029 47.3596 228.328 49.0605 226.926 50.3363C225.54 51.5962 223.619 52.3129 221.162 52.4861V54.6123ZM216.295 42.2803C214.547 42.5008 213.673 43.4851 213.673 45.2333C213.673 46.9816 214.547 47.9659 216.295 48.1864V42.2803ZM221.091 42.2803V48.1864C222.792 47.9502 223.642 46.9658 223.642 45.2333C223.642 43.5009 222.792 42.5165 221.091 42.2803Z" fill="#AFC150"/>
    <path d="M231.827 36.9647H244.348V41.2644H237.284V43.178H243.498V47.1942L237.284 47.1942V49.155L244.49 49.155V53.502L231.827 53.502V36.9647Z" fill="#AFC150"/>
    <path d="M247.913 36.9647L255.142 36.9647C260.088 36.9647 262.56 39.0043 262.56 43.0835C262.56 47.1469 260.088 49.1787 255.142 49.1787H253.37V53.502H247.913V36.9647ZM257.15 43.0835C257.15 41.9968 256.465 41.4534 255.095 41.4534H253.37V44.69H255.095C256.465 44.69 257.15 44.1545 257.15 43.0835Z" fill="#AFC150"/>
    <path d="M284.406 48.966C284.406 49.8953 284.201 50.6906 283.792 51.3521C283.398 52.0136 282.839 52.5255 282.114 52.8877C281.405 53.2342 280.649 53.4862 279.846 53.6437C279.043 53.8012 278.169 53.88 277.224 53.88C275.129 53.88 272.987 53.5177 270.798 52.7932V47.9502C272.578 48.8164 274.499 49.2495 276.562 49.2495C278.153 49.2495 278.948 48.8479 278.948 48.0447C278.948 47.4147 278.476 47.0997 277.531 47.0997H273.586V43.1308H277.082C277.901 43.1308 278.311 42.8551 278.311 42.3039C278.311 41.5952 277.626 41.2408 276.255 41.2408C274.507 41.2408 272.782 41.666 271.081 42.5165V37.6735C272.908 36.949 274.798 36.5867 276.751 36.5867C278.972 36.5867 280.689 36.9805 281.902 37.768C283.13 38.5397 283.744 39.7052 283.744 41.2644C283.744 42.0834 283.524 42.8079 283.083 43.4379C282.658 44.0521 282.028 44.501 281.193 44.7845C283.335 45.509 284.406 46.9028 284.406 48.966Z" fill="#AFC150"/>
    <path d="M291.217 53.502H285.688L291.878 36.9647H297.737L303.903 53.502H298.375L297.666 51.3049H291.949L291.217 53.502ZM294.359 43.8395L293.201 47.3596H296.438L295.28 43.8395C295.06 43.1465 294.902 42.4378 294.808 41.7133C294.713 42.3433 294.563 43.052 294.359 43.8395Z" fill="#AFC150"/>
    <path d="M55.3296 67.1775H63.9679V92.4238H69.3668V102.142H46.5371V92.4238H52.5016V78.3867L46.8456 80.4948V70.4168L55.3296 67.1775Z" fill="#AFC150"/>
    <path d="M74.5554 70.1083C78.4975 67.606 82.8681 66.3548 87.6671 66.3548C91.6434 66.3548 94.9342 67.2803 97.5394 69.1314C100.179 70.9824 101.499 73.8276 101.499 77.6668C101.499 79.9635 100.916 81.8831 99.7504 83.4257C98.6192 84.9682 97.0252 86.425 94.9685 87.7962C94.6257 88.0019 93.9915 88.4132 93.066 89.0302C92.1748 89.6473 91.5406 90.0757 91.1635 90.3157C90.8207 90.5557 90.3923 90.8813 89.8781 91.2926C89.3639 91.704 88.9868 92.0811 88.7469 92.4238H101.55V102.09H73.4756V97.3086C73.4756 95.5946 73.6985 94.0692 74.1441 92.7324C74.624 91.3955 75.4467 90.1443 76.6122 88.9788C77.7776 87.8133 78.6689 87.0078 79.2859 86.5622C79.9029 86.0823 81.0513 85.2938 82.7309 84.1969C82.7995 84.1284 82.8509 84.0941 82.8852 84.0941C82.9195 84.0598 82.9709 84.0255 83.0394 83.9912C83.108 83.9227 83.1594 83.8713 83.1937 83.837C83.2623 83.8027 83.3308 83.7684 83.3994 83.7342C83.9478 83.3571 84.6677 82.9115 85.5589 82.3973C86.4845 81.8488 87.1529 81.4375 87.5643 81.1632C88.0099 80.889 88.4041 80.5291 88.7469 80.0835C89.1239 79.6378 89.3125 79.1579 89.3125 78.6438C89.3125 77.1698 88.1984 76.4328 85.9703 76.4328C82.3025 76.4328 78.4975 77.9068 74.5554 80.8547V70.1083Z" fill="#AFC150"/>
    <path d="M149.564 102.142H137.686V90.727C135.321 91.4812 132.887 91.8582 130.385 91.8582C126.408 91.8582 123.238 90.8299 120.872 88.7732C118.507 86.6821 117.325 83.6313 117.325 79.6207V66.1491H129.202V78.181C129.202 79.3122 129.596 80.152 130.385 80.7005C131.207 81.2489 132.27 81.5232 133.573 81.5232C135.047 81.5232 136.418 81.2318 137.686 80.6491V66.1491H149.564V102.142Z" fill="#AFC150"/>
    <path d="M165.554 102.142H153.522L166.994 66.1491H179.746L193.166 102.142L181.134 102.142L179.591 97.36H167.148L165.554 102.142ZM172.393 81.1118L169.873 88.7732H176.918L174.398 81.1118C173.918 79.6036 173.576 78.061 173.37 76.4842C173.164 77.8553 172.839 79.3979 172.393 81.1118Z" fill="#AFC150"/>
    <path d="M193.761 84.5054C193.761 81.2147 194.309 78.301 195.406 75.7643C196.503 73.2277 197.994 71.2224 199.879 69.7484C201.799 68.2744 203.89 67.1775 206.152 66.4576C208.449 65.7035 210.883 65.3264 213.454 65.3264C217.327 65.3264 220.858 66.0463 224.046 67.486V78.0781C221.681 76.4328 218.853 75.6101 215.562 75.6101C212.82 75.6101 210.523 76.3471 208.672 77.8211C206.855 79.2608 205.947 81.4889 205.947 84.5054C205.947 87.1449 206.855 89.1502 208.672 90.5214C210.489 91.8582 212.7 92.5267 215.305 92.5267C219.384 92.5267 222.383 91.6697 224.303 89.9558V100.805C221.115 102.245 217.602 102.965 213.762 102.965C211.123 102.965 208.638 102.605 206.307 101.885C203.976 101.165 201.85 100.102 199.931 98.6969C198.045 97.2572 196.537 95.3204 195.406 92.8866C194.309 90.4528 193.761 87.6591 193.761 84.5054Z" fill="#AFC150"/>
    <path d="M233.38 97.6685C229.987 94.1035 228.29 89.5958 228.29 84.1455C228.29 78.6952 229.987 74.2046 233.38 70.6739C236.774 67.1089 241.573 65.3264 247.777 65.3264C253.982 65.3264 258.781 67.1089 262.174 70.6739C265.568 74.2046 267.265 78.6952 267.265 84.1455C267.265 89.5958 265.568 94.1035 262.174 97.6685C258.781 101.199 253.982 102.965 247.777 102.965C241.573 102.965 236.774 101.199 233.38 97.6685ZM253.125 90.0586C254.427 88.6189 255.079 86.6479 255.079 84.1455C255.079 81.6431 254.427 79.6721 253.125 78.2324C251.856 76.7927 250.074 76.0728 247.777 76.0728C245.481 76.0728 243.681 76.7927 242.378 78.2324C241.11 79.6721 240.476 81.6431 240.476 84.1455C240.476 86.6479 241.11 88.6189 242.378 90.0586C243.681 91.4983 245.481 92.2182 247.777 92.2182C250.074 92.2182 251.856 91.4983 253.125 90.0586Z" fill="#AFC150"/>
    <path d="M272.596 66.1491H290.593C299.094 66.1491 303.345 69.1828 303.345 75.2501C303.345 79.0894 301.631 81.6774 298.203 83.0143C302.59 84.3512 304.784 87.2992 304.784 91.8582C304.784 98.714 299.9 102.142 290.13 102.142H272.596V66.1491ZM289.513 93.4008C291.81 93.4008 292.958 92.4238 292.958 90.47C292.958 88.5161 291.81 87.5391 289.513 87.5391H284.474V93.4008H289.513ZM291.93 77.564C291.93 76.7756 291.673 76.1414 291.158 75.6615C290.644 75.1473 289.907 74.8902 288.947 74.8902H284.474V80.1863L288.947 80.2377C289.907 80.2377 290.644 79.9806 291.158 79.4664C291.673 78.9523 291.93 78.3181 291.93 77.564Z" fill="#AFC150"/>
    <path d="M47.8885 123.682H45.9358V117.739H51.5053V123.682H49.5526V119.454H47.8885V123.682Z" fill="#AFC150"/>
    <path d="M53.9405 122.944C53.3802 122.355 53.1 121.611 53.1 120.711C53.1 119.811 53.3802 119.069 53.9405 118.486C54.5009 117.898 55.2933 117.603 56.3177 117.603C57.3422 117.603 58.1346 117.898 58.695 118.486C59.2553 119.069 59.5355 119.811 59.5355 120.711C59.5355 121.611 59.2553 122.355 58.695 122.944C58.1346 123.527 57.3422 123.818 56.3177 123.818C55.2933 123.818 54.5009 123.527 53.9405 122.944ZM57.2007 121.687C57.4158 121.449 57.5233 121.124 57.5233 120.711C57.5233 120.298 57.4158 119.972 57.2007 119.734C56.9913 119.497 56.697 119.378 56.3177 119.378C55.9385 119.378 55.6414 119.497 55.4263 119.734C55.2169 119.972 55.1121 120.298 55.1121 120.711C55.1121 121.124 55.2169 121.449 55.4263 121.687C55.6414 121.925 55.9385 122.044 56.3177 122.044C56.697 122.044 56.9913 121.925 57.2007 121.687Z" fill="#AFC150"/>
    <path d="M60.892 120.77C60.892 120.227 60.9825 119.746 61.1637 119.327C61.3448 118.908 61.591 118.577 61.9023 118.334C62.2193 118.09 62.5645 117.909 62.9381 117.79C63.3173 117.666 63.7192 117.603 64.1437 117.603C64.7833 117.603 65.3663 117.722 65.8927 117.96V119.709C65.5021 119.437 65.0352 119.301 64.4918 119.301C64.039 119.301 63.6598 119.423 63.3541 119.666C63.0541 119.904 62.9041 120.272 62.9041 120.77C62.9041 121.206 63.0541 121.537 63.3541 121.764C63.6541 121.984 64.0192 122.095 64.4493 122.095C65.1229 122.095 65.6181 121.953 65.9351 121.67V123.462C65.4087 123.699 64.8286 123.818 64.1946 123.818C63.7588 123.818 63.3485 123.759 62.9636 123.64C62.5787 123.521 62.2278 123.346 61.9108 123.113C61.5995 122.876 61.3505 122.556 61.1637 122.154C60.9825 121.752 60.892 121.291 60.892 120.77Z" fill="#AFC150"/>
    <path d="M68.5713 117.739H73.1475V123.682H71.1862V119.454H70.3627C70.3344 119.799 70.3061 120.108 70.2778 120.38C70.2495 120.646 70.2071 120.934 70.1505 121.246C70.0939 121.557 70.0288 121.831 69.9552 122.069C69.8816 122.301 69.7854 122.53 69.6665 122.757C69.5477 122.983 69.4146 123.17 69.2675 123.317C69.1203 123.459 68.942 123.575 68.7326 123.665C68.5288 123.75 68.3024 123.793 68.0534 123.793C67.7421 123.793 67.4449 123.75 67.1619 123.665V121.967C67.3827 122.041 67.5808 122.024 67.7562 121.916C67.8808 121.86 67.9883 121.747 68.0789 121.577C68.1694 121.407 68.2374 121.223 68.2826 121.025C68.3336 120.827 68.376 120.572 68.41 120.261C68.4496 119.949 68.4751 119.678 68.4864 119.446C68.4977 119.214 68.5119 118.917 68.5288 118.554C68.5458 118.192 68.56 117.92 68.5713 117.739Z" fill="#AFC150"/>
    <path d="M74.9888 117.739H79.4885V119.284H76.95V119.972H79.1829V121.415H76.95V122.12H79.5395V123.682H74.9888V117.739Z" fill="#AFC150"/>
    <path d="M85.6518 123.682H83.699V117.739H89.2685V123.682H87.3158V119.454H85.6518V123.682Z" fill="#AFC150"/>
    <path d="M91.1094 117.739H93.7074C95.4847 117.739 96.3733 118.472 96.3733 119.938C96.3733 121.398 95.4847 122.129 93.7074 122.129H93.0707V123.682H91.1094V117.739ZM94.4291 119.938C94.4291 119.548 94.1829 119.352 93.6904 119.352H93.0707V120.515H93.6904C94.1829 120.515 94.4291 120.323 94.4291 119.938Z" fill="#AFC150"/>
    <path d="M98.5172 122.944C97.9569 122.355 97.6767 121.611 97.6767 120.711C97.6767 119.811 97.9569 119.069 98.5172 118.486C99.0775 117.898 99.87 117.603 100.894 117.603C101.919 117.603 102.711 117.898 103.272 118.486C103.832 119.069 104.112 119.811 104.112 120.711C104.112 121.611 103.832 122.355 103.272 122.944C102.711 123.527 101.919 123.818 100.894 123.818C99.87 123.818 99.0775 123.527 98.5172 122.944ZM101.777 121.687C101.992 121.449 102.1 121.124 102.1 120.711C102.1 120.298 101.992 119.972 101.777 119.734C101.568 119.497 101.274 119.378 100.894 119.378C100.515 119.378 100.218 119.497 100.003 119.734C99.7935 119.972 99.6888 120.298 99.6888 120.711C99.6888 121.124 99.7935 121.449 100.003 121.687C100.218 121.925 100.515 122.044 100.894 122.044C101.274 122.044 101.568 121.925 101.777 121.687Z" fill="#AFC150"/>
    <path d="M107.014 123.682H104.73L106.768 120.617L104.832 117.739H107.116L107.999 119.276L108.873 117.739H111.157L109.222 120.617L111.259 123.682H108.975L107.999 122.01L107.014 123.682Z" fill="#AFC150"/>
    <path d="M112.724 122.944C112.164 122.355 111.884 121.611 111.884 120.711C111.884 119.811 112.164 119.069 112.724 118.486C113.285 117.898 114.077 117.603 115.102 117.603C116.126 117.603 116.919 117.898 117.479 118.486C118.039 119.069 118.319 119.811 118.319 120.711C118.319 121.611 118.039 122.355 117.479 122.944C116.919 123.527 116.126 123.818 115.102 123.818C114.077 123.818 113.285 123.527 112.724 122.944ZM115.985 121.687C116.2 121.449 116.307 121.124 116.307 120.711C116.307 120.298 116.2 119.972 115.985 119.734C115.775 119.497 115.481 119.378 115.102 119.378C114.722 119.378 114.425 119.497 114.21 119.734C114.001 119.972 113.896 120.298 113.896 120.711C113.896 121.124 114.001 121.449 114.21 121.687C114.425 121.925 114.722 122.044 115.102 122.044C115.481 122.044 115.775 121.925 115.985 121.687Z" fill="#AFC150"/>
    <path d="M121.279 123.682H119.123L120.71 120.685L119.157 117.739H121.313L122.29 119.845H122.621V117.739H124.582V119.845H124.913L125.881 117.739H128.037L126.492 120.685L128.08 123.682H125.923L124.871 121.56H124.582V123.682H122.621V121.56H122.324L121.279 123.682Z" fill="#AFC150"/>
    <path d="M130.873 124.837H129.133V122.035H129.838C130.177 121.407 130.406 120.748 130.525 120.057C130.65 119.361 130.712 118.588 130.712 117.739H135.229V122.035H136.001V124.837H134.261V123.682H130.873V124.837ZM132.444 119.403C132.348 120.569 132.15 121.447 131.85 122.035H133.293V119.403H132.444Z" fill="#AFC150"/>
    <path d="M137.587 117.739L142.086 117.739V119.284H139.548V119.972H141.781V121.415H139.548V122.12H142.137V123.682H137.587V117.739Z" fill="#AFC150"/>
    <path d="M147.386 117.739H149.338V123.682H147.386V121.568H145.773V123.682H143.811V117.739H145.773V119.853H147.386V117.739Z" fill="#AFC150"/>
    <path d="M156.758 123.682H154.797V121.899C154.797 121.514 154.814 121.181 154.848 120.898L152.836 123.682H151.18V117.739H153.142V119.514C153.142 119.91 153.125 120.249 153.091 120.532L155.103 117.739H156.758V123.682Z" fill="#AFC150"/>
    <path d="M160.348 123.682H158.141L159.652 121.585C158.927 121.234 158.565 120.657 158.565 119.853C158.565 119.474 158.633 119.143 158.769 118.86C158.91 118.577 159.103 118.356 159.346 118.198C159.59 118.039 159.856 117.923 160.144 117.85C160.439 117.776 160.756 117.739 161.095 117.739H163.854V123.682H161.902V121.925H161.571L160.348 123.682ZM160.713 119.488C160.6 119.59 160.543 119.726 160.543 119.896C160.543 120.066 160.6 120.201 160.713 120.303C160.826 120.405 160.99 120.456 161.206 120.456H161.902V119.335H161.206C160.99 119.335 160.826 119.386 160.713 119.488Z" fill="#AFC150"/>
    <path d="M167.832 117.739H172.977V119.454H171.381V123.682H169.428V119.454H167.832V117.739Z" fill="#AFC150"/>
    <path d="M174.471 117.739H178.971V119.284H176.432V119.972H178.665V121.415H176.432V122.12H179.022V123.682H174.471V117.739Z" fill="#AFC150"/>
    <path d="M182.368 123.682H180.085L182.122 120.617L180.186 117.739H182.47L183.353 119.276L184.228 117.739H186.512L184.576 120.617L186.613 123.682H184.33L183.353 122.01L182.368 123.682Z" fill="#AFC150"/>
    <path d="M191.424 117.739H193.376V123.682H191.424V121.568H189.81V123.682H187.849V117.739H189.81V119.853H191.424V117.739Z" fill="#AFC150"/>
    <path d="M200.796 123.682H198.835V121.899C198.835 121.514 198.852 121.181 198.886 120.898L196.874 123.682H195.218V117.739H197.179V119.514C197.179 119.91 197.162 120.249 197.128 120.532L199.141 117.739H200.796V123.682Z" fill="#AFC150"/>
    <path d="M207.765 123.682H205.804V121.798C205.413 121.922 205.011 121.984 204.598 121.984C203.941 121.984 203.418 121.814 203.027 121.475C202.637 121.13 202.442 120.626 202.442 119.964V117.739H204.403V119.726C204.403 119.913 204.468 120.051 204.598 120.142C204.734 120.232 204.909 120.278 205.124 120.278C205.368 120.278 205.594 120.23 205.804 120.133V117.739H207.765V123.682Z" fill="#AFC150"/>
    <path d="M209.608 117.739H214.108V119.284H211.569V119.972H213.802V121.415H211.569V122.12H214.159V123.682H209.608V117.739Z" fill="#AFC150"/>
    <path d="M215.52 120.77C215.52 120.227 215.611 119.746 215.792 119.327C215.973 118.908 216.219 118.577 216.531 118.334C216.848 118.09 217.193 117.909 217.566 117.79C217.946 117.666 218.347 117.603 218.772 117.603C219.412 117.603 219.995 117.722 220.521 117.96V119.709C220.13 119.437 219.663 119.301 219.12 119.301C218.667 119.301 218.288 119.423 217.982 119.666C217.682 119.904 217.532 120.272 217.532 120.77C217.532 121.206 217.682 121.537 217.982 121.764C218.282 121.984 218.647 122.095 219.078 122.095C219.751 122.095 220.246 121.953 220.563 121.67V123.462C220.037 123.699 219.457 123.818 218.823 123.818C218.387 123.818 217.977 123.759 217.592 123.64C217.207 123.521 216.856 123.346 216.539 123.113C216.228 122.876 215.979 122.556 215.792 122.154C215.611 121.752 215.52 121.291 215.52 120.77Z" fill="#AFC150"/>
    <path d="M224.184 123.682H222.223V117.739H224.184V119.845H224.677L225.865 117.739H228.022L226.214 120.685L228.056 123.682H225.899L224.634 121.56H224.184V123.682Z" fill="#AFC150"/>
    <path d="M229.606 122.944C229.046 122.355 228.766 121.611 228.766 120.711C228.766 119.811 229.046 119.069 229.606 118.486C230.166 117.898 230.959 117.603 231.983 117.603C233.008 117.603 233.8 117.898 234.361 118.486C234.921 119.069 235.201 119.811 235.201 120.711C235.201 121.611 234.921 122.355 234.361 122.944C233.8 123.527 233.008 123.818 231.983 123.818C230.959 123.818 230.166 123.527 229.606 122.944ZM232.866 121.687C233.081 121.449 233.189 121.124 233.189 120.711C233.189 120.298 233.081 119.972 232.866 119.734C232.657 119.497 232.363 119.378 231.983 119.378C231.604 119.378 231.307 119.497 231.092 119.734C230.882 119.972 230.778 120.298 230.778 120.711C230.778 121.124 230.882 121.449 231.092 121.687C231.307 121.925 231.604 122.044 231.983 122.044C232.363 122.044 232.657 121.925 232.866 121.687Z" fill="#AFC150"/>
    <path d="M238.757 123.682H236.795V117.739H241.253V119.454H238.757V123.682Z" fill="#AFC150"/>
    <path d="M243.158 122.944C242.598 122.355 242.318 121.611 242.318 120.711C242.318 119.811 242.598 119.069 243.158 118.486C243.719 117.898 244.511 117.603 245.536 117.603C246.56 117.603 247.352 117.898 247.913 118.486C248.473 119.069 248.753 119.811 248.753 120.711C248.753 121.611 248.473 122.355 247.913 122.944C247.352 123.527 246.56 123.818 245.536 123.818C244.511 123.818 243.719 123.527 243.158 122.944ZM246.419 121.687C246.634 121.449 246.741 121.124 246.741 120.711C246.741 120.298 246.634 119.972 246.419 119.734C246.209 119.497 245.915 119.378 245.536 119.378C245.156 119.378 244.859 119.497 244.644 119.734C244.435 119.972 244.33 120.298 244.33 120.711C244.33 121.124 244.435 121.449 244.644 121.687C244.859 121.925 245.156 122.044 245.536 122.044C245.915 122.044 246.209 121.925 246.419 121.687Z" fill="#AFC150"/>
    <path d="M258.411 123.682H256.45V121.899C256.45 121.514 256.467 121.181 256.501 120.898L254.489 123.682H252.833V117.739H254.794V119.514C254.794 119.91 254.777 120.249 254.743 120.532L256.755 117.739H258.411V123.682Z" fill="#AFC150"/>
    <path d="M263.826 117.739H265.779V123.682H263.826V121.568H262.213V123.682H260.252V117.739H262.213V119.853H263.826V117.739Z" fill="#AFC150"/>
    <path d="M267.273 117.739H272.418V119.454H270.822V123.682H268.869V119.454H267.273V117.739Z" fill="#AFC150"/>
    <path d="M273.912 117.739H278.412V119.284H275.873V119.972H278.106V121.415H275.873V122.12H278.463V123.682H273.912V117.739Z" fill="#AFC150"/>
    <path d="M280.137 117.739H282.735C284.512 117.739 285.4 118.472 285.4 119.938C285.4 121.398 284.512 122.129 282.735 122.129H282.098V123.682H280.137V117.739ZM283.456 119.938C283.456 119.548 283.21 119.352 282.718 119.352H282.098V120.515H282.718C283.21 120.515 283.456 120.323 283.456 119.938Z" fill="#AFC150"/>
    <path d="M286.95 117.739H289.922C291.325 117.739 292.027 118.24 292.027 119.242C292.027 119.876 291.744 120.303 291.178 120.524C291.903 120.745 292.265 121.231 292.265 121.984C292.265 123.116 291.458 123.682 289.845 123.682H286.95V117.739ZM289.743 122.239C290.123 122.239 290.312 122.078 290.312 121.755C290.312 121.432 290.123 121.271 289.743 121.271H288.911V122.239H289.743ZM290.142 119.624C290.142 119.494 290.1 119.389 290.015 119.31C289.93 119.225 289.808 119.183 289.65 119.183H288.911V120.057L289.65 120.066C289.808 120.066 289.93 120.023 290.015 119.938C290.1 119.853 290.142 119.749 290.142 119.624Z" fill="#AFC150"/>
    <path d="M296.428 123.682H293.83V117.739H295.791V119.437H296.428C298.137 119.437 298.992 120.145 298.992 121.56C298.992 122.975 298.137 123.682 296.428 123.682ZM295.791 121.05V122.069H296.411C296.598 122.069 296.75 122.027 296.869 121.942C296.994 121.857 297.056 121.73 297.056 121.56C297.056 121.39 296.994 121.263 296.869 121.178C296.75 121.093 296.598 121.05 296.411 121.05H295.791Z" fill="#AFC150"/>
    <path d="M309.018 119.149C309.255 119.607 309.374 120.128 309.374 120.711C309.374 121.294 309.255 121.817 309.018 122.281C308.785 122.74 308.42 123.111 307.922 123.394C307.43 123.677 306.838 123.818 306.148 123.818C305.321 123.818 304.645 123.612 304.119 123.198C303.598 122.78 303.261 122.236 303.108 121.568H302.48V123.682H300.519V117.739H302.48V119.853H303.108C303.261 119.185 303.598 118.645 304.119 118.232C304.645 117.813 305.321 117.603 306.148 117.603C306.838 117.603 307.43 117.745 307.922 118.028C308.42 118.311 308.785 118.684 309.018 119.149ZM305.265 119.734C305.055 119.972 304.951 120.298 304.951 120.711C304.951 121.124 305.055 121.449 305.265 121.687C305.48 121.925 305.777 122.044 306.156 122.044C306.536 122.044 306.83 121.925 307.039 121.687C307.254 121.449 307.362 121.124 307.362 120.711C307.362 120.298 307.254 119.972 307.039 119.734C306.83 119.497 306.536 119.378 306.156 119.378C305.777 119.378 305.48 119.497 305.265 119.734Z" fill="#AFC150"/>
    <path fill-rule="evenodd" clip-rule="evenodd" d="M342.195 5.55873L8.005 5.55873C6.65397 5.55873 5.55873 6.65396 5.55873 8.005L5.55873 146.25C5.55873 147.601 6.65396 148.696 8.00499 148.696L342.195 148.696C343.546 148.696 344.641 147.601 344.641 146.25V8.005C344.641 6.65395 343.546 5.55873 342.195 5.55873ZM8.005 0C3.58396 0 0 3.58396 0 8.005L0 146.25C0 150.671 3.58395 154.255 8.00499 154.255L342.195 154.255C346.616 154.255 350.2 150.671 350.2 146.25V8.005C350.2 3.58396 346.616 0 342.195 0L8.005 0Z" fill="#AFC150"/>
</svg>
