<svg width="140" height="21" viewBox="0 0 140 21" fill="none" xmlns="http://www.w3.org/2000/svg">
<path d="M16.6292 0.489807V3.8769H10.333V20.5206H6.31759V3.8769H0V0.489807H16.6292Z" fill="#E30613"/>
<path d="M29.1533 0.489807H24.8167L17.2998 20.5206H21.4651L21.5401 20.3121C21.8827 19.3742 22.2468 18.4258 22.6109 17.4774C22.9535 16.5915 23.2747 15.7161 23.596 14.8407H30.3205L32.462 20.5206H36.6809L29.1533 0.489807ZM24.8702 11.464L26.9582 5.80494L29.0355 11.464H24.8702Z" fill="black"/>
<path d="M56.3187 6.60743C55.8904 5.39849 55.28 4.33546 54.4876 3.42876C53.6953 2.52207 52.7209 1.80296 51.5965 1.28187C50.4722 0.750353 49.1766 0.489807 47.7632 0.489807H39.7002V20.5206H47.7632C49.123 20.5206 50.3758 20.26 51.5002 19.7494C52.6245 19.2387 53.5989 18.53 54.4127 17.6233C55.2158 16.727 55.8475 15.6536 56.2865 14.4342C56.7256 13.2253 56.9504 11.8913 56.9504 10.4635C56.9504 9.10867 56.7363 7.80594 56.3187 6.60743ZM46.9601 17.0814H43.7156V3.8769H46.9601C47.8167 3.8769 48.6198 4.01239 49.3586 4.27293C50.076 4.53348 50.7078 4.92951 51.2325 5.4506C51.7464 5.98212 52.164 6.66996 52.4746 7.5037C52.7744 8.33745 52.935 9.33795 52.935 10.4948C52.935 11.5682 52.7744 12.527 52.4746 13.3504C52.1855 14.1633 51.7679 14.8511 51.2432 15.4035C50.7185 15.9454 50.0867 16.3727 49.3586 16.6541C48.6305 16.9355 47.8274 17.0814 46.9601 17.0814Z" fill="black"/>
<path d="M76.1493 0.489807L69.2321 20.5206H65.1953L58.1924 0.489807H62.4541L67.2083 14.1945L71.8983 0.489807H76.1493Z" fill="black"/>
<path d="M82.4671 0.489807H78.4517V20.5206H82.4671V0.489807Z" fill="black"/>
<path d="M101.623 14.7573C101.623 15.7891 101.42 16.7062 101.024 17.4878C100.627 18.2695 100.06 18.9365 99.3533 19.4576C98.6465 19.9682 97.8113 20.3538 96.8583 20.6144C95.9161 20.8749 94.8667 21 93.7531 21C92.7358 21 91.74 20.8333 90.787 20.4789C89.8233 20.135 88.956 19.6347 88.1957 18.9782C87.4462 18.3216 86.8251 17.5191 86.354 16.5916C85.8829 15.664 85.6259 14.601 85.6045 13.4233L85.5938 13.1002H89.6627L89.6841 13.3921C89.727 14.0278 89.8662 14.6114 90.0803 15.1221C90.3052 15.6432 90.5943 16.0913 90.9476 16.4561C91.2903 16.8208 91.7079 17.1127 92.179 17.3107C93.0785 17.6963 94.2456 17.6754 95.2415 17.4566C95.7019 17.3524 96.1088 17.1856 96.4621 16.9563C96.7941 16.7375 97.0725 16.4352 97.2759 16.0809C97.4687 15.7266 97.5758 15.2784 97.5758 14.7573C97.5758 14.2988 97.4366 13.934 97.1689 13.6318C96.8583 13.3087 96.4622 13.0169 95.9589 12.7667C95.4449 12.5062 94.8453 12.2665 94.1814 12.0581C93.4961 11.8496 92.8001 11.6203 92.0827 11.3911C91.3652 11.1618 90.6585 10.8908 89.9625 10.599C89.2558 10.2968 88.6133 9.92159 88.0565 9.48387C87.4997 9.03573 87.0393 8.4938 86.6859 7.85806C86.3326 7.22233 86.1613 6.45112 86.1613 5.57568C86.1613 4.66898 86.3433 3.8665 86.7074 3.16824C87.0714 2.4804 87.5961 1.88635 88.2493 1.40695C88.9025 0.948387 89.6948 0.594045 90.5836 0.354342C91.4723 0.125062 92.4574 0 93.5068 0C94.9202 0 96.1088 0.208437 97.0618 0.614888C98.0148 1.02134 98.7857 1.55285 99.364 2.19901C99.9422 2.84516 100.37 3.57469 100.627 4.36675C100.884 5.13797 101.045 5.90918 101.088 6.64913L101.109 6.98263H97.0297L97.0082 6.70124C96.9547 6.11762 96.8262 5.60695 96.6228 5.19007C96.43 4.7732 96.173 4.42928 95.8732 4.16873C95.5627 3.89777 95.1986 3.69975 94.8024 3.56427C94.0315 3.31414 93.1106 3.31414 92.2433 3.49132C91.8471 3.57469 91.483 3.71017 91.1725 3.88735C90.8727 4.06452 90.6371 4.28337 90.4551 4.56476C90.2731 4.83573 90.1874 5.16923 90.1874 5.57568C90.1874 6.03424 90.3266 6.40943 90.605 6.72208C90.9048 7.05558 91.301 7.35782 91.8043 7.60794C92.3182 7.87891 92.9179 8.11861 93.5818 8.32705C94.2671 8.54591 94.9738 8.77519 95.6805 9.01489C96.3979 9.24417 97.1153 9.51514 97.8113 9.80695C98.518 10.0988 99.1605 10.4739 99.7066 10.9012C100.274 11.3494 100.735 11.8809 101.088 12.5062C101.441 13.1315 101.623 13.8819 101.623 14.7573Z" fill="black"/>
<path d="M119.912 17.0814V20.5206H104.739V0.489807H119.452V3.8769H108.744V8.5042H118.799V11.9121H108.744V17.0814H119.912Z" fill="black"/>
<path d="M139.711 20.0412C139.422 19.5618 139.186 19.0928 139.015 18.6342C138.854 18.2069 138.769 17.8213 138.769 17.5087V14.6948C138.769 14.2883 138.726 13.8714 138.619 13.4546C138.523 13.0273 138.362 12.6312 138.148 12.2561C137.934 11.8809 137.644 11.537 137.313 11.2347C137.109 11.0575 136.884 10.9012 136.638 10.7762C137.355 10.2759 137.912 9.69229 138.308 9.04613C138.79 8.25408 139.026 7.39949 139.026 6.49278C139.026 5.76326 138.887 5.02331 138.587 4.31462C138.287 3.60594 137.848 2.95978 137.27 2.38658C136.702 1.8238 135.985 1.36524 135.15 1.0109C134.314 0.666978 133.351 0.489807 132.28 0.489807H123.5V20.5206H127.515V12.5583H132.28C132.751 12.5583 133.147 12.6312 133.468 12.7563C133.79 12.8814 134.047 13.0377 134.229 13.2357C134.421 13.4337 134.561 13.6526 134.636 13.8923C134.732 14.1424 134.775 14.403 134.775 14.6531V17.6025C134.775 17.7692 134.786 17.9568 134.796 18.1652C134.807 18.3841 134.839 18.6134 134.882 18.8531C134.935 19.1032 135 19.3638 135.096 19.6139C135.203 19.8848 135.332 20.135 135.482 20.3747L135.578 20.5206H140L139.711 20.0412ZM132.28 9.18162H127.515V3.8769H132.28C132.676 3.8769 133.04 3.94986 133.372 4.08534C133.704 4.22082 133.993 4.40842 134.229 4.64812C134.475 4.8774 134.657 5.15879 134.796 5.49229C134.935 5.81537 135 6.18013 135 6.55532C135 6.95135 134.925 7.30569 134.786 7.62877C134.646 7.95184 134.443 8.22281 134.197 8.45209C133.95 8.68137 133.65 8.85854 133.319 8.99403C132.997 9.11909 132.644 9.18162 132.28 9.18162Z" fill="black"/>
</svg>
