<svg width="260" height="38" viewBox="0 0 260 38" fill="none" xmlns="http://www.w3.org/2000/svg">
<path d="M9.66557 1.91087L18.3038 1.91087V27.1572H23.7028L23.7028 36.8753H0.873047L0.873047 27.1572H6.83757L6.83757 13.1201L1.18155 15.2282L1.18155 5.15022L9.66557 1.91087Z" fill="#92B700"/>
<path d="M28.8914 4.84171C32.8334 2.33936 37.204 1.08818 42.003 1.08818C45.9794 1.08818 49.2701 2.01371 51.8753 3.86477C54.5148 5.71583 55.8346 8.56097 55.8346 12.4002C55.8346 14.6969 55.2518 16.6165 54.0863 18.159C52.9551 19.7016 51.3612 21.1584 49.3044 22.5296C48.9616 22.7353 48.3275 23.1466 47.4019 23.7636C46.5107 24.3807 45.8765 24.8091 45.4995 25.0491C45.1567 25.289 44.7282 25.6147 44.214 26.026C43.6998 26.4374 43.3228 26.8145 43.0828 27.1572L55.886 27.1572V36.8239L27.8116 36.8239L27.8116 32.042C27.8116 30.328 28.0344 28.8026 28.48 27.4658C28.9599 26.1289 29.7826 24.8777 30.9481 23.7122C32.1136 22.5467 33.0048 21.7412 33.6219 21.2956C34.2389 20.8157 35.3872 20.0272 37.0669 18.9303C37.1354 18.8618 37.1869 18.8275 37.2211 18.8275C37.2554 18.7932 37.3068 18.7589 37.3754 18.7246C37.4439 18.6561 37.4954 18.6047 37.5296 18.5704C37.5982 18.5361 37.6668 18.5018 37.7353 18.4676C38.2838 18.0905 39.0036 17.6449 39.8949 17.1307C40.8204 16.5822 41.4888 16.1709 41.9002 15.8966C42.3458 15.6224 42.74 15.2625 43.0828 14.8169C43.4599 14.3712 43.6484 13.8913 43.6484 13.3771C43.6484 11.9032 42.5344 11.1662 40.3062 11.1662C36.6384 11.1662 32.8334 12.6402 28.8914 15.5881V4.84171Z" fill="#92B700"/>
<path d="M103.9 36.8753H92.0221V25.4604C89.6569 26.2146 87.2231 26.5916 84.7207 26.5916C80.7444 26.5916 77.5736 25.5633 75.2084 23.5065C72.8431 21.4155 71.6605 18.3647 71.6605 14.3541V0.882506L83.5381 0.882506V12.9144C83.5381 14.0456 83.9323 14.8854 84.7207 15.4339C85.5434 15.9823 86.6061 16.2566 87.9087 16.2566C89.3827 16.2566 90.7538 15.9652 92.0221 15.3825V0.882506L103.9 0.882506V36.8753Z" fill="#92B700"/>
<path d="M119.89 36.8753H107.858L121.33 0.882506L134.082 0.882506L147.502 36.8753L135.47 36.8753L133.927 32.0934H121.484L119.89 36.8753ZM126.729 15.8452L124.209 23.5065H131.254L128.734 15.8452C128.254 14.337 127.911 12.7944 127.706 11.2176C127.5 12.5887 127.174 14.1313 126.729 15.8452Z" fill="#92B700"/>
<path d="M148.097 19.2388C148.097 15.9481 148.645 13.0344 149.742 10.4977C150.839 7.96109 152.33 5.95578 154.215 4.48179C156.135 3.00779 158.226 1.91087 160.488 1.19102C162.785 0.436882 165.219 0.0598145 167.79 0.0598145C171.663 0.0598145 175.194 0.779671 178.382 2.21938V12.8115C176.017 11.1662 173.189 10.3435 169.898 10.3435C167.156 10.3435 164.859 11.0805 163.008 12.5545C161.191 13.9942 160.283 16.2223 160.283 19.2388C160.283 21.8783 161.191 23.8836 163.008 25.2548C164.825 26.5916 167.036 27.2601 169.641 27.2601C173.72 27.2601 176.719 26.4031 178.639 24.6892V35.5384C175.451 36.9781 171.938 37.698 168.098 37.698C165.459 37.698 162.974 37.3381 160.643 36.6182C158.312 35.8984 156.186 34.8357 154.267 33.4303C152.381 31.9906 150.873 30.0538 149.742 27.62C148.645 25.1862 148.097 22.3925 148.097 19.2388Z" fill="#92B700"/>
<path d="M187.716 32.4019C184.323 28.8369 182.626 24.3292 182.626 18.8789C182.626 13.4286 184.323 8.93804 187.716 5.40731C191.11 1.84231 195.909 0.0598145 202.113 0.0598145C208.318 0.0598145 213.117 1.84231 216.51 5.40731C219.904 8.93804 221.601 13.4286 221.601 18.8789C221.601 24.3292 219.904 28.8369 216.51 32.4019C213.117 35.9326 208.318 37.698 202.113 37.698C195.909 37.698 191.11 35.9326 187.716 32.4019ZM207.461 24.792C208.763 23.3523 209.415 21.3813 209.415 18.8789C209.415 16.3765 208.763 14.4055 207.461 12.9658C206.192 11.5261 204.41 10.8062 202.113 10.8062C199.817 10.8062 198.017 11.5261 196.714 12.9658C195.446 14.4055 194.812 16.3765 194.812 18.8789C194.812 21.3813 195.446 23.3523 196.714 24.792C198.017 26.2317 199.817 26.9516 202.113 26.9516C204.41 26.9516 206.192 26.2317 207.461 24.792Z" fill="#92B700"/>
<path d="M226.932 0.882506L244.929 0.882506C253.43 0.882506 257.681 3.91618 257.681 9.98354C257.681 13.8228 255.967 16.4108 252.539 17.7477C256.926 19.0846 259.12 22.0326 259.12 26.5916C259.12 33.4474 254.235 36.8753 244.466 36.8753H226.932V0.882506ZM243.849 28.1342C246.146 28.1342 247.294 27.1572 247.294 25.2034C247.294 23.2495 246.146 22.2725 243.849 22.2725H238.81V28.1342H243.849ZM246.266 12.2974C246.266 11.5089 246.009 10.8748 245.494 10.3949C244.98 9.88071 244.243 9.62361 243.283 9.62361L238.81 9.62361V14.9197L243.283 14.9711C244.243 14.9711 244.98 14.714 245.494 14.1998C246.009 13.6857 246.266 13.0515 246.266 12.2974Z" fill="#92B700"/>
</svg>
