<svg width="259" height="20" viewBox="0 0 259 20" fill="none" xmlns="http://www.w3.org/2000/svg">
<path d="M6.30671 17.9495H0.873047L0.873047 1.41224L16.3708 1.41224V17.9495L10.9371 17.9495L10.9371 6.18441H6.30671L6.30671 17.9495Z" fill="#212121"/>
<path d="M21.9118 15.8941C20.3525 14.2562 19.5729 12.1851 19.5729 9.68085C19.5729 7.17664 20.3525 5.11343 21.9118 3.4912C23.471 1.85323 25.676 1.03424 28.5267 1.03424C31.3774 1.03424 33.5823 1.85323 35.1415 3.4912C36.7008 5.11343 37.4804 7.17664 37.4804 9.68085C37.4804 12.1851 36.7008 14.2562 35.1415 15.8941C33.5823 17.5163 31.3774 18.3275 28.5267 18.3275C25.676 18.3275 23.471 17.5163 21.9118 15.8941ZM30.9836 12.3977C31.5821 11.7362 31.8813 10.8306 31.8813 9.68085C31.8813 8.53112 31.5821 7.62551 30.9836 6.96402C30.4009 6.30253 29.5819 5.97179 28.5267 5.97179C27.4714 5.97179 26.6446 6.30253 26.0461 6.96402C25.4633 7.62551 25.172 8.53112 25.172 9.68085C25.172 10.8306 25.4633 11.7362 26.0461 12.3977C26.6446 13.0592 27.4714 13.3899 28.5267 13.3899C29.5819 13.3899 30.4009 13.0592 30.9836 12.3977Z" fill="#212121"/>
<path d="M43.0751 1.41224L55.8087 1.41224V17.9495H50.3514V6.18441H48.0599C47.9811 7.14514 47.9024 8.0035 47.8236 8.75949C47.7449 9.49973 47.6267 10.303 47.4692 11.1692C47.3117 12.0354 47.1306 12.7993 46.9259 13.4608C46.7211 14.1065 46.4534 14.7444 46.1226 15.3744C45.7919 16.0044 45.4218 16.5241 45.0123 16.9336C44.6028 17.3274 44.1067 17.6502 43.5239 17.9022C42.9569 18.1385 42.327 18.2566 41.634 18.2566C40.7677 18.2566 39.9409 18.1385 39.1534 17.9022V13.1773C39.7676 13.382 40.3189 13.3348 40.8071 13.0355C41.1536 12.878 41.4528 12.5631 41.7048 12.0906C41.9568 11.6181 42.1458 11.1062 42.2718 10.555C42.4136 10.0037 42.5317 9.29498 42.6262 8.42875C42.7364 7.56251 42.8073 6.80652 42.8388 6.16078C42.8703 5.51505 42.9097 4.68818 42.9569 3.6802C43.0042 2.67222 43.0436 1.91623 43.0751 1.41224Z" fill="#212121"/>
<path d="M69.454 14.1459C68.7611 15.6579 67.9421 16.7367 66.9971 17.3825C66.0521 18.0125 64.8787 18.3275 63.477 18.3275C62.6423 18.3275 61.6422 18.1621 60.4767 17.8313V13.4372C61.0909 13.6577 61.7367 13.7679 62.4139 13.7679C63.4219 13.7679 64.0598 13.4529 64.3275 12.8229L64.5874 12.3032L58.3032 1.41224L64.1385 1.41224L67.1625 7.90901L69.5958 1.41224L75.4075 1.41224L69.454 14.1459Z" fill="#212121"/>
<path d="M92.1978 17.9495H86.7405V12.7048C85.6538 13.0513 84.5356 13.2245 83.3858 13.2245C81.5589 13.2245 80.102 12.7521 79.0153 11.8071C77.9285 10.8463 77.3852 9.44461 77.3852 7.60189V1.41224L82.8424 1.41224V6.9404C82.8424 7.46014 83.0236 7.84601 83.3858 8.098C83.7638 8.35 84.2521 8.476 84.8506 8.476C85.5278 8.476 86.1578 8.34212 86.7405 8.07438V1.41224L92.1978 1.41224V17.9495Z" fill="#212121"/>
<path d="M111.612 17.9495H106.155V12.9883C106.155 11.9173 106.202 10.9881 106.297 10.2006L100.698 17.9495H96.0908V1.41224L101.548 1.41224V6.34978C101.548 7.45226 101.501 8.39725 101.406 9.18474L107.005 1.41224L111.612 1.41224V17.9495Z" fill="#212121"/>
<path d="M122.833 15.8941C121.274 14.2562 120.495 12.1851 120.495 9.68085C120.495 7.17664 121.274 5.11343 122.833 3.4912C124.393 1.85323 126.598 1.03424 129.448 1.03424C132.299 1.03424 134.504 1.85323 136.063 3.4912C137.622 5.11343 138.402 7.17664 138.402 9.68085C138.402 12.1851 137.622 14.2562 136.063 15.8941C134.504 17.5163 132.299 18.3275 129.448 18.3275C126.598 18.3275 124.393 17.5163 122.833 15.8941ZM131.905 12.3977C132.504 11.7362 132.803 10.8306 132.803 9.68085C132.803 8.53112 132.504 7.62551 131.905 6.96402C131.323 6.30253 130.504 5.97179 129.448 5.97179C128.393 5.97179 127.566 6.30253 126.968 6.96402C126.385 7.62551 126.094 8.53112 126.094 9.68085C126.094 10.8306 126.385 11.7362 126.968 12.3977C127.566 13.0592 128.393 13.3899 129.448 13.3899C130.504 13.3899 131.323 13.0592 131.905 12.3977Z" fill="#212121"/>
<path d="M153.368 19.0598H148.43V16.9336C145.958 16.7604 144.02 16.0437 142.619 14.7838C141.217 13.508 140.516 11.8071 140.516 9.68085C140.516 7.55464 141.217 5.86154 142.619 4.60156C144.02 3.32583 145.958 2.60134 148.43 2.4281V0.30188L153.368 0.30188V2.4281C155.825 2.60134 157.746 3.32583 159.132 4.60156C160.534 5.86154 161.235 7.55464 161.235 9.68085C161.235 11.8071 160.534 13.508 159.132 14.7838C157.746 16.0437 155.825 16.7604 153.368 16.9336V19.0598ZM148.501 6.72778C146.753 6.94827 145.879 7.93263 145.879 9.68085C145.879 11.4291 146.753 12.4134 148.501 12.6339V6.72778ZM153.297 6.72778V12.6339C154.998 12.3977 155.849 11.4133 155.849 9.68085C155.849 7.94838 154.998 6.96402 153.297 6.72778Z" fill="#212121"/>
<path d="M175.798 19.0598H170.861V16.9336C168.388 16.7604 166.451 16.0437 165.049 14.7838C163.647 13.508 162.947 11.8071 162.947 9.68085C162.947 7.55464 163.647 5.86154 165.049 4.60156C166.451 3.32583 168.388 2.60134 170.861 2.4281V0.30188L175.798 0.30188V2.4281C178.255 2.60134 180.177 3.32583 181.563 4.60156C182.964 5.86154 183.665 7.55464 183.665 9.68085C183.665 11.8071 182.964 13.508 181.563 14.7838C180.177 16.0437 178.255 16.7604 175.798 16.9336V19.0598ZM170.932 6.72778C169.183 6.94827 168.309 7.93263 168.309 9.68085C168.309 11.4291 169.183 12.4134 170.932 12.6339V6.72778ZM175.727 6.72778V12.6339C177.428 12.3977 178.279 11.4133 178.279 9.68085C178.279 7.94838 177.428 6.96402 175.727 6.72778Z" fill="#212121"/>
<path d="M186.464 1.41224L198.985 1.41224V5.71192L191.921 5.71192V7.62551L198.134 7.62551V11.6417L191.921 11.6417V13.6025L199.126 13.6025V17.9495L186.464 17.9495V1.41224Z" fill="#212121"/>
<path d="M202.549 1.41224L209.779 1.41224C214.724 1.41224 217.197 3.45183 217.197 7.53101C217.197 11.5944 214.724 13.6262 209.779 13.6262H208.007V17.9495H202.549V1.41224ZM211.787 7.53101C211.787 6.44428 211.102 5.90091 209.731 5.90091H208.007V9.13749H209.731C211.102 9.13749 211.787 8.60199 211.787 7.53101Z" fill="#212121"/>
<path d="M239.042 13.4135C239.042 14.3428 238.838 15.1381 238.428 15.7996C238.034 16.4611 237.475 16.973 236.751 17.3352C236.042 17.6817 235.286 17.9337 234.483 18.0912C233.679 18.2487 232.805 18.3275 231.86 18.3275C229.766 18.3275 227.624 17.9652 225.434 17.2407V12.3977C227.214 13.2639 229.136 13.697 231.199 13.697C232.79 13.697 233.585 13.2954 233.585 12.4922C233.585 11.8622 233.112 11.5472 232.167 11.5472H228.222V7.57826L231.719 7.57826C232.538 7.57826 232.947 7.30264 232.947 6.7514C232.947 6.04266 232.262 5.68829 230.892 5.68829C229.144 5.68829 227.419 6.11353 225.718 6.96402V2.12098C227.545 1.39649 229.435 1.03424 231.388 1.03424C233.609 1.03424 235.325 1.42799 236.538 2.21547C237.767 2.98721 238.381 4.15269 238.381 5.71192C238.381 6.5309 238.16 7.25539 237.719 7.88538C237.294 8.49962 236.664 8.94849 235.829 9.23198C237.971 9.95647 239.042 11.3503 239.042 13.4135Z" fill="#212121"/>
<path d="M245.853 17.9495H240.325L246.515 1.41224L252.373 1.41224L258.539 17.9495H253.011L252.303 15.7524H246.585L245.853 17.9495ZM248.995 8.287L247.838 11.8071H251.074L249.916 8.287C249.696 7.59401 249.538 6.88527 249.444 6.16078C249.349 6.79077 249.2 7.49951 248.995 8.287Z" fill="#212121"/>
</svg>
