<svg width="132" height="58" viewBox="0 0 132 58" fill="none" xmlns="http://www.w3.org/2000/svg">
    <path fill-rule="evenodd" clip-rule="evenodd" d="M82.5983 0H56.8748C55.4588 0 54.2788 0.943982 54.2788 2.12396V28.3981C54.2788 29.5781 55.4588 30.5221 56.8748 30.5221H82.5983C84.0142 30.5221 85.1942 29.5781 85.1942 28.3981V2.12396C85.2729 0.943982 84.0929 0 82.5983 0Z" fill="#002C5F"/>
    <path fill-rule="evenodd" clip-rule="evenodd" d="M76.6199 8.65321C76.6199 8.65321 74.8893 6.45059 71.3494 6.13593H59.1562V10.0692H62.3029L62.2242 23.0489H66.7081V9.99052H71.3494C71.3494 9.99052 73.2373 10.2265 73.9453 11.6425C73.9453 11.6425 75.4399 14.3171 73.9453 17.4637C73.9453 17.4637 73.2373 18.801 71.7427 18.9583L68.0454 19.037V22.9703H71.2707C71.2707 22.9703 72.844 22.9703 74.3386 22.341C75.2039 21.9476 76.2266 21.3183 76.7772 20.453C76.6986 20.453 81.5758 14.9464 76.6199 8.65321Z" fill="white"/>
    <path d="M0 38.0966H10.3051V39.8273H5.97855V52.4923H4.16925V39.8273H0V38.0966Z" fill="#2C2C2C"/>
    <path d="M13.4514 41.9512C17.07 41.9512 18.1713 43.2885 18.1713 47.4577C18.1713 51.3123 17.07 52.6496 13.4514 52.6496C9.83276 52.6496 8.73145 51.2337 8.73145 47.4577C8.73145 43.1311 9.91142 41.9512 13.4514 41.9512ZM13.4514 50.919C15.418 50.919 16.362 50.683 16.362 47.3791C16.362 43.8391 15.654 43.6031 13.4514 43.6031C11.4061 43.6031 10.5407 43.9178 10.5407 47.3791C10.5407 50.683 11.4847 50.919 13.4514 50.919Z" fill="#2C2C2C"/>
    <path d="M20.3741 42.0298H21.79L22.1834 43.1311C22.734 42.7378 24.622 41.8725 25.8806 41.8725C28.7126 41.8725 29.3419 44.5471 29.3419 47.1431C29.3419 49.8963 28.8699 52.571 25.8806 52.571C25.0153 52.571 23.3634 52.335 22.1047 51.7843V57.6842H20.2954V42.0298H20.3741ZM25.7233 50.9977C26.9033 50.9977 27.5326 50.2897 27.5326 47.2217C27.5326 44.7044 26.9033 43.6031 25.7233 43.6031C24.3073 43.6031 23.1274 43.9965 22.1834 44.4684V50.5257C23.3634 50.8403 24.3073 50.9977 25.7233 50.9977Z" fill="#2C2C2C"/>
    <path d="M32.0166 38.0966H37.6805C42.0857 38.0966 42.8724 42.2659 42.8724 45.3338C42.8724 48.8737 41.4564 52.4923 37.6805 52.4923H32.0166V38.0966ZM37.6018 50.683C40.0404 50.683 40.9844 48.2444 40.9844 45.2551C40.9844 41.1646 39.7258 39.7486 37.6018 39.7486H33.8259V50.683H37.6018Z" fill="#002C5F"/>
    <path d="M49.0082 41.9512C51.6828 41.9512 53.1775 42.1872 53.1775 45.6484C53.1775 47.2217 52.3122 48.0871 50.3455 48.0871H46.255C46.255 50.3683 46.8056 50.8403 48.3002 50.8403C50.1095 50.8403 51.5255 50.8403 53.0202 50.6043V51.9416C51.4469 52.4136 49.5589 52.4923 47.9069 52.4923C45.2323 52.4923 44.4456 51.155 44.4456 47.1431C44.367 42.5805 45.7043 41.9512 49.0082 41.9512ZM50.1882 46.5924C50.9749 46.5924 51.3682 46.2778 51.3682 45.6484C51.3682 43.7605 51.0535 43.6031 49.0869 43.6031C47.0416 43.6031 46.255 43.6031 46.255 46.5924H50.1882Z" fill="#002C5F"/>
    <path d="M56.3241 42.0298L59.392 50.0537L62.4599 42.0298H64.4266L60.2573 52.4923H58.3693L54.3574 42.0298H56.3241Z" fill="#002C5F"/>
    <path d="M70.1691 41.9512C72.8437 41.9512 74.3383 42.1872 74.3383 45.6484C74.3383 47.2217 73.473 48.0871 71.5064 48.0871H67.3371C67.3371 50.3683 67.8878 50.8403 69.3824 50.8403C71.1917 50.8403 72.6077 50.8403 74.1023 50.6043V51.9416C72.529 52.4136 70.6411 52.4923 68.9891 52.4923C66.3145 52.4923 65.5278 51.155 65.5278 47.1431C65.5278 42.5805 66.8651 41.9512 70.1691 41.9512ZM71.349 46.5924C72.1357 46.5924 72.529 46.2778 72.529 45.6484C72.529 43.7605 72.2144 43.6031 70.2477 43.6031C68.2024 43.6031 67.4158 43.6031 67.4158 46.5924H71.349Z" fill="#002C5F"/>
    <path d="M76.3838 37.074H78.1931V48.6378C78.1931 50.2897 78.6651 50.6831 79.2944 50.8404C79.2944 50.8404 80.789 51.2337 80.9464 51.2337V52.4923H79.0584C77.4851 52.4923 76.3838 51.5484 76.3838 48.7951V37.074Z" fill="#002C5F"/>
    <path d="M86.3742 41.9512C89.9928 41.9512 91.0941 43.2885 91.0941 47.4577C91.0941 51.3123 89.9928 52.6496 86.3742 52.6496C82.7556 52.6496 81.6543 51.2337 81.6543 47.4577C81.6543 43.1311 82.9129 41.9512 86.3742 41.9512ZM86.3742 50.919C88.3408 50.919 89.2848 50.683 89.2848 47.3791C89.2848 43.8391 88.5768 43.6031 86.3742 43.6031C84.3289 43.6031 83.4636 43.9178 83.4636 47.3791C83.5423 50.683 84.4862 50.919 86.3742 50.919Z" fill="#002C5F"/>
    <path d="M93.375 42.0298H94.791L95.1843 43.1311C95.735 42.7378 97.623 41.8725 98.8816 41.8725C101.714 41.8725 102.343 44.5471 102.343 47.1431C102.343 49.8963 101.871 52.571 98.8816 52.571C98.0163 52.571 96.3643 52.335 95.1057 51.7843V57.6842H93.2964V42.0298H93.375ZM98.6456 50.9977C99.8256 50.9977 100.455 50.2897 100.455 47.2217C100.455 44.7044 99.8256 43.6031 98.6456 43.6031C97.2296 43.6031 96.0497 43.9965 95.1057 44.4684V50.5257C96.3643 50.8403 97.3083 50.9977 98.6456 50.9977Z" fill="#002C5F"/>
    <path d="M108.873 41.9512C111.547 41.9512 113.042 42.1872 113.042 45.6484C113.042 47.2217 112.177 48.0871 110.21 48.0871H106.041C106.041 50.3683 106.591 50.8403 108.086 50.8403C109.895 50.8403 111.311 50.8403 112.806 50.6043V51.9416C111.233 52.4136 109.345 52.4923 107.693 52.4923C105.018 52.4923 104.231 51.155 104.231 47.1431C104.231 42.5805 105.569 41.9512 108.873 41.9512ZM110.053 46.5924C110.839 46.5924 111.233 46.2778 111.233 45.6484C111.233 43.7605 110.918 43.6031 108.951 43.6031C106.906 43.6031 106.119 43.6031 106.119 46.5924H110.053Z" fill="#002C5F"/>
    <path d="M115.087 42.0298H116.503L116.975 43.3671C118.076 42.6592 119.099 41.9512 120.672 41.9512C121.223 41.9512 121.852 41.9512 122.088 42.1085V43.9178C121.852 43.8391 121.144 43.8391 120.593 43.8391C119.099 43.8391 118.312 44.1538 116.975 45.0191V52.6496H115.166V42.0298H115.087Z" fill="#002C5F"/>
    <path d="M123.347 44.6258C123.347 42.9738 124.055 41.9512 126.1 41.9512C127.437 41.9512 130.427 42.1085 131.449 42.3445V43.6031H126.336C125.235 43.6031 125.156 43.9965 125.156 44.6258V45.4124C125.156 46.3564 125.628 46.4351 126.336 46.4351H129.325C131.135 46.4351 132 47.5364 132 49.031V50.0537C132 52.1776 130.663 52.6496 129.404 52.6496C128.145 52.6496 124.527 52.4136 123.819 52.2563V50.9977H129.168C129.247 50.9977 130.191 51.0763 130.191 50.0537V49.1884C130.191 48.559 129.955 48.2444 129.168 48.2444H126.179C124.291 48.2444 123.347 47.6151 123.347 45.5698V44.6258Z" fill="#002C5F"/>
</svg>
