<svg width="134" height="60" viewBox="0 0 134 60" fill="none" xmlns="http://www.w3.org/2000/svg">
<path d="M60.3 0H0V60H60.3V0Z" fill="#FFD409"/>
<path fill-rule="evenodd" clip-rule="evenodd" d="M11.3899 20.6666H15.1762C15.5673 20.6666 15.894 20.7551 16.1562 20.9319C16.4184 21.1088 16.5895 21.3432 16.6695 21.635L19.3359 31.7171C19.4159 32.0444 19.4959 32.3937 19.5759 32.7651C19.6559 33.1366 19.7359 33.5257 19.8159 33.9325C19.9759 33.1012 20.1714 32.3627 20.4025 31.7171L23.5489 21.635C23.6289 21.3874 23.8 21.1641 24.0622 20.9651C24.3244 20.7661 24.6421 20.6666 25.0154 20.6666H26.3487C26.7397 20.6666 27.0553 20.7573 27.2953 20.9386C27.5352 21.1199 27.7174 21.352 27.8419 21.635L30.9616 31.7171C31.1927 32.3362 31.3883 33.0393 31.5482 33.8264C31.6193 33.4373 31.6927 33.0658 31.7682 32.7121C31.8438 32.3583 31.9215 32.0267 32.0015 31.7171L34.668 21.635C34.7391 21.3786 34.908 21.153 35.1746 20.9585C35.4413 20.7639 35.7612 20.6666 36.1345 20.6666H39.6809L33.6814 39.9951H29.6017L25.9487 28.0159C25.8154 27.6356 25.6865 27.1979 25.5621 26.7026C25.4376 27.1979 25.3088 27.6356 25.1754 28.0159L21.4691 39.9951H17.3894L11.3899 20.6666ZM46.0032 20.6839H49.275L43.6937 38.5924C43.4328 39.4294 42.6546 40 41.7739 40H38.5983L44.0805 22.1009C44.3383 21.2591 45.1188 20.6839 46.0032 20.6839Z" fill="#222222"/>
<path fill-rule="evenodd" clip-rule="evenodd" d="M72.2072 28V21.5253H70.7385V20.1067H75.1444V21.5253H73.6758V28H72.2072ZM79.5182 19.968C80.6974 19.968 81.689 20.3698 82.493 21.1734C83.297 21.9769 83.699 22.9511 83.699 24.096C83.699 25.2409 83.2952 26.2098 82.4876 27.0027C81.6801 27.7956 80.6903 28.192 79.5182 28.192C78.339 28.192 77.3456 27.7956 76.538 27.0027C75.7305 26.2098 75.3303 25.2409 75.3374 24.096C75.3374 22.9511 75.7376 21.9769 76.538 21.1734C77.3385 20.3698 78.3319 19.968 79.5182 19.968ZM79.5075 26.7733C80.2793 26.7733 80.9261 26.5085 81.4478 25.9787C81.9695 25.4489 82.2304 24.8107 82.2304 24.064C82.2304 23.3245 81.9695 22.6934 81.4478 22.1707C80.9261 21.648 80.2829 21.3867 79.5182 21.3867C78.7464 21.3867 78.1014 21.648 77.5832 22.1707C77.0651 22.6934 76.806 23.3245 76.806 24.064C76.806 24.8178 77.0651 25.4578 77.5832 25.984C78.1014 26.5102 78.7428 26.7733 79.5075 26.7733ZM84.8675 28V20.1067H87.0865C87.9942 20.1138 88.6945 20.336 89.1876 20.7734C89.6808 21.2107 89.9273 21.8098 89.9273 22.5707C89.9273 23.2889 89.6879 23.8756 89.2091 24.3307C88.7303 24.7858 88.0227 25.0134 87.0865 25.0134H86.3361V28H84.8675ZM86.3361 21.5253V23.5947H87.2044C87.6047 23.5947 87.912 23.5094 88.1264 23.3387C88.3408 23.168 88.4515 22.9085 88.4587 22.56C88.4587 22.2187 88.3497 21.9609 88.1317 21.7867C87.9137 21.6125 87.6047 21.5253 87.2044 21.5253H86.3361ZM95.2552 28L92.9504 20.1067H94.4512L95.834 25.632L97.1848 20.1067H98.2568L99.6075 25.632L100.99 20.1067H102.491L100.186 28H99.0179L97.7208 22.784L96.4236 28H95.2552ZM103.402 28V20.1067H107.658V21.5253H104.871V23.3493H107.54V24.768H104.871V26.5814H107.658V28H103.402ZM109.105 28V20.1067H111.014C111.935 20.1138 112.625 20.3005 113.083 20.6667C113.54 21.0329 113.769 21.5396 113.769 22.1867C113.769 22.5422 113.69 22.8462 113.533 23.0987C113.376 23.3511 113.165 23.5485 112.9 23.6907C113.322 23.8329 113.652 24.0747 113.892 24.416C114.131 24.7574 114.251 25.152 114.251 25.6C114.251 26.368 113.987 26.96 113.458 27.376C112.929 27.792 112.139 28 111.089 28H109.105ZM110.574 26.5814H111.528C111.928 26.5885 112.237 26.5031 112.455 26.3253C112.673 26.1476 112.782 25.9022 112.782 25.5893C112.782 25.2765 112.675 25.0294 112.461 24.848C112.246 24.6667 111.935 24.5725 111.528 24.5653H110.574V26.5814ZM110.574 23.1467H111.26C111.596 23.1467 111.852 23.0738 112.027 22.928C112.202 22.7822 112.293 22.5849 112.3 22.336C112.3 22.0658 112.211 21.8631 112.032 21.728C111.853 21.5929 111.596 21.5253 111.26 21.5253H110.574V23.1467Z" fill="#222222"/>
<path fill-rule="evenodd" clip-rule="evenodd" d="M70.4626 40.6666V32.7733H72.6602C73.9824 32.7733 75.0222 33.1093 75.7798 33.7813C76.5373 34.4533 76.9161 35.4471 76.9161 36.7626C76.9161 37.9218 76.5659 38.8622 75.8655 39.584C75.1652 40.3058 74.1075 40.6666 72.6924 40.6666H70.4626ZM71.9313 39.248H72.6495C73.55 39.2551 74.2397 39.056 74.7185 38.6506C75.1973 38.2453 75.4403 37.616 75.4474 36.7626C75.4474 35.8809 75.1991 35.232 74.7024 34.816C74.2057 34.4 73.4964 34.192 72.5745 34.192H71.9313V39.248ZM78.0953 40.6666V32.7733H82.3511V34.192H79.5639V36.016H82.2332V37.4346H79.5639V39.248H82.3511V40.6666H78.0953ZM86.2103 40.6666L83.1444 32.7733H84.6881L86.8214 38.7786L88.9547 32.7733H90.4983L87.4324 40.6666H86.2103ZM91.431 40.6666V32.7733H95.6868V34.192H92.8996V36.016H95.5689V37.4346H92.8996V39.248H95.6868V40.6666H91.431ZM97.134 40.6666V32.7733H98.6026V39.248H101.025V40.6666H97.134ZM105.442 32.6346C106.621 32.6346 107.613 33.0364 108.417 33.84C109.221 34.6435 109.623 35.6177 109.623 36.7626C109.623 37.9075 109.219 38.8764 108.411 39.6693C107.604 40.4622 106.614 40.8586 105.442 40.8586C104.263 40.8586 103.269 40.4622 102.462 39.6693C101.654 38.8764 101.254 37.9075 101.261 36.7626C101.261 35.6177 101.661 34.6435 102.462 33.84C103.262 33.0364 104.256 32.6346 105.442 32.6346ZM105.431 39.44C106.203 39.44 106.85 39.1751 107.372 38.6453C107.893 38.1155 108.154 37.4773 108.154 36.7306C108.154 35.9911 107.893 35.36 107.372 34.8373C106.85 34.3146 106.207 34.0533 105.442 34.0533C104.67 34.0533 104.025 34.3146 103.507 34.8373C102.989 35.36 102.73 35.9911 102.73 36.7306C102.73 37.4844 102.989 38.1244 103.507 38.6506C104.025 39.1769 104.667 39.44 105.431 39.44ZM110.791 40.6666V32.7733H113.01C113.918 32.7804 114.618 33.0026 115.111 33.44C115.605 33.8773 115.851 34.4764 115.851 35.2373C115.851 35.9555 115.612 36.5422 115.133 36.9973C114.654 37.4524 113.947 37.68 113.01 37.68H112.26V40.6666H110.791ZM112.26 34.192V36.2613H113.128C113.528 36.2613 113.836 36.176 114.05 36.0053C114.265 35.8346 114.375 35.5751 114.382 35.2266C114.382 34.8853 114.273 34.6275 114.056 34.4533C113.838 34.2791 113.528 34.192 113.128 34.192H112.26ZM116.923 40.6666V32.7733H121.179V34.192H118.392V36.016H121.061V37.4346H118.392V39.248H121.179V40.6666H116.923ZM122.626 40.6666V32.7733H124.92C125.878 32.7733 126.614 32.9973 127.129 33.4453C127.643 33.8933 127.9 34.5049 127.9 35.28C127.9 35.9271 127.702 36.4871 127.305 36.96C126.909 37.4329 126.392 37.6978 125.756 37.7546L127.986 40.6666H126.174L124.116 37.7546H124.095V40.6666H122.626ZM124.095 34.192V36.5386H124.963C125.413 36.5386 125.771 36.4444 126.035 36.256C126.3 36.0675 126.432 35.7706 126.432 35.3653C126.425 34.9671 126.291 34.672 126.03 34.48C125.769 34.288 125.413 34.192 124.963 34.192H124.095ZM128.394 38.448H129.926C129.934 38.7538 130.039 38.9955 130.243 39.1733C130.446 39.3511 130.695 39.44 130.988 39.44C131.302 39.44 131.56 39.3475 131.76 39.1626C131.96 38.9778 132.06 38.7395 132.06 38.448C132.06 38.1635 131.967 37.9164 131.781 37.7066C131.595 37.4969 131.302 37.3244 130.902 37.1893C130.495 37.0613 130.273 36.9902 130.237 36.976C130.202 36.9618 130.166 36.944 130.13 36.9226C129.637 36.7235 129.273 36.4426 129.037 36.08C128.801 35.7173 128.683 35.3155 128.683 34.8746C128.683 34.2346 128.91 33.7013 129.364 33.2746C129.818 32.848 130.377 32.6346 131.041 32.6346C131.677 32.6346 132.21 32.8409 132.639 33.2533C133.067 33.6658 133.3 34.2062 133.335 34.8746H131.824C131.817 34.6329 131.738 34.4355 131.588 34.2826C131.438 34.1298 131.241 34.0533 130.998 34.0533C130.748 34.0604 130.543 34.1369 130.382 34.2826C130.221 34.4284 130.144 34.6293 130.152 34.8853C130.152 35.1129 130.225 35.3013 130.371 35.4506C130.518 35.6 130.784 35.7315 131.17 35.8453C131.399 35.9235 131.56 35.9786 131.652 36.0106C131.745 36.0426 131.835 36.0729 131.92 36.1013C132.406 36.3004 132.796 36.5884 133.089 36.9653C133.382 37.3422 133.528 37.808 133.528 38.3626C133.528 39.0738 133.285 39.6675 132.799 40.144C132.313 40.6204 131.699 40.8586 130.956 40.8586C130.219 40.8586 129.608 40.6275 129.122 40.1653C128.637 39.7031 128.394 39.1306 128.394 38.448Z" fill="#222222"/>
</svg>
