<svg width="32" height="32" viewBox="0 0 32 32" fill="none" xmlns="http://www.w3.org/2000/svg">
<path fill-rule="evenodd" clip-rule="evenodd" d="M11 8C7.96243 8 5.5 10.4624 5.5 13.5C5.5 16.5376 7.96243 19 11 19C14.0376 19 16.5 16.5376 16.5 13.5C16.5 10.4624 14.0376 8 11 8ZM3.5 13.5C3.5 9.35786 6.85786 6 11 6C15.1421 6 18.5 9.35786 18.5 13.5C18.5 17.6421 15.1421 21 11 21C6.85786 21 3.5 17.6421 3.5 13.5Z" fill="#92B700"/>
<path fill-rule="evenodd" clip-rule="evenodd" d="M22.0242 8.06216C21.2474 7.94285 20.454 7.99141 19.6975 8.20455C19.1659 8.35433 18.6135 8.04481 18.4638 7.51322C18.314 6.98163 18.6235 6.42928 19.1551 6.2795C20.1866 5.98886 21.2685 5.92265 22.3278 6.08533C23.3871 6.24801 24.3992 6.6358 25.296 7.22258C26.1928 7.80937 26.9535 8.58152 27.5267 9.48703C28.1 10.3925 28.4725 11.4104 28.6193 12.472C28.7661 13.5336 28.6836 14.6144 28.3775 15.6414C28.0715 16.6685 27.5488 17.6181 26.8448 18.4261C26.1409 19.2342 25.2719 19.8821 24.2965 20.326C23.3211 20.77 22.2618 20.9998 21.1901 20.9999C20.6378 21 20.19 20.5523 20.19 20C20.1899 19.4477 20.6376 19 21.1899 18.9999C21.9758 18.9998 22.7526 18.8313 23.468 18.5057C24.1833 18.1801 24.8206 17.705 25.3368 17.1124C25.8531 16.5198 26.2364 15.8234 26.4608 15.0702C26.6853 14.317 26.7458 13.5244 26.6382 12.7459C26.5305 11.9673 26.2573 11.2209 25.8369 10.5568C25.4165 9.89276 24.8587 9.32649 24.201 8.89617C23.5433 8.46585 22.8011 8.18146 22.0242 8.06216Z" fill="#92B700"/>
<path fill-rule="evenodd" clip-rule="evenodd" d="M11 21C9.39528 21.0001 7.81415 21.3862 6.39008 22.1259C4.96601 22.8655 3.74081 23.937 2.81791 25.2497C2.50028 25.7015 1.87653 25.8103 1.42472 25.4927C0.972912 25.175 0.864141 24.5513 1.18177 24.0995C2.28921 22.5242 3.7594 21.2385 5.46822 20.351C7.17705 19.4634 9.07434 19.0001 10.9999 19C12.9255 18.9999 14.8228 19.4632 16.5317 20.3506C18.2406 21.238 19.7109 22.5236 20.8184 24.0987C21.1361 24.5505 21.0274 25.1743 20.5756 25.4919C20.1238 25.8096 19.5 25.7009 19.1824 25.2491C18.2594 23.9364 17.0341 22.8651 15.61 22.1255C14.1858 21.386 12.6047 20.9999 11 21Z" fill="#92B700"/>
<path fill-rule="evenodd" clip-rule="evenodd" d="M25.8009 22.1239C24.3768 21.3843 22.7955 20.9988 21.1909 21C20.6386 21.0004 20.1906 20.553 20.1902 20.0007C20.1898 19.4484 20.6372 19.0004 21.1895 19C23.1154 18.9986 25.0134 19.4613 26.7226 20.349C28.4318 21.2366 29.902 22.523 31.0087 24.0993C31.326 24.5513 31.2168 25.175 30.7648 25.4923C30.3128 25.8097 29.6891 25.7005 29.3718 25.2485C28.4498 23.9352 27.2249 22.8634 25.8009 22.1239Z" fill="#92B700"/>
</svg>
