<svg width="24" height="24" viewBox="0 0 24 24" fill="none" xmlns="http://www.w3.org/2000/svg">
<path d="M22.5004 5.68725C21.6839 6.85618 20.6652 7.8699 19.4923 8.68066L19.4923 8.68064C19.4181 10.731 18.8196 12.7282 17.7539 14.4814C16.6882 16.2347 15.1909 17.6855 13.4049 18.6955C11.619 19.7054 9.60394 20.2407 7.55223 20.2502C5.50052 20.2598 3.4806 19.7433 1.6853 18.75L1.68591 18.7489C4.03027 18.7165 6.31319 17.9945 8.24999 16.6732L8.24992 16.6733C6.17665 15.2603 4.59757 13.2338 3.73408 10.878C2.8706 8.52226 2.76599 5.95533 3.43493 3.53711L3.43489 3.53713C4.39298 5.01262 5.66382 6.25938 7.15737 7.18907C8.65092 8.11876 10.3306 8.70864 12.0775 8.91693L12.0773 8.91698C11.8933 8.04005 12.0294 7.12624 12.4608 6.34092C12.8922 5.5556 13.5905 4.95066 14.4293 4.63559C15.2681 4.32052 16.192 4.31613 17.0337 4.62322C17.8755 4.93031 18.5795 5.52858 19.0183 6.30976L19.0184 6.31018C20.2033 6.27481 21.3766 6.06492 22.5004 5.68725" stroke="#212121" stroke-width="1.5" stroke-linecap="round" stroke-linejoin="round"/>
</svg>
