<svg width="24" height="24" viewBox="0 0 24 24" fill="none" xmlns="http://www.w3.org/2000/svg">
<path d="M21.6743 16.6431L21.6715 16.6336L21.6685 16.6243C21.5407 16.226 21.2753 15.806 20.9778 15.4033C20.6717 14.9891 20.2853 14.5329 19.8599 14.0541C19.6058 13.7548 19.2971 13.4525 19.0492 13.2095L19.0464 13.2068C18.7627 12.9289 18.6032 12.7689 18.5477 12.6912L18.5473 12.6906C18.552 12.6828 18.5571 12.6746 18.5625 12.666L18.5852 12.6337L18.5859 12.6328C18.737 12.418 19.341 11.5529 19.9386 10.6034C20.237 10.1293 20.5392 9.62554 20.7839 9.16644C21.0114 8.73972 21.2265 8.28442 21.3134 7.9118C21.3949 7.62504 21.4533 7.17491 21.1741 6.77564C20.8754 6.34855 20.384 6.25 19.9914 6.25H18.0222C17.631 6.25 17.2838 6.35681 17.0009 6.57055C16.7275 6.77712 16.5707 7.04096 16.4762 7.26143L16.4761 7.26139L16.4718 7.27196L16.4717 7.272L16.4717 7.27209L16.4716 7.27225L16.4715 7.27255L16.47 7.27632L16.4626 7.29398C16.4558 7.31015 16.4452 7.33496 16.4311 7.36762C16.4029 7.43294 16.3605 7.52953 16.3049 7.65102C16.1936 7.89428 16.0304 8.23573 15.8245 8.62484C15.4263 9.37768 14.886 10.2748 14.2712 10.987V7.72386C14.2712 7.438 14.2377 7.04698 13.9971 6.72512C13.7144 6.34695 13.2993 6.25 12.9586 6.25H9.8641C9.14135 6.25 8.61302 6.81383 8.61302 7.45263C8.61302 7.78318 8.74524 8.02825 8.85799 8.1914C8.90941 8.2658 8.96563 8.33542 9.00588 8.38528L9.00778 8.38762L9.01143 8.39215C9.0549 8.44598 9.0888 8.48796 9.12255 8.53387C9.22963 8.6795 9.36518 8.89883 9.39542 9.3936V11.7593C9.24259 11.5642 9.0746 11.325 8.89756 11.0452C8.32008 10.1327 7.6983 8.87145 7.23507 7.52205L7.23444 7.52024C7.13436 7.23109 6.99107 6.88444 6.71101 6.62657C6.39276 6.33353 6.01072 6.25 5.64437 6.25H3.67516C3.29291 6.25 2.88349 6.33871 2.58516 6.64995C2.28955 6.95835 2.25 7.33398 2.25 7.55692C2.25 7.79223 2.31482 8.13193 2.41888 8.51346C2.52882 8.91657 2.69926 9.42574 2.946 10.0214C3.43949 11.2129 4.24355 12.7636 5.49549 14.519C7.2295 17.0068 9.73105 18.44 12.1146 18.44C12.7408 18.44 13.3034 18.381 13.7051 18.1116C14.2247 17.7631 14.2712 17.2318 14.2712 16.9241V15.3231C14.2846 15.3304 14.2988 15.3383 14.3136 15.3469C14.5458 15.4807 14.9116 15.7513 15.4718 16.291C15.7904 16.6098 16.0434 16.8854 16.2585 17.1238C16.297 17.1665 16.3351 17.2089 16.3727 17.2507C16.5389 17.4357 16.6955 17.6099 16.8384 17.7532C17.0166 17.9319 17.2195 18.1108 17.4663 18.24C17.7292 18.3777 18.0046 18.44 18.3036 18.44H20.2728C20.6482 18.44 21.126 18.3498 21.4537 17.9694C21.8047 17.562 21.7935 17.051 21.6743 16.6431ZM14.277 11.6992C14.277 11.6992 14.2769 11.6988 14.2767 11.698L14.277 11.6992ZM9.37582 12.5792C9.37582 12.5792 9.37594 12.5787 9.37622 12.5777L9.37582 12.5792ZM9.91889 12.2969C9.92344 12.2989 9.92579 12.3002 9.92583 12.3004C9.92587 12.3005 9.92359 12.2995 9.91889 12.2969ZM14.2832 14.9536C14.2832 14.9536 14.283 14.9543 14.2827 14.9556L14.2832 14.9536Z" stroke="#212121" stroke-width="1.5"/>
</svg>
