<svg width="176" height="36" viewBox="0 0 176 36" fill="none" xmlns="http://www.w3.org/2000/svg">
<path fill-rule="evenodd" clip-rule="evenodd" d="M0 0V36H65.7062L69.5884 18.4463L65.7062 0H0Z" fill="#92B700"/>
<path fill-rule="evenodd" clip-rule="evenodd" d="M0 18.283V36.0004H65.7062L69.5884 18.2773L0 18.283Z" fill="#92B700"/>
<path fill-rule="evenodd" clip-rule="evenodd" d="M23.9878 19.6404C23.9878 26.8143 20.6258 30.4012 13.9022 30.4012C7.37998 30.4012 4.11865 26.8977 4.11865 19.89V6.09766H9.54677V19.9569C9.54677 23.8211 11.0654 25.7537 14.1036 25.7537C17.0856 25.7537 18.5764 23.888 18.5764 20.1566V6.09766H23.9878V19.6404Z" fill="white"/>
<path fill-rule="evenodd" clip-rule="evenodd" d="M26.3899 29.0681V23.7358C27.3619 24.5464 28.4179 25.1544 29.5578 25.5603C30.6973 25.9658 31.8483 26.1683 33.0101 26.1683C33.692 26.1683 34.2868 26.1074 34.7949 25.9852C35.3034 25.8629 35.7279 25.6936 36.0689 25.4768C36.4099 25.2604 36.6637 25.0049 36.8316 24.7101C36.9991 24.4158 37.0827 24.0966 37.0827 23.752C37.0827 23.2856 36.949 22.869 36.6804 22.5023C36.4122 22.1359 36.0466 21.7969 35.5827 21.4856C35.1192 21.1746 34.5689 20.8748 33.9319 20.586C33.2949 20.2968 32.6078 20.0024 31.8706 19.7026C29.9934 18.9248 28.5941 17.975 27.6723 16.853C26.7504 15.7307 26.2897 14.3754 26.2897 12.787C26.2897 11.5424 26.5407 10.4731 27.0436 9.57866C27.5465 8.6846 28.2309 7.94838 29.0966 7.3708C29.9624 6.79321 30.9654 6.36834 32.1053 6.09616C33.2448 5.82398 34.4516 5.6875 35.7251 5.6875C36.9768 5.6875 38.0857 5.76266 39.0521 5.91299C40.0185 6.06293 40.9098 6.29357 41.7254 6.60451V11.5871C41.3231 11.309 40.8847 11.065 40.4096 10.8537C39.9346 10.6428 39.446 10.4676 38.9431 10.3287C38.4406 10.1899 37.9405 10.0874 37.4431 10.0206C36.9458 9.95409 36.4739 9.92086 36.0271 9.92086C35.4124 9.92086 34.8538 9.97902 34.3509 10.0957C33.8484 10.2124 33.4235 10.3762 33.0773 10.5871C32.7308 10.7979 32.4626 11.0511 32.2728 11.3454C32.083 11.6398 31.9879 11.9701 31.9879 12.3368C31.9879 12.7372 32.0938 13.0952 32.3062 13.4117C32.5187 13.7286 32.8203 14.028 33.2114 14.3117C33.6021 14.5949 34.0772 14.8726 34.6358 15.1452C35.1944 15.417 35.8258 15.6975 36.5296 15.9867C37.4905 16.3862 38.3538 16.8115 39.1193 17.2613C39.8844 17.7111 40.5409 18.2195 41.0884 18.7864C41.6359 19.3525 42.0548 19.9997 42.3457 20.7276C42.6361 21.4551 42.7813 22.3021 42.7813 23.269C42.7813 24.6021 42.5271 25.7213 42.0186 26.6268C41.5101 27.532 40.8202 28.2654 39.9489 28.8264C39.0772 29.3878 38.0634 29.7901 36.9068 30.0346C35.7502 30.2791 34.5295 30.4013 33.2448 30.4013C31.9263 30.4013 30.6722 30.2901 29.4822 30.0678C28.2921 29.8459 27.2617 29.5124 26.3899 29.0681Z" fill="white"/>
<path fill-rule="evenodd" clip-rule="evenodd" d="M59.4262 29.9811H45.021V6.09766H58.8736V10.4778H50.4312V15.7908H58.2871V20.1543H50.4312V25.6176H59.4262V29.9811Z" fill="white"/>
<path fill-rule="evenodd" clip-rule="evenodd" d="M88.7071 10.4618H81.8538V29.971H76.4249V10.4618H69.6055V6.08008H88.7071V10.4618Z" fill="#212121"/>
<path fill-rule="evenodd" clip-rule="evenodd" d="M104.63 29.9686H90.2219V6.08008H104.077V10.4614H95.6337V15.7755H103.491V20.1399H95.6337V25.6043H104.63V29.9686Z" fill="#212121"/>
<path fill-rule="evenodd" clip-rule="evenodd" d="M123.992 29.1337C122.238 29.9779 119.948 30.3996 117.122 30.3996C113.436 30.3996 110.538 29.3228 108.427 27.1679C106.316 25.0135 105.261 22.1426 105.261 18.5556C105.261 14.7353 106.447 11.6365 108.821 9.2605C111.194 6.88371 114.274 5.69531 118.06 5.69531C120.406 5.69531 122.383 5.98964 123.992 6.57791V11.7591C122.383 10.8038 120.552 10.3263 118.496 10.3263C116.24 10.3263 114.419 11.0316 113.035 12.4419C111.649 13.8523 110.957 15.7627 110.957 18.1727C110.957 20.4826 111.61 22.3234 112.917 23.6949C114.224 25.0665 115.983 25.7521 118.195 25.7521C120.305 25.7521 122.238 25.2413 123.992 24.2195V29.1337Z" fill="#212121"/>
<path fill-rule="evenodd" clip-rule="evenodd" d="M147.255 29.9686H141.827V20.2399H131.875V29.9686H126.464V6.08008H131.875V15.609H141.827V6.08008H147.255V29.9686Z" fill="#212121"/>
</svg>
