<svg width="22" height="24" viewBox="0 0 22 24" fill="none" xmlns="http://www.w3.org/2000/svg">
<g clip-path="url(#clip0)">
<g filter="url(#filter0_d)">
<circle cx="11" cy="11" r="8.25" fill="white"/>
</g>
<circle cx="11" cy="11" r="8.75" fill="#92B700" stroke="white"/>
<path d="M14.9219 10.4867L9.50902 7.17873C9.41784 7.12298 9.31346 7.09252 9.20661 7.0905C9.09976 7.08848 8.9943 7.11496 8.90108 7.16722C8.80787 7.21949 8.73025 7.29564 8.67624 7.38786C8.62222 7.48007 8.59375 7.58501 8.59375 7.69188V14.3085C8.59384 14.4153 8.62236 14.5202 8.6764 14.6124C8.73044 14.7045 8.80804 14.7806 8.90123 14.8329C8.99441 14.8851 9.09983 14.9116 9.20665 14.9096C9.31346 14.9077 9.41783 14.8773 9.50902 14.8216L14.9219 11.5136C15.0098 11.4599 15.0825 11.3844 15.1329 11.2945C15.1833 11.2046 15.2098 11.1032 15.2098 11.0002C15.2098 10.8971 15.1833 10.7958 15.1329 10.7059C15.0825 10.616 15.0098 10.5405 14.9219 10.4867Z" fill="white"/>
</g>
<defs>
<filter id="filter0_d" x="-1.25" y="0.75" width="24.5" height="24.5" filterUnits="userSpaceOnUse" color-interpolation-filters="sRGB">
<feFlood flood-opacity="0" result="BackgroundImageFix"/>
<feColorMatrix in="SourceAlpha" type="matrix" values="0 0 0 0 0 0 0 0 0 0 0 0 0 0 0 0 0 0 127 0"/>
<feOffset dy="2"/>
<feGaussianBlur stdDeviation="2"/>
<feColorMatrix type="matrix" values="0 0 0 0 0 0 0 0 0 0 0 0 0 0 0 0 0 0 0.1 0"/>
<feBlend mode="normal" in2="BackgroundImageFix" result="effect1_dropShadow"/>
<feBlend mode="normal" in="SourceGraphic" in2="effect1_dropShadow" result="shape"/>
</filter>
<clipPath id="clip0">
<rect width="22" height="24" fill="white"/>
</clipPath>
</defs>
</svg>
